<svg xmlns="http://www.w3.org/2000/svg" viewBox="0 0 1080 1080"><defs><style>.cls-1{fill:#daac71;}.cls-2{fill:#a35c26;}.cls-3{fill:#fff;}.cls-4{fill:#4d4d4d;}</style></defs><title>m1khan svg 1Artboard 1 copy 10</title><g id="color"><rect class="cls-1" x="110" y="279" width="857" height="522"/><rect class="cls-2" x="110" y="472" width="196" height="136"/><rect class="cls-2" x="772" y="472" width="195" height="136"/></g><g id="Layer_2" data-name="Layer 2"><path class="cls-3" d="M949,542.5H938a2.5,2.5,0,0,1,0-5h11a2.5,2.5,0,0,1,0,5Z"/><path class="cls-3" d="M140,542.5H129a2.5,2.5,0,0,1,0-5h11a2.5,2.5,0,0,1,0,5Z"/><path class="cls-3" d="M157.5,560.5a20,20,0,1,1,20-20A20,20,0,0,1,157.5,560.5Zm0-35a15,15,0,1,0,15,15A15,15,0,0,0,157.5,525.5Z"/><path class="cls-3" d="M967,803.5H110a2.5,2.5,0,0,1-2.5-2.5V279a2.5,2.5,0,0,1,2.5-2.5H967a2.5,2.5,0,0,1,2.5,2.5V801A2.5,2.5,0,0,1,967,803.5Zm-854.5-5h852v-517h-852Z"/><path class="cls-3" d="M171.5,739.5H110a2.5,2.5,0,0,1,0-5h61.5a195,195,0,0,0,195-195c0-107.52-87.48-195-195-195H110a2.5,2.5,0,0,1,0-5h61.5c110.28,0,200,89.72,200,200a200,200,0,0,1-200,200Z"/><path class="cls-3" d="M306,610.5H110a2.5,2.5,0,0,1,0-5H303.5v-131H110a2.5,2.5,0,0,1,0-5H306a2.5,2.5,0,0,1,2.5,2.5V608A2.5,2.5,0,0,1,306,610.5Z"/><path class="cls-3" d="M304,610.5c-2.07,0-4.17-.1-6.23-.3a2.5,2.5,0,0,1,.47-5c1.91.18,3.84.27,5.76.27a2.5,2.5,0,0,1,0,5Z"/><path class="cls-3" d="M286.64,608.05a2.47,2.47,0,0,1-.7-.1,66.11,66.11,0,0,1-11.19-4.39,2.5,2.5,0,0,1,2.25-4.47,60.54,60.54,0,0,0,10.33,4.06,2.5,2.5,0,0,1-.69,4.9Zm-20.59-10.34a2.46,2.46,0,0,1-1.5-.5,69.23,69.23,0,0,1-8.92-8,2.5,2.5,0,1,1,3.66-3.4,64.06,64.06,0,0,0,8.27,7.45,2.5,2.5,0,0,1-1.51,4.49Zm-15.72-16.84a2.49,2.49,0,0,1-2.1-1.14,71.81,71.81,0,0,1-5.69-10.54,2.5,2.5,0,1,1,4.58-2,66.7,66.7,0,0,0,5.3,9.81,2.51,2.51,0,0,1-2.09,3.87Zm-9.23-21.13a2.49,2.49,0,0,1-2.42-1.9A74.34,74.34,0,0,1,236.74,546a2.5,2.5,0,0,1,5-.4,68,68,0,0,0,1.8,11,2.49,2.49,0,0,1-1.82,3A2.55,2.55,0,0,1,241.1,559.74Zm-1.87-23H239a2.49,2.49,0,0,1-2.29-2.69,73.19,73.19,0,0,1,1.92-11.82,2.5,2.5,0,0,1,4.86,1.21,67.78,67.78,0,0,0-1.8,11A2.5,2.5,0,0,1,239.23,536.75Zm5.57-22.37a2.51,2.51,0,0,1-2.29-3.5,71.09,71.09,0,0,1,5.69-10.56,2.5,2.5,0,1,1,4.18,2.74,66.59,66.59,0,0,0-5.28,9.81A2.51,2.51,0,0,1,244.8,514.38Zm12.62-19.3a2.51,2.51,0,0,1-1.84-4.21,70.57,70.57,0,0,1,8.91-8,2.5,2.5,0,1,1,3,4,62.69,62.69,0,0,0-8.26,7.46A2.52,2.52,0,0,1,257.42,495.08Zm18.4-13.87a2.5,2.5,0,0,1-1.13-4.74,65.33,65.33,0,0,1,11.19-4.4,2.5,2.5,0,1,1,1.39,4.8,61.23,61.23,0,0,0-10.33,4.07A2.5,2.5,0,0,1,275.82,481.21Z"/><path class="cls-3" d="M298,474.79a2.5,2.5,0,0,1-.23-5c2.06-.2,4.16-.3,6.23-.3a2.5,2.5,0,0,1,0,5c-1.92,0-3.85.09-5.76.27Z"/><path class="cls-3" d="M304,610.5a2.5,2.5,0,0,1,0-5c34.46,0,62.5-29.38,62.5-65.5s-28-65.5-62.5-65.5a2.5,2.5,0,0,1,0-5c37.22,0,67.5,31.63,67.5,70.5S341.22,610.5,304,610.5Z"/><path class="cls-4" d="M95,542.5H75a2.5,2.5,0,0,1,0-5H94.11l33.31-27.18a2.5,2.5,0,0,1,3.16,3.88l-34,27.74A2.52,2.52,0,0,1,95,542.5Z"/><path class="cls-4" d="M129,574.71a2.48,2.48,0,0,1-1.72-.69l-34-32.21a2.5,2.5,0,0,1,3.44-3.62l34,32.21a2.5,2.5,0,0,1-1.72,4.31Z"/><path class="cls-4" d="M129,583.5a2.5,2.5,0,0,1-2.5-2.5V500a2.5,2.5,0,0,1,5,0v81A2.5,2.5,0,0,1,129,583.5Z"/><path class="cls-4" d="M82,578.5H66A11.51,11.51,0,0,1,54.5,567V511A11.51,11.51,0,0,1,66,499.5H82A11.51,11.51,0,0,1,93.5,511v56A11.51,11.51,0,0,1,82,578.5Zm-16-74a6.51,6.51,0,0,0-6.5,6.5v56a6.51,6.51,0,0,0,6.5,6.5H82a6.51,6.51,0,0,0,6.5-6.5V511a6.51,6.51,0,0,0-6.5-6.5Z"/><path class="cls-3" d="M967,739.5H906.5a200,200,0,0,1-200-200c0-110.28,89.72-200,200-200H967a2.5,2.5,0,0,1,0,5H906.5c-107.52,0-195,87.48-195,195a195,195,0,0,0,195,195H967a2.5,2.5,0,0,1,0,5Z"/><path class="cls-3" d="M967,610.5H772a2.5,2.5,0,0,1-2.5-2.5V472a2.5,2.5,0,0,1,2.5-2.5H967a2.5,2.5,0,0,1,0,5H774.5v131H967a2.5,2.5,0,0,1,0,5Z"/><path class="cls-3" d="M774,610.5a2.5,2.5,0,0,1,0-5c1.92,0,3.85-.09,5.76-.27a2.5,2.5,0,1,1,.47,5C778.17,610.4,776.08,610.5,774,610.5Z"/><path class="cls-3" d="M791.36,608.05a2.5,2.5,0,0,1-.69-4.9A60.54,60.54,0,0,0,801,599.09a2.5,2.5,0,0,1,2.25,4.47A66.11,66.11,0,0,1,792.06,608,2.47,2.47,0,0,1,791.36,608.05ZM812,597.71a2.5,2.5,0,0,1-1.51-4.49,64.06,64.06,0,0,0,8.27-7.45,2.5,2.5,0,1,1,3.66,3.4,69.23,69.23,0,0,1-8.92,8A2.46,2.46,0,0,1,812,597.71Zm15.72-16.84a2.51,2.51,0,0,1-2.09-3.87,66.7,66.7,0,0,0,5.3-9.81,2.5,2.5,0,0,1,4.58,2,71.81,71.81,0,0,1-5.69,10.54A2.49,2.49,0,0,1,827.67,580.87Zm9.23-21.13a2.55,2.55,0,0,1-.61-.08,2.49,2.49,0,0,1-1.82-3,68,68,0,0,0,1.8-11,2.5,2.5,0,0,1,5,.4,74.34,74.34,0,0,1-1.94,11.82A2.49,2.49,0,0,1,836.9,559.74Zm1.87-23a2.5,2.5,0,0,1-2.49-2.3,67.78,67.78,0,0,0-1.8-11,2.5,2.5,0,0,1,4.86-1.21,73.19,73.19,0,0,1,1.92,11.82,2.49,2.49,0,0,1-2.29,2.69Zm-5.57-22.37a2.51,2.51,0,0,1-2.3-1.51,66.59,66.59,0,0,0-5.28-9.81,2.5,2.5,0,1,1,4.18-2.74,71.09,71.09,0,0,1,5.69,10.56,2.51,2.51,0,0,1-2.29,3.5Zm-12.62-19.3a2.5,2.5,0,0,1-1.83-.8,62.69,62.69,0,0,0-8.26-7.46,2.5,2.5,0,1,1,3-4,69.8,69.8,0,0,1,8.9,8,2.5,2.5,0,0,1-1.83,4.21Zm-18.4-13.87a2.5,2.5,0,0,1-1.12-.27,61.23,61.23,0,0,0-10.33-4.07,2.5,2.5,0,1,1,1.39-4.8,65.33,65.33,0,0,1,11.19,4.4,2.5,2.5,0,0,1-1.13,4.74Z"/><path class="cls-3" d="M780,474.79l-.24,0c-1.91-.18-3.84-.27-5.76-.27a2.5,2.5,0,0,1,0-5c2.08,0,4.17.1,6.23.3a2.5,2.5,0,0,1-.23,5Z"/><path class="cls-3" d="M774,610.5c-37.22,0-67.5-31.63-67.5-70.5s30.28-70.5,67.5-70.5a2.5,2.5,0,0,1,0,5c-34.46,0-62.5,29.38-62.5,65.5s28,65.5,62.5,65.5a2.5,2.5,0,0,1,0,5Z"/><path class="cls-4" d="M1002,542.5H983a2.52,2.52,0,0,1-1.58-.56l-34-27.74a2.5,2.5,0,0,1,3.16-3.88l33.31,27.18H1002a2.5,2.5,0,0,1,0,5Z"/><path class="cls-4" d="M949,574.71a2.5,2.5,0,0,1-1.72-4.31l34-32.21a2.5,2.5,0,1,1,3.44,3.62l-34,32.21A2.48,2.48,0,0,1,949,574.71Z"/><path class="cls-4" d="M949,583.5a2.5,2.5,0,0,1-2.5-2.5V500a2.5,2.5,0,0,1,5,0v81A2.5,2.5,0,0,1,949,583.5Z"/><path class="cls-4" d="M1012,578.5H996A11.51,11.51,0,0,1,984.5,567V511A11.51,11.51,0,0,1,996,499.5h16a11.51,11.51,0,0,1,11.5,11.5v56A11.51,11.51,0,0,1,1012,578.5Zm-16-74a6.51,6.51,0,0,0-6.5,6.5v56a6.51,6.51,0,0,0,6.5,6.5h16a6.51,6.51,0,0,0,6.5-6.5V511a6.51,6.51,0,0,0-6.5-6.5Z"/><path class="cls-3" d="M920.5,560.5a20,20,0,1,1,20-20A20,20,0,0,1,920.5,560.5Zm0-35a15,15,0,1,0,15,15A15,15,0,0,0,920.5,525.5Z"/><path class="cls-3" d="M540,803.5a2.5,2.5,0,0,1-2.5-2.5V279a2.5,2.5,0,0,1,5,0V801A2.5,2.5,0,0,1,540,803.5Z"/><path class="cls-3" d="M540.5,610.5a71,71,0,1,1,71-71A71.08,71.08,0,0,1,540.5,610.5Zm0-137a66,66,0,1,0,66,66A66.08,66.08,0,0,0,540.5,473.5Z"/><path class="cls-3" d="M398,822.5a2.5,2.5,0,0,1-2.5-2.5V782a2.5,2.5,0,0,1,5,0v38A2.5,2.5,0,0,1,398,822.5Z"/><path class="cls-3" d="M678,822.5a2.5,2.5,0,0,1-2.5-2.5V782a2.5,2.5,0,0,1,5,0v38A2.5,2.5,0,0,1,678,822.5Z"/><path class="cls-3" d="M398,300.5a2.5,2.5,0,0,1-2.5-2.5V260a2.5,2.5,0,0,1,5,0v38A2.5,2.5,0,0,1,398,300.5Z"/><path class="cls-3" d="M678,300.5a2.5,2.5,0,0,1-2.5-2.5V260a2.5,2.5,0,0,1,5,0v38A2.5,2.5,0,0,1,678,300.5Z"/></g></svg>