<svg width="444" height="754" viewBox="0 0 444 754" fill="none" xmlns="http://www.w3.org/2000/svg">
<g clip-path="url(#clip0_4287_3673)">
<path d="M17.186 52.0659L17.186 703.287L426.032 703.287L426.032 52.0659L17.186 52.0659Z" fill="#DAAC71"/>
<path d="M168.35 554.35L168.35 703.287L274.869 703.287L274.869 554.35L168.35 554.35Z" fill="#A35C26"/>
<path d="M168.35 52.0659L168.35 200.243L274.869 200.243L274.869 52.0659L168.35 52.0659Z" fill="#A35C26"/>
<path d="M223.567 65.7439L223.567 74.1026C223.567 75.1518 222.69 76.0023 221.609 76.0023C220.528 76.0023 219.651 75.1518 219.651 74.1026L219.651 65.7439C219.651 64.6947 220.528 63.8442 221.609 63.8442C222.69 63.8442 223.567 64.6947 223.567 65.7439Z" fill="white"/>
<path d="M223.567 680.49L223.567 688.849C223.567 689.898 222.69 690.749 221.609 690.749C220.528 690.749 219.651 689.898 219.651 688.849L219.651 680.49C219.651 679.441 220.528 678.591 221.609 678.591C222.69 678.591 223.567 679.441 223.567 680.49Z" fill="white"/>
<path d="M237.665 667.192C237.665 675.586 230.652 682.39 222.001 682.39C213.349 682.39 206.336 675.586 206.336 667.192C206.336 658.799 213.349 651.995 222.001 651.995C230.652 651.995 237.665 658.799 237.665 667.192ZM210.252 667.192C210.252 673.488 215.512 678.591 222.001 678.591C228.489 678.591 233.749 673.488 233.749 667.192C233.749 660.897 228.489 655.794 222.001 655.794C215.512 655.794 210.252 660.897 210.252 667.192Z" fill="white"/>
<path d="M427.99 52.0659L427.99 703.287C427.99 704.336 427.114 705.187 426.032 705.187L17.1861 705.187C16.1047 705.187 15.228 704.336 15.228 703.287L15.228 52.0659C15.228 51.0167 16.1047 50.1662 17.1861 50.1662L426.032 50.1662C427.114 50.1662 427.99 51.0167 427.99 52.0659ZM424.074 701.387L424.074 53.9656L19.1442 53.9656L19.1442 701.387L424.074 701.387Z" fill="white"/>
<path d="M377.863 656.554L377.863 703.287C377.863 704.336 376.987 705.187 375.905 705.187C374.824 705.187 373.947 704.336 373.947 703.287L373.947 656.554C373.947 574.718 305.568 508.377 221.217 508.377C137.004 508.377 68.4874 574.851 68.4874 656.554L68.4874 703.287C68.4874 704.336 67.6108 705.187 66.5294 705.187C65.448 705.187 64.5713 704.336 64.5713 703.287L64.5713 656.554C64.5713 572.754 134.843 504.577 221.217 504.577C307.73 504.577 377.863 572.62 377.863 656.554Z" fill="white"/>
<path d="M276.827 554.35L276.827 703.287C276.827 704.336 275.95 705.187 274.869 705.187C273.787 705.187 272.911 704.336 272.911 703.287L272.911 556.249L170.308 556.249L170.308 703.287C170.308 704.336 169.431 705.187 168.35 705.187C167.268 705.187 166.392 704.336 166.392 703.287L166.392 554.35C166.392 553.3 167.268 552.45 168.35 552.45L274.869 552.45C275.95 552.45 276.827 553.3 276.827 554.35Z" fill="white"/>
<path d="M276.827 555.869C276.827 557.442 276.749 559.038 276.592 560.604C276.49 561.653 275.531 562.423 274.45 562.325C273.368 562.226 272.574 561.296 272.676 560.246C272.817 558.795 272.887 557.328 272.887 555.869C272.887 554.82 273.764 553.97 274.845 553.97C275.927 553.97 276.803 554.82 276.803 555.869L276.827 555.869Z" fill="white"/>
<path d="M274.908 569.061C274.908 569.241 274.882 569.42 274.83 569.593C273.952 572.523 272.801 575.369 271.391 578.096C270.904 579.034 269.726 579.412 268.759 578.939C267.793 578.467 267.403 577.324 267.89 576.386C269.196 573.87 270.26 571.242 271.07 568.537C271.373 567.529 272.46 566.951 273.498 567.245C274.331 567.48 274.904 568.219 274.908 569.061ZM266.809 584.707C266.812 585.118 266.674 585.519 266.418 585.847C264.535 588.278 262.438 590.546 260.152 592.625C259.391 593.371 258.151 593.377 257.383 592.639C256.614 591.901 256.607 590.698 257.368 589.953C257.407 589.915 257.447 589.878 257.489 589.844C259.618 587.917 261.57 585.815 263.324 583.56C263.978 582.724 265.207 582.562 266.068 583.197C266.554 583.556 266.84 584.114 266.841 584.707L266.809 584.707ZM253.62 596.652C253.622 597.297 253.285 597.899 252.727 598.248C250.104 599.91 247.343 601.356 244.471 602.572C243.494 603.021 242.327 602.617 241.864 601.668C241.401 600.72 241.818 599.588 242.795 599.138C242.831 599.122 242.868 599.106 242.905 599.092C245.578 597.96 248.148 596.612 250.589 595.064C251.501 594.493 252.718 594.748 253.306 595.634C253.508 595.938 253.617 596.291 253.62 596.652ZM237.07 603.666C237.07 604.539 236.456 605.298 235.582 605.505C232.537 606.238 229.435 606.731 226.308 606.979C225.227 607.063 224.28 606.281 224.194 605.231C224.107 604.182 224.914 603.264 225.995 603.18C228.901 602.953 231.782 602.496 234.611 601.812C235.653 601.568 236.702 602.186 236.96 603.195C237.017 603.347 237.054 603.505 237.07 603.666ZM219.056 605.087L219.056 605.262C218.973 606.304 218.035 607.083 216.961 607.003C216.957 607.003 216.953 607.002 216.949 607.002C213.827 606.762 210.731 606.274 207.691 605.543C206.64 605.289 206 604.257 206.262 603.237C206.523 602.217 207.588 601.596 208.639 601.85C211.467 602.535 214.349 602.992 217.254 603.218C218.265 603.292 219.05 604.103 219.064 605.087L219.056 605.087ZM201.535 600.855C201.528 601.908 200.642 602.756 199.556 602.749C199.294 602.748 199.035 602.695 198.794 602.595C195.916 601.382 193.149 599.936 190.523 598.271C189.602 597.721 189.315 596.551 189.882 595.657C190.449 594.764 191.655 594.485 192.576 595.036C192.607 595.054 192.638 595.074 192.669 595.095C195.11 596.638 197.68 597.98 200.352 599.107C201.073 599.407 201.541 600.094 201.543 600.855L201.535 600.855ZM186.418 591.265C186.416 592.318 185.533 593.17 184.447 593.167C183.956 593.166 183.483 592.986 183.121 592.663C180.839 590.582 178.742 588.317 176.855 585.892C176.206 585.053 176.382 583.862 177.247 583.233C178.112 582.603 179.339 582.773 179.988 583.613C181.74 585.869 183.695 587.969 185.831 589.889C186.213 590.251 186.428 590.747 186.426 591.265L186.418 591.265ZM175.555 577.283C175.564 578.332 174.694 579.189 173.613 579.198C172.863 579.204 172.176 578.793 171.843 578.142C170.427 575.416 169.273 572.57 168.396 569.638C168.061 568.641 168.623 567.569 169.651 567.243C170.679 566.918 171.784 567.463 172.119 568.46C172.133 568.5 172.145 568.541 172.156 568.582C172.971 571.287 174.038 573.914 175.344 576.432C175.484 576.695 175.559 576.987 175.563 577.283L175.555 577.283Z" fill="white"/>
<path d="M170.535 560.429C170.585 561.478 169.748 562.368 168.667 562.416C167.585 562.464 166.668 561.653 166.619 560.603C166.462 559.038 166.384 557.442 166.384 555.869C166.384 554.82 167.26 553.97 168.342 553.97C169.423 553.97 170.3 554.82 170.3 555.869C170.3 557.328 170.37 558.795 170.511 560.246L170.535 560.429Z" fill="white"/>
<path d="M276.827 555.869C276.827 556.919 275.95 557.769 274.869 557.769C273.787 557.769 272.911 556.919 272.911 555.869C272.911 529.684 249.9 508.377 221.609 508.377C193.319 508.377 170.308 529.653 170.308 555.869C170.308 556.919 169.431 557.769 168.35 557.769C167.268 557.769 166.392 556.919 166.392 555.869C166.392 527.586 191.165 504.577 221.609 504.577C252.053 504.577 276.827 527.586 276.827 555.869Z" fill="white"/>
<path d="M223.567 714.685L223.567 729.883C223.567 730.932 222.691 731.783 221.609 731.783C220.528 731.783 219.651 730.932 219.651 729.883L219.651 715.362L198.363 690.05C197.68 689.236 197.806 688.038 198.645 687.375C199.484 686.712 200.719 686.834 201.402 687.649L223.129 713.485C223.412 713.825 223.567 714.248 223.567 714.685Z" fill="#4D4D4D"/>
<path d="M248.795 688.849C248.796 689.336 248.602 689.805 248.255 690.156L223.027 715.992C222.244 716.716 221.004 716.687 220.258 715.927C219.565 715.22 219.536 714.118 220.191 713.378L245.419 687.542C246.165 686.783 247.405 686.753 248.188 687.477C248.575 687.835 248.794 688.331 248.795 688.849Z" fill="#4D4D4D"/>
<path d="M255.68 688.849C255.68 689.898 254.803 690.749 253.721 690.749L190.28 690.749C189.198 690.749 188.322 689.898 188.322 688.849C188.322 687.8 189.198 686.949 190.28 686.949L253.721 686.949C254.803 686.949 255.68 687.8 255.68 688.849Z" fill="#4D4D4D"/>
<path d="M251.763 724.564L251.763 736.722C251.759 741.546 247.729 745.456 242.756 745.461L198.895 745.461C193.923 745.456 189.893 741.546 189.888 736.722L189.888 724.564C189.893 719.739 193.923 715.829 198.895 715.825L242.756 715.825C247.729 715.829 251.759 719.739 251.763 724.564ZM193.804 736.722C193.809 739.448 196.085 741.657 198.895 741.661L242.756 741.661C245.566 741.657 247.843 739.448 247.847 736.722L247.847 724.564C247.843 721.838 245.566 719.629 242.756 719.625L198.895 719.625C196.085 719.629 193.809 721.838 193.804 724.564L193.804 736.722Z" fill="#4D4D4D"/>
<path d="M377.863 52.0659L377.863 98.0389C377.863 181.974 307.73 250.016 221.217 250.016C134.843 250.016 64.5713 181.839 64.5713 98.0389L64.5713 52.0659C64.5713 51.0168 65.448 50.1662 66.5294 50.1662C67.6108 50.1662 68.4874 51.0168 68.4874 52.0659L68.4874 98.0389C68.4874 179.742 137.004 246.216 221.217 246.216C305.568 246.216 373.947 179.875 373.947 98.0389L373.947 52.0659C373.947 51.0168 374.824 50.1662 375.905 50.1662C376.987 50.1662 377.863 51.0168 377.863 52.0659Z" fill="white"/>
<path d="M276.827 52.0659L276.827 200.243C276.827 201.293 275.95 202.143 274.869 202.143L168.35 202.143C167.268 202.143 166.392 201.293 166.392 200.243L166.392 52.0659C166.392 51.0167 167.268 50.1662 168.35 50.1662C169.431 50.1662 170.308 51.0167 170.308 52.0659L170.308 198.344L272.911 198.344L272.911 52.0659C272.911 51.0167 273.787 50.1662 274.869 50.1662C275.95 50.1662 276.827 51.0167 276.827 52.0659Z" fill="white"/>
<path d="M276.827 198.724C276.827 199.773 275.95 200.623 274.869 200.623C273.787 200.623 272.911 199.773 272.911 198.724C272.911 197.265 272.84 195.798 272.699 194.347C272.598 193.297 273.392 192.367 274.473 192.268C275.555 192.17 276.514 192.94 276.615 193.99C276.749 195.555 276.827 197.143 276.827 198.724Z" fill="white"/>
<path d="M274.908 185.532C274.903 186.581 274.023 187.428 272.942 187.424C272.075 187.421 271.313 186.864 271.07 186.056C270.26 183.351 269.195 180.723 267.89 178.207C267.403 177.269 267.793 176.126 268.759 175.654C269.726 175.181 270.904 175.559 271.391 176.497C272.814 179.223 273.978 182.069 274.869 185C274.908 185.175 274.921 185.354 274.908 185.532ZM266.809 169.848C266.808 170.897 265.93 171.747 264.849 171.745C264.238 171.745 263.662 171.467 263.292 170.995C261.539 168.74 259.587 166.638 257.457 164.711C256.635 164.03 256.537 162.831 257.239 162.033C257.941 161.235 259.177 161.14 259.999 161.821C260.041 161.856 260.082 161.892 260.12 161.93C262.407 164.01 264.503 166.277 266.386 168.708C266.654 169.032 266.803 169.433 266.809 169.848ZM253.62 157.903C253.611 158.956 252.724 159.803 251.638 159.795C251.266 159.792 250.902 159.687 250.588 159.491C248.148 157.943 245.577 156.596 242.905 155.464C241.928 155.014 241.511 153.882 241.974 152.933C242.417 152.026 243.511 151.61 244.471 151.983C247.342 153.199 250.104 154.645 252.727 156.307C253.297 156.664 253.635 157.282 253.62 157.941L253.62 157.903ZM237.07 150.889C237.068 151.045 237.047 151.201 237.007 151.352C236.749 152.362 235.699 152.979 234.658 152.735C231.829 152.052 228.948 151.594 226.042 151.368C224.961 151.284 224.154 150.365 224.241 149.316C224.327 148.267 225.274 147.484 226.355 147.568C229.477 147.817 232.573 148.31 235.613 149.042C236.492 149.265 237.096 150.046 237.07 150.927L237.07 150.889ZM219.056 149.468C219.055 150.458 218.271 151.281 217.254 151.36C214.349 151.586 211.467 152.043 208.639 152.728C207.588 152.982 206.523 152.361 206.262 151.341C206 150.321 206.64 149.289 207.691 149.035C210.731 148.304 213.827 147.816 216.949 147.576C218.022 147.489 218.965 148.263 219.055 149.304C219.055 149.308 219.055 149.312 219.056 149.316L219.056 149.468ZM201.535 153.701C201.534 154.46 201.07 155.146 200.352 155.448C197.68 156.575 195.11 157.917 192.669 159.461C191.781 160.06 190.561 159.849 189.943 158.988C189.324 158.127 189.542 156.943 190.43 156.343C190.46 156.323 190.491 156.303 190.523 156.284C193.149 154.619 195.916 153.173 198.793 151.96C199.791 151.545 200.947 151.993 201.375 152.961C201.479 153.195 201.533 153.446 201.535 153.701ZM186.418 163.29C186.418 163.818 186.191 164.322 185.792 164.681C183.656 166.601 181.701 168.701 179.949 170.958C179.3 171.797 178.073 171.967 177.208 171.337C176.343 170.708 176.167 169.517 176.816 168.678C178.701 166.254 180.798 163.991 183.082 161.915C183.871 161.197 185.11 161.236 185.85 162.001C186.191 162.355 186.381 162.821 186.379 163.306L186.418 163.29ZM175.555 177.272C175.554 177.568 175.481 177.859 175.344 178.123C174.038 180.641 172.971 183.268 172.156 185.973C171.89 186.99 170.825 187.605 169.776 187.347C168.728 187.089 168.094 186.056 168.36 185.039C168.371 184.998 168.383 184.957 168.396 184.917C169.273 181.986 170.427 179.139 171.843 176.414C172.323 175.473 173.497 175.089 174.466 175.555C175.138 175.878 175.561 176.545 175.555 177.272Z" fill="white"/>
<path d="M170.535 194.164L170.535 194.347C170.394 195.798 170.323 197.265 170.323 198.724C170.323 199.773 169.447 200.623 168.365 200.623C167.284 200.623 166.407 199.773 166.407 198.724C166.407 197.143 166.486 195.555 166.642 193.99C166.692 192.94 167.609 192.129 168.69 192.177C169.772 192.225 170.608 193.115 170.558 194.164L170.535 194.164Z" fill="white"/>
<path d="M276.827 198.724C276.827 227.007 252.053 250.016 221.609 250.016C191.165 250.016 166.392 227.007 166.392 198.724C166.392 197.674 167.268 196.824 168.35 196.824C169.431 196.824 170.308 197.674 170.308 198.724C170.308 224.909 193.319 246.216 221.609 246.216C249.9 246.216 272.911 224.94 272.911 198.724C272.911 197.674 273.787 196.824 274.869 196.824C275.95 196.824 276.827 197.674 276.827 198.724Z" fill="white"/>
<path d="M223.567 25.47L223.567 39.9078C223.567 40.3448 223.412 40.7685 223.129 41.1084L201.402 66.9445C200.719 67.7586 199.484 67.8811 198.645 67.2181C197.806 66.555 197.68 65.3574 198.363 64.5433L219.651 39.2315L219.651 25.47C219.651 24.4207 220.528 23.5702 221.609 23.5702C222.691 23.5702 223.567 24.4207 223.567 25.47Z" fill="#4D4D4D"/>
<path d="M248.795 65.7439C248.793 66.7931 247.915 67.642 246.834 67.6401C246.299 67.6392 245.788 67.4263 245.419 67.0509L220.192 41.2147C219.409 40.4911 219.378 39.2887 220.124 38.529C220.87 37.7693 222.109 37.7399 222.893 38.4636C222.94 38.5071 222.984 38.5529 223.027 38.6007L248.255 64.4368C248.602 64.7884 248.796 65.2568 248.795 65.7439Z" fill="#4D4D4D"/>
<path d="M255.68 65.7439C255.68 66.7931 254.803 67.6436 253.721 67.6436L190.28 67.6436C189.198 67.6436 188.322 66.7931 188.322 65.7439C188.322 64.6946 189.198 63.8442 190.28 63.8442L253.721 63.8442C254.803 63.8442 255.68 64.6946 255.68 65.7439Z" fill="#4D4D4D"/>
<path d="M251.763 17.8711L251.763 30.0293C251.759 34.8538 247.729 38.7638 242.756 38.7679L198.895 38.7679C193.923 38.7638 189.893 34.8538 189.888 30.0293L189.888 17.8711C189.893 13.0466 193.923 9.13658 198.895 9.13244L242.756 9.13245C247.729 9.13658 251.759 13.0466 251.763 17.8711ZM193.804 30.0293C193.809 32.7554 196.085 34.9643 198.895 34.9685L242.756 34.9685C245.566 34.9643 247.843 32.7554 247.847 30.0293L247.847 17.8711C247.843 15.145 245.566 12.936 242.756 12.9318L198.895 12.9318C196.085 12.936 193.809 15.145 193.804 17.8711L193.804 30.0293Z" fill="#4D4D4D"/>
<path d="M237.665 87.4005C237.665 95.7939 230.652 102.598 222.001 102.598C213.349 102.598 206.336 95.7939 206.336 87.4005C206.336 79.007 213.349 72.2028 222.001 72.2028C230.652 72.2028 237.665 79.007 237.665 87.4005ZM210.252 87.4005C210.252 93.6956 215.512 98.7988 222.001 98.7988C228.489 98.7988 233.749 93.6956 233.749 87.4005C233.749 81.1054 228.489 76.0022 222.001 76.0022C215.512 76.0022 210.252 81.1054 210.252 87.4005Z" fill="white"/>
<path d="M427.99 376.537C427.99 377.586 427.114 378.436 426.032 378.436L17.1861 378.436C16.1047 378.436 15.228 377.586 15.228 376.537C15.228 375.487 16.1047 374.637 17.1861 374.637L426.032 374.637C427.114 374.637 427.99 375.487 427.99 376.537Z" fill="white"/>
<path d="M276.827 376.157C276.827 405.953 251.93 430.108 221.218 430.108C190.506 430.108 165.608 405.953 165.608 376.157C165.608 346.36 190.506 322.205 221.218 322.205C251.916 322.238 276.793 346.374 276.827 376.157ZM169.525 376.157C169.525 403.855 192.668 426.309 221.218 426.309C249.767 426.309 272.911 403.855 272.911 376.157C272.911 348.458 249.767 326.004 221.218 326.004C192.683 326.038 169.559 348.472 169.525 376.157Z" fill="white"/>
<path d="M442.872 484.44C442.872 485.489 441.995 486.34 440.914 486.34L411.151 486.34C410.07 486.34 409.193 485.489 409.193 484.44C409.193 483.391 410.07 482.541 411.151 482.541L440.914 482.541C441.995 482.541 442.872 483.391 442.872 484.44Z" fill="white"/>
<path d="M442.872 271.673C442.872 272.722 441.995 273.572 440.914 273.572L411.151 273.572C410.07 273.572 409.193 272.722 409.193 271.673C409.193 270.623 410.07 269.773 411.151 269.773L440.914 269.773C441.995 269.773 442.872 270.623 442.872 271.673Z" fill="white"/>
<path d="M34.0256 484.44C34.0256 485.489 33.1489 486.34 32.0675 486.34L2.30475 486.34C1.22334 486.34 0.34668 485.489 0.34668 484.44C0.34668 483.391 1.22334 482.541 2.30475 482.541L32.0675 482.541C33.1489 482.541 34.0256 483.391 34.0256 484.44Z" fill="white"/>
<path d="M34.0256 271.673C34.0256 272.722 33.1489 273.572 32.0675 273.572L2.30475 273.572C1.22334 273.572 0.34668 272.722 0.34668 271.673C0.34668 270.623 1.22334 269.773 2.30475 269.773L32.0675 269.773C33.1489 269.773 34.0256 270.623 34.0256 271.673Z" fill="white"/>
</g>
<defs>
<clipPath id="clip0_4287_3673">
<rect width="754" height="444" fill="white" transform="translate(0 754) rotate(-90)"/>
</clipPath>
</defs>
</svg>
