<?xml version="1.0" encoding="utf-8"?>
<!-- Generator: Adobe Illustrator 27.0.0, SVG Export Plug-In . SVG Version: 6.00 Build 0)  -->
<svg version="1.1" id="Layer_1" xmlns="http://www.w3.org/2000/svg" xmlns:xlink="http://www.w3.org/1999/xlink" x="0px" y="0px"
	 viewBox="0 0 157 120" style="enable-background:new 0 0 157 120;" xml:space="preserve">
<style type="text/css">
	.st0{clip-path:url(#SVGID_00000147929197892716437860000000268817655663850385_);}
	.st1{fill:#FEFEFE;}
	.st2{fill:#2D2925;}
	.st3{fill:#C21F32;}
</style>
<g>
	<defs>
		<rect id="SVGID_1_" x="1.5816994" y="1.0152506" width="154" height="120"/>
	</defs>
	<clipPath id="SVGID_00000023968906844754988110000001899556612504766130_">
		<use xlink:href="#SVGID_1_"  style="overflow:visible;"/>
	</clipPath>
	<g style="clip-path:url(#SVGID_00000023968906844754988110000001899556612504766130_);">
		<path class="st1" d="M125.1216965,59.1749496l-4.6900024-1.5986977c7.1409988-2.8776016,14.6010056-8.6329002,13.8550034-20.6763
			c-0.4259949-8.3132-4.1560059-15.6671009-6.288002-20.0368004l-7.887001-15.7736826l1.598999,17.0525818
			c0.5330048,5.3289986,0.3199997,12.3631992-1.7049942,16.2000008c-2.6650009,5.542099-11.6170044,5.0091972-14.8150024,4.7959976
			c-5.6483002-0.4263-23.9799042-0.959198-29.5220032-0.959198c-7.460495,0-15.5604935,0.6394997-22.168396,1.0657997
			c-3.1973,0.2131996-5.8617973,0.4263-7.6735992,0.5328979c-0.2131996,0-0.4263992,0-0.8526993,0.1066017
			c-11.6170998,1.0657997-13.6420994-4.3697014-14.2814999-6.1815987
			c-1.1723995-3.3039017-1.1723995-10.6578026-1.1723995-13.8552017V5.9920907l-5.968401,11.0841618
			c-1.8118992,3.3039989-5.2223988,9.5920982-6.3946991,20.1433983C16.4108982,52.034153,25.6833,56.4038506,28.7740002,57.7893524
			c0.4263992,0.2131996,0.8526993,0.3197975,1.2789993,0.5328979c-0.2131996,0.1066017-0.5328999,0.1066017-0.7460995,0.2131996
			c-2.0250015,0.6394997-4.0500011,1.5987015-4.6893997,1.9183998L21.100399,62.159153l2.2381001,3.1973
			c0.3197994,0.4263,1.0657997,1.3855972,1.9183998,2.2381973c2.1316013,2.0250015,7.4605999,5.3289032,13.9619007,4.582901
			c2.2380981-0.3198013,4.0499992-0.6395035,5.4355011-1.0658035c0.2131004,0.7460022,0.5328979,1.4921036,0.7459984,2.1316071
			c2.0250015,4.9025955,6.5013008,14.3880997,8.2066002,17.6919937c1.1724014,2.1315994,2.2382011,4.156601,3.0908012,5.6487045
			l-0.1066017,0.1065979c-0.2131004,0.2132034-0.3196983,0.3197021-0.5328979,0.5328979l-0.7460022,0.9592056v1.0657959
			c0,1.0658035-0.3197975,10.2316971,6.0750008,17.0527039l0.5329018,0.5329971l0.6393967,0.2129974
			c2.9842033,1.1720047,6.8210945,2.3450012,13.1091957,2.3450012c6.3947983,0,11.7237015-1.4919968,13.8553009-2.5579987
			l0.6394043-0.3199997l0.4263992-0.4260025c4.2630997-5.1159973,6.1814957-12.5769958,6.2881012-15.6672974l0.1065979-0.1065979
			h-0.1065979l-0.1066055-1.2789993l-1.1722946-1.1723022c-0.2132034-0.2132034-0.4264069-0.4263992-0.6395035-0.7461014
			c0.4263-0.8526001,0.959198-2.0250015,1.5987015-3.3039017l0.1064987-0.2131958
			c0.3198013-0.7460022,0.6395035-1.3855057,0.8526993-1.7052002c1.5987015-3.197403,6.501297-13.5355988,8.3133011-18.331604
			c0.4260025-1.0657959,0.7460022-1.918396,1.0660019-2.5578995c1.3849945,0.4263,3.1969986,0.8526001,5.4349976,1.0658035
			c6.5009995,0.6394958,12.6829987-3.3039017,14.8150024-6.2882004c0.1059952-0.1064987,0.3190002-0.3197021,0.4259949-0.5327988
			l2.878006-3.4106026l-3.9440002-1.8118019C126.2936935,59.6012497,125.9736938,59.4946518,125.1216965,59.1749496z"/>
		<path class="st2" d="M131.5157013,37.0447502c-0.4260101-7.7802982-3.9430084-14.7078991-5.9680023-18.8644981
			l-0.2130051-0.5328007l-0.8529968-1.8119011l0.2129974,2.0250015c0.2129974,2.7710991,0.8530045,12.2565994-1.9179993,17.6920986
			c-3.5169983,7.3539009-13.8550034,6.6079025-17.2659988,6.3946991h-0.2129974
			c-5.5422058-0.3196983-23.7672043-1.0657997-29.3093033-0.959198c-7.3538971,0-15.4538956,0.6394997-21.9551964,1.0657997
			c-3.1973991,0.2131996-5.968399,0.4263-7.7803001,0.5329018c-0.1064987,0-0.3196983,0-0.6394005,0.1065979
			C36.4477005,43.546051,30.6924,40.8815498,28.4542999,34.7000504c-1.8119011-3.9434986-1.7053013-11.4039993-1.7053013-15.0276985
			v-1.0657005v-1.4920998l-0.7459984,1.2789001c-1.7053013,3.1973991-4.9027004,9.0592003-5.968401,18.864399
			c-0.6394997,11.6170998,5.4354992,15.7737007,10.0184002,17.9053001c4.7959995,2.238102,9.6985989,2.5578995,11.2973003,2.6645012
			h0.1065979c0.3197021,0.1064987,0.7460022,0.1064987,1.0658035,0.1064987c0.5328979,0,1.0657997,0,1.5986977,0.1066017
			c-0.8526993,0.2131996-2.0249977,0.3196983-2.9841995,0.5328979c-1.0657997,0.2131996-2.0250015,0.3197021-2.5578995,0.4263
			c-1.0657997,0.2131996-5.6487007,1.2789993-8.2066002,2.1315994c-2.1315994,0.7460022-4.3696995,1.8118019-4.3696995,1.8118019
			l-0.4264011,0.2131996l0.3197994,0.3196983c0,0,0.7460003,1.0657959,1.5987015,1.9184036
			c1.5986996,1.5987015,6.1814976,4.4763947,11.6170979,3.7303009c4.3697014-0.5329056,6.7144012-1.5987015,7.5670013-2.0250015
			c0.3198013,0.959198,0.959301,3.0907974,1.5987015,4.7959976c1.9183998,4.9027023,6.3947983,14.1750031,8.0999985,17.3723984
			c1.3855019,2.664505,2.6645012,4.9026031,3.6236992,6.5013046l0.3197021,0.5328979
			c-0.3197021,0.959198-0.9592018,1.5987015-1.4920998,2.1315994c-0.1066017,0.1064987-0.2131004,0.2131042-0.3197021,0.3197021
			l-0.1065979,0.1065979v0.1065979c0,0.8526001-0.2131004,8.9522018,5.2223969,14.9212036l0.1066017,0.1059952h0.1064987
			c2.7710991,1.0660019,6.2881966,2.1320038,12.0433998,2.1320038c5.8619003,0,10.7644958-1.3860016,12.5763016-2.237999h0.1065979
			V113.78125c3.8367996-4.5830002,5.542099-11.2969971,5.6486969-13.8549957v-0.1066055l-0.1065979-0.1065979
			c-0.1065979-0.1065979-0.2132034-0.2130966-0.3197021-0.3197021c-0.6394958-0.5328979-1.3855972-1.2789993-1.7052994-2.9841995
			c0.4263-0.8526993,1.385498-2.6644974,2.1315994-4.2631989c0.4263-0.8526001,0.7460022-1.5987015,0.959198-2.0250015
			c1.5987015-3.1972961,6.3947067-13.3222961,8.2061005-18.1184006c1.1730042-2.9841995,1.8120041-4.5828934,2.1320038-5.2222977
			c0.8529968,0.4263,3.0909958,1.4921036,7.3539963,1.9184036c5.5419998,0.5328979,10.7639999-3.0908051,12.1500015-5.1158028
			c0.2130051-0.3197021,0.6389999-0.8526001,0.6389999-0.8526001l0.3199997-0.4263l-0.4259949-0.2131996
			c0,0-0.2130051-0.1066017-1.0660019-0.4263l-2.9840012-1.0657997l-2.9840012-1.0657997
			c-0.8529968-0.3197021-4.5830002-1.0657997-7.2480011-1.7052002l-2.0250015-0.4263992l0.640007-0.1065025
			C115.7426987,56.4420509,132.4747009,53.5644493,131.5157013,37.0447502z"/>
		<path class="st3" d="M21.4200993,33.7408524c0.9591999-4.6895008,2.4512997-9.165802,4.4762993-13.4290009h0.1066017h0.1064987
			v0.1065998c-0.1064987,1.2789993-0.1064987,2.5578995-0.1064987,3.9433994c0,3.0908012,0.2130985,6.2882004,0.9591999,9.165802
			L27.0688,33.8473511l-0.2132015-0.2131004c-0.9591999-0.8526993-1.8118-1.7052994-2.7710991-2.5578995
			c-0.8526001,0.959198-1.5986004,1.9183998-2.4512997,2.7709999l-0.2131004,0.1066017V33.7408524z"/>
		<path class="st3" d="M129.9176941,31.7157516c-1.1729889-3.9434013-2.3450012-7.9934006-4.2639999-11.7236996h-0.2129974
			c0.1070023,1.2789993,0.1070023,2.5578995,0.1070023,3.730299c0,3.0907001-0.2130051,6.0750008-0.7460022,8.9525986v0.2131004
			l0.1059952-0.1064987c0.9600067-0.426403,1.9190063-1.0657997,2.878006-1.4920998l2.3449936,1.7052002L129.9176941,31.7157516z"/>
		<path class="st3" d="M90.8024979,74.453949l-0.2131042,0.1066055c-1.385498,0.6394958-2.7710953,1.1723938-4.2631989,1.4920959
			c-0.959198,0.2131042-1.918396,0.3197021-2.8776016,0.3197021c-2.9841995,0-5.8618011-1.2789001-7.5671005-3.9434052
			l-0.1065979-0.1065979v0.1065979c-0.3197021,0.3197021-0.5328979,0.7461014-0.959198,1.0658035
			c-1.9184036,2.1315994-4.582901,2.9841995-7.3539047,2.9841995c-2.1315918,0-4.3697929-0.5328979-6.181591-1.2789001
			l-0.2131004-0.1065979l0.1064987,0.2130966c1.385601,3.7303009,2.2382011,7.8869019,2.2382011,12.0434036
			c0,1.9184952-0.2131996,3.7303009-0.5329018,5.542099c-0.2131996,1.2789993-0.6394997,2.6644974-1.0657997,3.9434967
			l-0.1065979,0.2131042l0.2131996-0.1065979c3.9433975-2.1315002,8.845993-3.1973038,13.6420975-3.1973038
			c4.582901,0,9.1656952,0.959198,13.002594,2.8776016c0.6395035,0.2131958,1.1723022,0.7460022,1.8118057,0.8526001
			l0.2131958,0.1065979l-0.1065979-0.2131958c-1.0658035-3.3039017-1.8117981-6.8210068-1.8117981-10.4447021v-0.1065979
			c0-0.2131042,0-0.4263,0-0.7460022c0-4.0500031,0.8526001-7.8868027,2.0250015-11.510498L90.8024979,74.453949z"/>
		<path class="st3" d="M51.9015999,78.2907486c-0.4263-0.5328979-0.7460022-1.0657959-0.8526001-1.8118973v-0.2130966
			l0.2131004,0.1064987c0.7460976,0.4263992,1.4920998,0.6394958,2.344799,0.6394958
			c1.7052002,0,3.4104996-0.8526001,4.6893997-1.7052002h0.1066017v0.1064987h-0.2131004l0.1064987-0.1064987
			c-0.2131004,1.7052002-0.7459984,3.6236038-2.5578003,4.2630997c-0.3197975,0.1066055-0.5328979,0.1066055-0.7460976,0.1066055
			C53.713501,79.8893509,52.6477013,79.1433487,51.9015999,78.2907486z"/>
		<path class="st3" d="M94.2129974,77.6512527c-0.4263-0.5328979-0.6395035-1.1724014-0.7460022-1.9184036v-0.2131958
			l0.2130966,0.1065979c0.8526001,0.7460022,2.0250015,1.0658035,3.197403,1.0658035
			c1.385498,0,2.7710037-0.4264069,3.8367996-1.0658035l0.2132034-0.1065979l-0.1066055,0.2131958
			c-0.5328979,1.4921036-1.8118973,3.0906982-3.5170975,3.4104996c-0.1065979,0-0.3197021,0-0.4263,0
			C95.7050934,79.1433487,94.7458954,78.6104507,94.2129974,77.6512527z"/>
		<path class="st3" d="M96.2381973,79.8894501c0.2131958,0,0.4263992,0.1065979,0.6394958,0.1065979
			c0.6395035,0,1.1724014-0.2130966,1.8118057-0.3196945l0.2131958-0.1066055l-0.1065979,0.2131042
			c-2.2380981,5.542099-4.9026031,10.9776993-7.6735992,16.3066025l-0.1066055,0.2131958l-0.1065979-0.2131958
			c-0.5328979-1.4921036-0.7461014-3.197403-0.7461014-4.9026031c0-1.2789993,0.1066055-2.4513016,0.2132034-3.7303009
			c0.4263-3.623703,1.2789001-7.0342026,2.344696-10.4447021l0.1066055-0.2131958l0.1065979,0.2131958
			C93.5737991,78.3973541,94.7460938,79.6763535,96.2381973,79.8894501z"/>
		<path class="st3" d="M60.9604988,96.0893478c-3.4104996-5.115799-5.968399-10.5513-8.4197006-16.093399l-0.1065979-0.2131958
			l0.2131996,0.1065979c0.6394997,0.3198013,1.5986977,0.6395035,2.4512978,0.6395035
			c0.5329018,0,1.1724014-0.1066055,1.5987015-0.4263c1.0657997-0.7461014,1.7052994-1.9184036,2.1315994-3.197403
			l0.1065025-0.2130966l0.1065979,0.2130966c1.8119011,3.7303009,2.7710991,8.3132019,2.7710991,12.7894974
			c0,2.1315994-0.2131996,4.2630997-0.6394997,6.2881012L60.9604988,96.0893478z"/>
		<path class="st3" d="M63.9447975,113.3552475c-3.4104996-3.836998-4.7960968-8.6329956-4.9026985-13.7487946
			c4.4763985-3.3039017,10.5513992-5.009201,16.5197983-5.009201c3.9433975,0,7.7801971,0.7461014,11.1906967,2.3448029
			c2.1315994,0.959198,4.2631989,2.0249939,6.1816025,3.5170975c-0.5328979,4.7960968-2.3447037,9.1660995-5.3289032,12.8960953
			c-3.6236954,1.3850021-7.8868942,2.1310043-12.1500015,2.1310043
			C71.2986984,115.4862518,67.3552933,114.7402496,63.9447975,113.3552475z"/>
		<path class="st3" d="M124.268692,62.6235504c0,0-2.1319962-0.8526001-2.6649933-1.0657997
			c-5.8610001-2.2380981-13.3220062-3.5171013-19.6100006-3.7301979
			c-0.6396027-6.9276009-1.4922028-11.4040031-2.8777008-15.3474007v-0.1065025h-0.1066055
			C95.7053986,42.16045,81.2106934,41.627552,75.5619965,41.627552c-5.6485977,0-19.9301987,0.8526001-23.1275978,1.0657997
			h-0.1064987v0.1065979c-1.2789993,3.8367996-2.7710991,8.5263023-3.5171013,15.5605011
			c-6.3947983,0.4263-15.0275993,2.238102-20.8894997,4.4762993c-0.4263,0.1066017-0.7460003,0.3197021-0.9591999,0.4263
			c-0.1065998,0.1066017-0.2131004,0.1066017-0.2131004,0.1066017l-0.2131996-0.2131996l0.1065998,0.3197975
			c0.8526001,0.959198,4.156601,4.9026031,10.2314987,5.1156998c0.1066017,0,0.2132034,0,0.3198013,0
			c2.0250015,0,5.3288994-0.4263,7.5671005-1.385498c0.5329018-0.2130966,1.5987015-0.6395035,1.9183998-0.7460022
			c0.1066017,0.2131042,0.4263,0.8526001,0.6394997,1.2789001c0.6394005,1.8119049,1.3855019,4.3697052,2.0250015,5.542099
			c0.8526001,1.7052994,2.2380981,3.0908051,4.4762993,3.0908051h0.1065979c2.0249023,0,3.4105034-1.5987015,3.6236-1.9184036
			l0.1066017-0.1065979h-0.2131004c-5.6487007-0.3197021-7.886898-3.3040009-8.3131981-7.780304v-0.1064987h-0.1066017
			c-0.6394005-0.1065979-1.0657997-0.2131958-1.385498-0.3198013c-0.2132034-0.1064987-0.4263-0.3196945-0.4263-0.6393967
			c0-0.1065979-0.1066017-0.3198013-0.1066017-0.4263992c0-0.5329056,0.2131996-1.1723022,0.6394997-1.8118019
			c0.4263-0.5328979,1.0657997-1.1723976,2.3446999-1.1723976c0.5329018,0,1.1724014,0.1065979,1.9183998,0.3197975
			c1.7052994,0.5329018,3.1973991,1.7051964,4.156601,2.5578957c1.1724014,1.0657043,4.582901,4.5828018,6.6078987,5.7552032
			c1.1724014,0.7461014,3.0907974,1.3855057,4.9025955,1.3855057c1.4921036,0,2.9841995-0.4263,4.2631989-1.5986023
			c2.6644058-2.5578995,2.9841995-4.7961044,3.3039017-6.1816025v-0.1065979h-0.1065979
			c-4.4763031-0.1066055-8.8460007-0.5329018-12.6827965-1.0657997c-0.4263992-0.1066017-0.6394997-0.2131004-0.6394997-0.4263
			s0.2131004-0.4263,0.5328979-0.4263c0.1066017,0,0.1066017,0,0.2131004,0c0,0,7.4604988,0.959198,12.6828957,1.0657997h0.1065979
			v-0.1066017c0-0.6394997,0-1.7052994,0.1066055-2.8775978v-0.1066017h-0.1066055
			c-3.0907974-0.1065979-8.3131943-0.4263-13.2157936-1.385498c-0.4263-0.1066017-0.6394997-0.3198013-0.6394997-0.5329018
			c0-0.2131996,0.1066017-0.4263,0.4263992-0.4263c0.1065025,0,0.1065025,0,0.2131004,0
			c0.7461014,0.2131004,8.7394981,1.2789001,13.1091957,1.2789001h0.1065979v-0.1065979c0-0.9592018,0-2.238102,0-3.5171013
			v-0.1064987h-0.1065979h-0.3197021c-2.7710953,0-6.927597-0.3198013-12.6828918-1.1724014
			c-0.4263-0.1066017-0.6394997-0.3198013-0.6394997-0.5329018c0-0.2131996,0.2131996-0.4263,0.5328979-0.4263h0.1066017
			c0,0,7.0341949,1.0657997,12.5762939,1.0657997c0.1065979,0,0.2132034,0,0.4263,0h0.1065979v-0.1065979
			c0-0.8526993,0-1.8119011,0-2.8776016c0-0.5328979,0.2131042-0.7460976,0.4263-0.7460976
			c0.2132034,0,0.4263,0.2131996,0.4263,0.6394997s0,1.4920998,0,2.7709999v0.1065979v0.1066017h0.1066055
			c5.3288956-0.2131996,10.0183945-0.7461014,12.2565994-1.1724014c0.1064987,0,0.2130966,0,0.3196945,0
			c0.4263,0,0.5329056,0.2131996,0.5329056,0.3198013c0,0.2131004-0.1066055,0.4263-0.3197021,0.4263
			c-0.7461014,0.1064987-6.9276962,1.2789001-12.7894974,1.4920998h-0.1066055v0.1066017
			c0,1.0656967,0,2.3446999,0.1066055,3.5169983v0.1066017h0.1065979c3.9433975-0.1066017,8.5262985-0.3197021,12.469696-1.1723022
			c0.2132034,0,0.3197021-0.1065979,0.5329056-0.1065979c0.4263,0,0.6394958,0.2130966,0.6394958,0.3196983
			c0,0.2131996-0.2131958,0.4263-0.7461014,0.5329018c-3.8367996,0.6394997-9.3788986,1.2789993-12.7893982,1.2789993h-0.1065979
			v0.1064987c0,0.9592018,0,2.1315994,0.1065979,2.8777008v0.1064987h0.1064987
			c6.2882004-0.1064987,12.2565994-1.0657005,13.322403-1.1722984c0.1065979,0,0.1065979,0,0.2130966,0
			c0.4264069,0,0.5329056,0.2131004,0.5329056,0.4263c0,0.2131004-0.2131042,0.4263-0.6394043,0.5328979
			c-1.0657959,0.1066017-8.5262985,1.0657997-13.2157974,1.2788963h-0.1065979v0.1066055
			c0.4263,1.5987015,0.5328979,3.9433975,2.877594,5.968399c1.1724014,0.959198,2.664505,1.385498,4.2632065,1.385498
			c1.5986938,0,3.1973953-0.4263,4.4762955-1.1722946c2.1315994-1.1724014,5.3289032-4.7961044,6.5013046-5.861908
			c0.959198-0.8525963,3.1973953-2.877594,6.1815948-2.877594h0.1066055c1.4916992,0,2.2376938,0.4263,2.6646957,0.8526993
			c0.4260025,0.4263,0.4260025,0.959198,0.5330048,1.1722984c0.1059952,0.2131996,0.1059952,0.4262962,0.1059952,0.6394997
			c0,0.3197021-0.1059952,0.7460022-0.5329971,0.959198c-0.5330048,0.3197021-0.9589996,0.2132034-1.5979996,0.5329056
			c-0.427002,2.4513016-1.172699,5.3288956-3.0912018,6.7145004c-1.0658035,0.7459946-2.3447037,1.2789001-3.5170975,1.4920959
			c-0.9592056,0.3197021-1.8118057,0.3197021-1.8118057,0.3197021H93.680397l0.1065979,0.1065979
			c0,0,0.4263,0.5328979,0.6395035,0.6394043c0.3196945,0.3197937,1.2789001,0.7460938,2.5578995,0.7460938
			c0.1065979,0,0.3196945,0,0.4263,0c1.385498-0.1065979,2.9841995-1.1723938,3.7303009-1.918396
			c1.0656967-1.385498,2.0246964-4.156601,2.6646957-5.968399c0.2129974-0.6395035,0.8519974-1.7052994,1.0660019-2.3448029
			c0.5319977,0.3198013,0.9589996,0.4263,2.0250015,0.8526993c2.237999,0.9592056,5.1149979,1.2789001,7.1399994,1.2789001
			c0.1069946,0,0.2129974,0,0.3199997,0c3.1969986-0.1065979,6.7139969-2.0250015,8.9529953-4.0499992
			c0.4260025-0.3196983,1.0650024-1.1722984,1.0650024-1.2789001l0.1070023-0.1065979L124.268692,62.6235504z"/>
		<path class="st2" d="M78.972496,101.5252533c-0.3197021,0.5329971-0.5328979,1.1719971-0.5328979,1.8119965
			c0,1.0650024,0.4263,2.1310043,0.959198,2.9840012l0.1065979,0.1060028c0.1065979,0,0.1065979,0,0.2132034-0.1060028
			c0-0.6399994-0.4263992-1.1729965-0.4263992-1.8119965c0-0.1070023,0-0.3199997,0.1065979-0.5330048l0.1065979-0.2129974
			l0.1065979,0.2129974c0.6394043,1.0660019,1.5987015,1.7050018,2.6644058,2.0250015
			c0.4263992,0.1070023,0.8526993,0.1070023,1.1724014,0.1070023c1.385498,0,2.6644974-0.6399994,3.6236954-1.7060013
			c0.4263-0.6389999,0.7460022-1.3850021,0.7460022-2.1310043c0-0.3199997-0.1064987-0.7459946-0.2131042-1.0659943
			c-0.6394958-1.2789001-2.0249939-2.0249023-3.3039932-2.2381058c-0.2131042,0-0.4263,0-0.6394043,0
			C81.7435989,98.9671478,79.931694,99.8197479,78.972496,101.5252533z"/>
		<path class="st2" d="M71.5118942,106.854248c0.1065979,0,0.2132034-0.1069946,0.3197021-0.3199997
			c0.5328979-0.7459946,0.8526993-1.8119965,0.8526993-2.8779984c0-0.6389999-0.1065979-1.2789993-0.5328979-1.9179993
			c-0.5329056-1.0660019-1.5987015-1.8119965-2.664505-2.1317978c-0.6394958-0.2131042-1.1723938-0.3197021-1.8117981-0.3197021
			c-1.4920959,0-2.8777008,0.5328979-3.836895,1.8115005c-0.3197021,0.427002-0.5329018,1.0660019-0.5329018,1.598999
			c0,0.3199997,0,0.6389999,0.1066017,0.9589996c0.5328979,1.3860016,1.8119011,2.4520035,3.0907936,2.6650009
			c0.3197021,0.1060028,0.6395035,0.1060028,0.8526001,0.1060028c1.5987015,0,2.9841995-0.7460022,3.9434052-2.1310043
			l0.1065979-0.1069946l0.1065979,0.1069946c0,0.1060028,0.1065979,0.2130051,0.1065979,0.3190002
			c0,0.3199997-0.1065979,0.5330048-0.1065979,0.7460022c0,0.427002-0.3197021,0.7470016-0.3197021,0.9599991
			c0,0.1060028,0,0.2129974,0.1065063,0.3190002C71.4052963,106.854248,71.4052963,106.854248,71.5118942,106.854248z"/>
		<path class="st2" d="M64.2646942,112.0762482c3.5171051-1.4919968,7.5671005-2.3449936,11.7237015-2.3449936
			c3.0907974,0,6.1816025,0.5329971,8.9525986,1.4919968c0.7461014,0.3199997,1.385498,0.5329971,2.1315994,0.7460022
			c0.2131042-0.2130051,0.2131042-0.3190002,0.4263-0.5320053c-3.4104996-1.7059937-7.3538971-2.4519958-11.4039001-2.4519958
			c-4.2631989,0-8.5262985,0.8529968-12.1499939,2.4519958C64.0515976,111.8632507,64.1580963,111.9692535,64.2646942,112.0762482z"
			/>
		<path class="st2" d="M67.3554993,86.4974518c2.0249939,2.5578995,5.2223969,3.7302017,8.3130951,3.7302017
			c1.1724014,0,2.3448029-0.1064987,3.5170975-0.4263c5.3290024-1.4921036,8.4198074-7.2472992,9.5921021-12.2565002
			c-0.1064987-0.1066055-0.3196945-0.2132034-0.5328979-0.2132034c-0.6393967,2.9841995-1.9184036,5.8618011-3.8367996,8.3131027
			c-2.2380981,2.7710953-5.542099,4.0499954-8.739502,4.0499954c-1.1723022,0-2.344696-0.2130966-3.4104996-0.5327988
			c-4.7959976-1.4921951-7.3538971-6.8210983-7.7801971-11.6170959c-0.2132034,0-0.3198013,0-0.5328979,0.1064987
			C64.2646942,80.9553528,65.2238998,83.9395523,67.3554993,86.4974518z"/>
		<path class="st1" d="M28.0275002,36.7250519c2.7710991,5.3289986,8.3131981,7.0341988,14.0683975,6.8210983
			c3.197403,0,6.1816025-0.3197975,9.3790016-0.5328979v0.2131004c-1.5987015,4.4762993-2.6645012,9.0592003-3.3040009,13.8552971
			c-8.2064972,0.3197021-16.6262989-0.3197975-22.7012997-5.8619003c-4.1564999-4.156498-5.1156998-9.9117966-4.2630997-15.5604973
			c0.9591999-1.1723022,2.0249996-2.1315002,2.9841995-3.3039017
			C25.4695988,33.6342506,27.6012001,34.8066521,28.0275002,36.7250519z"/>
		<path class="st1" d="M130.343689,34.3801498c0.2130127,0.8527031,0.2130127,1.5987015,0.3190002,2.4513016
			c0.427002,6.2882004-2.3439941,12.1500015-7.7799911,15.3474007c-5.8619995,3.5170975-12.7890015,4.7959976-20.0370026,5.0091972
			c-0.1060028-0.6394997-0.2129974-1.4920998-0.3190002-2.2381973c-0.5329971-4.1565018-1.3859024-8.4197006-2.5582962-12.363102
			c7.7802963-0.1065979,17.1592941,1.9183998,22.2752991-5.115799c0.6389999-0.9592018,1.3849945-1.9183998,1.9179993-2.9841995
			c1.1719971-0.5329018,2.237999-1.2789001,3.4109955-1.8118019
			C128.6376953,33.1012497,129.3836975,33.8472519,130.343689,34.3801498z"/>
		<path class="st1" d="M100.8208923,66.3538513c0,2.4513016-0.7460938,4.9026031-2.877594,6.0749969
			c-1.0658035,0.5329056-2.238205,0.7461014-3.3040009,0.7461014c0-0.2131958-0.1066055-0.4263992,0-0.7461014
			c1.8118973,0.1066055,3.5170975-0.6394958,4.3697968-2.0249939c0.6394043-1.0658035,0.8526001-2.3447037,0.959198-3.623703
			C100.1813965,66.5670547,100.5011978,66.4604492,100.8208923,66.3538513z"/>
		<path class="st1" d="M57.0173988,72.961853c-0.3196983,0.1064987-0.4263,0.1064987-1.0657997,0
			c-2.8776016,0-5.8618011-2.238205-5.6487007-6.1816025c0.3198013-0.1065979,0.7461014-0.1065979,1.0657997,0
			c0,2.2380981,0.8527031,5.2223969,5.5421028,5.2223969C57.2305984,72.5354538,56.9108009,72.6420517,57.0173988,72.961853z"/>
	</g>
</g>
</svg>
