<?xml version="1.0" encoding="utf-8"?>
<!-- Generator: Adobe Illustrator 27.0.0, SVG Export Plug-In . SVG Version: 6.00 Build 0)  -->
<svg version="1.1" id="Layer_1" xmlns="http://www.w3.org/2000/svg" xmlns:xlink="http://www.w3.org/1999/xlink" x="0px" y="0px"
	 viewBox="0 0 157 98" style="enable-background:new 0 0 157 98;" xml:space="preserve">
<style type="text/css">
	.st0{clip-path:url(#SVGID_00000011743120297349303200000006330248129191686562_);}
	.st1{fill:#FFFFFF;}
	.st2{fill:#FDB927;}
	.st3{fill:#552583;}
</style>
<g>
	<defs>
		<rect id="SVGID_1_" x="-0.1128044" y="0.3031991" width="157" height="97.4241028"/>
	</defs>
	<clipPath id="SVGID_00000021114563717181135510000008001358898871957183_">
		<use xlink:href="#SVGID_1_"  style="overflow:visible;"/>
	</clipPath>
	<g style="clip-path:url(#SVGID_00000021114563717181135510000008001358898871957183_);">
		<path class="st1" d="M34.0485954,22.2057991c0,0,13.353302-21.9025993,40.7083931-21.9025993
			c27.3552017,0,40.125206,21.3176003,40.125206,21.3176003h37.0779953l-1.4909973,9.098999
			c0,0-1.0370026,3.6395988-2.7220001,4.0294991h2.5279999c0,0,0.8419952,3.2497025-4.2140045,14.2985001h10.826004
			c0,0,0.3890076,19.3677979-22.9470062,28.4668045c0,0-12.0569916,3.8345947-18.2159958-2.7297058
			c0,0-12.3159943,22.9424057-40.9672012,22.9424057c-28.6514931,0-41.5510941-23.5923004-41.5510941-23.5923004H-0.1128044
			l5.3154302-9.5540009H1.5725756l4.2782702-7.8641014h7.19525l1.2315998-2.9896011h-3.3706999l8.2971992-15.338398h4.6673012
			l1.8797989-4.6794014H21.732296l6.1581001-11.5037003H34.0485954z"/>
		<path class="st2" d="M75.1456909,92.5930023c23.4009018,0,42.3935013-19.302803,42.3935013-43.155201
			c0-23.787302-18.9925995-43.0901718-42.3935013-43.0901718c-23.400795,0-42.393795,19.3028698-42.393795,43.0901718
			C32.7518959,73.2901993,51.7448959,92.5930023,75.1456909,92.5930023z"/>
		<path class="st3" d="M79.8130951,49.2426987h-1.8150024c-0.0672989,0.0045013-0.1306,0.0334015-0.178299,0.0811996
			c-0.0475998,0.047802-0.0764008,0.1113014-0.0810013,0.1787033c0,0.1299973,0.1296997,0.1949997,0.2593002,0.1949997h1.8798981
			c0.648201,0,1.2315979,0.0649986,1.0371017,0.3249969l-4.861702,9.358902
			c-0.0810013,0.2141991-0.226799,0.3977013-0.4168015,0.5248985c-0.190094,0.1272011-0.4150009,0.1917-0.6433945,0.1846008
			c-0.2285004-0.0071983-0.4489059-0.085701-0.6306992-0.2244987c-0.1818008-0.1388016-0.3158035-0.3311005-0.3834-0.5499992
			l-2.398407-12.4786034l8.4269028-6.5641975c0.8426971-0.7800026,2.4632034-1.9498024,3.3059006-1.9498024h1.8798981
			c1.102005,0,1.4908981,0.5199013,1.2316055,1.2348022l-0.3241043,0.5849991
			c-0.1944962,0.3899002-0.9075012,0.4548988-1.4261017,0.4548988h-1.1019974
			c-0.0263977-0.0037994-0.053299-0.001297-0.078598,0.007103c-0.0254059,0.0084991-0.0484009,0.0226974-0.0671997,0.0416985
			c-0.0189056,0.018898-0.0331039,0.0419006-0.0416031,0.0672989c-0.0084,0.0254021-0.0108032,0.0524025-0.0069962,0.0788994
			c0,0.1300011,0.0647964,0.2600021,0.194397,0.2600021h1.1019974c0.453804,0,0.9723053,0,0.7779007,0.3248978l-3.8893967,7.5391998
			C81.3688889,49.1777,80.5261917,49.2426987,79.8130951,49.2426987z M94.4629898,53.8571014
			c-3.9542007,4.8744965-6.1580963,6.4992981-10.1771011,6.4992981c-1.3612976,0-2.074295-0.3250008-1.7501984-0.9748993
			l4.7967987-9.6189003h1.8150024c2.0094986,0,1.7501984,1.6898003,1.2316971,4.0294991
			c-0.1296997,0.3250008,0.1296005,0.3250008,0.3889008,0.0650024l4.5376053-7.9941025
			c0.194397-0.5198975-0.3889999-0.5848999-0.6483002-0.1949997c-2.2686996,3.0546989-4.6672058,2.8596992-5.7042999,2.8596992
			h-0.7779007l5.0560989-9.7488976h2.0744019c2.5927963,0.1299973,3.759697,2.339798,3.0466003,7.6691971h1.0371933
			l3.7597046-7.4091988c0.3239975-0.6498985-0.3239975-1.2348976-1.0370026-1.2348976l-25.4104996,0.0649986
			c-1.4909973,0-1.5558014,1.1049004-0.1296997,1.1049004c1.1668015,0,1.1019974,1.6247978,0.0648041,2.4046974
			l-10.8253021,8.6441002l2.2040024,10.1388016c0.0543976,0.343399,0.2411957,0.6515999,0.5199966,0.8582993
			c0.2789001,0.2066002,0.6275024,0.2952003,0.9709015,0.2466011h21.0023956
			c0.2991028,0.0283012,0.6003036-0.0228996,0.8734055-0.1483994c0.2730942-0.1254997,0.5084-0.3209,0.6822968-0.5665016
			l3.759697-6.5643005C96.3427887,53.0122986,95.1759949,53.077301,94.4629898,53.8571014z"/>
		<path class="st3" d="M47.9853973,51.1276016h-6.6767006l8.426899-11.1788025L47.9853973,51.1276016z M46.4296951,58.0817986
			c-0.1945,1.1049004-1.3613014,1.8848-2.7873993,2.2747993l-1.4909019,0.3899002l1.2317009-2.2096977
			c0.3241005-0.6500015-0.3889999-0.9748993-1.1667976-0.0650024c-5.1858025,6.0443001-6.8712006,8.9690056-14.9092007,8.9690056
			h-2.139101c-0.6481991,0-1.3612995-0.2600021-0.9074993-0.844902l2.8521996-5.3294029h10.7605
			c1.4261017,0,1.1018982-1.1049004,0.1944008-1.1049004c-0.3265991-0.0530968-0.6389999-0.1727982-0.9177017-0.3515968
			c-0.278698-0.1789017-0.5178986-0.4131012-0.7028008-0.6883011c-0.1343994-0.2405014-0.1994972-0.5137024-0.1879997-0.7891006
			c0.0114021-0.2755013,0.0988998-0.5423012,0.2528-0.7706985l4.0838013-5.5244026h6.8712006L46.4296951,58.0817986z
			 M62.3759956,60.1615982c-0.2276993-0.0217972-0.4449997-0.1060982-0.6279984-0.2436981
			c-0.1830025-0.1375999-0.3246002-0.3232002-0.4092026-0.5362015c-0.2099991-0.6371002-0.1870003-1.3281975,0.0648994-1.9497986
			l9.7881012-17.4180984c0.1296997-0.3249016,0.5833969-1.0399017,1.0371933-1.0399017
			c0.8427048,0,1.2316055-1.1048012-0.1944962-1.1048012h-7.9083023c-1.4260941,0-1.4260941,1.1048012-0.0647964,1.1048012
			c0.1115952-0.0077019,0.2231979,0.013298,0.3243942,0.0611992c0.1012039,0.047802,0.1884003,0.1208,0.2534027,0.212101
			c0.0650024,0.091198,0.1055984,0.1977005,0.1180038,0.3091011c0.0122986,0.1114998-0.0041046,0.2241974-0.0475998,0.3274994
			l-2.1390991,3.9645996c-0.3241997,0.3899994-0.9075012,0.4548988-1.5558014,0.4548988h-1.8149986
			c-0.1296005,0-0.2593002,0.0650024-0.2593002,0.1949997c0.0046005,0.0675011,0.0334015,0.1310005,0.0810013,0.1788025
			c0.047699,0.0477982,0.1110001,0.0765991,0.178299,0.0811996h1.8149986c0.5186005,0,0.9075012,0.1299973,0.648201,0.7148972
			l-7.2599983,13.258503c-0.5186005,0.7150002-1.5558014,0.8449974-1.4910011-0.5199013l2.5280991-19.3678017
			c0.1296997-0.5849991,0-1.0398979-0.648201-1.0398979h-3.8893967c-0.1993027,0.0017014-0.3945999,0.0568008-0.5656013,0.1596985
			c-0.1708984,0.1028023-0.3114014,0.2495995-0.4067001,0.4252014l-1.4261017,1.6898003
			c-0.1295967,0.1949997-0.5833969,0.1949997-0.9722977,0.1949997H44.290596
			c-0.0672989,0.0046005-0.1306,0.0334015-0.178299,0.0811996c-0.0477028,0.047802-0.0764008,0.1113014-0.0810013,0.1787987
			c0,0.1300011,0.1296005,0.1949005,0.2593002,0.1949005h2.6576996c0.453701,0,0.9723015,0.1300011,0.7779007,0.3899994
			l-3.6949005,4.6795006c-0.2140007,0.1324005-0.4616013,0.2000999-0.7131004,0.1949997h-1.0370979
			c-0.1297035,0-0.2593002,0.0650024-0.2593002,0.1949005c0.0045967,0.0675011,0.0333977,0.1310005,0.0809975,0.1788025
			c0.0477028,0.0477982,0.1110001,0.0765991,0.1783028,0.0811996h0.8426971c0.2593002,0,0.2593002,0.1299973,0.1944008,0.2599983
			l-3.5004005,4.4195023c-0.281498,0.1398964-0.5934982,0.2068977-0.9074974,0.1949997h-3.1114006
			c-0.1296997,0-0.1945,0.1298981-0.1945,0.2598991c-0.0037994,0.0265007-0.0014,0.0535011,0.0070992,0.0788994
			c0.0084,0.0253983,0.0225983,0.0485001,0.0415001,0.0673981c0.018898,0.0189018,0.0419006,0.0331001,0.0671997,0.0416031
			c0.0252991,0.0084991,0.0522003,0.0108986,0.078701,0.0070992h2.6576996c0.453701,0,0.7129974,0.0649986,0.5184975,0.3899994
			l-4.9912987,6.2392998c-0.9075012,1.2348022-5.4449997,1.8198013-6.3526001,1.8198013l16.9187012-31.6515007
			c0.1353989-0.2651005,0.3390007-0.4892998,0.5896988-0.6492004c0.2507019-0.1599007,0.539402-0.2498989,0.8362999-0.2607002
			h3.5653c1.6854019,0,1.6854019-1.169899,0.1944008-1.169899H31.7149963c-1.4909,0-1.5557003,1.169899,0.1945,1.169899h3.3059998
			c0.9722977,0,1.2315979,0.5199013,0.9722977,1.0398998l-0.4537964,0.8449001
			c-0.1296005,0.2600002-0.3889008,0.3900013-1.296402,0.3900013h-5.8987999c-0.1296997,0-0.1945,0.1299-0.1945,0.2598991
			c-0.0037994,0.0265007-0.0014,0.0534992,0.0070992,0.0788994c0.0084019,0.0254002,0.0226002,0.0484009,0.0415001,0.0674
			c0.0188999,0.0188999,0.0419006,0.0331001,0.0672016,0.0416012c0.0252991,0.0084,0.0521984,0.0109005,0.0786991,0.0070992
			h5.8987999c0.3241005,0,0.7778015,0.1300011,0.5186005,0.714901l-0.842701,1.4947987
			c-0.1296997,0.2600021-0.5186005,0.3250008-0.9074974,0.3250008h-2.7226009c-0.1296005,0-0.1944008,0.1300011-0.1944008,0.2599983
			c0,0.1299019,0.0648003,0.259903,0.1944008,0.259903h2.6576977c0.3889999,0,0.4538002,0.2599983,0.1945,0.5849991
			l-1.8797989,3.5095978c-0.1945,0.3249016-0.4538002,0.3899002-1.1019993,0.3899002h-1.0372009
			c-0.1295986,0-0.2593002,0.0650024-0.2593002,0.1950035c0.0046005,0.0673981,0.0334015,0.1308975,0.0811005,0.1786995
			c0.0475998,0.0477982,0.1110001,0.0766983,0.1781998,0.0812988h1.0372009c0.3888988,0,0.5186005,0.1949997,0.3241005,0.5848999
			l-1.5557003,2.9247017c-0.2593002,0.3898964-0.5834007,0.5848999-1.6205997,0.5848999h-5.8988018
			c-0.0263996-0.0038033-0.0533981-0.0013008-0.0786991,0.0070992c-0.0252991,0.0084991-0.0482998,0.0228004-0.0671997,0.0416985
			c-0.0188007,0.0189018-0.0331001,0.0419998-0.0415001,0.0672989c-0.0084,0.0254021-0.0109005,0.0524025-0.0071011,0.0789032
			c0,0.1299973,0.0648003,0.2599983,0.1945,0.2599983h5.8988018c0.6481991,0,0.9074993,0.3249016,0.6481991,0.7798996
			l-3.0466003,5.7194023c-0.1945,0.2598991-0.6483002,0.3248978-1.4909,0.3248978h-5.8988991
			c-0.1296005,0-0.2593002,0.0650024-0.2593002,0.1949997c0.0046005,0.0675011,0.0333996,0.1310005,0.0811005,0.1786995
			c0.0475998,0.047802,0.1110001,0.0767021,0.1781998,0.0813026h5.8339996c0.7131004,0,1.1667995,0,0.9724007,0.3899002
			l-1.7502003,3.3146973c-0.3241005,0.5199013-1.2317009,0.5199013-1.6205997,0.5199013h-1.8798008
			c-0.0265007-0.0037994-0.0534-0.0013008-0.0786991,0.0070992c-0.025301,0.0084991-0.0483017,0.0227013-0.0672016,0.0417023
			c-0.0188999,0.018898-0.0331001,0.0418968-0.0415001,0.0672989c-0.0084,0.0253983-0.0108986,0.0523987-0.0070992,0.0788994
			c0,0.1300011,0.0648003,0.2600021,0.1945,0.2600021h1.8798008c0.6481991,0,0.9722996,0.1298981,0.8426991,0.4548988
			l-2.3335991,4.4194984c-0.2593002,0.3899994-1.1668015,0.3899994-1.8798008,0.3899994H8.703126
			c-0.0672607,0.0046005-0.1305904,0.0334015-0.1782608,0.0812035c-0.0476694,0.0477982-0.0764599,0.1112976-0.0810299,0.1786995
			c0,0.1301003,0.1296406,0.1949997,0.2592907,0.1949997h9.0751696c0.648201,0,1.3612003,0.1299973,1.1019001,0.5849991
			l-1.4909,2.7946014c-0.1296005,0.2599945-0.6481991,0.2599945-1.4260998,0.2599945h-1.8150005
			c-0.0672998,0.0046005-0.1306,0.0335007-0.1782999,0.0813065c-0.0475998,0.0477982-0.0763998,0.1112976-0.0809994,0.1786957
			c0,0.1300049,0.1296997,0.1949997,0.2592993,0.1949997h1.8150005c0.4538002,0,1.037199,0.0650024,0.8426991,0.4549026
			l-0.9722996,1.7547989c-0.1075993,0.254303-0.2884998,0.4706039-0.5193996,0.6211014
			c-0.2309999,0.1505966-0.5016003,0.2285004-0.7770996,0.2238998H9.9347954c-1.6854296,0-1.6205997,1.1697998-0.1296902,1.1697998
			h26.8363895c0.7779007,0,0.842701-0.1299973,1.1668015-0.7148972l4.019001-6.9542046h20.3541985
			C63.6075974,61.2664986,63.2834969,60.1615982,62.3759956,60.1615982z"/>
		<path class="st3" d="M114.3631897,47.3579979c-0.7129974,0.6500015-1.8799973,1.2999001-2.1389999,1.1049004
			c-0.5579987-0.4779968-1.1660004-0.8921967-1.8149948-1.2348976l4.4079971-8.0591011
			c0.0910034-0.1362991,0.2180023-0.2448006,0.3659973-0.3134995c0.1490021-0.0688019,0.314003-0.0952988,0.4760056-0.0764008
			c1.7509995,0,2.2689972,1.8198013,1.4909973,4.1595001C116.5671921,44.5633011,115.6591949,46.3181,114.3631897,47.3579979z
			 M149.7561951,54.5723c-0.1300049-0.5200005-0.3240051-0.1949997-0.6480103,0.4548988
			c-0.1299896,0.2600021-0.4539948,0.2600021-0.8429871,0.2600021h-1.0370026
			c-0.0579987,0.0028-0.1130066,0.0228996-0.1600037,0.0576973c-0.0460052,0.0347023-0.0809937,0.0825005-0.098999,0.1373024
			c-0.0039978,0.0349007,0.0009918,0.0701981,0.0119934,0.1032982c0.0120087,0.0331001,0.0310059,0.0632019,0.0559998,0.0880013
			c0.0250092,0.0248985,0.0550079,0.0438995,0.0880127,0.0558014c0.0329895,0.0117989,0.0679932,0.0161972,0.1029968,0.0127983
			h1.0370026c0.3889923,0,0.3889923,0.2599983,0.1940002,0.6500015c-0.6490021,1.4356003-1.5010071,2.7706985-2.5279999,3.9644966
			c-0.1100006,0.1098022-0.2420044,0.1955032-0.3870087,0.2514c-0.1450043,0.0559006-0.3000031,0.0810013-0.4550018,0.0736008
			l-1.1019897,0.0648994c-0.1300049,0-0.2600098,0.0650024-0.2600098,0.1950035
			c0.0050049,0.0674973,0.0339966,0.1309967,0.0810089,0.1786995c0.0479889,0.0477982,0.1109924,0.0766983,0.1790009,0.0812988
			h1.0369873c0.5830078,0,0,0.3250008-0.0649872,0.4548988c-1.2960052,1.7763023-2.8220062,3.3717995-4.5370026,4.744503
			c-0.4920044,0.0953979-0.9940033,0.1172943-1.4909973,0.0649948h-1.102005c-0.1300049,0-0.1950073,0.1300049-0.1950073,0.2600021
			c-0.0039978,0.0265045-0.0009918,0.0534973,0.0070038,0.078804c0.0090027,0.0253983,0.022995,0.0485001,0.0420074,0.0673981
			c0.0189972,0.018898,0.0419922,0.0331955,0.0670013,0.0415955c0.0249939,0.0085068,0.0519867,0.0109024,0.0789948,0.0072021
			l1.102005,0.0649033c0.7769928,0,0.1940002,0.4550018,0.0639954,0.5199966
			c-2.9170074,2.4697037-7.3240051,3.2496033-9.2689972,2.9897003c-6.4820023-0.7799988-7.8440018-5.7193985-8.2970047-7.7341995
			c-0.2210007-0.5697975-0.3939972-1.1567001-0.5189972-1.7547989c-0.1940002-1.0399017,2.7229996-1.2999001,3.5-0.7798996
			c1.2319946,0.8448982,4.083992,1.6898003,6.3530045,1.6898003c2.0739899,0,6.2879944-1.4948006,7.5189972-5.0694008
			c1.2969971-3.7046013-1.8789978-7.7341995-3.3059998-9.1640015c-1.75-1.7547989-3.4349976-4.6144981-2.7220001-6.6942978
			c0.5179901-1.5597992,1.4259949-2.2747002,3.3059998-2.2747002c2.5279999,0,4.2779999,1.5597992,4.2779999,3.8345985
			c0,0.1949005-0.0650024,0.4548988-0.2590027,0.4548988h-0.8430023c-0.0670013,0.0046005-0.1300049,0.0334015-0.1779938,0.0812035
			c-0.0480042,0.0477982-0.0770111,0.1112976-0.0810089,0.1787987c0,0.1300011,0.1289978,0.1949005,0.2590027,0.1949005h0.7779999
			c0.0559998-0.0037003,0.1119995,0.0069008,0.1620026,0.0307999c0.0509949,0.0239983,0.0939941,0.0604973,0.1269989,0.1060982
			c0.0319977,0.0456009,0.052002,0.0987015,0.0590057,0.1543999c0.0059967,0.0557022-0.0019989,0.1119995-0.0240021,0.1637001
			c-0.1300049,0.7798996-0.1940002,1.2999001-0.3890076,2.0797997c-0.0650024,0.4549026,0.5839996,0.714901,0.7779999,0.3899002
			l3.8890076-6.9541969c0.3239899-0.5199013-0.3240051-0.6499023-0.7770081-0.5199013
			c-1.1019897,0.3899002-2.7879944,0.6498985-3.4359894,0.1949005c-1.3570099-1.1011009-3.0510101-1.698101-4.7970123-1.6898003
			c-3.4349976,0-5.8989868,0.8448982-7.4539948,3.7045975c-0.1299973,0.1950035-0.4540024,0.1950035-0.7139969,0.1950035h-0.7130051
			c-0.1289978,0-0.1940002,0.1299973-0.1940002,0.2599983c0,0.1298981,0.0650024,0.2598991,0.1940002,0.2598991l0.5839996-0.0649986
			c0.2590027,0,0.3889999,0.1300011,0.2590027,0.3899994c-0.0650024,0.2599983-0.1940002,0.5199013-0.2590027,0.7798996
			c-0.3689957,1.5131989-0.2559967,3.1041985,0.3240051,4.5494995c0.0649948,0.0650024-0.0650024,0.1300011-0.3240051,0.1300011
			h-1.0369949c-0.0680008,0.0046005-0.1310043,0.0335007-0.1790009,0.0812988
			c-0.0470047,0.0477028-0.076004,0.1112022-0.0810013,0.1786995c0,0.1300011,0.1299973,0.1949997,0.2600021,0.1949997h1.0369949
			c0.5180054,0,0.5830002,0.0650024,0.7779999,0.3249016c0.5830078,0.7798996,1.1660004,1.3648987,1.8150024,2.2747993
			c0.2590027,0.2598991-0.7129974,0.3249016-1.2319946,0.3249016h-4.1490021c-0.0680008,0-0.1340027,0.027401-0.1830063,0.0761986
			c-0.0479965,0.0487022-0.0759964,0.1149025-0.0759964,0.1837997c0,0.0690002,0.0279999,0.1351013,0.0759964,0.1837997
			c0.0490036,0.0488014,0.1150055,0.0762024,0.1830063,0.0762024h4.2140045c0.7129974,0,1.8799896-0.0650024,2.0089874,0.1299973
			c1.0380096,1.1697998,2.2690125,2.9896011,2.4640045,4.5495033c0.0639954,0.4548988-0.1300049,0.6498985-0.6490021,0.6498985
			h-0.5829926c-0.026001-0.0037994-0.053009-0.0014-0.07901,0.0070992
			c-0.0249939,0.0084991-0.0479889,0.0227013-0.0670013,0.0415993c-0.0189972,0.0189018-0.0329895,0.0419998-0.0410004,0.0674019
			c-0.0089874,0.0253983-0.0109863,0.0523987-0.0069885,0.0788994c0,0.1298981,0.0639954,0.2598991,0.1940002,0.2598991h0.5189972
			c0.4530029,0,0.647995,0.0650024,0.5829926,0.3899994c-0.5829926,1.7548027-1.3609924,3.0545998-4.7319946,2.9897003
			c-3.5650024,0-4.2779999-3.4446983-3.2409973-7.0842972c0.1940002-0.714901,0-1.0398026-0.3240051-0.4549026l-2.4629974,3.899601
			c-0.0839996,0.0862999-0.1849976,0.1539993-0.2969971,0.1987991s-0.2320023,0.0656013-0.352005,0.0611h-0.3239975
			c-0.0690002,0-0.1350021,0.027401-0.1829987,0.0762024c-0.0490036,0.0486984-0.076004,0.1147995-0.076004,0.1837997
			c0,0.0688972,0.0270004,0.1350975,0.076004,0.1837997c0.0479965,0.0487976,0.1139984,0.0761986,0.1829987,0.0761986
			c0.2590027,0,0.3889999,0.1300011,0.2590027,0.3249016l-0.9070053,1.3648987
			c-1.3949966-3.2257004-3.1569977-6.2789001-5.2509995-9.098999v-0.0650024
			c3.3059998-0.1949997,8.1030045-3.2495995,8.8810043-5.9792976c1.3610001-4.8095016-3.2410049-6.5643005-5.7690048-6.5643005
			h-11.0199966c-1.4909973,0-1.5559998,1.169899-0.1940002,1.169899c0.7770004,0,1.4260025,0.6499023,1.1019974,1.2998009
			l-2.4639969,4.4194984c-0.1940002,0.3900032-0.9069977,0.3900032-1.9440002,0.3900032h-1.038002
			c-0.1289978,0-0.2590027,0.0649986-0.2590027,0.1949997c0.0050049,0.0673981,0.0340042,0.1308975,0.0810013,0.1786995
			c0.0480042,0.0477982,0.1110001,0.0765991,0.1780014,0.0811996h1.038002c0.7129974,0,1.4909973,0,1.2310028,0.5200005
			l-2.9170074,5.2644005c-0.1289978,0.2599983-0.5179977,0.2599983-1.4909973,0.2599983h-1.0367966
			c-0.0672989,0.0045013-0.1306,0.0334015-0.178299,0.0811996c-0.0477066,0.047802-0.0764008,0.1113014-0.0810013,0.1786995
			c0,0.1300011,0.1296005,0.1949997,0.2593002,0.1949997h1.0367966c0.7779999,0,1.0370026,0.1300011,0.8430023,0.5199013
			l-3.8893051,7.0192986c-0.4537964,0.5199013-0.9722977,0.5848999-1.9446945,0.5848999
			c-1.4261017,0-1.3611984,1.1049004,0.0647964,1.1049004h9.4642029c1.4909973,0,1.1019974-1.1049004,0.2590027-1.1049004
			c-0.5180054,0-1.0370026-0.9748993-0.7130051-1.4947968l4.7970047-9.2290001h0.5189972
			c2.1389999,0,2.6569977,3.5746002,3.0459976,7.4091988c0.0650024,0.2598991-0.4539948,0.3248978-1.5559998,0.3248978h-2.6569977
			c-0.1299973,0-0.2600021,0.0650024-0.2600021,0.1950035c0.0050049,0.0674973,0.0340042,0.1308975,0.0820007,0.1786995
			c0.0469971,0.0477982,0.1110001,0.0766983,0.1780014,0.0812988h2.6569977c0.7140045,0,1.6860046,0,1.6860046,0.2599983
			c0.1240005,1.5067024,0.3409958,3.004303,0.647995,4.4845009c0.1300049,0.4549026-0.647995,0.3899002-1.4259949,0.3899002
			h-3.4360046c-0.0670013,0.0046005-0.1299973,0.0335007-0.1780014,0.0811996
			c-0.0479965,0.047802-0.0759964,0.1113014-0.0809937,0.1788025c0,0.1299973,0.1299973,0.1949997,0.2589951,0.1949997h3.4360046
			c1.0369949,0,1.6209946,0,1.6849976,0.2598991c1.4260025,5.3943977,7.7789993,9.6839027,13.8720016,9.4239998
			c5.3160019-0.1949997,9.7239914-3.0547028,11.9919968-4.9394989c3.0469971-2.4047012,7.5200043-7.5391006,9.3350067-11.2437019
			C149.3671875,56.0671005,149.8861847,55.1571999,149.7561951,54.5723z"/>
		<path class="st3" d="M61.0792961,30.719799c-0.4103012,0.4871998-0.9293022,0.8705006-1.5149002,1.1189003
			c-0.585701,0.2483978-1.2215004,0.3549995-1.8558998,0.3110008h-0.3889008l2.3335991-4.6145
			c0.0606995-0.1194,0.1537018-0.2193012,0.2683029-0.2882004c0.1145973-0.0690002,0.2462997-0.1042004,0.3798981-0.1018009
			c0.3241005,0,0.2593002-0.5848999-0.1296005-0.5848999h-3.6301003c-0.3241005,0-0.4538002,0.5848999-0.1296005,0.5848999
			c0.3241005,0,0.3241005,0.3250008,0.1944008,0.6499004l-2.0742989,4.0946007
			c-0.170002,0.1830006-0.4001999,0.298399-0.648201,0.3248997c-0.3241005,0.1300011-0.5186005,0.6500015-0.1296997,0.6500015
			h5.8339996c0.4538002,0,0.5834999-0.1300011,0.6483002-0.3250008l1.2316017-1.8198013
			C61.5977974,30.5247993,61.2736969,30.4598999,61.0792961,30.719799z"/>
		<path class="st3" d="M78.7112885,26.6901989C78.5970917,26.7698002,78.4613953,26.8125,78.3222885,26.8125
			c-0.1389999,0-0.2746964-0.0426998-0.3888931-0.1223011c-0.5497055-0.3963985-1.2033005-0.6223984-1.8798065-0.6498985
			c-1.3612976,0-2.3335953,0.2598991-2.9818954,1.5597992c-0.4537048,1.1049004,0.0647964,2.0797997,1.2316971,2.5997009
			c0.5834045,0.2600002,1.2315979,0.5848999,0.9722977,1.2348995c-0.1944962,0.4548988-0.7130966,0.5198994-1.2315979,0.5198994
			c-0.6483002-0.0650005-1.6205978-0.5198994-1.7501984-1.4298c-0.0649033-0.3249989-0.3889999-0.2600002-0.5186005-0.0649986
			l-0.8426971,1.6247978c-0.1296005,0.2600021,0.1944962,0.4549026,0.3889008,0.3249016
			c0.1477966-0.1539001,0.341095-0.2560005,0.5511932-0.2910995c0.2102051-0.0351028,0.4261017-0.0014,0.6156006,0.096199
			c0.6337051,0.4412003,1.3708038,0.7098999,2.1392059,0.7798996c0.6023941,0.0515022,1.2071991-0.0673981,1.7457962-0.3430977
			c0.5384979-0.2757034,0.9890976-0.6972027,1.3008041-1.2167015c0.7130966-1.1049004,0.2593002-2.2098007-0.9723053-2.7947006
			c-0.7130966-0.3249989-1.2965012-0.9098988-0.9723969-1.4948006c0.1944962-0.3899994,0.7779007-0.3249989,1.1019974-0.2599983
			c0.3041992,0.0467987,0.5904007,0.1737995,0.8296051,0.3678989c0.2391968,0.1942005,0.422699,0.4484997,0.5316925,0.7369995
			c0.013504,0.0465012,0.0401001,0.0882015,0.0767059,0.1200008c0.036499,0.0317993,0.081398,0.0522995,0.1292953,0.0592003
			c0.047905,0.0067997,0.0967026-0.0002995,0.1406021-0.0205994c0.0439987-0.0202007,0.0811996-0.0528011,0.1071014-0.0937004
			l0.3889999-1.0398998C79.1649933,26.8202,78.840889,26.6252003,78.7112885,26.6901989z"/>
		<path class="st3" d="M119.3541946,28.3801003l0.5189972-0.9749012c0.2590027-0.3899994-0.1299973-0.8449001-0.7129974-0.8449001
			h-6.8710022c-0.4540024,0-0.3239975,0.5199013-0.1299973,0.5199013c0.4539948,0,0.5839996,0.5200005,0.3239975,0.9748993
			l-2.0739975,3.7695999c-0.3240051,0.3899002-0.5190048,0.5199013-0.9080048,0.5199013
			c-0.3880005,0-0.5179977,0.5200005,0,0.5200005h6.9360046c0.2599945,0,0.3889999-0.0650024,0.4539948-0.2600021
			l0.9729996-1.2348995c0.2590027-0.2598991-0.2599945-0.2598991-0.3889999-0.1299
			c-0.4599991,0.4237003-1.0039978,0.7466011-1.5950012,0.947998c-0.5919952,0.2015038-1.2189941,0.2770004-1.8409958,0.2218018
			h-0.7779999l0.9079971-2.1446991h0.1940002c0.6480026,0,1.3610001,0,1.4910049,0.4548988
			c0.0319977,0.0384007,0.0709991,0.0693016,0.1159973,0.0904999c0.0449982,0.0213013,0.0940018,0.0323009,0.1429977,0.0323009
			c0.0500031,0,0.098999-0.0109997,0.1440048-0.0323009c0.0449982-0.0211983,0.0839996-0.0520992,0.1159973-0.0904999
			l0.7779999-1.6247997c0.1289978-0.2600002-0.1949997-0.2600002-0.3249969-0.1299992
			c-0.3240051,0.5848999-1.75,0.4549999-2.0740051,0.4549999h-0.1940002l1.1660004-2.3397999h1.2970047
			c0.3829956-0.0004997,0.7569962,0.1178989,1.0699997,0.3389988c0.3139954,0.2210999,0.5509949,0.5341015,0.6800003,0.8959007
			C118.8361893,28.4450989,119.2901917,28.5750999,119.3541946,28.3801003z"/>
		<path class="st3" d="M85.5822906,29.5499992l2.2686996-1.8197994v1.8197994H85.5822906z M101.8521881,26.5602989h-2.397995
			c-0.5185013,0-0.3889008,0.5200005-0.1296005,0.5200005c0.1350021,0.0028,0.2668991,0.0410004,0.3825989,0.1109009
			c0.1156998,0.0698986,0.2109985,0.1688995,0.2770004,0.2873001c0.0650024,0.1183987,0.098999,0.2518997,0.0970001,0.3872986
			c-0.0019989,0.1354008-0.0390015,0.2679005-0.1080017,0.3843002l-0.972702,1.8198013l-2.2039948-3.2496014
			c-0.229805-0.2112999-0.530899-0.3274002-0.8427048-0.3249989h-2.3983994c-0.4537964,0-0.3889008,0.5199986-0.1296005,0.5199986
			c0.4537048,0,0.3241043,0.3899002,0.1944046,0.6499004l-1.8797989,3.7046013
			c-0.0370026,0.0759983-0.0960999,0.1390991-0.1694031,0.1808987c-0.0734024,0.0418015-0.1576004,0.0604-0.2416992,0.0534
			s-0.1641006-0.039299-0.229599-0.0928001c-0.0653992-0.0534-0.1133041-0.1253986-0.1371994-0.2064991l-1.4909058-4.8094997
			c-0.0647964-0.1949005-0.9074936-0.1949005-1.1667938,0l-3.6949005,3.0546989h-1.8797989
			c-0.3889008,0-0.5834045,0.1949997-0.5834045,0.3899002c0,0.1949997,0.1945038,0.3899994,0.5834045,0.3899994h0.9722977
			l-0.9722977,0.8449001c-0.5834045,0.3900013-1.1668015,0.9749012-1.4909058,0.9749012h-0.2593002
			c-0.3889999,0-0.5833969,0.0649986-0.5833969,0.3250008c0,0.3248978,0.194397,0.3899002,0.5186005,0.3899002h2.9817963
			c0.5834045,0,0.4537048-0.714901,0.1945038-0.714901c-0.1135025,0.0016975-0.2248001-0.0312004-0.3191986-0.0943031
			c-0.0945053-0.0629978-0.1676025-0.1533966-0.2097015-0.258997c-0.0421982-0.1056004-0.0513-0.2215996-0.0263977-0.3325996
			c0.0249939-0.1110001,0.0830002-0.2117004,0.1662979-0.2890015l0.9075012-0.844799h1.8151016
			c1.0370941,0,1.8149948,1.2348003,1.1667938,1.6247997l-0.5186005,0.2599983
			c-0.1944962,0.1299019-0.3240967,0.6499023,0,0.6499023h5.8339996c0.4537048,0,0.3889008-0.5850029,0.1944046-0.5850029
			c-0.648201,0-0.3241043-0.8448982-0.1944046-1.0397968l1.4909058-2.9247017l2.1390991,4.159502
			c0.1944962,0.2599983,0.3240967,0.3899994,0.5186005,0.3899994h0.8426971
			c0.1016998,0.0083008,0.2031021-0.0196991,0.2862015-0.0792007s0.1424026-0.1465988,0.1676025-0.2458l2.4628983-4.484499
			c0.3889999-0.7799015,0.7129974-0.9748001,1.2320023-0.9748001
			C102.241188,27.0802994,102.3711929,26.5602989,101.8521881,26.5602989z"/>
		<path class="st3" d="M67.8856888,30.1998997c-0.6483002,1.2998009-1.7501984,2.0797977-2.3984985,1.7548008
			c-0.7129974-0.3249016-0.7778015-1.6898003-0.0647964-2.9896011c0.648201-1.2999001,1.6853943-2.0797997,2.3983994-1.7549
			C68.5338898,27.6002007,68.5338898,28.8999996,67.8856888,30.1998997z M67.3022919,26.2353001
			c-2.0094986,0-4.1486969,1.0398998-4.5375977,3.1847c-0.1040001,0.4695988-0.0993996,0.9568996,0.013401,1.4246006
			c0.1128006,0.4675999,0.3307991,0.9030991,0.6374016,1.2731972c0.3064995,0.3701019,0.6934967,0.6650009,1.1312943,0.8620033
			c0.4376984,0.1969986,0.9146042,0.2910004,1.3942032,0.2747002c2.2038956,0,4.2133942-1.4298019,4.6023941-3.5096016
			C70.9322891,27.6651993,69.441391,26.2353001,67.3022919,26.2353001z"/>
		<path class="st3" d="M108.7891922,29.419899h-2.5930023c-0.5189972,0-0.3889999,0.5200005-0.1949997,0.5200005
			c0.0620041-0.0070992,0.1240005-0.0002003,0.1819992,0.0200996c0.0579987,0.020401,0.1110001,0.0537014,0.1549988,0.0974007
			c0.0430069,0.0438004,0.0770035,0.0967999,0.0970001,0.1553001c0.0200043,0.0583992,0.0270004,0.1206989,0.0200043,0.1821003
			c0,1.0398998-0.4540024,1.4298992-1.4260025,1.4298992s-1.3610001-1.169899-0.647995-2.6646996
			c0.2569962-0.5599995,0.6679993-1.0349007,1.1839981-1.3687c0.5169983-0.3339005,1.1179962-0.5130005,1.7330017-0.5160999
			c0.8419952,0,1.5550003,0.1949997,1.6199951,0.9748993c0.0650024,0.1949997,0.3240051,0.1949997,0.4540024,0l0.5830002-1.1049004
			c0.0650024-0.1299992,0-0.2599983-0.1940002-0.2599983c-0.1940002-0.0650005-0.5189972,0.1949997-0.7779999,0
			c-0.7590027-0.4798012-1.6310043-0.7490005-2.5279999-0.7799015c-0.9609985-0.0605984-1.9189987,0.1587009-2.7590027,0.6315002
			c-0.8389969,0.4728012-1.5239944,1.1788998-1.9729996,2.0332012c-1.2320023,2.0797997,0.5190048,4.2895012,2.1389999,4.2895012
			c0.9080048,0,2.0100021-0.6499023,2.5930023-0.9099045l0.6480026,0.4550018
			c0.1349945,0.1486015,0.3199997,0.2413025,0.5189972,0.2600021h0.2590027c0.2589951,0,0.3239975-0.3250008,0.3889999-0.5200005
			l1.0369949-2.4697018C109.4371948,29.6149998,109.3721924,29.419899,108.7891922,29.419899z"/>
		<path class="st3" d="M144.8951874,26.6901989c-0.1139984,0.0796013-0.25,0.1223011-0.3889923,0.1223011
			c-0.1390076,0-0.2750092-0.0426998-0.3890076-0.1223011c-0.5500031-0.3963985-1.2039948-0.6223984-1.8799896-0.6498985
			c-1.3610077,0-2.3339996,0.2598991-2.9820099,1.5597992c-0.4539948,1.1049004,0.0650024,2.0797997,1.2969971,2.5997009
			c0.5180054,0.2600002,1.1660004,0.5848999,0.9070129,1.2348995c-0.1940002,0.4548988-0.7130127,0.5198994-1.2320099,0.5198994
			c-0.647995-0.0650005-1.6199951-0.5198994-1.75-1.4298c-0.0650024-0.3249989-0.3889923-0.2600002-0.5179901-0.0649986
			l-0.8430023,1.6247978c-0.1300049,0.2600021,0.1940002,0.4549026,0.3889923,0.3249016
			c0.1480103-0.1539001,0.3410034-0.2560005,0.5510101-0.2910995c0.2099915-0.0351028,0.4259949-0.0014,0.6159973,0.096199
			c0.6329956,0.4412003,1.3710022,0.7098999,2.1389923,0.7798996c1.3610077,0,2.3330078-0.3899994,3.0469971-1.5597992
			c0.7130127-1.1049004,0.3240051-2.2098007-0.9729919-2.7947006c-0.7129974-0.3249989-1.2310028-0.9098988-0.9720001-1.4948006
			c0.1940002-0.3899994,0.7779999-0.3249989,1.102005-0.2599983c0.3040009,0.0467987,0.5899963,0.1737995,0.8289948,0.3678989
			c0.2400055,0.1942005,0.4230042,0.4484997,0.5319977,0.7369995c0.0140076,0.0465012,0.0400085,0.0882015,0.0769958,0.1200008
			c0.0360107,0.0317993,0.0810089,0.0522995,0.1290131,0.0592003c0.0479889,0.0067997,0.0970001-0.0002995,0.1409912-0.0205994
			c0.0440063-0.0202007,0.0810089-0.0528011,0.1069946-0.0937004l0.3890076-1.0398998
			C145.3481903,26.8202,145.0241852,26.6252003,144.8951874,26.6901989z"/>
		<path class="st3" d="M126.6151886,30.719799c-0.9079971,1.1049004-2.0749969,1.4299011-3.435997,1.4299011h-0.3239975
			l2.3339996-4.6145c0.0459976-0.1298008,0.137001-0.2395,0.2549973-0.3105011
			c0.1180038-0.0709991,0.2570038-0.0991001,0.3929977-0.0795002c0.2590027,0,0.2590027-0.5848999-0.1299973-0.5848999h-3.6949997
			c-0.3239975,0-0.3889999,0.5848999-0.1289978,0.5848999c0.3239975,0,0.3889999,0.3250008,0.2589951,0.6499004
			l-2.1389999,4.0946007c-0.1439972,0.1814976-0.3539963,0.298399-0.5839996,0.3248997
			c-0.3239975,0.1300011-0.5179977,0.6500015-0.1940002,0.6500015h5.8339996c0.4540024,0,0.5830002-0.1300011,0.7130051-0.3250008
			l1.1669998-1.8198013C127.133194,30.5247993,126.744194,30.4598999,126.6151886,30.719799z"/>
		<path class="st3" d="M135.430191,27.0802002c0.3789978,0.0181999,0.7440033,0.1438999,1.0540009,0.3626003
			c0.3099976,0.2186985,0.552002,0.5212002,0.6970062,0.8722992c0.0639954,0.1299992,0.4529877,0.2600002,0.5829926,0.0650005
			l0.5189972-0.9749012c0.1940002-0.3899994-0.1299896-0.8449001-0.7129974-0.8449001h-6.871994
			c-0.5180054,0-0.3240051,0.5199013-0.1289978,0.5199013c0.4539948,0,0.5829926,0.5200005,0.2589874,0.9748993
			l-2.0089874,3.7695999c-0.1010132,0.1665001-0.2440033,0.3027992-0.4150085,0.3942986
			c-0.1710052,0.0915031-0.3639984,0.134903-0.5579987,0.1256027c-0.3239975,0-0.4540024,0.5198975,0,0.5198975h6.9360046
			c0.3239899,0,0.4539948-0.0649986,0.5189972-0.2598991l0.9720001-1.2348995
			c0.1949921-0.2600002-0.2590027-0.2600002-0.4539948-0.1299992c-0.4450073,0.4258995-0.9760132,0.7507992-1.5580139,0.9526978
			c-0.5819855,0.2018013-1.1999969,0.2759018-1.8119965,0.2172012h-0.8430023l0.9720001-2.1448002h0.1950073
			c0.5829926,0,1.2960052,0,1.4909973,0.4549007c0.0240021,0.0377998,0.0579987,0.0688,0.0980072,0.0902996
			c0.0390015,0.0214996,0.0829926,0.0326996,0.1289978,0.0326996c0.0449982,0,0.0889893-0.0112,0.1279907-0.0326996
			c0.0400085-0.0214996,0.0740051-0.0524998,0.0980072-0.0902996l0.8430023-1.6247997
			c0.1299896-0.259901-0.2590027-0.259901-0.3240051-0.1300011c-0.3240051,0.585001-1.75,0.4549999-2.1389923,0.4549999h-0.1950073
			l1.2319946-2.3396988H135.430191z"/>
		<path d="M82.5355911,10.7019987c-3.2410965-0.1949997-5.8987961-0.3249998-8.1676025-0.0649996
			c0.6374054-1.5745602,1.6907043-2.94519,3.0466995-3.96456c2.0908051,0.10326,4.1710052,0.3639603,6.2229004,0.7799101
			c5.7692032,1.1048799,14.7147064,4.6794496,18.6035995,9.8139515
			C97.0557938,13.821599,88.5640945,11.1568985,82.5355911,10.7019987z M72.8770905,10.8319988
			c-2.2723999,0.2587004-4.5246964,0.6712999-6.7415009,1.2348995c-0.3240967-0.8448992-1.1668015-3.4446497-1.4908981-4.2895489
			c3.5617981-0.9934201,7.2670975-1.3671303,10.9549026-1.1048803
			C74.6920929,7.3873591,73.2011948,10.0520887,72.8770905,10.8319988z M56.6066971,15.6413984
			c-0.3889008-0.6498995-2.2688026-2.4046993-3.3059006-2.7297001c2.3983994-1.8197994,7.9082985-4.3544693,10.0473976-4.8094196
			c0.3241005,0.64993,1.2964973,3.2496204,1.620594,4.2895203C63.0888939,12.7817984,58.1624947,14.6015987,56.6066971,15.6413984z
			 M108.4641953,21.5557995c-0.5180054-0.6499004-1.2310028-1.9498005-6.4169998-6.499301
			c-7.7139053-6.6942501-17.8910065-9.748909-27.4199066-9.748909c-7.0007935,0-13.1588936,1.5598302-20.0300941,5.3294101
			c-8.6861992,4.8094997-12.2514,10.3338013-13.1588974,11.4386997c-0.648201,0.8449001-0.7130013,1.2999001-0.3241005,1.5598011
			c0.3241005,0.1949997,0.9074974-0.4549007,1.4260979-1.1697998c2.5928993-3.4446011,6.0284996-6.8243017,9.5937004-8.8390017
			c1.1020012,0.1949005,2.6576996,1.7548008,3.2411003,2.5347013c-2.597599,1.6201992-5.1074982,3.3775005-7.5194016,5.2644005
			c-1.2315979,0.9748993-1.6204987,1.4947987-1.2963982,1.8848c0.2593002,0.3248997,1.2316017-0.2600002,2.0094986-0.9099007
			c2.3625031-1.8834,4.8534012-3.5991001,7.4545021-5.1343994c1.4260979,1.6247997,0.9724007,4.614399,0.4538002,5.1993999
			c-0.2593002,0.3899002-0.2593002,0.7148991,0,0.9098988c0.3241005,0.1950016,0.5834007-0.2599983,0.9722977-0.8448982
			c0.9723015-1.3649006,0.5834007-4.6145-0.1945-5.7844009c2.4633026-1.5598011,5.9637032-2.5997009,8.1027946-3.0546007
			c0.1945038,0.3248997,2.7873993,7.929101,3.3059998,9.2939005c0.2593002,0.7798996,0.5185013,1.6898003,1.1019058,1.4948997
			c0.3241959-0.0649986,0.1296997-0.9098988-0.1944046-1.7549c-0.3889999-1.0397987-2.3335953-7.4091005-2.9817963-9.2939005
			c0.7129974-0.3900003,4.9912949-1.2348995,6.0932007-1.2348995c-0.5185013,2.7946997,1.4260941,3.9646006,3.6300964,5.3944006
			c1.1668015,0.7798996,8.686203,5.0695,10.2418976,6.0443001c0.9075012,0.5849991,1.6206055,0.9099007,1.8150024,0.6499996
			c0.1945038-0.2600002-0.3889008-0.9099007-1.2315979-1.3649006c-0.648201-0.3898983-7.6490021-4.484499-10.5660019-6.3042984
			c-2.0743027-1.3648014-3.1763-2.729702-2.7226028-4.614502c0.7131042-0.1948996,2.7874069-0.1948996,4.9914017-0.1948996
			c14.9091034,0.1300001,26.8364029,8.6440001,28.1324005,10.0738001c0.7130051,0.6500015,1.6210022,1.2349014,2.0100021,0.9749012
			C109.1771927,22.6606998,108.7881927,21.8806992,108.4641953,21.5557995z"/>
		<path d="M111.706192,72.5753021c0.5830002-0.9748993,0.9720001-1.559906,0.5179977-1.8198013
			c-0.3889999-0.2600021-0.8419952,0.7148972-1.3610001,1.6248016c-1.75,2.9896011-3.6299973,5.5243988-7.9079971,9.4238968
			c-3.5597992,3.2020035-7.6661987,5.733902-12.1221008,7.4741974c-1.6205978-4.5494995-7.7787018-23.9172974-7.9731979-24.5022964
			c-0.1945038-0.844902-0.4537048-1.0399017-0.7130051-0.9748993c-0.3240967,0.1299973-0.1296997,0.5849991,0.0648041,1.2998962
			c0.1296005,0.7149048,7.4544983,23.7223053,7.7137985,24.5023041c-1.4261017,0.7148972-7.3897018,2.4047012-11.4735031,2.5346985
			c-3.6948929,0.1299973-8.0379944,0-10.2418976-0.5198975c-2.5280991-2.0799026-8.3620949-10.3339005-10.5660934-14.6884995
			c-2.5929031-5.1994019-4.3431015-9.9438019-4.7968025-11.9586029c-0.1945-0.9748993-0.4538002-1.6898003-0.9722977-1.5598984
			c-0.5186005,0.0649986-0.1945,0.8449936,0.1295967,1.8847961c1.1924019,4.0870056,2.7771034,8.0484009,4.7320023,11.8287048
			c2.9169998,5.6543961,8.0379944,12.3485947,9.5288925,14.168396c-5.7234917-1.2509003-11.1153946-3.7101974-15.8165932-7.2140961
			c-4.6671982-3.5096054-8.6861992-7.9291-10.6957016-11.1788025c-0.3240967-0.5848999-0.7130966-1.3647995-1.2315979-1.0399017
			c-0.2593002,0.1949997,0.0648003,0.7799988,0.3889008,1.4299011c2.9169998,5.2644043,10.0475006,12.7386017,19.2521973,16.8330994
			c10.6309013,4.7444992,22.2340965,4.4845047,32.6704979,0.4549026
			C99.9081955,87.0686035,107.8161926,79.7893982,111.706192,72.5753021z"/>
	</g>
</g>
</svg>
