<?xml version="1.0" encoding="utf-8"?>
<!-- Generator: Adobe Illustrator 27.0.0, SVG Export Plug-In . SVG Version: 6.00 Build 0)  -->
<svg version="1.1" id="Layer_1" xmlns="http://www.w3.org/2000/svg" xmlns:xlink="http://www.w3.org/1999/xlink" x="0px" y="0px"
	 viewBox="0 0 107 62" style="enable-background:new 0 0 107 62;" xml:space="preserve">
<style type="text/css">
	.st0{clip-path:url(#SVGID_00000075853775338996039940000006679299969294617528_);}
	.st1{fill:#FFFFFF;}
	.st2{fill:#C80F2E;}
	.st3{fill:#1D4289;}
	.st4{fill-rule:evenodd;clip-rule:evenodd;fill:#1D4289;}
</style>
<g>
	<defs>
		<rect id="SVGID_1_" x="0.3085106" y="0.0597042" width="105" height="61.3274002"/>
	</defs>
	<clipPath id="SVGID_00000105398315407884000640000008431315175020976017_">
		<use xlink:href="#SVGID_1_"  style="overflow:visible;"/>
	</clipPath>
	<g style="clip-path:url(#SVGID_00000105398315407884000640000008431315175020976017_);">
		<path class="st1" d="M6.6114306,0.0597042h14.3870792c3.4918003,0,6.3029003,2.81475,6.3029003,6.3111V55.076004
			c0,3.4963989-2.8111,6.3111-6.3029003,6.3111H6.6114306c-3.4918201,0-6.3029199-2.8147011-6.3029199-6.3111V6.3708043
			C0.3085106,2.874454,3.1196105,0.0597042,6.6114306,0.0597042z"/>
		<path class="st2" d="M17.4251099,11.3011036l0.0200005,0.2075005c0.434,0.2567997,0.6609001,0.4642,1.1047993,0.7507
			c1.1641006,0.7409,2.5948009,2.0546999,2.4171009,6.5690002c0.3352985,0.9878998,0.4833984,2.9140987,0.7793999,3.5265999
			c0.6019001,1.2150002,1.0160999,2.0053005,1.1936989,3.1411991c0,0,0.1777,1.778101,0.404501,1.906601
			c1.2033997,0.2764988,0.8584003,0.3950996,1.0259991,0.6124001c0.1872997,0.2370987,0.8878002,0.2271996,0.8878002,0.8792
			c0.2467003,0.3258991,0.4342003,0.6518993,0.5622997,1.0074997V6.4212642c0-2.6868801-2.1703987-4.8600998-4.844099-4.8600998
			h-4.6270008c0.7399006,0.2667201,1.1641006,0.5828199,1.4109001,1.07673
			c0.5916004,0.0493898,1.2924995,1.3829598,0.1972008,3.3684802c0.4832001,0.3358698,0.1082993,0.8297801-0.2369995,1.3928399
			c-0.1085014,0.1778102-0.217001,0.5037899-0.5426006,0.4840302c-0.434,0.8989191-0.9372997,1.7484493-1.3217993,1.7978392
			c-0.1084003,0.1382999-0.1876001,0.5235205-0.0199003,0.7013197C16.39921,10.6393042,17.0796089,10.9751034,17.4251099,11.3011036
			z"/>
		<path class="st2" d="M21.7463093,59.8229027l-0.0492001,0.0098c2.1210003-1.2939987,0.8089008-3.7436981,0.404501-5.1858978
			l0.0788002-0.2472c0.1084995-0.1976013-0.1182003-0.6617012-0.1182003-0.6617012
			c-0.2663002-0.2173996-0.3255997-1.4224014-0.4638004-1.9756012c-0.2266998-0.8988991,0.4043999-2.4694977,0.4043999-3.0028992
			c0-0.533699-0.4043999-1.2645988-1.1343994-2.1930008c-0.1777-0.2075005-0.7103996-4.7612991-1.1839008-5.917099
			c-0.6609993-1.5904999-0.8584995-1.3338013-1.6473999-3.2399979c-0.6019993-1.3337021-0.1283989-3.2994003-1.4897003-7.863102
			l0.3057003-0.286499c0,0-1.0851984-3.9710007-1.4404984-5.0577011c-0.3453999-1.0865993-0.9864006-1.1556988-0.9864006-1.1556988
			l0.0393-0.5631008c0.0495005-0.1679001,1.3220005-3.4771004,1.4305-3.5858002
			c0.0097008-0.0690994,1.835-1.3237,1.8643999-1.1359997c0.1478996,0.8099995,0.8582993,4.9293003,1.1639996,5.5811996
			c0.3057995,0.6618996,1.3617001,2.677,1.8449993,3.9316006c-1.8843002,0.4643002-3.2951984,2.1731987-3.2951984,4.1984005
			c0,2.3904972,1.9337997,4.3363972,4.3211994,4.3363972c1.8248005,0,3.4035988-1.1358986,4.0347996-2.7361984l-0.0098,21.9594994
			C25.8208103,57.4621048,24.0746098,59.467205,21.7463093,59.8229027z"/>
		<path class="st3" d="M14.830411,1.5611641c-1.5784998,0.6124599-1.7955999,1.29405-1.8546,3.4870203
			c-0.2664003,0.0296397-0.8190002-0.22719-0.6314001,1.10637c0,0,0.0986996,0.88904,0.4538002,0.74087
			c-0.2762003,1.9361291-0.0567007,2.4207091-1.3415003,2.5584598c-0.2763004,0.0296392-0.6118002,0.0493898-1.0261002,0.06915
			l-0.1282101,0.1778097C8.546361,9.8687735,7.6765509,9.7564039,6.5435309,11.2517042
			c-0.4340701,0.573-0.8977504,1.3829994-1.4699502,2.5386992c0,0-0.5228701,1.2941008-0.68085,1.8275003
			c-0.5031402,1.0570002-1.7363203,3.3981009-2.1013401,4.8996c-0.1182501,0.5137005-0.3452899,0.6716995-0.0197301,1.4125996
			c0.4834099,1.0669003-0.3156899,1.343401,2.4269001,1.2644005v0.6322002c0,0-0.7300401,0.6322002-0.8878901,1.0075989
			c-0.14798,0.3853016-0.5722001,2.2720013-0.55233,3.1709003c0.04919,2.3411999,1.9533603,4.2969017,2.5155504,6.6282997
			l1.2726498,0.1780014c0.6905799,1.5904007,3.7093701,5.8772011,4.4099698,6.5689011
			c0.0099001,0.0098,0.0197001,0.0198975,0.0296001,0.0296974c0.1577005,0.4048996,0.9372005,0.908802,1.3908997,1.4126015
			c0.2764006,0.2667007,1.5492001,1.6497002,3.2458992,2.9636002c0.6229,0.4822998,1.2926006,0.9580994,1.9927998,1.3632011
			c-0.0196991-0.0100021,0.4143009,0.8593979,0.6314011,1.5704994c-0.8682003,0.7012978,0.8188,1.9856987,1.3317986,4.1094971
			c0.0296001,0.2862015-0.4933987,0.5730019,0.2861004,1.2742004c-0.0492992,3.2101021-1.0258999,4.889801,0.6117001,5.7786026
			H6.5435309c-2.6240704-0.0592995-4.7452703-2.2126007-4.7452703-4.8502007V6.4212642
			c0-2.6572502,2.1210699-4.8008299,4.7452703-4.8600998H14.830411z"/>
		<path class="st4" d="M34.5619087,1.5328442v58.2810593h6.2909012c0.0163994-15.0088997,0.3563004-30.0783005-0.5660019-44.9115982
			l7.2525024,44.9115982h9.0265007V1.5328442h-6.2291031c-0.1268997,15.4527588,0.4210014,30.6895599,1.4675026,45.7669601
			L44.2680092,1.5328442H34.5619087z"/>
		<path class="st4" d="M89.0957108,1.4925642l-6.1832047,58.33004h7.6930008l1.0065002-11.7947998h5.0328064l1.0065994,11.7947998
			h7.6570969l-6.0035019-58.33004H89.0957108z M94.1284103,17.9570045l1.9412994,23.2273979h-3.8824997L94.1284103,17.9570045z"/>
		<path class="st3" d="M61.4154091,1.5328742v58.249527h11.2519035c1.8443985,0,8.1243973-1.6138,8.1243973-9.7014999V38.4471054
			c0-1.2258034,0.0102997-5.0685997-3.3432007-7.3265018c2.0954971,0,3.3432007-4.0704994,3.3432007-7.7693005V10.8721037
			c0-4.8622293-3.0224991-9.3524599-9.0950012-9.3392296H61.4154091z M68.353508,8.9801235h3.4151001
			c1.5643997,0,2.0849991,1.7293806,2.0849991,3.0593805v13.5661001c0,2.3204994-0.761795,2.4958-2.3365936,2.4958H68.353508
			V8.9801235z M68.353508,34.4618034h3.4151001c1.5643997,0,2.0849991,1.7294006,2.0849991,3.0593987v12.1169014
			c0,1.5788002-0.7859955,2.7775993-2.3365936,2.7775993l-3.1635056,0.0401993V34.4618034z"/>
	</g>
</g>
</svg>
