<svg width="18" height="13" viewBox="0 0 18 13" fill="none" xmlns="http://www.w3.org/2000/svg">
<path d="M15.202 0.414466C15.5131 0.145686 15.927 -0.00290628 16.3565 4.30801e-05C16.7859 0.00299244 17.1973 0.157253 17.5038 0.430275C17.8104 0.703296 17.9881 1.07372 17.9994 1.46339C18.0108 1.85306 17.8549 2.23149 17.5647 2.51883L8.75442 12.5196C8.60293 12.6677 8.42008 12.7866 8.21682 12.8691C8.01356 12.9515 7.79406 12.996 7.57144 12.9997C7.34882 13.0035 7.12766 12.9664 6.92117 12.8908C6.71469 12.8152 6.52712 12.7026 6.36969 12.5597L0.527089 7.25667C0.364382 7.11906 0.233879 6.95311 0.143366 6.76873C0.0528517 6.58435 0.00418102 6.38531 0.000257728 6.18349C-0.00366557 5.98166 0.037239 5.78119 0.12053 5.59402C0.203822 5.40686 0.327794 5.23684 0.485051 5.0941C0.642308 4.95137 0.829628 4.83885 1.03584 4.76325C1.24205 4.68765 1.46292 4.65052 1.68528 4.65408C1.90764 4.65764 2.12693 4.70182 2.33008 4.78397C2.53322 4.86613 2.71605 4.98458 2.86766 5.13226L7.4914 9.32697L15.1601 0.458558C15.1739 0.443128 15.1886 0.428407 15.2042 0.414466H15.202Z" fill="#F8F8F8"/>
</svg>
