<svg width="10" height="14" viewBox="0 0 10 14" fill="none" xmlns="http://www.w3.org/2000/svg">
<path d="M9.063 8.49277L5.26191 12.8678C5.11462 13.04 4.91981 13.1248 4.72501 13.1248C4.5302 13.1248 4.33587 13.0394 4.18763 12.8685L0.386538 8.49346C0.0895783 8.15166 0.0895783 7.59795 0.386538 7.25615C0.683499 6.91436 1.16457 6.91436 1.46153 7.25615L3.96479 10.1389V1.7498C3.96479 1.26609 4.30522 0.899414 4.70363 0.899414C5.10203 0.899414 5.48523 1.26609 5.48523 1.7498V10.1389L7.98919 7.25684C8.28615 6.91504 8.76723 6.91504 9.06419 7.25684C9.36115 7.59863 9.35996 8.15098 9.063 8.49277Z" fill="#CD0303"/>
</svg>
