<svg width="20" height="21" viewBox="0 0 20 21" fill="none" xmlns="http://www.w3.org/2000/svg">
<g opacity="0.7" clip-path="url(#clip0_7105_31032)">
<path d="M18.7602 11.1909C18.5154 11.1909 18.2807 11.2946 18.1076 11.4792C17.9345 11.6638 17.8373 11.9142 17.8373 12.1753V16.1378C17.8365 16.9031 17.5511 17.6369 17.0438 18.178C16.5364 18.7192 15.8485 19.0236 15.131 19.0245H4.55978C3.84228 19.0236 3.15441 18.7192 2.64706 18.178C2.13971 17.6369 1.85433 16.9031 1.85352 16.1378V4.86178C1.85433 4.09645 2.13971 3.36272 2.64706 2.82155C3.15441 2.28038 3.84228 1.97597 4.55978 1.9751H8.27464C8.5194 1.9751 8.75413 1.87139 8.9272 1.68678C9.10026 1.50217 9.19749 1.2518 9.19749 0.990723C9.19749 0.72965 9.10026 0.479271 8.9272 0.294664C8.75413 0.110058 8.5194 0.00634766 8.27464 0.00634766H4.55978C3.35296 0.00786733 2.19598 0.519908 1.34263 1.43015C0.489275 2.34039 0.0092372 3.5745 0.0078125 4.86178V16.1378C0.0092372 17.4251 0.489275 18.6592 1.34263 19.5694C2.19598 20.4797 3.35296 20.9917 4.55978 20.9932H15.131C16.3379 20.9917 17.4948 20.4797 18.3482 19.5694C19.2015 18.6592 19.6816 17.4251 19.683 16.1378V12.1753C19.683 11.9142 19.5858 11.6638 19.4127 11.4792C19.2396 11.2946 19.0049 11.1909 18.7602 11.1909Z" fill="#886200"/>
<path d="M18.7424 8.31699e-08H13.0054C12.7637 -4.93491e-05 12.5317 0.101011 12.3591 0.281468C12.1866 0.461926 12.0873 0.707381 12.0825 0.965098C12.0729 1.51758 12.5086 1.96875 13.0262 1.96875H16.538L9.18824 9.81094C9.01519 9.99554 8.91797 10.2459 8.91797 10.507C8.91797 10.768 9.01519 11.0184 9.18824 11.203C9.36131 11.3876 9.59603 11.4913 9.84078 11.4913C10.0855 11.4913 10.3202 11.3876 10.4933 11.203L17.8454 3.36328V7.12277C17.8454 7.38385 17.9426 7.63423 18.1157 7.81883C18.2887 8.00344 18.5235 8.10715 18.7682 8.10715C19.013 8.10715 19.2477 8.00344 19.4208 7.81883C19.5938 7.63423 19.6911 7.38385 19.6911 7.12277V1.01145C19.6911 0.878586 19.6665 0.747028 19.6188 0.624287C19.5712 0.501546 19.5013 0.390027 19.4132 0.296101C19.3251 0.202174 19.2205 0.12768 19.1054 0.076874C18.9903 0.0260683 18.867 -5.37933e-05 18.7424 8.31699e-08Z" fill="#4B4B4B"/>
</g>
<defs>
<clipPath id="clip0_7105_31032">
<rect width="19.6875" height="21" fill="white"/>
</clipPath>
</defs>
</svg>
