<svg width="79" height="109" viewBox="0 0 79 109" fill="none" xmlns="http://www.w3.org/2000/svg">
<path d="M42.7313 5.63381C41.2239 3.88539 40 1.98752 39 0C38 1.98752 36.7761 3.88539 35.2687 5.63381C25.8507 16.5577 13.194 20.2189 -1 7.39718V81.8471C-0.850746 90.3053 5.56716 93.1596 11.4925 95.3862L16.1343 96.7013C23.0896 97.5979 29.8358 99.3314 39 108.985C48.1642 99.3314 54.9104 97.5979 61.8657 96.7013L66.5075 95.3862C72.4328 93.1596 78.8507 90.3053 79 81.8471V7.39718C64.806 20.2189 52.1493 16.5577 42.7313 5.63381ZM76 79.2917C75.8657 86.943 69.9851 89.5282 64.5522 91.5307L60.2985 92.7262C53.9254 93.5481 47.7313 95.1023 39.3134 103.889C39.2985 103.874 39.2836 103.859 39.2836 103.844C39.2687 103.859 39.2537 103.874 39.2537 103.889C30.8358 95.1172 24.6418 93.5481 18.2687 92.7262L14.0149 91.5307C8.58209 89.5133 2.70149 86.928 2.56716 79.2917V13.5988C12.597 21.5489 27.1642 20.2488 35.7761 10.371C37.194 8.74212 38.3582 6.97875 39.2836 5.12572C40.209 6.97875 41.3731 8.74212 42.791 10.371C51.4179 20.2488 65.9702 21.5489 76 13.5988V79.2917ZM67.9403 21.7283L69.1642 25.2102H73.0298L69.9552 27.661L71.1343 31.4118L67.9403 28.9909L64.7612 31.2774L65.9851 27.646L63.0149 25.2102H66.7313L67.9403 21.7283ZM66.7313 36.5824H63.0149L65.9851 39.0182L64.7612 42.6496L67.9403 40.3632L71.1194 42.7841L69.9403 39.0332L73.0149 36.5824H69.1642L67.9403 33.1005L66.7313 36.5824ZM54.5224 36.5824H50.806L53.7761 39.0182L52.5522 42.6496L55.7164 40.3632L58.8955 42.7841L57.7164 39.0332L60.791 36.5824H56.9403L55.7164 33.1005L54.5224 36.5824ZM54.4328 25.2102H50.7164L53.7015 27.646L52.4776 31.2774L55.6418 28.9909L58.8209 31.4118L57.6567 27.661L60.7313 25.2102H56.8806L55.6567 21.7283L54.4328 25.2102ZM22.791 21.7283L24.0149 25.2102H27.8657L24.791 27.661L25.9701 31.4118L22.791 28.9909L19.6119 31.2774L20.8358 27.646L17.8657 25.2102H21.5821L22.791 21.7283ZM21.5672 36.5824H17.8507L20.8209 39.0182L19.597 42.6496L22.7761 40.3632L25.9552 42.7841L24.7761 39.0332L27.8507 36.5824H24L22.7761 33.1005L21.5672 36.5824ZM9.35821 36.5824H5.65672L8.62687 39.0182L7.40298 42.6496L10.5672 40.3632L13.7463 42.7841L12.5821 39.0332L15.6567 36.5824H11.806L10.5821 33.1005L9.35821 36.5824ZM9.26866 25.2102H5.55224L8.52239 27.646L7.29851 31.2774L10.4776 28.9909L13.6567 31.4118L12.4925 27.661L15.5672 25.2102H11.7015L10.4776 21.7283L9.26866 25.2102ZM48.403 18.1716C47.5821 18.7694 45.9254 20.0097 44.0149 21.6685L45.9851 22.6697C45.7612 22.8491 45.5373 23.0433 45.3134 23.2376L40.4328 20.742C40.6866 20.5627 40.9403 20.3833 41.1791 20.2189L42.7761 21.0409C44.9403 19.2775 46.7463 18.3061 47.7313 17.8429C45.403 17.6486 36.2687 17.4095 31.5821 25.001C27 32.4131 29.1343 39.2424 29.8209 41.0207C30.4179 39.3619 32.2985 34.4454 35.0448 29.9474L33.1194 28.9611C33.2388 28.722 33.3731 28.4829 33.4925 28.2438L38.2836 30.6945C38.1343 30.9187 38 31.1429 37.8657 31.382L36.0448 30.4405C33.194 34.834 30.9104 40.0344 30.2836 41.4989C32.0896 41.7231 41.9104 42.4852 47.3582 34.0718C51.8358 27.1977 49.0597 19.7109 48.403 18.1716ZM39.3881 29.2151L34.4627 26.6896C34.6269 26.4356 34.806 26.1965 34.9851 25.9574L39.9701 28.5128C39.7761 28.7369 39.5821 28.976 39.3881 29.2151ZM41.2239 27.108L36.1642 24.5228C36.3582 24.3135 36.5373 24.1043 36.7313 23.9101L41.806 26.5103C41.6119 26.7045 41.4179 26.8988 41.2239 27.108ZM43.1642 25.1653L38.1194 22.5801C38.3582 22.3709 38.597 22.1616 38.8507 21.9524L43.8657 24.5228C43.6269 24.732 43.403 24.9412 43.1642 25.1653ZM6.20895 45.3245V76.8709C6.34328 83.8944 11.6269 86.2705 16.5224 88.1235L20.3433 89.2144C26.0896 89.9616 31.6716 91.3962 39.2537 99.4659C39.2687 99.4509 39.2687 99.436 39.2836 99.421C39.2985 99.436 39.2985 99.4509 39.3134 99.4659C46.8955 91.4112 52.4776 89.9616 58.2239 89.2144L62.0448 88.1235C66.9403 86.2705 72.2239 83.8944 72.3582 76.8709V45.3245H6.20895ZM31.1791 54.5H29.5522V83.4611V86.7935V86.8234L23.9254 85.075L17.597 66.9631V68.0092V77.364C18.8657 77.8721 19.6567 78.3503 19.6567 78.3503L20.1045 83.9841C20.1045 83.9841 16.0597 82.2506 14.4328 81.8322C12.4179 81.3241 9.62686 81.2046 9.62686 81.2046L9.22388 76.1237C9.22388 76.1237 10.3881 76.1237 11.7313 76.1984V68.0092V54.2011H10.0746V49.2099H11.7463H17.597V49.2248L23.7015 66.7091V54.5H22V49.5088H23.7015H29.5522H31.1791V54.5ZM50.3134 52.7366V54.5149V57.4439H46.3582L45.1045 54.5149H41.2537V63.7203H44.2537L45.0448 61.5086H48.3284V63.7203V66.0515V66.201V68.6966V70.7588H45.0448L44.3134 68.6966H41.2537V76.2582V83.1771V84.8807C42.4776 85.4187 43.2388 85.8969 43.2388 85.8969V90.9031C43.2388 90.9031 39.3433 89.0799 37.7612 88.6017C35.806 88.004 33.0299 87.7051 33.0299 87.7051V83.1771C33.0299 83.1771 34.1343 83.2518 35.4179 83.4013V83.1771V78.7837V76.2582V68.6966V63.7054V54.5H33.3284V49.5088H35.4179H41.2687H50.3433V52.7366H50.3134ZM68.9851 76.3478V80.7861V81.2195C68.9851 81.2195 64.3731 81.623 60.0746 83.3565C57.8358 84.2531 53.2388 86.8682 51.3881 87.9442V82.2357C52.0597 81.8023 52.9104 81.3092 53.9104 80.7861V77.9767V72.4027V54.5149L52.209 53.7379V49.5088H53.9104H56.7612H56.9104H59.7612H61.4627V53.7379L59.7612 54.5149V72.4027V77.9767V78.4549C61.1642 78.0664 62.8358 77.6629 64.3731 77.3192V70.2059H68.9851V76.3478Z" fill="white"/>
</svg>
