<?xml version="1.0" encoding="utf-8"?>
<!-- Generator: Adobe Illustrator 27.0.0, SVG Export Plug-In . SVG Version: 6.00 Build 0)  -->
<svg version="1.1" id="Layer_1" xmlns="http://www.w3.org/2000/svg" xmlns:xlink="http://www.w3.org/1999/xlink" x="0px" y="0px"
	 viewBox="0 0 56 74" style="enable-background:new 0 0 56 74;" xml:space="preserve">
<style type="text/css">
	.st0{clip-path:url(#SVGID_00000112600825293133891560000011723560993434876842_);}
	.st1{fill:#1D3767;}
	.st2{fill:#FFFFFF;}
	.st3{fill:#B52025;}
</style>
<g>
	<defs>
		<rect id="SVGID_1_" x="2.1502035" y="0.7235365" width="53" height="72.2125015"/>
	</defs>
	<clipPath id="SVGID_00000067211011327044725090000012857743624187234951_">
		<use xlink:href="#SVGID_1_"  style="overflow:visible;"/>
	</clipPath>
	<g style="clip-path:url(#SVGID_00000067211011327044725090000012857743624187234951_);">
		<path class="st1" d="M28.245203,20.0785351l-3.2629986-1.6731987c0.1086998-0.1683006,0.2273998-0.3267002,0.3459988-0.4851017
			l3.3026009,1.6930008C28.5023041,19.7617359,28.3738041,19.9201355,28.245203,20.0785351z M29.8471031,18.2766361
			l-3.3619995-1.7226009c-0.1285,0.1287003-0.257,0.2672997-0.3757,0.405901l3.3519993,1.7126999
			C29.590004,18.5439358,29.718504,18.4152355,29.8471031,18.2766361z M31.2116032,16.9698353l-3.3223991-1.702899
			c-0.1582012,0.1287003-0.3164005,0.2673998-0.4845009,0.4159002l3.3422012,1.7126999
			C30.9051037,17.247036,31.0534039,17.1084347,31.2116032,16.9698353z M52.5006027,9.7327366v43.5214996
			c-0.0890007,5.0690002-3.9848976,6.7817001-7.5840988,8.1083984l-2.8181,0.7919998
			c-4.2221985,0.5445023-8.3258018,1.5741005-13.9025993,7.3954964c-0.009901-0.0098953-0.0198002-0.0197983-0.0198002-0.0297012
			c-0.009901,0.009903-0.0198002,0.0198059-0.0198002,0.0297012c-5.5768013-5.8114967-9.6804008-6.8509941-13.9026003-7.3954964
			l-2.8180904-0.7919998c-3.5992503-1.3365974-7.4951501-3.0492973-7.5841398-8.1083984V9.7327366
			c6.6447802,5.2669001,16.2955303,4.4055996,22.0009308-2.1384602c0.9393997-1.0791202,1.7105999-2.2473598,2.3237-3.4749899
			c0.6131001,1.2276301,1.3843002,2.3958697,2.3237,3.4749899C36.215004,14.1383362,45.8657036,14.9996367,52.5006027,9.7327366z
			 M40.407505,26.5829353l2.0369987-1.6236h-2.5512009l-0.8107986-2.3067989l-0.8108025,2.3067989h-2.4620972l1.967701,1.6137009
			l-0.8108025,2.4057999l2.096302-1.5146999l2.1060982,1.6037998L40.407505,26.5829353z M35.7503052,17.4252357l0.9888,0.801899
			l0.9888,0.8019009l-0.4054031,1.198l-0.4054985,1.1979008l2.0962982-1.5146999l2.1062012,1.6037998l-0.7712975-2.4850006
			l2.0368996-1.6236h-2.5511017l-0.8107986-2.3067989l-0.8108025,2.3067989h-2.4620972V17.4252357z M21.9070034,27.8898354
			c0.3955002-1.098999,1.6413994-4.3561001,3.4608002-7.3360996l-1.2756004-0.6534004
			c0.0790997-0.1583996,0.1681004-0.3167992,0.2472-0.4752007l3.1741009,1.6236
			c-0.0988998,0.1485004-0.1879005,0.2970009-0.2769012,0.4554005l-1.2062988-0.6236992
			c-1.8885994,2.9106998-3.4015007,6.355999-3.8168011,7.3262005c1.1965008,0.1484985,7.7028008,0.6533985,11.3118992-4.9204006
			c2.9566002-4.5641003,1.1174011-9.5240993,0.6823006-10.5338993c-0.5438004,0.3959999-1.6413994,1.2177-2.9070988,2.3165998
			l1.3052998,0.6633997c-0.1483994,0.1188002-0.2966995,0.2475004-0.4449997,0.3761997l-3.2334003-1.6533995
			c0.1681004-0.1188002,0.3362007-0.2375994,0.4944-0.3464994l1.0580006,0.5444994
			c1.4337997-1.1681995,2.6301994-1.8116999,3.2828979-2.1185999c-1.5425987-0.1287003-7.594099-0.2870998-10.6988983,4.7421989
			C20.0381031,22.1872349,21.4521046,26.7116356,21.9070034,27.8898354z M13.9767036,17.4252357l0.9889002,0.801899
			l0.9888,0.8019009l-0.4055004,1.198l-0.4053993,1.1979008l2.1061983-1.5146999l2.106102,1.6037998l-0.7811012-2.4850006
			l2.0368996-1.6236H18.060503l-0.8108006-2.3067989l-0.8107986,2.3067989h-2.4622002V17.4252357z M13.9767036,24.9593353
			l1.9678001,1.6137009l-0.8108997,2.4057999l2.1061993-1.5146999l2.1062012,1.6037998l-0.7812004-2.4850006l2.0368996-1.6236
			h-2.5510998l-0.8108006-2.3067989l-0.8108006,2.3067989H13.9767036z M5.8289833,17.4252357l0.9888101,0.801899
			l0.9888101,0.8019009l-0.4054103,1.198l-0.4054198,1.1979008l2.0962706-1.4949017l2.1061602,1.6038017l-0.7712708-2.4850006
			l2.0369701-1.6236H9.9028635l-0.8108196-2.3067989l-0.8108206,2.3067989H5.8289833z M5.8982034,24.9593353l1.96772,1.6137009
			l-0.8108201,2.4057999l2.0962706-1.5146999l2.1061602,1.6037998l-0.7712708-2.4850006l2.0369406-1.6236H9.9720831
			l-0.8108196-2.3067989l-0.8108196,2.3067989H5.8982034z M50.097805,30.7510357H6.2640634v20.8994007
			c0.0889897,4.6531029,3.5893598,6.2273026,6.8326402,7.4549026l2.5313997,0.7226982
			c3.8069,0.4949989,7.5050011,1.4454994,12.528101,6.7915993c0.0098991-0.009903,0.0098991-0.0198059,0.0198002-0.0297012
			c0.0098991,0.0098953,0.0098991,0.0197983,0.0198002,0.0297012c5.023098-5.3362007,8.721199-6.2966003,12.5280991-6.7915993
			l2.5313988-0.7226982c3.2433014-1.2276001,6.7436028-2.8017998,6.8325996-7.4549026L50.097805,30.7510357z M43.8980026,17.4252357
			l0.9888,0.801899l0.9888,0.8019009l-0.4053993,1.198l-0.4053993,1.1979008l2.1062012-1.5146999l2.1060982,1.6037998
			l-0.7811012-2.4850006l2.0369034-1.6236h-2.5511017l-0.8107986-2.3067989l-0.8109016,2.3067989h-2.462101V17.4252357z
			 M43.8980026,24.9593353l1.967701,1.6137009l-0.8107986,2.4057999l2.1061974-1.5146999l2.106102,1.6037998l-0.7811012-2.4850006
			l2.0368996-1.6236h-2.5510979l-0.8108025-2.3067989l-0.8107986,2.3067989H43.8980026z"/>
		<path class="st2" d="M30.460104,4.4559364c-0.9987011-1.15833-1.8094997-2.4156699-2.4720001-3.7323999
			c-0.6625004,1.31673-1.4733009,2.57407-2.4720001,3.7323999c-6.2394009,7.2370996-14.6244602,9.6626997-24.0280094,1.1682301
			v49.3230743c0.0988799,5.6035995,4.350749,7.4944992,8.276309,8.9696999l3.0752001,0.8711929
			c4.6077995,0.5940018,9.0771999,1.7424011,15.1485004,8.1380005c6.0712986-6.3955994,10.5407009-7.5439987,15.1485004-8.1380005
			l3.0751991-0.8711929c3.925499-1.4752007,8.1773987-3.3661003,8.2762985-8.9696999V5.6241665
			C45.0845032,14.1186361,36.6995049,11.6930361,30.460104,4.4559364z M52.5006027,53.2543373
			c-0.0890007,5.0689011-3.9848976,6.7817001-7.584198,8.1082993l-2.8180008,0.7919998
			c-4.2221985,0.5445023-8.3258018,1.5741997-13.9027004,7.3954964c-0.0098-0.0098953-0.0196991-0.0197983-0.0196991-0.0297012
			c-0.009901,0.009903-0.0198002,0.0198059-0.0198002,0.0297012c-5.5769005-5.8113937-9.6804008-6.8509941-13.9026003-7.3954964
			l-2.81812-0.7919998c-3.5992608-1.3364983-7.4951506-3.0492973-7.5841408-8.1082993V9.7327766
			c6.6447706,5.2669601,16.2955608,4.4056597,22.0009613-2.1384602c0.9392986-1.0791302,1.7105999-2.2473602,2.3237-3.4749899
			c0.612999,1.2276297,1.3843002,2.3958597,2.3237,3.4749899c5.7152996,6.5441198,15.3561001,7.4054203,22.0008984,2.1384602
			V53.2543373z M47.1610031,15.1185369l0.8109016,2.3066988h2.5610008l-2.0370026,1.6236992l0.7812004,2.4849014
			l-2.1161003-1.6038017l-2.1060982,1.5147018l0.8107986-2.4057007l-1.967701-1.6138h2.462101L47.1610031,15.1185369z
			 M46.3601036,24.9593353h-2.462101l1.967701,1.6138l-0.8107986,2.4057007l2.1060982-1.5146999l2.1062012,1.6037998
			l-0.7812004-2.4848995l2.0369987-1.6237011h-2.5510979l-0.8109016-2.3066998L46.3601036,24.9593353z M38.2717018,24.9593353
			h-2.4621964l1.9678001,1.6138l-0.8109016,2.4057007l2.0962982-1.5146999l2.1062012,1.6037998l-0.7812004-2.4848995
			l2.0370026-1.6237011h-2.5512009l-0.8108025-2.3066998L38.2717018,24.9593353z M38.2123032,17.4252357h-2.462101l1.9776001,1.6138
			l-0.8107986,2.4057007l2.0962982-1.5147018l2.106102,1.6038017l-0.7711983-2.4849014l2.0368996-1.6236992h-2.5511017
			l-0.8107986-2.3066988L38.2123032,17.4252357z M17.2497025,15.1185369l0.8108006,2.3066988h2.5510998l-2.0368996,1.6236992
			l0.7811012,2.4849014l-2.106102-1.6038017l-2.1061983,1.5147018l0.8107996-2.4057007l-1.9677-1.6138h2.4621L17.2497025,15.1185369
			z M16.4388027,24.9593353h-2.4620991l1.9677,1.6138l-0.8107996,2.4057007l2.1061993-1.5146999l2.1061001,1.6037998
			l-0.7810993-2.4848995l2.0368996-1.6237011h-2.5510998l-0.8108006-2.3066998L16.4388027,24.9593353z M8.3504038,24.9593353
			H5.8981733l1.96772,1.6138l-0.8108201,2.4057007l2.0962701-1.5146999l2.1061506,1.6037998l-0.7712698-2.4848995
			l2.0369797-1.6237011H9.9720535l-0.8108301-2.3066998L8.3504038,24.9593353z M8.2910833,17.4252357H5.8289533l1.96772,1.6138
			l-0.8108201,2.4057007l2.1061602-1.5147018l2.1061506,1.6038017l-0.7712603-2.4849014l2.0368996-1.6236992H9.9028339
			l-0.8108206-2.3066988L8.2910833,17.4252357z M34.2176056,12.7622366c-0.5439034,0.3959999-1.6414032,1.2177-2.9071026,2.3167
			l1.3052006,0.6632996c-0.1483002,0.1188002-0.2966003,0.2475004-0.4449997,0.3762007l-3.2334003-1.6533003
			c0.1681004-0.1188002,0.3362007-0.2376003,0.4944-0.3465004l1.0580997,0.5445004
			c1.4337006-1.1682997,2.6301994-1.8118,3.2827988-2.1187c-1.5424995-0.1287003-7.593998-0.2870998-10.6988983,4.7421999
			c-3.0356007,4.9105988-1.6215992,9.4349995-1.1667995,10.6131001c0.3955994-1.0989017,1.6414986-4.3561001,3.4608994-7.3361015
			l-1.2756004-0.6533985c0.0790997-0.1584015,0.1681004-0.3168011,0.2472-0.4752007l3.1741009,1.6236
			c-0.0988998,0.1485004-0.1879005,0.296999-0.2769012,0.4554005l-1.2062988-0.6237011
			c-1.8887005,2.9106998-3.4015007,6.3560009-3.8168011,7.3262005c1.1964016,0.1485004,7.7028008,0.6534004,11.3118992-4.9204006
			C36.4918022,18.7420349,34.6526031,13.7819366,34.2176056,12.7622366z M28.245203,20.0785351l-3.2630997-1.6730995
			c0.1088009-0.1683006,0.2273998-0.3267002,0.3460999-0.4850998l3.3026009,1.6928997
			C28.5023041,19.7617359,28.373703,19.9201355,28.245203,20.0785351z M29.4614029,18.6826363l-3.3519993-1.712801
			c0.1285-0.1385994,0.2472-0.2771988,0.3757-0.405899l3.3619003,1.7227001
			C29.718504,18.4153347,29.590004,18.544035,29.4614029,18.6826363z M30.7469044,17.3955364l-3.3422012-1.7126999
			c0.1582012-0.1386003,0.3164005-0.2771997,0.4845009-0.4158001l3.3223991,1.7027988
			C31.0534039,17.1084347,30.9051037,17.247036,30.7469044,17.3955364z M6.2640233,30.7510357v20.8994007
			c0.0889997,4.6532021,3.5893703,6.2273026,6.8326802,7.4549026l2.5313005,0.7227974
			c3.8069,0.4950027,7.5051003,1.4454002,12.5282001,6.7915001c0.0098991-0.009903,0.0098991-0.0198059,0.0198002-0.0297012
			c0.0098991,0.0098953,0.0098991,0.0197983,0.0196991,0.0297012c5.0231991-5.3362007,8.7213001-6.2964973,12.5282001-6.7915001
			l2.5313988-0.7227974c3.2432022-1.2276001,6.7436028-2.8017006,6.8325996-7.4549026V30.7510357H6.2640233z M22.8067036,36.8298378
			h-1.0778008v19.1866989v2.2077026v0.0197983l-3.7276993-1.1582985l-4.1926003-11.9991035v0.6930008v6.1976013
			c0.8405008,0.3366013,1.3646002,0.6534004,1.3646002,0.6534004l0.2966003,3.732399c0,0-2.6796999-1.1484985-3.7574596-1.4257011
			c-1.3348808-0.3365974-3.1839504-0.4157982-3.1839504-0.4157982l-0.2669802-3.3661003c0,0,0.7712698,0,1.6611996,0.0494995
			v-5.4253006v-9.1478996h-1.09758v-3.3065987h1.10746h3.8761101v0.0098991l4.044199,11.5833015v-8.088501h-1.1271992v-3.3067017
			h1.1271992h3.8761005h1.0778008V36.8298378z M35.4832039,35.6615372v1.1781006v1.9404984h-2.6203003l-0.8306007-1.9404984
			h-2.5510998v6.0985985h1.9875011l0.5240993-1.4651985h2.1752987v1.4651985v1.5445023v0.098999v1.6533012v1.3661995h-2.1752987
			l-0.4846001-1.3661995h-2.0270004v5.0094986v4.5838013v1.1287003c0.8108006,0.3563995,1.3150997,0.6731987,1.3150997,0.6731987
			v3.3166008c0,0-2.5807991-1.2078018-3.6288986-1.5247002c-1.2954006-0.3959999-3.1345005-0.5940018-3.1345005-0.5940018
			v-2.9997978c0,0,0.7317009,0.0495987,1.5820999,0.1485977v-0.1485977v-2.9106026v-1.6731987v-5.0094986v-3.3067017v-6.0984993
			h-1.3843994v-3.3067017h1.3843994h3.8761005h6.011898v2.138401H35.4832039z M47.8532028,51.303936v2.940403v0.2870979
			c0,0-3.0554008,0.2672997-5.9031982,1.415802c-1.4832001,0.593998-4.5287018,2.3264999-5.7548027,3.039299v-3.7819023
			c0.4449005-0.2870979,1.0086021-0.6138,1.6711006-0.9602966v-1.8612022v-3.6927986V36.8396378l-1.1273003-0.514801v-2.8017006
			h1.1273003h1.8885994h0.0989037h1.8885994h1.1271973v2.8017006l-1.1271973,0.514801v11.8507004v3.6927986v0.3167992
			c0.9295006-0.2573967,2.0368996-0.5247002,3.055397-0.7523994v-4.7126007h3.0554008V51.303936z"/>
		<path class="st3" d="M35.4832039,33.5231361v2.138401v1.1781998v1.9403992h-2.6203003l-0.8306007-1.9403992h-2.5510998v6.0984993
			h1.9875011l0.5240002-1.4651985h2.1753979v1.4651985v1.5445023v0.098999v1.6533012v1.3661995h-2.1753979l-0.4845009-1.3661995
			h-2.0270004v5.0094986v4.5839005v1.1286011c0.8108006,0.3563995,1.3150997,0.6731987,1.3150997,0.6731987v3.3166008
			c0,0-2.5807991-1.2078018-3.6288986-1.524601c-1.2954006-0.3960991-3.1345005-0.594101-3.1345005-0.594101v-2.9996986
			c0,0,0.7317009,0.0494995,1.5820007,0.1484985v-0.1484985v-2.9107018v-1.6731987v-5.0094986v-3.3067017v-6.0984993h-1.3843002
			v-3.3067017h1.3843002h3.8761997H35.4832039z M21.7289028,33.5231361h-3.8761005h-1.1271992v3.3067017h1.1271992v8.088501
			l-4.044199-11.5833015v-0.0098991H9.9324932H8.8250237v3.3066978h1.1074696v9.1478004v5.4253006
			c-0.8899298-0.0494995-1.6611996-0.0494995-1.6611996-0.0494995l0.2669802,3.3661003c0,0,1.8490696,0.0692978,3.18396,0.4157982
			c1.0777702,0.2772026,3.7574701,1.4257011,3.7574701,1.4257011l-0.2967005-3.732399c0,0-0.5240002-0.3167992-1.3645-0.6534004
			v-6.1976013v-0.6930008l4.1825991,11.9991035l3.7278004,1.1582985v-0.0197983v-2.2077026V36.8298378h1.0778008v-3.3067017
			H21.7289028z M44.797802,47.2349358v4.7126007c-1.0184975,0.2276993-2.1357994,0.4950027-3.055397,0.7523994v-0.3167992
			v-3.6927986V36.8397369l1.1271973-0.5149002v-2.8017006h-1.1271973h-1.8885994h-0.0989037h-1.8885994h-1.1273003v2.8017006
			l1.1273003,0.5149002v11.8506012v3.6927986v1.8612022c-0.6624985,0.3365974-1.2162971,0.6731987-1.6711006,0.9602966v3.7819023
			c1.2261009-0.7028999,4.2716026-2.4354019,5.7548027-3.039299c2.8477974-1.1485023,5.9031982-1.415802,5.9031982-1.415802
			V54.244339v-2.940403v-4.0690002H44.797802z"/>
	</g>
</g>
</svg>
