<?xml version="1.0" encoding="utf-8"?>
<!-- Generator: Adobe Illustrator 27.0.0, SVG Export Plug-In . SVG Version: 6.00 Build 0)  -->
<svg version="1.1" id="Layer_1" xmlns="http://www.w3.org/2000/svg" xmlns:xlink="http://www.w3.org/1999/xlink" x="0px" y="0px"
	 viewBox="0 0 133 85" style="enable-background:new 0 0 133 85;" xml:space="preserve">
<style type="text/css">
	.st0{clip-path:url(#SVGID_00000160168124750031581360000004098972701084619702_);}
	.st1{fill:#FFFFFF;}
	.st2{fill:none;stroke:#000000;stroke-width:0.499517;}
	.st3{fill:#E31837;}
	.st4{fill:none;stroke:#E31837;stroke-width:0.267239;}
</style>
<g>
	<defs>
		<rect id="SVGID_1_" x="-0.1808511" y="0.4021864" width="133" height="84.8552017"/>
	</defs>
	<clipPath id="SVGID_00000021098583493307350690000014571524388390321312_">
		<use xlink:href="#SVGID_1_"  style="overflow:visible;"/>
	</clipPath>
	<g style="clip-path:url(#SVGID_00000021098583493307350690000014571524388390321312_);">
		<path d="M127.9961472,37.8844872c-1.125-1.0130005-2.0449982-1.5719986-2.3349991-1.8199997
			c-1.663002-1.3283005-0.2700043-0.2699013-1.8650055-1.3031006c-1.1469955-0.7187004-1.461998-1.3030014-2.6289978-1.9544983
			c-2.0920029-1.1938038-2.3150024-1.5301037-3.9990005-3.5519028c-1.461998-2.6774998-3.7299957-3.0599995-6.0059967-3.5769997
			c-2.201004-0.4960003-3.776001-2.2488003-4.1590042-2.8541012c-1.1669998-1.9125004-3.0789948-2.8330994-4.0909958-3.3962994
			c-3.1248016-1.7108002-6.7201996-1.4165001-9.5344009-3.9343996c-4.2423019-3.0137997-5.3764038-2.4504995-9.8287048-2.585
			c-2.469696-0.0672998-5.6702957-1.6434994-6.7203979-2.5178299c-0.8778992-0.7439899-1.9111023-1.2147694-2.8099976-1.5047998
			c-3.1460037-0.9667697-5.2922974,0.6977606-9.7025986-1.4375496c-1.2810974-0.6305003-2.4487991-1.4837804-3.7089005-2.2277803
			c-0.4199982-0.3236499-0.8399963-0.5464301-2.1000977-0.8154497c-2.5201988-0.4959903-4.6203003-0.1807404-7.1404991,0.0672598
			c-1.6801033,0.1092801-2.1001015-0.58847-3.3602028-1.23999c-1.2600975-0.6052899-2.5201988-1.0550401-3.7803001-1.32406
			c-2.0580978-0.36149-4.2421989-0.11349-6.468399,0.3362699c-4.4103012,0.8785002-8.4004993-1.3492779-12.6847992-0.9457558
			c-0.7140999,0.0672539-2.1002007,0.966776-2.6042004,1.979776c-0.6299992,1.3492799-0.6299992,2.1353102-0.5375996,3.4845901
			c0.1348,1.8200498,0.3367996,1.9545598,0.6971989,3.1272902c0.7645016,2.5640297,1.1677017,3.9595299,1.776701,5.67453
			c0.7182999,2.0007982,0.6973,4.4555979-1.0121994,5.254199c-0.8107014,0.3824997-2.1800003,0.3824997-2.9444008-0.2026005
			c-1.1928997-0.9204998-1.8439007-2.1814995-3.1921997-2.4505997c-1.7978001-0.3598003-3.9567003,1.483799-5.8804007,2.0007992
			c-1.91115,0.4960003-2.1589699-0.5380001-3.4820499-1.1474991c-0.8778596-0.4048004-1.7305198,0.1798992-2.2261496,0.4708004
			c-0.89886,0.4959984-1.1004701,1.5299988-1.3272901,2.6313c-0.1570902,0.8785-0.2469702,1.6854992-0.02247,2.6522999
			c0.3146,1.3955002,0.78545,2.2278004,0.8106499,3.1945992c0.08989,2.4295006-0.3146,4.2454014-1.3020802,5.506403
			c-0.6300397,0.8111992-1.4826999,3.0809975-1.7305198,3.9132996c-0.8778502,2.7868004-0.7854501,2.3159981-1.2138801,4.9179001
			c-0.224712,1.3283005-0.1797689,2.8120995-0.2923359,4.0477982c-0.022472,0.2249031,0.15709,3.0349007,0.2923359,3.8922997
			c0.33687,2.0932999,0.71825,3.4174004,1.16768,5.1702003c0.6300399,2.5430031,0.89886,4.1151009,0.83166,6.052803
			c-0.06721,2.0007973-1.3272902,3.8922958-0.13483,5.296196c0.7434499,0.8785019,2.6965699,1.6645966,4.2842798,0.9667969
			c1.6171098-0.7187958,2.78478-1.5509949,4.0449004-1.7317963c2.3142996-0.3148041,3.8221998,0.6725998,4.8302994,0.5633011
			c0.8987999-0.1127014,2.4487-0.9878006,3.1921997-1.0550995c0.5838013-0.0449066,1.8649006-0.1126022,2.3143005,0.2248993
			c0.7182999,0.5379944,1.1466999,1.1264954,1.0333004,2.9465942c0,0.0223999-0.4284,1.9545059-0.4284,1.9797058
			c-0.7434998,2.4043961-1.5289001,4.6657944-1.9111004,6.3050995c-0.4044991,1.7317963-2.2933998,5.5064011,1.5499001,7.0195999
			c1.6170998,0.6514969,3.326601,0.5169983,5.4603004-0.0224991c1.0795002-0.2699051,1.5289001-0.3148041,2.5411987-0.4960022
			c0-0.0672989,1.5037003-0.0449982,1.5037003-0.1127014l1.348299-0.0671997
			c2.3815002-0.2698975,2.9444008-0.1127014,5.0403023,0.1799011c1.9782982,0.2472,3.8642998,0.6305008,5.838398,0.4048004
			c0.9871025-0.1127014,1.9531021-0.2926025,2.898201-0.6053009c2.7428017-0.8785019,4.0238991-2.0681,7.3085022-2.5177994
			c2.7427979-0.3824997,2.7427979,0.0898972,5.1662979-0.0224991c2.5159988-0.1127014,3.9104996-1.1938019,4.9562988-1.7779999
			c1.2811012-0.6977997,1.6170998-0.7649994,2.469799-1.2148056c3.0998001-1.6644974,6.7624969-1.4627991,10.2486954-2.3159943
			c2.4487-0.6053009,3.4148026-1.7528,6.1744003-2.4968033c1.100502-0.2926025,2.2933044-0.2698975,3.4610062-0.4288025
			c0.8988953-0.1348953,2.4697952-0.9204941,3.3475952-1.7317963c1.5037003-1.3955002,1.3483047-1.4626999,2.5159988-2.1141968
			c1.9531021-1.1013031,4.179306-1.080307,6.1744003-2.0008011c1.843605-0.853302,3.729599-1.5721054,5.1666031-3.0348969
			c2.1119995-2.1353035,5.4599991-2.7448006,8.1900024-3.732502c1.6169968-0.584301,3.7509995-1.6436005,5.5449982-4.707798
			c1.7509995-3.0138016,3.3009949-3.4636002,6.3839951-4.3715019c2.0670013-0.6305008,2.965004-1.0550003,4.5780106-2.5639992
			c1.4370041-1.3493004,1.9540024-2.2278023,2.6090012-3.1693993c0.7429962-1.0802002,2.1799927-2.879303,0.651001-4.2454033
			c-0.6719971-0.6051979-1.3690033-1.7106972-2.8099976-2.8329964"/>
		<path class="st1" d="M125.9001465,40.4904861c-1.7980042-1.2819977-1.9530029-1.5047989-2.8980026-2.1352997
			c-2.4280014-1.6181984-2.897995-1.9796982-4.0909958-3.3499985c-1.1679993-1.3283005-1.4830017-1.7780991-2.8100052-2.4967995
			c-0.4959946-0.2926025-3.8429947-1.437603-3.2340012-1.3283024c-3.0579987-0.5380001-3.1669998-1.1937008-4.3689957-2.316
			c-1.012001-1.462801-2.201004-3.215601-3.2340012-3.8923016c0.4049988,0.2471008-1.8649979-1.2357998-1.8440018-1.1938
			c-1.7299957-0.605299-2.3349991-0.4497986-4.5360947-0.5380001c0.0671997,0-2.3815002-0.3370991-3.0116043-0.6304989
			c-1.1257019-0.4960003-1.7304993-1.0802994-2.4948959-1.6646004c-1.7095032-1.2819996-1.2349014-0.9876995-2.9234009-2.2276993
			c-2.2934036-1.6646004-2.5831985-1.2609997-5.5024033-1.5510998c-2.4697952-0.2471008-4.2423019-0.832201-6.1744003-2.2277994
			c-3.4399948-2.4967003-6.8043976-1.6182003-8.9046021-1.9335003c-3.0325928-0.4498005-5.1662979-1.6855001-6.3003922-2.4042997
			c-2.4487991-1.5510502-1.8859024-0.8322802-4.4943008-2.0470505c-3.125-1.4837799-6.0484009,0.9877901-9.7025986-0.0449696
			c-1.9322014-0.5380301-2.6504021-1.5510402-3.8894997-2.0008001c-3.7382011-1.0928702-4.9983025-0.5044003-8.0225029-0.4623704
			c-3.6122971,0-6.8464985-0.9667697-10.290699-0.9247398c-0.9660988,0-1.7094994,0.8112502-1.5709,1.9125299
			c0,0,0.0449009,1.3282599,0.0449009,1.3492799c0.1798,1.1012802,0.5839005,2.2698202,0.919899,3.4846201
			c0.4284,1.4836998,0.651001,1.9797001,1.2601013,4.3294001c0.224699,1.8872986,0,2.4042988-0.134901,3.2155991
			c-0.1124992,0.6515007-0.5375996,1.9335003-0.8526001,2.4043007c-0.3596001,0.5380001-0.8316994,0.7439995-1.4617004,1.1264992
			c-1.0794983,0.6515007-2.2009983,0.9458008-3.3685989,0.9204998c-1.2138996-0.044899-0.898901-0.044899-2.8099995-0.7439995
			c-0.6973-0.2698002-2.1338005-1.0802002-3.5744009-0.4706993c-2.7637997,1.168499-3.0789003,0.2025986-4.5783997,0.3147984
			c-0.4493999,0.022501-0.8987999,0.2472-1.32724,0.4498005c-0.6972399,0.2924995-1.01227,0.7439003-1.4616899,1.6645012
			c-0.26966,0.5632-0.4704404,1.483799-0.3595505,2.316c-0.1570897,0,0.26966,1.3030987,0.26966,1.3492985
			c0.3368607,1.7779999,0.4284306,3.1693001-0.2469797,4.7498016c-0.6510401,1.4838028-0.8316503,2.0008011-1.6633101,3.2155991
			c-0.8106499,1.1685028-2.22614,4.5396004-2.33535,7.6501007c0.1125698-0.1126976-0.02247,3.6863022,0.4284301,5.9267006
			c0.4956298,2.4715996,1.2138801,2.6775017,1.3692899,6.7673988c0.0672002,1.5510025-0.08989,2.9003029-0.13483,4.2874031
			c-0.02247,0.899498,0.26966,2.1605988,1.3944902,1.9797974c1.6171098-0.2472,3.43998-1.1474991,4.7042794-1.1936989
			c0.6301003-0.0224991,1.7095003,0.1799011,2.1590004,0.3148003c2.5621004,0.8995018,1.7095003,0.2248993,5.7123995-0.4707985
			c1.3271999-0.2471008,3.1669998,0.0449982,3.8894005,0.4707985c2.3605995,1.3703003,2.1590004,4.3714981,1.4827003,7.355896
			c-0.1126003,0.4707031-0.6972008,3.5979996-0.8317013,4.0688019c-0.4043999,1.5720978-0.359499,1.6644974-0.5627995,3.3500977
			c-0.0898991,0.811203-0.044899,1.4375,0.404501,2.1815033c0.3822002,0.6053009,0.8106995,1.0339966,1.3944988,1.0339966
			c2.6084003,0.0672989,4.0449009,0,6.7204018-0.4707031c3.4610977-0.6304932,5.2084007-0.6304932,7.6024971-0.4047928
			c2.4488029,0.2248993,5.9224014,0.157196,7.350502-0.3824997c1.3021011-0.4708023,3.0326004-1.4838028,4.4103012-1.7780075
			c4.5362968-0.9667969,4.7042999-0.5170975,8.4005966-0.987793c2.9444008-0.3824997,4.4522972-1.8663025,5.9643974-2.6523056
			c2.0664978-1.1012955,3.8894043-1.4837952,6.2584-1.4837952c1.3945007,0,3.3937988-0.4708023,4.3683014-0.9206009
			c3.9104004-1.7779999,2.4487-1.664505,7.8964996-2.6774979c2.7638016-0.5170059,4.7462997-2.7196045,6.468399-3.6653061
			c1.100502-0.6304932,2.0664978-1.1264954,3.3013992-1.5047951c1.6632996-0.4959984,3.5283051-0.7649994,5.1244049-1.3031006
			c2.5616989-0.899498,3.3476944-1.7779999,4.7466965-3.0347977c1.1669998-1.0550003,1.5490036-1.0340004,2.8519974-1.8452988
			c1.3270035-0.8322029,3.2590027-1.4375,3.9980011-1.6645012c1.6850052-0.5170021,4.1590042-3.3501015,6.4690018-5.6744995
			c2.7170029-2.7868004,5.25-2.3161011,8.2740021-3.9344025c1.8439941-0.9666977,3.0330124-1.6182976,2.1800003-3.3709984
			c-0.3370056-0.6977997-1.2600021-1.5511017-1.9990005-2.0681"/>
		<path d="M64.6178436,54.3616867c-5.7123947-4.4556007-4.091095-8.4487-1.6843948-10.2981987l0.7182999,0.7859993
			l-1.2139015,1.2820015l0.089901,4.6236992h16.4650955l2.1127014-2.026001v-5.0439987h-1.2601013l-5.7122955-6.1369019
			c10.9626999-2.337101,16.3389969,2.4505005,19.5732956,7.7341995h4.2842026l2.1794968-2.1142998V30.9783859h-4.5777969
			l-2.7427979,1.6856003c-9.6606064-4.7077999-17.2210999-4.2034016-24.781601-1.7234001l-1.2349014-1.2610016l6.9723969-4.1612988
			l4.2003021-0.022501l2.066597-1.9545994v-4.1361008H63.2711487l-1.7766991,1.8201008v2.8330002l-15.7509995,9.0373001v-6.9356003
			l2.5411987-2.5639992v-4.1824017H31.7775497l-2.2472,2.6313v3.3039017h2.6965981v17.8642006h-0.8316994
			c0,0-2.2008991,2.4967995-2.0916996,2.5431023v4.6236992H46.692749l1.7304993-1.6183014v-5.5485001h-2.5621986v-1.4165001
			l9.5765991-5.5064011l0.8106995,0.8323021c-2.1338005,1.5047989-3.8223,2.925499-5.0823975,5.1701012
			c-1.8859024,3.1273003-2.5621033,7.4819984-1.4616013,10.9707985c0.7182007,2.3370018,1.6170998,3.7536011,3.1921997,5.3802986
			c1.5037003,1.5510025,2.7846985,2.4505005,5.2503014,3.6189995c2.024498,1.0130005,6.7624969,2.4505959,10.4586945,2.8330956
			c3.5744019,0.2699051,8.0644989,0.2248993,11.0046997-0.157196c3.2341995-0.3371048,6.5944977-1.5047989,8.6106033-2.3370972
			c1.6170959-0.7859993,3.4147949-1.5047989,4.7882996-2.5849991c3.4609985-2.4968033,7.1399994-6.2630005,7.1819992-10.9708023
			h-6.4679031c-2.0245972,7.2298012-21.5895004,10.5084-29.4440002,4.9179001"/>
		<path class="st2" d="M64.6178436,54.3616867c-5.7123947-4.4556007-4.091095-8.4487-1.6843948-10.2981987l0.7182999,0.7859993
			l-1.2139015,1.2820015l0.089901,4.6236992h16.4650955l2.1127014-2.026001v-5.0439987h-1.2601013l-5.7122955-6.1369019
			c10.9626999-2.337101,16.3389969,2.4505005,19.5732956,7.7341995h4.2842026l2.1794968-2.1142998V30.9783859h-4.5777969
			l-2.7427979,1.6856003c-9.6606064-4.7077999-17.2210999-4.2034016-24.781601-1.7234001l-1.2349014-1.2610016l6.9723969-4.1612988
			l4.2003021-0.022501l2.066597-1.9545994v-4.1361008H63.2711487l-1.7766991,1.8201008v2.8330002l-15.7509995,9.0373001v-6.9356003
			l2.5411987-2.5639992v-4.1824017H31.7775497l-2.2472,2.6313v3.3039017h2.6965981v17.8642006h-0.8316994
			c0,0-2.2008991,2.4967995-2.0916996,2.5431023v4.6236992H46.692749l1.7304993-1.6183014v-5.5485001h-2.5621986v-1.4165001
			l9.5765991-5.5064011l0.8106995,0.8323021c-2.1338005,1.5047989-3.8223,2.925499-5.0823975,5.1701012
			c-1.8859024,3.1273003-2.5621033,7.4819984-1.4616013,10.9707985c0.7182007,2.3370018,1.6170998,3.7536011,3.1921997,5.3802986
			c1.5037003,1.5510025,2.7846985,2.4505005,5.2503014,3.6189995c2.024498,1.0130005,6.7624969,2.4505959,10.4586945,2.8330956
			c3.5744019,0.2699051,8.0644989,0.2248993,11.0046997-0.157196c3.2341995-0.3371048,6.5944977-1.5047989,8.6106033-2.3370972
			c1.6170959-0.7859993,3.4147949-1.5047989,4.7882996-2.5849991c3.4609985-2.4968033,7.1399994-6.2630005,7.1819992-10.9708023
			h-6.4679031c-2.0245972,7.2298012-21.5895004,10.5084-29.4440002,4.9179001"/>
		<path class="st3" d="M79.5804443,20.5369854L64.0306473,20.559185v2.6987h1.8196945L45.28965,34.9961891v-11.716404
			l2.5612984-0.0221996v-2.6987H32.7732506v2.6987h2.5612984v21.5655003h-2.5612984v3.1030006h15.0776978v-3.1030006h-2.4487991
			V41.180088l11.6847-6.7018013l9.6857948,10.3223991l-2.1580963-0.023098v3.1483002h15.6402969v-3.1252022h-0.4944
			l-14.1795959-15.3139l10.5389938-6.2070007l3.4605026-0.0452003L79.5804443,20.5369854z M79.6642456,30.2454853
			c-4.8848038-0.0331001-8.3581009,1.1385994-10.0390015,1.6699009l4.0230026,4.407402
			c8.6511002-2.0688019,17.930397,0.089901,21.9977951,6.2285004l3.9113007-0.043602l0.0443039-10.8172016H96.006546
			l-2.5613022,1.6871014C88.1169434,31.0262852,83.4634476,30.2711849,79.6642456,30.2454853z M95.6460419,42.5512886
			l-0.0883942,0.0004997h0.0895004C95.6469421,42.5513878,95.6464462,42.5515862,95.6460419,42.5512886z M57.7177505,38.2339859
			c-3.5955009,2.4511032-4.8083,4.7448006-5.594902,6.9710999c-0.6067009,1.8440018-1.4609985,5.5998001,0.2693024,9.1076012
			c2.1122971,3.6431007,5.5280991,5.7572021,7.8202972,6.5890999c3.7527046,1.5741005,9.8191986,3.0130005,16.6955948,2.7430992
			c4.9213028-0.1124001,9.2136993-1.0119972,13.3484039-3.0808983c2.4043961-1.2817993,2.8987961-1.5737,5.3031006-3.7999001
			c1.797699-2.0689011,3.2577972-3.3507004,3.8644943-6.5441017h-4.134697
			c-1.6629028,2.7434998-3.9545975,4.9241028-9.2127991,6.4759026l0.0450974,0.0229988
			c-10.157196,3.013401-19.9325943,1.507-24.2694931-3.8451004c-3.5954018-4.1377983-1.910202-7.781498,0.3819008-9.7602997
			l-4.5199013-4.8756981L57.7177505,38.2339859z"/>
		<path class="st4" d="M95.6460419,42.5512886c-4.0673981-6.1385994-13.3466949-8.2973022-21.9977951-6.2285004l-4.0230026-4.407402
			c1.6809006-0.5313015,5.1541977-1.703001,10.0390015-1.6699009c3.799202,0.0256996,8.4526978,0.7807999,13.7809982,3.1321011
			l2.5613022-1.6871014h3.5951004l-0.0443039,10.8172016L95.6460419,42.5512886z M95.6460419,42.5512886l-0.0883942,0.0004997
			h0.0895004C95.6469421,42.5513878,95.6464462,42.5515862,95.6460419,42.5512886z M79.5804443,20.5369854L64.0306473,20.559185
			v2.6987h1.8196945L45.28965,34.9961891v-11.716404l2.5612984-0.0221996v-2.6987H32.7732506v2.6987h2.5612984v21.5655003
			h-2.5612984v3.1030006h15.0776978v-3.1030006h-2.4487991V41.180088l11.6847-6.7018013l9.6857948,10.3223991l-2.1580963-0.023098
			v3.1483002h15.6402969v-3.1252022h-0.4944l-14.1795959-15.3139l10.5389938-6.2070007l3.4605026-0.0452003L79.5804443,20.5369854z
			 M57.7177505,38.2339859c-3.5955009,2.4511032-4.8083,4.7448006-5.594902,6.9710999
			c-0.6067009,1.8440018-1.4609985,5.5998001,0.2693024,9.1076012c2.1122971,3.6431007,5.5280991,5.7572021,7.8202972,6.5890999
			c3.7527046,1.5741005,9.8191986,3.0130005,16.6955948,2.7430992c4.9213028-0.1124001,9.2136993-1.0119972,13.3484039-3.0808983
			c2.4043961-1.2817993,2.8987961-1.5737,5.3031006-3.7999001c1.797699-2.0689011,3.2577972-3.3507004,3.8644943-6.5441017
			h-4.134697c-1.6629028,2.7434998-3.9545975,4.9241028-9.2127991,6.4759026l0.0450974,0.0229988
			c-10.157196,3.013401-19.9325943,1.507-24.2694931-3.8451004c-3.5954018-4.1377983-1.910202-7.781498,0.3819008-9.7602997
			l-4.5199013-4.8756981L57.7177505,38.2339859z"/>
	</g>
</g>
</svg>
