<?xml version="1.0" encoding="utf-8"?>
<!-- Generator: Adobe Illustrator 27.0.0, SVG Export Plug-In . SVG Version: 6.00 Build 0)  -->
<svg version="1.1" id="Layer_1" xmlns="http://www.w3.org/2000/svg" xmlns:xlink="http://www.w3.org/1999/xlink" x="0px" y="0px"
	 viewBox="0 0 133 92" style="enable-background:new 0 0 133 92;" xml:space="preserve">
<style type="text/css">
	.st0{clip-path:url(#SVGID_00000106828708256779680040000013739529807806362806_);}
	.st1{fill:#FFFFFF;}
	.st2{fill:#004C54;}
	.st3{fill:none;stroke:#FFFFFF;stroke-width:0.312498;}
	.st4{fill:#A5ACAF;}
</style>
<g>
	<defs>
		<rect id="SVGID_1_" x="-0.291411" y="0.2602508" width="133" height="91.1296005"/>
	</defs>
	<clipPath id="SVGID_00000090271736290412436360000011892659117799707542_">
		<use xlink:href="#SVGID_1_"  style="overflow:visible;"/>
	</clipPath>
	<g style="clip-path:url(#SVGID_00000090271736290412436360000011892659117799707542_);">
		<path class="st1" d="M77.1906891,6.9985008l-6.4832001,6.7626505c10.6197968-4.39151,33.7761002-11.9310303,33.7761002-11.9310303
			l-7.4192047,7.2234898c20.2522049-5.9678001,35.6411972-8.7952003,35.6411972-8.7952003
			s-4.4599915,10.3291407-11.121994,20.6726398c1.2890015-0.1384983,9.701004-1.1140995,9.701004-1.1140995
			s-7.576004,12.4890995-16.3230057,21.4909l4.8960037,1.2122993c0,0-7.6290054,10.9409027-17.6959991,19.8712997
			C87.6831894,75.2321548,80.2339859,73.2597504,80.2339859,73.2597504c-10.7475967,7.7472-19.3616982,3.821106-19.3616982,3.821106
			s3.7215996-9.3478012-0.1234016-10.3402023c-3.4656982-0.8964005-8.7385979,1.800499-9.3970985,2.8823013
			c-0.6842003,2.358696-3.5656013,8.3487015-6.5424004,11.9743958c-5.7080002,6.9502029-12.0373001,9.7910995-12.0373001,9.7910995
			s-4.9856968-4.2341995-5.018198-11.4419937c0,0-3.4242992,3.6100998-8.9988995,4.7899933
			c-3.9021006,0.8261032-9.2275906,0.1552048-14.6832504-4.3779984C0.411876,77.3109512-0.2879931,67.0853577-0.2879931,67.0853577
			s3.4422021-6.5448074,10.0812817-12.2803078c-1.4693594-1.2547989-2.370069-2.8333015-2.652719-3.8077011
			c17.6468201-7.6655998,17.6590195-14.9829979,31.6893177-23.8784981
			C52.651886,18.3546505,61.3373871,14.3250513,77.1950912,6.9954009"/>
		<path class="st2" d="M68.5954895,13.2064514l-5.5440025,5.7824993C74.0009842,14.165451,97.1223907,6.331181,97.1223907,6.331181
			l-6.7108002,6.5336699c23.7070007-7.30509,38.7449951-9.7799797,38.7449951-9.7799797s-4.9140015,10.89958-11.4529953,20.1581783
			c3.1660004-0.3024998,9.7699966-1.0660992,9.7699966-1.0660992s-6.6039963,11.0123005-16.3639984,20.3401012
			c1.0839996,0.1584969,5.5130005,1.164299,5.5130005,1.164299s-5.8860016,8.6925011-16.1160049,17.6083984
			C87.446991,72.6692505,81.6536865,71.3219528,81.6536865,71.3219528s0.1257019-0.4442978,0.1133041-1.1352997
			c-0.0090027-0.3817978-0.0908051-0.7277985-0.0942001-0.7556992c-10.0531006,9.4160004-18.4284019,6.2388992-18.4284019,6.2388992
			s3.7182961-8.9594955-1.985302-10.7677994c-4.4181976-1.3998032-11.1861,2.1989975-11.7254982,4.1268997
			c-0.5866013,2.0963974-3.3929024,7.9145966-6.1758003,11.3237c-4.8274994,5.9152985-10.1709023,8.6144028-10.1709023,8.6144028
			s-4.8578968-3.7195053-3.1730957-14.6056061c0.3678989-2.3722992-0.1043015-3.2986984-0.3645-3.697197
			c-0.7975006-1.2145004-7.0123997,0.1105042-8.528801,3.5611038c-1.0700989,2.4368973,5.1056004,4.4962997,5.1056004,4.4962997
			s-2.8500996,3.1288986-7.8311996,4.1425934c-3.1316013,0.6403046-7.9827013,0.4363022-13.0761309-3.9525986
			c-3.0138602-2.5960999-3.63849-11.3825989-3.63849-11.3825989S5.4029489,60.741951,12.6543884,54.880249
			c-1.4312-0.9320984-2.5180998-2.5117989-2.7929001-3.1324005C24.47299,45.4842491,26.4761887,36.6276512,42.9705887,26.7297497
			c7.6876984-4.6124992,15.7846985-9.1513996,25.6240997-13.5226984"/>
		<path d="M107.4205856,43.7659492c0.5859985,0.1206017,2.9860001,0.5526009,4.3230057,1.1040993
			c-5.0190048,8.1021004-20.0212021,24.0109024-28.4048004,24.6664047
			c-0.0942001-1.3953018-0.6382065-2.5852966-1.2954025-3.4057999c-3.1463013,5.7230988-12.7529984,9.2361984-16.7415009,8.3173981
			c4.8432007-17.6576004-15.7039986-10.9297028-17.2798996-6.0825958
			c-4.0905991,12.5862961-14.4746017,18.5083008-14.4746017,18.5083008s-3.3189964-3.7630997-1.8955975-12.2378998
			c1.0498981-6.2478027-2.9217987-6.0538025-2.9217987-6.0538025c-1.5838013-0.0725021-7.5935001,0.6485977-9.4892006,4.822403
			c-1.5286999,3.3610992,3.8225994,5.720993,3.8225994,5.720993s-7.7269001,6.1397018-16.6664295-1.4701996
			c-2.1927304-1.866394-3.0081904-9.7475967-3.0081904-9.7475967c4.2993202-7.0930023,9.9656191-11.6039047,12.3132191-13.2805023
			c-2.4888992-0.9499016-3.2639999-2.2359009-3.2639999-2.2359009c12.0027008-5.4776993,16.7101021-14.5821991,26.928299-21.3481007
			C50.6262894,23.58745,59.2460861,19.925951,59.2460861,19.925951l-3.2525978,4.0742989
			c0,0,2.7233009-1.1585999,3.9110985-1.737999c10.7229004-5.2376003,28.891098-10.9454002,28.891098-10.9454002
			l-5.6654968,5.4620991c0,0,9.3925018-3.2015991,21.2274017-5.7177982
			c6.3019943-1.3406601,19.4700012-4.0991306,19.4700012-4.0991306s-3.0930023,9.05093-9.6650009,18.23913
			c3.9700012-0.2779007,8.2490005-0.5101013,8.2490005-0.5101013s-4.6010056,9.2105999-14.9900055,19.0753002"/>
		<path d="M58.6105881,31.4980507c-0.1369019,0.0480003-0.2625008,0.0959988-0.3970985,0.1439991
			c0.1165962-0.0445995,0.2388992-0.0858994,0.3566971-0.1271992
			C58.5835876,31.5081501,58.5970879,31.5025501,58.6105881,31.4980507z"/>
		<path d="M58.1480865,31.6652508c0.0223999-0.0089016,0.0426025-0.0156002,0.0650024-0.0234013
			C58.1917877,31.6496506,58.1704865,31.6563492,58.1480865,31.6652508z"/>
		<path class="st1" d="M72.2922897,52.8153496c0,0-5.7405014-2.7751007-14.792202,0.168499
			c0,0,12.4859962-7.3675995,28.2914009-4.2341003c-10.2551041-3.4281998-19.4873047-1.7994995-24.9392014,0.0257034
			c-3.1977005,1.2278976-5.0978012,2.2436981-5.0978012,2.2436981s0.8008003-0.5826988,2.2983017-1.4668007
			c3.7025986-2.7103996,8.7835999-5.6450996,13.8106995-7.7057991c3.4893036-1.4300003,10.4423981-3.2787018,13.2699966-3.4403992
			c0,0-7.2725983-1.2257004-13.9070969,0.4386978c0,0,10.5042038-4.0788994,20.6964035-4.3043976
			c3.4132004-0.075901,11.2227936,0.3359985,11.2227936,0.3359985c-11.2643967-3.3277988-22.9390945-3.983099-30.9169998-2.7650986
			c-4.5335999,1.1184998-8.1105957,2.2336998-8.1105957,2.2336998s0.6269989-0.3158989,1.8237991-0.8227005
			c2.8758011-1.6989994,14.6733017-8.0084,36.6078033-11.4141998c0,0-2.8040009-0.3316002-6.2334061-0.3316002
			c-3.5049973,0-10.3998947,1.1788006-10.3998947,1.1788006c4.9934998-2.270401,14.4042969-4.4717999,26.0402985-5.5881004
			c0,0-17.7809982-2.0997992-39.3069992,4.6149006c-0.1851044,0.0780983-0.2849045,0.1226997-0.2849045,0.1226997
			s2.2701035-1.6365013,4.8343048-3.3298016c1.8899002-1.2480984,4.6244965-3.1959982,4.6244965-3.1959982
			S70.783287,18.2102509,55.8286858,25.27635c-4.2162971,1.9915009-6.4427986,3.1770992-6.4427986,3.1770992
			c0.6472015-0.7445984,3.6464996-3.3633995,4.3721008-4.2944984c-11.0973015,5.4161987-15.1487007,8.9995995-21.7428017,15.9562988
			c-5.8817959,6.207901-5.6148968,7.2895012-14.541996,12.0918999c0,0,6.5762997,2.6870003,13.2375984-1.6308975
			c1.1530018-0.7457008,2.2397995-1.7939034,3.2719002-2.8891029c2.3564987-2.7203979,1.5769997-5.5111008,4.7052002-7.5159988
			c-0.4465027,1.0348015-1.1811028,2.3474007-1.247303,3.7016983c1.5030022-2.0606995,4.4731026-4.7733994,7.7786026-6.7357979
			c8.4055977-4.9874992,13.9833984-5.8471012,13.9833984-5.8471012c-0.2152977,0.0748005-0.4227982,0.1507015-0.6325989,0.2266006
			c-11.4877014,4.7531986-13.363102,10.9653988-13.4216003,11.6173992c-0.1245003,1.401001,4.152298-1.7369995,7.649498-2.1611977
			c-3.6791,1.2926979-6.8363991,4.4060974-8.365097,8.0016975c-0.6483002,1.5226021-0.8456993,3.2574005-2.661602,4.6138
			c-0.5125999,0.4643021-1.1844978,0.9220009-2.0794983,1.3250008c-2.4148026,1.0861015-4.0849991,0.538002-4.6502991,0.1618996
			c-0.3398018-0.2243996-0.5496025-0.6050987-0.5496025-0.6050987c1.169899,0.3281975,2.7605019,0.0424995,4.2118988-0.8696022
			c1.0723038-0.6730995,1.8687019-1.5627975,2.2970009-2.4646988c0.0011024,0,0.0022011,0,0.0034027,0.0010986
			c0.2332993-0.4810982,0.6707001-1.4209976,0.0279999-2.6176987c-0.3264008-0.6105995-1.0039024-0.9398994-1.7767029-1.0605011
			c0.0483017-0.1283989,0.450901-1.1464996,1.7117004-2.6511993c-1.7127991,1.2257004-2.8222008,2.6991997-3.3985977,3.3656998
			c0.8097992,0.0904007,1.509697,0.4678001,1.9011002,1.1152c0.7728996,1.2826004,0.0527992,3.1200027-1.6095009,4.1057014
			c-1.6623001,0.9878998-3.6352005,0.7478981-4.4090004-0.5325012c-0.0965004-0.1606979-0.1693993-0.3337975-0.2210007-0.5100975
			c-0.0886002,0.0501976-0.1749992,0.1026001-0.264698,0.1483994c-0.520401,0.2678986-1.5692005,0.7110977-1.5692005,0.7110977
			c0.4969025,0.1150017,1.1620998,0.1651993,1.5758991,0.087101c0.136898,1.8116989,1.2752991,4.7242012,7.6843987,3.078701
			c-1.8304977,1.7928009-6.240799,1.6744995-8.9135952,0.2812996c0.3634968,0.2701988,0.782896,0.5582008,1.282095,0.8662987
			c8.0377007,4.9696999,17.2933998,0.2913017,19.5534019-1.0035973c0.5517998-0.3516006,1.1091995-0.6698036,1.6734009-0.9466019
			c0,0-2.3418999,2.0561981-3.929203,5.2453995c2.8165016-3.5844994,10.9976997-9.3311005,21.9688034-8.0037994"/>
		<path class="st3" d="M72.2922897,52.8153496c0,0-5.7405014-2.7751007-14.792202,0.168499
			c0,0,12.4859962-7.3675995,28.2914009-4.2341003c-10.2551041-3.4281998-19.4873047-1.7994995-24.9392014,0.0257034
			c-3.1977005,1.2278976-5.0978012,2.2436981-5.0978012,2.2436981s0.8008003-0.5826988,2.2983017-1.4668007
			c3.7025986-2.7103996,8.7835999-5.6450996,13.8106995-7.7057991c3.4893036-1.4300003,10.4423981-3.2787018,13.2699966-3.4403992
			c0,0-7.2725983-1.2257004-13.9070969,0.4386978c0,0,10.5042038-4.0788994,20.6964035-4.3043976
			c3.4132004-0.075901,11.2227936,0.3359985,11.2227936,0.3359985c-11.2643967-3.3277988-22.9390945-3.983099-30.9169998-2.7650986
			c-4.5335999,1.1184998-8.1105957,2.2336998-8.1105957,2.2336998s0.6269989-0.3158989,1.8237991-0.8227005
			c2.8758011-1.6989994,14.6733017-8.0084,36.6078033-11.4141998c0,0-2.8040009-0.3316002-6.2334061-0.3316002
			c-3.5049973,0-10.3998947,1.1788006-10.3998947,1.1788006c4.9934998-2.270401,14.4042969-4.4717999,26.0402985-5.5881004
			c0,0-17.7809982-2.0997992-39.3069992,4.6149006c-0.1851044,0.0780983-0.2849045,0.1226997-0.2849045,0.1226997
			s2.2701035-1.6365013,4.8343048-3.3298016c1.8899002-1.2480984,4.6244965-3.1959982,4.6244965-3.1959982
			S70.783287,18.2102509,55.8286858,25.27635c-4.2162971,1.9915009-6.4427986,3.1770992-6.4427986,3.1770992
			c0.6472015-0.7445984,3.6464996-3.3633995,4.3721008-4.2944984c-11.0973015,5.4161987-15.1487007,8.9995995-21.7428017,15.9562988
			c-5.8817959,6.207901-5.6148968,7.2895012-14.541996,12.0918999c0,0,6.5762997,2.6870003,13.2375984-1.6308975
			c1.1530018-0.7457008,2.2397995-1.7939034,3.2719002-2.8891029c2.3564987-2.7203979,1.5769997-5.5111008,4.7052002-7.5159988
			c-0.4465027,1.0348015-1.1811028,2.3474007-1.247303,3.7016983c1.5030022-2.0606995,4.4731026-4.7733994,7.7786026-6.7357979
			c8.4055977-4.9874992,13.9833984-5.8471012,13.9833984-5.8471012c-0.2152977,0.0748005-0.4227982,0.1507015-0.6325989,0.2266006
			c-11.4877014,4.7531986-13.363102,10.9653988-13.4216003,11.6173992c-0.1245003,1.401001,4.152298-1.7369995,7.649498-2.1611977
			c-3.6791,1.2926979-6.8363991,4.4060974-8.365097,8.0016975c-0.6483002,1.5226021-0.8456993,3.2574005-2.661602,4.6138
			c-0.5125999,0.4643021-1.1844978,0.9220009-2.0794983,1.3250008c-2.4148026,1.0861015-4.0849991,0.538002-4.6502991,0.1618996
			c-0.3398018-0.2243996-0.5496025-0.6050987-0.5496025-0.6050987c1.169899,0.3281975,2.7605019,0.0424995,4.2118988-0.8696022
			c1.0723038-0.6730995,1.8687019-1.5627975,2.2970009-2.4646988c0.0011024,0,0.0022011,0,0.0034027,0.0010986
			c0.2332993-0.4810982,0.6707001-1.4209976,0.0279999-2.6176987c-0.3264008-0.6105995-1.0039024-0.9398994-1.7767029-1.0605011
			c0.0483017-0.1283989,0.450901-1.1464996,1.7117004-2.6511993c-1.7127991,1.2257004-2.8222008,2.6991997-3.3985977,3.3656998
			c0.8097992,0.0904007,1.509697,0.4678001,1.9011002,1.1152c0.7728996,1.2826004,0.0527992,3.1200027-1.6095009,4.1057014
			c-1.6623001,0.9878998-3.6352005,0.7478981-4.4090004-0.5325012c-0.0965004-0.1606979-0.1693993-0.3337975-0.2210007-0.5100975
			c-0.0886002,0.0501976-0.1749992,0.1026001-0.264698,0.1483994c-0.520401,0.2678986-1.5692005,0.7110977-1.5692005,0.7110977
			c0.4969025,0.1150017,1.1620998,0.1651993,1.5758991,0.087101c0.136898,1.8116989,1.2752991,4.7242012,7.6843987,3.078701
			c-1.8304977,1.7928009-6.240799,1.6744995-8.9135952,0.2812996c0.3634968,0.2701988,0.782896,0.5582008,1.282095,0.8662987
			c8.0377007,4.9696999,17.2933998,0.2913017,19.5534019-1.0035973c0.5517998-0.3516006,1.1091995-0.6698036,1.6734009-0.9466019
			c0,0-2.3418999,2.0561981-3.929203,5.2453995c2.8165016-3.5844994,10.9976997-9.3311005,21.9688034-8.0037994"/>
		<path class="st4" d="M42.9058876,44.9317513c0.3084984,1.1809998,2.3689995-0.0391006,2.3689995-0.0391006
			s-2.7861977,2.3474998-3.9021988,4.8816986c-0.0067024,0.1394997,0,0.6473999-0.3666992,1.3618011
			c0.2714005,0.0625992,0.553997,0.1026993,0.7917976,0.0769997c0.721199-0.0780983,1.5657997-0.5848999,1.5657997-0.5848999
			s0.0169029,1.5047989-1.5903969,2.9594002c1.8158989-1.3563004,2.013298-3.0910988,2.6615982-4.6138
			c1.528801-3.5956001,4.6861992-6.7088013,8.3651009-8.0015984c-3.4972,0.4241982-7.7741013,3.5620995-7.6495018,2.1610985
			c0.0583-0.6519012,1.9337006-6.8639984,13.4216003-11.6173c-0.1177979,0.0412998-0.3992996,0.1416988-0.4217987,0.1506996
			C47.6224861,35.5759506,42.0872879,41.7870483,42.906189,44.9317513"/>
		<path class="st2" d="M38.5219879,49.7287483c0.5461998,0.9065018,0.0033989,2.2260017-1.2136002,2.9492035
			c-1.2169991,0.7222977-2.6459007,0.5737991-3.1934013-0.3338013c-0.0840988-0.138401-0.1344986-0.2891006-0.1681976-0.4441986
			c-0.2310028,0.162899-0.469902,0.3135986-0.7167015,0.4508972c0.0516014,0.1763992,0.1245003,0.3493996,0.2210007,0.5102005
			c0.7738991,1.2803993,2.7468987,1.520401,4.4090004,0.5325012c1.6623001-0.9857025,2.3824997-2.823101,1.6095009-4.1057014
			c-0.3914032-0.6474991-1.091301-1.0247993-1.9011002-1.1152c-0.186203,0.231102-0.3949013,0.4946022-0.6225014,0.7736015
			C37.6188889,48.954052,38.2135887,49.2164497,38.5219879,49.7287483z"/>
		<path d="M37.3093872,52.6763496c1.2169991-0.7234001,1.7598-2.0429001,1.2136002-2.9491997
			c-0.3084984-0.5124016-0.9029007-0.7747002-1.575901-0.7825012c-0.4687996,0.5749016-1.0251999,1.2201004-1.6633987,1.8352013
			c-0.0313988,0.5122986,0.0863991,1.1632004,0.7201004,1.639801c0,0-0.7223015,0.0592003-1.1922989-0.2858009
			c-0.2669029-0.1963997-0.3813019-0.4286003-0.4285011-0.5625992c-0.1413002,0.1138992-0.2871017,0.2221985-0.4351006,0.3270988
			c0.0335999,0.155201,0.0840988,0.3059006,0.1682014,0.4443016C34.6634865,53.2501488,36.0923882,53.3985519,37.3093872,52.6763496
			z"/>
		<path class="st1" d="M34.8123894,52.1336517c0.4698982,0.3449974,1.1922989,0.2857971,1.1922989,0.2857971
			c-0.6337013-0.4766006-0.7514992-1.1273994-0.7201004-1.6397972c-0.2849007,0.2745972-0.5844002,0.5413971-0.9006996,0.7913971
			C34.4309883,51.7050514,34.5453873,51.9372482,34.8123894,52.1336517z"/>
		<path class="st4" d="M103.1465912,34.8756485c0,0-7.8102036-0.4119987-11.2232056-0.3359985
			c-10.1922989,0.225502-20.6963959,4.3044014-20.6963959,4.3044014c6.6343994-1.664402,13.9070969-0.4387016,13.9070969-0.4387016
			c-2.8276978,0.1618996-9.7807999,2.0105019-13.2700958,3.4403992c-5.0270996,2.0606995-10.1081047,4.9953995-13.8107033,7.7058029
			c5.9267998-3.497303,22.7801018-11.717701,44.1683006-7.1823006c0,0,1.3980026-1.0704994,5.1200027-5.134903
			c3.9469986-4.3076973,4.7869949-6.9657974,4.7869949-6.9657974s-18.1572952-1.9402008-31.3034973,0.0724983
			c-2.8354034,0.4331017-5.8863983,1.1029015-8.596199,1.7693024c7.9781952-1.217802,19.6532974-0.5626011,30.9177017,2.7651978"/>
		<path class="st4" d="M61.2437859,56.3315506c14.8425026-3.6647987,25.157299,0.7779999,26.3960991,5.4453011
			c0,0,0.0503998-0.0245018,0.1458054-0.075901c0.6011963-0.3248024,2.907196-1.3037987,6.3786011-4.7029991
			c3.6452942-3.571003,5.9302979-6.4353027,6.8332977-8.3632011C85.8147888,41.0607491,69.059288,45.6195488,60.8523865,48.77425
			c5.4511032-1.8250999,14.6833038-3.4538002,24.9392014-0.0256996c-15.8049011-3.1334-28.2913017,4.2341995-28.2913017,4.2341995
			c9.0516014-2.9437981,14.7921028-0.1685982,14.7921028-0.1685982c-10.9720001-1.327301-19.1532021,4.4194984-21.9687996,8.0037994
			c-0.2165031,0.4386978-0.4206009,0.8964005-0.6023026,1.3741989
			C52.2618866,59.8099518,54.9782867,57.8776512,61.2437859,56.3315506z"/>
		<path class="st4" d="M111.9575882,17.3656502c-11.637001,1.1163006-21.0480042,3.3176994-26.0410995,5.5881996
			c0,0,6.8946991-1.1788006,10.3999023-1.1788006c3.4291992,0,6.2332001,0.331501,6.2332001,0.331501
			c-21.9341049,3.4057999-33.7309036,9.7150993-36.607605,11.4142017c2.9140015-1.2290001,9.2244034-3.5990009,18.259201-5.3807011
			c8.5221024-1.6800003,18.4244003-2.0974998,22.4113998-2.4926014c5.6849976-5.4653988,7.9169998-12.3640985,7.9169998-12.3640985
			s-9.9000015,0.7947998-21.1364975,2.8698988c-11.6852036,2.1590004-19.2371979,5.1921005-20.7435989,5.8271999
			c21.5264969-6.7144985,39.3070984-4.6148987,39.3070984-4.6148987"/>
		<path class="st4" d="M52.8901863,62.2528496c0,0,3.7406006-2.8008995,10.0892029-1.7849998
			c9.3913994,1.5024986,9.1221962,7.3910065,9.1221962,7.3910065s4.2276001-1.8095016,6.3654022-5.510006
			c0,0-2.6516037-2.5182991-7.446701-3.3610992C58.5174866,56.7897491,52.8901863,62.2528496,52.8901863,62.2528496z"/>
		<path class="st4" d="M23.3298893,59.8673515c-0.9286995,0.2747002-2.9352989,0.558197-1.9818993-0.8640022
			c0,0,1.2068996-0.6473999,2.8209-1.4801979c0.6941986,0.5659981,1.4154987,0.9610977,3.3031998,1.1408997
			C27.4720898,58.6640511,24.0825901,59.6441498,23.3298893,59.8673515z M27.2263889,55.4569511
			c-2.411499,0.7346001-5.4702988,0.5247002-7.1582985,0.0691986c-1.9461002,1.3351021-8.9528017,4.3202019-13.4102812,11.8295021
			c0.2299399,2.5452042,0.4946399,5.8026047,1.545619,7.5886002c4.2857599,6.7368011,11.772562,4.2462997,11.772562,4.2462997
			s-11.3745317-5.0233994,0.7839985-12.3462982c3.8819008-2.3375015,14.6205006-4.0924034,21.0250988-2.0428009
			c0.546299,0.1997986,1.2215004,0.6776047,1.175499,0.799202c-0.6639977,3.2451019-3.3526001,12.3318024-7.8099976,14.9150009
			c-2.4643021-3.5811005,4.0388985-11.8050003-2.5943031-12.1185989c0,0,1.6500015,2.5462952,0.9388008,5.9666977
			c-0.3129005,1.5013962-1.3402977,5.5100021,0.4958,9.6582031c0,0,10.0834007-6.0023041,13.075901-19.8556061
			c0.3880997-1.3641014,0.6506004-2.5207024,1.2462006-3.5678024c-12.9560013,5.0814056-21.0867996-5.1415977-21.0867996-5.1415977"
			/>
		<path d="M21.3484898,59.0036507c-0.9533005,1.4221992,1.0531998,1.1385994,1.9820004,0.8639984
			c0.7525997-0.2232971,4.1422997-1.2033997,4.1422997-1.2033997c-1.887701-0.1796989-2.6089001-0.5748978-3.3033009-1.1408005
			C22.5553894,58.3561516,21.3484898,59.0036507,21.3484898,59.0036507z"/>
	</g>
</g>
</svg>
