<svg width="219" height="139" viewBox="0 0 219 139" fill="none" xmlns="http://www.w3.org/2000/svg">
<path d="M211.986 61.2828C210.115 59.5996 208.587 58.6706 208.105 58.2585C205.341 56.0514 207.657 57.8101 205.006 56.0933C203.101 54.899 202.577 53.9281 200.637 52.8455C197.161 50.8619 196.791 50.3032 193.993 46.9436C191.564 42.4945 187.795 41.8589 184.012 40.9998C180.355 40.1756 177.738 37.2631 177.103 36.2573C175.162 33.0793 171.987 31.5497 170.305 30.6138C165.112 27.7711 159.138 28.26 154.461 24.0763C147.412 19.0684 145.528 20.0043 138.13 19.7808C134.026 19.669 128.707 17.0498 126.962 15.5971C125.504 14.3608 123.787 13.5785 122.293 13.0966C117.066 11.4902 113.499 14.256 106.171 10.7079C104.042 9.66022 102.102 8.24236 100.008 7.0061C99.31 6.46829 98.6121 6.09811 96.5183 5.6511C92.3306 4.82693 88.8409 5.35077 84.6533 5.76285C81.8615 5.94445 81.1636 4.78502 79.0697 3.70242C76.9759 2.69665 74.8821 1.94931 72.7883 1.5023C69.3684 0.901627 65.7391 1.31371 62.04 2.06106C54.7116 3.52082 48.0812 -0.180974 40.9622 0.48954C39.7757 0.601293 37.4725 2.09598 36.6349 3.77925C35.588 6.02128 35.588 7.32739 35.7416 9.56942C35.9656 12.5937 36.3013 12.8172 36.9002 14.7659C38.1704 19.0265 38.8404 21.3453 39.8525 24.195C41.0459 27.5196 41.011 31.5986 38.1704 32.9257C36.8234 33.5613 34.5481 33.5613 33.2779 32.589C31.2957 31.0594 30.2139 28.964 27.9735 28.517C24.9863 27.9192 21.3989 30.9826 18.2023 31.8417C15.0267 32.6658 14.6149 30.9476 12.4164 29.9349C10.9577 29.2623 9.54088 30.2338 8.71731 30.7172C7.22372 31.5413 6.88871 33.2595 6.51182 35.0895C6.25079 36.5492 6.10143 37.8903 6.47448 39.4967C6.99724 41.8156 7.77963 43.1985 7.82151 44.8049C7.97086 48.842 7.29875 51.8593 5.65789 53.9547C4.61098 55.3027 3.19416 59.0743 2.78237 60.4573C1.32368 65.088 1.47722 64.3057 0.765323 68.6291C0.391925 70.8363 0.466604 73.3018 0.279556 75.3552C0.242216 75.7289 0.540586 80.3981 0.765323 81.8229C1.32507 85.3012 1.9588 87.5013 2.7056 90.4139C3.75251 94.6395 4.19919 97.2517 4.08752 100.472C3.97585 103.796 1.88203 106.939 3.86348 109.272C5.09884 110.732 8.34426 112.038 10.9825 110.879C13.6696 109.684 15.6098 108.301 17.7036 108.001C21.5493 107.478 24.0549 109.118 25.73 108.937C27.2236 108.75 29.799 107.295 31.0343 107.184C32.0045 107.109 34.1332 106.997 34.88 107.557C36.0735 108.451 36.7854 109.429 36.5969 112.454C36.5969 112.491 35.885 115.701 35.885 115.743C34.6497 119.738 33.3445 123.496 32.7094 126.22C32.0373 129.098 28.8986 135.37 35.2848 137.884C37.9719 138.967 40.8125 138.743 44.358 137.847C46.1517 137.398 46.8985 137.324 48.5806 137.023C48.5806 136.911 51.0792 136.948 51.0792 136.835L53.3196 136.724C57.2769 136.275 58.2121 136.537 61.6949 137.023C64.9822 137.433 68.1159 138.07 71.3962 137.695C73.0364 137.508 74.6417 137.209 76.212 136.689C80.7696 135.23 82.8983 133.253 88.3562 132.506C92.9137 131.87 92.9138 132.655 96.9409 132.468C101.122 132.281 103.439 130.485 105.177 129.514C107.305 128.354 107.864 128.243 109.28 127.495C114.431 124.73 120.517 125.065 126.31 123.647C130.379 122.641 131.984 120.734 136.57 119.498C138.399 119.012 140.381 119.05 142.321 118.786C143.815 118.561 146.425 117.256 147.884 115.908C150.382 113.589 150.124 113.477 152.064 112.395C155.31 110.565 159.009 110.6 162.324 109.07C165.388 107.652 168.522 106.458 170.909 104.027C174.419 100.479 179.982 99.4665 184.518 97.8251C187.206 96.8543 190.751 95.0942 193.731 90.0025C196.642 84.9946 199.217 84.2472 204.34 82.7386C207.774 81.6909 209.267 80.9855 211.948 78.478C214.335 76.236 215.193 74.7762 216.282 73.2117C217.517 71.4167 219.904 68.4273 217.364 66.1573C216.247 65.1515 215.088 63.3146 212.694 61.4498" fill="black"/>
<path d="M208.503 65.6133C205.515 63.483 205.257 63.1128 203.687 62.0651C199.653 59.3761 198.871 58.7754 196.889 56.4985C194.949 54.2913 194.425 53.544 192.22 52.3496C191.396 51.8635 185.833 49.9609 186.846 50.1425C181.764 49.2485 181.583 48.1589 179.587 46.2941C177.905 43.8635 175.93 40.9509 174.213 39.8264C174.885 40.2371 171.114 37.7729 171.149 37.8428C168.273 36.837 167.268 37.0954 163.611 36.9488C163.723 36.9488 159.654 36.3886 158.607 35.9011C156.736 35.0769 155.731 34.1061 154.461 33.1352C151.62 31.0049 152.409 31.4939 149.603 29.4334C145.793 26.6676 145.311 27.3381 140.46 26.8561C136.356 26.4454 133.411 25.4732 130.201 23.1543C124.484 19.0055 118.894 20.4653 115.404 19.9415C110.365 19.1941 106.82 17.1407 104.935 15.9463C100.866 13.369 101.801 14.5634 97.4672 12.5449C92.2745 10.0793 87.4169 14.1862 81.3448 12.4701C78.1342 11.5761 76.9408 9.89283 74.8818 9.14548C68.6702 7.32951 66.5763 8.30734 61.5512 8.37719C55.5489 8.37719 50.1747 6.77075 44.4516 6.84059C42.8464 6.84059 41.611 8.1886 41.8413 10.0185C41.8413 10.0185 41.916 12.2257 41.916 12.2606C42.2147 14.0905 42.8861 16.0322 43.4445 18.0508C44.1564 20.5163 44.5263 21.3405 45.5383 25.2448C45.9117 28.3809 45.5383 29.24 45.3143 30.588C45.1272 31.6706 44.4209 33.8008 43.8974 34.5831C43.3 35.4771 42.5155 35.8194 41.4686 36.455C39.6749 37.5376 37.8114 38.0265 35.8711 37.9846C33.8541 37.9098 34.3775 37.9098 31.2019 36.7483C30.0433 36.2999 27.6564 34.9533 25.2624 35.9661C20.67 37.9077 20.1465 36.3027 17.6549 36.4892C16.9081 36.5266 16.1613 36.8999 15.4494 37.2365C14.2908 37.7227 13.7673 38.4728 13.0206 40.0024C12.5725 40.9383 12.2389 42.4679 12.4231 43.8509C12.1621 43.8509 12.8712 46.0161 12.8712 46.0929C13.4309 49.0474 13.5831 51.3592 12.4608 53.9854C11.379 56.451 11.0789 57.3101 9.69696 59.3286C8.34993 61.2703 5.99787 66.8719 5.81641 72.0404C6.00345 71.8532 5.77907 78.1658 6.52831 81.8886C7.35188 85.9955 8.54535 86.3377 8.80359 93.1337C8.91526 95.711 8.65423 97.953 8.57955 100.258C8.54221 101.753 9.02763 103.848 10.8967 103.548C13.5838 103.137 16.6129 101.641 18.7137 101.564C19.7606 101.527 21.5543 101.863 22.3011 102.087C26.5585 103.582 25.1417 102.461 31.7931 101.305C33.9986 100.894 37.0555 101.38 38.256 102.087C42.1784 104.364 41.8434 109.351 40.7197 114.31C40.5327 115.092 39.5611 120.289 39.3378 121.071C38.6657 123.683 38.7404 123.837 38.4026 126.638C38.2532 127.986 38.3279 129.026 39.0747 130.263C39.7098 131.268 40.4217 131.981 41.3918 131.981C45.7261 132.093 48.113 131.981 52.5589 131.199C58.3099 130.151 61.2134 130.151 65.1916 130.526C69.2606 130.9 75.0326 130.787 77.4056 129.89C79.5692 129.108 82.4447 127.425 84.734 126.936C92.2717 125.33 92.5509 126.077 98.6928 125.295C103.585 124.659 106.091 122.193 108.604 120.887C112.037 119.057 115.066 118.422 119.003 118.422C121.32 118.422 124.642 117.64 126.261 116.892C132.759 113.938 130.33 114.126 139.383 112.443C143.975 111.584 147.269 107.924 150.131 106.353C151.96 105.305 153.565 104.481 155.617 103.852C158.381 103.028 161.48 102.581 164.132 101.687C168.389 100.192 169.694 98.7325 172.018 96.6441C173.959 94.891 174.594 94.9259 176.757 93.5779C178.963 92.195 182.174 91.1892 183.402 90.812C186.201 89.9529 190.311 85.2454 194.15 81.3829C198.666 76.7522 202.874 77.5344 207.9 74.8454C210.964 73.239 212.939 72.1564 211.522 69.2438C210.962 68.0844 209.428 66.6665 208.2 65.8074" fill="white"/>
<path d="M106.673 88.6621C97.1809 81.2586 99.875 74.6233 103.874 71.5501L105.068 72.8562L103.051 74.9865L103.2 82.6694H130.559L134.07 79.3029V70.9215H131.976L122.484 60.7241C140.7 56.8407 149.634 64.796 155.008 73.5756H162.127L165.749 70.0624V49.8073H158.142L153.584 52.608C137.532 44.7854 124.969 45.6235 112.406 49.7444L110.354 47.649L121.94 40.7344L128.919 40.697L132.353 37.4492V30.5764H104.435L101.483 33.6007V38.3083L75.3103 53.325V41.8005L79.5328 37.54V30.5904H52.1037L48.3698 34.9627V40.4525H52.8505V70.1367H51.4686C51.4686 70.1367 47.8114 74.2856 47.9929 74.3624V82.0454H76.8876L79.7631 79.3563V70.1367H75.5057V67.783L91.4187 58.6332L92.7658 60.0162C89.2202 62.5166 86.4145 64.8774 84.3207 68.6071C81.1869 73.8036 80.0632 81.0396 81.8918 86.8367C83.0853 90.7201 84.5789 93.0739 87.1962 95.7769C89.6948 98.3542 91.8236 99.8489 95.9205 101.791C99.2845 103.474 107.157 105.863 113.299 106.498C119.239 106.947 126.7 106.872 131.585 106.237C136.959 105.677 142.543 103.736 145.893 102.354C148.58 101.047 151.567 99.8531 153.85 98.0581C159.601 93.9093 165.715 87.6511 165.784 79.8285H155.036C151.672 91.8419 119.162 97.2898 106.11 88.0004" fill="black"/>
<path d="M106.673 88.6621C97.1809 81.2586 99.875 74.6233 103.874 71.5501L105.068 72.8562L103.051 74.9865L103.2 82.6694H130.559L134.07 79.3029V70.9215H131.976L122.484 60.7241C140.7 56.8407 149.634 64.796 155.008 73.5756H162.127L165.749 70.0624V49.8073H158.142L153.584 52.608C137.532 44.7854 124.969 45.6235 112.406 49.7444L110.354 47.649L121.94 40.7344L128.919 40.697L132.353 37.4492V30.5764H104.435L101.483 33.6007V38.3083L75.3103 53.325V41.8005L79.5328 37.54V30.5904H52.1037L48.3698 34.9627V40.4525H52.8505V70.1368H51.4686C51.4686 70.1368 47.8114 74.2856 47.9929 74.3624V82.0454H76.8876L79.7631 79.3563V70.1368H75.5057V67.783L91.4187 58.6332L92.7658 60.0162C89.2202 62.5166 86.4145 64.8774 84.3207 68.6071C81.1869 73.8036 80.0632 81.0396 81.8919 86.8367C83.0853 90.7201 84.5789 93.0739 87.1962 95.7769C89.6948 98.3542 91.8235 99.8489 95.9205 101.791C99.2845 103.474 107.157 105.863 113.299 106.498C119.239 106.947 126.7 106.872 131.585 106.237C136.959 105.677 142.543 103.736 145.893 102.354C148.58 101.047 151.567 99.8531 153.85 98.0581C159.601 93.9093 165.715 87.6511 165.784 79.8285H155.036C151.672 91.8419 119.162 97.2898 106.11 88.0004" stroke="black" stroke-width="0.499517"/>
<path d="M131.534 32.4572L105.696 32.4941V36.9785H108.72L74.5548 56.4834V37.0149L78.8107 36.978V32.4936H53.7568V36.978H58.0128V72.8123H53.7568V77.9685H78.8107V72.8123H74.7417V66.7589L94.1576 55.6228L110.252 72.7751L106.666 72.7368V77.9682H132.655V72.7751H131.833L108.272 47.3288L125.784 37.0149L131.534 36.9398L131.534 32.4572ZM131.673 48.5894C123.557 48.5345 117.785 50.4814 114.992 51.3642L121.677 58.6878C136.052 55.2502 151.471 58.8372 158.23 69.0373L164.729 68.965L164.803 50.9905H158.829L154.573 53.794C145.719 49.8868 137.986 48.6321 131.673 48.5894ZM158.23 69.0373L158.083 69.0382H158.231C158.231 69.0377 158.23 69.0379 158.23 69.0373ZM95.2059 61.8635C89.2316 65.9365 87.2163 69.7478 85.9091 73.447C84.901 76.5111 83.4816 82.752 86.3567 88.5808C89.8666 94.6343 95.5424 98.1473 99.3514 99.5295C105.587 102.145 115.667 104.536 127.094 104.088C135.271 103.901 142.404 102.406 149.274 98.9683C153.269 96.8384 154.091 96.3534 158.086 92.6541C161.073 89.2164 163.499 87.0865 164.507 81.7802H157.637C154.874 86.3389 151.066 89.9624 142.328 92.5408L142.403 92.5791C125.526 97.5863 109.282 95.0831 102.076 86.1897C96.1016 79.3142 98.9018 73.2597 102.71 69.9715L95.2001 61.8698L95.2059 61.8635Z" fill="#E31837"/>
<path d="M158.23 69.0373C151.471 58.8372 136.052 55.2502 121.677 58.6878L114.992 51.3642C117.785 50.4814 123.557 48.5345 131.673 48.5894C137.986 48.6321 145.719 49.8868 154.573 53.794L158.829 50.9905H164.803L164.729 68.965L158.23 69.0373ZM158.23 69.0373L158.083 69.0382H158.231C158.231 69.0377 158.23 69.0379 158.23 69.0373ZM131.534 32.4572L105.696 32.4941V36.9785H108.72L74.5548 56.4834V37.0149L78.8107 36.978V32.4936H53.7568V36.978H58.0128V72.8123H53.7568V77.9685H78.8107V72.8123H74.7417V66.7589L94.1576 55.6228L110.252 72.7751L106.666 72.7368V77.9682H132.655V72.7751H131.833L108.272 47.3288L125.784 37.0149L131.534 36.9398L131.534 32.4572ZM95.2059 61.8635C89.2316 65.9365 87.2163 69.7478 85.9091 73.447C84.901 76.5111 83.4816 82.752 86.3567 88.5808C89.8666 94.6343 95.5424 98.1473 99.3514 99.5295C105.587 102.145 115.667 104.536 127.094 104.088C135.271 103.901 142.404 102.406 149.274 98.9683C153.269 96.8384 154.091 96.3534 158.086 92.6541C161.073 89.2164 163.499 87.0865 164.507 81.7802H157.637C154.874 86.3389 151.066 89.9624 142.328 92.5408L142.403 92.5791C125.526 97.5863 109.282 95.0831 102.076 86.1897C96.1016 79.3142 98.9018 73.2597 102.71 69.9715L95.2001 61.8698L95.2059 61.8635Z" stroke="#E31837" stroke-width="0.267239"/>
</svg>
