<svg width="216" height="148" viewBox="0 0 216 148" fill="none" xmlns="http://www.w3.org/2000/svg">
<path d="M125.835 10.9435L115.306 21.9265C132.553 14.7944 170.161 2.54974 170.161 2.54974L158.112 14.2811C191.002 4.58907 215.995 -0.00280762 215.995 -0.00280762C215.995 -0.00280762 208.752 16.7723 197.932 33.5707C200.025 33.3459 213.687 31.7615 213.687 31.7615C213.687 31.7615 201.384 52.0445 187.177 66.664L195.129 68.6329C195.129 68.6329 182.74 86.4014 166.389 100.905C142.876 121.759 130.778 118.556 130.778 118.556C113.323 131.138 99.3334 124.761 99.3334 124.761C99.3334 124.761 105.377 109.58 99.133 107.968C93.5044 106.512 84.9409 110.893 83.8716 112.649C82.7604 116.48 78.0807 126.208 73.2463 132.097C63.9761 143.384 53.6969 147.998 53.6969 147.998C53.6969 147.998 45.5998 141.121 45.5471 129.415C45.5471 129.415 39.9858 135.278 30.9324 137.195C24.595 138.536 15.9462 137.447 7.08584 130.084C1.142 125.135 0.00537109 108.528 0.00537109 108.528C0.00537109 108.528 5.59572 97.899 16.3779 88.5842C13.9917 86.5464 12.5288 83.9828 12.0698 82.4004C40.7292 69.9509 40.7491 58.0669 63.5351 43.6201C85.9829 29.3866 100.089 22.8422 125.843 10.9385" fill="white"/>
<path d="M111.876 21.0255L102.873 30.4165C120.655 22.5829 158.206 9.85959 158.206 9.85959L147.307 20.4707C185.809 8.60675 210.231 4.58737 210.231 4.58737C210.231 4.58737 202.25 22.2889 191.63 37.3255C196.773 36.8342 207.498 35.5941 207.498 35.5941C207.498 35.5941 196.773 53.4786 180.921 68.6276C182.683 68.8851 189.876 70.5185 189.876 70.5185C189.876 70.5185 180.316 84.6357 163.701 99.1156C142.493 117.597 133.084 115.409 133.084 115.409C133.084 115.409 133.288 114.687 133.268 113.565C133.253 112.945 133.12 112.383 133.115 112.337C116.788 127.63 103.186 122.47 103.186 122.47C103.186 122.47 109.225 107.919 99.9617 104.982C92.7863 102.709 81.7948 108.554 80.9188 111.685C79.9661 115.089 75.4086 124.538 70.889 130.075C63.0487 139.682 54.3708 144.065 54.3708 144.065C54.3708 144.065 46.4813 138.024 49.2175 120.345C49.815 116.492 49.0481 114.988 48.6255 114.34C47.3304 112.368 37.2369 114.52 34.7742 120.124C33.0364 124.081 43.066 127.426 43.066 127.426C43.066 127.426 38.4373 132.508 30.3477 134.154C25.2618 135.194 17.3833 134.862 9.11128 127.735C4.21658 123.518 3.20215 109.249 3.20215 109.249C3.20215 109.249 9.248 98.2259 21.0248 88.7062C18.7004 87.1924 16.9352 84.6269 16.4889 83.619C40.2189 73.4465 43.4723 59.0628 70.2601 42.9881C82.7453 35.4972 95.8954 28.1257 111.875 21.0264" fill="#004C54"/>
<path d="M174.931 70.6561C175.882 70.8519 179.78 71.5535 181.951 72.4491C173.8 85.6075 149.436 111.444 135.82 112.509C135.667 110.243 134.784 108.31 133.716 106.978C128.607 116.272 113.005 121.978 106.527 120.486C114.393 91.8086 81.023 102.735 78.4635 110.607C71.8201 131.048 54.9559 140.666 54.9559 140.666C54.9559 140.666 49.5657 134.554 51.8774 120.791C53.5825 110.644 47.1322 110.959 47.1322 110.959C44.5601 110.841 34.8 112.012 31.7213 118.791C29.2384 124.249 37.9293 128.082 37.9293 128.082C37.9293 128.082 25.3804 138.053 10.8621 125.694C7.30092 122.663 5.97656 109.864 5.97656 109.864C12.9589 98.3442 22.1614 91.0182 25.974 88.2954C21.9319 86.7526 20.6731 84.6641 20.6731 84.6641C40.1661 75.768 47.8112 60.9818 64.4062 49.9935C82.6932 37.885 96.6923 31.9384 96.6923 31.9384L91.4097 38.5555C91.4097 38.5555 95.8326 36.6737 97.7616 35.7327C115.176 27.2266 144.683 17.9568 144.683 17.9568L135.481 26.8275C135.481 26.8275 150.735 21.6279 169.955 17.5415C180.191 15.3642 201.577 10.8843 201.577 10.8843C201.577 10.8843 196.553 25.5835 185.88 40.5058C192.327 40.0544 199.276 39.6773 199.276 39.6773C199.276 39.6773 191.804 54.6359 174.932 70.6567" fill="black"/>
<path d="M95.6605 50.7325C95.4383 50.8104 95.2342 50.8883 95.0156 50.9663C95.2051 50.8938 95.4037 50.8267 95.5949 50.7596C95.6168 50.7487 95.6386 50.7397 95.6605 50.7325Z" fill="black"/>
<path d="M94.9092 51.0039C94.9456 50.9894 94.9784 50.9785 95.0148 50.9658C94.9802 50.9785 94.9456 50.9894 94.9092 51.0039Z" fill="black"/>
<path d="M117.88 85.3527C117.88 85.3527 108.557 80.8458 93.8567 85.6264C93.8567 85.6264 114.135 73.661 139.804 78.7499C123.149 73.1823 108.155 75.8275 99.3007 78.7916C94.1074 80.7859 91.0216 82.4356 91.0216 82.4356C91.0216 82.4356 92.3223 81.4892 94.7542 80.0533C100.767 75.6515 109.019 70.8855 117.184 67.5387C122.85 65.2163 134.143 62.214 138.735 61.9513C138.735 61.9513 126.924 59.9607 116.149 62.6638C116.149 62.6638 133.208 56.0394 149.761 55.6731C155.304 55.5498 167.988 56.2188 167.988 56.2188C149.694 50.8144 130.733 49.7501 117.777 51.7281C110.414 53.5447 104.605 55.3558 104.605 55.3558C104.605 55.3558 105.623 54.8428 107.566 54.0197C112.237 51.2604 131.397 41.0136 167.019 35.4823C167.019 35.4823 162.465 34.9439 156.896 34.9439C151.204 34.9439 140.006 36.8583 140.006 36.8583C148.116 33.171 163.399 29.5958 182.298 27.7828C182.298 27.7828 153.42 24.3727 118.46 35.2777C118.16 35.4046 117.998 35.4771 117.998 35.4771C117.998 35.4771 121.684 32.8193 125.849 30.0691C128.918 28.0423 133.359 24.8787 133.359 24.8787C133.359 24.8787 115.429 29.1519 91.1421 40.6277C84.2947 43.862 80.6786 45.7874 80.6786 45.7874C81.7297 44.5782 86.6009 40.3252 87.7793 38.8129C69.7565 47.6092 63.1769 53.4289 52.4676 64.727C42.9152 74.809 43.3487 76.5656 28.8506 84.365C28.8506 84.365 39.5308 88.7287 50.3491 81.7162C52.2217 80.5052 53.9868 78.8029 55.6629 77.0242C59.49 72.6062 58.224 68.0739 63.3044 64.8177C62.5794 66.4983 61.3862 68.6302 61.2787 70.8295C63.7197 67.4828 68.5434 63.0773 73.9117 59.8902C87.5629 51.7901 96.6216 50.3942 96.6216 50.3942C96.2719 50.5157 95.9349 50.6389 95.5942 50.7622C76.9374 58.4816 73.8917 68.5706 73.7967 69.6295C73.5945 71.9048 80.5403 66.8086 86.22 66.1197C80.2449 68.2191 75.1172 73.2754 72.6346 79.1148C71.5817 81.5877 71.2611 84.405 68.3119 86.6079C67.4795 87.362 66.3883 88.1053 64.9347 88.7598C61.013 90.5238 58.3005 89.6336 57.3824 89.0227C56.8305 88.6583 56.4898 88.0401 56.4898 88.0401C58.3897 88.5731 60.9729 88.109 63.3301 86.6278C65.0716 85.5346 66.3649 84.0897 67.0606 82.625C67.0623 82.625 67.0642 82.625 67.0661 82.6267C67.445 81.8454 68.1554 80.3189 67.1116 78.3754C66.5815 77.3837 65.4813 76.8489 64.2262 76.6531C64.3045 76.4446 64.9585 74.7912 67.006 72.3475C64.2243 74.338 62.4226 76.731 61.4865 77.8136C62.8016 77.9604 63.9383 78.5732 64.5741 79.6247C65.8292 81.7077 64.6597 84.6917 61.9601 86.2925C59.2604 87.8969 56.0562 87.5072 54.7995 85.4278C54.6429 85.1667 54.5245 84.8857 54.4407 84.5992C54.2967 84.6808 54.1565 84.766 54.0108 84.8404C53.1655 85.2755 51.4624 85.9952 51.4624 85.9952C52.2693 86.1819 53.3495 86.2635 54.0217 86.1366C54.2439 89.079 56.0929 93.8091 66.5016 91.1367C63.5287 94.0483 56.3662 93.8561 52.0254 91.5935C52.6156 92.0323 53.2969 92.5 54.1075 93.0004C67.1612 101.072 82.1932 93.4736 85.8634 91.3706C86.7596 90.7995 87.665 90.2828 88.5812 89.8332C88.5812 89.8332 84.7778 93.1726 82.2 98.3521C86.7741 92.5306 100.061 83.1978 117.879 85.3534" fill="white"/>
<path d="M117.88 85.3527C117.88 85.3527 108.557 80.8458 93.8567 85.6264C93.8567 85.6264 114.135 73.661 139.804 78.7499C123.149 73.1823 108.155 75.8275 99.3007 78.7916C94.1074 80.7859 91.0216 82.4356 91.0216 82.4356C91.0216 82.4356 92.3223 81.4892 94.7542 80.0533C100.767 75.6515 109.019 70.8855 117.184 67.5387C122.85 65.2163 134.143 62.214 138.735 61.9513C138.735 61.9513 126.924 59.9607 116.149 62.6638C116.149 62.6638 133.208 56.0394 149.761 55.6731C155.304 55.5498 167.988 56.2188 167.988 56.2188C149.694 50.8144 130.733 49.7501 117.777 51.7281C110.414 53.5447 104.605 55.3558 104.605 55.3558C104.605 55.3558 105.623 54.8428 107.566 54.0197C112.237 51.2604 131.397 41.0136 167.019 35.4823C167.019 35.4823 162.465 34.9439 156.896 34.9439C151.204 34.9439 140.006 36.8583 140.006 36.8583C148.116 33.171 163.399 29.5958 182.298 27.7828C182.298 27.7828 153.42 24.3727 118.46 35.2777C118.16 35.4046 117.998 35.4771 117.998 35.4771C117.998 35.4771 121.684 32.8193 125.849 30.0691C128.918 28.0423 133.359 24.8787 133.359 24.8787C133.359 24.8787 115.429 29.1519 91.1421 40.6277C84.2947 43.862 80.6786 45.7874 80.6786 45.7874C81.7297 44.5782 86.6009 40.3252 87.7793 38.8129C69.7565 47.6092 63.1769 53.4289 52.4676 64.727C42.9152 74.809 43.3487 76.5656 28.8506 84.365C28.8506 84.365 39.5308 88.7287 50.3491 81.7162C52.2217 80.5052 53.9868 78.8029 55.6629 77.0242C59.49 72.6062 58.224 68.0739 63.3044 64.8177C62.5794 66.4983 61.3862 68.6302 61.2787 70.8295C63.7197 67.4828 68.5434 63.0773 73.9117 59.8902C87.5629 51.7902 96.6216 50.3942 96.6216 50.3942C96.2719 50.5157 95.9349 50.6389 95.5942 50.7622C76.9374 58.4816 73.8917 68.5706 73.7967 69.6295C73.5945 71.9048 80.5403 66.8086 86.22 66.1197C80.2449 68.2191 75.1172 73.2754 72.6346 79.1148C71.5817 81.5877 71.2611 84.405 68.3119 86.6079C67.4795 87.362 66.3883 88.1053 64.9347 88.7598C61.013 90.5238 58.3005 89.6336 57.3824 89.0227C56.8305 88.6583 56.4898 88.0401 56.4898 88.0401C58.3897 88.5731 60.9729 88.109 63.3301 86.6278C65.0716 85.5346 66.3649 84.0897 67.0606 82.625C67.0623 82.625 67.0642 82.625 67.0661 82.6267C67.445 81.8454 68.1554 80.3189 67.1116 78.3754C66.5815 77.3837 65.4813 76.8489 64.2262 76.6531C64.3045 76.4446 64.9585 74.7912 67.006 72.3475C64.2243 74.338 62.4226 76.731 61.4865 77.8136C62.8016 77.9604 63.9383 78.5732 64.5741 79.6247C65.8292 81.7077 64.6597 84.6917 61.9601 86.2925C59.2604 87.8969 56.0562 87.5072 54.7995 85.4278C54.6429 85.1667 54.5245 84.8857 54.4407 84.5992C54.2967 84.6808 54.1565 84.766 54.0108 84.8404C53.1655 85.2755 51.4624 85.9952 51.4624 85.9952C52.2693 86.1819 53.3495 86.2635 54.0217 86.1366C54.2439 89.079 56.0929 93.8091 66.5016 91.1367C63.5287 94.0483 56.3662 93.8561 52.0254 91.5935C52.6156 92.0323 53.2969 92.5 54.1075 93.0004C67.1612 101.072 82.1932 93.4736 85.8634 91.3706C86.7596 90.7995 87.665 90.2828 88.5812 89.8332C88.5812 89.8332 84.7778 93.1726 82.2 98.3521C86.7741 92.5306 100.061 83.1978 117.879 85.3534" stroke="white" stroke-width="0.312498"/>
<path d="M70.1545 72.5495C70.6555 74.4675 74.0019 72.486 74.0019 72.486C74.0019 72.486 69.477 76.2985 67.6645 80.4141C67.6536 80.6407 67.6645 81.4656 67.0688 82.6259C67.5097 82.7274 67.9687 82.7926 68.3549 82.7509C69.5262 82.624 70.8979 81.801 70.8979 81.801C70.8979 81.801 70.9252 84.2448 68.3148 86.6072C71.264 84.4045 71.5846 81.587 72.6375 79.1141C75.1203 73.2747 80.2482 68.2186 86.2228 66.119C80.5432 66.8079 73.5974 71.9041 73.7996 69.6288C73.8944 68.5701 76.9401 58.4812 95.5971 50.7615C95.4058 50.8286 94.9486 50.9917 94.9122 51.0063C77.8146 57.3551 68.8249 67.4423 70.155 72.5495" fill="#A5ACAF"/>
<path d="M63.0353 80.3401C63.9224 81.8122 63.0408 83.9551 61.0644 85.1297C59.0879 86.3027 56.7672 86.0616 55.8782 84.5877C55.7415 84.3629 55.6596 84.1181 55.6049 83.8661C55.2297 84.1308 54.8417 84.3756 54.4409 84.5986C54.5247 84.885 54.6431 85.166 54.7998 85.4271C56.0567 87.5065 59.261 87.8963 61.9603 86.2918C64.66 84.691 65.8296 81.707 64.5743 79.624C63.9386 78.5725 62.8019 77.9597 61.4867 77.8129C61.1843 78.1881 60.8455 78.616 60.4757 79.0692C61.5687 79.0819 62.5344 79.508 63.0353 80.3401Z" fill="#004C54"/>
<path d="M61.0658 85.1272C63.0422 83.9525 63.9239 81.8096 63.0368 80.3376C62.5358 79.5055 61.5704 79.0795 60.4774 79.0668C59.716 80.0004 58.8125 81.0483 57.776 82.0472C57.725 82.8794 57.9163 83.9363 58.9455 84.7104C58.9455 84.7104 57.7723 84.8065 57.0091 84.2463C56.5755 83.9272 56.3897 83.5502 56.3132 83.3326C56.0837 83.5175 55.8469 83.6934 55.6064 83.8638C55.6611 84.1158 55.7431 84.3605 55.8797 84.5853C56.7686 86.0593 59.0893 86.3002 61.0658 85.1272Z" fill="black"/>
<path d="M57.0103 84.2459C57.7736 84.8061 58.9467 84.71 58.9467 84.71C57.9175 83.9359 57.7262 82.879 57.7772 82.0468C57.3145 82.4928 56.8282 82.9261 56.3145 83.3322C56.391 83.5498 56.5768 83.9269 57.0103 84.2459Z" fill="white"/>
<path d="M167.989 56.2175C167.989 56.2175 155.305 55.5485 149.762 55.6718C133.209 56.038 116.15 62.6625 116.15 62.6625C126.924 59.9594 138.736 61.95 138.736 61.95C134.143 62.2129 122.851 65.2151 117.184 67.5374C109.02 70.884 100.768 75.6501 94.7549 80.052C104.38 74.3723 131.751 61.0218 166.488 68.3876C166.488 68.3876 168.757 66.649 174.801 60.0482C181.212 53.0522 182.576 48.7353 182.576 48.7353C182.576 48.7353 153.088 45.5844 131.738 48.8531C127.133 49.5565 122.178 50.6443 117.777 51.7266C130.734 49.7487 149.695 50.8129 167.988 56.2173" fill="#A5ACAF"/>
<path d="M99.9358 91.0634C124.041 85.1115 140.793 92.3269 142.805 99.9069C142.805 99.9069 142.887 99.867 143.042 99.7836C144.018 99.2561 147.763 97.6661 153.401 92.1457C159.321 86.3461 163.032 81.6943 164.498 78.5633C139.841 66.2626 112.629 73.6665 99.3002 78.7899C108.153 75.8257 123.147 73.1806 139.803 78.7482C114.135 73.6593 93.8562 85.6247 93.8562 85.6247C108.557 80.8439 117.879 85.3509 117.879 85.3509C100.06 83.1954 86.7736 92.5285 82.2008 98.3496C81.8493 99.062 81.5178 99.8053 81.2227 100.581C85.3487 96.7124 89.7603 93.5743 99.9358 91.0634Z" fill="#A5ACAF"/>
<path d="M182.298 27.7802C163.399 29.5931 148.115 33.1684 140.006 36.8557C140.006 36.8557 151.204 34.9413 156.896 34.9413C162.465 34.9413 167.019 35.4797 167.019 35.4797C131.397 41.011 112.238 51.2576 107.566 54.0171C112.299 52.021 122.547 48.172 137.22 45.2786C151.061 42.5501 167.142 41.8721 173.618 41.2303C182.85 32.3543 186.475 21.1503 186.475 21.1503C186.475 21.1503 170.397 22.4411 152.149 25.8113C133.171 29.3175 120.906 34.2435 118.46 35.2749C153.42 24.3702 182.297 27.7801 182.297 27.7801" fill="#A5ACAF"/>
<path d="M86.3701 100.68C86.3701 100.68 92.445 96.131 102.755 97.7809C118.008 100.221 117.571 109.784 117.571 109.784C117.571 109.784 124.436 106.846 127.908 100.836C127.908 100.836 123.602 96.7459 115.814 95.3771C95.5092 91.8076 86.3701 100.68 86.3701 100.68Z" fill="#A5ACAF"/>
<path d="M38.3622 96.8057C36.8539 97.2517 33.595 97.7122 35.1434 95.4025C35.1434 95.4025 37.1034 94.351 39.7246 92.9985C40.8522 93.9177 42.0235 94.5595 45.0893 94.8513C45.0893 94.8513 39.5845 96.4431 38.3622 96.8057ZM44.6903 89.6429C40.7739 90.8358 35.8062 90.495 33.0647 89.7553C29.9042 91.9236 18.5248 96.7714 11.2856 108.967C11.6591 113.101 12.089 118.391 13.7958 121.291C20.7562 132.232 32.9152 128.188 32.9152 128.188C32.9152 128.188 14.4422 120.029 34.1885 108.137C40.4929 104.34 57.933 101.49 68.3345 104.819C69.2216 105.143 70.3182 105.919 70.2435 106.117C69.1651 111.387 64.7988 126.144 57.5596 130.34C53.5575 124.524 64.119 111.168 53.3464 110.658C53.3464 110.658 56.026 114.794 54.871 120.349C54.3628 122.787 52.6942 129.297 55.6762 136.034C55.6762 136.034 72.0523 126.286 76.9123 103.787C77.5426 101.572 77.9689 99.6937 78.9361 97.9932C57.8948 106.246 44.6899 89.6428 44.6899 89.6428" fill="#A5ACAF"/>
<path d="M35.1441 95.4029C33.5958 97.7126 36.8546 97.2521 38.3629 96.8061C39.5852 96.4436 45.0902 94.8518 45.0902 94.8518C42.0244 94.5599 40.8532 93.9182 39.7255 92.999C37.1042 94.3514 35.1441 95.4029 35.1441 95.4029Z" fill="black"/>
</svg>
