<?xml version="1.0" encoding="utf-8"?>
<!-- Generator: Adobe Illustrator 27.0.0, SVG Export Plug-In . SVG Version: 6.00 Build 0)  -->
<svg version="1.1" id="Layer_1" xmlns="http://www.w3.org/2000/svg" xmlns:xlink="http://www.w3.org/1999/xlink" x="0px" y="0px"
	 viewBox="0 0 570 293" style="enable-background:new 0 0 570 293; rotate: 90deg" xml:space="preserve">
<style type="text/css">
	.st0{clip-path:url(#SVGID_00000136384757461278351350000003895924933072852112_);}
	.st1{fill:#44A448;}
	.st2{fill:#46933B;}
	.st3{fill:#FFFFFF;}
</style>
<g>
	<defs>
		<rect id="SVGID_1_" x="0.1691914" y="0.3964464" width="570" height="292.8850098"/>
	</defs>
	<clipPath id="SVGID_00000057862485161344760400000011579910983754722952_">
		<use xlink:href="#SVGID_1_"  style="overflow:visible;"/>
	</clipPath>
	<g style="clip-path:url(#SVGID_00000057862485161344760400000011579910983754722952_);">
		<path class="st1" d="M1.8751851,292.3704834h565.8224487V2.5434198L1.8751851,2.5433898V292.3704834z"/>
		<path class="st2" d="M486.5964966,292.3704834h81.1011353V2.5434198h-81.1011353V292.3704834z"/>
		<path class="st2" d="M1.8751851,292.3704834h79.2149963V2.5434198H1.8751851V292.3704834z"/>
		<path class="st3" d="M1.8751851,0.0459799l565.8223877,0.000025c0.4168701,0,0.8166504,0.166118,1.1113892,0.461806
			c0.2947388,0.295687,0.4603271,0.696721,0.4603271,1.1148889v290.7417603c0,0.4179993-0.1655884,0.8190002-0.4603271,1.1150208
			c-0.2947998,0.29599-0.694519,0.4619751-1.1113892,0.4619751H1.8751851c-0.4169922,0-0.8170166-0.1659851-1.1110229-0.4619751
			c-0.2949829-0.2960205-0.4609985-0.6970215-0.4609985-1.1150208V1.6226699c0-0.4181631,0.1660156-0.8191971,0.4609985-1.1148841
			C1.0581685,0.2120989,1.4581929,0.0459799,1.8751851,0.0459799z M566.1258545,3.1993899L3.4472065,3.1993599v287.5881042
			l562.6786499,0.0010071V3.1993899z"/>
		<path class="st3" d="M487.3132019-0.3547491c0.2214966,0,0.4338989,0.166217,0.5904846,0.462077
			c0.1566162,0.2958605,0.2445984,0.69713,0.2445984,1.1155391v290.9125977c0,0.4179993-0.0879822,0.8190002-0.2445984,1.1150208
			c-0.1565857,0.29599-0.368988,0.4619751-0.5904846,0.4619751s-0.434021-0.1659851-0.5906067-0.4619751
			c-0.1566162-0.2960205-0.2445984-0.6970215-0.2445984-1.1150208V1.2228669c0-0.418409,0.0879822-0.8196787,0.2445984-1.1155391
			C486.8791809-0.1885322,487.0917053-0.3547491,487.3132019-0.3547491z"/>
		<path class="st3" d="M444.7201843-0.3547491c0.2210083,0,0.434021,0.166217,0.5899963,0.462077
			c0.1570129,0.2958605,0.2450256,0.69713,0.2450256,1.1155391v290.9125977c0,0.4179993-0.0880127,0.8190002-0.2450256,1.1150208
			c-0.1559753,0.29599-0.368988,0.4619751-0.5899963,0.4619751c-0.2219849,0-0.4339905-0.1659851-0.5910034-0.4619751
			c-0.1559753-0.2960205-0.243988-0.6970215-0.243988-1.1150208V1.2228669c0-0.418409,0.0880127-0.8196787,0.243988-1.1155391
			C444.2861938-0.1885322,444.4981995-0.3547491,444.7201843-0.3547491z"/>
		<path class="st3" d="M403.7972107-0.3547491c0.2209778,0,0.4339905,0.166217,0.5899963,0.462077
			c0.1569824,0.2958605,0.2449951,0.69713,0.2449951,1.1155391v290.9125977c0,0.4179993-0.0880127,0.8190002-0.2449951,1.1150208
			c-0.1560059,0.29599-0.3690186,0.4619751-0.5899963,0.4619751c-0.2220154,0-0.434021-0.1659851-0.5910034-0.4619751
			c-0.1560059-0.2960205-0.2440186-0.6970215-0.2440186-1.1150208V1.2228669c0-0.418409,0.0880127-0.8196787,0.2440186-1.1155391
			C403.3631897-0.1885322,403.5751953-0.3547491,403.7972107-0.3547491z"/>
		<path class="st3" d="M362.8742065-0.3547491c0.2219849,0,0.4339905,0.166217,0.5910034,0.462077
			c0.1559753,0.2958605,0.243988,0.69713,0.243988,1.1155391v290.9125977c0,0.4179993-0.0880127,0.8190002-0.243988,1.1150208
			c-0.1570129,0.29599-0.3700256,0.4619751-0.5910034,0.4619751c-0.2220154,0-0.434021-0.1659851-0.5910034-0.4619751
			c-0.1560059-0.2960205-0.2440186-0.6970215-0.2440186-1.1150208V1.2228669c0-0.418409,0.0880127-0.8196787,0.2440186-1.1155391
			C362.4401855-0.1885322,362.6531982-0.3547491,362.8742065-0.3547491z"/>
		<path class="st3" d="M322.7861938-0.3547491c0.2220154,0,0.4339905,0.166217,0.5910034,0.462077
			c0.1560059,0.2958605,0.243988,0.69713,0.243988,1.1155391v290.9125977c0,0.4179993-0.0879822,0.8190002-0.243988,1.1150208
			c-0.1570129,0.29599-0.368988,0.4619751-0.5910034,0.4619751c-0.2210083,0-0.4339905-0.1659851-0.5899963-0.4619751
			c-0.1570129-0.2960205-0.2449951-0.6970215-0.2449951-1.1150208V1.2228669c0-0.418409,0.0879822-0.8196787,0.2449951-1.1155391
			C322.3522034-0.1885322,322.5651855-0.3547491,322.7861938-0.3547491z"/>
		<path class="st3" d="M282.6981812-0.3547491c0.2220154,0,0.434021,0.166217,0.5910034,0.462077
			c0.1570129,0.2958605,0.2449951,0.69713,0.2449951,1.1155391v290.9125977c0,0.4179993-0.0879822,0.8190002-0.2449951,1.1150208
			c-0.1569824,0.29599-0.368988,0.4619751-0.5910034,0.4619751c-0.2209778,0-0.4339905-0.1659851-0.5899963-0.4619751
			c-0.1569824-0.2960205-0.2449951-0.6970215-0.2449951-1.1150208V1.2228669c0-0.418409,0.0880127-0.8196787,0.2449951-1.1155391
			C282.2641907-0.1885322,282.4772034-0.3547491,282.6981812-0.3547491z"/>
		<path class="st3" d="M241.775177-0.3547491c0.2220154,0,0.434021,0.166217,0.5910034,0.462077
			c0.1570129,0.2958605,0.2449951,0.69713,0.2449951,1.1155391v290.9125977c0,0.4179993-0.0879822,0.8190002-0.2449951,1.1150208
			c-0.1569824,0.29599-0.368988,0.4619751-0.5910034,0.4619751c-0.2209778,0-0.4329834-0.1659851-0.5899963-0.4619751
			c-0.1569824-0.2960205-0.2449951-0.6970215-0.2449951-1.1150208V1.2228669c0-0.418409,0.0880127-0.8196787,0.2449951-1.1155391
			C241.3421936-0.1885322,241.5541992-0.3547491,241.775177-0.3547491z"/>
		<path class="st3" d="M202.5231934-0.3547491c0.2210083,0,0.4339905,0.166217,0.5899963,0.462077
			c0.1570129,0.2958605,0.2449951,0.69713,0.2449951,1.1155391v290.9125977c0,0.4179993-0.0879822,0.8190002-0.2449951,1.1150208
			c-0.1560059,0.29599-0.368988,0.4619751-0.5899963,0.4619751c-0.2220154,0-0.4339905-0.1659851-0.5910034-0.4619751
			c-0.1560059-0.2960205-0.243988-0.6970215-0.243988-1.1150208V1.2228669c0-0.418409,0.0879822-0.8196787,0.243988-1.1155391
			C202.0892029-0.1885322,202.301178-0.3547491,202.5231934-0.3547491z"/>
		<path class="st3" d="M163.2702026-0.3547491c0.2219849,0,0.4339905,0.166217,0.5909729,0.462077
			c0.1560059,0.2958605,0.2440186,0.69713,0.2440186,1.1155391v290.9125977c0,0.4179993-0.0880127,0.8190002-0.2440186,1.1150208
			c-0.1569824,0.29599-0.368988,0.4619751-0.5909729,0.4619751c-0.2210083,0-0.434021-0.1659851-0.5900269-0.4619751
			c-0.1569824-0.2960205-0.2449951-0.6970215-0.2449951-1.1150208V1.2228669c0-0.418409,0.0880127-0.8196787,0.2449951-1.1155391
			C162.8361816-0.1885322,163.0491943-0.3547491,163.2702026-0.3547491z"/>
		<path class="st3" d="M122.3471985-0.3547491c0.2219849,0,0.4339905,0.166217,0.5910034,0.462077
			c0.1559753,0.2958605,0.243988,0.69713,0.243988,1.1155391v290.9125977c0,0.4179993-0.0880127,0.8190002-0.243988,1.1150208
			c-0.1570129,0.29599-0.3690186,0.4619751-0.5910034,0.4619751c-0.2210083,0-0.434021-0.1659851-0.5899963-0.4619751
			c-0.1570129-0.2960205-0.2450256-0.6970215-0.2450256-1.1150208V1.2228669c0-0.418409,0.0880127-0.8196787,0.2450256-1.1155391
			C121.9131775-0.1885322,122.1261902-0.3547491,122.3471985-0.3547491z"/>
		<path class="st3" d="M80.5892029-0.3547491c0.2219849,0,0.4339905,0.166217,0.5909729,0.462077
			c0.1560059,0.2958605,0.2440186,0.69713,0.2440186,1.1155391v290.9125977c0,0.4179993-0.0880127,0.8190002-0.2440186,1.1150208
			c-0.1569824,0.29599-0.368988,0.4619751-0.5909729,0.4619751c-0.2210083,0-0.434021-0.1659851-0.5900269-0.4619751
			c-0.1569824-0.2960205-0.2449951-0.6970215-0.2449951-1.1150208V1.2228669c0-0.418409,0.0880127-0.8196787,0.2449951-1.1155391
			C80.1551819-0.1885322,80.3681946-0.3547491,80.5892029-0.3547491z"/>
		<path class="st3" d="M40.2252235,124.2884674c0.4169922,0,0.8169556,0.1669998,1.1119995,0.4620056
			c0.2939453,0.2959976,0.4599609,0.6969986,0.4599609,1.1149979v43.5170059c0,0.4179993-0.1660156,0.8190002-0.4599609,1.1150055
			c-0.2950439,0.2949982-0.6950073,0.4609985-1.1119995,0.4609985c-0.4170532,0-0.81604-0.1660004-1.1110229-0.4609985
			c-0.2949829-0.2960052-0.460022-0.6970062-0.460022-1.1150055v-43.5170059c0-0.4179993,0.1650391-0.8190002,0.460022-1.1149979
			C39.4091835,124.4554672,39.8081703,124.2884674,40.2252235,124.2884674z"/>
		<path class="st3" d="M525.5753174,124.2884674c0.416748,0,0.8165894,0.1669998,1.1112671,0.4620056
			c0.2947998,0.2959976,0.4603882,0.6969986,0.4603882,1.1149979v43.5170059c0,0.4179993-0.1655884,0.8190002-0.4603882,1.1150055
			c-0.2946777,0.2949982-0.694519,0.4609985-1.1112671,0.4609985c-0.4169312,0-0.8167114-0.1660004-1.1114502-0.4609985
			c-0.2947998-0.2960052-0.4603882-0.6970062-0.4603882-1.1150055v-43.5170059c0-0.4179993,0.1655884-0.8190002,0.4603882-1.1149979
			C524.758606,124.4554672,525.1583862,124.2884674,525.5753174,124.2884674z"/>
		<path class="st3" d="M477.1659851,193.0334778c0.4168091,0,0.8166199,0.1660004,1.1112976,0.4620056
			c0.2947998,0.29599,0.4604187,0.696991,0.4604187,1.1149902v5.6760101c0,0.4179993-0.1656189,0.8190002-0.4604187,1.1149902
			c-0.2946777,0.2960052-0.6944885,0.4620056-1.1112976,0.4620056c-0.4169006,0-0.8166809-0.1660004-1.1113892-0.4620056
			c-0.2947998-0.29599-0.4603882-0.696991-0.4603882-1.1149902v-5.6760101c0-0.4179993,0.1655884-0.8190002,0.4603882-1.1149902
			C476.3493042,193.1994781,476.7490845,193.0334778,477.1659851,193.0334778z"/>
		<path class="st3" d="M468.9931946,193.0334778c0.4169922,0,0.8160095,0.1660004,1.1109924,0.4620056
			c0.2948914,0.29599,0.4605103,0.696991,0.4605103,1.1149902v5.6760101c0,0.4179993-0.1656189,0.8190002-0.4605103,1.1149902
			c-0.2949829,0.2960052-0.6940002,0.4620056-1.1109924,0.4620056s-0.8169861-0.1660004-1.1119995-0.4620056
			c-0.2940063-0.29599-0.4599915-0.696991-0.4599915-1.1149902v-5.6760101c0-0.4179993,0.1659851-0.8190002,0.4599915-1.1149902
			C468.1762085,193.1994781,468.5762024,193.0334778,468.9931946,193.0334778z"/>
		<path class="st3" d="M460.8201904,193.0334778c0.4169922,0,0.8160095,0.1660004,1.1109924,0.4620056
			c0.2950134,0.29599,0.4609985,0.696991,0.4609985,1.1149902v5.6760101c0,0.4179993-0.1659851,0.8190002-0.4609985,1.1149902
			c-0.2949829,0.2960052-0.6940002,0.4620056-1.1109924,0.4620056s-0.8169861-0.1660004-1.1119995-0.4620056
			c-0.2940063-0.29599-0.4599915-0.696991-0.4599915-1.1149902v-5.6760101c0-0.4179993,0.1659851-0.8190002,0.4599915-1.1149902
			C460.0032043,193.1994781,460.4031982,193.0334778,460.8201904,193.0334778z"/>
		<path class="st3" d="M452.6471863,193.0334778c0.4169922,0,0.8160095,0.1660004,1.1109924,0.4620056
			c0.2950134,0.29599,0.4610291,0.696991,0.4610291,1.1149902v5.6760101c0,0.4179993-0.1660156,0.8190002-0.4610291,1.1149902
			c-0.2949829,0.2960052-0.6940002,0.4620056-1.1109924,0.4620056s-0.8169861-0.1660004-1.1119995-0.4620056
			c-0.2940063-0.29599-0.4599915-0.696991-0.4599915-1.1149902v-5.6760101c0-0.4179993,0.1659851-0.8190002,0.4599915-1.1149902
			C451.8302002,193.1994781,452.2301941,193.0334778,452.6471863,193.0334778z"/>
		<path class="st3" d="M435.6722107,193.0334778c0.4169922,0,0.8169861,0.1660004,1.1119995,0.4620056
			c0.2939758,0.29599,0.4599915,0.696991,0.4599915,1.1149902v5.6760101c0,0.4179993-0.1660156,0.8190002-0.4599915,1.1149902
			c-0.2950134,0.2960052-0.6950073,0.4620056-1.1119995,0.4620056c-0.4170227,0-0.8160095-0.1660004-1.1110229-0.4620056
			c-0.2949829-0.29599-0.4609985-0.696991-0.4609985-1.1149902v-5.6760101c0-0.4179993,0.1660156-0.8190002,0.4609985-1.1149902
			C434.8562012,193.1994781,435.255188,193.0334778,435.6722107,193.0334778z"/>
		<path class="st3" d="M427.4992065,193.0334778c0.4169922,0,0.8169861,0.1660004,1.1119995,0.4620056
			c0.2939758,0.29599,0.4599915,0.696991,0.4599915,1.1149902v5.6760101c0,0.4179993-0.1660156,0.8190002-0.4599915,1.1149902
			c-0.2950134,0.2960052-0.6950073,0.4620056-1.1119995,0.4620056c-0.4170227,0-0.8160095-0.1660004-1.1110229-0.4620056
			c-0.2949829-0.29599-0.4609985-0.696991-0.4609985-1.1149902v-5.6760101c0-0.4179993,0.1660156-0.8190002,0.4609985-1.1149902
			C426.683197,193.1994781,427.0821838,193.0334778,427.4992065,193.0334778z"/>
		<path class="st3" d="M419.3262024,193.0334778c0.4169922,0,0.8169861,0.1660004,1.1119995,0.4620056
			c0.2940063,0.29599,0.4599915,0.696991,0.4599915,1.1149902v5.6760101c0,0.4179993-0.1659851,0.8190002-0.4599915,1.1149902
			c-0.2950134,0.2960052-0.6950073,0.4620056-1.1119995,0.4620056s-0.8160095-0.1660004-1.1109924-0.4620056
			c-0.2950134-0.29599-0.460022-0.696991-0.460022-1.1149902v-5.6760101c0-0.4179993,0.1650085-0.8190002,0.460022-1.1149902
			C418.5101929,193.1994781,418.9092102,193.0334778,419.3262024,193.0334778z"/>
		<path class="st3" d="M411.1531982,193.0334778c0.4169922,0,0.8169861,0.1660004,1.1119995,0.4620056
			c0.2940063,0.29599,0.4599915,0.696991,0.4599915,1.1149902v5.6760101c0,0.4179993-0.1659851,0.8190002-0.4599915,1.1149902
			c-0.2950134,0.2960052-0.6950073,0.4620056-1.1119995,0.4620056s-0.8160095-0.1660004-1.1109924-0.4620056
			c-0.2950134-0.29599-0.4609985-0.696991-0.4609985-1.1149902v-5.6760101c0-0.4179993,0.1659851-0.8190002,0.4609985-1.1149902
			C410.3371887,193.1994781,410.7362061,193.0334778,411.1531982,193.0334778z"/>
		<path class="st3" d="M395.4361877,193.0334778c0.4170227,0,0.8170166,0.1660004,1.1110229,0.4620056
			c0.2949829,0.29599,0.4609985,0.696991,0.4609985,1.1149902v5.6760101c0,0.4179993-0.1660156,0.8190002-0.4609985,1.1149902
			c-0.2940063,0.2960052-0.6940002,0.4620056-1.1110229,0.4620056c-0.4169922,0-0.8169861-0.1660004-1.1109924-0.4620056
			c-0.2950134-0.29599-0.4609985-0.696991-0.4609985-1.1149902v-5.6760101c0-0.4179993,0.1659851-0.8190002,0.4609985-1.1149902
			C394.6192017,193.1994781,395.0191956,193.0334778,395.4361877,193.0334778z"/>
		<path class="st3" d="M387.2631836,193.0334778c0.4170227,0,0.8170166,0.1660004,1.1110229,0.4620056
			c0.2949829,0.29599,0.4609985,0.696991,0.4609985,1.1149902v5.6760101c0,0.4179993-0.1660156,0.8190002-0.4609985,1.1149902
			c-0.2940063,0.2960052-0.6940002,0.4620056-1.1110229,0.4620056c-0.4169922,0-0.8169861-0.1660004-1.1109924-0.4620056
			c-0.2949829-0.29599-0.4609985-0.696991-0.4609985-1.1149902v-5.6760101c0-0.4179993,0.1660156-0.8190002,0.4609985-1.1149902
			C386.4461975,193.1994781,386.8461914,193.0334778,387.2631836,193.0334778z"/>
		<path class="st3" d="M379.09021,193.0334778c0.4169922,0,0.8169861,0.1660004,1.1109924,0.4620056
			c0.2949829,0.29599,0.4609985,0.696991,0.4609985,1.1149902v5.6760101c0,0.4179993-0.1660156,0.8190002-0.4609985,1.1149902
			c-0.2940063,0.2960052-0.6940002,0.4620056-1.1109924,0.4620056c-0.4170227,0-0.8170166-0.1660004-1.1110229-0.4620056
			c-0.2949829-0.29599-0.4609985-0.696991-0.4609985-1.1149902v-5.6760101c0-0.4179993,0.1660156-0.8190002,0.4609985-1.1149902
			C378.2731934,193.1994781,378.6731873,193.0334778,379.09021,193.0334778z"/>
		<path class="st3" d="M370.9172058,193.0334778c0.4169922,0,0.8169861,0.1660004,1.1109924,0.4620056
			c0.2950134,0.29599,0.4609985,0.696991,0.4609985,1.1149902v5.6760101c0,0.4179993-0.1659851,0.8190002-0.4609985,1.1149902
			c-0.2940063,0.2960052-0.6940002,0.4620056-1.1109924,0.4620056c-0.4170227,0-0.8170166-0.1660004-1.1110229-0.4620056
			c-0.2949829-0.29599-0.4609985-0.696991-0.4609985-1.1149902v-5.6760101c0-0.4179993,0.1660156-0.8190002,0.4609985-1.1149902
			C370.1001892,193.1994781,370.5001831,193.0334778,370.9172058,193.0334778z"/>
		<path class="st3" d="M355.2001953,193.0334778c0.4169922,0,0.8160095,0.1660004,1.1109924,0.4620056
			c0.2950134,0.29599,0.460022,0.696991,0.460022,1.1149902v5.6760101c0,0.4179993-0.1650085,0.8190002-0.460022,1.1149902
			c-0.2949829,0.2960052-0.6940002,0.4620056-1.1109924,0.4620056s-0.8169861-0.1660004-1.1119995-0.4620056
			c-0.2940063-0.29599-0.4599915-0.696991-0.4599915-1.1149902v-5.6760101c0-0.4179993,0.1659851-0.8190002,0.4599915-1.1149902
			C354.3832092,193.1994781,354.7832031,193.0334778,355.2001953,193.0334778z"/>
		<path class="st3" d="M347.0271912,193.0334778c0.4169922,0,0.8160095,0.1660004,1.1109924,0.4620056
			c0.2950134,0.29599,0.460022,0.696991,0.460022,1.1149902v5.6760101c0,0.4179993-0.1650085,0.8190002-0.460022,1.1149902
			c-0.2949829,0.2960052-0.6940002,0.4620056-1.1109924,0.4620056s-0.8169861-0.1660004-1.1119995-0.4620056
			c-0.2940063-0.29599-0.4599915-0.696991-0.4599915-1.1149902v-5.6760101c0-0.4179993,0.1659851-0.8190002,0.4599915-1.1149902
			C346.2102051,193.1994781,346.610199,193.0334778,347.0271912,193.0334778z"/>
		<path class="st3" d="M338.854187,193.0334778c0.4170227,0,0.8160095,0.1660004,1.1110229,0.4620056
			c0.2949829,0.29599,0.4599915,0.696991,0.4599915,1.1149902v5.6760101c0,0.4179993-0.1650085,0.8190002-0.4599915,1.1149902
			c-0.2950134,0.2960052-0.6940002,0.4620056-1.1110229,0.4620056c-0.4169922,0-0.8169861-0.1660004-1.1119995-0.4620056
			c-0.2939758-0.29599-0.4599915-0.696991-0.4599915-1.1149902v-5.6760101c0-0.4179993,0.1660156-0.8190002,0.4599915-1.1149902
			C338.0372009,193.1994781,338.4371948,193.0334778,338.854187,193.0334778z"/>
		<path class="st3" d="M330.6811829,193.0334778c0.4170227,0,0.8160095,0.1660004,1.1110229,0.4620056
			c0.2949829,0.29599,0.4599915,0.696991,0.4599915,1.1149902v5.6760101c0,0.4179993-0.1650085,0.8190002-0.4599915,1.1149902
			c-0.2950134,0.2960052-0.6940002,0.4620056-1.1110229,0.4620056c-0.4169922,0-0.8169861-0.1660004-1.1119995-0.4620056
			c-0.2939758-0.29599-0.4599915-0.696991-0.4599915-1.1149902v-5.6760101c0-0.4179993,0.1660156-0.8190002,0.4599915-1.1149902
			C329.8641968,193.1994781,330.2641907,193.0334778,330.6811829,193.0334778z"/>
		<path class="st3" d="M313.7061768,193.0334778c0.4170227,0,0.8170166,0.1660004,1.1110229,0.4620056
			c0.2949829,0.29599,0.4609985,0.696991,0.4609985,1.1149902v5.6760101c0,0.4179993-0.1660156,0.8190002-0.4609985,1.1149902
			c-0.2940063,0.2960052-0.6940002,0.4620056-1.1110229,0.4620056c-0.4169922,0-0.8169861-0.1660004-1.1109924-0.4620056
			c-0.2949829-0.29599-0.4609985-0.696991-0.4609985-1.1149902v-5.6760101c0-0.4179993,0.1660156-0.8190002,0.4609985-1.1149902
			C312.8891907,193.1994781,313.2891846,193.0334778,313.7061768,193.0334778z"/>
		<path class="st3" d="M305.5332031,193.0334778c0.4169922,0,0.8169861,0.1660004,1.1119995,0.4620056
			c0.2939758,0.29599,0.4599915,0.696991,0.4599915,1.1149902v5.6760101c0,0.4179993-0.1660156,0.8190002-0.4599915,1.1149902
			c-0.2950134,0.2960052-0.6950073,0.4620056-1.1119995,0.4620056c-0.4170227,0-0.8160095-0.1660004-1.1110229-0.4620056
			c-0.2949829-0.29599-0.4609985-0.696991-0.4609985-1.1149902v-5.6760101c0-0.4179993,0.1660156-0.8190002,0.4609985-1.1149902
			C304.7171936,193.1994781,305.1161804,193.0334778,305.5332031,193.0334778z"/>
		<path class="st3" d="M297.360199,193.0334778c0.4169922,0,0.8169861,0.1660004,1.1109924,0.4620056
			c0.2949829,0.29599,0.4609985,0.696991,0.4609985,1.1149902v5.6760101c0,0.4179993-0.1660156,0.8190002-0.4609985,1.1149902
			c-0.2940063,0.2960052-0.6940002,0.4620056-1.1109924,0.4620056c-0.4170227,0-0.8170166-0.1660004-1.1110229-0.4620056
			c-0.2949829-0.29599-0.4609985-0.696991-0.4609985-1.1149902v-5.6760101c0-0.4179993,0.1660156-0.8190002,0.4609985-1.1149902
			C296.5431824,193.1994781,296.9431763,193.0334778,297.360199,193.0334778z"/>
		<path class="st3" d="M289.1871948,193.0334778c0.4169922,0,0.8169861,0.1660004,1.1109924,0.4620056
			c0.2950134,0.29599,0.4609985,0.696991,0.4609985,1.1149902v5.6760101c0,0.4179993-0.1659851,0.8190002-0.4609985,1.1149902
			c-0.2940063,0.2960052-0.6940002,0.4620056-1.1109924,0.4620056s-0.8170166-0.1660004-1.1109924-0.4620056
			c-0.2950134-0.29599-0.4609985-0.696991-0.4609985-1.1149902v-5.6760101c0-0.4179993,0.1659851-0.8190002,0.4609985-1.1149902
			C288.3701782,193.1994781,288.7702026,193.0334778,289.1871948,193.0334778z"/>
		<path class="st3" d="M273.4701843,193.0334778c0.4169922,0,0.8160095,0.1660004,1.1109924,0.4620056
			c0.2950134,0.29599,0.4609985,0.696991,0.4609985,1.1149902v5.6760101c0,0.4179993-0.1659851,0.8190002-0.4609985,1.1149902
			c-0.2949829,0.2960052-0.6940002,0.4620056-1.1109924,0.4620056s-0.8169861-0.1660004-1.1119995-0.4620056
			c-0.2940063-0.29599-0.4599915-0.696991-0.4599915-1.1149902v-5.6760101c0-0.4179993,0.1659851-0.8190002,0.4599915-1.1149902
			C272.6531982,193.1994781,273.0531921,193.0334778,273.4701843,193.0334778z"/>
		<path class="st3" d="M265.2971802,193.0334778c0.4170227,0,0.8160095,0.1660004,1.1110229,0.4620056
			c0.2949829,0.29599,0.4609985,0.696991,0.4609985,1.1149902v5.6760101c0,0.4179993-0.1660156,0.8190002-0.4609985,1.1149902
			c-0.2950134,0.2960052-0.6940002,0.4620056-1.1110229,0.4620056c-0.4169922,0-0.8169861-0.1660004-1.1119995-0.4620056
			c-0.2940063-0.29599-0.4599915-0.696991-0.4599915-1.1149902v-5.6760101c0-0.4179993,0.1659851-0.8190002,0.4599915-1.1149902
			C264.4801941,193.1994781,264.880188,193.0334778,265.2971802,193.0334778z"/>
		<path class="st3" d="M257.124176,193.0334778c0.4170227,0,0.8170166,0.1660004,1.1110229,0.4620056
			c0.2949829,0.29599,0.4609985,0.696991,0.4609985,1.1149902v5.6760101c0,0.4179993-0.1660156,0.8190002-0.4609985,1.1149902
			c-0.2940063,0.2960052-0.6940002,0.4620056-1.1110229,0.4620056c-0.4169922,0-0.8169861-0.1660004-1.1109924-0.4620056
			c-0.2949829-0.29599-0.4609985-0.696991-0.4609985-1.1149902v-5.6760101c0-0.4179993,0.1660156-0.8190002,0.4609985-1.1149902
			C256.3071899,193.1994781,256.7071838,193.0334778,257.124176,193.0334778z"/>
		<path class="st3" d="M248.9512024,193.0334778c0.4169922,0,0.8169861,0.1660004,1.1109924,0.4620056
			c0.2949829,0.29599,0.4609985,0.696991,0.4609985,1.1149902v5.6760101c0,0.4179993-0.1660156,0.8190002-0.4609985,1.1149902
			c-0.2940063,0.2960052-0.6940002,0.4620056-1.1109924,0.4620056c-0.4170227,0-0.8170166-0.1660004-1.1110229-0.4620056
			c-0.2949829-0.29599-0.4609985-0.696991-0.4609985-1.1149902v-5.6760101c0-0.4179993,0.1660156-0.8190002,0.4609985-1.1149902
			C248.1341858,193.1994781,248.5341797,193.0334778,248.9512024,193.0334778z"/>
		<path class="st3" d="M233.8621826,193.0334778c0.4169922,0,0.8170166,0.1660004,1.1119995,0.4620056
			c0.2950134,0.29599,0.460022,0.696991,0.460022,1.1149902v5.6760101c0,0.4179993-0.1650085,0.8190002-0.460022,1.1149902
			c-0.2949829,0.2960052-0.6950073,0.4620056-1.1119995,0.4620056c-0.4159851,0-0.815979-0.1660004-1.1109924-0.4620056
			c-0.2950134-0.29599-0.4599915-0.696991-0.4599915-1.1149902v-5.6760101c0-0.4179993,0.164978-0.8190002,0.4599915-1.1149902
			C233.0462036,193.1994781,233.4461975,193.0334778,233.8621826,193.0334778z"/>
		<path class="st3" d="M225.6891785,193.0334778c0.4170227,0,0.8170166,0.1660004,1.1119995,0.4620056
			c0.2940063,0.29599,0.460022,0.696991,0.460022,1.1149902v5.6760101c0,0.4179993-0.1660156,0.8190002-0.460022,1.1149902
			c-0.2949829,0.2960052-0.6949768,0.4620056-1.1119995,0.4620056c-0.4169922,0-0.815979-0.1660004-1.1109924-0.4620056
			c-0.2949829-0.29599-0.4599915-0.696991-0.4599915-1.1149902v-5.6760101c0-0.4179993,0.1650085-0.8190002,0.4599915-1.1149902
			C224.8731995,193.1994781,225.2721863,193.0334778,225.6891785,193.0334778z"/>
		<path class="st3" d="M217.5161743,193.0334778c0.4170227,0,0.8170166,0.1660004,1.11203,0.4620056
			c0.2939758,0.29599,0.4599915,0.696991,0.4599915,1.1149902v5.6760101c0,0.4179993-0.1660156,0.8190002-0.4599915,1.1149902
			c-0.2950134,0.2960052-0.6950073,0.4620056-1.11203,0.4620056c-0.4169922,0-0.815979-0.1660004-1.1109924-0.4620056
			c-0.2949829-0.29599-0.4599915-0.696991-0.4599915-1.1149902v-5.6760101c0-0.4179993,0.1650085-0.8190002,0.4599915-1.1149902
			C216.7001953,193.1994781,217.0991821,193.0334778,217.5161743,193.0334778z"/>
		<path class="st3" d="M209.3432007,193.0334778c0.4169922,0,0.8169861,0.1660004,1.1119995,0.4620056
			c0.2939758,0.29599,0.4599915,0.696991,0.4599915,1.1149902v5.6760101c0,0.4179993-0.1660156,0.8190002-0.4599915,1.1149902
			c-0.2950134,0.2960052-0.6950073,0.4620056-1.1119995,0.4620056c-0.4170227,0-0.8160095-0.1660004-1.1110229-0.4620056
			c-0.2949829-0.29599-0.4599915-0.696991-0.4599915-1.1149902v-5.6760101c0-0.4179993,0.1650085-0.8190002,0.4599915-1.1149902
			C208.5271912,193.1994781,208.926178,193.0334778,209.3432007,193.0334778z"/>
		<path class="st3" d="M193.6261902,193.0334778c0.4169922,0,0.8169861,0.1660004,1.1109924,0.4620056
			c0.2950134,0.29599,0.4609985,0.696991,0.4609985,1.1149902v5.6760101c0,0.4179993-0.1659851,0.8190002-0.4609985,1.1149902
			c-0.2940063,0.2960052-0.6940002,0.4620056-1.1109924,0.4620056s-0.8169861-0.1660004-1.1109924-0.4620056
			c-0.2950134-0.29599-0.4609985-0.696991-0.4609985-1.1149902v-5.6760101c0-0.4179993,0.1659851-0.8190002,0.4609985-1.1149902
			C192.8092041,193.1994781,193.209198,193.0334778,193.6261902,193.0334778z"/>
		<path class="st3" d="M185.453186,193.0334778c0.4169922,0,0.8170166,0.1660004,1.1119995,0.4620056
			c0.2940063,0.29599,0.4599915,0.696991,0.4599915,1.1149902v5.6760101c0,0.4179993-0.1659851,0.8190002-0.4599915,1.1149902
			c-0.2949829,0.2960052-0.6950073,0.4620056-1.1119995,0.4620056s-0.8160095-0.1660004-1.1109924-0.4620056
			c-0.2950134-0.29599-0.4609985-0.696991-0.4609985-1.1149902v-5.6760101c0-0.4179993,0.1659851-0.8190002,0.4609985-1.1149902
			C184.6371765,193.1994781,185.0361938,193.0334778,185.453186,193.0334778z"/>
		<path class="st3" d="M177.2801819,193.0334778c0.4170227,0,0.8170166,0.1660004,1.1109924,0.4620056
			c0.2950134,0.29599,0.4610291,0.696991,0.4610291,1.1149902v5.6760101c0,0.4179993-0.1660156,0.8190002-0.4610291,1.1149902
			c-0.2939758,0.2960052-0.6939697,0.4620056-1.1109924,0.4620056c-0.4169922,0-0.8169861-0.1660004-1.1109924-0.4620056
			c-0.2950134-0.29599-0.4609985-0.696991-0.4609985-1.1149902v-5.6760101c0-0.4179993,0.1659851-0.8190002,0.4609985-1.1149902
			C176.4631958,193.1994781,176.8631897,193.0334778,177.2801819,193.0334778z"/>
		<path class="st3" d="M169.1071777,193.0334778c0.4170227,0,0.8170166,0.1660004,1.1110229,0.4620056
			c0.2949829,0.29599,0.4609985,0.696991,0.4609985,1.1149902v5.6760101c0,0.4179993-0.1660156,0.8190002-0.4609985,1.1149902
			c-0.2940063,0.2960052-0.6940002,0.4620056-1.1110229,0.4620056c-0.4169922,0-0.8169861-0.1660004-1.1109924-0.4620056
			c-0.2949829-0.29599-0.4609985-0.696991-0.4609985-1.1149902v-5.6760101c0-0.4179993,0.1660156-0.8190002,0.4609985-1.1149902
			C168.2901917,193.1994781,168.6901855,193.0334778,169.1071777,193.0334778z"/>
		<path class="st3" d="M154.0191956,193.0334778c0.4159851,0,0.815979,0.1660004,1.1109924,0.4620056
			c0.2950134,0.29599,0.4599915,0.696991,0.4599915,1.1149902v5.6760101c0,0.4179993-0.164978,0.8190002-0.4599915,1.1149902
			c-0.2950134,0.2960052-0.6950073,0.4620056-1.1109924,0.4620056c-0.4169922,0-0.8170166-0.1660004-1.1119995-0.4620056
			c-0.2950134-0.29599-0.4599915-0.696991-0.4599915-1.1149902v-5.6760101c0-0.4179993,0.164978-0.8190002,0.4599915-1.1149902
			C153.202179,193.1994781,153.6022034,193.0334778,154.0191956,193.0334778z"/>
		<path class="st3" d="M145.8461914,193.0334778c0.4159851,0,0.8160095,0.1660004,1.1109924,0.4620056
			c0.2950134,0.29599,0.4599915,0.696991,0.4599915,1.1149902v5.6760101c0,0.4179993-0.164978,0.8190002-0.4599915,1.1149902
			c-0.2949829,0.2960052-0.6950073,0.4620056-1.1109924,0.4620056c-0.4169922,0-0.8170166-0.1660004-1.1119995-0.4620056
			c-0.2950134-0.29599-0.4599915-0.696991-0.4599915-1.1149902v-5.6760101c0-0.4179993,0.164978-0.8190002,0.4599915-1.1149902
			C145.0291748,193.1994781,145.4291992,193.0334778,145.8461914,193.0334778z"/>
		<path class="st3" d="M137.6731873,193.0334778c0.4160156,0,0.8160095,0.1660004,1.1109924,0.4620056
			c0.2950134,0.29599,0.460022,0.696991,0.460022,1.1149902v5.6760101c0,0.4179993-0.1650085,0.8190002-0.460022,1.1149902
			c-0.2949829,0.2960052-0.6949768,0.4620056-1.1109924,0.4620056c-0.4169922,0-0.8169861-0.1660004-1.1119995-0.4620056
			c-0.2950134-0.29599-0.4599915-0.696991-0.4599915-1.1149902v-5.6760101c0-0.4179993,0.164978-0.8190002,0.4599915-1.1149902
			C136.8562012,193.1994781,137.2561951,193.0334778,137.6731873,193.0334778z"/>
		<path class="st3" d="M129.499176,193.0334778c0.4170227,0,0.8170166,0.1660004,1.1119995,0.4620056
			c0.2950134,0.29599,0.460022,0.696991,0.460022,1.1149902v5.6760101c0,0.4179993-0.1650085,0.8190002-0.460022,1.1149902
			c-0.2949829,0.2960052-0.6949768,0.4620056-1.1119995,0.4620056c-0.4159851,0-0.815979-0.1660004-1.1109924-0.4620056
			c-0.2949829-0.29599-0.4599915-0.696991-0.4599915-1.1149902v-5.6760101c0-0.4179993,0.1650085-0.8190002,0.4599915-1.1149902
			C128.683197,193.1994781,129.0831909,193.0334778,129.499176,193.0334778z"/>
		<path class="st3" d="M113.1541748,193.0334778c0.4160156,0,0.8160095,0.1660004,1.1110229,0.4620056
			c0.2949829,0.29599,0.4599915,0.696991,0.4599915,1.1149902v5.6760101c0,0.4179993-0.1650085,0.8190002-0.4599915,1.1149902
			c-0.2950134,0.2960052-0.6950073,0.4620056-1.1110229,0.4620056c-0.4169922,0-0.8169861-0.1660004-1.1119995-0.4620056
			c-0.2949829-0.29599-0.4599915-0.696991-0.4599915-1.1149902v-5.6760101c0-0.4179993,0.1650085-0.8190002,0.4599915-1.1149902
			C112.3371887,193.1994781,112.7371826,193.0334778,113.1541748,193.0334778z"/>
		<path class="st3" d="M104.9812012,193.0334778c0.4159851,0,0.815979,0.1660004,1.1109924,0.4620056
			c0.2949829,0.29599,0.4599915,0.696991,0.4599915,1.1149902v5.6760101c0,0.4179993-0.1650085,0.8190002-0.4599915,1.1149902
			c-0.2950134,0.2960052-0.6950073,0.4620056-1.1109924,0.4620056c-0.4170227,0-0.8170166-0.1660004-1.1119995-0.4620056
			c-0.2940063-0.29599-0.460022-0.696991-0.460022-1.1149902v-5.6760101c0-0.4179993,0.1660156-0.8190002,0.460022-1.1149902
			C104.1641846,193.1994781,104.5641785,193.0334778,104.9812012,193.0334778z"/>
		<path class="st3" d="M96.808197,193.0334778c0.4159851,0,0.815979,0.1660004,1.1109924,0.4620056
			c0.2950134,0.29599,0.4599915,0.696991,0.4599915,1.1149902v5.6760101c0,0.4179993-0.164978,0.8190002-0.4599915,1.1149902
			c-0.2950134,0.2960052-0.6950073,0.4620056-1.1109924,0.4620056c-0.4170227,0-0.8170166-0.1660004-1.1119995-0.4620056
			c-0.2950134-0.29599-0.460022-0.696991-0.460022-1.1149902v-5.6760101c0-0.4179993,0.1650085-0.8190002,0.460022-1.1149902
			C95.9911804,193.1994781,96.3911743,193.0334778,96.808197,193.0334778z"/>
		<path class="st3" d="M88.6351929,193.0334778c0.4159851,0,0.8160095,0.1660004,1.1109924,0.4620056
			c0.2950134,0.29599,0.4599915,0.696991,0.4599915,1.1149902v5.6760101c0,0.4179993-0.164978,0.8190002-0.4599915,1.1149902
			c-0.2949829,0.2960052-0.6950073,0.4620056-1.1109924,0.4620056c-0.4169922,0-0.8170166-0.1660004-1.1119995-0.4620056
			c-0.2950134-0.29599-0.4599915-0.696991-0.4599915-1.1149902v-5.6760101c0-0.4179993,0.164978-0.8190002,0.4599915-1.1149902
			C87.8181763,193.1994781,88.2182007,193.0334778,88.6351929,193.0334778z"/>
		<path class="st3" d="M477.1659851,92.7544708c0.4168091,0,0.8166199,0.1660995,1.1112976,0.4617996
			c0.2947998,0.2957001,0.4604187,0.696701,0.4604187,1.1148987v5.6761017c0,0.4181976-0.1656189,0.8191986-0.4604187,1.1151962
			c-0.2946777,0.2950058-0.6944885,0.4610062-1.1112976,0.4610062c-0.4169006,0-0.8166809-0.1660004-1.1113892-0.4610062
			c-0.2947998-0.2959976-0.4603882-0.6969986-0.4603882-1.1151962v-5.6761017c0-0.4181976,0.1655884-0.8191986,0.4603882-1.1148987
			C476.3493042,92.9205704,476.7490845,92.7544708,477.1659851,92.7544708z"/>
		<path class="st3" d="M468.9931946,92.7544708c0.4169922,0,0.8160095,0.1660995,1.1109924,0.4617996
			c0.2948914,0.2957001,0.4605103,0.696701,0.4605103,1.1148987v5.6761017c0,0.4181976-0.1656189,0.8191986-0.4605103,1.1151962
			c-0.2949829,0.2950058-0.6940002,0.4610062-1.1109924,0.4610062s-0.8169861-0.1660004-1.1119995-0.4610062
			c-0.2940063-0.2959976-0.4599915-0.6969986-0.4599915-1.1151962v-5.6761017c0-0.4181976,0.1659851-0.8191986,0.4599915-1.1148987
			C468.1762085,92.9205704,468.5762024,92.7544708,468.9931946,92.7544708z"/>
		<path class="st3" d="M460.8201904,92.7544708c0.4169922,0,0.8170166,0.1660995,1.1109924,0.4617996
			c0.2950134,0.2957001,0.4609985,0.696701,0.4609985,1.1148987v5.6761017c0,0.4181976-0.1659851,0.8191986-0.4609985,1.1151962
			c-0.2939758,0.2950058-0.6940002,0.4610062-1.1109924,0.4610062s-0.8169861-0.1660004-1.1109924-0.4610062
			c-0.2950134-0.2959976-0.4609985-0.6969986-0.4609985-1.1151962v-5.6761017c0-0.4181976,0.1659851-0.8191986,0.4609985-1.1148987
			C460.0032043,92.9205704,460.4031982,92.7544708,460.8201904,92.7544708z"/>
		<path class="st3" d="M452.6471863,92.7544708c0.4169922,0,0.8160095,0.1660995,1.1109924,0.4617996
			c0.2950134,0.2957001,0.4610291,0.696701,0.4610291,1.1148987v5.6761017c0,0.4181976-0.1660156,0.8191986-0.4610291,1.1151962
			c-0.2949829,0.2950058-0.6940002,0.4610062-1.1109924,0.4610062s-0.8169861-0.1660004-1.1119995-0.4610062
			c-0.2940063-0.2959976-0.4599915-0.6969986-0.4599915-1.1151962v-5.6761017c0-0.4181976,0.1659851-0.8191986,0.4599915-1.1148987
			C451.8302002,92.9205704,452.2301941,92.7544708,452.6471863,92.7544708z"/>
		<path class="st3" d="M435.6722107,92.7544708c0.4169922,0,0.8169861,0.1660995,1.1109924,0.4617996
			c0.2949829,0.2957001,0.4609985,0.696701,0.4609985,1.1148987v5.6761017c0,0.4181976-0.1660156,0.8191986-0.4609985,1.1151962
			c-0.2940063,0.2950058-0.6940002,0.4610062-1.1109924,0.4610062c-0.4170227,0-0.8170166-0.1660004-1.1110229-0.4610062
			c-0.2949829-0.2959976-0.4609985-0.6969986-0.4609985-1.1151962v-5.6761017c0-0.4181976,0.1660156-0.8191986,0.4609985-1.1148987
			C434.8551941,92.9205704,435.255188,92.7544708,435.6722107,92.7544708z"/>
		<path class="st3" d="M427.4992065,92.7544708c0.4169922,0,0.8169861,0.1660995,1.1119995,0.4617996
			c0.2939758,0.2957001,0.4599915,0.696701,0.4599915,1.1148987v5.6761017c0,0.4181976-0.1660156,0.8191986-0.4599915,1.1151962
			c-0.2950134,0.2950058-0.6950073,0.4610062-1.1119995,0.4610062c-0.4170227,0-0.8160095-0.1660004-1.1110229-0.4610062
			c-0.2949829-0.2959976-0.4609985-0.6969986-0.4609985-1.1151962v-5.6761017c0-0.4181976,0.1660156-0.8191986,0.4609985-1.1148987
			C426.683197,92.9205704,427.0821838,92.7544708,427.4992065,92.7544708z"/>
		<path class="st3" d="M419.3262024,92.7544708c0.4169922,0,0.8169861,0.1660995,1.1119995,0.4617996
			c0.2940063,0.2957001,0.4599915,0.696701,0.4599915,1.1148987v5.6761017c0,0.4181976-0.1659851,0.8191986-0.4599915,1.1151962
			c-0.2950134,0.2950058-0.6950073,0.4610062-1.1119995,0.4610062s-0.8160095-0.1660004-1.1109924-0.4610062
			c-0.2950134-0.2959976-0.460022-0.6969986-0.460022-1.1151962v-5.6761017c0-0.4181976,0.1650085-0.8191986,0.460022-1.1148987
			C418.5101929,92.9205704,418.9092102,92.7544708,419.3262024,92.7544708z"/>
		<path class="st3" d="M411.1531982,92.7544708c0.4169922,0,0.8169861,0.1660995,1.1119995,0.4617996
			c0.2940063,0.2957001,0.4599915,0.696701,0.4599915,1.1148987v5.6761017c0,0.4181976-0.1659851,0.8191986-0.4599915,1.1151962
			c-0.2950134,0.2950058-0.6950073,0.4610062-1.1119995,0.4610062s-0.8160095-0.1660004-1.1109924-0.4610062
			c-0.2950134-0.2959976-0.4609985-0.6969986-0.4609985-1.1151962v-5.6761017c0-0.4181976,0.1659851-0.8191986,0.4609985-1.1148987
			C410.3371887,92.9205704,410.7362061,92.7544708,411.1531982,92.7544708z"/>
		<path class="st3" d="M395.4361877,92.7544708c0.4170227,0,0.8170166,0.1660995,1.1110229,0.4617996
			c0.2949829,0.2957001,0.4609985,0.696701,0.4609985,1.1148987v5.6761017c0,0.4181976-0.1660156,0.8191986-0.4609985,1.1151962
			c-0.2940063,0.2950058-0.6940002,0.4610062-1.1110229,0.4610062c-0.4169922,0-0.8169861-0.1660004-1.1109924-0.4610062
			c-0.2950134-0.2959976-0.4609985-0.6969986-0.4609985-1.1151962v-5.6761017c0-0.4181976,0.1659851-0.8191986,0.4609985-1.1148987
			C394.6192017,92.9205704,395.0191956,92.7544708,395.4361877,92.7544708z"/>
		<path class="st3" d="M387.2631836,92.7544708c0.4170227,0,0.8170166,0.1660995,1.1110229,0.4617996
			c0.2949829,0.2957001,0.4609985,0.696701,0.4609985,1.1148987v5.6761017c0,0.4181976-0.1660156,0.8191986-0.4609985,1.1151962
			c-0.2940063,0.2950058-0.6940002,0.4610062-1.1110229,0.4610062c-0.4169922,0-0.8169861-0.1660004-1.1109924-0.4610062
			c-0.2949829-0.2959976-0.4609985-0.6969986-0.4609985-1.1151962v-5.6761017c0-0.4181976,0.1660156-0.8191986,0.4609985-1.1148987
			C386.4461975,92.9205704,386.8461914,92.7544708,387.2631836,92.7544708z"/>
		<path class="st3" d="M379.09021,92.7544708c0.4169922,0,0.8169861,0.1660995,1.1109924,0.4617996
			c0.2949829,0.2957001,0.4609985,0.696701,0.4609985,1.1148987v5.6761017c0,0.4181976-0.1660156,0.8191986-0.4609985,1.1151962
			c-0.2940063,0.2950058-0.6940002,0.4610062-1.1109924,0.4610062c-0.4170227,0-0.8170166-0.1660004-1.1110229-0.4610062
			c-0.2949829-0.2959976-0.4609985-0.6969986-0.4609985-1.1151962v-5.6761017c0-0.4181976,0.1660156-0.8191986,0.4609985-1.1148987
			C378.2731934,92.9205704,378.6731873,92.7544708,379.09021,92.7544708z"/>
		<path class="st3" d="M370.9172058,92.7544708c0.4169922,0,0.8169861,0.1660995,1.1109924,0.4617996
			c0.2950134,0.2957001,0.4609985,0.696701,0.4609985,1.1148987v5.6761017c0,0.4181976-0.1659851,0.8191986-0.4609985,1.1151962
			c-0.2940063,0.2950058-0.6940002,0.4610062-1.1109924,0.4610062c-0.4170227,0-0.8170166-0.1660004-1.1110229-0.4610062
			c-0.2949829-0.2959976-0.4609985-0.6969986-0.4609985-1.1151962v-5.6761017c0-0.4181976,0.1660156-0.8191986,0.4609985-1.1148987
			C370.1001892,92.9205704,370.5001831,92.7544708,370.9172058,92.7544708z"/>
		<path class="st3" d="M355.2001953,92.7544708c0.4169922,0,0.8160095,0.1660995,1.1109924,0.4617996
			c0.2950134,0.2957001,0.460022,0.696701,0.460022,1.1148987v5.6761017c0,0.4181976-0.1650085,0.8191986-0.460022,1.1151962
			c-0.2949829,0.2950058-0.6940002,0.4610062-1.1109924,0.4610062s-0.8169861-0.1660004-1.1119995-0.4610062
			c-0.2940063-0.2959976-0.4599915-0.6969986-0.4599915-1.1151962v-5.6761017c0-0.4181976,0.1659851-0.8191986,0.4599915-1.1148987
			C354.3832092,92.9205704,354.7832031,92.7544708,355.2001953,92.7544708z"/>
		<path class="st3" d="M347.0271912,92.7544708c0.4169922,0,0.8160095,0.1660995,1.1109924,0.4617996
			c0.2950134,0.2957001,0.460022,0.696701,0.460022,1.1148987v5.6761017c0,0.4181976-0.1650085,0.8191986-0.460022,1.1151962
			c-0.2949829,0.2950058-0.6940002,0.4610062-1.1109924,0.4610062s-0.8169861-0.1660004-1.1119995-0.4610062
			c-0.2940063-0.2959976-0.4599915-0.6969986-0.4599915-1.1151962v-5.6761017c0-0.4181976,0.1659851-0.8191986,0.4599915-1.1148987
			C346.2102051,92.9205704,346.610199,92.7544708,347.0271912,92.7544708z"/>
		<path class="st3" d="M338.854187,92.7544708c0.4170227,0,0.8160095,0.1660995,1.1110229,0.4617996
			c0.2949829,0.2957001,0.4599915,0.696701,0.4599915,1.1148987v5.6761017c0,0.4181976-0.1650085,0.8191986-0.4599915,1.1151962
			c-0.2950134,0.2950058-0.6940002,0.4610062-1.1110229,0.4610062c-0.4169922,0-0.8169861-0.1660004-1.1119995-0.4610062
			c-0.2939758-0.2959976-0.4599915-0.6969986-0.4599915-1.1151962v-5.6761017c0-0.4181976,0.1660156-0.8191986,0.4599915-1.1148987
			C338.0372009,92.9205704,338.4371948,92.7544708,338.854187,92.7544708z"/>
		<path class="st3" d="M330.6811829,92.7544708c0.4170227,0,0.8160095,0.1660995,1.1110229,0.4617996
			c0.2949829,0.2957001,0.4599915,0.696701,0.4599915,1.1148987v5.6761017c0,0.4181976-0.1650085,0.8191986-0.4599915,1.1151962
			c-0.2950134,0.2950058-0.6940002,0.4610062-1.1110229,0.4610062c-0.4169922,0-0.8169861-0.1660004-1.1119995-0.4610062
			c-0.2939758-0.2959976-0.4599915-0.6969986-0.4599915-1.1151962v-5.6761017c0-0.4181976,0.1660156-0.8191986,0.4599915-1.1148987
			C329.8641968,92.9205704,330.2641907,92.7544708,330.6811829,92.7544708z"/>
		<path class="st3" d="M313.7061768,92.7544708c0.4170227,0,0.8170166,0.1660995,1.1110229,0.4617996
			c0.2949829,0.2957001,0.4609985,0.696701,0.4609985,1.1148987v5.6761017c0,0.4181976-0.1660156,0.8191986-0.4609985,1.1151962
			c-0.2940063,0.2950058-0.6940002,0.4610062-1.1110229,0.4610062c-0.4169922,0-0.8169861-0.1660004-1.1109924-0.4610062
			c-0.2949829-0.2959976-0.4609985-0.6969986-0.4609985-1.1151962v-5.6761017c0-0.4181976,0.1660156-0.8191986,0.4609985-1.1148987
			C312.8891907,92.9205704,313.2891846,92.7544708,313.7061768,92.7544708z"/>
		<path class="st3" d="M305.5332031,92.7544708c0.4169922,0,0.8169861,0.1660995,1.1119995,0.4617996
			c0.2939758,0.2957001,0.4599915,0.696701,0.4599915,1.1148987v5.6761017c0,0.4181976-0.1660156,0.8191986-0.4599915,1.1151962
			c-0.2950134,0.2950058-0.6950073,0.4610062-1.1119995,0.4610062c-0.4170227,0-0.8160095-0.1660004-1.1110229-0.4610062
			c-0.2949829-0.2959976-0.4609985-0.6969986-0.4609985-1.1151962v-5.6761017c0-0.4181976,0.1660156-0.8191986,0.4609985-1.1148987
			C304.7171936,92.9205704,305.1161804,92.7544708,305.5332031,92.7544708z"/>
		<path class="st3" d="M297.360199,92.7544708c0.4169922,0,0.8169861,0.1660995,1.1109924,0.4617996
			c0.2949829,0.2957001,0.4609985,0.696701,0.4609985,1.1148987v5.6761017c0,0.4181976-0.1660156,0.8191986-0.4609985,1.1151962
			c-0.2940063,0.2950058-0.6940002,0.4610062-1.1109924,0.4610062c-0.4170227,0-0.8170166-0.1660004-1.1110229-0.4610062
			c-0.2949829-0.2959976-0.4609985-0.6969986-0.4609985-1.1151962v-5.6761017c0-0.4181976,0.1660156-0.8191986,0.4609985-1.1148987
			C296.5431824,92.9205704,296.9431763,92.7544708,297.360199,92.7544708z"/>
		<path class="st3" d="M289.1871948,92.7544708c0.4169922,0,0.8169861,0.1660995,1.1109924,0.4617996
			c0.2950134,0.2957001,0.4609985,0.696701,0.4609985,1.1148987v5.6761017c0,0.4181976-0.1659851,0.8191986-0.4609985,1.1151962
			c-0.2940063,0.2950058-0.6940002,0.4610062-1.1109924,0.4610062s-0.8170166-0.1660004-1.1109924-0.4610062
			c-0.2950134-0.2959976-0.4609985-0.6969986-0.4609985-1.1151962v-5.6761017c0-0.4181976,0.1659851-0.8191986,0.4609985-1.1148987
			C288.3701782,92.9205704,288.7702026,92.7544708,289.1871948,92.7544708z"/>
		<path class="st3" d="M273.4701843,92.7544708c0.4169922,0,0.8160095,0.1660995,1.1109924,0.4617996
			c0.2950134,0.2957001,0.4609985,0.696701,0.4609985,1.1148987v5.6761017c0,0.4181976-0.1659851,0.8191986-0.4609985,1.1151962
			c-0.2949829,0.2950058-0.6940002,0.4610062-1.1109924,0.4610062s-0.8169861-0.1660004-1.1119995-0.4610062
			c-0.2940063-0.2959976-0.4599915-0.6969986-0.4599915-1.1151962v-5.6761017c0-0.4181976,0.1659851-0.8191986,0.4599915-1.1148987
			C272.6531982,92.9205704,273.0531921,92.7544708,273.4701843,92.7544708z"/>
		<path class="st3" d="M265.2971802,92.7544708c0.4170227,0,0.8160095,0.1660995,1.1110229,0.4617996
			c0.2949829,0.2957001,0.4609985,0.696701,0.4609985,1.1148987v5.6761017c0,0.4181976-0.1660156,0.8191986-0.4609985,1.1151962
			c-0.2950134,0.2950058-0.6940002,0.4610062-1.1110229,0.4610062c-0.4169922,0-0.8169861-0.1660004-1.1119995-0.4610062
			c-0.2940063-0.2959976-0.4599915-0.6969986-0.4599915-1.1151962v-5.6761017c0-0.4181976,0.1659851-0.8191986,0.4599915-1.1148987
			C264.4801941,92.9205704,264.880188,92.7544708,265.2971802,92.7544708z"/>
		<path class="st3" d="M257.124176,92.7544708c0.4170227,0,0.8170166,0.1660995,1.1110229,0.4617996
			c0.2949829,0.2957001,0.4609985,0.696701,0.4609985,1.1148987v5.6761017c0,0.4181976-0.1660156,0.8191986-0.4609985,1.1151962
			c-0.2940063,0.2950058-0.6940002,0.4610062-1.1110229,0.4610062c-0.4169922,0-0.8169861-0.1660004-1.1109924-0.4610062
			c-0.2949829-0.2959976-0.4609985-0.6969986-0.4609985-1.1151962v-5.6761017c0-0.4181976,0.1660156-0.8191986,0.4609985-1.1148987
			C256.3071899,92.9205704,256.7071838,92.7544708,257.124176,92.7544708z"/>
		<path class="st3" d="M248.9512024,92.7544708c0.4169922,0,0.8169861,0.1660995,1.1109924,0.4617996
			c0.2949829,0.2957001,0.4609985,0.696701,0.4609985,1.1148987v5.6761017c0,0.4181976-0.1660156,0.8191986-0.4609985,1.1151962
			c-0.2940063,0.2950058-0.6940002,0.4610062-1.1109924,0.4610062c-0.4170227,0-0.8170166-0.1660004-1.1110229-0.4610062
			c-0.2949829-0.2959976-0.4609985-0.6969986-0.4609985-1.1151962v-5.6761017c0-0.4181976,0.1660156-0.8191986,0.4609985-1.1148987
			C248.1341858,92.9205704,248.5341797,92.7544708,248.9512024,92.7544708z"/>
		<path class="st3" d="M233.8621826,92.7544708c0.4169922,0,0.8170166,0.1660995,1.1119995,0.4617996
			c0.2950134,0.2957001,0.460022,0.696701,0.460022,1.1148987v5.6761017c0,0.4181976-0.1650085,0.8191986-0.460022,1.1151962
			c-0.2949829,0.2950058-0.6950073,0.4610062-1.1119995,0.4610062c-0.4159851,0-0.815979-0.1660004-1.1109924-0.4610062
			c-0.2950134-0.2959976-0.4599915-0.6969986-0.4599915-1.1151962v-5.6761017c0-0.4181976,0.164978-0.8191986,0.4599915-1.1148987
			S233.4461975,92.7544708,233.8621826,92.7544708z"/>
		<path class="st3" d="M225.6891785,92.7544708c0.4170227,0,0.8170166,0.1660995,1.1119995,0.4617996
			c0.2940063,0.2957001,0.460022,0.696701,0.460022,1.1148987v5.6761017c0,0.4181976-0.1660156,0.8191986-0.460022,1.1151962
			c-0.2949829,0.2950058-0.6949768,0.4610062-1.1119995,0.4610062c-0.4169922,0-0.815979-0.1660004-1.1109924-0.4610062
			c-0.2949829-0.2959976-0.4599915-0.6969986-0.4599915-1.1151962v-5.6761017c0-0.4181976,0.1650085-0.8191986,0.4599915-1.1148987
			C224.8731995,92.9205704,225.2721863,92.7544708,225.6891785,92.7544708z"/>
		<path class="st3" d="M217.5161743,92.7544708c0.4170227,0,0.8170166,0.1660995,1.11203,0.4617996
			c0.2939758,0.2957001,0.4599915,0.696701,0.4599915,1.1148987v5.6761017c0,0.4181976-0.1660156,0.8191986-0.4599915,1.1151962
			c-0.2950134,0.2950058-0.6950073,0.4610062-1.11203,0.4610062c-0.4169922,0-0.815979-0.1660004-1.1109924-0.4610062
			c-0.2949829-0.2959976-0.4599915-0.6969986-0.4599915-1.1151962v-5.6761017c0-0.4181976,0.1650085-0.8191986,0.4599915-1.1148987
			C216.7001953,92.9205704,217.0991821,92.7544708,217.5161743,92.7544708z"/>
		<path class="st3" d="M209.3432007,92.7544708c0.4169922,0,0.8169861,0.1660995,1.1119995,0.4617996
			c0.2939758,0.2957001,0.4599915,0.696701,0.4599915,1.1148987v5.6761017c0,0.4181976-0.1660156,0.8191986-0.4599915,1.1151962
			c-0.2950134,0.2950058-0.6950073,0.4610062-1.1119995,0.4610062c-0.4170227,0-0.8160095-0.1660004-1.1110229-0.4610062
			c-0.2949829-0.2959976-0.4599915-0.6969986-0.4599915-1.1151962v-5.6761017c0-0.4181976,0.1650085-0.8191986,0.4599915-1.1148987
			C208.5271912,92.9205704,208.926178,92.7544708,209.3432007,92.7544708z"/>
		<path class="st3" d="M193.6261902,92.7544708c0.4169922,0,0.8169861,0.1660995,1.1109924,0.4617996
			c0.2950134,0.2957001,0.4609985,0.696701,0.4609985,1.1148987v5.6761017c0,0.4181976-0.1659851,0.8191986-0.4609985,1.1151962
			c-0.2940063,0.2950058-0.6940002,0.4610062-1.1109924,0.4610062s-0.8169861-0.1660004-1.1109924-0.4610062
			c-0.2950134-0.2959976-0.4609985-0.6969986-0.4609985-1.1151962v-5.6761017c0-0.4181976,0.1659851-0.8191986,0.4609985-1.1148987
			C192.8092041,92.9205704,193.209198,92.7544708,193.6261902,92.7544708z"/>
		<path class="st3" d="M185.453186,92.7544708c0.4169922,0,0.8170166,0.1660995,1.1119995,0.4617996
			c0.2940063,0.2957001,0.4599915,0.696701,0.4599915,1.1148987v5.6761017c0,0.4181976-0.1659851,0.8191986-0.4599915,1.1151962
			c-0.2949829,0.2950058-0.6950073,0.4610062-1.1119995,0.4610062s-0.8160095-0.1660004-1.1109924-0.4610062
			c-0.2950134-0.2959976-0.4609985-0.6969986-0.4609985-1.1151962v-5.6761017c0-0.4181976,0.1659851-0.8191986,0.4609985-1.1148987
			C184.6371765,92.9205704,185.0361938,92.7544708,185.453186,92.7544708z"/>
		<path class="st3" d="M177.2801819,92.7544708c0.4170227,0,0.8170166,0.1660995,1.1109924,0.4617996
			c0.2950134,0.2957001,0.4610291,0.696701,0.4610291,1.1148987v5.6761017c0,0.4181976-0.1660156,0.8191986-0.4610291,1.1151962
			c-0.2939758,0.2950058-0.6939697,0.4610062-1.1109924,0.4610062c-0.4169922,0-0.8169861-0.1660004-1.1109924-0.4610062
			c-0.2950134-0.2959976-0.4609985-0.6969986-0.4609985-1.1151962v-5.6761017c0-0.4181976,0.1659851-0.8191986,0.4609985-1.1148987
			C176.4631958,92.9205704,176.8631897,92.7544708,177.2801819,92.7544708z"/>
		<path class="st3" d="M169.1071777,92.7544708c0.4170227,0,0.8170166,0.1660995,1.1110229,0.4617996
			c0.2949829,0.2957001,0.4609985,0.696701,0.4609985,1.1148987v5.6761017c0,0.4181976-0.1660156,0.8191986-0.4609985,1.1151962
			c-0.2940063,0.2950058-0.6940002,0.4610062-1.1110229,0.4610062c-0.4169922,0-0.8169861-0.1660004-1.1109924-0.4610062
			c-0.2949829-0.2959976-0.4609985-0.6969986-0.4609985-1.1151962v-5.6761017c0-0.4181976,0.1660156-0.8191986,0.4609985-1.1148987
			C168.2901917,92.9205704,168.6901855,92.7544708,169.1071777,92.7544708z"/>
		<path class="st3" d="M154.0191956,92.7544708c0.4159851,0,0.815979,0.1660995,1.1109924,0.4617996
			s0.4599915,0.696701,0.4599915,1.1148987v5.6761017c0,0.4181976-0.164978,0.8191986-0.4599915,1.1151962
			c-0.2950134,0.2950058-0.6950073,0.4610062-1.1109924,0.4610062c-0.4169922,0-0.8170166-0.1660004-1.1119995-0.4610062
			c-0.2950134-0.2959976-0.4599915-0.6969986-0.4599915-1.1151962v-5.6761017c0-0.4181976,0.164978-0.8191986,0.4599915-1.1148987
			C153.202179,92.9205704,153.6022034,92.7544708,154.0191956,92.7544708z"/>
		<path class="st3" d="M145.8461914,92.7544708c0.4159851,0,0.8160095,0.1660995,1.1109924,0.4617996
			c0.2950134,0.2957001,0.4599915,0.696701,0.4599915,1.1148987v5.6761017c0,0.4181976-0.164978,0.8191986-0.4599915,1.1151962
			c-0.2949829,0.2950058-0.6950073,0.4610062-1.1109924,0.4610062c-0.4169922,0-0.8170166-0.1660004-1.1119995-0.4610062
			c-0.2950134-0.2959976-0.4599915-0.6969986-0.4599915-1.1151962v-5.6761017c0-0.4181976,0.164978-0.8191986,0.4599915-1.1148987
			C145.0291748,92.9205704,145.4291992,92.7544708,145.8461914,92.7544708z"/>
		<path class="st3" d="M137.6731873,92.7544708c0.4160156,0,0.8160095,0.1660995,1.1109924,0.4617996
			c0.2950134,0.2957001,0.460022,0.696701,0.460022,1.1148987v5.6761017c0,0.4181976-0.1650085,0.8191986-0.460022,1.1151962
			c-0.2949829,0.2950058-0.6949768,0.4610062-1.1109924,0.4610062c-0.4169922,0-0.8169861-0.1660004-1.1119995-0.4610062
			c-0.2950134-0.2959976-0.4599915-0.6969986-0.4599915-1.1151962v-5.6761017c0-0.4181976,0.164978-0.8191986,0.4599915-1.1148987
			S137.2561951,92.7544708,137.6731873,92.7544708z"/>
		<path class="st3" d="M129.499176,92.7544708c0.4170227,0,0.8170166,0.1660995,1.1119995,0.4617996
			c0.2950134,0.2957001,0.460022,0.696701,0.460022,1.1148987v5.6761017c0,0.4181976-0.1650085,0.8191986-0.460022,1.1151962
			c-0.2949829,0.2950058-0.6949768,0.4610062-1.1119995,0.4610062c-0.4159851,0-0.815979-0.1660004-1.1109924-0.4610062
			c-0.2949829-0.2959976-0.4599915-0.6969986-0.4599915-1.1151962v-5.6761017c0-0.4181976,0.1650085-0.8191986,0.4599915-1.1148987
			C128.683197,92.9205704,129.0831909,92.7544708,129.499176,92.7544708z"/>
		<path class="st3" d="M113.1541748,92.7544708c0.4160156,0,0.8160095,0.1660995,1.1110229,0.4617996
			c0.2949829,0.2957001,0.4599915,0.696701,0.4599915,1.1148987v5.6761017c0,0.4181976-0.1650085,0.8191986-0.4599915,1.1151962
			c-0.2950134,0.2950058-0.6950073,0.4610062-1.1110229,0.4610062c-0.4169922,0-0.8169861-0.1660004-1.1119995-0.4610062
			c-0.2949829-0.2959976-0.4599915-0.6969986-0.4599915-1.1151962v-5.6761017c0-0.4181976,0.1650085-0.8191986,0.4599915-1.1148987
			C112.3371887,92.9205704,112.7371826,92.7544708,113.1541748,92.7544708z"/>
		<path class="st3" d="M104.9812012,92.7544708c0.4159851,0,0.815979,0.1660995,1.1109924,0.4617996
			c0.2949829,0.2957001,0.4599915,0.696701,0.4599915,1.1148987v5.6761017c0,0.4181976-0.1650085,0.8191986-0.4599915,1.1151962
			c-0.2950134,0.2950058-0.6950073,0.4610062-1.1109924,0.4610062c-0.4170227,0-0.8170166-0.1660004-1.1119995-0.4610062
			c-0.2950134-0.2959976-0.460022-0.6969986-0.460022-1.1151962v-5.6761017c0-0.4181976,0.1650085-0.8191986,0.460022-1.1148987
			C104.1641846,92.9205704,104.5641785,92.7544708,104.9812012,92.7544708z"/>
		<path class="st3" d="M96.808197,92.7544708c0.4159851,0,0.815979,0.1660995,1.1109924,0.4617996
			s0.4599915,0.696701,0.4599915,1.1148987v5.6761017c0,0.4181976-0.164978,0.8191986-0.4599915,1.1151962
			c-0.2950134,0.2950058-0.6950073,0.4610062-1.1109924,0.4610062c-0.4170227,0-0.8170166-0.1660004-1.1119995-0.4610062
			c-0.2950134-0.2959976-0.460022-0.6969986-0.460022-1.1151962v-5.6761017c0-0.4181976,0.1650085-0.8191986,0.460022-1.1148987
			C95.9911804,92.9205704,96.3911743,92.7544708,96.808197,92.7544708z"/>
		<path class="st3" d="M88.6351929,92.7544708c0.4159851,0,0.8160095,0.1660995,1.1109924,0.4617996
			c0.2950134,0.2957001,0.4599915,0.696701,0.4599915,1.1148987v5.6761017c0,0.4181976-0.164978,0.8191986-0.4599915,1.1151962
			c-0.2949829,0.2950058-0.6950073,0.4610062-1.1109924,0.4610062c-0.4169922,0-0.8170166-0.1660004-1.1119995-0.4610062
			c-0.2950134-0.2959976-0.4599915-0.6969986-0.4599915-1.1151962v-5.6761017c0-0.4181976,0.164978-0.8191986,0.4599915-1.1148987
			C87.8181763,92.9205704,88.2182007,92.7544708,88.6351929,92.7544708z"/>
	</g>
</g>
</svg>
