<svg width="35" height="28" viewBox="0 0 35 28" fill="none" xmlns="http://www.w3.org/2000/svg">
<path d="M35 8.90312C35 9.2814 34.8746 9.66219 34.6165 9.98047L31.8844 13.3509C31.5387 13.7772 31.0301 13.9989 30.5166 13.9989C30.1333 13.9989 29.7472 13.8752 29.4245 13.6205L26.25 11.118V25.375C26.25 26.8248 25.0748 28 23.625 28H11.375C9.9258 28 8.75002 26.8242 8.75002 25.375V11.118L5.52892 13.6227C5.25275 13.8742 4.86666 13.9508 4.4833 13.9508C3.96989 13.9508 3.46119 13.7289 3.11556 13.3027L0.383485 9.98047C0.12536 9.66328 0 9.28047 0 8.90312C0 8.39661 0.22482 7.89469 0.656797 7.55344L8.03961 1.72375C8.73908 1.17523 9.60861 0.875 10.4508 0.875H12.3375C12.7586 3.35563 14.9024 5.25 17.5 5.25C20.0977 5.25 22.2431 3.35563 22.662 0.875H24.4995C25.3936 0.875 26.2615 1.17523 26.9599 1.72648L34.3427 7.55617C34.7758 7.89687 35 8.4 35 8.90312Z" fill="#A60E08"/>
</svg>
