<svg width="159" height="67" viewBox="0 0 159 67" fill="none" xmlns="http://www.w3.org/2000/svg">
<path d="M122.355 44.6759L122.821 42.8111H126.393V56.7966C126.393 59.516 125.616 61.4585 123.831 62.857C122.433 63.8671 120.647 64.644 118.396 64.644C115.368 64.644 113.194 63.634 111.409 61.9246L113.66 58.8167C114.747 59.8268 116.222 60.7592 118.163 60.7592C121.191 60.7592 122.433 59.2829 122.433 57.1074V56.0973C121.269 57.3405 119.793 57.8067 118.241 57.8067C114.126 57.8067 110.865 54.388 110.865 50.1147C110.865 45.8413 114.281 42.578 118.396 42.578C119.949 42.578 121.501 43.4327 122.355 44.6759ZM118.784 46.2298C116.688 46.2298 114.98 47.8615 114.98 50.1147C114.98 52.2125 116.688 53.9218 118.784 53.9218C120.88 53.9218 122.588 52.2125 122.588 50.1147C122.588 47.9392 120.88 46.2298 118.784 46.2298ZM95.7261 21.9883C94.0181 21.9883 92.6206 22.9984 92.3101 24.5523H99.0644C98.6763 22.9984 97.3564 21.9883 95.7261 21.9883ZM95.8813 33.7983C91.3784 33.7983 88.04 30.6904 88.04 26.184C88.04 22.066 91.0679 18.4142 95.8037 18.4142C99.375 18.4142 103.024 21.056 103.024 26.0286C103.024 26.4171 103.024 26.8832 102.946 27.4271H92.2324C92.6206 29.0588 94.0957 30.1465 95.8813 30.1465C97.5117 30.1465 98.7539 29.5249 99.8408 28.4372L102.325 30.9235C100.695 32.8659 98.3657 33.7983 95.8813 33.7983ZM141.221 21.9883C139.513 21.9883 138.116 22.9984 137.805 24.5523H144.56C144.171 22.9984 142.852 21.9883 141.221 21.9883ZM141.454 33.7983C136.951 33.7983 133.613 30.6904 133.613 26.184C133.613 22.066 136.641 18.4142 141.376 18.4142C144.948 18.4142 148.597 21.056 148.597 26.0286C148.597 26.4171 148.597 26.8832 148.519 27.4271H137.805C138.193 29.0588 139.668 30.1465 141.454 30.1465C143.084 30.1465 144.327 29.5249 145.414 28.4372L147.898 30.9235C146.19 32.8659 143.861 33.7983 141.454 33.7983ZM151.625 45.9967C149.917 45.9967 148.519 47.0068 148.208 48.5607H154.963C154.575 47.0068 153.255 45.9967 151.625 45.9967ZM151.857 57.8067C147.354 57.8067 144.016 54.6988 144.016 50.1924C144.016 46.0744 147.044 42.4227 151.78 42.4227C155.351 42.4227 159 45.0644 159 50.037C159 50.4255 159 50.8916 158.922 51.4355H148.208C148.597 53.0672 150.072 54.1549 151.857 54.1549C153.488 54.1549 154.73 53.5333 155.817 52.4456L158.301 54.9319C156.593 56.8743 154.264 57.8067 151.857 57.8067ZM84.7793 45.9967C83.0713 45.9967 81.6738 47.0068 81.3633 48.5607H88.1177C87.8071 47.0068 86.4097 45.9967 84.7793 45.9967ZM85.0122 57.8067C80.5093 57.8067 77.1709 54.6988 77.1709 50.1924C77.1709 46.0744 80.1987 42.4227 84.9346 42.4227C88.5059 42.4227 92.1548 45.0644 92.1548 50.037C92.1548 50.4255 92.1548 50.8916 92.0771 51.4355H81.3633C81.7515 53.0672 83.2266 54.1549 85.0122 54.1549C86.6426 54.1549 87.8848 53.5333 88.9717 52.4456L91.4561 54.9319C89.748 56.8743 87.4966 57.8067 85.0122 57.8067ZM62.5752 57.4182V35.8184H66.8452V53.3779H76.2393V57.4959L62.5752 57.4182ZM79.0342 33.4098V18.8027H82.5278L82.9937 20.9006C83.6147 19.502 84.9346 18.6473 86.7202 18.6473C87.1084 18.6473 87.4966 18.725 87.8848 18.8027V22.6876C87.4189 22.6099 86.9531 22.5322 86.4873 22.5322C84.5464 22.5322 83.1489 23.6977 83.1489 26.1063V33.4098H79.0342ZM150.072 33.4098V18.8027H153.565L154.031 20.9006C154.652 19.502 155.972 18.6473 157.758 18.6473C158.146 18.6473 158.534 18.725 158.922 18.8027V22.6876C158.457 22.6099 157.991 22.5322 157.525 22.5322C155.584 22.5322 154.187 23.6977 154.187 26.1063V33.4098H150.072ZM121.89 24.8631C121.89 23.3092 121.036 22.2991 119.638 22.2991C118.085 22.2991 117.231 23.3092 117.231 24.9408V33.4875H113.194V24.8631C113.194 23.3092 112.34 22.2991 110.943 22.2991C109.39 22.2991 108.536 23.3092 108.536 24.9408V33.4875H104.499V18.8027H108.07L108.536 20.7452C108.536 20.7452 109.39 18.4919 112.107 18.4919C113.815 18.4919 115.213 19.1912 116.222 20.6675L116.3 20.8229L116.377 20.6675C117.775 18.6473 119.561 18.4919 120.647 18.4919C123.753 18.4919 125.849 20.8229 125.849 24.1638V33.4875H121.89V24.8631ZM130.042 16.8603C128.644 16.8603 127.557 15.7725 127.557 14.374C127.557 12.9754 128.644 11.8877 130.042 11.8877C131.439 11.8877 132.526 12.9754 132.526 14.374C132.526 15.7725 131.439 16.8603 130.042 16.8603ZM127.945 18.8027H131.982V33.4098H127.945V18.8027ZM101.549 46.2298C99.375 46.2298 97.7446 47.8615 97.7446 50.1147C97.7446 52.2125 99.375 53.9218 101.549 53.9218C103.645 53.9218 105.275 52.2125 105.275 50.1147C105.275 47.9392 103.645 46.2298 101.549 46.2298ZM100.695 57.8067C96.813 57.8067 93.4746 54.2326 93.4746 50.1147C93.4746 45.9967 96.8906 42.578 100.695 42.578C102.869 42.578 104.344 43.355 105.198 44.6759L105.664 42.7334H109.235V57.3405H105.664L105.198 55.4758C104.344 56.8743 102.713 57.8067 100.695 57.8067ZM135.398 57.8067C132.215 57.8067 128.256 56.0973 128.256 50.5809V42.8111H132.293V50.3478C132.293 52.8341 133.458 53.9218 135.398 53.9218C137.184 53.9218 138.504 52.6787 138.504 50.3478V42.8111H142.541V50.5809C142.541 56.0973 138.582 57.8067 135.398 57.8067ZM66.9229 22.066H69.4072C71.5811 22.066 73.1338 20.9006 73.1338 18.6473C73.1338 16.4718 71.5811 15.3064 69.4072 15.3064H66.9229V22.066ZM62.5752 33.4098V11.2661H69.6401C74.2207 11.2661 77.6367 13.9855 77.6367 18.6473C77.6367 23.3869 74.2207 26.184 69.6401 26.184H66.9229V33.4098H62.5752Z" fill="#B765F6"/>
<path d="M47.2031 30.6127C45.728 31.7781 44.4858 32.4774 44.4858 32.4774V36.2845C45.4951 37.45 46.582 38.3824 47.3584 40.0917C48.8335 37.5277 48.5229 33.7982 47.2031 30.6127ZM46.0386 43.1219C46.0386 43.1219 45.728 41.568 44.4858 40.0917L41.6133 40.1694C41.6133 40.1694 37.7314 43.4327 35.3247 43.5104C35.3247 43.5104 36.6445 45.919 37.2656 47.1621C38.5854 46.8514 40.9145 45.8413 41.8462 44.8312C41.8462 44.8312 42.4673 46.7737 42.312 49.0269C43.5542 48.2499 45.3398 46.2298 46.0386 43.1219ZM42.2344 36.2069V32.3997C42.2344 32.3997 40.5264 31.8558 38.6631 30.4573C34.9365 31.0788 30.4336 34.7306 30.4336 34.7306C30.4336 34.7306 31.9863 37.5277 33.6167 40.5579C36.5669 40.9464 40.8369 37.3723 42.2344 36.2069ZM52.1719 51.9794L49.7651 49.4154C49.0664 56.4081 45.5728 62.3131 39.1289 66.431L38.1196 62.7016C32.6851 66.5864 23.291 69.0727 15.2168 64.644C16.2261 59.6714 17.0801 54.6211 15.2168 48.5607C10.7915 55.3203 6.83203 57.962 6.83203 57.962C3.88184 52.9894 4.11475 43.0442 5.04639 40.1694L0 41.7234C0 38.3824 2.48437 31.3119 5.97803 27.3494L2.87256 26.8832C4.96875 22.6099 8.15185 18.9581 12.0337 16.2387C10.8691 18.0257 10.8691 22.4545 14.2852 24.1638C12.8101 21.6775 12.6548 18.5696 14.2075 17.0157C15.7603 15.384 18.2446 15.9279 19.875 17.1711C19.4092 15.7725 17.9341 14.0632 15.8379 13.9078C19.875 11.8877 24.4556 10.7222 29.269 10.7222C30.2007 10.7222 31.0547 10.7222 31.9863 10.7999C33.3838 11.3438 35.48 13.2862 36.4116 14.4517C36.4116 14.4517 36.4893 13.0531 35.6353 11.3438C40.8369 12.5869 43.3213 14.6848 44.4082 15.6948C44.6411 17.8703 45.2622 19.1912 46.1938 21.289C44.4858 19.4243 40.2158 16.4718 38.1973 15.6948C38.1973 15.6948 38.042 17.6372 37.3433 18.4919C33.3061 15.6171 31.2876 14.9178 31.2876 14.9178C26.8623 15.5394 23.9897 17.2488 22.437 18.4919L23.7568 19.5797C21.0395 20.3566 19.3315 22.6099 19.3315 22.6099C19.3315 22.6876 21.7383 22.9983 21.7383 22.9983C21.7383 22.9983 21.5054 25.7177 24.999 27.4271C28.0269 28.9033 32.2969 27.0386 36.334 28.6702C33.6943 25.64 31.831 24.3192 31.831 24.3192C31.831 24.3192 30.7441 24.0861 30.0454 24.0861C29.1138 24.0861 27.7163 24.2415 26.2412 23.6976C25.5425 23.3868 24.6885 22.9206 23.9897 22.5322C23.9897 22.5322 25.853 20.6674 28.5703 20.2789C28.5703 20.2789 31.0547 20.9782 32.9956 22.3768C34.3154 21.1336 35.6353 21.2113 35.6353 21.2113C35.6353 21.2113 34.3154 22.4545 34.7036 23.9307C36.6445 25.64 38.7407 28.0487 38.7407 28.0487C40.9145 26.8832 45.5727 27.194 46.5044 28.2817C45.2622 26.7278 43.5542 25.4847 42.1567 24.3192C42.0015 23.7753 40.5264 21.7552 40.2935 21.5221C40.2935 21.5221 41.6909 21.9106 42.9331 23.076C43.3213 22.6099 43.9424 22.066 44.874 21.8329C45.8057 22.6099 45.9609 23.7753 45.9609 24.0084C45.5727 24.4746 45.1069 24.7077 45.1069 24.7077L47.3584 27.1163L47.5913 25.407C53.0259 32.8659 55.8208 41.3349 52.1719 51.9794ZM10.6362 5.59419C13.6641 6.91504 15.605 8.62438 15.9932 8.93517C15.8379 8.1582 15.2168 4.50643 14.9062 2.17552C16.6919 3.34098 20.8066 6.13807 22.1265 7.07044C22.6699 5.4388 24.5332 0 24.5332 0C24.5332 0 27.9492 5.4388 28.5703 6.29347C29.269 5.59419 33.3838 1.16546 34.4707 0C34.626 2.564 34.8589 6.21577 34.9365 6.83735C35.1694 6.52656 36.7222 4.42874 39.3618 2.40861C38.1973 4.58413 37.6538 7.61432 37.4209 10.1006C34.8589 9.40135 32.064 9.01287 29.269 9.01287C23.8345 9.01287 18.7104 10.4114 14.3628 12.82C13.5088 10.4891 12.2666 7.53662 10.6362 5.59419Z" fill="#B765F6"/>
</svg>
