<svg width="33" height="33" viewBox="0 0 33 33" fill="none" xmlns="http://www.w3.org/2000/svg">
<path d="M18.5862 16.2635C18.5862 17.3399 19.4588 18.2125 20.5351 18.2125L24.3004 18.2125L24.2967 20.1581C24.2947 21.2346 25.1657 22.1089 26.2422 22.1109C26.7805 22.1119 27.2682 21.8947 27.6216 21.5426L31.5199 17.6443C31.8732 17.2923 32.0997 16.8127 32.1007 16.2745C32.1017 15.7362 31.8845 15.2486 31.5324 14.8952L27.6341 10.9969C27.282 10.6435 26.8025 10.4171 26.2642 10.4161C25.1878 10.4141 24.3135 11.2851 24.3115 12.3616L24.3078 14.3146L20.5352 14.3146C19.4588 14.3146 18.5862 15.1872 18.5862 16.2635Z" stroke="#C68E00" stroke-width="1.5" stroke-miterlimit="10" stroke-linecap="round" stroke-linejoin="round"/>
<path d="M14.6872 16.2635C14.6872 17.3399 13.8147 18.2125 12.7383 18.2125L8.96573 18.2125L8.96204 20.1655C8.96005 21.242 8.08571 22.113 7.00926 22.111C6.47101 22.11 5.99148 21.8836 5.63941 21.5302L1.74107 17.6318C1.389 17.2784 1.17178 16.7908 1.17278 16.2525C1.17378 15.7143 1.40016 15.2348 1.75355 14.8827L5.65185 10.9844C6.00523 10.6323 6.49293 10.4151 7.03117 10.4161C8.10766 10.4181 8.97869 11.2924 8.97665 12.3689L8.973 14.3146L12.7383 14.3146C13.8147 14.3146 14.6872 15.1872 14.6872 16.2635Z" stroke="#C68E00" stroke-width="1.5" stroke-miterlimit="10" stroke-linecap="round" stroke-linejoin="round"/>
<path d="M22.1498 7.99399L18.015 3.85922C17.2538 3.09804 16.0196 3.09804 15.2585 3.85922L11.1237 7.99399" stroke="#747474" stroke-width="1.5" stroke-miterlimit="10" stroke-linecap="round" stroke-linejoin="round"/>
<path d="M22.1498 24.5331L18.015 28.6678C17.2538 29.429 16.0196 29.429 15.2585 28.6678L11.1237 24.5331" stroke="#747474" stroke-width="1.5" stroke-miterlimit="10" stroke-linecap="round" stroke-linejoin="round"/>
</svg>
