<svg width="14" height="19" viewBox="0 0 14 19" fill="none" xmlns="http://www.w3.org/2000/svg">
<path d="M0.33482 7.26035L6.03645 0.69785C6.25739 0.439452 6.5496 0.312304 6.84181 0.312304C7.13402 0.312304 7.42551 0.440478 7.64788 0.696826L13.3495 7.25933C13.795 7.77202 13.795 8.60259 13.3495 9.11528C12.9041 9.62798 12.1825 9.62798 11.737 9.11528L7.98214 4.79121L7.98214 17.3748C7.98214 18.1004 7.47149 18.6504 6.87388 18.6504C6.27628 18.6504 5.70148 18.1004 5.70148 17.3748L5.70148 4.79121L1.94553 9.11426C1.50009 9.62695 0.778479 9.62695 0.333039 9.11426C-0.112402 8.60156 -0.11062 7.77305 0.33482 7.26035Z" fill="#03A1CD"/>
</svg>
