<svg width="129" height="27" viewBox="0 0 129 27" fill="none" xmlns="http://www.w3.org/2000/svg">
<mask id="mask0_3202_1680" style="mask-type:luminance" maskUnits="userSpaceOnUse" x="0" y="0" width="129" height="27">
<path d="M129 0.714355H0.429688V26.2355H129V0.714355Z" fill="white"/>
</mask>
<g mask="url(#mask0_3202_1680)">
<path fill-rule="evenodd" clip-rule="evenodd" d="M11.2596 24.7863C12.2797 26.6683 14.9134 26.7624 16.0633 24.9745L26.895 8.22384C28.0449 6.45467 26.9506 4.06442 24.8733 3.81975L3.58097 1.33538C1.31819 1.07189 -0.31398 3.51861 0.798862 5.55127L11.2596 24.7863Z" fill="url(#paint0_linear_3202_1680)"/>
<path fill-rule="evenodd" clip-rule="evenodd" d="M11.2596 24.7863C12.2797 26.6683 14.9134 26.7624 16.0633 24.9745L26.895 8.22384C28.0449 6.45467 26.9506 4.06442 24.8733 3.81975L3.58097 1.33538C1.31819 1.07189 -0.31398 3.51861 0.798862 5.55127L11.2596 24.7863Z" fill="url(#paint1_linear_3202_1680)"/>
<path d="M12.8361 21.5679L11.8716 23.0359C11.4821 23.6382 10.6104 23.6005 10.2766 22.9606L11.2596 24.7863C11.445 25.1062 11.6676 25.3885 11.9087 25.5956C13.1329 26.6495 15.0989 26.4613 16.0633 24.9745L26.895 8.22384C28.0449 6.45467 26.9506 4.06442 24.8733 3.81974L3.58097 1.33538C1.31819 1.07189 -0.31398 3.51861 0.798862 5.55127L0.891599 5.70184L19.0124 7.8286C20.1623 7.96035 20.7744 9.29663 20.1438 10.2753L12.8361 21.5679Z" fill="url(#paint2_linear_3202_1680)"/>
<path d="M111.966 6.49231H105.716V20.2316H108.183V16.8062C108.183 16.4674 108.312 16.1474 108.535 15.9216C108.776 15.6957 109.073 15.5452 109.407 15.5452H111.948C113.135 15.5452 114.266 15.0746 115.101 14.2277C115.935 13.3808 116.399 12.2327 116.399 11.0281C116.399 10.4259 116.288 9.84243 116.065 9.29663C115.843 8.75082 115.509 8.24265 115.101 7.82859C114.693 7.41453 114.192 7.07576 113.654 6.84991C113.135 6.62405 112.56 6.49231 111.966 6.49231ZM113.914 11.0093C113.914 11.2916 113.858 11.574 113.747 11.8374C113.636 12.1009 113.487 12.3268 113.283 12.5338C113.079 12.7409 112.857 12.8914 112.597 13.0043C112.337 13.1173 112.059 13.1737 111.781 13.1737H108.164V8.90139H111.781C112.059 8.90139 112.337 8.95785 112.597 9.07077C112.857 9.1837 113.079 9.33427 113.283 9.5413C113.487 9.74833 113.636 9.97418 113.747 10.2377C113.858 10.4635 113.914 10.727 113.914 11.0093Z" fill="#78F8DF"/>
<path d="M97.0361 20.1752L92.0469 6.45471H94.8661L98.149 16.2792C98.2788 16.6368 98.3715 16.9944 98.4272 17.3708H98.4457C98.4828 16.9944 98.5755 16.6368 98.7239 16.2792L102.007 6.45471H104.845L99.8368 20.1752H97.0361Z" fill="#78F8DF"/>
<path d="M117.352 20.1752V6.45471H119.522L125.902 14.9618C126.124 15.2629 126.328 15.564 126.495 15.9028H126.533C126.495 15.4888 126.477 15.0747 126.477 14.6606V6.45471H129.036V20.1752H126.866L120.468 11.6681C120.245 11.367 120.041 11.0658 119.874 10.7271H119.855C119.893 11.1411 119.911 11.5552 119.893 11.9692V20.1752H117.352Z" fill="#78F8DF"/>
<path d="M42.768 6.41711H36.5176V20.1564H38.9844V16.731C38.9844 16.3922 39.1142 16.0722 39.3553 15.8464C39.5779 15.6205 39.8932 15.47 40.2271 15.47H42.768C43.9551 15.47 45.0865 14.9995 45.9211 14.1525C46.7557 13.3056 47.2194 12.1575 47.2194 10.953C47.2194 10.3507 47.1081 9.76724 46.8856 9.22144C46.663 8.67563 46.3291 8.16746 45.9211 7.7534C45.513 7.33934 45.0123 7.00057 44.4744 6.77472C43.9365 6.53004 43.343 6.41711 42.768 6.41711ZM44.7155 10.9341C44.7155 11.2164 44.6599 11.4988 44.5486 11.7623C44.4373 12.0258 44.2889 12.2516 44.0849 12.4586C43.8809 12.6657 43.6583 12.8162 43.3986 12.9292C43.139 13.0421 42.8608 13.0985 42.5826 13.0985H38.9844V8.8262H42.6011C42.8793 8.8262 43.1575 8.88266 43.4172 8.99558C43.6769 9.10851 43.8994 9.25908 44.1035 9.46611C44.3075 9.67314 44.4559 9.89899 44.5671 10.1625C44.6599 10.3695 44.7155 10.6518 44.7155 10.9341Z" fill="white"/>
<path d="M47.6143 20.1563V14.7171C47.6143 12.4962 48.894 10.7271 51.4536 10.7271C51.8616 10.7271 52.2696 10.7647 52.6777 10.8588V13.0985C52.3809 13.0797 52.1213 13.0797 52.01 13.0797C50.656 13.0797 50.0625 13.7008 50.0625 14.9806V20.1563H47.6143Z" fill="white"/>
<path d="M53.3955 15.5264C53.3955 12.7974 55.4357 10.7083 58.2549 10.7083C61.0927 10.7083 63.1143 12.7974 63.1143 15.5264C63.1143 18.2554 61.0741 20.3634 58.2549 20.3634C55.4357 20.3634 53.3955 18.2743 53.3955 15.5264ZM60.7032 15.5264C60.7032 13.9643 59.6831 12.8727 58.2549 12.8727C56.8453 12.8727 55.8067 13.9831 55.8067 15.5264C55.8067 17.0885 56.8268 18.1802 58.2549 18.1802C59.6831 18.1802 60.7032 17.1074 60.7032 15.5264Z" fill="white"/>
<path d="M70.261 12.8915H67.6087V16.3357C67.6087 17.5403 68.0353 18.0861 69.2594 18.0861C69.3707 18.0861 69.6675 18.0861 70.0384 18.0673V20.0999C69.5747 20.2317 69.0925 20.307 68.6103 20.307C66.5515 20.307 65.1605 19.0459 65.1605 16.6745V12.8915H63.5098V10.9153H63.9178C64.2517 10.9153 64.567 10.7836 64.7895 10.5389C65.0121 10.313 65.1605 9.99309 65.1605 9.65431V7.77222H67.6273V10.8965H70.2796V12.8915H70.261Z" fill="white"/>
<path d="M71.0029 15.5264C71.0029 12.7974 73.0431 10.7083 75.8623 10.7083C78.6815 10.7083 80.7217 12.7974 80.7217 15.5264C80.7217 18.2554 78.6815 20.3634 75.8623 20.3634C73.0431 20.3634 71.0029 18.2743 71.0029 15.5264ZM78.3106 15.5264C78.3106 13.9643 77.2905 12.8727 75.8623 12.8727C74.4342 12.8727 73.4141 13.9831 73.4141 15.5264C73.4141 17.0885 74.4342 18.1802 75.8623 18.1802C77.2719 18.1802 78.3106 17.1074 78.3106 15.5264Z" fill="white"/>
<path d="M82.0039 20.1561V14.8863C82.0039 12.4396 83.5433 10.6892 86.2698 10.6892C88.9963 10.6892 90.5171 12.4396 90.5171 14.8863V20.1373H88.0689V15.0933C88.0689 13.7382 87.4754 12.8913 86.2698 12.8913C85.0642 12.8913 84.4707 13.7382 84.4707 15.0933V20.1561H82.0039Z" fill="white"/>
</g>
<defs>
<linearGradient id="paint0_linear_3202_1680" x1="13.3539" y1="-13.7348" x2="14.2972" y2="17.8721" gradientUnits="userSpaceOnUse">
<stop offset="0.9887" stop-color="#6D4AFF"/>
<stop offset="1"/>
</linearGradient>
<linearGradient id="paint1_linear_3202_1680" x1="17.2086" y1="-8.99371" x2="9.38108" y2="24.2178" gradientUnits="userSpaceOnUse">
<stop offset="0.4799" stop-color="#24ECC6" stop-opacity="0"/>
<stop offset="0.9944" stop-color="#24ECC6"/>
</linearGradient>
<linearGradient id="paint2_linear_3202_1680" x1="24.1841" y1="23.7844" x2="6.93307" y2="-5.28775" gradientUnits="userSpaceOnUse">
<stop offset="0.0660125" stop-color="#ABFFEF"/>
<stop offset="0.4499" stop-color="#CAC9FF"/>
<stop offset="1" stop-color="#6D4AFF"/>
</linearGradient>
</defs>
</svg>
