<svg width="42" height="50" viewBox="0 0 42 50" fill="none" xmlns="http://www.w3.org/2000/svg">
<path d="M28.0878 8.11845C29.896 5.93289 31.1228 2.99862 30.7994 0C28.1526 0.127249 24.9226 1.68757 23.0527 3.87458C21.3735 5.74767 19.8875 8.80484 20.275 11.6777C23.2458 11.9267 26.2145 10.2426 28.0878 8.11845Z" fill="black"/>
<path d="M30.8409 11.7187C26.6434 11.4712 23.0744 14.0766 21.0698 14.0766C19.0643 14.0766 15.9946 11.8435 12.6745 11.9036C8.35335 11.9665 4.34378 14.3848 2.15094 18.231C-2.35934 25.9255 0.960706 37.339 5.34668 43.6055C7.4765 46.7057 10.0437 50.1196 13.4259 49.9968C16.6217 49.8726 17.8743 47.9485 21.7587 47.9485C25.6405 47.9485 26.7689 49.9968 30.1516 49.9347C33.6599 49.8726 35.853 46.8328 37.9829 43.7294C40.4263 40.1952 41.4266 36.7827 41.4894 36.5953C41.4263 36.5332 34.7247 33.9884 34.6625 26.3581C34.5992 19.9691 39.9242 16.9299 40.1748 16.7416C37.1682 12.34 32.4697 11.8435 30.8409 11.7187Z" fill="black"/>
</svg>
