<svg width="32" height="41" viewBox="0 0 32 41" fill="none" xmlns="http://www.w3.org/2000/svg">
<path d="M6.47417 26.3893C6.30018 26.8214 5.85921 27.4693 4.86517 27.2233C4.90025 27.2743 2.31326 26.5863 2.31326 26.5863L0.570312 30.6053L5.13919 31.7443C5.98919 31.9573 6.82223 32.1803 7.6422 32.3903L6.18916 38.2243L9.69614 39.0993L11.1351 33.3273C12.0932 33.5872 13.0231 33.8272 13.9331 34.0533L12.4991 39.7982L16.0101 40.6732L17.4631 34.8502C23.4501 35.9832 27.9519 35.5262 29.8469 30.1113C31.3739 25.7514 29.771 23.2363 26.621 21.5964C28.915 21.0674 30.6429 19.5584 31.1039 16.4414C31.7409 12.1834 28.4989 9.89446 24.0659 8.36745L25.5039 2.59946L21.9929 1.72447L20.593 7.34041C19.67 7.11041 18.7219 6.8934 17.78 6.67838L19.19 1.02538L15.681 0.150391L14.242 5.91633C13.478 5.74234 12.7281 5.57026 12 5.38932L12.004 5.37128L7.16203 4.1623L6.22797 7.91227C6.22797 7.91227 8.833 8.50928 8.77798 8.54626C10.2 8.90127 10.457 9.8422 10.414 10.5883L6.47417 26.3893ZM23.082 27.6903C21.997 32.0502 14.6561 29.6932 12.2761 29.1023L14.2041 21.3734C16.584 21.9673 24.2159 23.1433 23.082 27.6903ZM24.1679 16.3784C23.178 20.3444 17.068 18.3295 15.0861 17.8355L16.834 10.8255C18.816 11.3195 25.199 12.2414 24.1679 16.3784Z" fill="white"/>
</svg>
