<svg width="42" height="42" viewBox="0 0 42 42" fill="none" xmlns="http://www.w3.org/2000/svg">
<g id="G_Pay_Lockup_1_">
<path id="Vector" d="M40.7355 17.0635H21.002V25.1551L32.3669 25.1576C31.9061 27.8499 30.4225 30.1449 28.1495 31.675V31.6765C28.1503 31.676 28.1513 31.6755 28.1521 31.675L27.9474 36.5113L34.9172 36.9223C34.9162 36.9231 34.9152 36.9241 34.9144 36.9248C38.8646 33.269 41.128 27.8646 41.128 21.4797C41.1278 19.9446 40.9905 18.4759 40.7355 17.0635Z" fill="#0085F7"/>
<path id="Vector_2" d="M28.1527 31.6748C28.152 31.6753 28.151 31.6758 28.1502 31.6763C26.2674 32.9454 23.8432 33.6878 21.0076 33.6878C15.5274 33.6878 10.8785 29.9951 9.2136 25.0176H9.21285C9.2131 25.0184 9.21335 25.0194 9.2136 25.0201L3.39499 24.0986L2.23633 30.4332C5.69403 37.293 12.7993 42.0001 21.0079 42.0001C26.6802 42.0001 31.4459 40.1351 34.9153 36.9243C34.9163 36.9236 34.9173 36.9228 34.9181 36.9218L28.1527 31.6748Z" fill="#00A94B"/>
<path id="Vector_3" d="M8.55497 21.0012C8.55497 19.6036 8.78791 18.2526 9.2122 16.9825L7.39531 11.5684H2.23367C0.804252 14.4054 0 17.6076 0 21.0012C0 24.3948 0.806756 27.597 2.23367 30.4341L2.23467 30.4333L9.2122 25.02C9.21195 25.0192 9.2117 25.0185 9.21145 25.0175C8.78766 23.7484 8.55497 22.3981 8.55497 21.0012Z" fill="#FFBB00"/>
<path id="Vector_4" d="M21.005 0C12.7981 0 5.68988 4.70779 2.23242 11.5686L9.2107 16.9827C10.8756 12.0052 15.5245 8.31252 21.0047 8.31252C24.1015 8.31252 26.8749 9.37926 29.0645 11.4634L35.0597 5.47322C31.4187 2.08164 26.6715 0 21.005 0Z" fill="#FF4031"/>
</g>
</svg>
