<svg width="42" height="48" viewBox="0 0 42 48" fill="none" xmlns="http://www.w3.org/2000/svg">
<path d="M37.2964 12.1953C37.2964 12.1953 36.1687 12.7961 36.1087 13.0964C34.1863 23.1891 28.4654 25.958 19.8746 25.958L15.4892 25.8886C14.4079 25.8886 12.9295 27.3943 12.7493 28.4156L10.4825 41.6141L11.1036 42.6534L10.5029 46.7384C10.3827 47.3392 10.8033 47.9399 11.4641 48C11.5242 48 11.5843 48 11.6443 48H19.394C20.2951 48 21.076 47.3392 21.2563 46.4381L21.3164 46.0175C21.3164 46.0175 22.7562 36.7788 22.7582 36.766C22.9273 35.6812 23.5262 34.7234 24.7406 34.7234H25.882C33.3914 34.7234 39.2788 31.6596 41.021 22.8285C41.7419 19.1639 41.3814 16.04 39.459 13.8774C38.8583 13.1564 38.1374 12.6158 37.2964 12.1953Z" fill="#009BD9"/>
<path d="M35.4105 10.2433C33.5177 9.63298 31.4622 9.55273 29.4881 9.55273H17.7735C16.8723 9.55273 15.2962 10.7382 15.1159 11.6393L12.4609 27.935L13.3879 28.4156C13.5681 27.3943 14.4692 26.6134 15.4906 26.6134H19.876C28.4668 26.6134 35.1573 23.141 37.1398 13.0484C37.1999 12.748 37.2363 12.5227 37.2977 12.1954C37.2977 12.1954 36.6686 10.7797 36.1552 10.5181C35.9164 10.4175 35.6666 10.3259 35.4105 10.2433Z" fill="#192A67"/>
<path d="M15.9704 12.2553C16.0906 11.3542 16.8716 10.6933 17.8328 10.6933H29.4873C30.869 10.6933 32.1907 10.8135 33.3321 10.9937C34.113 11.1139 34.8941 11.2941 35.675 11.5343C36.2757 11.7145 36.8164 11.9549 37.2971 12.1952C37.8978 8.4705 37.2971 5.94741 35.2545 3.60441C33.0918 1.08131 29.0667 0 23.9003 0H9.00172C7.98041 0 7.07928 0.780938 6.8991 1.80225L0.651222 41.2115C0.531034 41.9324 1.01169 42.5932 1.73253 42.6533C1.79263 42.6533 1.85272 42.6533 1.91272 42.6533H11.1043L13.4472 27.995L15.9704 12.2553Z" fill="#0A3B82"/>
</svg>
