<svg width="27" height="45" viewBox="0 0 27 45" fill="none" xmlns="http://www.w3.org/2000/svg">
<path d="M14.3705 32.36L23.3206 29.3875C23.463 29.3433 23.6155 29.3441 23.7575 29.3897C23.8994 29.4353 24.0238 29.5236 24.1138 29.6425C24.2037 29.7613 24.2548 29.9051 24.2601 30.0541C24.2655 30.203 24.2247 30.35 24.1435 30.475L15.1317 43.4163C14.9468 43.6767 14.7022 43.889 14.4184 44.0355C14.1346 44.182 13.8199 44.2584 13.5005 44.2584C13.1811 44.2584 12.8664 44.182 12.5826 44.0355C12.2988 43.889 12.0542 43.6767 11.8692 43.4163L2.85748 30.475C2.77624 30.35 2.7355 30.203 2.74082 30.0541C2.74614 29.9051 2.79726 29.7613 2.88721 29.6425C2.97717 29.5236 3.10158 29.4353 3.24351 29.3897C3.38544 29.3441 3.53799 29.3433 3.68036 29.3875L12.6305 32.36C13.1944 32.5534 13.8066 32.5534 14.3705 32.36ZM25.4267 22.9133C25.5776 22.8625 25.7154 22.7792 25.8305 22.6693C25.9456 22.5594 26.0352 22.4255 26.0929 22.2772C26.1506 22.1289 26.1751 21.9697 26.1646 21.8109C26.1541 21.6521 26.1089 21.4976 26.0321 21.3582L15.2405 1.76504C15.0643 1.45937 14.8108 1.2055 14.5053 1.02898C14.1998 0.852458 13.8533 0.759521 13.5005 0.759521C13.1477 0.759521 12.8011 0.852458 12.4957 1.02898C12.1902 1.2055 11.9366 1.45937 11.7605 1.76504L0.968859 21.3582C0.892093 21.4976 0.846861 21.6521 0.836356 21.8109C0.825851 21.9697 0.850329 22.1289 0.908063 22.2772C0.965796 22.4255 1.05538 22.5594 1.17048 22.6693C1.28559 22.7792 1.42342 22.8625 1.57423 22.9133L13.5005 26.9225L25.4267 22.9133Z" fill="white"/>
</svg>
