<svg width="107" height="45" viewBox="0 0 107 45" fill="none" xmlns="http://www.w3.org/2000/svg">
<path fill-rule="evenodd" clip-rule="evenodd" d="M107 23.2431C107 15.6343 103.314 9.63037 96.2699 9.63037C89.1961 9.63037 84.916 15.6343 84.916 23.1837C84.916 32.1302 89.9688 36.6479 97.221 36.6479C100.758 36.6479 103.433 35.8454 105.454 34.7159V28.7713C103.433 29.7819 101.115 30.406 98.172 30.406C95.289 30.406 92.7328 29.3953 92.4059 25.8881H106.94C106.94 25.5019 107 23.9563 107 23.2431ZM92.3169 20.4194C92.3169 17.0607 94.3678 15.6639 96.2402 15.6639C98.0533 15.6639 99.9853 17.0609 99.9853 20.4194H92.3169Z" fill="white"/>
<path fill-rule="evenodd" clip-rule="evenodd" d="M73.4443 9.63037C70.5315 9.63037 68.6589 10.9977 67.6186 11.9488L67.2322 10.106H60.6934V44.7622L68.1239 43.1869L68.1536 34.7754C69.2236 35.5482 70.7988 36.6479 73.4144 36.6479C78.7347 36.6479 83.5794 32.3678 83.5794 22.9459C83.5499 14.3265 78.6457 9.63037 73.4443 9.63037ZM71.6609 30.109C69.9071 30.109 68.867 29.4848 68.1536 28.712L68.1239 17.6851C68.8967 16.8231 69.9667 16.2288 71.6609 16.2288C74.3656 16.2288 76.2381 19.2604 76.2381 23.1541C76.2381 27.1369 74.3953 30.109 71.6609 30.109Z" fill="white"/>
<path fill-rule="evenodd" clip-rule="evenodd" d="M50.4688 7.87674L57.929 6.27181V0.238037L50.4688 1.81351V7.87674Z" fill="white"/>
<path d="M57.929 10.1355H50.4688V36.1424H57.929V10.1355Z" fill="white"/>
<path fill-rule="evenodd" clip-rule="evenodd" d="M42.4737 12.335L41.9981 10.1355H35.5781V36.1424H43.0087V18.5171C44.7622 16.2284 47.7345 16.6447 48.6559 16.9715V10.1355C47.7048 9.77897 44.2272 9.12508 42.4737 12.335Z" fill="white"/>
<path fill-rule="evenodd" clip-rule="evenodd" d="M27.6121 3.68604L20.3598 5.23163L20.3301 29.039C20.3301 33.438 23.6292 36.6777 28.0281 36.6777C30.4654 36.6777 32.2486 36.232 33.2296 35.6968V29.6632C32.2785 30.0496 27.5824 31.4168 27.5824 27.018V16.4666H33.2296V10.1359H27.5824L27.6121 3.68604Z" fill="white"/>
<path fill-rule="evenodd" clip-rule="evenodd" d="M7.5198 17.6851C7.5198 16.526 8.47085 16.0802 10.0461 16.0802C12.3049 16.0802 15.1583 16.7638 17.4173 17.9825V10.9977C14.9504 10.017 12.5131 9.63037 10.0461 9.63037C4.01255 9.63037 0 12.7811 0 18.0419C0 26.2452 11.2945 24.9375 11.2945 28.4744C11.2945 29.8415 10.1057 30.2875 8.44118 30.2875C5.97421 30.2875 2.82369 29.2769 0.327048 27.9097V34.9836C3.09118 36.1724 5.88519 36.6777 8.44118 36.6777C14.6233 36.6777 18.8737 33.6162 18.8737 28.2961C18.844 19.4389 7.5198 21.0141 7.5198 17.6851Z" fill="white"/>
</svg>
