<svg width="19" height="19" viewBox="0 0 19 19" fill="none" xmlns="http://www.w3.org/2000/svg">
<path d="M18.6882 9.52432C18.688 7.76928 18.1848 6.05107 17.2384 4.5731C16.2919 3.09512 14.9418 1.91928 13.3479 1.18478C11.7539 0.450277 9.98288 0.18787 8.24443 0.428625C6.50598 0.669381 4.87292 1.40322 3.53857 2.54325C2.20422 3.68329 1.22447 5.18179 0.715303 6.86135C0.206136 8.54091 0.188878 10.3312 0.66557 12.0203C1.14226 13.7093 2.09294 15.2264 3.40506 16.392C4.71719 17.5575 6.3358 18.3227 8.06929 18.5969V12.1791H5.73771V9.52432H8.06929V7.50098C8.06929 5.19925 9.44057 3.92784 11.538 3.92784C12.2268 3.9374 12.9139 3.99725 13.594 4.10693V6.36734H12.4357C12.2383 6.34112 12.0375 6.35966 11.8483 6.42158C11.659 6.4835 11.4862 6.58721 11.3424 6.72503C11.1987 6.86285 11.0879 7.03124 11.0181 7.21773C10.9483 7.40422 10.9214 7.60402 10.9393 7.80233V9.52432H13.4867L13.0791 12.1791H10.9393V18.5969C13.0997 18.2552 15.0672 17.1536 16.4877 15.4904C17.9083 13.8272 18.6886 11.7116 18.6882 9.52432Z" fill="white" fill-opacity="0.56"/>
</svg>
