<svg width="19" height="19" viewBox="0 0 19 19" fill="none" xmlns="http://www.w3.org/2000/svg">
<path fill-rule="evenodd" clip-rule="evenodd" d="M9.81678 0.569336C4.7656 0.569336 0.632812 4.70212 0.632812 9.75331C0.632812 13.8287 3.2732 17.2727 6.88939 18.4781C7.34859 18.5355 7.52079 18.3059 7.52079 18.0189C7.52079 17.7893 7.52079 17.2153 7.52079 16.4691C4.9378 17.0431 4.4212 15.2637 4.4212 15.2637C4.0194 14.2305 3.388 13.9435 3.388 13.9435C2.52701 13.3695 3.4454 13.3695 3.4454 13.3695C4.3638 13.4269 4.8804 14.2879 4.8804 14.2879C5.684 15.6655 7.00419 15.2637 7.57819 15.0341C7.63559 14.4601 7.92259 14.0583 8.15219 13.8287C6.08579 13.5991 3.962 12.7955 3.962 9.29411C3.962 8.31831 4.3064 7.45731 4.8804 6.82592C4.7656 6.59632 4.4786 5.67792 4.9952 4.41512C4.9952 4.41512 5.74139 4.18552 7.52079 5.33352C8.26699 5.10392 9.01318 5.04652 9.81678 5.04652C10.6204 5.04652 11.3666 5.16132 12.1128 5.33352C13.8922 4.12812 14.6384 4.35772 14.6384 4.35772C15.155 5.62052 14.8106 6.53892 14.7532 6.76852C15.3272 7.39991 15.6716 8.20351 15.6716 9.23671C15.6716 12.7381 13.5478 13.5417 11.4814 13.7713C11.8258 14.0583 12.1128 14.6323 12.1128 15.4933C12.1128 16.6987 12.1128 17.7319 12.1128 18.0189C12.1128 18.2485 12.285 18.5355 12.7442 18.4781C16.3604 17.2727 19.0007 13.8287 19.0007 9.75331C19.0007 4.70212 14.868 0.569336 9.81678 0.569336Z" fill="white" fill-opacity="0.56"/>
</svg>
