<svg width="18" height="19" viewBox="0 0 18 19" fill="none" xmlns="http://www.w3.org/2000/svg">
<path d="M8.71935 2.46337C11.0153 2.46337 11.2909 2.47198 12.1983 2.51331C12.7445 2.51975 13.2854 2.62014 13.7975 2.81006C14.1714 2.94807 14.5095 3.16814 14.7871 3.45409C15.073 3.73166 15.2931 4.06981 15.4311 4.44366C15.621 4.95574 15.7214 5.49669 15.7279 6.04282C15.7692 6.95203 15.7795 7.22755 15.7795 9.52355C15.7795 11.8195 15.7709 12.0951 15.7296 13.0026C15.7231 13.5487 15.6228 14.0896 15.4328 14.6017C15.2895 14.9729 15.0701 15.3099 14.7888 15.5913C14.5075 15.8726 14.1704 16.092 13.7992 16.2353C13.2871 16.4252 12.7462 16.5256 12.2001 16.5321C11.2926 16.5734 11.0199 16.582 8.72107 16.582C6.42221 16.582 6.14956 16.5734 5.24207 16.5321C4.69594 16.5256 4.15499 16.4252 3.64291 16.2353C3.26906 16.0973 2.9309 15.8772 2.65333 15.5913C2.36739 15.3137 2.14732 14.9756 2.00931 14.6017C1.81938 14.0896 1.719 13.5487 1.71255 13.0026C1.6695 12.0951 1.65917 11.8224 1.65917 9.52355C1.65917 7.22468 1.66778 6.95203 1.70911 6.04454C1.71555 5.49841 1.81594 4.95747 2.00586 4.44538C2.14437 4.07137 2.36504 3.73321 2.65161 3.45581C2.92918 3.16987 3.26733 2.94979 3.64119 2.81179C4.15327 2.62186 4.69421 2.52147 5.24034 2.51503C6.14783 2.4737 6.42335 2.46337 8.71935 2.46337ZM8.71935 0.913574C6.38088 0.913574 6.08756 0.923332 5.16974 0.965234C4.45524 0.980372 3.74844 1.11622 3.07924 1.36703C2.50511 1.58311 1.98489 1.92157 1.5547 2.3589C1.11675 2.78892 0.777694 3.30915 0.561111 3.88344C0.310299 4.55264 0.174451 5.25944 0.159313 5.97394C0.119133 6.89177 0.109375 7.18508 0.109375 9.52355C0.109375 11.862 0.119133 12.1553 0.161035 13.0732C0.176173 13.7877 0.312021 14.4944 0.562833 15.1637C0.779417 15.7379 1.11847 16.2582 1.55642 16.6882C1.98644 17.1261 2.50667 17.4652 3.08096 17.6818C3.75017 17.9326 4.45696 18.0684 5.17146 18.0836C6.08986 18.1255 6.3826 18.1352 8.72107 18.1352C11.0595 18.1352 11.3528 18.1255 12.2707 18.0836C12.9852 18.0684 13.692 17.9326 14.3612 17.6818C14.9329 17.4602 15.4521 17.1218 15.8857 16.6882C16.3193 16.2546 16.6577 15.7354 16.8793 15.1637C17.1301 14.4944 17.266 13.7877 17.2811 13.0732C17.323 12.1548 17.3328 11.862 17.3328 9.52355C17.3328 7.18508 17.323 6.89177 17.2811 5.97394C17.266 5.25944 17.1301 4.55264 16.8793 3.88344C16.6627 3.30915 16.3237 2.78892 15.8857 2.3589C15.4557 1.92095 14.9355 1.58189 14.3612 1.36531C13.692 1.1145 12.9852 0.97865 12.2707 0.963512C11.3511 0.923332 11.0578 0.913574 8.71935 0.913574Z" fill="white" fill-opacity="0.56"/>
<path d="M8.72203 5.10352C7.84788 5.10352 6.99336 5.36273 6.26653 5.84838C5.5397 6.33404 4.97321 7.02431 4.63868 7.83192C4.30416 8.63953 4.21663 9.5282 4.38717 10.3856C4.55771 11.2429 4.97866 12.0304 5.59677 12.6486C6.21489 13.2667 7.00242 13.6876 7.85978 13.8582C8.71713 14.0287 9.6058 13.9412 10.4134 13.6067C11.221 13.2721 11.9113 12.7056 12.3969 11.9788C12.8826 11.252 13.1418 10.3975 13.1418 9.5233C13.1418 8.3511 12.6762 7.22691 11.8473 6.39804C11.0184 5.56917 9.89423 5.10352 8.72203 5.10352ZM8.72203 12.3933C8.1544 12.3933 7.59952 12.225 7.12755 11.9096C6.65558 11.5943 6.28773 11.146 6.07051 10.6216C5.85328 10.0972 5.79645 9.52012 5.90719 8.96339C6.01793 8.40667 6.29127 7.89529 6.69264 7.49391C7.09402 7.09254 7.6054 6.8192 8.16213 6.70846C8.71885 6.59772 9.29591 6.65455 9.82033 6.87178C10.3448 7.089 10.793 7.45685 11.1083 7.92882C11.4237 8.40079 11.592 8.95567 11.592 9.5233C11.592 10.2845 11.2896 11.0145 10.7514 11.5527C10.2132 12.0909 9.4832 12.3933 8.72203 12.3933Z" fill="white" fill-opacity="0.56"/>
<path d="M13.3169 5.96092C13.8875 5.96092 14.3501 5.49835 14.3501 4.92773C14.3501 4.35711 13.8875 3.89453 13.3169 3.89453C12.7463 3.89453 12.2837 4.35711 12.2837 4.92773C12.2837 5.49835 12.7463 5.96092 13.3169 5.96092Z" fill="white" fill-opacity="0.56"/>
</svg>
