<svg width="307" height="228" viewBox="0 0 307 228" fill="none" xmlns="http://www.w3.org/2000/svg">
<path d="M155.884 62.1008L139.981 86.9309C118.231 120.819 87.8124 146.791 52.603 161.523L32.9258 169.759C32.9258 169.759 128.889 20.7087 129.734 19.5775L155.884 62.1008Z" fill="#00C4FB"/>
<path d="M196.749 128.421L197.252 128.552L197.164 128.421L188.296 114.093L129.734 19.5556C135.773 11.5639 144.262 4.87073 156.757 4.87073C170.4 4.87073 179.42 12.8625 185.813 23.0623L277.758 169.74H122.484C139.754 143.594 167.395 128.192 196.749 128.421Z" fill="white"/>
<path d="M155.884 62.1008L144.314 80.1687L129.73 19.5702L155.884 62.1008Z" fill="#009CC8"/>
<path d="M33.0475 194.05H11.8916V201.737H32.0392C34.0758 201.737 35.6821 201.973 36.8538 202.446C38.0256 202.919 38.8626 203.756 39.3608 204.96C39.859 206.164 40.1141 207.895 40.1141 210.165V215.054C40.1141 217.324 39.863 219.059 39.3608 220.263C38.8626 221.467 38.0256 222.304 36.8538 222.773C35.6821 223.246 34.0758 223.482 32.0392 223.482H12.071C10.0343 223.482 8.42808 223.246 7.25629 222.773C6.0845 222.304 5.24751 221.467 4.74931 220.263C4.2511 219.059 4 217.327 4 215.054V214.072L10.6361 212.555V216.767H33.478V208.644H13.3304C11.2738 208.644 9.66363 208.404 8.51576 207.917C7.3639 207.433 6.54286 206.589 6.05262 205.389C5.56637 204.185 5.31926 202.464 5.31926 200.213V196.269C5.31926 194 5.56238 192.264 6.05262 191.064C6.53887 189.86 7.36789 189.023 8.52772 188.55C9.68755 188.081 11.2898 187.841 13.3265 187.841H31.6725C33.6693 187.841 35.2357 188.063 36.3676 188.51C37.4995 188.958 38.3325 189.744 38.8746 190.864C39.4166 191.984 39.6837 193.574 39.6837 195.636V196.375L33.0475 198.103V194.05Z" fill="white"/>
<path d="M60.7109 223.475V187.848H88.3834C90.0813 187.848 91.4604 188.081 92.5126 188.54C93.5688 189.001 94.354 189.736 94.8761 190.751C95.3982 191.762 95.6573 193.101 95.6573 194.763V202.719C95.6573 204.381 95.3982 205.713 94.8761 206.713C94.354 207.713 93.5648 208.444 92.5126 208.906C91.4564 209.368 90.0813 209.597 88.3834 209.597H68.1123V223.482L60.7109 223.475ZM84.9916 194.05H68.1123V203.454H84.9916C86.2152 203.454 87.0841 203.264 87.6022 202.886C88.1204 202.504 88.3794 201.755 88.3794 200.634V196.837C88.3794 195.738 88.1283 195 87.6301 194.622C87.1359 194.243 86.2551 194.05 84.9916 194.05Z" fill="white"/>
<path d="M111.586 196.277C111.586 194.007 111.829 192.272 112.319 191.071C112.806 189.867 113.635 189.031 114.794 188.558C115.954 188.088 117.556 187.848 119.593 187.848H143.38C145.416 187.848 147.019 188.085 148.178 188.558C149.338 189.031 150.167 189.867 150.653 191.071C151.14 192.275 151.387 194.007 151.387 196.277V215.05C151.387 217.32 151.144 219.055 150.653 220.259C150.167 221.463 149.338 222.3 148.178 222.769C147.019 223.242 145.416 223.478 143.38 223.478H119.593C117.556 223.478 115.954 223.242 114.794 222.769C113.635 222.3 112.806 221.463 112.319 220.259C111.833 219.055 111.586 217.324 111.586 215.05V196.277ZM119.107 216.767H143.874V194.254H119.107V216.767Z" fill="white"/>
<path d="M172.238 223.475V187.848H199.911C201.609 187.848 202.988 188.081 204.04 188.54C205.096 189.001 205.881 189.74 206.403 190.751C206.926 191.766 207.185 193.105 207.185 194.767V203.137C207.185 205.592 206.595 207.357 205.419 208.437C204.243 209.517 202.406 210.056 199.911 210.056H195.63L210.58 223.471H199.755L186.754 210.056H179.64V223.471H172.238V223.475ZM196.519 194.05H179.64V203.926H196.519C197.743 203.926 198.611 203.737 199.13 203.355C199.648 202.973 199.907 202.224 199.907 201.104V196.837C199.907 195.738 199.656 195 199.157 194.622C198.663 194.243 197.782 194.05 196.519 194.05Z" fill="white"/>
<path d="M242.496 194.254V223.475H234.971V194.254H220.145V187.848H257.383V194.254H242.496Z" fill="white"/>
<path d="M299.602 194.05H278.446V201.737H298.594C300.63 201.737 302.237 201.973 303.408 202.446C304.58 202.919 305.417 203.756 305.915 204.96C306.414 206.164 306.669 207.895 306.669 210.165V215.054C306.669 217.324 306.418 219.059 305.915 220.263C305.417 221.467 304.58 222.304 303.408 222.773C302.237 223.246 300.63 223.482 298.594 223.482H278.63C276.593 223.482 274.987 223.246 273.815 222.773C272.643 222.304 271.806 221.467 271.308 220.263C270.81 219.059 270.559 217.327 270.559 215.054V214.072L277.195 212.555V216.767H300.033V208.644H279.885C277.828 208.644 276.218 208.404 275.07 207.917C273.918 207.433 273.097 206.589 272.607 205.389C272.121 204.185 271.874 202.464 271.874 200.213V196.269C271.874 194 272.117 192.264 272.607 191.064C273.093 189.86 273.922 189.023 275.082 188.55C276.242 188.081 277.844 187.841 279.881 187.841H298.227C300.224 187.841 301.786 188.063 302.922 188.51C304.054 188.958 304.887 189.744 305.429 190.864C305.971 191.984 306.238 193.574 306.238 195.636V196.375L299.602 198.103V194.05Z" fill="white"/>
<path d="M251.823 128.421H197.156L186.402 111.048L251.823 128.421Z" fill="#CBCBCB"/>
</svg>
