<svg width="19" height="19" viewBox="0 0 19 19" fill="none" xmlns="http://www.w3.org/2000/svg">
<path d="M9.185 18.37C14.2589 18.37 18.37 14.2589 18.37 9.185C18.37 4.11105 14.2589 0 9.185 0C4.11105 0 0 4.11105 0 9.185C0 14.2589 4.11105 18.37 9.185 18.37ZM4.2029 8.98599L13.0588 5.57147C13.4698 5.42298 13.8288 5.67174 13.6956 6.29326L13.6964 6.29249L12.1885 13.3963C12.0767 13.9 11.7775 14.0224 11.3588 13.7852L9.06253 12.0928L7.95498 13.1598C7.83251 13.2823 7.72918 13.3856 7.4919 13.3856L7.65493 11.0488L11.9106 7.2041C12.0959 7.04107 11.8693 6.94922 11.6251 7.11149L6.36597 10.4227L4.09881 9.71543C3.60664 9.55929 3.59593 9.22327 4.2029 8.98599Z" fill="white" fill-opacity="0.55"/>
</svg>
