<svg width="19" height="15" viewBox="0 0 19 15" fill="none" xmlns="http://www.w3.org/2000/svg">
<path d="M18.7925 1.84141C18.1037 2.1284 17.4149 2.358 16.6113 2.4154C17.4149 1.95621 17.9889 1.21001 18.2759 0.349011C17.5297 0.808209 16.7261 1.09521 15.8651 1.26741C15.1763 0.52121 14.2005 0.0620117 13.1673 0.0620117C11.101 0.0620117 9.37896 1.72661 9.37896 3.8504C9.37896 4.1374 9.43636 4.4244 9.49376 4.7114C6.33677 4.5392 3.58158 3.0468 1.68738 0.750809C1.34298 1.32481 1.17078 1.95621 1.17078 2.645C1.17078 3.9652 1.85958 5.11319 2.83538 5.80199C2.20398 5.80199 1.62998 5.62979 1.11338 5.34279V5.40019C1.11338 7.23699 2.43358 8.72938 4.15557 9.07378C3.81118 9.13118 3.52418 9.18858 3.17978 9.18858C2.95018 9.18858 2.72058 9.18858 2.49098 9.13118C2.95018 10.6236 4.38517 11.7142 5.99237 11.7716C4.72957 12.8048 3.06498 13.3788 1.28558 13.3788C0.998585 13.3788 0.654187 13.3788 0.367188 13.3214C2.08918 14.3546 4.09818 14.986 6.22197 14.986C13.1673 14.986 16.9557 9.24598 16.9557 4.2522C16.9557 4.08 16.9557 3.9078 16.9557 3.793C17.6445 3.219 18.2759 2.5876 18.7925 1.84141Z" fill="white" fill-opacity="0.56"/>
</svg>
