<svg width="44" height="64" viewBox="0 0 44 64" fill="none" xmlns="http://www.w3.org/2000/svg">
<g clip-path="url(#clip0_6049_15713)">
<path d="M40.1057 62.0714C36.7181 62.7251 30.8663 63.5451 22.1026 63.7717L22.002 63.7769C13.1315 63.5573 7.21783 62.7303 3.80469 62.0705C4.70233 59.524 10.6133 42.4078 11.4624 31.1532C12.1606 21.8911 10.5692 16.2913 9.766 14.1394V14.1385C10.2135 13.3212 10.6045 12.2273 10.811 10.7711C11.3053 6.64855 10.7519 2.51632 10.5869 1.43819L14.6743 0.501831C14.9047 1.38306 16.5084 7.26375 19.2658 10.8149C19.9163 11.5867 20.6815 12.3078 21.9066 12.6622H22.002C23.2271 12.3078 23.9923 11.5867 24.6428 10.8149C27.4002 7.26375 29.0039 1.38306 29.2343 0.501831L33.3218 1.43819C33.1567 2.51632 32.6033 6.64855 33.0976 10.7711C33.3041 12.2273 33.6951 13.3212 34.1426 14.1385V14.1394C34.1435 14.1403 34.1435 14.1412 34.1444 14.142C33.3306 16.3578 31.7577 22.0145 32.4462 31.1532C33.2935 42.3877 39.1922 59.4785 40.1057 62.0714Z" fill="#297ECC"/>
<path d="M43.7561 61.1954C43.7561 61.1954 42.5972 61.5884 40.1029 62.0714C39.1893 59.4785 33.2907 42.3878 32.4434 31.1532C31.7549 22.0145 33.3278 16.3579 34.1415 14.1421C34.9394 15.6026 35.9227 16.1846 36.3684 16.399C35.9386 18.8055 34.6138 27.1601 35.7162 33.3357C37.018 40.6236 37.7074 44.1914 43.7561 61.1954Z" fill="#363435"/>
<path d="M11.4612 31.1532C10.6121 42.4079 4.70107 59.524 3.80343 62.0705C1.30734 61.5884 0.148438 61.1954 0.148438 61.1954C6.19713 44.1913 6.88559 40.6235 8.18747 33.3357C9.29077 27.1601 7.96505 18.8055 7.53521 16.399C7.98094 16.1854 8.96507 15.6026 9.76474 14.1395C10.5679 16.2913 12.1593 21.8911 11.4612 31.1532Z" fill="#363435"/>
<path d="M10.807 10.7711C10.6005 12.2273 10.2095 13.3212 9.762 14.1385V14.1394C8.96234 15.6026 7.9782 16.1854 7.53247 16.3989H7.53159C7.4548 15.9649 7.40625 15.7242 7.40625 15.7242C11.9554 13.456 9.99414 1.57294 9.99414 1.57294L10.5829 1.43817C10.7479 2.5163 11.3013 6.64853 10.807 10.7711Z" fill="#363435"/>
<path d="M29.2318 0.501864C29.0015 1.3831 27.3977 7.26378 24.6404 10.8149C23.9899 11.5868 23.2246 12.3079 21.9995 12.6623H21.9042C20.6791 12.3079 19.9138 11.5868 19.2633 10.8149C16.506 7.26378 14.9022 1.3831 14.6719 0.501864L15.4345 0.326843C15.4345 0.326843 15.4354 0.329471 15.4371 0.332975C15.5166 0.628749 18.3922 11.1807 21.928 12.0733L21.9995 12.0611C25.5345 11.1694 28.3871 0.628749 28.4657 0.332975C28.4675 0.329471 28.4683 0.326843 28.4683 0.326843L29.2318 0.501864Z" fill="#363435"/>
<path d="M36.4991 15.7242C36.4991 15.7242 36.4506 15.9649 36.3738 16.3989H36.3729C35.9272 16.1845 34.9439 15.6026 34.146 14.142C34.1451 14.1412 34.1451 14.1403 34.1443 14.1394V14.1385C33.6968 13.3212 33.3058 12.2273 33.0992 10.7711C32.6049 6.64853 33.1583 2.5163 33.3234 1.43817L33.9112 1.57294C33.9112 1.57294 31.95 13.456 36.4991 15.7242Z" fill="#363435"/>
<path d="M28.4661 0.332947C28.3875 0.628721 25.5348 11.1693 21.9999 12.0611L21.9284 12.0733C18.3926 11.1807 15.5169 0.628721 15.4375 0.332947C15.4993 0.466819 16.5399 2.60208 19.7289 2.63883H24.1747C27.3637 2.60208 28.4043 0.466819 28.4661 0.332947Z" fill="#606062"/>
<path d="M34.1445 14.142C33.6299 15.5439 32.8117 18.3206 32.4534 22.4844C24.334 35.3493 9.59669 49.9749 6.84375 52.6614C6.86758 52.5826 6.89053 52.503 6.91436 52.4242C6.94878 52.3079 6.98321 52.1906 7.01851 52.0733C7.12531 51.7084 7.23299 51.3391 7.34156 50.9637C7.41393 50.716 7.48543 50.4649 7.55692 50.2129C7.64166 49.9145 7.72638 49.6143 7.81112 49.3115C7.8376 49.217 7.86408 49.1216 7.89055 49.0262C7.92233 48.9098 7.95499 48.7926 7.98765 48.6762C18.4336 35.9373 32.4684 14.4151 33.5487 12.7524C33.7244 13.2853 33.9274 13.7439 34.1428 14.1385V14.1394C34.1436 14.1403 34.1436 14.1412 34.1445 14.142Z" fill="#363435"/>
<path d="M32.7461 33.985V33.9859C22.3743 45.5389 8.74465 54.3302 5.75781 56.1968C5.93787 55.628 6.12411 55.0286 6.31652 54.4046C9.77027 51.5063 24.6312 38.8243 32.3048 28.5296C32.3313 29.3697 32.3772 30.2439 32.446 31.1532C32.5149 32.0624 32.6164 33.0101 32.7461 33.985Z" fill="#FEFEFE"/>
<path d="M33.8716 40.3724C23.821 50.7616 7.64763 56.9591 5.22656 57.8447C5.31218 57.5821 5.39956 57.31 5.48959 57.0291C7.78885 55.9063 23.7292 47.8668 33.1946 36.8973C33.3941 38.0394 33.6227 39.2024 33.8716 40.3724Z" fill="#363435"/>
<path d="M35.0227 45.2922C23.3878 56.0691 7.05907 58.8186 4.79688 59.1477C4.86572 58.9412 4.93633 58.7268 5.01048 58.5036C7.81373 57.6661 25.6438 52.0244 34.3422 42.4901C34.5602 43.4282 34.7879 44.3655 35.0227 45.2922Z" fill="#FEFEFE"/>
<path d="M36.2661 49.9206C33.8459 51.4617 20.895 59.2002 4.44531 60.1987C4.47709 60.1042 4.50974 60.007 4.54328 59.9073C6.91934 59.5572 25.6691 56.4917 35.4576 46.9706C35.7232 47.9744 35.9942 48.9615 36.2661 49.9206Z" fill="#363435"/>
<path d="M37.5523 54.2655C20.8378 61.3065 6.02895 61.6216 3.96094 61.6268C4.00066 61.5131 4.04391 61.3879 4.09157 61.2505C23.3939 59.8434 34.9838 52.1416 36.5831 51.0118C36.9123 52.1495 37.238 53.2407 37.5523 54.2655Z" fill="#FEFEFE"/>
<path d="M38.9912 58.7959C36.6486 59.6561 24.8258 63.6763 5.65229 62.3996C5.65141 62.3987 5.64964 62.3987 5.64876 62.3987C5.27099 62.3375 4.91441 62.2762 4.57812 62.2149C4.75112 62.2132 4.96736 62.2088 5.22509 62.2027C9.73006 62.095 26.7323 61.2873 38.0194 55.7768C38.3716 56.8978 38.6999 57.9147 38.9912 58.7959Z" fill="#363435"/>
<path d="M28.3826 21.2468H15.3281V21.987H28.3826V21.2468Z" fill="#363435"/>
<path d="M28.3826 28.4205H15.3281V29.1607H28.3826V28.4205Z" fill="#363435"/>
<path d="M28.3826 21.2468H15.3281V21.987H28.3826V21.2468Z" stroke="white" stroke-width="2" stroke-linecap="round" stroke-linejoin="round"/>
<path d="M28.3826 28.4205H15.3281V29.1607H28.3826V28.4205Z" stroke="white" stroke-width="2" stroke-linecap="round" stroke-linejoin="round"/>
</g>
<defs>
<clipPath id="clip0_6049_15713">
<rect width="44" height="64" fill="white"/>
</clipPath>
</defs>
</svg>
