<svg width="548" height="903" viewBox="0 0 548 903" fill="none" xmlns="http://www.w3.org/2000/svg">
<g clip-path="url(#clip0_5867_33995)">
<path d="M539.5 866.797L539.5 35.7584C539.5 20.2945 526.964 7.75842 511.5 7.75842L36.5008 7.7584C21.0368 7.7584 8.50073 20.2944 8.50073 35.7584L8.5007 866.797C8.50069 882.261 21.0368 894.797 36.5007 894.797L511.5 894.797C526.964 894.797 539.5 882.261 539.5 866.797Z" fill="#1B4FA4" stroke="#212936" stroke-width="14"/>
<path d="M461.117 828.222L461.117 76.3141L87.6194 76.3141L87.6193 828.222L461.117 828.222Z" fill="#E3BA82"/>
<path d="M271.995 816.882C271.995 820.652 275.05 823.708 278.818 823.708C282.586 823.708 285.641 820.652 285.641 816.882C285.641 813.112 282.586 810.056 278.818 810.056C275.05 810.056 271.995 813.112 271.995 816.882Z" stroke="black" stroke-width="3" stroke-linecap="round" stroke-linejoin="round"/>
<path d="M448.336 828.219L448.336 76.3138" stroke="#C29D5A" stroke-linecap="round" stroke-linejoin="round"/>
<path d="M437.43 828.219L437.43 76.3138" stroke="#C29D5A" stroke-linecap="round" stroke-linejoin="round"/>
<path d="M426.531 828.219L426.531 76.3138" stroke="#C29D5A" stroke-linecap="round" stroke-linejoin="round"/>
<path d="M415.625 828.219L415.625 76.3138" stroke="#C29D5A" stroke-linecap="round" stroke-linejoin="round"/>
<path d="M404.727 828.219L404.727 76.3138" stroke="#C29D5A" stroke-linecap="round" stroke-linejoin="round"/>
<path d="M393.82 828.219L393.82 76.3138" stroke="#C29D5A" stroke-linecap="round" stroke-linejoin="round"/>
<path d="M382.93 828.219L382.93 76.3138" stroke="#C29D5A" stroke-linecap="round" stroke-linejoin="round"/>
<path d="M372.031 828.219L372.031 76.3138" stroke="#C29D5A" stroke-linecap="round" stroke-linejoin="round"/>
<path d="M361.117 828.219L361.117 76.3138" stroke="#C29D5A" stroke-linecap="round" stroke-linejoin="round"/>
<path d="M350.219 828.219L350.219 76.3138" stroke="#C29D5A" stroke-linecap="round" stroke-linejoin="round"/>
<path d="M339.32 828.219L339.32 76.3138" stroke="#C29D5A" stroke-linecap="round" stroke-linejoin="round"/>
<path d="M328.422 828.219L328.422 76.3138" stroke="#C29D5A" stroke-linecap="round" stroke-linejoin="round"/>
<path d="M317.523 828.219L317.523 76.3138" stroke="#C29D5A" stroke-linecap="round" stroke-linejoin="round"/>
<path d="M306.609 828.219L306.609 76.3138" stroke="#C29D5A" stroke-linecap="round" stroke-linejoin="round"/>
<path d="M295.711 828.219L295.711 76.3138" stroke="#C29D5A" stroke-linecap="round" stroke-linejoin="round"/>
<path d="M284.812 828.219L284.812 76.3138" stroke="#C29D5A" stroke-linecap="round" stroke-linejoin="round"/>
<path d="M273.914 828.219L273.914 76.3138" stroke="#C29D5A" stroke-linecap="round" stroke-linejoin="round"/>
<path d="M263.016 828.219L263.016 76.3138" stroke="#C29D5A" stroke-linecap="round" stroke-linejoin="round"/>
<path d="M252.109 828.219L252.109 76.3138" stroke="#C29D5A" stroke-linecap="round" stroke-linejoin="round"/>
<path d="M241.203 828.219L241.203 76.3138" stroke="#C29D5A" stroke-linecap="round" stroke-linejoin="round"/>
<path d="M230.305 828.219L230.305 76.3138" stroke="#C29D5A" stroke-linecap="round" stroke-linejoin="round"/>
<path d="M219.414 828.219L219.414 76.3138" stroke="#C29D5A" stroke-linecap="round" stroke-linejoin="round"/>
<path d="M208.508 828.219L208.508 76.3138" stroke="#C29D5A" stroke-linecap="round" stroke-linejoin="round"/>
<path d="M197.609 828.219L197.609 76.3138" stroke="#C29D5A" stroke-linecap="round" stroke-linejoin="round"/>
<path d="M186.703 828.219L186.703 76.3138" stroke="#C29D5A" stroke-linecap="round" stroke-linejoin="round"/>
<path d="M175.797 828.219L175.797 76.3138" stroke="#C29D5A" stroke-linecap="round" stroke-linejoin="round"/>
<path d="M164.898 828.219L164.898 76.3138" stroke="#C29D5A" stroke-linecap="round" stroke-linejoin="round"/>
<path d="M154.008 828.219L154.008 76.3138" stroke="#C29D5A" stroke-linecap="round" stroke-linejoin="round"/>
<path d="M143.102 828.219L143.102 76.3138" stroke="#C29D5A" stroke-linecap="round" stroke-linejoin="round"/>
<path d="M132.187 828.219L132.188 76.3138" stroke="#C29D5A" stroke-linecap="round" stroke-linejoin="round"/>
<path d="M121.297 828.219L121.297 76.3138" stroke="#C29D5A" stroke-linecap="round" stroke-linejoin="round"/>
<path d="M110.398 828.219L110.398 76.3138" stroke="#C29D5A" stroke-linecap="round" stroke-linejoin="round"/>
<path d="M99.4922 828.219L99.4922 76.3138" stroke="#C29D5A" stroke-linecap="round" stroke-linejoin="round"/>
<path d="M461.117 828.222L461.117 76.3141L87.6194 76.3141L87.6193 828.222L461.117 828.222Z" stroke="black" stroke-width="3" stroke-linecap="round" stroke-linejoin="round"/>
<path d="M87.622 575.926L461.117 575.926" stroke="black" stroke-width="3" stroke-linecap="round" stroke-linejoin="round"/>
<path d="M395.047 828.222C394.714 761.46 340.52 707.434 273.72 707.434C206.911 707.434 152.716 761.46 152.384 828.222" stroke="black" stroke-width="3" stroke-linecap="round" stroke-linejoin="round"/>
<path d="M271.995 85.1714C271.995 88.9414 275.05 91.9977 278.818 91.9977C282.586 91.9977 285.641 88.9414 285.641 85.1714C285.641 81.4013 282.586 78.3451 278.818 78.3451C275.05 78.3451 271.995 81.4013 271.995 85.1714Z" stroke="black" stroke-width="3" stroke-linecap="round" stroke-linejoin="round"/>
<path d="M87.622 327.254L461.117 327.254" stroke="black" stroke-width="3" stroke-linecap="round" stroke-linejoin="round"/>
<path d="M152.384 76.3138C152.716 143.076 206.911 197.101 273.72 197.101C340.52 197.101 394.714 143.076 395.047 76.3138" stroke="black" stroke-width="3" stroke-linecap="round" stroke-linejoin="round"/>
<path d="M263.497 450.785C263.497 457.048 268.571 462.125 274.831 462.125C281.09 462.125 286.164 457.048 286.164 450.785C286.164 444.522 281.09 439.446 274.831 439.446C268.571 439.446 263.497 444.522 263.497 450.785Z" stroke="black" stroke-width="3" stroke-linecap="round" stroke-linejoin="round"/>
</g>
<defs>
<clipPath id="clip0_5867_33995">
<rect width="903" height="548" fill="white" transform="translate(548) rotate(90)"/>
</clipPath>
</defs>
</svg>
