<svg width="262" height="434" viewBox="0 0 262 434" fill="none" xmlns="http://www.w3.org/2000/svg">
<g clip-path="url(#clip0_6145_11383)">
<path d="M259.695 424.234L259.695 9.89844C259.695 6.03244 256.561 2.89844 252.695 2.89844L10.888 2.89843C7.022 2.89843 3.888 6.03243 3.888 9.89843L3.88798 424.234C3.88798 428.1 7.02198 431.234 10.888 431.234L252.695 431.234C256.561 431.234 259.695 428.1 259.695 424.234Z" fill="#1B4FA4" stroke="#212936" stroke-width="4"/>
<path d="M223.805 399.835L223.805 34.374L41.8906 34.374L41.8905 399.835L223.805 399.835Z" fill="#E3BA82"/>
<path d="M217.57 399.833L217.57 34.3738" stroke="#C29D5A" stroke-width="4" stroke-linecap="round" stroke-linejoin="round"/>
<path d="M212.266 399.833L212.266 34.3738" stroke="#C29D5A" stroke-width="4" stroke-linecap="round" stroke-linejoin="round"/>
<path d="M206.953 399.833L206.953 34.3738" stroke="#C29D5A" stroke-width="4" stroke-linecap="round" stroke-linejoin="round"/>
<path d="M201.641 399.833L201.641 34.3738" stroke="#C29D5A" stroke-width="4" stroke-linecap="round" stroke-linejoin="round"/>
<path d="M196.336 399.833L196.336 34.3738" stroke="#C29D5A" stroke-width="4" stroke-linecap="round" stroke-linejoin="round"/>
<path d="M191.023 399.833L191.023 34.3738" stroke="#C29D5A" stroke-width="4" stroke-linecap="round" stroke-linejoin="round"/>
<path d="M185.719 399.833L185.719 34.3738" stroke="#C29D5A" stroke-width="4" stroke-linecap="round" stroke-linejoin="round"/>
<path d="M180.414 399.833L180.414 34.3738" stroke="#C29D5A" stroke-width="4" stroke-linecap="round" stroke-linejoin="round"/>
<path d="M175.094 399.833L175.094 34.3738" stroke="#C29D5A" stroke-width="4" stroke-linecap="round" stroke-linejoin="round"/>
<path d="M169.789 399.833L169.789 34.3738" stroke="#C29D5A" stroke-width="4" stroke-linecap="round" stroke-linejoin="round"/>
<path d="M164.477 399.833L164.477 34.3738" stroke="#C29D5A" stroke-width="4" stroke-linecap="round" stroke-linejoin="round"/>
<path d="M159.172 399.833L159.172 34.3738" stroke="#C29D5A" stroke-width="4" stroke-linecap="round" stroke-linejoin="round"/>
<path d="M153.867 399.833L153.867 34.3738" stroke="#C29D5A" stroke-width="4" stroke-linecap="round" stroke-linejoin="round"/>
<path d="M148.539 399.833L148.539 34.3738" stroke="#C29D5A" stroke-width="4" stroke-linecap="round" stroke-linejoin="round"/>
<path d="M143.242 399.833L143.242 34.3738" stroke="#C29D5A" stroke-width="4" stroke-linecap="round" stroke-linejoin="round"/>
<path d="M137.922 399.833L137.922 34.3738" stroke="#C29D5A" stroke-width="4" stroke-linecap="round" stroke-linejoin="round"/>
<path d="M132.625 399.833L132.625 34.3738" stroke="#C29D5A" stroke-width="4" stroke-linecap="round" stroke-linejoin="round"/>
<path d="M127.312 399.833L127.312 34.3738" stroke="#C29D5A" stroke-width="4" stroke-linecap="round" stroke-linejoin="round"/>
<path d="M122.008 399.833L122.008 34.3738" stroke="#C29D5A" stroke-width="4" stroke-linecap="round" stroke-linejoin="round"/>
<path d="M116.687 399.833L116.688 34.3738" stroke="#C29D5A" stroke-width="4" stroke-linecap="round" stroke-linejoin="round"/>
<path d="M111.383 399.833L111.383 34.3738" stroke="#C29D5A" stroke-width="4" stroke-linecap="round" stroke-linejoin="round"/>
<path d="M106.07 399.833L106.07 34.3738" stroke="#C29D5A" stroke-width="4" stroke-linecap="round" stroke-linejoin="round"/>
<path d="M100.773 399.833L100.773 34.3738" stroke="#C29D5A" stroke-width="4" stroke-linecap="round" stroke-linejoin="round"/>
<path d="M95.4531 399.833L95.4531 34.3738" stroke="#C29D5A" stroke-width="4" stroke-linecap="round" stroke-linejoin="round"/>
<path d="M90.1484 399.833L90.1484 34.3738" stroke="#C29D5A" stroke-width="4" stroke-linecap="round" stroke-linejoin="round"/>
<path d="M84.8281 399.833L84.8281 34.3738" stroke="#C29D5A" stroke-width="4" stroke-linecap="round" stroke-linejoin="round"/>
<path d="M79.5312 399.833L79.5312 34.3738" stroke="#C29D5A" stroke-width="4" stroke-linecap="round" stroke-linejoin="round"/>
<path d="M74.2187 399.833L74.2188 34.3738" stroke="#C29D5A" stroke-width="4" stroke-linecap="round" stroke-linejoin="round"/>
<path d="M68.9062 399.833L68.9062 34.3738" stroke="#C29D5A" stroke-width="4" stroke-linecap="round" stroke-linejoin="round"/>
<path d="M63.5937 399.833L63.5938 34.3738" stroke="#C29D5A" stroke-width="4" stroke-linecap="round" stroke-linejoin="round"/>
<path d="M58.289 399.833L58.2891 34.3738" stroke="#C29D5A" stroke-width="4" stroke-linecap="round" stroke-linejoin="round"/>
<path d="M52.9765 399.833L52.9766 34.3738" stroke="#C29D5A" stroke-width="4" stroke-linecap="round" stroke-linejoin="round"/>
<path d="M47.664 399.833L47.6641 34.3738" stroke="#C29D5A" stroke-width="4" stroke-linecap="round" stroke-linejoin="round"/>
<path d="M223.727 401.67L223.727 32.3296L42.191 32.3296L42.191 401.67L223.727 401.67Z" stroke="black" stroke-width="3" stroke-linecap="round" stroke-linejoin="round"/>
<path d="M41.8918 277.208L223.805 277.208" stroke="black" stroke-width="3" stroke-linecap="round" stroke-linejoin="round"/>
<path d="M191.617 399.835C191.455 367.385 165.059 341.126 132.524 341.126C99.9845 341.126 73.5888 367.385 73.4267 399.835" stroke="black" stroke-width="3" stroke-linecap="round" stroke-linejoin="round"/>
<path d="M131.502 36.627C131.502 38.4594 132.99 39.9448 134.825 39.9448C136.661 39.9448 138.148 38.4594 138.148 36.627C138.148 34.7945 136.661 33.3091 134.825 33.3091C132.99 33.3091 131.502 34.7945 131.502 36.627Z" stroke="black" stroke-width="2" stroke-linecap="round" stroke-linejoin="round"/>
<path d="M41.8918 156.342L223.805 156.342" stroke="black" stroke-width="3" stroke-linecap="round" stroke-linejoin="round"/>
<path d="M73.4267 34.3738C73.5888 66.8231 99.9845 93.082 132.524 93.082C165.059 93.082 191.455 66.8231 191.617 34.3738" stroke="black" stroke-width="3" stroke-linecap="round" stroke-linejoin="round"/>
<path d="M127.546 216.384C127.546 219.428 130.017 221.895 133.066 221.895C136.115 221.895 138.586 219.428 138.586 216.384C138.586 213.34 136.115 210.872 133.066 210.872C130.017 210.872 127.546 213.34 127.546 216.384Z" stroke="black" stroke-width="2" stroke-linecap="round" stroke-linejoin="round"/>
<path d="M131.69 397.262C131.69 399.095 133.178 400.58 135.013 400.58C136.848 400.58 138.336 399.095 138.336 397.262C138.336 395.43 136.848 393.944 135.013 393.944C133.178 393.944 131.69 395.43 131.69 397.262Z" stroke="black" stroke-width="2" stroke-linecap="round" stroke-linejoin="round"/>
</g>
<defs>
<clipPath id="clip0_6145_11383">
<rect width="434" height="262" fill="white" transform="translate(262) rotate(90)"/>
</clipPath>
</defs>
</svg>
