<svg width="252" height="417" viewBox="0 0 252 417" fill="none" xmlns="http://www.w3.org/2000/svg">
<g clip-path="url(#clip0_6153_52118)">
<path d="M249.859 407.421L249.859 9.70654C249.859 5.84055 246.725 2.70654 242.859 2.70654L10.663 2.70653C6.79703 2.70653 3.66301 5.84053 3.66301 9.70653L3.66299 407.421C3.66299 411.287 6.79702 414.421 10.663 414.421L242.859 414.421C246.725 414.421 249.859 411.287 249.859 407.421Z" fill="#1B4FA4" stroke="#212936" stroke-width="4"/>
<path d="M215.258 384.173L215.258 33.0278L40.287 33.0278L40.287 384.173L215.258 384.173Z" fill="#E3BA82"/>
<path d="M209.266 384.172L209.266 33.0273" stroke="#C29D5A" stroke-width="4" stroke-linecap="round" stroke-linejoin="round"/>
<path d="M204.164 384.172L204.164 33.0273" stroke="#C29D5A" stroke-width="4" stroke-linecap="round" stroke-linejoin="round"/>
<path d="M199.055 384.172L199.055 33.0273" stroke="#C29D5A" stroke-width="4" stroke-linecap="round" stroke-linejoin="round"/>
<path d="M193.945 384.172L193.945 33.0273" stroke="#C29D5A" stroke-width="4" stroke-linecap="round" stroke-linejoin="round"/>
<path d="M188.844 384.172L188.844 33.0273" stroke="#C29D5A" stroke-width="4" stroke-linecap="round" stroke-linejoin="round"/>
<path d="M183.727 384.172L183.727 33.0273" stroke="#C29D5A" stroke-width="4" stroke-linecap="round" stroke-linejoin="round"/>
<path d="M178.633 384.172L178.633 33.0273" stroke="#C29D5A" stroke-width="4" stroke-linecap="round" stroke-linejoin="round"/>
<path d="M173.523 384.172L173.523 33.0273" stroke="#C29D5A" stroke-width="4" stroke-linecap="round" stroke-linejoin="round"/>
<path d="M168.414 384.172L168.414 33.0273" stroke="#C29D5A" stroke-width="4" stroke-linecap="round" stroke-linejoin="round"/>
<path d="M163.305 384.172L163.305 33.0273" stroke="#C29D5A" stroke-width="4" stroke-linecap="round" stroke-linejoin="round"/>
<path d="M158.195 384.172L158.195 33.0273" stroke="#C29D5A" stroke-width="4" stroke-linecap="round" stroke-linejoin="round"/>
<path d="M153.094 384.172L153.094 33.0273" stroke="#C29D5A" stroke-width="4" stroke-linecap="round" stroke-linejoin="round"/>
<path d="M147.992 384.172L147.992 33.0273" stroke="#C29D5A" stroke-width="4" stroke-linecap="round" stroke-linejoin="round"/>
<path d="M142.875 384.172L142.875 33.0273" stroke="#C29D5A" stroke-width="4" stroke-linecap="round" stroke-linejoin="round"/>
<path d="M137.773 384.172L137.773 33.0273" stroke="#C29D5A" stroke-width="4" stroke-linecap="round" stroke-linejoin="round"/>
<path d="M132.656 384.172L132.656 33.0273" stroke="#C29D5A" stroke-width="4" stroke-linecap="round" stroke-linejoin="round"/>
<path d="M127.562 384.172L127.562 33.0273" stroke="#C29D5A" stroke-width="4" stroke-linecap="round" stroke-linejoin="round"/>
<path d="M122.453 384.172L122.453 33.0273" stroke="#C29D5A" stroke-width="4" stroke-linecap="round" stroke-linejoin="round"/>
<path d="M117.352 384.172L117.352 33.0273" stroke="#C29D5A" stroke-width="4" stroke-linecap="round" stroke-linejoin="round"/>
<path d="M112.234 384.172L112.234 33.0273" stroke="#C29D5A" stroke-width="4" stroke-linecap="round" stroke-linejoin="round"/>
<path d="M107.133 384.172L107.133 33.0273" stroke="#C29D5A" stroke-width="4" stroke-linecap="round" stroke-linejoin="round"/>
<path d="M102.023 384.172L102.023 33.0273" stroke="#C29D5A" stroke-width="4" stroke-linecap="round" stroke-linejoin="round"/>
<path d="M96.9219 384.172L96.9219 33.0273" stroke="#C29D5A" stroke-width="4" stroke-linecap="round" stroke-linejoin="round"/>
<path d="M91.8125 384.172L91.8125 33.0273" stroke="#C29D5A" stroke-width="4" stroke-linecap="round" stroke-linejoin="round"/>
<path d="M86.7031 384.172L86.7031 33.0273" stroke="#C29D5A" stroke-width="4" stroke-linecap="round" stroke-linejoin="round"/>
<path d="M81.5937 384.172L81.5938 33.0273" stroke="#C29D5A" stroke-width="4" stroke-linecap="round" stroke-linejoin="round"/>
<path d="M76.4922 384.172L76.4922 33.0273" stroke="#C29D5A" stroke-width="4" stroke-linecap="round" stroke-linejoin="round"/>
<path d="M71.3828 384.172L71.3828 33.0273" stroke="#C29D5A" stroke-width="4" stroke-linecap="round" stroke-linejoin="round"/>
<path d="M66.2812 384.172L66.2812 33.0273" stroke="#C29D5A" stroke-width="4" stroke-linecap="round" stroke-linejoin="round"/>
<path d="M61.164 384.172L61.1641 33.0273" stroke="#C29D5A" stroke-width="4" stroke-linecap="round" stroke-linejoin="round"/>
<path d="M56.0703 384.172L56.0703 33.0273" stroke="#C29D5A" stroke-width="4" stroke-linecap="round" stroke-linejoin="round"/>
<path d="M50.9531 384.172L50.9531 33.0273" stroke="#C29D5A" stroke-width="4" stroke-linecap="round" stroke-linejoin="round"/>
<path d="M45.8437 384.172L45.8438 33.0273" stroke="#C29D5A" stroke-width="4" stroke-linecap="round" stroke-linejoin="round"/>
<path d="M215.187 385.937L215.188 31.063L40.5808 31.063L40.5807 385.937L215.187 385.937Z" stroke="black" stroke-width="3" stroke-linecap="round" stroke-linejoin="round"/>
<path d="M40.2882 266.349L215.258 266.349" stroke="black" stroke-width="3" stroke-linecap="round" stroke-linejoin="round"/>
<path d="M184.305 384.173C184.149 352.995 158.761 327.765 127.467 327.765C96.1694 327.765 70.7812 352.995 70.6253 384.173" stroke="black" stroke-width="3" stroke-linecap="round" stroke-linejoin="round"/>
<path d="M126.483 35.1923C126.483 36.9529 127.914 38.3802 129.679 38.3802C131.444 38.3802 132.875 36.9529 132.875 35.1923C132.875 33.4317 131.444 32.0044 129.679 32.0044C127.914 32.0044 126.483 33.4317 126.483 35.1923Z" stroke="black" stroke-width="2" stroke-linecap="round" stroke-linejoin="round"/>
<path d="M40.2882 150.218L215.258 150.218" stroke="black" stroke-width="3" stroke-linecap="round" stroke-linejoin="round"/>
<path d="M70.6253 33.0273C70.7812 64.2056 96.1694 89.4359 127.467 89.4359C158.761 89.4359 184.149 64.2056 184.305 33.0273" stroke="black" stroke-width="3" stroke-linecap="round" stroke-linejoin="round"/>
<path d="M122.678 207.907C122.678 210.832 125.055 213.203 127.988 213.203C130.92 213.203 133.297 210.832 133.297 207.907C133.297 204.983 130.92 202.612 127.988 202.612C125.055 202.612 122.678 204.983 122.678 207.907Z" stroke="black" stroke-width="2" stroke-linecap="round" stroke-linejoin="round"/>
<path d="M126.662 381.701C126.662 383.462 128.093 384.889 129.859 384.889C131.624 384.889 133.055 383.462 133.055 381.701C133.055 379.94 131.624 378.513 129.859 378.513C128.093 378.513 126.662 379.94 126.662 381.701Z" stroke="black" stroke-width="2" stroke-linecap="round" stroke-linejoin="round"/>
</g>
<defs>
<clipPath id="clip0_6153_52118">
<rect width="417" height="252" fill="white" transform="translate(252) rotate(90)"/>
</clipPath>
</defs>
</svg>
