<svg width="267" height="443" viewBox="0 0 267 443" fill="none" xmlns="http://www.w3.org/2000/svg">
<g clip-path="url(#clip0_6049_16196)">
<path d="M264.609 433.135L264.609 10C264.609 6.134 261.475 3 257.609 3L10.9966 2.99999C7.13058 2.99999 3.99658 6.134 3.99658 9.99999L3.99656 433.135C3.99656 437.001 7.13058 440.135 10.9966 440.135L257.609 440.135C261.475 440.135 264.609 437.001 264.609 433.135Z" fill="#1B4FA4" stroke="#212936" stroke-width="4"/>
<path d="M228.07 408.126L228.07 35.0868L42.6846 35.0868L42.6845 408.126L228.07 408.126Z" fill="#E3BA82"/>
<path d="M221.719 408.125L221.719 35.0867" stroke="#C29D5A" stroke-width="4" stroke-linecap="round" stroke-linejoin="round"/>
<path d="M216.312 408.125L216.312 35.0867" stroke="#C29D5A" stroke-width="4" stroke-linecap="round" stroke-linejoin="round"/>
<path d="M210.898 408.125L210.898 35.0867" stroke="#C29D5A" stroke-width="4" stroke-linecap="round" stroke-linejoin="round"/>
<path d="M205.484 408.125L205.484 35.0867" stroke="#C29D5A" stroke-width="4" stroke-linecap="round" stroke-linejoin="round"/>
<path d="M200.078 408.125L200.078 35.0867" stroke="#C29D5A" stroke-width="4" stroke-linecap="round" stroke-linejoin="round"/>
<path d="M194.664 408.125L194.664 35.0867" stroke="#C29D5A" stroke-width="4" stroke-linecap="round" stroke-linejoin="round"/>
<path d="M189.258 408.125L189.258 35.0867" stroke="#C29D5A" stroke-width="4" stroke-linecap="round" stroke-linejoin="round"/>
<path d="M183.852 408.125L183.852 35.0867" stroke="#C29D5A" stroke-width="4" stroke-linecap="round" stroke-linejoin="round"/>
<path d="M178.43 408.125L178.43 35.0867" stroke="#C29D5A" stroke-width="4" stroke-linecap="round" stroke-linejoin="round"/>
<path d="M173.023 408.125L173.023 35.0867" stroke="#C29D5A" stroke-width="4" stroke-linecap="round" stroke-linejoin="round"/>
<path d="M167.609 408.125L167.609 35.0867" stroke="#C29D5A" stroke-width="4" stroke-linecap="round" stroke-linejoin="round"/>
<path d="M162.203 408.125L162.203 35.0867" stroke="#C29D5A" stroke-width="4" stroke-linecap="round" stroke-linejoin="round"/>
<path d="M156.797 408.125L156.797 35.0867" stroke="#C29D5A" stroke-width="4" stroke-linecap="round" stroke-linejoin="round"/>
<path d="M151.375 408.125L151.375 35.0867" stroke="#C29D5A" stroke-width="4" stroke-linecap="round" stroke-linejoin="round"/>
<path d="M145.969 408.125L145.969 35.0867" stroke="#C29D5A" stroke-width="4" stroke-linecap="round" stroke-linejoin="round"/>
<path d="M140.555 408.125L140.555 35.0867" stroke="#C29D5A" stroke-width="4" stroke-linecap="round" stroke-linejoin="round"/>
<path d="M135.148 408.125L135.148 35.0867" stroke="#C29D5A" stroke-width="4" stroke-linecap="round" stroke-linejoin="round"/>
<path d="M129.742 408.125L129.742 35.0867" stroke="#C29D5A" stroke-width="4" stroke-linecap="round" stroke-linejoin="round"/>
<path d="M124.328 408.125L124.328 35.0867" stroke="#C29D5A" stroke-width="4" stroke-linecap="round" stroke-linejoin="round"/>
<path d="M118.914 408.125L118.914 35.0867" stroke="#C29D5A" stroke-width="4" stroke-linecap="round" stroke-linejoin="round"/>
<path d="M113.5 408.125L113.5 35.0867" stroke="#C29D5A" stroke-width="4" stroke-linecap="round" stroke-linejoin="round"/>
<path d="M108.094 408.125L108.094 35.0867" stroke="#C29D5A" stroke-width="4" stroke-linecap="round" stroke-linejoin="round"/>
<path d="M102.687 408.125L102.688 35.0867" stroke="#C29D5A" stroke-width="4" stroke-linecap="round" stroke-linejoin="round"/>
<path d="M97.2734 408.125L97.2734 35.0867" stroke="#C29D5A" stroke-width="4" stroke-linecap="round" stroke-linejoin="round"/>
<path d="M91.8594 408.125L91.8594 35.0867" stroke="#C29D5A" stroke-width="4" stroke-linecap="round" stroke-linejoin="round"/>
<path d="M86.4453 408.125L86.4453 35.0867" stroke="#C29D5A" stroke-width="4" stroke-linecap="round" stroke-linejoin="round"/>
<path d="M81.039 408.125L81.0391 35.0867" stroke="#C29D5A" stroke-width="4" stroke-linecap="round" stroke-linejoin="round"/>
<path d="M75.6328 408.125L75.6328 35.0867" stroke="#C29D5A" stroke-width="4" stroke-linecap="round" stroke-linejoin="round"/>
<path d="M70.2187 408.125L70.2188 35.0867" stroke="#C29D5A" stroke-width="4" stroke-linecap="round" stroke-linejoin="round"/>
<path d="M64.8047 408.125L64.8047 35.0867" stroke="#C29D5A" stroke-width="4" stroke-linecap="round" stroke-linejoin="round"/>
<path d="M59.3984 408.125L59.3984 35.0867" stroke="#C29D5A" stroke-width="4" stroke-linecap="round" stroke-linejoin="round"/>
<path d="M53.9844 408.125L53.9844 35.0867" stroke="#C29D5A" stroke-width="4" stroke-linecap="round" stroke-linejoin="round"/>
<path d="M48.5703 408.125L48.5703 35.0867" stroke="#C29D5A" stroke-width="4" stroke-linecap="round" stroke-linejoin="round"/>
<path d="M228 410L228 33L43 33L43 410L228 410Z" stroke="black" stroke-width="3" stroke-linecap="round" stroke-linejoin="round"/>
<path d="M42.6858 282.956L228.07 282.956" stroke="black" stroke-width="3" stroke-linecap="round" stroke-linejoin="round"/>
<path d="M195.273 408.126C195.108 375.004 168.209 348.201 135.053 348.201C101.892 348.201 74.9926 375.004 74.8275 408.126" stroke="black" stroke-width="3" stroke-linecap="round" stroke-linejoin="round"/>
<path d="M134.001 37.3867C134.001 39.2571 135.517 40.7734 137.387 40.7734C139.257 40.7734 140.773 39.2571 140.773 37.3867C140.773 35.5163 139.257 34 137.387 34C135.517 34 134.001 35.5163 134.001 37.3867Z" stroke="black" stroke-width="2" stroke-linecap="round" stroke-linejoin="round"/>
<path d="M42.6858 159.584L228.07 159.584" stroke="black" stroke-width="3" stroke-linecap="round" stroke-linejoin="round"/>
<path d="M74.8275 35.0867C74.9926 68.2089 101.892 95.0123 135.053 95.0123C168.209 95.0123 195.108 68.2089 195.273 35.0867" stroke="black" stroke-width="3" stroke-linecap="round" stroke-linejoin="round"/>
<path d="M129.976 220.871C129.976 223.978 132.494 226.497 135.601 226.497C138.708 226.497 141.227 223.978 141.227 220.871C141.227 217.764 138.708 215.245 135.601 215.245C132.494 215.245 129.976 217.764 129.976 220.871Z" stroke="black" stroke-width="2" stroke-linecap="round" stroke-linejoin="round"/>
<path d="M134.196 405.5C134.196 407.371 135.712 408.887 137.582 408.887C139.453 408.887 140.969 407.371 140.969 405.5C140.969 403.63 139.453 402.114 137.582 402.114C135.712 402.114 134.196 403.63 134.196 405.5Z" stroke="black" stroke-width="2" stroke-linecap="round" stroke-linejoin="round"/>
</g>
<defs>
<clipPath id="clip0_6049_16196">
<rect width="443" height="267" fill="white" transform="translate(267) rotate(90)"/>
</clipPath>
</defs>
</svg>
