<svg width="257" height="441" viewBox="0 0 257 441" fill="none" xmlns="http://www.w3.org/2000/svg">
<g clip-path="url(#clip0_6153_45920)">
<path d="M3.02342 8.56262L3.02344 432.344C3.02344 435.381 5.48586 437.844 8.52343 437.844L248.629 437.844C251.667 437.844 254.129 435.381 254.129 432.344L254.129 8.56261C254.129 5.52504 251.667 3.06261 248.629 3.06261L8.52342 3.06262C5.48586 3.06262 3.02342 5.52506 3.02342 8.56262Z" fill="#2A80B9" stroke="#16364B" stroke-width="5"/>
<path d="M29.0312 41.0489L29.0312 401.422C29.0312 403.078 30.3744 404.422 32.0313 404.422L225.722 404.422C227.379 404.422 228.722 403.078 228.722 401.422L228.722 41.0488C228.722 39.392 227.379 38.0488 225.722 38.0489L32.0312 38.0489C30.3744 38.0489 29.0312 39.392 29.0312 41.0489Z" fill="#389FE1"/>
<path d="M115.023 339.808L142.924 339.808C177.492 339.808 205.699 367.128 207.261 401.42C207.337 403.075 205.987 404.421 204.33 404.421L53.6172 404.421C51.9603 404.421 50.61 403.075 50.6854 401.42C52.248 367.128 80.4548 339.808 115.023 339.808Z" fill="#FF9714"/>
<path d="M110.742 407.421L110.742 412.129C110.742 413.786 112.085 415.129 113.742 415.129L141.328 415.129C142.985 415.129 144.328 413.786 144.328 412.129L144.328 407.421C144.328 405.764 142.985 404.421 141.328 404.421L113.742 404.421C112.085 404.421 110.742 405.764 110.742 407.421Z" fill="#9FC4D6"/>
<path d="M50.7375 41.0831C50.6413 39.4156 51.997 38.0491 53.6673 38.0491L204.289 38.0491C205.959 38.0491 207.315 39.4156 207.219 41.0831C205.263 74.9976 177.228 101.896 142.928 101.896L115.028 101.896C80.728 101.896 52.6931 74.9976 50.7375 41.0831Z" fill="#FF9714"/>
<path d="M110.742 29.5757L110.742 34.2834C110.742 35.9403 112.085 37.2834 113.742 37.2834L141.328 37.2834C142.985 37.2834 144.328 35.9403 144.328 34.2834L144.328 29.5757C144.328 27.9188 142.985 26.5757 141.328 26.5757L113.742 26.5757C112.085 26.5757 110.742 27.9188 110.742 29.5757Z" fill="#9FC4D6"/>
<path d="M115.02 101.896L142.92 101.896C178.237 101.896 206.912 73.3793 207.315 38.0491L228.718 38.0491L228.718 404.421L207.326 404.421C207.326 368.736 178.491 339.808 142.92 339.808L115.02 339.808C79.4488 339.808 50.6138 368.736 50.6138 404.421L29.0234 404.421L29.0234 38.0491L50.6249 38.0491C51.0286 73.3793 79.7033 101.896 115.02 101.896Z" stroke="white" stroke-width="3" stroke-linecap="round" stroke-linejoin="round"/>
<path d="M115.023 339.808L142.924 339.808C178.495 339.808 207.33 368.736 207.33 404.421L50.6172 404.421C50.6172 368.736 79.4522 339.808 115.023 339.808Z" stroke="white" stroke-width="3" stroke-linecap="round" stroke-linejoin="round"/>
<path d="M228.72 385.813C228.439 384.737 228.142 383.668 227.828 382.606" stroke="white" stroke-width="3" stroke-linecap="round" stroke-linejoin="round"/>
<path d="M225.678 376.148C211.116 336.688 173.265 308.562 128.869 308.562C83.2731 308.562 44.5835 338.223 30.9297 379.359" stroke="white" stroke-width="3" stroke-linecap="round" stroke-linejoin="round" stroke-dasharray="6 6"/>
<path d="M29.9152 382.606C29.6013 383.668 29.304 384.737 29.0234 385.813" stroke="white" stroke-width="3" stroke-linecap="round" stroke-linejoin="round"/>
<path d="M124.016 329.783L133.291 329.783" stroke="white" stroke-width="3" stroke-linecap="round" stroke-linejoin="round"/>
<path d="M126.57 358.5L132.167 358.5" stroke="white" stroke-width="3" stroke-linecap="round" stroke-linejoin="round"/>
<path d="M110.734 404.421L110.734 415.129L144.32 415.129L144.32 404.421L110.734 404.421Z" stroke="white" stroke-width="3" stroke-linecap="round" stroke-linejoin="round"/>
<path d="M50.625 38.0491L207.316 38.0491C206.912 73.3792 178.237 101.896 142.92 101.896L115.02 101.896C79.7034 101.896 51.0287 73.3792 50.625 38.0491Z" stroke="white" stroke-width="3" stroke-linecap="round" stroke-linejoin="round"/>
<path d="M29.0234 55.8938C29.304 56.9696 29.6013 58.0384 29.9152 59.1002" stroke="white" stroke-width="3" stroke-linecap="round" stroke-linejoin="round"/>
<path d="M32.0625 65.5593C46.6244 105.018 84.476 133.145 128.877 133.145C174.468 133.145 213.157 103.483 226.811 62.3474" stroke="white" stroke-width="3" stroke-linecap="round" stroke-linejoin="round" stroke-dasharray="6 6"/>
<path d="M227.828 59.1002C228.142 58.0384 228.439 56.9696 228.72 55.8938" stroke="white" stroke-width="3" stroke-linecap="round" stroke-linejoin="round"/>
<path d="M124.016 111.923L133.291 111.923" stroke="white" stroke-width="3" stroke-linecap="round" stroke-linejoin="round"/>
<path d="M126.57 83.207L132.167 83.207" stroke="white" stroke-width="3" stroke-linecap="round" stroke-linejoin="round"/>
<path d="M110.734 26.5757L110.734 37.2834L144.32 37.2834L144.32 26.5757L110.734 26.5757Z" stroke="white" stroke-width="3" stroke-linecap="round" stroke-linejoin="round"/>
<path d="M228.718 220.497L29.0234 220.497" stroke="white" stroke-width="3" stroke-linecap="round" stroke-linejoin="round"/>
<path d="M110.734 403.128L110.734 404.421" stroke="#231F20" stroke-width="3" stroke-linecap="round" stroke-linejoin="round"/>
<path d="M115.711 404.422L115.711 403.128" stroke="#231F20" stroke-width="3" stroke-linecap="round" stroke-linejoin="round"/>
<path d="M121.227 404.422L121.227 403.128" stroke="#231F20" stroke-width="3" stroke-linecap="round" stroke-linejoin="round"/>
<path d="M127.531 404.407L127.531 403.128" stroke="#231F20" stroke-width="3" stroke-linecap="round" stroke-linejoin="round"/>
<path d="M132.922 404.421L132.922 403.128" stroke="#231F20" stroke-width="3" stroke-linecap="round" stroke-linejoin="round"/>
<path d="M138.305 404.407L138.305 403.128" stroke="#231F20" stroke-width="3" stroke-linecap="round" stroke-linejoin="round"/>
<path d="M144.32 404.421L144.32 403.128" stroke="#231F20" stroke-width="3" stroke-linecap="round" stroke-linejoin="round"/>
<path d="M110.734 38.0492L110.734 39.3419" stroke="#231F20" stroke-width="3" stroke-linecap="round" stroke-linejoin="round"/>
<path d="M115.711 39.3424L115.711 38.049" stroke="#231F20" stroke-width="3" stroke-linecap="round" stroke-linejoin="round"/>
<path d="M121.227 39.3424L121.227 38.049" stroke="#231F20" stroke-width="3" stroke-linecap="round" stroke-linejoin="round"/>
<path d="M127.531 39.3274L127.531 38.049" stroke="#231F20" stroke-width="3" stroke-linecap="round" stroke-linejoin="round"/>
<path d="M132.922 39.3419L132.922 38.049" stroke="#231F20" stroke-width="3" stroke-linecap="round" stroke-linejoin="round"/>
<path d="M138.305 39.3274L138.305 38.049" stroke="#231F20" stroke-width="3" stroke-linecap="round" stroke-linejoin="round"/>
<path d="M144.32 39.3419L144.32 38.049" stroke="#231F20" stroke-width="3" stroke-linecap="round" stroke-linejoin="round"/>
</g>
<defs>
<clipPath id="clip0_6153_45920">
<rect width="441" height="257" fill="white" transform="translate(0 441) rotate(-90)"/>
</clipPath>
</defs>
</svg>
