<svg width="39" height="50" viewBox="0 0 39 50" fill="none" xmlns="http://www.w3.org/2000/svg">
<g clip-path="url(#clip0_5989_5193)">
<path d="M7.67562 11.8789C7.25574 14.5088 8.54894 15.4076 8.54894 15.4076L8.43185 20.4469V20.4477C4.93112 21.1616 0.65625 19.4199 0.65625 19.4199C0.65625 19.4199 2.50059 12.1783 3.34109 8.71562C4.18235 5.25296 7.87028 2.42356 14.1133 1.42413C14.1133 1.42413 14.2535 1.81331 14.6696 2.29921C13.5681 2.95475 8.84502 6.06661 7.67562 11.8789Z" fill="#323749"/>
<path d="M25.1392 1.42412C25.1392 1.42412 24.999 1.8133 24.5829 2.2992C23.8937 3.10593 22.4469 4.17983 19.6286 4.18903C16.8102 4.17983 15.3634 3.10593 14.6735 2.2992C14.2574 1.8133 14.1172 1.42412 14.1172 1.42412L14.7757 0.662659C15.0464 1.17772 16.2308 2.97698 19.6286 3.1758C23.0256 2.97698 24.21 1.17772 24.4807 0.662659L25.1392 1.42412Z" fill="#AA9179"/>
<path d="M24.4706 0.662608C24.1999 1.17767 23.0155 2.97693 19.6185 3.17575C16.2207 2.97693 15.0363 1.17767 14.7656 0.662608L14.9804 0.414673H24.2558L24.4706 0.662608Z" fill="#5B7482"/>
<path d="M15.3984 0.414661C18.1556 0.319478 20.971 0.317175 23.849 0.414661Z" fill="#FFF200"/>
<path d="M38.583 19.4199C38.583 19.4199 34.3088 21.1616 30.8081 20.4477V20.4469L30.6903 15.4076C30.6903 15.4076 31.9842 14.5088 31.5636 11.8789C30.3942 6.06661 25.6718 2.95475 24.5703 2.29921C24.9865 1.81331 25.1267 1.42413 25.1267 1.42413C31.3697 2.42356 35.0576 5.25296 35.8981 8.71562C36.7394 12.1783 38.583 19.4199 38.583 19.4199Z" fill="#323749"/>
<path d="M31.3154 46.5371C31.3154 46.5371 31.3825 46.7305 31.2677 47.0199C17.1902 48.0492 7.97295 46.9907 7.97295 46.9907C7.87376 46.7175 7.93641 46.5371 7.93641 46.5371C10.3304 30.8894 8.42192 20.9681 8.42192 20.9681L8.43385 20.4477V20.4469L8.55094 15.4076C8.55094 15.4076 7.25774 14.5087 7.67762 11.8789C8.84702 6.06659 13.5701 2.95473 14.6716 2.29919C15.3615 3.10593 16.8083 4.17983 19.6267 4.18903C22.445 4.17983 23.8918 3.10593 24.5809 2.29919C25.6825 2.95473 30.4048 6.06659 31.5742 11.8789C31.9948 14.5087 30.7009 15.4076 30.7009 15.4076L30.8187 20.4469V20.4477L30.8307 20.9681C30.8307 20.9681 28.9222 30.8894 31.3154 46.5371Z" fill="#AF3131"/>
<path d="M31.2635 47.0198C30.9316 47.8565 29.0761 49.4923 19.6665 49.5667H19.5777C10.0555 49.4915 8.26931 47.8166 7.96875 46.9907C7.96875 46.9907 17.186 48.0492 31.2635 47.0198Z" fill="#5B7482"/>
</g>
<defs>
<clipPath id="clip0_5989_5193">
<rect width="39" height="50" fill="white"/>
</clipPath>
</defs>
</svg>
