<svg width="40" height="50" viewBox="0 0 40 50" fill="none" xmlns="http://www.w3.org/2000/svg">
<g clip-path="url(#clip0_5989_5265)">
<path d="M7.87123 11.8789C7.44058 14.5088 8.76694 15.4076 8.76694 15.4076L8.64685 20.4469V20.4477C5.05635 21.1616 0.671875 19.4199 0.671875 19.4199C0.671875 19.4199 2.56351 12.1783 3.42556 8.71562C4.28838 5.25296 8.07088 2.42356 14.474 1.42413C14.474 1.42413 14.6178 1.81331 15.0446 2.29921C13.9148 2.95475 9.07062 6.06661 7.87123 11.8789Z" fill="#323749"/>
<path d="M25.7812 1.42412C25.7812 1.42412 25.6374 1.8133 25.2106 2.2992C24.5038 3.10593 23.0199 4.17983 20.1293 4.18903C17.2387 4.17983 15.7547 3.10593 15.0472 2.2992C14.6204 1.8133 14.4766 1.42412 14.4766 1.42412L15.152 0.662659C15.4296 1.17772 16.6443 2.97698 20.1293 3.1758C23.6134 2.97698 24.8281 1.17772 25.1058 0.662659L25.7812 1.42412Z" fill="#AA9179"/>
<path d="M25.1022 0.662608C24.8246 1.17767 23.6099 2.97693 20.1257 3.17575C16.6408 2.97693 15.4261 1.17767 15.1484 0.662608L15.3687 0.414673H24.8819L25.1022 0.662608Z" fill="#5B7482"/>
<path d="M15.7891 0.414661C18.6169 0.319478 21.5045 0.317175 24.4563 0.414661H15.7891Z" fill="#FFF200"/>
<path d="M39.5751 19.4199C39.5751 19.4199 35.1914 21.1616 31.6009 20.4477V20.4469L31.48 15.4076C31.48 15.4076 32.8071 14.5088 32.3757 11.8789C31.1763 6.06661 26.3329 2.95475 25.2031 2.29921C25.6299 1.81331 25.7738 1.42413 25.7738 1.42413C32.1768 2.42356 35.9593 5.25296 36.8214 8.71562C37.6842 12.1783 39.5751 19.4199 39.5751 19.4199Z" fill="#323749"/>
<path d="M32.1112 46.5371C32.1112 46.5371 32.18 46.7305 32.0622 47.0199C17.6237 48.0492 8.17018 46.9907 8.17018 46.9907C8.06844 46.7175 8.1327 46.5371 8.1327 46.5371C10.5881 30.8894 8.63066 20.9681 8.63066 20.9681L8.64289 20.4477V20.4469L8.76298 15.4076C8.76298 15.4076 7.43662 14.5087 7.86727 11.8789C9.06666 6.06659 13.9108 2.95473 15.0406 2.29919C15.7482 3.10593 17.2321 4.17983 20.1227 4.18903C23.0133 4.17983 24.4972 3.10593 25.204 2.29919C26.3338 2.95473 31.1772 6.06659 32.3766 11.8789C32.808 14.5087 31.4809 15.4076 31.4809 15.4076L31.6017 20.4469V20.4477L31.614 20.9681C31.614 20.9681 29.6566 30.8894 32.1112 46.5371Z" fill="#B2CD0C"/>
<path d="M32.0639 47.0198C31.7235 47.8565 29.8204 49.4923 20.1695 49.5667H20.0785C10.3121 49.4915 8.48014 47.8166 8.17188 46.9907C8.17188 46.9907 17.6254 48.0492 32.0639 47.0198Z" fill="#5B7482"/>
</g>
<defs>
<clipPath id="clip0_5989_5265">
<rect width="40" height="50" fill="white"/>
</clipPath>
</defs>
</svg>
