<svg width="45" height="45" viewBox="0 0 45 45" fill="none" xmlns="http://www.w3.org/2000/svg">
<path d="M38.6719 5.27344C31.1123 5.27344 22.7408 1.13365 22.6572 1.09177C22.5584 1.04233 22.4416 1.04233 22.3428 1.09177C22.2592 1.13365 13.8877 5.27344 6.32812 5.27344C6.13398 5.27344 5.97656 5.43068 5.97656 5.625V22.5C5.97656 34.5201 21.6594 43.5223 22.327 43.8997C22.3807 43.9302 22.4403 43.9453 22.5 43.9453C22.5597 43.9453 22.6193 43.9302 22.673 43.8997C23.3405 43.5223 39.0234 34.5201 39.0234 22.5V5.625C39.0234 5.43068 38.8662 5.27344 38.6719 5.27344Z" fill="#919191"/>
<path d="M36.9141 7.64648V22.5C36.9141 31.6441 26.0263 39.2905 22.6899 41.4174C22.6336 41.4562 22.5668 41.4737 22.5 41.4737V3.3855C22.5493 3.3855 22.5984 3.39614 22.6442 3.41708C24.8624 4.41924 30.6598 6.80637 36.5907 7.29491C36.7733 7.30899 36.9141 7.46005 36.9141 7.64648Z" fill="#F0F0F0"/>
<path d="M8.08594 7.64648V22.5C8.08594 31.6441 18.9737 39.2905 22.3101 41.4174C22.3664 41.4562 22.4332 41.4737 22.5 41.4737V3.3855C22.4507 3.3855 22.4016 3.39614 22.3558 3.41708C20.1376 4.41924 14.3402 6.80637 8.40935 7.29491C8.2267 7.30899 8.08594 7.46005 8.08594 7.64648Z" fill="#BBBBBB"/>
</svg>
