<svg width="41" height="58" viewBox="0 0 41 58" fill="none" xmlns="http://www.w3.org/2000/svg">
<path d="M21.1998 1.21772C25.1984 4.38618 35.0892 14.2146 32.7821 32.538C32.7821 32.538 35.3594 31.0004 37.6506 28.1549C38.1798 27.4983 39.2421 27.7507 39.4213 28.5745C39.8198 30.4068 40.3024 33.3411 40.3822 37.0527C40.6239 48.2668 31.7823 57.8909 20.5659 57.9106C9.68966 57.9298 0.8125 49.0378 0.8125 38.1198C0.8125 28.6591 5.39215 23.7209 7.15566 15.5825C7.30082 14.912 8.07082 14.5909 8.66058 14.9418C9.99872 15.7373 12.1145 17.2273 13.4988 19.3445C13.4988 19.3445 19.1277 12.2141 19.5685 1.98388C19.6041 1.15716 20.5514 0.703427 21.1998 1.21772Z" fill="#FBBF00"/>
<path d="M31.2855 38.0251C29.706 40.3956 27.7041 40.9344 27.7041 40.9344C28.5145 31.2089 24.7947 24.0722 23.2629 21.5916C23.0461 21.2402 22.5078 21.333 22.4203 21.7367C21.0197 28.2342 17.2591 31.8424 17.2591 31.8424C16.0353 30.4154 14.8722 29.8309 14.267 29.605C14.0291 29.5166 13.7748 29.6473 13.6864 29.8852C12.1416 34.028 9.22211 37.2262 8.55785 41.9885C7.5802 48.9959 12.6717 55.6376 19.7301 56.1279C26.8495 56.6224 32.7784 50.993 32.7784 43.9794C32.7784 41.158 32.4035 39.22 32.1165 38.151C32.0132 37.765 31.5066 37.6929 31.2855 38.0251Z" fill="#FFA800"/>
<path d="M20.8935 36.9451C20.7469 36.5765 20.2783 36.475 20.0111 36.7682C18.4148 38.5212 14.125 43.6517 14.125 48.1693C14.125 51.7454 17.0243 54.6446 20.6008 54.6446C24.1769 54.6446 27.0762 51.7454 27.0762 48.1693C27.0762 44.7692 22.8955 41.9814 20.8935 36.9451Z" fill="white"/>
<path d="M20.3971 57.9016C18.2866 57.7434 0.135742 54.3587 6.39431 31.5229C8.7298 23.0024 9.13883 15.237 9.13883 15.237C8.97205 15.1312 8.81007 15.0308 8.66058 14.9419C8.07082 14.591 7.30082 14.9121 7.15566 15.5826C5.39215 23.7205 0.8125 28.6592 0.8125 38.1199C0.8125 48.9807 9.56277 57.7905 20.3971 57.9016Z" fill="#FFA95A"/>
</svg>
