<svg width="24" height="23" viewBox="0 0 24 23" fill="none" xmlns="http://www.w3.org/2000/svg">
<g clip-path="url(#clip0_7538_3183)">
<path d="M21.3607 5.26698L21.0236 5.37387L19.228 5.53384L18.7208 6.34374L18.3528 6.22681L16.9239 4.93843L16.7165 4.26842L16.4389 3.55393L15.5408 2.74833L14.4812 2.54102L14.4569 3.02595L15.4949 4.03886L16.0028 4.63714L15.4317 4.93556L14.9669 4.79855L14.2703 4.50802L14.294 3.94632L13.3801 3.57043L13.0767 4.89109L12.1556 5.09984L12.2467 5.83657L13.4468 6.06756L13.6541 4.89037L14.6448 5.03671L15.1054 5.30644H15.8442L16.35 6.31935L17.6907 7.67947L17.5924 8.20816L16.5114 8.07043L14.6434 9.01376L13.2983 10.6271L13.1233 11.3416H12.6405L11.7409 10.927L10.8672 11.3416L11.0845 12.2634L11.4647 11.8251L12.1333 11.8043L12.0867 12.6321L12.6405 12.7942L13.1936 13.4155L14.0967 13.1615L15.1283 13.3244L16.3263 13.6465L16.9246 13.7168L17.9389 14.8681L19.8966 16.0195L18.6305 18.4384L17.294 19.0597L16.7868 20.442L14.8528 21.7333L14.647 22.4779C19.591 21.2871 23.2689 16.8459 23.2689 11.536C23.2675 9.21677 22.5645 7.05823 21.3607 5.26698Z" fill="#A7FF91"/>
<path d="M13.2961 17.4253L12.4754 15.9038L13.2286 14.3342L12.4754 14.109L11.6296 13.2596L9.7559 12.8392L9.13394 11.538V12.3106H8.85991L7.24514 10.1212V8.32275L6.06149 6.39807L4.18201 6.73308H2.91587L2.27885 6.31558L3.09162 5.67139L2.281 5.85862C1.30396 7.5272 0.734375 9.46335 0.734375 11.5372C0.734375 17.7589 5.77813 22.8048 12.0005 22.8048C12.4797 22.8048 12.9496 22.7625 13.4144 22.7065L13.2968 21.3414C13.2968 21.3414 13.814 19.3141 13.814 19.2453C13.8133 19.1757 13.2961 17.4253 13.2961 17.4253Z" fill="#A7FF91"/>
<path d="M4.92226 3.90174L6.92369 3.62269L7.84622 3.11695L8.88424 3.41609L10.5428 3.32426L11.1109 2.43115L11.9395 2.56745L13.9517 2.37878L14.5062 1.76759L15.2881 1.24535L16.3943 1.41178L16.7974 1.35081C15.3405 0.665011 13.7192 0.268311 12.0012 0.268311C8.50404 0.268311 5.37706 1.86228 3.3125 4.36515H3.31824L4.92226 3.90174ZM12.4775 1.38883L13.6281 0.755398L14.367 1.18223L13.2974 1.99643L12.2759 2.09901L11.8161 1.80059L12.4775 1.38883ZM9.06932 1.48137L9.57721 1.69299L10.2422 1.48137L10.6045 2.10906L9.06932 2.51221L8.33115 2.08036C8.33115 2.08036 9.05282 1.61551 9.06932 1.48137Z" fill="#A7FF91"/>
</g>
<defs>
<clipPath id="clip0_7538_3183">
<rect width="22.5366" height="22.5366" fill="white" transform="translate(0.734375 0.268311)"/>
</clipPath>
</defs>
</svg>
