<svg width="219" height="39" viewBox="0 0 219 39" fill="none" xmlns="http://www.w3.org/2000/svg">
<g clip-path="url(#clip0_2413_651)">
<path d="M185.422 26.5215C188.262 26.5215 190.574 24.1363 190.574 21.1845C190.574 18.1927 188.262 15.8076 185.422 15.8076C182.582 15.8076 180.271 18.1927 180.271 21.1845C180.271 24.1363 182.622 26.5215 185.422 26.5215ZM177.268 13.1391C179.458 10.9557 182.338 9.74384 185.3 9.74384C188.465 9.74384 191.183 10.8356 193.374 12.8974C195.686 15.0808 196.945 18.0726 196.945 21.0229C196.945 24.298 195.849 27.0065 193.658 29.19C191.427 31.4134 188.667 32.5852 185.382 32.5852C182.055 32.5852 179.377 31.4535 177.146 29.1083C175.035 26.9249 173.941 24.1348 173.941 21.1045C173.941 18.0726 175.117 15.2825 177.268 13.1391Z" fill="white"/>
<path d="M140.455 26.5215C143.295 26.5215 145.607 24.1363 145.607 21.1845C145.607 18.1927 143.294 15.8076 140.455 15.8076C137.617 15.8076 135.303 18.1927 135.303 21.1845C135.302 24.1363 137.655 26.5215 140.455 26.5215ZM132.299 13.1391C134.491 10.9557 137.371 9.74384 140.332 9.74384C143.496 9.74384 146.214 10.8356 148.405 12.8974C150.718 15.0808 151.976 18.0726 151.976 21.0229C151.976 24.298 150.881 27.0065 148.69 29.19C146.458 31.4134 143.699 32.5852 140.413 32.5852C137.087 32.5852 134.409 31.4535 132.177 29.1083C130.068 26.9249 128.973 24.1348 128.973 21.1045C128.973 18.0726 130.15 15.2825 132.299 13.1391Z" fill="white"/>
<path d="M62.5664 31.9785H68.9358V1.9078L62.5664 3.23203V31.9785Z" fill="white"/>
<path d="M52.8438 31.9756H59.2131V10.266H52.8438V31.9756Z" fill="white"/>
<path d="M56.0289 0.00320721C53.8703 0.00320721 52.1211 1.74626 52.1211 3.89735C52.1211 6.04845 53.8703 7.7915 56.0289 7.7915C58.1876 7.7915 59.9368 6.04845 59.9368 3.89735C59.9368 1.74626 58.1861 0.00320721 56.0289 0.00320721Z" fill="white"/>
<path d="M82.1825 22.9199L78.0846 10.2659H70.9844L78.9762 30.642L75.8812 39.0093H82.3324L93.7052 10.2659H86.8089L82.1825 22.9199Z" fill="white"/>
<path d="M14.0496 26.2567C10.7629 26.2567 8.41109 23.9516 8.41109 20.9198C8.41109 18.0096 10.7645 15.5428 13.807 15.5428C16.8093 15.5428 19.121 17.8879 19.121 20.9998C19.121 23.9932 16.8078 26.2567 14.0496 26.2567ZM23.5805 21.0383C23.5805 18.6424 24.1645 16.3958 25.2879 14.391V1.84937L18.8784 3.17206V12.6326C17.4181 10.7725 15.3893 9.88404 12.7516 9.88404C9.99339 9.88404 7.51796 10.8941 5.48909 12.8759C3.21763 15.0578 2 17.8479 2 20.9598C2 24.3551 3.29798 27.2668 5.81359 29.4903C7.72038 31.1887 9.99184 32.0371 12.6295 32.0371C15.2255 32.0371 17.174 31.3504 19.0808 29.4903V31.9155H25.2864V27.8057C24.1707 25.7871 23.5805 23.5066 23.5805 21.0383Z" fill="white"/>
<path d="M127.758 15.0393C127.488 13.8813 127.029 12.9652 126.332 12.1537C125.121 10.7432 123.415 10.078 121.361 9.90251C119.692 9.75931 118.254 9.97334 116.868 10.7017C115.367 11.4916 113.663 13.3363 113.663 13.3363C113.663 13.3363 111.969 9.8594 107.734 9.8594C104.744 9.8594 102.921 11.1236 101.695 13.1746V10.2644H95.8945V31.9755H101.98V20.5456C101.98 18.1666 102.536 15.8061 105.758 15.8061C108.537 15.8061 108.754 18.0619 108.754 19.9358V31.9755H115.043V20.4717C115.043 16.8054 116.642 15.8076 118.846 15.8076C120.624 15.8076 121.817 16.6083 121.817 19.9374V31.9771H128.064V27.8396C126.947 25.8009 126.358 23.5097 126.358 21.0614C126.36 18.9411 126.851 16.8978 127.758 15.0393Z" fill="white"/>
<path d="M160.433 1.90796L153.942 3.23218V10.3768H151.184V16.6592H153.942V31.9756H160.433V16.6592H163.314V10.3753H160.433V1.90796Z" fill="white"/>
<path d="M169.314 7.7915C171.473 7.7915 173.222 6.04845 173.222 3.89735C173.222 1.74626 171.473 0.00320721 169.314 0.00320721C167.155 0.00320721 165.406 1.74626 165.406 3.89735C165.406 6.04845 167.155 7.7915 169.314 7.7915Z" fill="white"/>
<path d="M172.498 15.5506V10.266H166.129V31.9756H172.498V26.7972C171.73 25.0403 171.322 23.1279 171.322 21.1046C171.322 19.1614 171.733 17.2828 172.498 15.5506Z" fill="white"/>
<path d="M211.582 9.86255C208.7 9.86255 206.673 10.9943 205.333 13.1777L205.415 10.2675H199.328V31.9756H205.617V20.2115C205.617 17.3013 206.955 15.8046 209.471 15.8046C211.946 15.8046 212.595 17.1797 212.595 20.2115V31.9756H219.005V17.6647C219.005 12.6912 216.084 9.86255 211.582 9.86255Z" fill="white"/>
<path d="M38.2449 26.3168C41.0031 26.3168 43.3163 24.0517 43.3163 21.0614C43.3163 17.948 41.0031 15.6044 38.0023 15.6044C34.9598 15.6044 32.6064 18.0696 32.6064 20.9814C32.6049 24.0117 34.9582 26.3168 38.2449 26.3168ZM43.2746 29.5503C41.3678 31.4104 39.4208 32.0972 36.8248 32.0972C34.1872 32.0972 31.9157 31.2472 30.0089 29.5503C27.4933 27.3253 26.1953 24.4151 26.1953 21.0199C26.1953 17.9079 27.4129 15.1178 29.6844 12.9344C31.7133 10.9527 34.1872 9.94256 36.9469 9.94256C39.583 9.94256 41.6119 10.831 43.0737 12.6926V10.2659H49.4832V31.9755H43.2761V29.5503" fill="white"/>
</g>
<defs>
<clipPath id="clip0_2413_651">
<rect width="219" height="39" fill="white"/>
</clipPath>
</defs>
</svg>
