<svg width="146" height="47" viewBox="0 0 146 47" fill="none" xmlns="http://www.w3.org/2000/svg">
<g clip-path="url(#clip0_2387_811)">
<path d="M141.45 28.7237L145.5 31.3727C144.185 33.2723 141.041 36.5313 135.606 36.5313C128.855 36.5313 123.828 31.4076 123.828 24.8896C123.828 17.9533 128.909 13.2478 135.037 13.2478C141.201 13.2478 144.221 18.0579 145.198 20.6546L145.731 21.9791L129.85 28.4274C131.058 30.7627 132.941 31.9478 135.606 31.9478C138.27 31.9478 140.118 30.6582 141.45 28.7237ZM128.997 24.5236L139.602 20.2015C139.016 18.755 137.275 17.7267 135.197 17.7267C132.55 17.7267 128.873 20.0272 128.997 24.5236Z" fill="#FF302F"/>
<path d="M116.172 1.37964H121.288V35.4684H116.172V1.37964Z" fill="#20B15A"/>
<path d="M108.108 14.1541H113.046V34.8584C113.046 43.4503 107.877 46.9881 101.766 46.9881C96.0108 46.9881 92.5468 43.1889 91.2501 40.1041L95.7799 38.2568C96.597 40.1564 98.5688 42.4046 101.766 42.4046C105.692 42.4046 108.108 40.017 108.108 35.5555V33.8824H107.93C106.758 35.2766 104.52 36.5314 101.677 36.5314C95.7443 36.5314 90.3086 31.4599 90.3086 24.9245C90.3086 18.3542 95.7443 13.2305 101.677 13.2305C104.502 13.2305 106.758 14.4678 107.93 15.8272H108.108V14.1541ZM108.463 24.9245C108.463 20.8116 105.674 17.814 102.122 17.814C98.5332 17.814 95.5134 20.8116 95.5134 24.9245C95.5134 28.9852 98.5332 31.9305 102.122 31.9305C105.674 31.9479 108.463 28.9852 108.463 24.9245Z" fill="#3686F7"/>
<path d="M62.2247 24.8374C62.2247 31.5471 56.8955 36.4792 50.3584 36.4792C43.8213 36.4792 38.4922 31.5297 38.4922 24.8374C38.4922 18.0929 43.8213 13.1782 50.3584 13.1782C56.8955 13.1782 62.2247 18.0929 62.2247 24.8374ZM57.0376 24.8374C57.0376 20.6547 53.9467 17.7792 50.3584 17.7792C46.7701 17.7792 43.6792 20.6547 43.6792 24.8374C43.6792 28.9852 46.7701 31.8957 50.3584 31.8957C53.9467 31.8957 57.0376 28.9852 57.0376 24.8374Z" fill="#FF302F"/>
<path d="M88.1426 24.8896C88.1426 31.5993 82.8135 36.5313 76.2764 36.5313C69.7393 36.5313 64.4102 31.5993 64.4102 24.8896C64.4102 18.145 69.7393 13.2478 76.2764 13.2478C82.8135 13.2478 88.1426 18.1276 88.1426 24.8896ZM82.9378 24.8896C82.9378 20.7069 79.8469 17.8313 76.2586 17.8313C72.6703 17.8313 69.5794 20.7069 69.5794 24.8896C69.5794 29.0374 72.6703 31.9478 76.2586 31.9478C79.8647 31.9478 82.9378 29.02 82.9378 24.8896Z" fill="#FFBA40"/>
<path d="M18.9873 31.4251C11.5443 31.4251 5.71773 25.5345 5.71773 18.2323C5.71773 10.93 11.5443 5.03943 18.9873 5.03943C23.0019 5.03943 25.933 6.59051 28.1002 8.57727L31.6707 5.07429C28.6508 2.23356 24.6184 0.0725098 18.9873 0.0725098C8.79087 0.0725098 0.210938 8.22872 0.210938 18.2323C0.210938 28.2358 8.79087 36.392 18.9873 36.392C24.4941 36.392 28.6508 34.6144 31.9016 31.3031C35.2412 28.0267 36.2715 23.4258 36.2715 19.6962C36.2715 18.5285 36.1294 17.326 35.9695 16.4372H18.9873V21.2821H31.0845C30.7292 24.3146 29.7522 26.3885 28.3133 27.8001C26.5725 29.5255 23.8191 31.4251 18.9873 31.4251Z" fill="#3686F7"/>
</g>
<defs>
<clipPath id="clip0_2387_811">
<rect width="146" height="47" fill="white"/>
</clipPath>
</defs>
</svg>
