<svg width="152" height="41" viewBox="0 0 152 41" fill="none" xmlns="http://www.w3.org/2000/svg">
<g clip-path="url(#clip0_2387_808)">
<path d="M101.133 0V29.7705C104.802 29.9413 108.462 30.1478 112.111 30.3915V36.7032C106.342 36.3183 100.549 36.0246 94.7313 35.8243V0H101.133ZM152 0.00352691L143.665 19.3431L151.998 40.8644L151.989 40.8685C149.561 40.5219 147.131 40.1947 144.693 39.8811L140.013 27.8021L135.289 38.7598C133.05 38.5124 130.808 38.2783 128.561 38.059L136.687 19.2138L129.245 0.00352691H136.17L140.336 10.7538L144.97 0.00352691H152ZM72.762 35.5114L72.7618 0.00341279H90.6308V6.37185H79.1631V14.6256H87.8399V20.9373H79.1631V35.51L72.762 35.5114ZM48.8597 6.37238L48.8595 0.00308081H68.6584V6.37193H61.9594V35.6842C59.8228 35.7402 57.6885 35.8065 55.5585 35.8869V6.37238H48.8597ZM26.9765 37.7218V0.00414926H44.7563V6.37258H33.3768V14.9992C35.9911 14.9657 39.7082 14.9277 42.0208 14.9333V21.2455C39.126 21.2095 35.8584 21.2852 33.3768 21.31V30.8658C37.1589 30.5681 40.9524 30.3076 44.7563 30.0877V36.4C38.8028 36.7432 32.8759 37.1854 26.9765 37.7218ZM14.4195 23.1305L14.4191 0.00311202H20.8204V38.3168C18.4804 38.5577 16.1448 38.8141 13.8132 39.0847L6.40089 17.7739V39.9975C4.26305 40.2761 2.12955 40.5666 0 40.87V0.00352691H6.08332L14.4195 23.1305ZM117.392 37.0839V37.084V0.00356822H123.793V37.613C121.662 37.4231 119.529 37.2476 117.392 37.0839Z" fill="#FF2C39"/>
</g>
<defs>
<clipPath id="clip0_2387_808">
<rect width="152" height="41" fill="white"/>
</clipPath>
</defs>
</svg>
