<svg width="125" height="42" viewBox="0 0 125 42" fill="none" xmlns="http://www.w3.org/2000/svg">
<path d="M121.381 14.7892L116.446 9.85438H107.286V3.49998H99.5462V32.399H107.286V17.5946H113.641V32.399H121.381V14.7892ZM96.707 9.85438H84.708L79.7732 14.7892V27.4642L84.708 32.399H96.707V24.6588H87.5134V17.5946H96.6732V9.85438H96.707ZM76.9678 9.85438H70.6134V3.49998H62.8394V27.4642L67.7742 32.399H76.934V24.6588H70.6134V17.5946H76.9678V9.85438ZM60.034 3.49998H52.2938V7.01518H60.034V3.49998ZM60.034 9.85438H52.2938V32.399H60.034V9.85438ZM49.4546 9.85438H41.7144V24.6588H38.909V9.85438H31.1688V24.6588H28.3634V9.85438H20.6232V32.399H44.5874L49.5222 27.4642V9.85438H49.4546ZM17.7502 9.85438H11.3958V3.49998H3.62181V27.4642L8.55661 32.399H17.7164V24.6588H11.3958V17.5946H17.7502V9.85438ZM124.186 13.3696V34.5284L113.607 41.5926H106.543V38.0774L101.608 41.5926H95.2874V38.0774L91.7722 41.5926H80.483L76.9678 38.0774L76.258 41.5926H66.3884L62.3662 38.0774L62.1296 41.5926H50.9418L50.5362 38.0774L47.4942 41.5926H30.4252L26.91 40.173V41.5926H17.7502L7.17081 35.2382L0.816406 28.8838V0.69458H14.2012L20.5556 7.04898H49.4546V0.69458H73.4188V7.04898H79.7732V10.5642L83.2884 7.04898H90.3526L96.707 0.69458H110.092V7.04898H117.832L124.186 13.3696Z" fill="#9C66FF"/>
</svg>
