<svg width="132" height="39" viewBox="0 0 132 39" fill="none" xmlns="http://www.w3.org/2000/svg">
<path d="M114.746 38.5237C112.099 38.3392 110.032 37.5365 108.414 36.0327C107.703 35.3505 107.109 34.5591 106.655 33.6893C106.59 33.5509 106.524 33.4402 106.515 33.4402C106.387 33.5082 106.262 33.5821 106.141 33.6616L103.858 34.9532C100.238 36.8723 96.5151 37.9978 92.764 38.33C91.548 38.4222 90.1449 38.4499 89.2843 38.3761C87.3573 38.1916 85.7952 37.6565 84.5324 36.7154C84.0606 36.3345 83.6225 35.9148 83.2228 35.4607C82.979 35.1513 82.7541 34.8278 82.5493 34.4919L82.4183 34.2613L82.0067 34.6119C79.7617 36.5124 77.4513 37.6934 75.1595 38.1178C74.0557 38.3208 72.8677 38.3392 72.0352 38.1731C71.5139 38.0936 71.0188 37.8943 70.5898 37.5914C70.1609 37.2886 69.8101 36.8905 69.5657 36.4294C69.0044 35.3776 68.8828 33.9384 69.1448 31.881C69.3038 30.6447 69.4254 29.9896 70.0802 27.7293C70.3795 26.5299 70.6414 25.146 70.735 24.2418C70.7911 23.7067 70.7911 22.9317 70.735 22.5811C70.6134 21.7785 70.314 21.3172 69.7715 21.105C69.5844 21.0312 69.0886 21.0127 68.8548 21.0773C67.8539 21.3356 66.7033 22.535 65.3937 24.6754C63.5884 27.6278 62.5875 30.3771 62.3349 33.2095C62.2788 33.8 62.2881 35.4791 62.3443 36.0142C62.4097 36.6232 62.5313 37.2413 62.6997 37.6749L62.8494 38.0993C62.8681 38.1547 62.84 38.1547 61.9514 38.1362C60.9598 38.1178 60.3331 38.0716 59.6503 37.9517C57.1714 37.5458 55.7683 36.5678 55.1603 34.8149C54.7861 33.7539 54.6925 32.6191 54.8142 30.9215C54.9037 29.7237 55.1105 28.5372 55.4315 27.3787C55.7098 26.3737 55.9131 25.3499 56.0396 24.3156C56.0957 23.7897 56.105 22.8118 56.0583 22.5442C55.8712 21.6862 55.4783 21.2341 54.7487 21.0681C54.599 21.0404 54.44 21.0312 54.2248 21.0404C54.0419 21.0371 53.8602 21.0717 53.6917 21.1419C52.7562 21.5109 51.7553 22.7103 50.6983 24.8323C49.5432 27.0518 48.8168 29.4639 48.5562 31.9456C48.4159 33.2741 48.4253 35.1747 48.5562 36.411C48.631 37.0752 48.7807 37.7949 48.9304 38.1824C48.9491 38.2377 48.9304 38.2377 48.1446 38.2193C47.2052 38.2212 46.269 38.1097 45.3571 37.8871C44.2187 37.6398 43.1803 37.0651 42.3731 36.2357C41.8465 35.6175 41.4634 34.8933 41.2506 34.1137C41.2264 34.0203 41.1984 33.928 41.1664 33.8369C41.1571 33.8277 41.0355 33.9292 40.8858 34.0675C38.7811 35.9589 36.8822 37.1398 34.8523 37.8225C33.7298 38.1916 32.5138 38.4038 31.4287 38.4038C29.8385 38.4038 28.6879 37.8502 27.949 36.7431C27.6496 36.3002 27.4812 35.9128 27.3409 35.3592C27.0603 34.2521 27.1071 32.9143 27.528 30.82L28.716 26.0686L29.6888 22.535C29.8385 21.9445 29.8479 21.8892 29.8479 21.5847C29.8385 20.5699 29.4269 19.9978 28.7254 19.9886C28.5383 19.9886 28.4915 19.9978 28.2764 20.0993C27.9583 20.2562 27.7151 20.4222 27.0977 20.8559L26.5739 21.2249L26.4991 21.4555C26.0688 22.7287 25.1334 24.5924 24.0483 26.29C22.8603 28.1721 21.0362 30.6262 19.4647 32.4899C16.4059 36.1065 13.7774 38.0716 11.4575 38.4868C11.0273 38.5606 10.3818 38.5606 10.0544 38.4776C8.61387 38.127 7.43525 36.6877 6.38758 34.0768C5.90934 32.4826 5.46027 30.8801 5.04058 29.27C4.59885 27.642 4.15297 26.0152 3.70293 24.3894C3.3826 23.1776 2.89806 22.0138 2.26239 20.9297C1.88822 20.3761 1.43922 20.0255 1.04635 19.9886C0.887325 19.9702 0.859263 19.9794 0.616054 20.0993C0.372845 20.2193 -0.384843 20.699 -1.01157 21.1326L-1.36703 21.3725C-1.38574 21.3817 -1.64766 21.0957 -2.0686 20.5422C-2.30399 20.2396 -2.54096 19.9382 -2.77951 19.638C-2.81693 19.6011 -2.7608 19.5458 -2.3118 19.1398C-1.28756 18.2346 -0.26794 17.3243 0.747012 16.4089C2.13143 15.1542 2.93589 14.5083 3.87131 13.9179C4.86285 13.2721 5.48958 13.0322 6.22856 12.9953C8.08069 12.903 9.31544 13.9179 9.97023 16.3351C10.1293 16.8887 10.2041 17.2577 10.4379 18.7708L11.7475 25.7826C12.2433 27.7385 12.7952 28.8733 13.3845 29.1593C13.5435 29.2331 13.5903 29.2516 13.7306 29.2331C14.3854 29.187 15.2928 28.1906 16.5649 26.1885C17.5939 24.5278 18.2487 23.1993 18.4638 22.1844C18.5199 21.9261 18.5293 21.8154 18.5293 21.2803C18.5293 20.7451 18.5199 20.6344 18.4825 20.4868C18.3329 19.9702 18.0616 19.6196 17.6407 19.4166C17.2946 19.2505 17.0607 19.2044 16.5182 19.2044C15.8808 19.2044 15.2492 19.3233 14.6567 19.555C14.4696 19.6196 14.376 19.6472 14.3573 19.6288C14.397 19.4629 14.447 19.2996 14.507 19.1398C15.0308 17.6267 15.6295 16.372 16.434 15.4494C16.7146 15.0804 17.2945 14.4991 17.6313 14.2316C18.1926 13.7703 18.9409 13.3551 19.6144 13.1244C21.0643 12.5986 23.038 12.5063 24.2915 12.9122C25.9939 13.4658 26.9106 14.8682 27.0977 17.3038L27.1164 17.5345L27.2474 17.4145L28.3699 16.4919C30.6149 14.4622 31.9245 13.5396 33.0096 13.2259C33.2247 13.1613 33.3463 13.1521 33.7205 13.1337C35.0862 13.0875 36.0403 13.5027 36.6951 14.4899C37.2938 15.3756 37.5651 16.5196 37.4809 17.8389C37.4622 18.208 37.4154 18.4848 37.1722 19.6841L35.7316 27.7108C35.5633 28.7626 35.5446 28.7995 35.5726 29.187C35.61 30.128 35.8158 30.7093 36.2461 31.1429C36.3678 31.2737 36.5139 31.3802 36.6764 31.4566C37.0506 31.6411 37.6118 31.6965 37.986 31.6042C38.3433 31.4831 38.6854 31.3221 39.0056 31.1244C39.7383 30.6717 40.4244 30.1495 41.0542 29.5652C41.0908 29.3134 41.1251 29.0612 41.1571 28.8087L41.5312 26.4376L42.0738 22.7103L42.186 20.8651C42.1486 20.3669 41.8119 20.1085 41.4096 20.2377C41.129 20.33 40.5303 20.699 39.6978 21.271C39.3517 21.5109 39.2769 21.5478 39.2488 21.5201L37.6867 19.7395C37.6867 19.7303 37.7615 19.6472 37.855 19.5827L40.8764 16.8149L44.0569 14.047C44.6368 13.6134 45.0858 13.3551 45.4787 13.2167C45.6471 13.1613 45.7312 13.1521 46.0399 13.1521C46.2644 13.1521 46.5076 13.1706 46.6012 13.1982C47.3963 13.3828 48.023 13.8164 48.5375 14.5822C49.052 15.3479 49.3981 16.2059 49.5478 17.1654C49.6413 17.6913 49.6413 18.7154 49.5665 19.149L49.5197 19.4627C49.5197 19.4812 49.6132 19.3705 49.7068 19.2136C50.5194 18.0623 51.5106 17.0442 52.644 16.1967C53.0935 15.8705 53.5587 15.5657 54.0378 15.2833C55.6841 14.3607 57.4988 13.8533 59.3135 13.8072C60.9973 13.7518 62.2694 14.1578 63.1487 15.0065C63.4766 15.3311 63.7455 15.7087 63.9438 16.1229C64.3367 16.9256 64.5051 17.7836 64.5612 19.0107L64.5799 19.6011L65.085 19.1675C65.3772 18.9183 65.6522 18.6501 65.9082 18.3648C66.4177 17.7954 66.9546 17.2504 67.5171 16.7318C69.3599 15.0711 71.3056 14.1301 73.429 13.8717C73.9434 13.8072 74.804 13.7795 75.2437 13.8256C76.3277 13.8689 77.3571 14.3059 78.1341 15.0527C79.1631 16.1321 79.6027 17.5714 79.4998 19.6103C79.425 21.0865 79.2005 22.4427 78.5644 25.146C77.788 28.5411 77.6664 29.2608 77.7599 30.1834C77.8348 30.9215 77.9845 31.2352 78.368 31.4381C78.6486 31.5857 78.8918 31.6411 79.3969 31.6595C79.8085 31.678 79.8366 31.6688 80.0517 31.595C80.3323 31.5027 80.7065 31.3182 81.062 31.0783C81.2771 30.9399 81.3239 30.8938 81.3145 30.8569C81.2678 30.6724 81.221 29.6575 81.2491 29.0578C81.2847 27.1285 81.7645 25.2325 82.6522 23.513C83.2882 22.2414 84.0798 21.0516 85.0094 19.9702C87.8157 16.5565 91.3703 14.4345 95.2429 13.6965C96.8331 13.4012 98.704 13.3274 100.07 13.5119C102.689 13.8441 104.316 14.9604 105.046 16.9071C105.28 17.5529 105.42 18.2449 105.439 19.0107C105.458 19.7764 105.383 20.33 105.13 21.0957C104.569 22.7933 103.259 24.4909 101.183 26.2808C98.7227 28.3843 95.6919 29.8512 92.2496 30.617L90.8464 30.8938C90.809 30.8938 91.1271 31.2628 91.3422 31.4474C91.997 32.0655 92.8015 32.4161 93.8024 32.536C94.1765 32.5822 95.5797 32.5545 96.2345 32.4899C98.9939 32.2316 101.697 31.5027 104.878 30.1557L105.532 29.8789L105.514 29.7221C105.426 28.783 105.426 27.838 105.514 26.8989C105.753 24.6945 106.537 22.5816 107.796 20.7451C108.313 19.9689 108.892 19.2347 109.527 18.5493C110.907 16.9553 112.591 15.6448 114.484 14.6929C116.631 13.6318 118.996 13.073 121.397 13.0599C122.492 13.0414 123.231 13.0968 124.11 13.2721C125.304 13.5021 126.432 13.9905 127.412 14.7021C128.101 15.2454 128.709 15.8822 129.217 16.5934C130.48 18.3464 131.107 20.6529 131.032 23.3008C130.967 25.6995 130.471 27.8584 129.535 29.8974C128.6 31.7241 127.309 33.6155 125.756 35.0363C123.371 37.2505 120.639 38.4499 117.356 38.7821C116.935 38.8282 115.27 38.8559 114.868 38.8374L114.746 38.5237ZM116.786 32.8405C118.516 32.6375 120.06 31.4566 121.35 29.3069C122.648 27.252 123.32 24.8727 123.287 22.452C123.259 21.5109 123.146 20.819 122.884 20.0347C122.641 19.3243 122.398 18.8999 122.071 18.6047C121.743 18.3095 121.416 18.2172 120.742 18.2633C120.027 18.306 119.328 18.4878 118.684 18.7985C117.468 19.3889 116.439 20.3853 115.504 21.9353C114.315 23.8288 113.623 25.9852 113.493 28.209C113.418 29.4084 113.605 30.4233 114.082 31.3735C114.419 32.0378 114.849 32.5083 115.326 32.7113C115.793 32.88 116.295 32.9184 116.786 32.8405ZM90.0607 27.8584C92.6744 26.8453 94.9308 25.1008 96.5525 22.8395C96.9921 22.1936 97.2728 21.5663 97.3663 21.0404C97.4037 20.7109 97.3879 20.3777 97.3195 20.0532C97.2728 19.841 97.1324 19.5734 97.0202 19.4443C96.9079 19.3151 96.6835 19.1675 96.459 19.1029C96.0957 19.0283 95.7218 19.019 95.3552 19.0752C94.1672 19.3243 92.9979 20.2193 91.8193 21.7877C90.5378 23.4853 89.8362 25.1091 89.6678 26.7052C89.6304 27.1203 89.6304 27.9968 89.6678 27.9968C89.7917 27.9603 89.9135 27.9172 90.0326 27.8676L90.0607 27.8584ZM33.0002 8.94504C32.3454 8.88968 31.6719 8.70516 31.2416 8.45606C30.9984 8.31767 30.6336 7.99476 30.4746 7.78256C30.2208 7.4149 30.0545 6.99543 29.9882 6.5555C29.9227 6.06509 29.929 5.56797 30.0069 5.07933C30.1565 4.34125 30.5681 3.64007 31.2603 2.92966C32.4321 1.66539 34.0326 0.867907 35.7597 0.687736C36.6951 0.595476 37.537 0.761544 38.1637 1.2413C38.7905 1.72105 39.2862 2.44068 39.5107 3.13264C39.6043 3.474 39.6417 4.05524 39.5668 4.46119C39.3985 5.41147 38.8653 6.3064 37.9205 7.229C36.9196 8.19773 35.8439 8.72362 34.553 8.90814C34.1788 8.96349 33.3931 8.98194 33.0189 8.95427L33.0002 8.94504Z" fill="#20D0FF"/>
</svg>
