<svg width="168" height="37" viewBox="0 0 168 37" fill="none" xmlns="http://www.w3.org/2000/svg">
<path d="M50.5899 5.71922C49.9861 3.46967 48.2429 1.71243 46.0114 1.10371C41.997 0 25.8396 0 25.8396 0C25.8396 0 9.68223 0.0334457 5.66777 1.13715C3.43628 1.74587 1.69313 3.50312 1.0893 5.75266C-0.124993 12.9435 -0.596112 23.9003 1.12248 30.8035C1.72631 33.0531 3.46946 34.8103 5.70095 35.419C9.71541 36.5227 25.8728 36.5227 25.8728 36.5227C25.8728 36.5227 42.0302 36.5227 46.0446 35.419C48.2761 34.8103 50.0193 33.0531 50.6231 30.8035C51.9037 23.6026 52.2986 12.6525 50.5899 5.71922Z" fill="#FF0000"/>
<path d="M20.6953 26.0876L34.099 18.2614L20.6953 10.4351V26.0876Z" fill="white"/>
<path d="M161.429 10.6024C163.188 10.6024 164.515 10.9368 165.444 11.5723C166.373 12.2078 167.036 13.2111 167.434 14.5824C167.832 15.9537 167.998 17.8266 167.998 20.2347V24.1479H159.472V25.3519L159.605 28.663C159.704 29.3988 159.87 29.934 160.135 30.2684C160.401 30.6029 160.832 30.7701 161.396 30.7701C162.159 30.7701 162.69 30.4691 162.955 29.8671C163.254 29.2651 163.387 28.2617 163.42 26.8904L167.832 27.158C167.866 27.3587 167.866 27.6262 167.866 27.9607C167.866 30.0678 167.302 31.6397 166.14 32.6765C164.979 33.7133 163.387 34.2485 161.297 34.2485C158.775 34.2485 157.017 33.4458 156.021 31.8738C155.026 30.3019 154.495 27.8269 154.495 24.5158V20.4688C154.608 14.7831 155.6 10.6191 161.429 10.6024ZM100.084 11.0372V27.7935C100.084 28.7968 100.184 29.5326 100.416 29.9674C100.887 30.8972 102.108 30.6598 102.772 30.2015C103.155 29.9405 103.464 29.5831 103.667 29.1647V11.0372H108.744V33.8806H104.762L104.331 31.0711H104.231C103.137 33.1782 101.511 34.2485 99.3544 34.2485C96.0352 34.2399 95.2233 31.8295 95.03 29.3812L95.0173 29.2083C94.992 28.8338 94.9802 28.4597 94.975 28.0945V11.0372H100.084ZM126.261 11.0372V27.7935C126.261 28.7968 126.361 29.5326 126.593 29.9674C127.064 30.8972 128.285 30.6598 128.949 30.2015C129.332 29.9405 129.641 29.5831 129.844 29.1647V11.0372H134.921V33.8806H130.939L130.508 31.0711H130.408C129.314 33.1782 127.688 34.2485 125.531 34.2485C122.212 34.2399 121.4 31.8295 121.207 29.3812L121.194 29.2083C121.169 28.8338 121.157 28.4597 121.152 28.0945V11.0372H126.261ZM85.3536 10.6024C87.0124 10.6024 88.3727 10.9368 89.368 11.6392C90.3634 12.3415 91.1264 13.4118 91.5909 14.8834C92.0554 16.355 92.2876 18.3283 92.2876 20.7699V24.081C92.2876 26.5225 92.0554 28.4624 91.5909 29.934C91.1264 31.4056 90.3965 32.4759 89.368 33.1782C88.3395 33.8471 86.9461 34.215 85.2209 34.215C83.4293 34.2485 82.0358 33.8806 81.0073 33.2117C79.9788 32.5093 79.2489 31.439 78.8176 29.9674C78.3863 28.4958 78.1873 26.556 78.1873 24.1144V20.8033C78.1873 18.3618 78.4195 16.355 78.9172 14.8834C79.4148 13.3784 80.1779 12.3081 81.2396 11.6392C82.3013 10.9703 83.6615 10.6024 85.3536 10.6024ZM142.883 1.43823V13.4787H142.916C143.381 12.6091 143.978 11.9067 144.807 11.3716C145.582 10.8464 146.495 10.5668 147.428 10.5689C148.656 10.5689 149.585 10.9034 150.282 11.5388C150.978 12.2078 151.476 13.2446 151.775 14.6827C152.064 16.076 152.229 18.0028 152.239 20.4328L152.239 20.6695V24.2817C152.239 27.6597 151.808 30.1681 151.012 31.7735C150.182 33.3789 148.921 34.1816 147.196 34.1816C146.234 34.1816 145.371 33.9475 144.575 33.5127C143.87 33.0987 143.287 32.5053 142.882 31.793L142.817 31.6732H142.717L142.186 33.8471H137.973V1.43823H142.883ZM122.579 2.60883V6.7561H117.536V33.8806H112.559V6.7561H107.483V2.60883H122.579ZM67.8691 2.60883L67.8719 2.62143C67.9205 2.83895 68.5915 5.84524 69.329 9.34759L69.3874 9.62508C69.4166 9.7643 69.446 9.9042 69.4753 10.0446L69.5341 10.3262C69.5439 10.3732 69.5537 10.4203 69.5635 10.4674L69.6224 10.7506C69.6322 10.7979 69.642 10.8452 69.6518 10.8926L69.7106 11.1769L69.7962 11.5925C70.2941 14.0178 70.7696 16.4503 71.0541 18.1945H71.1868C71.4596 16.6299 71.8553 14.6277 72.2775 12.5835L72.3882 12.0496C72.4437 11.7824 72.4996 11.5151 72.5556 11.2485L72.6427 10.8346C73.4549 6.98365 74.263 3.38605 74.4134 2.71903L74.4231 2.67595C74.433 2.63174 74.4382 2.60883 74.4382 2.60883H79.5144L73.642 23.7131V33.8471H68.6322V23.7465H68.599L62.793 2.60883H67.8691ZM85.254 14.1476C84.5573 14.1476 84.0928 14.5155 83.7942 15.2848C83.4956 16.054 83.3629 17.2246 83.3629 18.8634V25.9874C83.3629 27.6597 83.4956 28.8972 83.7611 29.633C84.0265 30.3688 84.5241 30.7367 85.254 30.7367C85.9508 30.7367 86.4484 30.3688 86.747 29.633C87.0456 28.8972 87.1783 27.6597 87.1783 25.9874V18.8634C87.1783 17.2246 87.0456 16.0206 86.747 15.2848C86.4484 14.5155 85.9508 14.1476 85.254 14.1476ZM143.779 14.8165C143.375 15.1928 143.087 15.6572 142.916 16.2374L142.883 16.355V29.332C143.295 30.0343 143.878 30.5026 144.907 30.536C145.438 30.536 145.869 30.3353 146.201 29.934C146.533 29.5326 146.765 28.8637 146.898 27.9272C147.025 27.0282 147.091 25.7901 147.096 24.213L147.097 24.0141V21.0374C147.097 19.2314 147.03 17.8601 146.931 16.8902C146.798 15.9202 146.632 15.2179 146.334 14.8165C145.756 13.9804 144.509 13.9904 143.779 14.8165ZM161.33 14.0473C160.766 14.0807 160.368 14.2479 160.135 14.549C159.87 14.8834 159.704 15.3851 159.605 16.1209C159.507 16.842 159.473 19.3619 159.472 19.4624L159.472 21.1043H163.188L163.187 19.6563L163.187 19.6841C163.186 20.1904 163.175 19.3903 163.152 18.4082L163.149 18.2762C163.128 17.413 163.098 16.4506 163.055 16.1209C162.955 15.3516 162.79 14.8165 162.524 14.5155C162.259 14.2145 161.861 14.0473 161.33 14.0473Z" fill="white"/>
</svg>
