<svg width="25" height="25" viewBox="0 0 25 25" fill="none" xmlns="http://www.w3.org/2000/svg">
<path d="M12.457 6.69549C9.10982 6.69549 6.40996 9.38205 6.40996 12.7128C6.40996 16.0435 9.10982 18.73 12.457 18.73C15.8042 18.73 18.5041 16.0435 18.5041 12.7128C18.5041 9.38205 15.8042 6.69549 12.457 6.69549ZM12.457 16.6248C10.294 16.6248 8.52564 14.8704 8.52564 12.7128C8.52564 10.5551 10.2887 8.80075 12.457 8.80075C14.6253 8.80075 16.3884 10.5551 16.3884 12.7128C16.3884 14.8704 14.6201 16.6248 12.457 16.6248ZM20.1619 6.44935C20.1619 7.22966 19.5303 7.85286 18.7514 7.85286C17.9673 7.85286 17.341 7.22442 17.341 6.44935C17.341 5.67428 17.9725 5.04584 18.7514 5.04584C19.5303 5.04584 20.1619 5.67428 20.1619 6.44935ZM24.1669 7.87381C24.0775 5.99373 23.6459 4.32838 22.2618 2.95629C20.8829 1.58421 19.2093 1.15478 17.3199 1.06051C15.3727 0.950533 9.53611 0.950533 7.58884 1.06051C5.70473 1.14954 4.03113 1.57897 2.64699 2.95106C1.26285 4.32314 0.836558 5.9885 0.741826 7.86857C0.631305 9.80625 0.631305 15.614 0.741826 17.5517C0.831295 19.4318 1.26285 21.0972 2.64699 22.4692C4.03113 23.8413 5.69947 24.2708 7.58884 24.365C9.53611 24.475 15.3727 24.475 17.3199 24.365C19.2093 24.276 20.8829 23.8466 22.2618 22.4692C23.6407 21.0972 24.0722 19.4318 24.1669 17.5517C24.2775 15.614 24.2775 9.81148 24.1669 7.87381ZM21.6513 19.6308C21.2408 20.6572 20.4461 21.448 19.4093 21.8617C17.8567 22.4745 14.1727 22.3331 12.457 22.3331C10.7413 22.3331 7.05203 22.4692 5.50474 21.8617C4.47321 21.4533 3.67852 20.6625 3.26275 19.6308C2.64699 18.0859 2.78909 14.42 2.78909 12.7128C2.78909 11.0055 2.65225 7.3344 3.26275 5.79473C3.67326 4.76828 4.46795 3.9775 5.50474 3.56378C7.05729 2.95106 10.7413 3.09245 12.457 3.09245C14.1727 3.09245 17.862 2.95629 19.4093 3.56378C20.4408 3.97226 21.2355 4.76305 21.6513 5.79473C22.267 7.33963 22.1249 11.0055 22.1249 12.7128C22.1249 14.42 22.267 18.0911 21.6513 19.6308Z" fill="white"/>
</svg>
