<svg width="25" height="21" viewBox="0 0 25 21" fill="none" xmlns="http://www.w3.org/2000/svg">
<path d="M20.7854 2.58539C20.7788 2.57157 20.7679 2.56074 20.7547 2.55483C19.2252 1.79123 17.6111 1.24672 15.9528 0.934929C15.9377 0.931882 15.9222 0.93408 15.9083 0.941213C15.8945 0.948345 15.883 0.960048 15.8757 0.974656C15.6559 1.40872 15.4563 1.85458 15.2779 2.31053C13.4903 2.01528 11.6721 2.01528 9.88459 2.31053C9.70492 1.85343 9.5022 1.40746 9.27737 0.974656C9.26965 0.960365 9.25817 0.948932 9.2444 0.941846C9.23063 0.93476 9.21522 0.93235 9.20017 0.934929C7.54173 1.24606 5.92754 1.79062 4.3982 2.55488C4.38511 2.56092 4.37407 2.57123 4.36659 2.58439C1.30823 7.55412 0.470427 12.4017 0.881423 17.1892C0.88258 17.2009 0.885892 17.2123 0.891165 17.2226C0.896438 17.2329 0.903563 17.2419 0.912116 17.2492C2.69297 18.684 4.68488 19.7791 6.80284 20.488C6.81776 20.4929 6.83368 20.4926 6.84848 20.4874C6.86328 20.4821 6.87623 20.472 6.88561 20.4585C7.3405 19.785 7.74357 19.0718 8.09071 18.3262C8.09548 18.316 8.09821 18.3048 8.09871 18.2933C8.0992 18.2819 8.09746 18.2704 8.0936 18.2597C8.08974 18.2491 8.08384 18.2394 8.0763 18.2314C8.06875 18.2234 8.05973 18.2172 8.04983 18.2132C7.41422 17.9486 6.79888 17.6296 6.20958 17.2592C6.19887 17.2524 6.18988 17.2428 6.1834 17.2312C6.17691 17.2197 6.17314 17.2066 6.17241 17.1931C6.17167 17.1797 6.174 17.1662 6.17919 17.1539C6.18438 17.1416 6.19227 17.1309 6.20215 17.1228C6.3258 17.022 6.44954 16.9171 6.56761 16.8112C6.5781 16.8018 6.5908 16.7958 6.60426 16.7938C6.61773 16.7918 6.63144 16.794 6.64384 16.8C10.5046 18.7173 14.6844 18.7173 18.4995 16.8C18.5119 16.7936 18.5258 16.7911 18.5395 16.7929C18.5531 16.7947 18.566 16.8007 18.5767 16.8102C18.6948 16.9161 18.8185 17.022 18.9431 17.1228C18.953 17.1308 18.961 17.1415 18.9663 17.1537C18.9715 17.1659 18.9739 17.1794 18.9733 17.1929C18.9727 17.2064 18.969 17.2195 18.9626 17.231C18.9562 17.2426 18.9472 17.2523 18.9366 17.2592C18.3486 17.6327 17.7327 17.9515 17.0954 18.2122C17.0856 18.2163 17.0766 18.2227 17.0691 18.2308C17.0616 18.2389 17.0557 18.2487 17.052 18.2595C17.0482 18.2702 17.0465 18.2817 17.0471 18.2932C17.0477 18.3047 17.0505 18.316 17.0553 18.3262C17.4083 19.0677 17.8108 19.7799 18.2595 20.4573C18.2686 20.4712 18.2815 20.4816 18.2964 20.4871C18.3112 20.4926 18.3273 20.4929 18.3423 20.4879C20.464 19.7814 22.4594 18.6861 24.2425 17.2492C24.2512 17.2423 24.2584 17.2335 24.2637 17.2233C24.269 17.2131 24.2722 17.2018 24.2732 17.1902C24.7652 11.6553 23.4494 6.8475 20.7854 2.58539ZM8.66729 14.2741C7.50491 14.2741 6.54715 13.1134 6.54715 11.6879C6.54715 10.2625 7.48634 9.10168 8.66729 9.10168C9.85747 9.10168 10.806 10.2725 10.7874 11.6878C10.7874 13.1134 9.84816 14.2741 8.66729 14.2741ZM16.5061 14.2741C15.3437 14.2741 14.386 13.1134 14.386 11.6879C14.386 10.2625 15.3252 9.10168 16.5061 9.10168C17.6963 9.10168 18.6448 10.2725 18.6262 11.6878C18.6262 13.1134 17.6963 14.2741 16.5061 14.2741Z" fill="white"/>
</svg>
