<svg width="24" height="24" viewBox="0 0 24 24" fill="none" xmlns="http://www.w3.org/2000/svg">
<path d="M12.2046 0C18.719 0 24 5.33463 24 11.9153C24 18.4959 18.719 23.8305 12.2046 23.8305C5.69009 23.8305 0.409101 18.4959 0.409101 11.9153C0.409101 5.33463 5.69009 0 12.2046 0ZM6.73717 8.10335C6.91467 9.98745 7.68276 14.5596 8.07367 16.6698C8.239 17.5627 8.56461 17.8621 8.87976 17.8914C9.56465 17.9551 10.0849 17.4342 10.7483 16.9948C11.7865 16.3074 12.373 15.8795 13.3807 15.2086C14.5453 14.4334 13.7903 14.0075 13.1266 13.3108C12.9529 13.1286 9.93488 10.3556 9.87647 10.104C9.86919 10.0725 9.8622 9.95507 9.93136 9.89338C10.0005 9.83169 10.1021 9.85258 10.1756 9.86935C10.2797 9.89325 11.9382 11.0006 15.151 13.1913C15.6217 13.5178 16.0481 13.6769 16.4301 13.6686C16.8513 13.6594 17.6614 13.4281 18.2637 13.2303C19.0024 12.9877 19.5895 12.8595 19.5384 12.4476C19.5117 12.233 19.2192 12.0136 18.6608 11.7893C15.2222 10.276 12.9293 9.27823 11.782 8.79611C8.5063 7.41975 7.82563 7.18068 7.38197 7.1727C7.28437 7.17107 7.06621 7.19548 6.9249 7.31132C6.8309 7.39383 6.77098 7.50899 6.757 7.63399C6.73306 7.7892 6.72641 7.94664 6.73717 8.10335Z" fill="white"/>
</svg>
