<svg width="25" height="25" viewBox="0 0 25 25" fill="none" xmlns="http://www.w3.org/2000/svg">
<path d="M21.9804 0.978027H2.67881C1.4939 0.978027 0.53418 1.93281 0.53418 3.11162V22.3139C0.53418 23.4927 1.4939 24.4475 2.67881 24.4475H21.9804C23.1654 24.4475 24.1251 23.4927 24.1251 22.3139V3.11162C24.1251 1.93281 23.1643 0.978027 21.9804 0.978027ZM20.5746 11.0848C20.4352 11.0976 20.2948 11.1062 20.1532 11.1062C18.5501 11.1062 17.1411 10.2869 16.3208 9.04619C16.3208 12.2988 16.3208 16.0006 16.3208 16.0625C16.3208 18.9268 13.9864 21.2482 11.1083 21.2482C8.23017 21.2471 5.89575 18.9247 5.89575 16.0614C5.89575 13.1971 8.23017 10.8757 11.1083 10.8757C11.2176 10.8757 11.3238 10.8853 11.43 10.8917V13.4478C11.3227 13.435 11.2187 13.4158 11.1083 13.4158C9.63919 13.4158 8.44785 14.601 8.44785 16.0625C8.44785 17.524 9.63812 18.7092 11.1083 18.7092C12.5784 18.7092 13.8759 17.5571 13.8759 16.0956C13.8759 16.0369 13.9016 4.17948 13.9016 4.17948H16.3562C16.5867 6.3632 18.3592 8.08714 20.5746 8.24503V11.0848Z" fill="white"/>
</svg>
