<svg width="24" height="21" viewBox="0 0 24 21" fill="none" xmlns="http://www.w3.org/2000/svg">
<path d="M21.166 5.76382C21.181 5.97773 21.181 6.19168 21.181 6.40558C21.181 12.9299 16.3161 20.4475 7.42457 20.4475C4.68525 20.4475 2.14056 19.6377 0 18.232C0.389205 18.2778 0.76339 18.2931 1.16757 18.2931C3.42784 18.2931 5.50854 17.5139 7.17009 16.1846C5.04451 16.1387 3.26321 14.7177 2.64947 12.7619C2.94887 12.8077 3.24823 12.8383 3.56261 12.8383C3.99669 12.8383 4.43082 12.7771 4.83496 12.6702C2.61957 12.2118 0.957969 10.2255 0.957969 7.82658V7.76548C1.60161 8.1322 2.35011 8.36139 3.14341 8.39191C1.84111 7.50568 0.987919 5.99301 0.987919 4.28169C0.987919 3.36493 1.22738 2.52455 1.64653 1.79112C4.0266 4.78592 7.60418 6.74168 11.6158 6.95563C11.541 6.58892 11.496 6.20697 11.496 5.82497C11.496 3.10517 13.6516 0.889648 16.331 0.889648C17.7231 0.889648 18.9805 1.48555 19.8637 2.44817C20.9564 2.23426 22.0042 1.82169 22.9323 1.25636C22.573 2.40236 21.8096 3.36497 20.8067 3.97612C21.7797 3.86921 22.7227 3.59412 23.5909 3.21217C22.9324 4.19002 22.109 5.06092 21.166 5.76382Z" fill="white"/>
</svg>
