<svg width="268" height="486" viewBox="0 0 268 486" fill="none" xmlns="http://www.w3.org/2000/svg">
<path d="M267.626 484.001L267.626 1.34082L2.63895 1.34081L2.63893 484.001L267.626 484.001Z" fill="#60A963" fill-opacity="0.99"/>
<path d="M267.626 70.5221L267.626 1.34082L2.63895 1.34081L2.63894 70.5221L267.626 70.5221Z" fill="#47934B" fill-opacity="0.99"/>
<path d="M267.626 484.001L267.626 416.429L2.63882 416.429L2.63882 484.001L267.626 484.001Z" fill="#47934B" fill-opacity="0.99"/>
<path d="M0.365152 484.001L0.365173 1.34071C0.365173 0.985129 0.516449 0.64411 0.785706 0.392676C1.05499 0.141242 1.4202 -1.16526e-05 1.80099 -1.16359e-05L266.564 -6.27612e-08C266.945 -4.61159e-08 267.31 0.141253 267.579 0.392688C267.849 0.644122 268 0.985141 268 1.34072L268 484.001C268 484.357 267.849 484.698 267.579 484.949C267.31 485.2 266.945 485.342 266.564 485.342L1.80097 485.342C1.42018 485.342 1.05497 485.2 0.785684 484.949C0.516428 484.698 0.365152 484.357 0.365152 484.001ZM3.23679 2.68143L3.23676 482.66L265.128 482.66L265.128 2.68145L3.23679 2.68143Z" fill="white"/>
<path d="M0.365152 484.001L0.365173 1.34071C0.365173 0.985129 0.516449 0.64411 0.785706 0.392676C1.05499 0.141242 1.4202 -1.16526e-05 1.80099 -1.16359e-05L266.564 -6.27612e-08C266.945 -4.61159e-08 267.31 0.141253 267.579 0.392688C267.849 0.644122 268 0.985141 268 1.34072L268 484.001C268 484.357 267.849 484.698 267.579 484.949C267.31 485.2 266.945 485.342 266.564 485.342L1.80097 485.342C1.42018 485.342 1.05497 485.2 0.785684 484.949C0.516428 484.698 0.365152 484.357 0.365152 484.001ZM3.23679 2.68143L3.23676 482.66L265.128 482.66L265.128 2.68145L3.23679 2.68143Z" fill="white"/>
<path d="M-3.05487e-05 69.9104C-3.05405e-05 69.7215 0.151337 69.5403 0.420776 69.4067C0.690186 69.273 1.0556 69.198 1.43665 69.198L266.355 69.198C266.736 69.198 267.101 69.2731 267.371 69.4067C267.64 69.5403 267.792 69.7215 267.792 69.9104C267.792 70.0994 267.64 70.2806 267.371 70.4142C267.101 70.5478 266.736 70.6228 266.355 70.6228L1.43665 70.6228C1.0556 70.6228 0.690185 70.5478 0.420776 70.4142C0.151337 70.2806 -3.0557e-05 70.0994 -3.05487e-05 69.9104Z" fill="white"/>
<path d="M-3.05487e-05 106.244C-3.05405e-05 106.055 0.151337 105.873 0.420776 105.74C0.690186 105.606 1.0556 105.531 1.43665 105.531L266.355 105.531C266.736 105.531 267.101 105.606 267.371 105.74C267.64 105.873 267.792 106.055 267.792 106.244C267.792 106.432 267.64 106.614 267.371 106.747C267.101 106.881 266.736 106.956 266.355 106.956L1.43665 106.956C1.0556 106.956 0.690185 106.881 0.420776 106.747C0.151337 106.614 -3.0557e-05 106.432 -3.05487e-05 106.244Z" fill="white"/>
<path d="M-3.05487e-05 141.152C-3.05405e-05 140.963 0.151337 140.782 0.420776 140.648C0.690186 140.515 1.0556 140.439 1.43665 140.439L266.355 140.439C266.736 140.439 267.101 140.515 267.371 140.648C267.64 140.782 267.792 140.963 267.792 141.152C267.792 141.341 267.64 141.522 267.371 141.656C267.101 141.789 266.736 141.864 266.355 141.864L1.43665 141.864C1.0556 141.864 0.690185 141.789 0.420776 141.656C0.151337 141.522 -3.0557e-05 141.341 -3.05487e-05 141.152Z" fill="white"/>
<path d="M-3.05487e-05 176.06C-3.05405e-05 175.871 0.151337 175.69 0.420776 175.556C0.690186 175.423 1.0556 175.348 1.43665 175.348L266.355 175.348C266.736 175.348 267.101 175.423 267.371 175.556C267.64 175.69 267.792 175.871 267.792 176.06C267.792 176.249 267.64 176.43 267.371 176.564C267.101 176.697 266.736 176.772 266.355 176.772L1.43665 176.772C1.0556 176.772 0.690185 176.697 0.420776 176.564C0.151337 176.43 -3.0557e-05 176.249 -3.05487e-05 176.06Z" fill="white"/>
<path d="M-3.05487e-05 210.256C-3.05405e-05 210.067 0.151337 209.886 0.420776 209.752C0.690186 209.619 1.0556 209.544 1.43665 209.544L266.355 209.544C266.736 209.544 267.101 209.619 267.371 209.752C267.64 209.886 267.792 210.067 267.792 210.256C267.792 210.445 267.64 210.626 267.371 210.76C267.101 210.893 266.736 210.968 266.355 210.968L1.43665 210.968C1.0556 210.968 0.690185 210.893 0.420776 210.76C0.151337 210.626 -3.0557e-05 210.445 -3.05487e-05 210.256Z" fill="white"/>
<path d="M-3.05487e-05 244.452C-3.05405e-05 244.263 0.151337 244.082 0.420776 243.948C0.690186 243.815 1.0556 243.739 1.43665 243.739L266.355 243.74C266.736 243.74 267.101 243.815 267.371 243.948C267.64 244.082 267.792 244.263 267.792 244.452C267.792 244.641 267.64 244.822 267.371 244.956C267.101 245.089 266.736 245.164 266.355 245.164L1.43665 245.164C1.0556 245.164 0.690185 245.089 0.420776 244.956C0.151337 244.822 -3.0557e-05 244.641 -3.05487e-05 244.452Z" fill="white"/>
<path d="M-3.05487e-05 279.36C-3.05405e-05 279.171 0.151337 278.99 0.420776 278.856C0.690186 278.723 1.0556 278.648 1.43665 278.648L266.355 278.648C266.736 278.648 267.101 278.723 267.371 278.856C267.64 278.99 267.792 279.171 267.792 279.36C267.792 279.549 267.64 279.73 267.371 279.864C267.101 279.997 266.736 280.073 266.355 280.073L1.43665 280.073C1.0556 280.073 0.690185 279.997 0.420776 279.864C0.151337 279.73 -3.0557e-05 279.549 -3.05487e-05 279.36Z" fill="white"/>
<path d="M-3.05487e-05 312.844C-3.05405e-05 312.655 0.151337 312.473 0.420776 312.34C0.690186 312.206 1.0556 312.131 1.43665 312.131L266.355 312.131C266.736 312.131 267.101 312.206 267.371 312.34C267.64 312.473 267.792 312.655 267.792 312.844C267.792 313.032 267.64 313.214 267.371 313.347C267.101 313.481 266.736 313.556 266.355 313.556L1.43665 313.556C1.0556 313.556 0.690185 313.481 0.420776 313.347C0.151337 313.214 -3.0557e-05 313.032 -3.05487e-05 312.844Z" fill="white"/>
<path d="M-3.05487e-05 346.327C-3.05405e-05 346.138 0.151337 345.957 0.420776 345.823C0.690186 345.69 1.0556 345.614 1.43665 345.614L266.355 345.615C266.736 345.615 267.101 345.69 267.371 345.823C267.64 345.957 267.792 346.138 267.792 346.327C267.792 346.516 267.64 346.697 267.371 346.831C267.101 346.964 266.736 347.039 266.355 347.039L1.43665 347.039C1.0556 347.039 0.690185 346.964 0.420776 346.831C0.151337 346.697 -3.0557e-05 346.516 -3.05487e-05 346.327Z" fill="white"/>
<path d="M-3.05487e-05 381.235C-3.05405e-05 381.046 0.151337 380.865 0.420776 380.731C0.690186 380.598 1.0556 380.523 1.43665 380.523L266.355 380.523C266.736 380.523 267.101 380.598 267.371 380.731C267.64 380.865 267.792 381.046 267.792 381.235C267.792 381.424 267.64 381.605 267.371 381.739C267.101 381.872 266.736 381.948 266.355 381.948L1.43665 381.948C1.0556 381.948 0.690185 381.872 0.420776 381.739C0.151337 381.605 -3.0557e-05 381.424 -3.05487e-05 381.235Z" fill="white"/>
<path d="M-3.05487e-05 416.856C-3.05405e-05 416.667 0.151337 416.486 0.420776 416.352C0.690186 416.219 1.0556 416.144 1.43665 416.144L266.355 416.144C266.736 416.144 267.101 416.219 267.371 416.352C267.64 416.486 267.792 416.667 267.792 416.856C267.792 417.045 267.64 417.226 267.371 417.36C267.101 417.493 266.736 417.568 266.355 417.568L1.43665 417.568C1.0556 417.568 0.690185 417.493 0.420776 417.36C0.151337 417.226 -3.0557e-05 417.045 -3.05487e-05 416.856Z" fill="white"/>
<path d="M113.507 451.287C113.507 450.932 113.658 450.591 113.927 450.339C114.197 450.088 114.562 449.947 114.943 449.947L154.571 449.947C154.952 449.947 155.317 450.088 155.586 450.339C155.855 450.591 156.007 450.932 156.007 451.287C156.007 451.643 155.855 451.984 155.586 452.235C155.317 452.487 154.952 452.628 154.571 452.628L114.943 452.628C114.562 452.628 114.197 452.487 113.927 452.235C113.658 451.984 113.507 451.643 113.507 451.287Z" fill="white"/>
<path d="M113.507 37.2721C113.507 36.9165 113.658 36.5755 113.927 36.3241C114.197 36.0727 114.562 35.9314 114.943 35.9314L154.571 35.9314C154.952 35.9314 155.317 36.0727 155.586 36.3241C155.855 36.5755 156.007 36.9165 156.007 37.2721C156.007 37.6277 155.855 37.9687 155.586 38.2202C155.317 38.4716 154.952 38.6128 154.571 38.6128L114.943 38.6128C114.562 38.6128 114.197 38.4716 113.927 38.2201C113.658 37.9687 113.507 37.6277 113.507 37.2721Z" fill="white"/>
<path d="M176.109 78.5664C176.109 78.2108 176.26 77.8698 176.529 77.6184C176.799 77.367 177.164 77.2257 177.545 77.2257L182.714 77.2257C183.094 77.2257 183.46 77.367 183.729 77.6184C183.998 77.8698 184.149 78.2108 184.149 78.5664C184.149 78.922 183.998 79.263 183.729 79.5145C183.46 79.7659 183.094 79.9072 182.714 79.9072L177.545 79.9072C177.164 79.9072 176.799 79.7659 176.529 79.5145C176.26 79.263 176.109 78.922 176.109 78.5664Z" fill="white"/>
<path d="M176.109 85.5381C176.109 85.1825 176.26 84.8415 176.529 84.5901C176.799 84.3386 177.164 84.1974 177.545 84.1974L182.714 84.1974C183.094 84.1974 183.46 84.3386 183.729 84.5901C183.998 84.8415 184.149 85.1825 184.149 85.5381C184.149 85.8937 183.998 86.2347 183.729 86.4861C183.46 86.7376 183.094 86.8788 182.714 86.8788L177.545 86.8788C177.164 86.8788 176.799 86.7376 176.529 86.4861C176.26 86.2347 176.109 85.8937 176.109 85.5381Z" fill="white"/>
<path d="M176.109 92.5099C176.109 92.1543 176.26 91.8133 176.529 91.5619C176.799 91.3104 177.164 91.1692 177.545 91.1692L182.714 91.1692C183.094 91.1692 183.46 91.3104 183.729 91.5619C183.998 91.8133 184.149 92.1543 184.149 92.5099C184.149 92.8655 183.998 93.2065 183.729 93.4579C183.46 93.7094 183.094 93.8506 182.714 93.8506L177.545 93.8506C177.164 93.8506 176.799 93.7094 176.529 93.4579C176.26 93.2065 176.109 92.8655 176.109 92.5099Z" fill="white"/>
<path d="M176.109 99.4816C176.109 99.126 176.26 98.785 176.529 98.5336C176.799 98.2821 177.164 98.1409 177.545 98.1409L182.714 98.1409C183.094 98.1409 183.46 98.2821 183.729 98.5336C183.998 98.785 184.149 99.126 184.149 99.4816C184.149 99.8372 183.998 100.178 183.729 100.43C183.46 100.681 183.094 100.822 182.714 100.822L177.545 100.822C177.164 100.822 176.799 100.681 176.529 100.43C176.26 100.178 176.109 99.8372 176.109 99.4816Z" fill="white"/>
<path d="M176.109 113.961C176.109 113.606 176.26 113.265 176.529 113.013C176.799 112.762 177.164 112.621 177.545 112.621L182.714 112.621C183.094 112.621 183.46 112.762 183.729 113.013C183.998 113.265 184.149 113.606 184.149 113.961C184.149 114.317 183.998 114.658 183.729 114.909C183.46 115.161 183.094 115.302 182.714 115.302L177.545 115.302C177.164 115.302 176.799 115.161 176.529 114.909C176.26 114.658 176.109 114.317 176.109 113.961Z" fill="white"/>
<path d="M176.109 120.933C176.109 120.578 176.26 120.237 176.529 119.985C176.799 119.734 177.164 119.592 177.545 119.592L182.714 119.592C183.094 119.592 183.46 119.734 183.729 119.985C183.998 120.237 184.149 120.578 184.149 120.933C184.149 121.289 183.998 121.63 183.729 121.881C183.46 122.133 183.094 122.274 182.714 122.274L177.545 122.274C177.164 122.274 176.799 122.133 176.529 121.881C176.26 121.63 176.109 121.289 176.109 120.933Z" fill="white"/>
<path d="M176.109 127.905C176.109 127.549 176.26 127.208 176.529 126.957C176.799 126.705 177.164 126.564 177.545 126.564L182.714 126.564C183.094 126.564 183.46 126.705 183.729 126.957C183.998 127.208 184.149 127.549 184.149 127.905C184.149 128.26 183.998 128.601 183.729 128.853C183.46 129.104 183.094 129.246 182.714 129.246L177.545 129.246C177.164 129.246 176.799 129.104 176.529 128.853C176.26 128.601 176.109 128.26 176.109 127.905Z" fill="white"/>
<path d="M176.109 134.877C176.109 134.521 176.26 134.18 176.529 133.929C176.799 133.677 177.164 133.536 177.545 133.536L182.714 133.536C183.094 133.536 183.46 133.677 183.729 133.929C183.998 134.18 184.149 134.521 184.149 134.877C184.149 135.232 183.998 135.573 183.729 135.825C183.46 136.076 183.094 136.217 182.714 136.217L177.545 136.217C177.164 136.217 176.799 136.076 176.529 135.825C176.26 135.573 176.109 135.232 176.109 134.877Z" fill="white"/>
<path d="M176.109 148.284C176.109 147.928 176.26 147.587 176.529 147.336C176.799 147.084 177.164 146.943 177.545 146.943L182.714 146.943C183.094 146.943 183.46 147.084 183.729 147.336C183.998 147.587 184.149 147.928 184.149 148.284C184.149 148.639 183.998 148.98 183.729 149.232C183.46 149.483 183.094 149.625 182.714 149.625L177.545 149.625C177.164 149.625 176.799 149.483 176.529 149.232C176.26 148.98 176.109 148.639 176.109 148.284Z" fill="white"/>
<path d="M176.109 155.256C176.109 154.9 176.26 154.559 176.529 154.308C176.799 154.056 177.164 153.915 177.545 153.915L182.714 153.915C183.094 153.915 183.46 154.056 183.729 154.308C183.998 154.559 184.149 154.9 184.149 155.256C184.149 155.611 183.998 155.952 183.729 156.204C183.46 156.455 183.094 156.596 182.714 156.596L177.545 156.596C177.164 156.596 176.799 156.455 176.529 156.204C176.26 155.952 176.109 155.611 176.109 155.256Z" fill="white"/>
<path d="M176.109 162.227C176.109 161.872 176.26 161.531 176.529 161.279C176.799 161.028 177.164 160.887 177.545 160.887L182.714 160.887C183.094 160.887 183.46 161.028 183.729 161.279C183.998 161.531 184.149 161.872 184.149 162.227C184.149 162.583 183.998 162.924 183.729 163.175C183.46 163.427 183.094 163.568 182.714 163.568L177.545 163.568C177.164 163.568 176.799 163.427 176.529 163.175C176.26 162.924 176.109 162.583 176.109 162.227Z" fill="white"/>
<path d="M176.109 169.199C176.109 168.844 176.26 168.503 176.529 168.251C176.799 168 177.164 167.858 177.545 167.858L182.714 167.858C183.094 167.858 183.46 168 183.729 168.251C183.998 168.503 184.149 168.844 184.149 169.199C184.149 169.555 183.998 169.896 183.729 170.147C183.46 170.399 183.094 170.54 182.714 170.54L177.545 170.54C177.164 170.54 176.799 170.399 176.529 170.147C176.26 169.896 176.109 169.555 176.109 169.199Z" fill="white"/>
<path d="M176.109 182.606C176.109 182.251 176.26 181.91 176.529 181.658C176.799 181.407 177.164 181.266 177.545 181.266L182.714 181.266C183.094 181.266 183.46 181.407 183.729 181.658C183.998 181.91 184.149 182.251 184.149 182.606C184.149 182.962 183.998 183.303 183.729 183.555C183.46 183.806 183.094 183.947 182.714 183.947L177.545 183.947C177.164 183.947 176.799 183.806 176.529 183.555C176.26 183.303 176.109 182.962 176.109 182.606Z" fill="white"/>
<path d="M176.109 189.578C176.109 189.222 176.26 188.881 176.529 188.63C176.799 188.379 177.164 188.237 177.545 188.237L182.714 188.237C183.094 188.237 183.46 188.379 183.729 188.63C183.998 188.881 184.149 189.222 184.149 189.578C184.149 189.934 183.998 190.275 183.729 190.526C183.46 190.777 183.094 190.919 182.714 190.919L177.545 190.919C177.164 190.919 176.799 190.777 176.529 190.526C176.26 190.275 176.109 189.934 176.109 189.578Z" fill="white"/>
<path d="M176.109 196.55C176.109 196.194 176.26 195.853 176.529 195.602C176.799 195.35 177.164 195.209 177.545 195.209L182.714 195.209C183.094 195.209 183.46 195.35 183.729 195.602C183.998 195.853 184.149 196.194 184.149 196.55C184.149 196.905 183.998 197.246 183.729 197.498C183.46 197.749 183.094 197.891 182.714 197.891L177.545 197.891C177.164 197.891 176.799 197.749 176.529 197.498C176.26 197.246 176.109 196.905 176.109 196.55Z" fill="white"/>
<path d="M176.109 203.522C176.109 203.166 176.26 202.825 176.529 202.573C176.799 202.322 177.164 202.181 177.545 202.181L182.714 202.181C183.094 202.181 183.46 202.322 183.729 202.573C183.998 202.825 184.149 203.166 184.149 203.522C184.149 203.877 183.998 204.218 183.729 204.47C183.46 204.721 183.094 204.862 182.714 204.862L177.545 204.862C177.164 204.862 176.799 204.721 176.529 204.47C176.26 204.218 176.109 203.877 176.109 203.522Z" fill="white"/>
<path d="M176.109 218.001C176.109 217.646 176.26 217.305 176.529 217.053C176.799 216.802 177.164 216.661 177.545 216.661L182.714 216.661C183.094 216.661 183.46 216.802 183.729 217.053C183.998 217.305 184.149 217.646 184.149 218.001C184.149 218.357 183.998 218.698 183.729 218.949C183.46 219.201 183.094 219.342 182.714 219.342L177.545 219.342C177.164 219.342 176.799 219.201 176.529 218.949C176.26 218.698 176.109 218.357 176.109 218.001Z" fill="white"/>
<path d="M176.109 224.973C176.109 224.617 176.26 224.276 176.529 224.025C176.799 223.774 177.164 223.632 177.545 223.632L182.714 223.632C183.094 223.632 183.46 223.774 183.729 224.025C183.998 224.276 184.149 224.617 184.149 224.973C184.149 225.329 183.998 225.67 183.729 225.921C183.46 226.173 183.094 226.314 182.714 226.314L177.545 226.314C177.164 226.314 176.799 226.173 176.529 225.921C176.26 225.67 176.109 225.329 176.109 224.973Z" fill="white"/>
<path d="M176.109 231.945C176.109 231.589 176.26 231.248 176.529 230.997C176.799 230.746 177.164 230.604 177.545 230.604L182.714 230.604C183.094 230.604 183.46 230.746 183.729 230.997C183.998 231.248 184.149 231.589 184.149 231.945C184.149 232.301 183.998 232.642 183.729 232.893C183.46 233.144 183.094 233.286 182.714 233.286L177.545 233.286C177.164 233.286 176.799 233.144 176.529 232.893C176.26 232.642 176.109 232.301 176.109 231.945Z" fill="white"/>
<path d="M176.109 238.917C176.109 238.561 176.26 238.22 176.529 237.969C176.799 237.717 177.164 237.576 177.545 237.576L182.714 237.576C183.094 237.576 183.46 237.717 183.729 237.969C183.998 238.22 184.149 238.561 184.149 238.917C184.149 239.272 183.998 239.613 183.729 239.865C183.46 240.116 183.094 240.257 182.714 240.257L177.545 240.257C177.164 240.257 176.799 240.116 176.529 239.865C176.26 239.613 176.109 239.272 176.109 238.917Z" fill="white"/>
<path d="M176.109 252.324C176.109 251.968 176.26 251.627 176.529 251.376C176.799 251.124 177.164 250.983 177.545 250.983L182.714 250.983C183.094 250.983 183.46 251.124 183.729 251.376C183.998 251.627 184.149 251.968 184.149 252.324C184.149 252.679 183.998 253.02 183.729 253.272C183.46 253.523 183.094 253.665 182.714 253.665L177.545 253.665C177.164 253.665 176.799 253.523 176.529 253.272C176.26 253.02 176.109 252.679 176.109 252.324Z" fill="white"/>
<path d="M176.109 259.296C176.109 258.94 176.26 258.599 176.529 258.348C176.799 258.096 177.164 257.955 177.545 257.955L182.714 257.955C183.094 257.955 183.46 258.096 183.729 258.348C183.998 258.599 184.149 258.94 184.149 259.296C184.149 259.651 183.998 259.992 183.729 260.244C183.46 260.495 183.094 260.636 182.714 260.636L177.545 260.636C177.164 260.636 176.799 260.495 176.529 260.244C176.26 259.992 176.109 259.651 176.109 259.296Z" fill="white"/>
<path d="M176.109 266.268C176.109 265.912 176.26 265.571 176.529 265.32C176.799 265.068 177.164 264.927 177.545 264.927L182.714 264.927C183.094 264.927 183.46 265.068 183.729 265.32C183.998 265.571 184.149 265.912 184.149 266.268C184.149 266.623 183.998 266.964 183.729 267.216C183.46 267.467 183.094 267.608 182.714 267.608L177.545 267.608C177.164 267.608 176.799 267.467 176.529 267.216C176.26 266.964 176.109 266.623 176.109 266.268Z" fill="white"/>
<path d="M176.109 273.239C176.109 272.884 176.26 272.543 176.529 272.291C176.799 272.04 177.164 271.898 177.545 271.898L182.714 271.898C183.094 271.898 183.46 272.04 183.729 272.291C183.998 272.543 184.149 272.884 184.149 273.239C184.149 273.595 183.998 273.936 183.729 274.187C183.46 274.439 183.094 274.58 182.714 274.58L177.545 274.58C177.164 274.58 176.799 274.439 176.529 274.187C176.26 273.936 176.109 273.595 176.109 273.239Z" fill="white"/>
<path d="M176.109 286.11C176.109 285.754 176.26 285.413 176.529 285.162C176.799 284.911 177.164 284.769 177.545 284.769L182.714 284.769C183.094 284.769 183.46 284.911 183.729 285.162C183.998 285.413 184.149 285.754 184.149 286.11C184.149 286.466 183.998 286.807 183.729 287.058C183.46 287.309 183.094 287.451 182.714 287.451L177.545 287.451C177.164 287.451 176.799 287.309 176.529 287.058C176.26 286.807 176.109 286.466 176.109 286.11Z" fill="white"/>
<path d="M176.109 293.082C176.109 292.726 176.26 292.385 176.529 292.134C176.799 291.882 177.164 291.741 177.545 291.741L182.714 291.741C183.094 291.741 183.46 291.882 183.729 292.134C183.998 292.385 184.149 292.726 184.149 293.082C184.149 293.437 183.998 293.778 183.729 294.03C183.46 294.281 183.094 294.422 182.714 294.422L177.545 294.422C177.164 294.422 176.799 294.281 176.529 294.03C176.26 293.778 176.109 293.437 176.109 293.082Z" fill="white"/>
<path d="M176.109 300.054C176.109 299.698 176.26 299.357 176.529 299.106C176.799 298.854 177.164 298.713 177.545 298.713L182.714 298.713C183.094 298.713 183.46 298.854 183.729 299.106C183.998 299.357 184.149 299.698 184.149 300.054C184.149 300.409 183.998 300.75 183.729 301.002C183.46 301.253 183.094 301.395 182.714 301.395L177.545 301.395C177.164 301.395 176.799 301.253 176.529 301.002C176.26 300.75 176.109 300.409 176.109 300.054Z" fill="white"/>
<path d="M176.109 307.026C176.109 306.67 176.26 306.329 176.529 306.078C176.799 305.826 177.164 305.685 177.545 305.685L182.714 305.685C183.094 305.685 183.46 305.826 183.729 306.078C183.998 306.329 184.149 306.67 184.149 307.026C184.149 307.381 183.998 307.722 183.729 307.974C183.46 308.225 183.094 308.366 182.714 308.366L177.545 308.366C177.164 308.366 176.799 308.225 176.529 307.974C176.26 307.722 176.109 307.381 176.109 307.026Z" fill="white"/>
<path d="M176.109 320.433C176.109 320.077 176.26 319.736 176.529 319.485C176.799 319.234 177.164 319.092 177.545 319.092L182.714 319.092C183.094 319.092 183.46 319.234 183.729 319.485C183.998 319.736 184.149 320.077 184.149 320.433C184.149 320.789 183.998 321.13 183.729 321.381C183.46 321.632 183.094 321.774 182.714 321.774L177.545 321.774C177.164 321.774 176.799 321.632 176.529 321.381C176.26 321.13 176.109 320.789 176.109 320.433Z" fill="white"/>
<path d="M176.109 327.404C176.109 327.049 176.26 326.708 176.529 326.456C176.799 326.205 177.164 326.063 177.545 326.063L182.714 326.063C183.094 326.063 183.46 326.205 183.729 326.456C183.998 326.708 184.149 327.049 184.149 327.404C184.149 327.76 183.998 328.101 183.729 328.352C183.46 328.604 183.094 328.745 182.714 328.745L177.545 328.745C177.164 328.745 176.799 328.604 176.529 328.352C176.26 328.101 176.109 327.76 176.109 327.404Z" fill="white"/>
<path d="M176.109 334.376C176.109 334.021 176.26 333.68 176.529 333.428C176.799 333.177 177.164 333.036 177.545 333.036L182.714 333.036C183.094 333.036 183.46 333.177 183.729 333.428C183.998 333.68 184.149 334.021 184.149 334.376C184.149 334.732 183.998 335.073 183.729 335.324C183.46 335.576 183.094 335.717 182.714 335.717L177.545 335.717C177.164 335.717 176.799 335.576 176.529 335.324C176.26 335.073 176.109 334.732 176.109 334.376Z" fill="white"/>
<path d="M176.109 341.348C176.109 340.992 176.26 340.651 176.529 340.4C176.799 340.149 177.164 340.007 177.545 340.007L182.714 340.007C183.094 340.007 183.46 340.149 183.729 340.4C183.998 340.651 184.149 340.992 184.149 341.348C184.149 341.704 183.998 342.045 183.729 342.296C183.46 342.548 183.094 342.689 182.714 342.689L177.545 342.689C177.164 342.689 176.799 342.548 176.529 342.296C176.26 342.045 176.109 341.704 176.109 341.348Z" fill="white"/>
<path d="M176.109 354.219C176.109 353.863 176.26 353.522 176.529 353.271C176.799 353.019 177.164 352.878 177.545 352.878L182.714 352.878C183.094 352.878 183.46 353.019 183.729 353.271C183.998 353.522 184.149 353.863 184.149 354.219C184.149 354.574 183.998 354.915 183.729 355.167C183.46 355.418 183.094 355.56 182.714 355.56L177.545 355.56C177.164 355.56 176.799 355.418 176.529 355.167C176.26 354.915 176.109 354.574 176.109 354.219Z" fill="white"/>
<path d="M176.109 361.191C176.109 360.835 176.26 360.494 176.529 360.243C176.799 359.991 177.164 359.85 177.545 359.85L182.714 359.85C183.094 359.85 183.46 359.991 183.729 360.243C183.998 360.494 184.149 360.835 184.149 361.191C184.149 361.546 183.998 361.887 183.729 362.139C183.46 362.39 183.094 362.531 182.714 362.531L177.545 362.531C177.164 362.531 176.799 362.39 176.529 362.139C176.26 361.887 176.109 361.546 176.109 361.191Z" fill="white"/>
<path d="M176.109 368.162C176.109 367.807 176.26 367.466 176.529 367.214C176.799 366.963 177.164 366.822 177.545 366.822L182.714 366.822C183.094 366.822 183.46 366.963 183.729 367.214C183.998 367.466 184.149 367.807 184.149 368.162C184.149 368.518 183.998 368.859 183.729 369.11C183.46 369.362 183.094 369.503 182.714 369.503L177.545 369.503C177.164 369.503 176.799 369.362 176.529 369.11C176.26 368.859 176.109 368.518 176.109 368.162Z" fill="white"/>
<path d="M176.109 375.134C176.109 374.779 176.26 374.438 176.529 374.186C176.799 373.935 177.164 373.793 177.545 373.793L182.714 373.793C183.094 373.793 183.46 373.935 183.729 374.186C183.998 374.438 184.149 374.779 184.149 375.134C184.149 375.49 183.998 375.831 183.729 376.082C183.46 376.334 183.094 376.475 182.714 376.475L177.545 376.475C177.164 376.475 176.799 376.334 176.529 376.082C176.26 375.831 176.109 375.49 176.109 375.134Z" fill="white"/>
<path d="M176.109 389.078C176.109 388.722 176.26 388.381 176.529 388.13C176.799 387.878 177.164 387.737 177.545 387.737L182.714 387.737C183.094 387.737 183.46 387.878 183.729 388.13C183.998 388.381 184.149 388.722 184.149 389.078C184.149 389.433 183.998 389.774 183.729 390.026C183.46 390.277 183.094 390.419 182.714 390.419L177.545 390.419C177.164 390.419 176.799 390.277 176.529 390.026C176.26 389.774 176.109 389.433 176.109 389.078Z" fill="white"/>
<path d="M176.109 396.049C176.109 395.694 176.26 395.353 176.529 395.101C176.799 394.85 177.164 394.708 177.545 394.708L182.714 394.708C183.094 394.708 183.46 394.85 183.729 395.101C183.998 395.353 184.149 395.694 184.149 396.049C184.149 396.405 183.998 396.746 183.729 396.997C183.46 397.249 183.094 397.39 182.714 397.39L177.545 397.39C177.164 397.39 176.799 397.249 176.529 396.997C176.26 396.746 176.109 396.405 176.109 396.049Z" fill="white"/>
<path d="M176.109 403.021C176.109 402.666 176.26 402.325 176.529 402.073C176.799 401.822 177.164 401.68 177.545 401.68L182.714 401.68C183.094 401.68 183.46 401.822 183.729 402.073C183.998 402.325 184.149 402.666 184.149 403.021C184.149 403.377 183.998 403.718 183.729 403.969C183.46 404.221 183.094 404.362 182.714 404.362L177.545 404.362C177.164 404.362 176.799 404.221 176.529 403.969C176.26 403.718 176.109 403.377 176.109 403.021Z" fill="white"/>
<path d="M176.109 409.993C176.109 409.637 176.26 409.296 176.529 409.045C176.799 408.794 177.164 408.652 177.545 408.652L182.714 408.652C183.094 408.652 183.46 408.794 183.729 409.045C183.998 409.296 184.149 409.637 184.149 409.993C184.149 410.349 183.998 410.69 183.729 410.941C183.46 411.193 183.094 411.334 182.714 411.334L177.545 411.334C177.164 411.334 176.799 411.193 176.529 410.941C176.26 410.69 176.109 410.349 176.109 409.993Z" fill="white"/>
<path d="M84.79 78.5664C84.79 78.2108 84.9413 77.8698 85.2106 77.6184C85.4798 77.367 85.845 77.2257 86.2258 77.2257L91.3948 77.2257C91.7756 77.2257 92.1408 77.367 92.41 77.6184C92.6793 77.8698 92.8306 78.2108 92.8306 78.5664C92.8306 78.922 92.6793 79.263 92.41 79.5145C92.1408 79.7659 91.7756 79.9072 91.3948 79.9072L86.2258 79.9072C85.845 79.9072 85.4798 79.7659 85.2106 79.5145C84.9413 79.263 84.79 78.922 84.79 78.5664Z" fill="white"/>
<path d="M84.79 85.5381C84.79 85.1825 84.9413 84.8415 85.2106 84.5901C85.4798 84.3386 85.845 84.1974 86.2258 84.1974L91.3948 84.1974C91.7756 84.1974 92.1408 84.3386 92.41 84.5901C92.6793 84.8415 92.8306 85.1825 92.8306 85.5381C92.8306 85.8937 92.6793 86.2347 92.41 86.4861C92.1408 86.7376 91.7756 86.8788 91.3948 86.8788L86.2258 86.8788C85.845 86.8788 85.4798 86.7376 85.2106 86.4861C84.9413 86.2347 84.79 85.8937 84.79 85.5381Z" fill="white"/>
<path d="M84.79 92.5099C84.79 92.1543 84.9413 91.8133 85.2106 91.5619C85.4798 91.3104 85.845 91.1692 86.2258 91.1692L91.3948 91.1692C91.7756 91.1692 92.1408 91.3104 92.41 91.5619C92.6793 91.8133 92.8306 92.1543 92.8306 92.5099C92.8306 92.8655 92.6793 93.2065 92.41 93.4579C92.1408 93.7094 91.7756 93.8506 91.3948 93.8506L86.2258 93.8506C85.845 93.8506 85.4798 93.7094 85.2106 93.4579C84.9413 93.2065 84.79 92.8655 84.79 92.5099Z" fill="white"/>
<path d="M84.79 99.4816C84.79 99.126 84.9413 98.785 85.2106 98.5336C85.4798 98.2821 85.845 98.1409 86.2258 98.1409L91.3948 98.1409C91.7756 98.1409 92.1408 98.2821 92.41 98.5336C92.6793 98.785 92.8306 99.126 92.8306 99.4816C92.8306 99.8372 92.6793 100.178 92.41 100.43C92.1408 100.681 91.7756 100.822 91.3948 100.822L86.2258 100.822C85.845 100.822 85.4798 100.681 85.2106 100.43C84.9413 100.178 84.79 99.8372 84.79 99.4816Z" fill="white"/>
<path d="M84.79 113.961C84.79 113.606 84.9413 113.265 85.2106 113.013C85.4798 112.762 85.845 112.621 86.2258 112.621L91.3948 112.621C91.7756 112.621 92.1408 112.762 92.41 113.013C92.6793 113.265 92.8306 113.606 92.8306 113.961C92.8306 114.317 92.6793 114.658 92.41 114.909C92.1408 115.161 91.7756 115.302 91.3948 115.302L86.2258 115.302C85.845 115.302 85.4798 115.161 85.2106 114.909C84.9413 114.658 84.79 114.317 84.79 113.961Z" fill="white"/>
<path d="M84.79 120.933C84.79 120.578 84.9413 120.237 85.2106 119.985C85.4798 119.734 85.845 119.592 86.2258 119.592L91.3948 119.592C91.7756 119.592 92.1408 119.734 92.41 119.985C92.6793 120.237 92.8306 120.578 92.8306 120.933C92.8306 121.289 92.6793 121.63 92.41 121.881C92.1408 122.133 91.7756 122.274 91.3948 122.274L86.2258 122.274C85.845 122.274 85.4798 122.133 85.2106 121.881C84.9413 121.63 84.79 121.289 84.79 120.933Z" fill="white"/>
<path d="M84.79 127.905C84.79 127.549 84.9413 127.208 85.2106 126.957C85.4798 126.705 85.845 126.564 86.2258 126.564L91.3948 126.564C91.7756 126.564 92.1408 126.705 92.41 126.957C92.6793 127.208 92.8306 127.549 92.8306 127.905C92.8306 128.26 92.6793 128.601 92.41 128.853C92.1408 129.104 91.7756 129.246 91.3948 129.246L86.2258 129.246C85.845 129.246 85.4798 129.104 85.2106 128.853C84.9413 128.601 84.79 128.26 84.79 127.905Z" fill="white"/>
<path d="M84.79 134.877C84.79 134.521 84.9413 134.18 85.2106 133.929C85.4798 133.677 85.845 133.536 86.2258 133.536L91.3948 133.536C91.7756 133.536 92.1408 133.677 92.41 133.929C92.6793 134.18 92.8306 134.521 92.8306 134.877C92.8306 135.232 92.6793 135.573 92.41 135.825C92.1408 136.076 91.7756 136.217 91.3948 136.217L86.2258 136.217C85.845 136.217 85.4798 136.076 85.2106 135.825C84.9413 135.573 84.79 135.232 84.79 134.877Z" fill="white"/>
<path d="M84.79 148.284C84.79 147.928 84.9413 147.587 85.2106 147.336C85.4798 147.084 85.845 146.943 86.2258 146.943L91.3948 146.943C91.7756 146.943 92.1408 147.084 92.41 147.336C92.6793 147.587 92.8306 147.928 92.8306 148.284C92.8306 148.639 92.6793 148.98 92.41 149.232C92.1408 149.483 91.7756 149.625 91.3948 149.625L86.2258 149.625C85.845 149.625 85.4798 149.483 85.2106 149.232C84.9413 148.98 84.79 148.639 84.79 148.284Z" fill="white"/>
<path d="M84.79 155.256C84.79 154.9 84.9413 154.559 85.2106 154.308C85.4798 154.056 85.845 153.915 86.2258 153.915L91.3948 153.915C91.7756 153.915 92.1408 154.056 92.41 154.308C92.6793 154.559 92.8306 154.9 92.8306 155.256C92.8306 155.611 92.6793 155.952 92.41 156.204C92.1408 156.455 91.7756 156.596 91.3948 156.596L86.2258 156.596C85.845 156.596 85.4798 156.455 85.2106 156.204C84.9413 155.952 84.79 155.611 84.79 155.256Z" fill="white"/>
<path d="M84.79 162.227C84.79 161.872 84.9413 161.531 85.2106 161.279C85.4798 161.028 85.845 160.887 86.2258 160.887L91.3948 160.887C91.7756 160.887 92.1408 161.028 92.41 161.279C92.6793 161.531 92.8306 161.872 92.8306 162.227C92.8306 162.583 92.6793 162.924 92.41 163.175C92.1408 163.427 91.7756 163.568 91.3948 163.568L86.2258 163.568C85.845 163.568 85.4798 163.427 85.2106 163.175C84.9413 162.924 84.79 162.583 84.79 162.227Z" fill="white"/>
<path d="M84.79 169.199C84.79 168.844 84.9413 168.503 85.2106 168.251C85.4798 168 85.845 167.858 86.2258 167.858L91.3948 167.858C91.7756 167.858 92.1408 168 92.41 168.251C92.6793 168.503 92.8306 168.844 92.8306 169.199C92.8306 169.555 92.6793 169.896 92.41 170.147C92.1408 170.399 91.7756 170.54 91.3948 170.54L86.2258 170.54C85.845 170.54 85.4798 170.399 85.2106 170.147C84.9413 169.896 84.79 169.555 84.79 169.199Z" fill="white"/>
<path d="M84.79 182.606C84.79 182.251 84.9413 181.91 85.2106 181.658C85.4798 181.407 85.845 181.266 86.2258 181.266L91.3948 181.266C91.7756 181.266 92.1408 181.407 92.41 181.658C92.6793 181.91 92.8306 182.251 92.8306 182.606C92.8306 182.962 92.6793 183.303 92.41 183.555C92.1408 183.806 91.7756 183.947 91.3948 183.947L86.2258 183.947C85.845 183.947 85.4798 183.806 85.2106 183.555C84.9413 183.303 84.79 182.962 84.79 182.606Z" fill="white"/>
<path d="M84.79 189.578C84.79 189.222 84.9413 188.881 85.2106 188.63C85.4798 188.379 85.845 188.237 86.2258 188.237L91.3948 188.237C91.7756 188.237 92.1408 188.379 92.41 188.63C92.6793 188.881 92.8306 189.222 92.8306 189.578C92.8306 189.934 92.6793 190.275 92.41 190.526C92.1408 190.777 91.7756 190.919 91.3948 190.919L86.2258 190.919C85.845 190.919 85.4798 190.777 85.2106 190.526C84.9413 190.275 84.79 189.934 84.79 189.578Z" fill="white"/>
<path d="M84.79 196.55C84.79 196.194 84.9413 195.853 85.2106 195.602C85.4798 195.35 85.845 195.209 86.2258 195.209L91.3948 195.209C91.7756 195.209 92.1408 195.35 92.41 195.602C92.6793 195.853 92.8306 196.194 92.8306 196.55C92.8306 196.906 92.6793 197.247 92.41 197.498C92.1408 197.749 91.7756 197.891 91.3948 197.891L86.2258 197.891C85.845 197.891 85.4798 197.749 85.2106 197.498C84.9413 197.247 84.79 196.906 84.79 196.55Z" fill="white"/>
<path d="M84.79 203.522C84.79 203.166 84.9413 202.825 85.2106 202.573C85.4798 202.322 85.845 202.181 86.2258 202.181L91.3948 202.181C91.7756 202.181 92.1408 202.322 92.41 202.573C92.6793 202.825 92.8306 203.166 92.8306 203.522C92.8306 203.877 92.6793 204.218 92.41 204.47C92.1408 204.721 91.7756 204.862 91.3948 204.862L86.2258 204.862C85.845 204.862 85.4798 204.721 85.2106 204.47C84.9413 204.218 84.79 203.877 84.79 203.522Z" fill="white"/>
<path d="M84.79 218.001C84.79 217.646 84.9413 217.305 85.2106 217.053C85.4798 216.802 85.845 216.661 86.2258 216.661L91.3948 216.661C91.7756 216.661 92.1408 216.802 92.41 217.053C92.6793 217.305 92.8306 217.646 92.8306 218.001C92.8306 218.357 92.6793 218.698 92.41 218.949C92.1408 219.201 91.7756 219.342 91.3948 219.342L86.2258 219.342C85.845 219.342 85.4798 219.201 85.2106 218.949C84.9413 218.698 84.79 218.357 84.79 218.001Z" fill="white"/>
<path d="M84.79 224.973C84.79 224.617 84.9413 224.276 85.2106 224.025C85.4798 223.774 85.845 223.632 86.2258 223.632L91.3948 223.632C91.7756 223.632 92.1408 223.774 92.41 224.025C92.6793 224.276 92.8306 224.617 92.8306 224.973C92.8306 225.329 92.6793 225.67 92.41 225.921C92.1408 226.173 91.7756 226.314 91.3948 226.314L86.2258 226.314C85.845 226.314 85.4798 226.173 85.2106 225.921C84.9413 225.67 84.79 225.329 84.79 224.973Z" fill="white"/>
<path d="M84.79 231.945C84.79 231.589 84.9413 231.248 85.2106 230.997C85.4798 230.746 85.845 230.604 86.2258 230.604L91.3948 230.604C91.7756 230.604 92.1408 230.746 92.41 230.997C92.6793 231.248 92.8306 231.589 92.8306 231.945C92.8306 232.301 92.6793 232.642 92.41 232.893C92.1408 233.144 91.7756 233.286 91.3948 233.286L86.2258 233.286C85.845 233.286 85.4798 233.144 85.2106 232.893C84.9413 232.642 84.79 232.301 84.79 231.945Z" fill="white"/>
<path d="M84.79 238.917C84.79 238.561 84.9413 238.22 85.2106 237.969C85.4798 237.717 85.845 237.576 86.2258 237.576L91.3948 237.576C91.7756 237.576 92.1408 237.717 92.41 237.969C92.6793 238.22 92.8306 238.561 92.8306 238.917C92.8306 239.272 92.6793 239.613 92.41 239.865C92.1408 240.116 91.7756 240.257 91.3948 240.257L86.2258 240.257C85.845 240.257 85.4798 240.116 85.2106 239.865C84.9413 239.613 84.79 239.272 84.79 238.917Z" fill="white"/>
<path d="M84.79 252.324C84.79 251.968 84.9413 251.627 85.2106 251.376C85.4798 251.124 85.845 250.983 86.2258 250.983L91.3948 250.983C91.7756 250.983 92.1408 251.124 92.41 251.376C92.6793 251.627 92.8306 251.968 92.8306 252.324C92.8306 252.679 92.6793 253.02 92.41 253.272C92.1408 253.523 91.7756 253.665 91.3948 253.665L86.2258 253.665C85.845 253.665 85.4798 253.523 85.2106 253.272C84.9413 253.02 84.79 252.679 84.79 252.324Z" fill="white"/>
<path d="M84.79 259.296C84.79 258.94 84.9413 258.599 85.2106 258.348C85.4798 258.096 85.845 257.955 86.2258 257.955L91.3948 257.955C91.7756 257.955 92.1408 258.096 92.41 258.348C92.6793 258.599 92.8306 258.94 92.8306 259.296C92.8306 259.651 92.6793 259.992 92.41 260.244C92.1408 260.495 91.7756 260.636 91.3948 260.636L86.2258 260.636C85.845 260.636 85.4798 260.495 85.2106 260.244C84.9413 259.992 84.79 259.651 84.79 259.296Z" fill="white"/>
<path d="M84.79 266.268C84.79 265.912 84.9413 265.571 85.2106 265.32C85.4798 265.068 85.845 264.927 86.2258 264.927L91.3948 264.927C91.7756 264.927 92.1408 265.068 92.41 265.32C92.6793 265.571 92.8306 265.912 92.8306 266.268C92.8306 266.623 92.6793 266.964 92.41 267.216C92.1408 267.467 91.7756 267.608 91.3948 267.608L86.2258 267.608C85.845 267.608 85.4798 267.467 85.2106 267.216C84.9413 266.964 84.79 266.623 84.79 266.268Z" fill="white"/>
<path d="M84.79 273.239C84.79 272.884 84.9413 272.543 85.2106 272.291C85.4798 272.04 85.845 271.898 86.2258 271.898L91.3948 271.898C91.7756 271.898 92.1408 272.04 92.41 272.291C92.6793 272.543 92.8306 272.884 92.8306 273.239C92.8306 273.595 92.6793 273.936 92.41 274.187C92.1408 274.439 91.7756 274.58 91.3948 274.58L86.2258 274.58C85.845 274.58 85.4798 274.439 85.2106 274.187C84.9413 273.936 84.79 273.595 84.79 273.239Z" fill="white"/>
<path d="M84.79 286.11C84.79 285.754 84.9413 285.413 85.2106 285.162C85.4798 284.911 85.845 284.769 86.2258 284.769L91.3948 284.769C91.7756 284.769 92.1408 284.911 92.41 285.162C92.6793 285.413 92.8306 285.754 92.8306 286.11C92.8306 286.466 92.6793 286.807 92.41 287.058C92.1408 287.309 91.7756 287.451 91.3948 287.451L86.2258 287.451C85.845 287.451 85.4798 287.309 85.2106 287.058C84.9413 286.807 84.79 286.466 84.79 286.11Z" fill="white"/>
<path d="M84.79 293.082C84.79 292.726 84.9413 292.385 85.2106 292.134C85.4798 291.882 85.845 291.741 86.2258 291.741L91.3948 291.741C91.7756 291.741 92.1408 291.882 92.41 292.134C92.6793 292.385 92.8306 292.726 92.8306 293.082C92.8306 293.437 92.6793 293.778 92.41 294.03C92.1408 294.281 91.7756 294.422 91.3948 294.422L86.2258 294.422C85.845 294.422 85.4798 294.281 85.2106 294.03C84.9413 293.778 84.79 293.437 84.79 293.082Z" fill="white"/>
<path d="M84.79 300.054C84.79 299.698 84.9413 299.357 85.2106 299.106C85.4798 298.854 85.845 298.713 86.2258 298.713L91.3948 298.713C91.7756 298.713 92.1408 298.854 92.41 299.106C92.6793 299.357 92.8306 299.698 92.8306 300.054C92.8306 300.409 92.6793 300.75 92.41 301.002C92.1408 301.253 91.7756 301.395 91.3948 301.395L86.2258 301.395C85.845 301.395 85.4798 301.253 85.2106 301.002C84.9413 300.75 84.79 300.409 84.79 300.054Z" fill="white"/>
<path d="M84.79 307.026C84.79 306.67 84.9413 306.329 85.2106 306.078C85.4798 305.826 85.845 305.685 86.2258 305.685L91.3948 305.685C91.7756 305.685 92.1408 305.826 92.41 306.078C92.6793 306.329 92.8306 306.67 92.8306 307.026C92.8306 307.381 92.6793 307.722 92.41 307.974C92.1408 308.225 91.7756 308.366 91.3948 308.366L86.2258 308.366C85.845 308.366 85.4798 308.225 85.2106 307.974C84.9413 307.722 84.79 307.381 84.79 307.026Z" fill="white"/>
<path d="M84.79 320.433C84.79 320.077 84.9413 319.736 85.2106 319.485C85.4798 319.234 85.845 319.092 86.2258 319.092L91.3948 319.092C91.7756 319.092 92.1408 319.234 92.41 319.485C92.6793 319.736 92.8306 320.077 92.8306 320.433C92.8306 320.789 92.6793 321.13 92.41 321.381C92.1408 321.632 91.7756 321.774 91.3948 321.774L86.2258 321.774C85.845 321.774 85.4798 321.632 85.2106 321.381C84.9413 321.13 84.79 320.789 84.79 320.433Z" fill="white"/>
<path d="M84.79 327.404C84.79 327.049 84.9413 326.708 85.2106 326.456C85.4798 326.205 85.845 326.063 86.2258 326.063L91.3948 326.063C91.7756 326.063 92.1408 326.205 92.41 326.456C92.6793 326.708 92.8306 327.049 92.8306 327.404C92.8306 327.76 92.6793 328.101 92.41 328.352C92.1408 328.604 91.7756 328.745 91.3948 328.745L86.2258 328.745C85.845 328.745 85.4798 328.604 85.2106 328.352C84.9413 328.101 84.79 327.76 84.79 327.404Z" fill="white"/>
<path d="M84.79 334.376C84.79 334.021 84.9413 333.68 85.2106 333.428C85.4798 333.177 85.845 333.036 86.2258 333.036L91.3948 333.036C91.7756 333.036 92.1408 333.177 92.41 333.428C92.6793 333.68 92.8306 334.021 92.8306 334.376C92.8306 334.732 92.6793 335.073 92.41 335.324C92.1408 335.576 91.7756 335.717 91.3948 335.717L86.2258 335.717C85.845 335.717 85.4798 335.576 85.2106 335.324C84.9413 335.073 84.79 334.732 84.79 334.376Z" fill="white"/>
<path d="M84.79 341.348C84.79 340.992 84.9413 340.651 85.2106 340.4C85.4798 340.149 85.845 340.007 86.2258 340.007L91.3948 340.007C91.7756 340.007 92.1408 340.149 92.41 340.4C92.6793 340.651 92.8306 340.992 92.8306 341.348C92.8306 341.704 92.6793 342.045 92.41 342.296C92.1408 342.548 91.7756 342.689 91.3948 342.689L86.2258 342.689C85.845 342.689 85.4798 342.548 85.2106 342.296C84.9413 342.045 84.79 341.704 84.79 341.348Z" fill="white"/>
<path d="M84.79 354.219C84.79 353.863 84.9413 353.522 85.2106 353.271C85.4798 353.019 85.845 352.878 86.2258 352.878L91.3948 352.878C91.7756 352.878 92.1408 353.019 92.41 353.271C92.6793 353.522 92.8306 353.863 92.8306 354.219C92.8306 354.574 92.6793 354.915 92.41 355.167C92.1408 355.418 91.7756 355.56 91.3948 355.56L86.2258 355.56C85.845 355.56 85.4798 355.418 85.2106 355.167C84.9413 354.915 84.79 354.574 84.79 354.219Z" fill="white"/>
<path d="M84.79 361.191C84.79 360.835 84.9413 360.494 85.2106 360.243C85.4798 359.991 85.845 359.85 86.2258 359.85L91.3948 359.85C91.7756 359.85 92.1408 359.991 92.41 360.243C92.6793 360.494 92.8306 360.835 92.8306 361.191C92.8306 361.546 92.6793 361.887 92.41 362.139C92.1408 362.39 91.7756 362.531 91.3948 362.531L86.2258 362.531C85.845 362.531 85.4798 362.39 85.2106 362.139C84.9413 361.887 84.79 361.546 84.79 361.191Z" fill="white"/>
<path d="M84.79 368.162C84.79 367.807 84.9413 367.466 85.2106 367.214C85.4798 366.963 85.845 366.822 86.2258 366.822L91.3948 366.822C91.7756 366.822 92.1408 366.963 92.41 367.214C92.6793 367.466 92.8306 367.807 92.8306 368.162C92.8306 368.518 92.6793 368.859 92.41 369.11C92.1408 369.362 91.7756 369.503 91.3948 369.503L86.2258 369.503C85.845 369.503 85.4798 369.362 85.2106 369.11C84.9413 368.859 84.79 368.518 84.79 368.162Z" fill="white"/>
<path d="M84.79 375.134C84.79 374.779 84.9413 374.438 85.2106 374.186C85.4798 373.935 85.845 373.793 86.2258 373.793L91.3948 373.793C91.7756 373.793 92.1408 373.935 92.41 374.186C92.6793 374.438 92.8306 374.779 92.8306 375.134C92.8306 375.49 92.6793 375.831 92.41 376.082C92.1408 376.334 91.7756 376.475 91.3948 376.475L86.2258 376.475C85.845 376.475 85.4798 376.334 85.2106 376.082C84.9413 375.831 84.79 375.49 84.79 375.134Z" fill="white"/>
<path d="M84.79 389.078C84.79 388.722 84.9413 388.381 85.2106 388.13C85.4798 387.878 85.845 387.737 86.2258 387.737L91.3948 387.737C91.7756 387.737 92.1408 387.878 92.41 388.13C92.6793 388.381 92.8306 388.722 92.8306 389.078C92.8306 389.433 92.6793 389.774 92.41 390.026C92.1408 390.277 91.7756 390.419 91.3948 390.419L86.2258 390.419C85.845 390.419 85.4798 390.277 85.2106 390.026C84.9413 389.774 84.79 389.433 84.79 389.078Z" fill="white"/>
<path d="M84.79 396.049C84.79 395.694 84.9413 395.353 85.2106 395.101C85.4798 394.85 85.845 394.708 86.2258 394.708L91.3948 394.708C91.7756 394.708 92.1408 394.85 92.41 395.101C92.6793 395.353 92.8306 395.694 92.8306 396.049C92.8306 396.405 92.6793 396.746 92.41 396.997C92.1408 397.249 91.7756 397.39 91.3948 397.39L86.2258 397.39C85.845 397.39 85.4798 397.249 85.2106 396.997C84.9413 396.746 84.79 396.405 84.79 396.049Z" fill="white"/>
<path d="M84.79 403.021C84.79 402.666 84.9413 402.325 85.2106 402.073C85.4798 401.822 85.845 401.68 86.2258 401.68L91.3948 401.68C91.7756 401.68 92.1408 401.822 92.41 402.073C92.6793 402.325 92.8306 402.666 92.8306 403.021C92.8306 403.377 92.6793 403.718 92.41 403.969C92.1408 404.221 91.7756 404.362 91.3948 404.362L86.2258 404.362C85.845 404.362 85.4798 404.221 85.2106 403.969C84.9413 403.718 84.79 403.377 84.79 403.021Z" fill="white"/>
<path d="M84.79 409.993C84.79 409.637 84.9413 409.296 85.2106 409.045C85.4798 408.794 85.845 408.652 86.2258 408.652L91.3948 408.652C91.7756 408.652 92.1408 408.794 92.41 409.045C92.6793 409.296 92.8306 409.637 92.8306 409.993C92.8306 410.349 92.6793 410.69 92.41 410.941C92.1408 411.193 91.7756 411.334 91.3948 411.334L86.2258 411.334C85.845 411.334 85.4798 411.193 85.2106 410.941C84.9413 410.69 84.79 410.349 84.79 409.993Z" fill="white"/>
</svg>
