<svg width="258" height="466" viewBox="0 0 258 466" fill="none" xmlns="http://www.w3.org/2000/svg">
<path d="M257.325 464.228L257.325 1.28613L3.16359 1.28612L3.16357 464.228L257.325 464.228Z" fill="#60A963" fill-opacity="0.99"/>
<path d="M257.325 67.6412L257.325 1.28613L3.1636 1.28612L3.1636 67.6412L257.325 67.6412Z" fill="#47934B" fill-opacity="0.99"/>
<path d="M257.325 464.228L257.325 399.416L3.1636 399.416L3.1636 464.228L257.325 464.228Z" fill="#47934B" fill-opacity="0.99"/>
<path d="M0.982463 464.228L0.982483 1.28594C0.982483 0.944884 1.12756 0.617796 1.38583 0.376634C1.6441 0.135471 1.99438 -1.11765e-05 2.35963 -1.11606e-05L256.306 -6.01972e-08C256.672 -4.42319e-08 257.022 0.135483 257.28 0.376645C257.538 0.617808 257.684 0.944895 257.684 1.28595L257.684 464.228C257.684 464.569 257.538 464.896 257.28 465.137C257.022 465.379 256.672 465.514 256.306 465.514L2.35961 465.514C1.99436 465.514 1.64408 465.378 1.38581 465.137C1.12754 464.896 0.982463 464.569 0.982463 464.228ZM3.73679 2.57189L3.73677 462.942L254.929 462.942L254.929 2.5719L3.73679 2.57189Z" fill="white"/>
<path d="M0.982463 464.228L0.982483 1.28594C0.982483 0.944884 1.12756 0.617796 1.38583 0.376634C1.6441 0.135471 1.99438 -1.11765e-05 2.35963 -1.11606e-05L256.306 -6.01972e-08C256.672 -4.42319e-08 257.022 0.135483 257.28 0.376645C257.538 0.617808 257.684 0.944895 257.684 1.28595L257.684 464.228C257.684 464.569 257.538 464.896 257.28 465.137C257.022 465.379 256.672 465.514 256.306 465.514L2.35961 465.514C1.99436 465.514 1.64408 465.378 1.38581 465.137C1.12754 464.896 0.982463 464.569 0.982463 464.228ZM3.73679 2.57189L3.73677 462.942L254.929 462.942L254.929 2.5719L3.73679 2.57189Z" fill="white"/>
<path d="M0.632111 67.0544C0.632111 66.8732 0.777313 66.6994 1.03571 66.5712C1.29413 66.4431 1.64462 66.3711 2.01009 66.3711L256.106 66.3711C256.471 66.3711 256.822 66.4431 257.08 66.5712C257.338 66.6994 257.484 66.8732 257.484 67.0544C257.484 67.2356 257.338 67.4094 257.08 67.5376C256.822 67.6657 256.471 67.7377 256.106 67.7377L2.01009 67.7377C1.64462 67.7377 1.29413 67.6657 1.03571 67.5376C0.777313 67.4094 0.632111 67.2356 0.632111 67.0544Z" fill="white"/>
<path d="M0.632111 101.903C0.632111 101.722 0.777313 101.548 1.03571 101.42C1.29413 101.292 1.64462 101.22 2.01009 101.22L256.106 101.22C256.471 101.22 256.822 101.292 257.08 101.42C257.338 101.548 257.484 101.722 257.484 101.903C257.484 102.084 257.338 102.258 257.08 102.386C256.822 102.514 256.471 102.586 256.106 102.586L2.01009 102.586C1.64462 102.586 1.29413 102.514 1.03571 102.386C0.777313 102.258 0.632111 102.084 0.632111 101.903Z" fill="white"/>
<path d="M0.632111 135.385C0.632111 135.204 0.777313 135.03 1.03571 134.902C1.29413 134.774 1.64462 134.702 2.01009 134.702L256.106 134.702C256.471 134.702 256.822 134.774 257.08 134.902C257.338 135.03 257.484 135.204 257.484 135.385C257.484 135.567 257.338 135.74 257.08 135.869C256.822 135.997 256.471 136.069 256.106 136.069L2.01009 136.069C1.64462 136.069 1.29413 135.997 1.03571 135.869C0.777313 135.74 0.632111 135.567 0.632111 135.385Z" fill="white"/>
<path d="M0.632111 168.867C0.632111 168.686 0.777313 168.512 1.03571 168.384C1.29413 168.256 1.64462 168.184 2.01009 168.184L256.106 168.184C256.471 168.184 256.822 168.256 257.08 168.384C257.338 168.512 257.484 168.686 257.484 168.867C257.484 169.049 257.338 169.222 257.08 169.351C256.822 169.479 256.471 169.551 256.106 169.551L2.01009 169.551C1.64462 169.551 1.29413 169.479 1.03571 169.351C0.777313 169.222 0.632111 169.049 0.632111 168.867Z" fill="white"/>
<path d="M0.632111 201.666C0.632111 201.485 0.777313 201.311 1.03571 201.183C1.29413 201.055 1.64462 200.983 2.01009 200.983L256.106 200.983C256.471 200.983 256.822 201.055 257.08 201.183C257.338 201.311 257.484 201.485 257.484 201.666C257.484 201.847 257.338 202.021 257.08 202.149C256.822 202.278 256.471 202.35 256.106 202.35L2.01009 202.35C1.64462 202.35 1.29413 202.278 1.03571 202.149C0.777313 202.021 0.632111 201.847 0.632111 201.666Z" fill="white"/>
<path d="M0.632111 234.465C0.632111 234.284 0.777313 234.11 1.03571 233.982C1.29413 233.854 1.64462 233.782 2.01009 233.782L256.106 233.782C256.471 233.782 256.822 233.854 257.08 233.982C257.338 234.11 257.484 234.284 257.484 234.465C257.484 234.646 257.338 234.82 257.08 234.948C256.822 235.076 256.471 235.148 256.106 235.148L2.01009 235.148C1.64462 235.148 1.29413 235.076 1.03571 234.948C0.777313 234.82 0.632111 234.646 0.632111 234.465Z" fill="white"/>
<path d="M0.632111 267.947C0.632111 267.766 0.777313 267.592 1.03571 267.464C1.29413 267.336 1.64462 267.264 2.01009 267.264L256.106 267.264C256.471 267.264 256.822 267.336 257.08 267.464C257.338 267.592 257.484 267.766 257.484 267.947C257.484 268.129 257.338 268.303 257.08 268.431C256.822 268.559 256.471 268.631 256.106 268.631L2.01009 268.631C1.64462 268.631 1.29413 268.559 1.03571 268.431C0.777313 268.302 0.632111 268.129 0.632111 267.947Z" fill="white"/>
<path d="M0.632111 300.063C0.632111 299.881 0.777313 299.708 1.03571 299.58C1.29413 299.451 1.64462 299.379 2.01009 299.379L256.106 299.379C256.471 299.379 256.822 299.451 257.08 299.58C257.338 299.708 257.484 299.881 257.484 300.063C257.484 300.244 257.338 300.418 257.08 300.546C256.822 300.674 256.471 300.746 256.106 300.746L2.01009 300.746C1.64462 300.746 1.29413 300.674 1.03571 300.546C0.777313 300.418 0.632111 300.244 0.632111 300.063Z" fill="white"/>
<path d="M0.632111 332.178C0.632111 331.997 0.777313 331.823 1.03571 331.695C1.29413 331.567 1.64462 331.495 2.01009 331.495L256.106 331.495C256.471 331.495 256.822 331.567 257.08 331.695C257.338 331.823 257.484 331.997 257.484 332.178C257.484 332.36 257.338 332.533 257.08 332.662C256.822 332.79 256.471 332.862 256.106 332.862L2.01009 332.862C1.64462 332.862 1.29413 332.79 1.03571 332.662C0.777313 332.533 0.632111 332.36 0.632111 332.178Z" fill="white"/>
<path d="M0.632111 365.66C0.632111 365.479 0.777313 365.305 1.03571 365.177C1.29413 365.049 1.64462 364.977 2.01009 364.977L256.106 364.977C256.471 364.977 256.822 365.049 257.08 365.177C257.338 365.305 257.484 365.479 257.484 365.66C257.484 365.842 257.338 366.015 257.08 366.144C256.822 366.272 256.471 366.344 256.106 366.344L2.01009 366.344C1.64462 366.344 1.29413 366.272 1.03571 366.144C0.777313 366.015 0.632111 365.842 0.632111 365.66Z" fill="white"/>
<path d="M0.632111 399.826C0.632111 399.645 0.777313 399.471 1.03571 399.343C1.29413 399.215 1.64462 399.143 2.01009 399.143L256.106 399.143C256.471 399.143 256.822 399.215 257.08 399.343C257.338 399.471 257.484 399.645 257.484 399.826C257.484 400.008 257.338 400.181 257.08 400.31C256.822 400.438 256.471 400.51 256.106 400.51L2.01009 400.51C1.64462 400.51 1.29413 400.438 1.03571 400.31C0.777313 400.181 0.632111 400.008 0.632111 399.826Z" fill="white"/>
<path d="M109.502 432.85C109.502 432.509 109.647 432.182 109.905 431.941C110.164 431.7 110.514 431.564 110.879 431.564L148.888 431.564C149.254 431.564 149.604 431.7 149.862 431.941C150.121 432.182 150.266 432.509 150.266 432.85C150.266 433.191 150.121 433.519 149.862 433.76C149.604 434.001 149.254 434.136 148.888 434.136L110.879 434.136C110.514 434.136 110.164 434.001 109.905 433.76C109.647 433.519 109.502 433.191 109.502 432.85Z" fill="white"/>
<path d="M109.502 35.7493C109.502 35.4083 109.647 35.0812 109.905 34.84C110.164 34.5989 110.514 34.4634 110.879 34.4634L148.888 34.4634C149.254 34.4634 149.604 34.5989 149.862 34.84C150.121 35.0812 150.266 35.4083 150.266 35.7493C150.266 36.0904 150.121 36.4175 149.862 36.6586C149.604 36.8998 149.254 37.0353 148.888 37.0353L110.879 37.0353C110.514 37.0353 110.164 36.8998 109.905 36.6586C109.647 36.4175 109.502 36.0904 109.502 35.7493Z" fill="white"/>
<path d="M169.546 75.3568C169.546 75.0157 169.692 74.6886 169.95 74.4474C170.208 74.2063 170.558 74.0708 170.924 74.0708L175.881 74.0708C176.247 74.0708 176.597 74.2063 176.855 74.4474C177.113 74.6886 177.259 75.0157 177.259 75.3568C177.259 75.6978 177.113 76.0249 176.855 76.2661C176.597 76.5072 176.247 76.6427 175.881 76.6427L170.924 76.6427C170.558 76.6427 170.208 76.5072 169.95 76.2661C169.692 76.0249 169.546 75.6978 169.546 75.3568Z" fill="white"/>
<path d="M169.546 82.0438C169.546 81.7027 169.692 81.3756 169.95 81.1345C170.208 80.8933 170.558 80.7578 170.924 80.7578L175.881 80.7578C176.247 80.7578 176.597 80.8933 176.855 81.1345C177.113 81.3756 177.259 81.7027 177.259 82.0438C177.259 82.3848 177.113 82.7119 176.855 82.9531C176.597 83.1942 176.247 83.3297 175.881 83.3297L170.924 83.3297C170.558 83.3297 170.208 83.1942 169.95 82.9531C169.692 82.7119 169.546 82.3848 169.546 82.0438Z" fill="white"/>
<path d="M169.546 88.7303C169.546 88.3892 169.692 88.0621 169.95 87.821C170.208 87.5798 170.558 87.4443 170.924 87.4443L175.881 87.4443C176.247 87.4443 176.597 87.5798 176.855 87.821C177.113 88.0621 177.259 88.3892 177.259 88.7303C177.259 89.0713 177.113 89.3984 176.855 89.6396C176.597 89.8807 176.247 90.0162 175.881 90.0162L170.924 90.0162C170.558 90.0162 170.208 89.8807 169.95 89.6396C169.692 89.3984 169.546 89.0713 169.546 88.7303Z" fill="white"/>
<path d="M169.546 95.4178C169.546 95.0767 169.692 94.7496 169.95 94.5085C170.208 94.2673 170.558 94.1318 170.924 94.1318L175.881 94.1318C176.247 94.1318 176.597 94.2673 176.855 94.5085C177.113 94.7496 177.259 95.0767 177.259 95.4178C177.259 95.7588 177.113 96.0859 176.855 96.3271C176.597 96.5682 176.247 96.7037 175.881 96.7037L170.924 96.7037C170.558 96.7037 170.208 96.5682 169.95 96.3271C169.692 96.0859 169.546 95.7588 169.546 95.4178Z" fill="white"/>
<path d="M169.546 109.305C169.546 108.964 169.692 108.637 169.95 108.396C170.208 108.155 170.558 108.02 170.924 108.02L175.881 108.02C176.247 108.02 176.597 108.155 176.855 108.396C177.113 108.637 177.259 108.964 177.259 109.305C177.259 109.647 177.113 109.974 176.855 110.215C176.597 110.456 176.247 110.591 175.881 110.591L170.924 110.591C170.558 110.591 170.208 110.456 169.95 110.215C169.692 109.974 169.546 109.647 169.546 109.305Z" fill="white"/>
<path d="M169.546 115.993C169.546 115.652 169.692 115.325 169.95 115.084C170.208 114.843 170.558 114.707 170.924 114.707L175.881 114.707C176.247 114.707 176.597 114.843 176.855 115.084C177.113 115.325 177.259 115.652 177.259 115.993C177.259 116.334 177.113 116.661 176.855 116.902C176.597 117.143 176.247 117.279 175.881 117.279L170.924 117.279C170.558 117.279 170.208 117.143 169.95 116.902C169.692 116.661 169.546 116.334 169.546 115.993Z" fill="white"/>
<path d="M169.546 122.68C169.546 122.338 169.692 122.011 169.95 121.77C170.208 121.529 170.558 121.394 170.924 121.394L175.881 121.394C176.247 121.394 176.597 121.529 176.855 121.77C177.113 122.011 177.259 122.338 177.259 122.68C177.259 123.021 177.113 123.348 176.855 123.589C176.597 123.83 176.247 123.965 175.881 123.965L170.924 123.965C170.558 123.965 170.208 123.83 169.95 123.589C169.692 123.348 169.546 123.021 169.546 122.68Z" fill="white"/>
<path d="M169.546 129.367C169.546 129.025 169.692 128.698 169.95 128.457C170.208 128.216 170.558 128.081 170.924 128.081L175.881 128.081C176.247 128.081 176.597 128.216 176.855 128.457C177.113 128.698 177.259 129.025 177.259 129.367C177.259 129.708 177.113 130.035 176.855 130.276C176.597 130.517 176.247 130.652 175.881 130.652L170.924 130.652C170.558 130.652 170.208 130.517 169.95 130.276C169.692 130.035 169.546 129.708 169.546 129.367Z" fill="white"/>
<path d="M169.546 142.226C169.546 141.885 169.692 141.558 169.95 141.317C170.208 141.075 170.558 140.94 170.924 140.94L175.881 140.94C176.247 140.94 176.597 141.075 176.855 141.317C177.113 141.558 177.259 141.885 177.259 142.226C177.259 142.567 177.113 142.894 176.855 143.135C176.597 143.376 176.247 143.512 175.881 143.512L170.924 143.512C170.558 143.512 170.208 143.376 169.95 143.135C169.692 142.894 169.546 142.567 169.546 142.226Z" fill="white"/>
<path d="M169.546 148.913C169.546 148.572 169.692 148.245 169.95 148.004C170.208 147.763 170.558 147.627 170.924 147.627L175.881 147.627C176.247 147.627 176.597 147.763 176.855 148.004C177.113 148.245 177.259 148.572 177.259 148.913C177.259 149.254 177.113 149.582 176.855 149.823C176.597 150.064 176.247 150.199 175.881 150.199L170.924 150.199C170.558 150.199 170.208 150.064 169.95 149.823C169.692 149.582 169.546 149.254 169.546 148.913Z" fill="white"/>
<path d="M169.546 155.6C169.546 155.259 169.692 154.932 169.95 154.691C170.208 154.449 170.558 154.314 170.924 154.314L175.881 154.314C176.247 154.314 176.597 154.449 176.855 154.691C177.113 154.932 177.259 155.259 177.259 155.6C177.259 155.941 177.113 156.268 176.855 156.509C176.597 156.75 176.247 156.886 175.881 156.886L170.924 156.886C170.558 156.886 170.208 156.75 169.95 156.509C169.692 156.268 169.546 155.941 169.546 155.6Z" fill="white"/>
<path d="M169.546 162.286C169.546 161.945 169.692 161.618 169.95 161.377C170.208 161.136 170.558 161 170.924 161L175.881 161C176.247 161 176.597 161.136 176.855 161.377C177.113 161.618 177.259 161.945 177.259 162.286C177.259 162.627 177.113 162.955 176.855 163.196C176.597 163.437 176.247 163.572 175.881 163.572L170.924 163.572C170.558 163.572 170.208 163.437 169.95 163.196C169.692 162.955 169.546 162.627 169.546 162.286Z" fill="white"/>
<path d="M169.546 175.146C169.546 174.805 169.692 174.478 169.95 174.237C170.208 173.996 170.558 173.86 170.924 173.86L175.881 173.86C176.247 173.86 176.597 173.996 176.855 174.237C177.113 174.478 177.259 174.805 177.259 175.146C177.259 175.487 177.113 175.814 176.855 176.056C176.597 176.297 176.247 176.432 175.881 176.432L170.924 176.432C170.558 176.432 170.208 176.297 169.95 176.056C169.692 175.814 169.546 175.487 169.546 175.146Z" fill="white"/>
<path d="M169.546 181.833C169.546 181.492 169.692 181.165 169.95 180.924C170.208 180.683 170.558 180.547 170.924 180.547L175.881 180.547C176.247 180.547 176.597 180.683 176.855 180.924C177.113 181.165 177.259 181.492 177.259 181.833C177.259 182.174 177.113 182.501 176.855 182.743C176.597 182.984 176.247 183.119 175.881 183.119L170.924 183.119C170.558 183.119 170.208 182.984 169.95 182.743C169.692 182.501 169.546 182.174 169.546 181.833Z" fill="white"/>
<path d="M169.546 188.52C169.546 188.179 169.692 187.852 169.95 187.611C170.208 187.369 170.558 187.234 170.924 187.234L175.881 187.234C176.247 187.234 176.597 187.369 176.855 187.611C177.113 187.852 177.259 188.179 177.259 188.52C177.259 188.861 177.113 189.188 176.855 189.429C176.597 189.67 176.247 189.806 175.881 189.806L170.924 189.806C170.558 189.806 170.208 189.67 169.95 189.429C169.692 189.188 169.546 188.861 169.546 188.52Z" fill="white"/>
<path d="M169.546 195.207C169.546 194.866 169.692 194.539 169.95 194.298C170.208 194.056 170.558 193.921 170.924 193.921L175.881 193.921C176.247 193.921 176.597 194.056 176.855 194.298C177.113 194.539 177.259 194.866 177.259 195.207C177.259 195.548 177.113 195.875 176.855 196.116C176.597 196.357 176.247 196.493 175.881 196.493L170.924 196.493C170.558 196.493 170.208 196.357 169.95 196.116C169.692 195.875 169.546 195.548 169.546 195.207Z" fill="white"/>
<path d="M169.546 209.096C169.546 208.754 169.692 208.427 169.95 208.186C170.208 207.945 170.558 207.81 170.924 207.81L175.881 207.81C176.247 207.81 176.597 207.945 176.855 208.186C177.113 208.427 177.259 208.754 177.259 209.096C177.259 209.437 177.113 209.764 176.855 210.005C176.597 210.246 176.247 210.381 175.881 210.381L170.924 210.381C170.558 210.381 170.208 210.246 169.95 210.005C169.692 209.764 169.546 209.437 169.546 209.096Z" fill="white"/>
<path d="M169.546 215.782C169.546 215.441 169.692 215.114 169.95 214.873C170.208 214.632 170.558 214.496 170.924 214.496L175.881 214.496C176.247 214.496 176.597 214.632 176.855 214.873C177.113 215.114 177.259 215.441 177.259 215.782C177.259 216.123 177.113 216.45 176.855 216.691C176.597 216.933 176.247 217.068 175.881 217.068L170.924 217.068C170.558 217.068 170.208 216.933 169.95 216.691C169.692 216.45 169.546 216.123 169.546 215.782Z" fill="white"/>
<path d="M169.546 222.469C169.546 222.128 169.692 221.801 169.95 221.56C170.208 221.319 170.558 221.183 170.924 221.183L175.881 221.183C176.247 221.183 176.597 221.319 176.855 221.56C177.113 221.801 177.259 222.128 177.259 222.469C177.259 222.81 177.113 223.137 176.855 223.378C176.597 223.62 176.247 223.755 175.881 223.755L170.924 223.755C170.558 223.755 170.208 223.62 169.95 223.378C169.692 223.137 169.546 222.81 169.546 222.469Z" fill="white"/>
<path d="M169.546 229.156C169.546 228.815 169.692 228.488 169.95 228.247C170.208 228.006 170.558 227.87 170.924 227.87L175.881 227.87C176.247 227.87 176.597 228.006 176.855 228.247C177.113 228.488 177.259 228.815 177.259 229.156C177.259 229.497 177.113 229.824 176.855 230.065C176.597 230.307 176.247 230.442 175.881 230.442L170.924 230.442C170.558 230.442 170.208 230.307 169.95 230.065C169.692 229.824 169.546 229.497 169.546 229.156Z" fill="white"/>
<path d="M169.546 242.016C169.546 241.675 169.692 241.348 169.95 241.107C170.208 240.865 170.558 240.73 170.924 240.73L175.881 240.73C176.247 240.73 176.597 240.865 176.855 241.107C177.113 241.348 177.259 241.675 177.259 242.016C177.259 242.357 177.113 242.684 176.855 242.925C176.597 243.166 176.247 243.302 175.881 243.302L170.924 243.302C170.558 243.302 170.208 243.166 169.95 242.925C169.692 242.684 169.546 242.357 169.546 242.016Z" fill="white"/>
<path d="M169.546 248.702C169.546 248.361 169.692 248.034 169.95 247.793C170.208 247.552 170.558 247.417 170.924 247.417L175.881 247.417C176.247 247.417 176.597 247.552 176.855 247.793C177.113 248.034 177.259 248.361 177.259 248.702C177.259 249.044 177.113 249.371 176.855 249.612C176.597 249.853 176.247 249.988 175.881 249.988L170.924 249.988C170.558 249.988 170.208 249.853 169.95 249.612C169.692 249.371 169.546 249.044 169.546 248.702Z" fill="white"/>
<path d="M169.546 255.389C169.546 255.048 169.692 254.721 169.95 254.48C170.208 254.239 170.558 254.104 170.924 254.104L175.881 254.104C176.247 254.104 176.597 254.239 176.855 254.48C177.113 254.721 177.259 255.048 177.259 255.389C177.259 255.731 177.113 256.058 176.855 256.299C176.597 256.54 176.247 256.675 175.881 256.675L170.924 256.675C170.558 256.675 170.208 256.54 169.95 256.299C169.692 256.058 169.546 255.731 169.546 255.389Z" fill="white"/>
<path d="M169.546 262.076C169.546 261.735 169.692 261.408 169.95 261.167C170.208 260.926 170.558 260.791 170.924 260.791L175.881 260.791C176.247 260.791 176.597 260.926 176.855 261.167C177.113 261.408 177.259 261.735 177.259 262.076C177.259 262.418 177.113 262.745 176.855 262.986C176.597 263.227 176.247 263.362 175.881 263.362L170.924 263.362C170.558 263.362 170.208 263.227 169.95 262.986C169.692 262.745 169.546 262.418 169.546 262.076Z" fill="white"/>
<path d="M169.546 274.422C169.546 274.081 169.692 273.754 169.95 273.512C170.208 273.271 170.558 273.136 170.924 273.136L175.881 273.136C176.247 273.136 176.597 273.271 176.855 273.512C177.113 273.754 177.259 274.081 177.259 274.422C177.259 274.763 177.113 275.09 176.855 275.331C176.597 275.572 176.247 275.708 175.881 275.708L170.924 275.708C170.558 275.708 170.208 275.572 169.95 275.331C169.692 275.09 169.546 274.763 169.546 274.422Z" fill="white"/>
<path d="M169.546 281.108C169.546 280.767 169.692 280.44 169.95 280.199C170.208 279.958 170.558 279.822 170.924 279.822L175.881 279.822C176.247 279.822 176.597 279.958 176.855 280.199C177.113 280.44 177.259 280.767 177.259 281.108C177.259 281.449 177.113 281.776 176.855 282.018C176.597 282.259 176.247 282.394 175.881 282.394L170.924 282.394C170.558 282.394 170.208 282.259 169.95 282.018C169.692 281.776 169.546 281.449 169.546 281.108Z" fill="white"/>
<path d="M169.546 287.796C169.546 287.455 169.692 287.128 169.95 286.886C170.208 286.645 170.558 286.51 170.924 286.51L175.881 286.51C176.247 286.51 176.597 286.645 176.855 286.886C177.113 287.128 177.259 287.455 177.259 287.796C177.259 288.137 177.113 288.464 176.855 288.705C176.597 288.946 176.247 289.082 175.881 289.082L170.924 289.082C170.558 289.082 170.208 288.946 169.95 288.705C169.692 288.464 169.546 288.137 169.546 287.796Z" fill="white"/>
<path d="M169.546 294.483C169.546 294.142 169.692 293.815 169.95 293.573C170.208 293.332 170.558 293.197 170.924 293.197L175.881 293.197C176.247 293.197 176.597 293.332 176.855 293.573C177.113 293.815 177.259 294.142 177.259 294.483C177.259 294.824 177.113 295.151 176.855 295.392C176.597 295.633 176.247 295.769 175.881 295.769L170.924 295.769C170.558 295.769 170.208 295.633 169.95 295.392C169.692 295.151 169.546 294.824 169.546 294.483Z" fill="white"/>
<path d="M169.546 307.343C169.546 307.002 169.692 306.674 169.95 306.433C170.208 306.192 170.558 306.057 170.924 306.057L175.881 306.057C176.247 306.057 176.597 306.192 176.855 306.433C177.113 306.674 177.259 307.002 177.259 307.343C177.259 307.684 177.113 308.011 176.855 308.252C176.597 308.493 176.247 308.629 175.881 308.629L170.924 308.629C170.558 308.629 170.208 308.493 169.95 308.252C169.692 308.011 169.546 307.684 169.546 307.343Z" fill="white"/>
<path d="M169.546 314.029C169.546 313.688 169.692 313.36 169.95 313.119C170.208 312.878 170.558 312.743 170.924 312.743L175.881 312.743C176.247 312.743 176.597 312.878 176.855 313.119C177.113 313.36 177.259 313.688 177.259 314.029C177.259 314.37 177.113 314.697 176.855 314.938C176.597 315.179 176.247 315.315 175.881 315.315L170.924 315.315C170.558 315.315 170.208 315.179 169.95 314.938C169.692 314.697 169.546 314.37 169.546 314.029Z" fill="white"/>
<path d="M169.546 320.716C169.546 320.375 169.692 320.048 169.95 319.807C170.208 319.566 170.558 319.43 170.924 319.43L175.881 319.43C176.247 319.43 176.597 319.566 176.855 319.807C177.113 320.048 177.259 320.375 177.259 320.716C177.259 321.057 177.113 321.384 176.855 321.625C176.597 321.867 176.247 322.002 175.881 322.002L170.924 322.002C170.558 322.002 170.208 321.867 169.95 321.625C169.692 321.384 169.546 321.057 169.546 320.716Z" fill="white"/>
<path d="M169.546 327.403C169.546 327.062 169.692 326.735 169.95 326.494C170.208 326.253 170.558 326.117 170.924 326.117L175.881 326.117C176.247 326.117 176.597 326.253 176.855 326.494C177.113 326.735 177.259 327.062 177.259 327.403C177.259 327.744 177.113 328.071 176.855 328.312C176.597 328.554 176.247 328.689 175.881 328.689L170.924 328.689C170.558 328.689 170.208 328.554 169.95 328.312C169.692 328.071 169.546 327.744 169.546 327.403Z" fill="white"/>
<path d="M169.546 339.748C169.546 339.407 169.692 339.08 169.95 338.839C170.208 338.597 170.558 338.462 170.924 338.462L175.881 338.462C176.247 338.462 176.597 338.597 176.855 338.839C177.113 339.08 177.259 339.407 177.259 339.748C177.259 340.089 177.113 340.416 176.855 340.657C176.597 340.898 176.247 341.034 175.881 341.034L170.924 341.034C170.558 341.034 170.208 340.898 169.95 340.657C169.692 340.416 169.546 340.089 169.546 339.748Z" fill="white"/>
<path d="M169.546 346.434C169.546 346.093 169.692 345.766 169.95 345.525C170.208 345.284 170.558 345.148 170.924 345.148L175.881 345.148C176.247 345.148 176.597 345.284 176.855 345.525C177.113 345.766 177.259 346.093 177.259 346.434C177.259 346.775 177.113 347.103 176.855 347.344C176.597 347.585 176.247 347.72 175.881 347.72L170.924 347.72C170.558 347.72 170.208 347.585 169.95 347.344C169.692 347.103 169.546 346.775 169.546 346.434Z" fill="white"/>
<path d="M169.546 353.122C169.546 352.781 169.692 352.454 169.95 352.213C170.208 351.971 170.558 351.836 170.924 351.836L175.881 351.836C176.247 351.836 176.597 351.971 176.855 352.213C177.113 352.454 177.259 352.781 177.259 353.122C177.259 353.463 177.113 353.79 176.855 354.031C176.597 354.272 176.247 354.408 175.881 354.408L170.924 354.408C170.558 354.408 170.208 354.272 169.95 354.031C169.692 353.79 169.546 353.463 169.546 353.122Z" fill="white"/>
<path d="M169.546 359.809C169.546 359.468 169.692 359.141 169.95 358.9C170.208 358.658 170.558 358.523 170.924 358.523L175.881 358.523C176.247 358.523 176.597 358.658 176.855 358.9C177.113 359.141 177.259 359.468 177.259 359.809C177.259 360.15 177.113 360.477 176.855 360.718C176.597 360.959 176.247 361.095 175.881 361.095L170.924 361.095C170.558 361.095 170.208 360.959 169.95 360.718C169.692 360.477 169.546 360.15 169.546 359.809Z" fill="white"/>
<path d="M169.546 373.183C169.546 372.842 169.692 372.515 169.95 372.274C170.208 372.032 170.558 371.897 170.924 371.897L175.881 371.897C176.247 371.897 176.597 372.032 176.855 372.274C177.113 372.515 177.259 372.842 177.259 373.183C177.259 373.524 177.113 373.851 176.855 374.092C176.597 374.333 176.247 374.469 175.881 374.469L170.924 374.469C170.558 374.469 170.208 374.333 169.95 374.092C169.692 373.851 169.546 373.524 169.546 373.183Z" fill="white"/>
<path d="M169.546 379.869C169.546 379.528 169.692 379.201 169.95 378.96C170.208 378.719 170.558 378.583 170.924 378.583L175.881 378.583C176.247 378.583 176.597 378.719 176.855 378.96C177.113 379.201 177.259 379.528 177.259 379.869C177.259 380.211 177.113 380.538 176.855 380.779C176.597 381.02 176.247 381.155 175.881 381.155L170.924 381.155C170.558 381.155 170.208 381.02 169.95 380.779C169.692 380.538 169.546 380.211 169.546 379.869Z" fill="white"/>
<path d="M169.546 386.556C169.546 386.215 169.692 385.888 169.95 385.647C170.208 385.406 170.558 385.271 170.924 385.271L175.881 385.271C176.247 385.271 176.597 385.406 176.855 385.647C177.113 385.888 177.259 386.215 177.259 386.556C177.259 386.898 177.113 387.225 176.855 387.466C176.597 387.707 176.247 387.842 175.881 387.842L170.924 387.842C170.558 387.842 170.208 387.707 169.95 387.466C169.692 387.225 169.546 386.898 169.546 386.556Z" fill="white"/>
<path d="M169.546 393.243C169.546 392.902 169.692 392.575 169.95 392.334C170.208 392.093 170.558 391.958 170.924 391.958L175.881 391.958C176.247 391.958 176.597 392.093 176.855 392.334C177.113 392.575 177.259 392.902 177.259 393.243C177.259 393.585 177.113 393.912 176.855 394.153C176.597 394.394 176.247 394.529 175.881 394.529L170.924 394.529C170.558 394.529 170.208 394.394 169.95 394.153C169.692 393.912 169.546 393.585 169.546 393.243Z" fill="white"/>
<path d="M81.9584 75.3568C81.9584 75.0157 82.1035 74.6886 82.3617 74.4474C82.62 74.2063 82.9703 74.0708 83.3355 74.0708L88.2933 74.0708C88.6585 74.0708 89.0088 74.2063 89.267 74.4474C89.5253 74.6886 89.6704 75.0157 89.6704 75.3568C89.6704 75.6978 89.5253 76.0249 89.267 76.2661C89.0088 76.5072 88.6585 76.6427 88.2933 76.6427L83.3355 76.6427C82.9703 76.6427 82.62 76.5072 82.3617 76.2661C82.1035 76.0249 81.9584 75.6978 81.9584 75.3568Z" fill="white"/>
<path d="M81.9584 82.0438C81.9584 81.7027 82.1035 81.3756 82.3617 81.1345C82.62 80.8933 82.9703 80.7578 83.3355 80.7578L88.2933 80.7578C88.6585 80.7578 89.0088 80.8933 89.267 81.1345C89.5253 81.3756 89.6704 81.7027 89.6704 82.0438C89.6704 82.3848 89.5253 82.7119 89.267 82.9531C89.0088 83.1942 88.6585 83.3297 88.2933 83.3297L83.3355 83.3297C82.9703 83.3297 82.62 83.1942 82.3617 82.9531C82.1035 82.7119 81.9584 82.3848 81.9584 82.0438Z" fill="white"/>
<path d="M81.9584 88.7303C81.9584 88.3892 82.1035 88.0621 82.3617 87.821C82.62 87.5798 82.9703 87.4443 83.3355 87.4443L88.2933 87.4443C88.6585 87.4443 89.0088 87.5798 89.267 87.821C89.5253 88.0621 89.6704 88.3892 89.6704 88.7303C89.6704 89.0713 89.5253 89.3984 89.267 89.6396C89.0088 89.8807 88.6585 90.0162 88.2933 90.0162L83.3355 90.0162C82.9703 90.0162 82.62 89.8807 82.3617 89.6396C82.1035 89.3984 81.9584 89.0713 81.9584 88.7303Z" fill="white"/>
<path d="M81.9584 95.4178C81.9584 95.0767 82.1035 94.7496 82.3617 94.5085C82.62 94.2673 82.9703 94.1318 83.3355 94.1318L88.2933 94.1318C88.6585 94.1318 89.0088 94.2673 89.267 94.5085C89.5253 94.7496 89.6704 95.0767 89.6704 95.4178C89.6704 95.7588 89.5253 96.0859 89.267 96.3271C89.0088 96.5682 88.6585 96.7037 88.2933 96.7037L83.3355 96.7037C82.9703 96.7037 82.62 96.5682 82.3617 96.3271C82.1035 96.0859 81.9584 95.7588 81.9584 95.4178Z" fill="white"/>
<path d="M81.9584 109.305C81.9584 108.964 82.1035 108.637 82.3617 108.396C82.62 108.155 82.9703 108.02 83.3355 108.02L88.2933 108.02C88.6585 108.02 89.0088 108.155 89.267 108.396C89.5253 108.637 89.6704 108.964 89.6704 109.305C89.6704 109.647 89.5253 109.974 89.267 110.215C89.0088 110.456 88.6585 110.591 88.2933 110.591L83.3355 110.591C82.9703 110.591 82.62 110.456 82.3617 110.215C82.1035 109.974 81.9584 109.647 81.9584 109.305Z" fill="white"/>
<path d="M81.9584 115.993C81.9584 115.652 82.1035 115.325 82.3617 115.084C82.62 114.843 82.9703 114.707 83.3355 114.707L88.2933 114.707C88.6585 114.707 89.0088 114.843 89.267 115.084C89.5253 115.325 89.6704 115.652 89.6704 115.993C89.6704 116.334 89.5253 116.661 89.267 116.902C89.0088 117.143 88.6585 117.279 88.2933 117.279L83.3355 117.279C82.9703 117.279 82.62 117.143 82.3617 116.902C82.1035 116.661 81.9584 116.334 81.9584 115.993Z" fill="white"/>
<path d="M81.9584 122.68C81.9584 122.338 82.1035 122.011 82.3617 121.77C82.62 121.529 82.9703 121.394 83.3355 121.394L88.2933 121.394C88.6585 121.394 89.0088 121.529 89.267 121.77C89.5253 122.011 89.6704 122.338 89.6704 122.68C89.6704 123.021 89.5253 123.348 89.267 123.589C89.0088 123.83 88.6585 123.965 88.2933 123.965L83.3355 123.965C82.9703 123.965 82.62 123.83 82.3617 123.589C82.1035 123.348 81.9584 123.021 81.9584 122.68Z" fill="white"/>
<path d="M81.9584 129.367C81.9584 129.025 82.1035 128.698 82.3617 128.457C82.62 128.216 82.9703 128.081 83.3355 128.081L88.2933 128.081C88.6585 128.081 89.0088 128.216 89.267 128.457C89.5253 128.698 89.6704 129.025 89.6704 129.367C89.6704 129.708 89.5253 130.035 89.267 130.276C89.0088 130.517 88.6585 130.652 88.2933 130.652L83.3355 130.652C82.9703 130.652 82.62 130.517 82.3617 130.276C82.1035 130.035 81.9584 129.708 81.9584 129.367Z" fill="white"/>
<path d="M81.9584 142.226C81.9584 141.885 82.1035 141.558 82.3617 141.317C82.62 141.075 82.9703 140.94 83.3355 140.94L88.2933 140.94C88.6585 140.94 89.0088 141.075 89.267 141.317C89.5253 141.558 89.6704 141.885 89.6704 142.226C89.6704 142.567 89.5253 142.894 89.267 143.135C89.0088 143.376 88.6585 143.512 88.2933 143.512L83.3355 143.512C82.9703 143.512 82.62 143.376 82.3617 143.135C82.1035 142.894 81.9584 142.567 81.9584 142.226Z" fill="white"/>
<path d="M81.9584 148.913C81.9584 148.572 82.1035 148.245 82.3617 148.004C82.62 147.763 82.9703 147.627 83.3355 147.627L88.2933 147.627C88.6585 147.627 89.0088 147.763 89.267 148.004C89.5253 148.245 89.6704 148.572 89.6704 148.913C89.6704 149.254 89.5253 149.582 89.267 149.823C89.0088 150.064 88.6585 150.199 88.2933 150.199L83.3355 150.199C82.9703 150.199 82.62 150.064 82.3617 149.823C82.1035 149.582 81.9584 149.254 81.9584 148.913Z" fill="white"/>
<path d="M81.9584 155.6C81.9584 155.259 82.1035 154.932 82.3617 154.691C82.62 154.449 82.9703 154.314 83.3355 154.314L88.2933 154.314C88.6585 154.314 89.0088 154.449 89.267 154.691C89.5253 154.932 89.6704 155.259 89.6704 155.6C89.6704 155.941 89.5253 156.268 89.267 156.509C89.0088 156.75 88.6585 156.886 88.2933 156.886L83.3355 156.886C82.9703 156.886 82.62 156.75 82.3617 156.509C82.1035 156.268 81.9584 155.941 81.9584 155.6Z" fill="white"/>
<path d="M81.9584 162.286C81.9584 161.945 82.1035 161.618 82.3617 161.377C82.62 161.136 82.9703 161 83.3355 161L88.2933 161C88.6585 161 89.0088 161.136 89.267 161.377C89.5253 161.618 89.6704 161.945 89.6704 162.286C89.6704 162.627 89.5253 162.955 89.267 163.196C89.0088 163.437 88.6585 163.572 88.2933 163.572L83.3355 163.572C82.9703 163.572 82.62 163.437 82.3617 163.196C82.1035 162.955 81.9584 162.627 81.9584 162.286Z" fill="white"/>
<path d="M81.9584 175.146C81.9584 174.805 82.1035 174.478 82.3617 174.237C82.62 173.996 82.9703 173.86 83.3355 173.86L88.2933 173.86C88.6585 173.86 89.0088 173.996 89.267 174.237C89.5253 174.478 89.6704 174.805 89.6704 175.146C89.6704 175.487 89.5253 175.814 89.267 176.056C89.0088 176.297 88.6585 176.432 88.2933 176.432L83.3355 176.432C82.9703 176.432 82.62 176.297 82.3617 176.056C82.1035 175.814 81.9584 175.487 81.9584 175.146Z" fill="white"/>
<path d="M81.9584 181.833C81.9584 181.492 82.1035 181.165 82.3617 180.924C82.62 180.683 82.9703 180.547 83.3355 180.547L88.2933 180.547C88.6585 180.547 89.0088 180.683 89.267 180.924C89.5253 181.165 89.6704 181.492 89.6704 181.833C89.6704 182.174 89.5253 182.501 89.267 182.743C89.0088 182.984 88.6585 183.119 88.2933 183.119L83.3355 183.119C82.9703 183.119 82.62 182.984 82.3617 182.743C82.1035 182.501 81.9584 182.174 81.9584 181.833Z" fill="white"/>
<path d="M81.9584 188.52C81.9584 188.179 82.1035 187.852 82.3617 187.611C82.62 187.37 82.9703 187.234 83.3355 187.234L88.2933 187.234C88.6585 187.234 89.0088 187.37 89.267 187.611C89.5253 187.852 89.6704 188.179 89.6704 188.52C89.6704 188.861 89.5253 189.188 89.267 189.43C89.0088 189.671 88.6585 189.806 88.2933 189.806L83.3355 189.806C82.9703 189.806 82.62 189.671 82.3617 189.43C82.1035 189.188 81.9584 188.861 81.9584 188.52Z" fill="white"/>
<path d="M81.9584 195.207C81.9584 194.866 82.1035 194.539 82.3617 194.298C82.62 194.056 82.9703 193.921 83.3355 193.921L88.2933 193.921C88.6585 193.921 89.0088 194.056 89.267 194.298C89.5253 194.539 89.6704 194.866 89.6704 195.207C89.6704 195.548 89.5253 195.875 89.267 196.116C89.0088 196.357 88.6585 196.493 88.2933 196.493L83.3355 196.493C82.9703 196.493 82.62 196.357 82.3617 196.116C82.1035 195.875 81.9584 195.548 81.9584 195.207Z" fill="white"/>
<path d="M81.9584 209.096C81.9584 208.754 82.1035 208.427 82.3617 208.186C82.62 207.945 82.9703 207.81 83.3355 207.81L88.2933 207.81C88.6585 207.81 89.0088 207.945 89.267 208.186C89.5253 208.427 89.6704 208.754 89.6704 209.096C89.6704 209.437 89.5253 209.764 89.267 210.005C89.0088 210.246 88.6585 210.381 88.2933 210.381L83.3355 210.381C82.9703 210.381 82.62 210.246 82.3617 210.005C82.1035 209.764 81.9584 209.437 81.9584 209.096Z" fill="white"/>
<path d="M81.9584 215.782C81.9584 215.441 82.1035 215.114 82.3617 214.873C82.62 214.632 82.9703 214.496 83.3355 214.496L88.2933 214.496C88.6585 214.496 89.0088 214.632 89.267 214.873C89.5253 215.114 89.6704 215.441 89.6704 215.782C89.6704 216.123 89.5253 216.45 89.267 216.691C89.0088 216.933 88.6585 217.068 88.2933 217.068L83.3355 217.068C82.9703 217.068 82.62 216.933 82.3617 216.691C82.1035 216.45 81.9584 216.123 81.9584 215.782Z" fill="white"/>
<path d="M81.9584 222.469C81.9584 222.128 82.1035 221.801 82.3617 221.56C82.62 221.319 82.9703 221.183 83.3355 221.183L88.2933 221.183C88.6585 221.183 89.0088 221.319 89.267 221.56C89.5253 221.801 89.6704 222.128 89.6704 222.469C89.6704 222.81 89.5253 223.137 89.267 223.378C89.0088 223.62 88.6585 223.755 88.2933 223.755L83.3355 223.755C82.9703 223.755 82.62 223.62 82.3617 223.378C82.1035 223.137 81.9584 222.81 81.9584 222.469Z" fill="white"/>
<path d="M81.9584 229.156C81.9584 228.815 82.1035 228.488 82.3617 228.247C82.62 228.006 82.9703 227.87 83.3355 227.87L88.2933 227.87C88.6585 227.87 89.0088 228.006 89.267 228.247C89.5253 228.488 89.6704 228.815 89.6704 229.156C89.6704 229.497 89.5253 229.824 89.267 230.065C89.0088 230.307 88.6585 230.442 88.2933 230.442L83.3355 230.442C82.9703 230.442 82.62 230.307 82.3617 230.065C82.1035 229.824 81.9584 229.497 81.9584 229.156Z" fill="white"/>
<path d="M81.9584 242.016C81.9584 241.675 82.1035 241.348 82.3617 241.107C82.62 240.865 82.9703 240.73 83.3355 240.73L88.2933 240.73C88.6585 240.73 89.0088 240.865 89.267 241.107C89.5253 241.348 89.6704 241.675 89.6704 242.016C89.6704 242.357 89.5253 242.684 89.267 242.925C89.0088 243.166 88.6585 243.302 88.2933 243.302L83.3355 243.302C82.9703 243.302 82.62 243.166 82.3617 242.925C82.1035 242.684 81.9584 242.357 81.9584 242.016Z" fill="white"/>
<path d="M81.9584 248.702C81.9584 248.361 82.1035 248.034 82.3617 247.793C82.62 247.552 82.9703 247.417 83.3355 247.417L88.2933 247.417C88.6585 247.417 89.0088 247.552 89.267 247.793C89.5253 248.034 89.6704 248.361 89.6704 248.702C89.6704 249.044 89.5253 249.371 89.267 249.612C89.0088 249.853 88.6585 249.988 88.2933 249.988L83.3355 249.988C82.9703 249.988 82.62 249.853 82.3617 249.612C82.1035 249.371 81.9584 249.044 81.9584 248.702Z" fill="white"/>
<path d="M81.9584 255.389C81.9584 255.048 82.1035 254.721 82.3617 254.48C82.62 254.239 82.9703 254.104 83.3355 254.104L88.2933 254.104C88.6585 254.104 89.0088 254.239 89.267 254.48C89.5253 254.721 89.6704 255.048 89.6704 255.389C89.6704 255.731 89.5253 256.058 89.267 256.299C89.0088 256.54 88.6585 256.675 88.2933 256.675L83.3355 256.675C82.9703 256.675 82.62 256.54 82.3617 256.299C82.1035 256.058 81.9584 255.731 81.9584 255.389Z" fill="white"/>
<path d="M81.9584 262.076C81.9584 261.735 82.1035 261.408 82.3617 261.167C82.62 260.926 82.9703 260.791 83.3355 260.791L88.2933 260.791C88.6585 260.791 89.0088 260.926 89.267 261.167C89.5253 261.408 89.6704 261.735 89.6704 262.076C89.6704 262.418 89.5253 262.745 89.267 262.986C89.0088 263.227 88.6585 263.362 88.2933 263.362L83.3355 263.362C82.9703 263.362 82.62 263.227 82.3617 262.986C82.1035 262.745 81.9584 262.418 81.9584 262.076Z" fill="white"/>
<path d="M81.9584 274.422C81.9584 274.081 82.1035 273.754 82.3617 273.512C82.62 273.271 82.9703 273.136 83.3355 273.136L88.2933 273.136C88.6585 273.136 89.0088 273.271 89.267 273.512C89.5253 273.754 89.6704 274.081 89.6704 274.422C89.6704 274.763 89.5253 275.09 89.267 275.331C89.0088 275.572 88.6585 275.708 88.2933 275.708L83.3355 275.708C82.9703 275.708 82.62 275.572 82.3617 275.331C82.1035 275.09 81.9584 274.763 81.9584 274.422Z" fill="white"/>
<path d="M81.9584 281.108C81.9584 280.767 82.1035 280.44 82.3617 280.199C82.62 279.958 82.9703 279.822 83.3355 279.822L88.2933 279.822C88.6585 279.822 89.0088 279.958 89.267 280.199C89.5253 280.44 89.6704 280.767 89.6704 281.108C89.6704 281.449 89.5253 281.776 89.267 282.018C89.0088 282.259 88.6585 282.394 88.2933 282.394L83.3355 282.394C82.9703 282.394 82.62 282.259 82.3617 282.018C82.1035 281.776 81.9584 281.449 81.9584 281.108Z" fill="white"/>
<path d="M81.9584 287.796C81.9584 287.455 82.1035 287.128 82.3617 286.886C82.62 286.645 82.9703 286.51 83.3355 286.51L88.2933 286.51C88.6585 286.51 89.0088 286.645 89.267 286.886C89.5253 287.128 89.6704 287.455 89.6704 287.796C89.6704 288.137 89.5253 288.464 89.267 288.705C89.0088 288.946 88.6585 289.082 88.2933 289.082L83.3355 289.082C82.9703 289.082 82.62 288.946 82.3617 288.705C82.1035 288.464 81.9584 288.137 81.9584 287.796Z" fill="white"/>
<path d="M81.9584 294.483C81.9584 294.142 82.1035 293.815 82.3617 293.573C82.62 293.332 82.9703 293.197 83.3355 293.197L88.2933 293.197C88.6585 293.197 89.0088 293.332 89.267 293.573C89.5253 293.815 89.6704 294.142 89.6704 294.483C89.6704 294.824 89.5253 295.151 89.267 295.392C89.0088 295.633 88.6585 295.769 88.2933 295.769L83.3355 295.769C82.9703 295.769 82.62 295.633 82.3617 295.392C82.1035 295.151 81.9584 294.824 81.9584 294.483Z" fill="white"/>
<path d="M81.9584 307.343C81.9584 307.002 82.1035 306.674 82.3617 306.433C82.62 306.192 82.9703 306.057 83.3355 306.057L88.2933 306.057C88.6585 306.057 89.0088 306.192 89.267 306.433C89.5253 306.674 89.6704 307.002 89.6704 307.343C89.6704 307.684 89.5253 308.011 89.267 308.252C89.0088 308.493 88.6585 308.629 88.2933 308.629L83.3355 308.629C82.9703 308.629 82.62 308.493 82.3617 308.252C82.1035 308.011 81.9584 307.684 81.9584 307.343Z" fill="white"/>
<path d="M81.9584 314.029C81.9584 313.688 82.1035 313.36 82.3617 313.119C82.62 312.878 82.9703 312.743 83.3355 312.743L88.2933 312.743C88.6585 312.743 89.0088 312.878 89.267 313.119C89.5253 313.36 89.6704 313.688 89.6704 314.029C89.6704 314.37 89.5253 314.697 89.267 314.938C89.0088 315.179 88.6585 315.315 88.2933 315.315L83.3355 315.315C82.9703 315.315 82.62 315.179 82.3617 314.938C82.1035 314.697 81.9584 314.37 81.9584 314.029Z" fill="white"/>
<path d="M81.9584 320.716C81.9584 320.375 82.1035 320.048 82.3617 319.807C82.62 319.566 82.9703 319.43 83.3355 319.43L88.2933 319.43C88.6585 319.43 89.0088 319.566 89.267 319.807C89.5253 320.048 89.6704 320.375 89.6704 320.716C89.6704 321.057 89.5253 321.384 89.267 321.625C89.0088 321.867 88.6585 322.002 88.2933 322.002L83.3355 322.002C82.9703 322.002 82.62 321.867 82.3617 321.625C82.1035 321.384 81.9584 321.057 81.9584 320.716Z" fill="white"/>
<path d="M81.9584 327.403C81.9584 327.062 82.1035 326.735 82.3617 326.494C82.62 326.253 82.9703 326.117 83.3355 326.117L88.2933 326.117C88.6585 326.117 89.0088 326.253 89.267 326.494C89.5253 326.735 89.6704 327.062 89.6704 327.403C89.6704 327.744 89.5253 328.071 89.267 328.312C89.0088 328.554 88.6585 328.689 88.2933 328.689L83.3355 328.689C82.9703 328.689 82.62 328.554 82.3617 328.312C82.1035 328.071 81.9584 327.744 81.9584 327.403Z" fill="white"/>
<path d="M81.9584 339.748C81.9584 339.407 82.1035 339.08 82.3617 338.839C82.62 338.597 82.9703 338.462 83.3355 338.462L88.2933 338.462C88.6585 338.462 89.0088 338.597 89.267 338.839C89.5253 339.08 89.6704 339.407 89.6704 339.748C89.6704 340.089 89.5253 340.416 89.267 340.657C89.0088 340.898 88.6585 341.034 88.2933 341.034L83.3355 341.034C82.9703 341.034 82.62 340.898 82.3617 340.657C82.1035 340.416 81.9584 340.089 81.9584 339.748Z" fill="white"/>
<path d="M81.9584 346.434C81.9584 346.093 82.1035 345.766 82.3617 345.525C82.62 345.284 82.9703 345.148 83.3355 345.148L88.2933 345.148C88.6585 345.148 89.0088 345.284 89.267 345.525C89.5253 345.766 89.6704 346.093 89.6704 346.434C89.6704 346.775 89.5253 347.103 89.267 347.344C89.0088 347.585 88.6585 347.72 88.2933 347.72L83.3355 347.72C82.9703 347.72 82.62 347.585 82.3617 347.344C82.1035 347.103 81.9584 346.775 81.9584 346.434Z" fill="white"/>
<path d="M81.9584 353.122C81.9584 352.781 82.1035 352.454 82.3617 352.213C82.62 351.971 82.9703 351.836 83.3355 351.836L88.2933 351.836C88.6585 351.836 89.0088 351.971 89.267 352.213C89.5253 352.454 89.6704 352.781 89.6704 353.122C89.6704 353.463 89.5253 353.79 89.267 354.031C89.0088 354.272 88.6585 354.408 88.2933 354.408L83.3355 354.408C82.9703 354.408 82.62 354.272 82.3617 354.031C82.1035 353.79 81.9584 353.463 81.9584 353.122Z" fill="white"/>
<path d="M81.9584 359.809C81.9584 359.468 82.1035 359.141 82.3617 358.9C82.62 358.658 82.9703 358.523 83.3355 358.523L88.2933 358.523C88.6585 358.523 89.0088 358.658 89.267 358.9C89.5253 359.141 89.6704 359.468 89.6704 359.809C89.6704 360.15 89.5253 360.477 89.267 360.718C89.0088 360.959 88.6585 361.095 88.2933 361.095L83.3355 361.095C82.9703 361.095 82.62 360.959 82.3617 360.718C82.1035 360.477 81.9584 360.15 81.9584 359.809Z" fill="white"/>
<path d="M81.9584 373.183C81.9584 372.842 82.1035 372.515 82.3617 372.274C82.62 372.032 82.9703 371.897 83.3355 371.897L88.2933 371.897C88.6585 371.897 89.0088 372.032 89.267 372.274C89.5253 372.515 89.6704 372.842 89.6704 373.183C89.6704 373.524 89.5253 373.851 89.267 374.092C89.0088 374.333 88.6585 374.469 88.2933 374.469L83.3355 374.469C82.9703 374.469 82.62 374.333 82.3617 374.092C82.1035 373.851 81.9584 373.524 81.9584 373.183Z" fill="white"/>
<path d="M81.9584 379.869C81.9584 379.528 82.1035 379.201 82.3617 378.96C82.62 378.719 82.9703 378.583 83.3355 378.583L88.2933 378.583C88.6585 378.583 89.0088 378.719 89.267 378.96C89.5253 379.201 89.6704 379.528 89.6704 379.869C89.6704 380.211 89.5253 380.538 89.267 380.779C89.0088 381.02 88.6585 381.155 88.2933 381.155L83.3355 381.155C82.9703 381.155 82.62 381.02 82.3617 380.779C82.1035 380.538 81.9584 380.211 81.9584 379.869Z" fill="white"/>
<path d="M81.9584 386.556C81.9584 386.215 82.1035 385.888 82.3617 385.647C82.62 385.406 82.9703 385.271 83.3355 385.271L88.2933 385.271C88.6585 385.271 89.0088 385.406 89.267 385.647C89.5253 385.888 89.6704 386.215 89.6704 386.556C89.6704 386.898 89.5253 387.225 89.267 387.466C89.0088 387.707 88.6585 387.842 88.2933 387.842L83.3355 387.842C82.9703 387.842 82.62 387.707 82.3617 387.466C82.1035 387.225 81.9584 386.898 81.9584 386.556Z" fill="white"/>
<path d="M81.9584 393.243C81.9584 392.902 82.1035 392.575 82.3617 392.334C82.62 392.093 82.9703 391.958 83.3355 391.958L88.2933 391.958C88.6585 391.958 89.0088 392.093 89.267 392.334C89.5253 392.575 89.6704 392.902 89.6704 393.243C89.6704 393.585 89.5253 393.912 89.267 394.153C89.0088 394.394 88.6585 394.529 88.2933 394.529L83.3355 394.529C82.9703 394.529 82.62 394.394 82.3617 394.153C82.1035 393.912 81.9584 393.585 81.9584 393.243Z" fill="white"/>
</svg>
