<svg width="452" height="824" viewBox="0 0 452 824" fill="none" xmlns="http://www.w3.org/2000/svg">
<g clip-path="url(#clip0_2694_709)">
<path d="M465.957 821.534L465.957 3.573L3.31308 3.57298L3.31304 821.534L465.957 821.534Z" fill="#60A963" fill-opacity="0.99"/>
<path d="M465.957 120.814L465.957 3.573L3.31311 3.57298L3.31311 120.814L465.957 120.814Z" fill="#47934B" fill-opacity="0.99"/>
<path d="M465.957 821.534L465.957 707.019L3.31311 707.019L3.31311 821.534L465.957 821.534Z" fill="#47934B" fill-opacity="0.99"/>
<path d="M-0.540161 821.534L-0.540125 3.573C-0.540125 2.97039 -0.283759 2.39247 0.172564 1.96637C0.628888 1.54026 1.24779 1.30088 1.89313 1.30088L450.585 1.3009C451.231 1.3009 451.85 1.54028 452.306 1.96639C452.762 2.39249 453.019 2.97041 453.019 3.57302L453.019 821.534C453.019 822.136 452.762 822.714 452.306 823.14C451.85 823.566 451.231 823.806 450.585 823.806L1.89309 823.806C1.24775 823.806 0.628852 823.566 0.172529 823.14C-0.283795 822.714 -0.540161 822.136 -0.540161 821.534ZM4.32638 5.84511L4.32635 819.262L448.152 819.262L448.152 5.84513L4.32638 5.84511Z" fill="white"/>
<path d="M-1.15945 119.778C-1.15945 119.458 -0.902939 119.15 -0.446348 118.924C0.0102437 118.698 0.629509 118.57 1.27523 118.57L450.23 118.57C450.876 118.57 451.495 118.698 451.952 118.924C452.409 119.15 452.665 119.458 452.665 119.778C452.665 120.098 452.409 120.405 451.952 120.631C451.495 120.858 450.876 120.985 450.23 120.985L1.27523 120.985C0.629509 120.985 0.0102436 120.858 -0.446348 120.631C-0.902939 120.405 -1.15945 120.098 -1.15945 119.778Z" fill="white"/>
<path d="M-1.15945 181.351C-1.15945 181.031 -0.902939 180.724 -0.446348 180.498C0.0102437 180.271 0.629509 180.144 1.27523 180.144L450.23 180.144C450.876 180.144 451.495 180.271 451.952 180.498C452.409 180.724 452.665 181.031 452.665 181.351C452.665 181.671 452.409 181.979 451.952 182.205C451.495 182.431 450.876 182.559 450.23 182.559L1.27523 182.559C0.629509 182.559 0.0102436 182.431 -0.446348 182.205C-0.902939 181.979 -1.15945 181.671 -1.15945 181.351Z" fill="white"/>
<path d="M-1.15945 240.51C-1.15945 240.19 -0.902939 239.883 -0.446348 239.656C0.0102437 239.43 0.629509 239.303 1.27523 239.303L450.23 239.303C450.876 239.303 451.495 239.43 451.952 239.656C452.409 239.883 452.665 240.19 452.665 240.51C452.665 240.83 452.409 241.137 451.952 241.364C451.495 241.59 450.876 241.717 450.23 241.717L1.27523 241.717C0.629509 241.717 0.0102436 241.59 -0.446348 241.364C-0.902939 241.137 -1.15945 240.83 -1.15945 240.51Z" fill="white"/>
<path d="M-1.15945 299.669C-1.15945 299.348 -0.902939 299.041 -0.446348 298.815C0.0102437 298.588 0.629509 298.461 1.27523 298.461L450.23 298.461C450.876 298.461 451.495 298.589 451.952 298.815C452.409 299.041 452.665 299.348 452.665 299.669C452.665 299.989 452.409 300.296 451.952 300.522C451.495 300.749 450.876 300.876 450.23 300.876L1.27523 300.876C0.629509 300.876 0.0102436 300.749 -0.446348 300.522C-0.902939 300.296 -1.15945 299.989 -1.15945 299.669Z" fill="white"/>
<path d="M-1.15945 357.62C-1.15945 357.3 -0.902939 356.993 -0.446348 356.766C0.0102437 356.54 0.629509 356.413 1.27523 356.413L450.23 356.413C450.876 356.413 451.495 356.54 451.952 356.766C452.409 356.993 452.665 357.3 452.665 357.62C452.665 357.94 452.409 358.247 451.952 358.474C451.495 358.7 450.876 358.828 450.23 358.828L1.27523 358.827C0.629509 358.827 0.0102436 358.7 -0.446348 358.474C-0.902939 358.247 -1.15945 357.94 -1.15945 357.62Z" fill="white"/>
<path d="M-1.15945 415.572C-1.15945 415.251 -0.902939 414.944 -0.446348 414.718C0.0102437 414.491 0.629509 414.364 1.27523 414.364L450.23 414.364C450.876 414.364 451.495 414.491 451.952 414.718C452.409 414.944 452.665 415.251 452.665 415.572C452.665 415.892 452.409 416.199 451.952 416.425C451.495 416.652 450.876 416.779 450.23 416.779L1.27523 416.779C0.629509 416.779 0.0102436 416.652 -0.446348 416.425C-0.902939 416.199 -1.15945 415.892 -1.15945 415.572Z" fill="white"/>
<path d="M-1.15945 474.73C-1.15945 474.41 -0.902939 474.103 -0.446348 473.877C0.0102437 473.65 0.629509 473.523 1.27523 473.523L450.23 473.523C450.876 473.523 451.495 473.65 451.952 473.877C452.409 474.103 452.665 474.41 452.665 474.73C452.665 475.051 452.409 475.358 451.952 475.584C451.495 475.81 450.876 475.938 450.23 475.938L1.27523 475.938C0.629509 475.938 0.0102436 475.81 -0.446348 475.584C-0.902939 475.358 -1.15945 475.051 -1.15945 474.73Z" fill="white"/>
<path d="M-1.15945 531.474C-1.15945 531.154 -0.902939 530.847 -0.446348 530.621C0.0102437 530.394 0.629509 530.267 1.27523 530.267L450.23 530.267C450.876 530.267 451.495 530.394 451.952 530.621C452.409 530.847 452.665 531.154 452.665 531.474C452.665 531.795 452.409 532.102 451.952 532.328C451.495 532.555 450.876 532.682 450.23 532.682L1.27523 532.682C0.629509 532.682 0.0102436 532.555 -0.446348 532.328C-0.902939 532.102 -1.15945 531.795 -1.15945 531.474Z" fill="white"/>
<path d="M-1.15945 588.219C-1.15945 587.898 -0.902939 587.591 -0.446348 587.365C0.0102437 587.138 0.629509 587.011 1.27523 587.011L450.23 587.011C450.876 587.011 451.495 587.138 451.952 587.365C452.409 587.591 452.665 587.898 452.665 588.219C452.665 588.539 452.409 588.846 451.952 589.072C451.495 589.299 450.876 589.426 450.23 589.426L1.27523 589.426C0.629509 589.426 0.0102436 589.299 -0.446348 589.072C-0.902939 588.846 -1.15945 588.539 -1.15945 588.219Z" fill="white"/>
<path d="M-1.15945 647.377C-1.15945 647.057 -0.902939 646.75 -0.446348 646.524C0.0102437 646.297 0.629509 646.17 1.27523 646.17L450.23 646.17C450.876 646.17 451.495 646.297 451.952 646.524C452.409 646.75 452.665 647.057 452.665 647.377C452.665 647.698 452.409 648.005 451.952 648.231C451.495 648.458 450.876 648.585 450.23 648.585L1.27523 648.585C0.629509 648.585 0.0102436 648.458 -0.446348 648.231C-0.902939 648.005 -1.15945 647.698 -1.15945 647.377Z" fill="white"/>
<path d="M-1.15945 707.744C-1.15945 707.423 -0.902939 707.116 -0.446348 706.89C0.0102437 706.663 0.629509 706.536 1.27523 706.536L450.23 706.536C450.876 706.536 451.495 706.663 451.952 706.89C452.409 707.116 452.665 707.423 452.665 707.744C452.665 708.064 452.409 708.371 451.952 708.597C451.495 708.824 450.876 708.951 450.23 708.951L1.27523 708.951C0.629509 708.951 0.0102436 708.824 -0.446348 708.597C-0.902939 708.371 -1.15945 708.064 -1.15945 707.744Z" fill="white"/>
<path d="M191.2 766.094C191.2 765.492 191.457 764.914 191.913 764.488C192.369 764.061 192.988 763.822 193.634 763.822L260.791 763.822C261.437 763.822 262.056 764.061 262.512 764.488C262.968 764.914 263.225 765.492 263.225 766.094C263.225 766.697 262.968 767.275 262.512 767.701C262.056 768.127 261.437 768.366 260.791 768.366L193.634 768.366C192.988 768.366 192.369 768.127 191.913 767.701C191.457 767.275 191.2 766.697 191.2 766.094Z" fill="white"/>
<path d="M191.199 64.4657C191.199 63.8631 191.456 63.2852 191.912 62.8591C192.368 62.433 192.987 62.1936 193.633 62.1936L260.79 62.1936C261.436 62.1936 262.055 62.433 262.511 62.8591C262.967 63.2852 263.224 63.8631 263.224 64.4657C263.224 65.0683 262.967 65.6462 262.511 66.0723C262.055 66.4984 261.436 66.7378 260.79 66.7378L193.633 66.7378C192.987 66.7378 192.368 66.4984 191.912 66.0723C191.456 65.6462 191.199 65.0683 191.199 64.4657Z" fill="white"/>
<path d="M297.291 134.447C297.291 133.844 297.547 133.266 298.003 132.84C298.46 132.414 299.079 132.175 299.724 132.175L308.484 132.175C309.129 132.175 309.748 132.414 310.204 132.84C310.661 133.266 310.917 133.844 310.917 134.447C310.917 135.049 310.661 135.627 310.204 136.053C309.748 136.479 309.129 136.719 308.484 136.719L299.724 136.719C299.079 136.719 298.46 136.479 298.003 136.053C297.547 135.627 297.291 135.049 297.291 134.447Z" fill="white"/>
<path d="M297.291 146.262C297.291 145.659 297.547 145.081 298.003 144.655C298.46 144.229 299.079 143.99 299.724 143.99L308.484 143.99C309.129 143.99 309.748 144.229 310.204 144.655C310.661 145.081 310.917 145.659 310.917 146.262C310.917 146.864 310.661 147.442 310.204 147.868C309.748 148.294 309.129 148.534 308.484 148.534L299.724 148.534C299.079 148.534 298.46 148.294 298.003 147.868C297.547 147.442 297.291 146.864 297.291 146.262Z" fill="white"/>
<path d="M297.291 158.077C297.291 157.474 297.547 156.896 298.003 156.47C298.46 156.044 299.079 155.805 299.724 155.805L308.484 155.805C309.129 155.805 309.748 156.044 310.204 156.47C310.661 156.896 310.917 157.474 310.917 158.077C310.917 158.679 310.661 159.257 310.204 159.683C309.748 160.109 309.129 160.349 308.484 160.349L299.724 160.349C299.079 160.349 298.46 160.109 298.003 159.683C297.547 159.257 297.291 158.679 297.291 158.077Z" fill="white"/>
<path d="M297.291 169.892C297.291 169.289 297.547 168.711 298.003 168.285C298.46 167.859 299.079 167.62 299.724 167.62L308.484 167.62C309.129 167.62 309.748 167.859 310.204 168.285C310.661 168.711 310.917 169.289 310.917 169.892C310.917 170.494 310.661 171.072 310.204 171.498C309.748 171.924 309.129 172.164 308.484 172.164L299.724 172.164C299.079 172.164 298.46 171.924 298.003 171.498C297.547 171.072 297.291 170.494 297.291 169.892Z" fill="white"/>
<path d="M297.291 194.431C297.291 193.828 297.547 193.25 298.003 192.824C298.46 192.398 299.079 192.158 299.724 192.158L308.484 192.158C309.129 192.158 309.748 192.398 310.204 192.824C310.661 193.25 310.917 193.828 310.917 194.431C310.917 195.033 310.661 195.611 310.204 196.037C309.748 196.463 309.129 196.703 308.484 196.703L299.724 196.703C299.079 196.703 298.46 196.463 298.003 196.037C297.547 195.611 297.291 195.033 297.291 194.431Z" fill="white"/>
<path d="M297.291 206.246C297.291 205.643 297.547 205.065 298.003 204.639C298.46 204.213 299.079 203.974 299.724 203.974L308.484 203.974C309.129 203.974 309.748 204.213 310.204 204.639C310.661 205.065 310.917 205.643 310.917 206.246C310.917 206.848 310.661 207.426 310.204 207.852C309.748 208.278 309.129 208.518 308.484 208.518L299.724 208.518C299.079 208.518 298.46 208.278 298.003 207.852C297.547 207.426 297.291 206.848 297.291 206.246Z" fill="white"/>
<path d="M297.291 218.06C297.291 217.458 297.547 216.88 298.003 216.454C298.46 216.028 299.079 215.788 299.724 215.788L308.484 215.788C309.129 215.788 309.748 216.028 310.204 216.454C310.661 216.88 310.917 217.458 310.917 218.06C310.917 218.663 310.661 219.241 310.204 219.667C309.748 220.093 309.129 220.333 308.484 220.333L299.724 220.333C299.079 220.333 298.46 220.093 298.003 219.667C297.547 219.241 297.291 218.663 297.291 218.06Z" fill="white"/>
<path d="M297.291 229.876C297.291 229.273 297.547 228.695 298.003 228.269C298.46 227.843 299.079 227.603 299.724 227.603L308.484 227.603C309.129 227.603 309.748 227.843 310.204 228.269C310.661 228.695 310.917 229.273 310.917 229.876C310.917 230.478 310.661 231.056 310.204 231.482C309.748 231.908 309.129 232.148 308.484 232.148L299.724 232.148C299.079 232.148 298.46 231.908 298.003 231.482C297.547 231.056 297.291 230.478 297.291 229.876Z" fill="white"/>
<path d="M297.291 252.596C297.291 251.994 297.547 251.416 298.003 250.99C298.46 250.564 299.079 250.324 299.724 250.324L308.484 250.324C309.129 250.324 309.748 250.564 310.204 250.99C310.661 251.416 310.917 251.994 310.917 252.596C310.917 253.199 310.661 253.777 310.204 254.203C309.748 254.629 309.129 254.869 308.484 254.869L299.724 254.869C299.079 254.869 298.46 254.629 298.003 254.203C297.547 253.777 297.291 253.199 297.291 252.596Z" fill="white"/>
<path d="M297.291 264.412C297.291 263.809 297.547 263.231 298.003 262.805C298.46 262.379 299.079 262.14 299.724 262.14L308.484 262.14C309.129 262.14 309.748 262.379 310.204 262.805C310.661 263.231 310.917 263.809 310.917 264.412C310.917 265.014 310.661 265.592 310.204 266.018C309.748 266.444 309.129 266.684 308.484 266.684L299.724 266.684C299.079 266.684 298.46 266.444 298.003 266.018C297.547 265.592 297.291 265.014 297.291 264.412Z" fill="white"/>
<path d="M297.291 276.227C297.291 275.624 297.547 275.046 298.003 274.62C298.46 274.194 299.079 273.955 299.724 273.955L308.484 273.955C309.129 273.955 309.748 274.194 310.204 274.62C310.661 275.046 310.917 275.624 310.917 276.227C310.917 276.829 310.661 277.407 310.204 277.833C309.748 278.259 309.129 278.499 308.484 278.499L299.724 278.499C299.079 278.499 298.46 278.259 298.003 277.833C297.547 277.407 297.291 276.829 297.291 276.227Z" fill="white"/>
<path d="M297.291 288.042C297.291 287.439 297.547 286.861 298.003 286.435C298.46 286.009 299.079 285.769 299.724 285.769L308.484 285.769C309.129 285.769 309.748 286.009 310.204 286.435C310.661 286.861 310.917 287.439 310.917 288.042C310.917 288.644 310.661 289.222 310.204 289.648C309.748 290.074 309.129 290.314 308.484 290.314L299.724 290.314C299.079 290.314 298.46 290.074 298.003 289.648C297.547 289.222 297.291 288.644 297.291 288.042Z" fill="white"/>
<path d="M297.291 310.763C297.291 310.16 297.547 309.582 298.003 309.156C298.46 308.73 299.079 308.491 299.724 308.491L308.484 308.491C309.129 308.491 309.748 308.73 310.204 309.156C310.661 309.582 310.917 310.16 310.917 310.763C310.917 311.365 310.661 311.943 310.204 312.369C309.748 312.795 309.129 313.035 308.484 313.035L299.724 313.035C299.079 313.035 298.46 312.795 298.003 312.369C297.547 311.943 297.291 311.365 297.291 310.763Z" fill="white"/>
<path d="M297.291 322.578C297.291 321.975 297.547 321.397 298.003 320.971C298.46 320.545 299.079 320.305 299.724 320.305L308.484 320.305C309.129 320.305 309.748 320.545 310.204 320.971C310.661 321.397 310.917 321.975 310.917 322.578C310.917 323.18 310.661 323.758 310.204 324.184C309.748 324.61 309.129 324.85 308.484 324.85L299.724 324.85C299.079 324.85 298.46 324.61 298.003 324.184C297.547 323.758 297.291 323.18 297.291 322.578Z" fill="white"/>
<path d="M297.291 334.393C297.291 333.79 297.547 333.212 298.003 332.786C298.46 332.36 299.079 332.12 299.724 332.12L308.484 332.12C309.129 332.12 309.748 332.36 310.204 332.786C310.661 333.212 310.917 333.79 310.917 334.393C310.917 334.995 310.661 335.573 310.204 335.999C309.748 336.425 309.129 336.665 308.484 336.665L299.724 336.665C299.079 336.665 298.46 336.425 298.003 335.999C297.547 335.573 297.291 334.995 297.291 334.393Z" fill="white"/>
<path d="M297.291 346.208C297.291 345.605 297.547 345.027 298.003 344.601C298.46 344.175 299.079 343.935 299.724 343.935L308.484 343.935C309.129 343.935 309.748 344.175 310.204 344.601C310.661 345.027 310.917 345.605 310.917 346.208C310.917 346.81 310.661 347.388 310.204 347.814C309.748 348.24 309.129 348.48 308.484 348.48L299.724 348.48C299.079 348.48 298.46 348.24 298.003 347.814C297.547 347.388 297.291 346.81 297.291 346.208Z" fill="white"/>
<path d="M297.291 370.746C297.291 370.144 297.547 369.566 298.003 369.14C298.46 368.714 299.079 368.474 299.724 368.474L308.484 368.474C309.129 368.474 309.748 368.714 310.204 369.14C310.661 369.566 310.917 370.144 310.917 370.746C310.917 371.349 310.661 371.927 310.204 372.353C309.748 372.779 309.129 373.018 308.484 373.018L299.724 373.018C299.079 373.018 298.46 372.779 298.003 372.353C297.547 371.927 297.291 371.349 297.291 370.746Z" fill="white"/>
<path d="M297.291 382.561C297.291 381.959 297.547 381.381 298.003 380.955C298.46 380.529 299.079 380.289 299.724 380.289L308.484 380.289C309.129 380.289 309.748 380.529 310.204 380.955C310.661 381.381 310.917 381.959 310.917 382.561C310.917 383.164 310.661 383.742 310.204 384.168C309.748 384.594 309.129 384.833 308.484 384.833L299.724 384.833C299.079 384.833 298.46 384.594 298.003 384.168C297.547 383.742 297.291 383.164 297.291 382.561Z" fill="white"/>
<path d="M297.291 394.376C297.291 393.774 297.547 393.196 298.003 392.77C298.46 392.344 299.079 392.104 299.724 392.104L308.484 392.104C309.129 392.104 309.748 392.344 310.204 392.77C310.661 393.196 310.917 393.774 310.917 394.376C310.917 394.979 310.661 395.557 310.204 395.983C309.748 396.409 309.129 396.648 308.484 396.648L299.724 396.648C299.079 396.648 298.46 396.409 298.003 395.983C297.547 395.557 297.291 394.979 297.291 394.376Z" fill="white"/>
<path d="M297.291 406.191C297.291 405.589 297.547 405.011 298.003 404.585C298.46 404.159 299.079 403.919 299.724 403.919L308.484 403.919C309.129 403.919 309.748 404.159 310.204 404.585C310.661 405.011 310.917 405.589 310.917 406.191C310.917 406.794 310.661 407.372 310.204 407.798C309.748 408.224 309.129 408.463 308.484 408.463L299.724 408.463C299.079 408.463 298.46 408.224 298.003 407.798C297.547 407.372 297.291 406.794 297.291 406.191Z" fill="white"/>
<path d="M297.291 428.912C297.291 428.31 297.547 427.732 298.003 427.306C298.46 426.88 299.079 426.64 299.724 426.64L308.484 426.64C309.129 426.64 309.748 426.88 310.204 427.306C310.661 427.732 310.917 428.31 310.917 428.912C310.917 429.515 310.661 430.093 310.204 430.519C309.748 430.945 309.129 431.185 308.484 431.185L299.724 431.185C299.079 431.185 298.46 430.945 298.003 430.519C297.547 430.093 297.291 429.515 297.291 428.912Z" fill="white"/>
<path d="M297.291 440.727C297.291 440.125 297.547 439.547 298.003 439.121C298.46 438.695 299.079 438.455 299.724 438.455L308.484 438.455C309.129 438.455 309.748 438.695 310.204 439.121C310.661 439.547 310.917 440.125 310.917 440.727C310.917 441.33 310.661 441.908 310.204 442.334C309.748 442.76 309.129 442.999 308.484 442.999L299.724 442.999C299.079 442.999 298.46 442.76 298.003 442.334C297.547 441.908 297.291 441.33 297.291 440.727Z" fill="white"/>
<path d="M297.291 452.542C297.291 451.94 297.547 451.362 298.003 450.936C298.46 450.51 299.079 450.27 299.724 450.27L308.484 450.27C309.129 450.27 309.748 450.51 310.204 450.936C310.661 451.362 310.917 451.94 310.917 452.542C310.917 453.145 310.661 453.723 310.204 454.149C309.748 454.575 309.129 454.815 308.484 454.815L299.724 454.815C299.079 454.815 298.46 454.575 298.003 454.149C297.547 453.723 297.291 453.145 297.291 452.542Z" fill="white"/>
<path d="M297.291 464.357C297.291 463.755 297.547 463.177 298.003 462.751C298.46 462.325 299.079 462.085 299.724 462.085L308.484 462.085C309.129 462.085 309.748 462.325 310.204 462.751C310.661 463.177 310.917 463.755 310.917 464.357C310.917 464.96 310.661 465.538 310.204 465.964C309.748 466.39 309.129 466.63 308.484 466.63L299.724 466.63C299.079 466.63 298.46 466.39 298.003 465.964C297.547 465.538 297.291 464.96 297.291 464.357Z" fill="white"/>
<path d="M297.291 486.17C297.291 485.567 297.547 484.989 298.003 484.563C298.46 484.137 299.079 483.897 299.724 483.897L308.484 483.897C309.129 483.897 309.748 484.137 310.204 484.563C310.661 484.989 310.917 485.567 310.917 486.17C310.917 486.772 310.661 487.35 310.204 487.776C309.748 488.202 309.129 488.442 308.484 488.442L299.724 488.442C299.079 488.442 298.46 488.202 298.003 487.776C297.547 487.35 297.291 486.772 297.291 486.17Z" fill="white"/>
<path d="M297.291 497.985C297.291 497.382 297.547 496.804 298.003 496.378C298.46 495.952 299.079 495.713 299.724 495.713L308.484 495.713C309.129 495.713 309.748 495.952 310.204 496.378C310.661 496.804 310.917 497.382 310.917 497.985C310.917 498.587 310.661 499.165 310.204 499.591C309.748 500.017 309.129 500.257 308.484 500.257L299.724 500.257C299.079 500.257 298.46 500.017 298.003 499.591C297.547 499.165 297.291 498.587 297.291 497.985Z" fill="white"/>
<path d="M297.291 509.8C297.291 509.197 297.547 508.619 298.003 508.193C298.46 507.767 299.079 507.527 299.724 507.527L308.484 507.527C309.129 507.527 309.748 507.767 310.204 508.193C310.661 508.619 310.917 509.197 310.917 509.8C310.917 510.402 310.661 510.98 310.204 511.406C309.748 511.832 309.129 512.072 308.484 512.072L299.724 512.072C299.079 512.072 298.46 511.832 298.003 511.406C297.547 510.98 297.291 510.402 297.291 509.8Z" fill="white"/>
<path d="M297.291 521.615C297.291 521.012 297.547 520.434 298.003 520.008C298.46 519.582 299.079 519.343 299.724 519.343L308.484 519.343C309.129 519.343 309.748 519.582 310.204 520.008C310.661 520.434 310.917 521.012 310.917 521.615C310.917 522.217 310.661 522.795 310.204 523.221C309.748 523.647 309.129 523.887 308.484 523.887L299.724 523.887C299.079 523.887 298.46 523.647 298.003 523.221C297.547 522.795 297.291 522.217 297.291 521.615Z" fill="white"/>
<path d="M297.291 544.336C297.291 543.733 297.547 543.155 298.003 542.729C298.46 542.303 299.079 542.064 299.724 542.064L308.484 542.064C309.129 542.064 309.748 542.303 310.204 542.729C310.661 543.155 310.917 543.733 310.917 544.336C310.917 544.939 310.661 545.516 310.204 545.943C309.748 546.369 309.129 546.608 308.484 546.608L299.724 546.608C299.079 546.608 298.46 546.369 298.003 545.943C297.547 545.516 297.291 544.939 297.291 544.336Z" fill="white"/>
<path d="M297.291 556.151C297.291 555.548 297.547 554.97 298.003 554.544C298.46 554.118 299.079 553.879 299.724 553.879L308.484 553.879C309.129 553.879 309.748 554.118 310.204 554.544C310.661 554.97 310.917 555.548 310.917 556.151C310.917 556.753 310.661 557.331 310.204 557.757C309.748 558.183 309.129 558.423 308.484 558.423L299.724 558.423C299.079 558.423 298.46 558.183 298.003 557.757C297.547 557.331 297.291 556.753 297.291 556.151Z" fill="white"/>
<path d="M297.291 567.966C297.291 567.363 297.547 566.785 298.003 566.359C298.46 565.933 299.079 565.694 299.724 565.694L308.484 565.694C309.129 565.694 309.748 565.933 310.204 566.359C310.661 566.785 310.917 567.363 310.917 567.966C310.917 568.568 310.661 569.146 310.204 569.572C309.748 569.999 309.129 570.238 308.484 570.238L299.724 570.238C299.079 570.238 298.46 569.999 298.003 569.572C297.547 569.146 297.291 568.568 297.291 567.966Z" fill="white"/>
<path d="M297.291 579.781C297.291 579.178 297.547 578.6 298.003 578.174C298.46 577.748 299.079 577.509 299.724 577.509L308.484 577.509C309.129 577.509 309.748 577.748 310.204 578.174C310.661 578.6 310.917 579.178 310.917 579.781C310.917 580.383 310.661 580.961 310.204 581.387C309.748 581.814 309.129 582.053 308.484 582.053L299.724 582.053C299.079 582.053 298.46 581.814 298.003 581.387C297.547 580.961 297.291 580.383 297.291 579.781Z" fill="white"/>
<path d="M297.291 601.593C297.291 600.99 297.547 600.413 298.003 599.986C298.46 599.56 299.079 599.321 299.724 599.321L308.484 599.321C309.129 599.321 309.748 599.56 310.204 599.986C310.661 600.413 310.917 600.99 310.917 601.593C310.917 602.196 310.661 602.774 310.204 603.2C309.748 603.626 309.129 603.865 308.484 603.865L299.724 603.865C299.079 603.865 298.46 603.626 298.003 603.2C297.547 602.774 297.291 602.196 297.291 601.593Z" fill="white"/>
<path d="M297.291 613.408C297.291 612.805 297.547 612.228 298.003 611.801C298.46 611.375 299.079 611.136 299.724 611.136L308.484 611.136C309.129 611.136 309.748 611.375 310.204 611.801C310.661 612.228 310.917 612.805 310.917 613.408C310.917 614.011 310.661 614.589 310.204 615.015C309.748 615.441 309.129 615.68 308.484 615.68L299.724 615.68C299.079 615.68 298.46 615.441 298.003 615.015C297.547 614.589 297.291 614.011 297.291 613.408Z" fill="white"/>
<path d="M297.291 625.223C297.291 624.62 297.547 624.042 298.003 623.616C298.46 623.19 299.079 622.951 299.724 622.951L308.484 622.951C309.129 622.951 309.748 623.19 310.204 623.616C310.661 624.042 310.917 624.62 310.917 625.223C310.917 625.826 310.661 626.403 310.204 626.83C309.748 627.256 309.129 627.495 308.484 627.495L299.724 627.495C299.079 627.495 298.46 627.256 298.003 626.83C297.547 626.403 297.291 625.826 297.291 625.223Z" fill="white"/>
<path d="M297.291 637.038C297.291 636.435 297.547 635.858 298.003 635.431C298.46 635.005 299.079 634.766 299.724 634.766L308.484 634.766C309.129 634.766 309.748 635.005 310.204 635.431C310.661 635.858 310.917 636.435 310.917 637.038C310.917 637.641 310.661 638.219 310.204 638.645C309.748 639.071 309.129 639.31 308.484 639.31L299.724 639.31C299.079 639.31 298.46 639.071 298.003 638.645C297.547 638.219 297.291 637.641 297.291 637.038Z" fill="white"/>
<path d="M297.291 660.668C297.291 660.065 297.547 659.487 298.003 659.061C298.46 658.635 299.079 658.396 299.724 658.396L308.484 658.396C309.129 658.396 309.748 658.635 310.204 659.061C310.661 659.487 310.917 660.065 310.917 660.668C310.917 661.271 310.661 661.848 310.204 662.275C309.748 662.701 309.129 662.94 308.484 662.94L299.724 662.94C299.079 662.94 298.46 662.701 298.003 662.275C297.547 661.848 297.291 661.271 297.291 660.668Z" fill="white"/>
<path d="M297.291 672.483C297.291 671.88 297.547 671.302 298.003 670.876C298.46 670.45 299.079 670.211 299.724 670.211L308.484 670.211C309.129 670.211 309.748 670.45 310.204 670.876C310.661 671.302 310.917 671.88 310.917 672.483C310.917 673.085 310.661 673.663 310.204 674.089C309.748 674.516 309.129 674.755 308.484 674.755L299.724 674.755C299.079 674.755 298.46 674.516 298.003 674.089C297.547 673.663 297.291 673.085 297.291 672.483Z" fill="white"/>
<path d="M297.291 684.298C297.291 683.695 297.547 683.117 298.003 682.691C298.46 682.265 299.079 682.026 299.724 682.026L308.484 682.026C309.129 682.026 309.748 682.265 310.204 682.691C310.661 683.117 310.917 683.695 310.917 684.298C310.917 684.901 310.661 685.478 310.204 685.905C309.748 686.331 309.129 686.57 308.484 686.57L299.724 686.57C299.079 686.57 298.46 686.331 298.003 685.905C297.547 685.478 297.291 684.901 297.291 684.298Z" fill="white"/>
<path d="M297.291 696.113C297.291 695.51 297.547 694.933 298.003 694.506C298.46 694.08 299.079 693.841 299.724 693.841L308.484 693.841C309.129 693.841 309.748 694.08 310.204 694.506C310.661 694.933 310.917 695.51 310.917 696.113C310.917 696.716 310.661 697.294 310.204 697.72C309.748 698.146 309.129 698.385 308.484 698.385L299.724 698.385C299.079 698.385 298.46 698.146 298.003 697.72C297.547 697.294 297.291 696.716 297.291 696.113Z" fill="white"/>
<path d="M142.534 134.447C142.534 133.844 142.79 133.266 143.247 132.84C143.703 132.414 144.322 132.175 144.967 132.175L153.727 132.175C154.372 132.175 154.991 132.414 155.447 132.84C155.904 133.266 156.16 133.844 156.16 134.447C156.16 135.049 155.904 135.627 155.447 136.053C154.991 136.479 154.372 136.719 153.727 136.719L144.967 136.719C144.322 136.719 143.703 136.479 143.247 136.053C142.79 135.627 142.534 135.049 142.534 134.447Z" fill="white"/>
<path d="M142.534 146.262C142.534 145.659 142.79 145.081 143.247 144.655C143.703 144.229 144.322 143.99 144.967 143.99L153.727 143.99C154.372 143.99 154.991 144.229 155.447 144.655C155.904 145.081 156.16 145.659 156.16 146.262C156.16 146.864 155.904 147.442 155.447 147.868C154.991 148.295 154.372 148.534 153.727 148.534L144.967 148.534C144.322 148.534 143.703 148.295 143.247 147.868C142.79 147.442 142.534 146.864 142.534 146.262Z" fill="white"/>
<path d="M142.534 158.077C142.534 157.474 142.79 156.896 143.247 156.47C143.703 156.044 144.322 155.804 144.967 155.804L153.727 155.804C154.372 155.804 154.991 156.044 155.447 156.47C155.904 156.896 156.16 157.474 156.16 158.077C156.16 158.679 155.904 159.257 155.447 159.683C154.991 160.109 154.372 160.349 153.727 160.349L144.967 160.349C144.322 160.349 143.703 160.109 143.247 159.683C142.79 159.257 142.534 158.679 142.534 158.077Z" fill="white"/>
<path d="M142.534 169.892C142.534 169.289 142.79 168.711 143.247 168.285C143.703 167.859 144.322 167.62 144.967 167.62L153.727 167.62C154.372 167.62 154.991 167.859 155.447 168.285C155.904 168.711 156.16 169.289 156.16 169.892C156.16 170.494 155.904 171.072 155.447 171.498C154.991 171.924 154.372 172.164 153.727 172.164L144.967 172.164C144.322 172.164 143.703 171.924 143.247 171.498C142.79 171.072 142.534 170.494 142.534 169.892Z" fill="white"/>
<path d="M142.534 194.431C142.534 193.828 142.79 193.25 143.247 192.824C143.703 192.398 144.322 192.158 144.967 192.158L153.727 192.158C154.372 192.158 154.991 192.398 155.447 192.824C155.904 193.25 156.16 193.828 156.16 194.431C156.16 195.033 155.904 195.611 155.447 196.037C154.991 196.463 154.372 196.703 153.727 196.703L144.967 196.703C144.322 196.703 143.703 196.463 143.247 196.037C142.79 195.611 142.534 195.033 142.534 194.431Z" fill="white"/>
<path d="M142.534 206.246C142.534 205.643 142.79 205.065 143.247 204.639C143.703 204.213 144.322 203.974 144.967 203.974L153.727 203.974C154.372 203.974 154.991 204.213 155.447 204.639C155.904 205.065 156.16 205.643 156.16 206.246C156.16 206.848 155.904 207.426 155.447 207.852C154.991 208.278 154.372 208.518 153.727 208.518L144.967 208.518C144.322 208.518 143.703 208.278 143.247 207.852C142.79 207.426 142.534 206.848 142.534 206.246Z" fill="white"/>
<path d="M142.534 218.06C142.534 217.458 142.79 216.88 143.247 216.454C143.703 216.028 144.322 215.788 144.967 215.788L153.727 215.788C154.372 215.788 154.991 216.028 155.447 216.454C155.904 216.88 156.16 217.458 156.16 218.06C156.16 218.663 155.904 219.241 155.447 219.667C154.991 220.093 154.372 220.333 153.727 220.333L144.967 220.333C144.322 220.333 143.703 220.093 143.247 219.667C142.79 219.241 142.534 218.663 142.534 218.06Z" fill="white"/>
<path d="M142.534 229.876C142.534 229.273 142.79 228.695 143.247 228.269C143.703 227.843 144.322 227.603 144.967 227.603L153.727 227.603C154.372 227.603 154.991 227.843 155.447 228.269C155.904 228.695 156.16 229.273 156.16 229.876C156.16 230.478 155.904 231.056 155.447 231.482C154.991 231.908 154.372 232.148 153.727 232.148L144.967 232.148C144.322 232.148 143.703 231.908 143.247 231.482C142.79 231.056 142.534 230.478 142.534 229.876Z" fill="white"/>
<path d="M142.534 252.596C142.534 251.994 142.79 251.416 143.247 250.99C143.703 250.564 144.322 250.324 144.967 250.324L153.727 250.324C154.372 250.324 154.991 250.564 155.447 250.99C155.904 251.416 156.16 251.994 156.16 252.596C156.16 253.199 155.904 253.777 155.447 254.203C154.991 254.629 154.372 254.869 153.727 254.869L144.967 254.869C144.322 254.869 143.703 254.629 143.247 254.203C142.79 253.777 142.534 253.199 142.534 252.596Z" fill="white"/>
<path d="M142.534 264.412C142.534 263.809 142.79 263.231 143.247 262.805C143.703 262.379 144.322 262.14 144.967 262.14L153.727 262.14C154.372 262.14 154.991 262.379 155.447 262.805C155.904 263.231 156.16 263.809 156.16 264.412C156.16 265.014 155.904 265.592 155.447 266.018C154.991 266.444 154.372 266.684 153.727 266.684L144.967 266.684C144.322 266.684 143.703 266.444 143.247 266.018C142.79 265.592 142.534 265.014 142.534 264.412Z" fill="white"/>
<path d="M142.534 276.227C142.534 275.624 142.79 275.046 143.247 274.62C143.703 274.194 144.322 273.955 144.967 273.955L153.727 273.955C154.372 273.955 154.991 274.194 155.447 274.62C155.904 275.046 156.16 275.624 156.16 276.227C156.16 276.829 155.904 277.407 155.447 277.833C154.991 278.259 154.372 278.499 153.727 278.499L144.967 278.499C144.322 278.499 143.703 278.259 143.247 277.833C142.79 277.407 142.534 276.829 142.534 276.227Z" fill="white"/>
<path d="M142.534 288.042C142.534 287.439 142.79 286.861 143.247 286.435C143.703 286.009 144.322 285.769 144.967 285.769L153.727 285.769C154.372 285.769 154.991 286.009 155.447 286.435C155.904 286.861 156.16 287.439 156.16 288.042C156.16 288.644 155.904 289.222 155.447 289.648C154.991 290.074 154.372 290.314 153.727 290.314L144.967 290.314C144.322 290.314 143.703 290.074 143.247 289.648C142.79 289.222 142.534 288.644 142.534 288.042Z" fill="white"/>
<path d="M142.534 310.763C142.534 310.16 142.79 309.582 143.247 309.156C143.703 308.73 144.322 308.491 144.967 308.491L153.727 308.491C154.372 308.491 154.991 308.73 155.447 309.156C155.904 309.582 156.16 310.16 156.16 310.763C156.16 311.365 155.904 311.943 155.447 312.369C154.991 312.795 154.372 313.035 153.727 313.035L144.967 313.035C144.322 313.035 143.703 312.795 143.247 312.369C142.79 311.943 142.534 311.365 142.534 310.763Z" fill="white"/>
<path d="M142.534 322.578C142.534 321.975 142.79 321.397 143.247 320.971C143.703 320.545 144.322 320.305 144.967 320.305L153.727 320.305C154.372 320.305 154.991 320.545 155.447 320.971C155.904 321.397 156.16 321.975 156.16 322.578C156.16 323.18 155.904 323.758 155.447 324.184C154.991 324.61 154.372 324.85 153.727 324.85L144.967 324.85C144.322 324.85 143.703 324.61 143.247 324.184C142.79 323.758 142.534 323.18 142.534 322.578Z" fill="white"/>
<path d="M142.534 334.393C142.534 333.79 142.79 333.212 143.247 332.786C143.703 332.36 144.322 332.12 144.967 332.12L153.727 332.12C154.372 332.12 154.991 332.36 155.447 332.786C155.904 333.212 156.16 333.79 156.16 334.393C156.16 334.995 155.904 335.573 155.447 335.999C154.991 336.425 154.372 336.665 153.727 336.665L144.967 336.665C144.322 336.665 143.703 336.425 143.247 335.999C142.79 335.573 142.534 334.995 142.534 334.393Z" fill="white"/>
<path d="M142.534 346.208C142.534 345.605 142.79 345.027 143.247 344.601C143.703 344.175 144.322 343.935 144.967 343.935L153.727 343.935C154.372 343.935 154.991 344.175 155.447 344.601C155.904 345.027 156.16 345.605 156.16 346.208C156.16 346.81 155.904 347.388 155.447 347.814C154.991 348.24 154.372 348.48 153.727 348.48L144.967 348.48C144.322 348.48 143.703 348.24 143.247 347.814C142.79 347.388 142.534 346.81 142.534 346.208Z" fill="white"/>
<path d="M142.534 370.746C142.534 370.144 142.79 369.566 143.247 369.14C143.703 368.714 144.322 368.474 144.967 368.474L153.727 368.474C154.372 368.474 154.991 368.714 155.447 369.14C155.904 369.566 156.16 370.144 156.16 370.746C156.16 371.349 155.904 371.927 155.447 372.353C154.991 372.779 154.372 373.018 153.727 373.018L144.967 373.018C144.322 373.018 143.703 372.779 143.247 372.353C142.79 371.927 142.534 371.349 142.534 370.746Z" fill="white"/>
<path d="M142.534 382.561C142.534 381.959 142.79 381.381 143.247 380.955C143.703 380.529 144.322 380.289 144.967 380.289L153.727 380.289C154.372 380.289 154.991 380.529 155.447 380.955C155.904 381.381 156.16 381.959 156.16 382.561C156.16 383.164 155.904 383.742 155.447 384.168C154.991 384.594 154.372 384.833 153.727 384.833L144.967 384.833C144.322 384.833 143.703 384.594 143.247 384.168C142.79 383.742 142.534 383.164 142.534 382.561Z" fill="white"/>
<path d="M142.534 394.376C142.534 393.774 142.79 393.196 143.247 392.77C143.703 392.344 144.322 392.104 144.967 392.104L153.727 392.104C154.372 392.104 154.991 392.344 155.447 392.77C155.904 393.196 156.16 393.774 156.16 394.376C156.16 394.979 155.904 395.557 155.447 395.983C154.991 396.409 154.372 396.648 153.727 396.648L144.967 396.648C144.322 396.648 143.703 396.409 143.247 395.983C142.79 395.557 142.534 394.979 142.534 394.376Z" fill="white"/>
<path d="M142.534 406.191C142.534 405.589 142.79 405.011 143.247 404.585C143.703 404.159 144.322 403.919 144.967 403.919L153.727 403.919C154.372 403.919 154.991 404.159 155.447 404.585C155.904 405.011 156.16 405.589 156.16 406.191C156.16 406.794 155.904 407.372 155.447 407.798C154.991 408.224 154.372 408.463 153.727 408.463L144.967 408.463C144.322 408.463 143.703 408.224 143.247 407.798C142.79 407.372 142.534 406.794 142.534 406.191Z" fill="white"/>
<path d="M142.534 428.912C142.534 428.31 142.79 427.732 143.247 427.306C143.703 426.88 144.322 426.64 144.967 426.64L153.727 426.64C154.372 426.64 154.991 426.88 155.447 427.306C155.904 427.732 156.16 428.31 156.16 428.912C156.16 429.515 155.904 430.093 155.447 430.519C154.991 430.945 154.372 431.185 153.727 431.185L144.967 431.185C144.322 431.185 143.703 430.945 143.247 430.519C142.79 430.093 142.534 429.515 142.534 428.912Z" fill="white"/>
<path d="M142.534 440.727C142.534 440.125 142.79 439.547 143.247 439.121C143.703 438.695 144.322 438.455 144.967 438.455L153.727 438.455C154.372 438.455 154.991 438.695 155.447 439.121C155.904 439.547 156.16 440.125 156.16 440.727C156.16 441.33 155.904 441.908 155.447 442.334C154.991 442.76 154.372 442.999 153.727 442.999L144.967 442.999C144.322 442.999 143.703 442.76 143.247 442.334C142.79 441.908 142.534 441.33 142.534 440.727Z" fill="white"/>
<path d="M142.534 452.542C142.534 451.94 142.79 451.362 143.247 450.936C143.703 450.51 144.322 450.27 144.967 450.27L153.727 450.27C154.372 450.27 154.991 450.51 155.447 450.936C155.904 451.362 156.16 451.94 156.16 452.542C156.16 453.145 155.904 453.723 155.447 454.149C154.991 454.575 154.372 454.815 153.727 454.815L144.967 454.815C144.322 454.815 143.703 454.575 143.247 454.149C142.79 453.723 142.534 453.145 142.534 452.542Z" fill="white"/>
<path d="M142.534 464.357C142.534 463.755 142.79 463.177 143.247 462.751C143.703 462.325 144.322 462.085 144.967 462.085L153.727 462.085C154.372 462.085 154.991 462.325 155.447 462.751C155.904 463.177 156.16 463.755 156.16 464.357C156.16 464.96 155.904 465.538 155.447 465.964C154.991 466.39 154.372 466.63 153.727 466.63L144.967 466.63C144.322 466.63 143.703 466.39 143.247 465.964C142.79 465.538 142.534 464.96 142.534 464.357Z" fill="white"/>
<path d="M142.534 486.17C142.534 485.567 142.79 484.989 143.247 484.563C143.703 484.137 144.322 483.897 144.967 483.897L153.727 483.897C154.372 483.897 154.991 484.137 155.447 484.563C155.904 484.989 156.16 485.567 156.16 486.17C156.16 486.772 155.904 487.35 155.447 487.776C154.991 488.202 154.372 488.442 153.727 488.442L144.967 488.442C144.322 488.442 143.703 488.202 143.247 487.776C142.79 487.35 142.534 486.772 142.534 486.17Z" fill="white"/>
<path d="M142.534 497.985C142.534 497.382 142.79 496.804 143.247 496.378C143.703 495.952 144.322 495.713 144.967 495.713L153.727 495.713C154.372 495.713 154.991 495.952 155.447 496.378C155.904 496.804 156.16 497.382 156.16 497.985C156.16 498.587 155.904 499.165 155.447 499.591C154.991 500.017 154.372 500.257 153.727 500.257L144.967 500.257C144.322 500.257 143.703 500.017 143.247 499.591C142.79 499.165 142.534 498.587 142.534 497.985Z" fill="white"/>
<path d="M142.534 509.8C142.534 509.197 142.79 508.619 143.247 508.193C143.703 507.767 144.322 507.528 144.967 507.528L153.727 507.528C154.372 507.528 154.991 507.767 155.447 508.193C155.904 508.619 156.16 509.197 156.16 509.8C156.16 510.402 155.904 510.98 155.447 511.406C154.991 511.832 154.372 512.072 153.727 512.072L144.967 512.072C144.322 512.072 143.703 511.832 143.247 511.406C142.79 510.98 142.534 510.402 142.534 509.8Z" fill="white"/>
<path d="M142.534 521.615C142.534 521.012 142.79 520.434 143.247 520.008C143.703 519.582 144.322 519.343 144.967 519.343L153.727 519.343C154.372 519.343 154.991 519.582 155.447 520.008C155.904 520.434 156.16 521.012 156.16 521.615C156.16 522.217 155.904 522.795 155.447 523.221C154.991 523.647 154.372 523.887 153.727 523.887L144.967 523.887C144.322 523.887 143.703 523.647 143.247 523.221C142.79 522.795 142.534 522.217 142.534 521.615Z" fill="white"/>
<path d="M142.534 544.336C142.534 543.733 142.79 543.155 143.247 542.729C143.703 542.303 144.322 542.064 144.967 542.064L153.727 542.064C154.372 542.064 154.991 542.303 155.447 542.729C155.904 543.155 156.16 543.733 156.16 544.336C156.16 544.939 155.904 545.516 155.447 545.943C154.991 546.369 154.372 546.608 153.727 546.608L144.967 546.608C144.322 546.608 143.703 546.369 143.247 545.943C142.79 545.516 142.534 544.939 142.534 544.336Z" fill="white"/>
<path d="M142.534 556.151C142.534 555.548 142.79 554.97 143.247 554.544C143.703 554.118 144.322 553.879 144.967 553.879L153.727 553.879C154.372 553.879 154.991 554.118 155.447 554.544C155.904 554.97 156.16 555.548 156.16 556.151C156.16 556.753 155.904 557.331 155.447 557.757C154.991 558.183 154.372 558.423 153.727 558.423L144.967 558.423C144.322 558.423 143.703 558.183 143.247 557.757C142.79 557.331 142.534 556.753 142.534 556.151Z" fill="white"/>
<path d="M142.534 567.966C142.534 567.363 142.79 566.785 143.247 566.359C143.703 565.933 144.322 565.694 144.967 565.694L153.727 565.694C154.372 565.694 154.991 565.933 155.447 566.359C155.904 566.785 156.16 567.363 156.16 567.966C156.16 568.568 155.904 569.146 155.447 569.572C154.991 569.999 154.372 570.238 153.727 570.238L144.967 570.238C144.322 570.238 143.703 569.999 143.247 569.572C142.79 569.146 142.534 568.568 142.534 567.966Z" fill="white"/>
<path d="M142.534 579.781C142.534 579.178 142.79 578.6 143.247 578.174C143.703 577.748 144.322 577.509 144.967 577.509L153.727 577.509C154.372 577.509 154.991 577.748 155.447 578.174C155.904 578.6 156.16 579.178 156.16 579.781C156.16 580.383 155.904 580.961 155.447 581.387C154.991 581.814 154.372 582.053 153.727 582.053L144.967 582.053C144.322 582.053 143.703 581.814 143.247 581.387C142.79 580.961 142.534 580.383 142.534 579.781Z" fill="white"/>
<path d="M142.534 601.593C142.534 600.99 142.79 600.413 143.247 599.986C143.703 599.56 144.322 599.321 144.967 599.321L153.727 599.321C154.372 599.321 154.991 599.56 155.447 599.986C155.904 600.413 156.16 600.99 156.16 601.593C156.16 602.196 155.904 602.774 155.447 603.2C154.991 603.626 154.372 603.865 153.727 603.865L144.967 603.865C144.322 603.865 143.703 603.626 143.247 603.2C142.79 602.774 142.534 602.196 142.534 601.593Z" fill="white"/>
<path d="M142.534 613.408C142.534 612.805 142.79 612.228 143.247 611.801C143.703 611.375 144.322 611.136 144.967 611.136L153.727 611.136C154.372 611.136 154.991 611.375 155.447 611.801C155.904 612.228 156.16 612.805 156.16 613.408C156.16 614.011 155.904 614.589 155.447 615.015C154.991 615.441 154.372 615.68 153.727 615.68L144.967 615.68C144.322 615.68 143.703 615.441 143.247 615.015C142.79 614.589 142.534 614.011 142.534 613.408Z" fill="white"/>
<path d="M142.534 625.223C142.534 624.62 142.79 624.042 143.247 623.616C143.703 623.19 144.322 622.951 144.967 622.951L153.727 622.951C154.372 622.951 154.991 623.19 155.447 623.616C155.904 624.042 156.16 624.62 156.16 625.223C156.16 625.826 155.904 626.403 155.447 626.83C154.991 627.256 154.372 627.495 153.727 627.495L144.967 627.495C144.322 627.495 143.703 627.256 143.247 626.83C142.79 626.403 142.534 625.826 142.534 625.223Z" fill="white"/>
<path d="M142.534 637.038C142.534 636.435 142.79 635.858 143.247 635.431C143.703 635.005 144.322 634.766 144.967 634.766L153.727 634.766C154.372 634.766 154.991 635.005 155.447 635.431C155.904 635.858 156.16 636.435 156.16 637.038C156.16 637.641 155.904 638.219 155.447 638.645C154.991 639.071 154.372 639.31 153.727 639.31L144.967 639.31C144.322 639.31 143.703 639.071 143.247 638.645C142.79 638.219 142.534 637.641 142.534 637.038Z" fill="white"/>
<path d="M142.534 660.668C142.534 660.065 142.79 659.487 143.247 659.061C143.703 658.635 144.322 658.396 144.967 658.396L153.727 658.396C154.372 658.396 154.991 658.635 155.447 659.061C155.904 659.487 156.16 660.065 156.16 660.668C156.16 661.271 155.904 661.848 155.447 662.275C154.991 662.701 154.372 662.94 153.727 662.94L144.967 662.94C144.322 662.94 143.703 662.701 143.247 662.275C142.79 661.848 142.534 661.271 142.534 660.668Z" fill="white"/>
<path d="M142.534 672.483C142.534 671.88 142.79 671.303 143.247 670.876C143.703 670.45 144.322 670.211 144.967 670.211L153.727 670.211C154.372 670.211 154.991 670.45 155.447 670.876C155.904 671.303 156.16 671.88 156.16 672.483C156.16 673.086 155.904 673.664 155.447 674.09C154.991 674.516 154.372 674.755 153.727 674.755L144.967 674.755C144.322 674.755 143.703 674.516 143.247 674.09C142.79 673.664 142.534 673.086 142.534 672.483Z" fill="white"/>
<path d="M142.534 684.298C142.534 683.695 142.79 683.117 143.247 682.691C143.703 682.265 144.322 682.026 144.967 682.026L153.727 682.026C154.372 682.026 154.991 682.265 155.447 682.691C155.904 683.117 156.16 683.695 156.16 684.298C156.16 684.901 155.904 685.478 155.447 685.905C154.991 686.331 154.372 686.57 153.727 686.57L144.967 686.57C144.322 686.57 143.703 686.331 143.247 685.905C142.79 685.478 142.534 684.901 142.534 684.298Z" fill="white"/>
<path d="M142.534 696.113C142.534 695.51 142.79 694.933 143.247 694.506C143.703 694.08 144.322 693.841 144.967 693.841L153.727 693.841C154.372 693.841 154.991 694.08 155.447 694.506C155.904 694.933 156.16 695.51 156.16 696.113C156.16 696.716 155.904 697.294 155.447 697.72C154.991 698.146 154.372 698.385 153.727 698.385L144.967 698.385C144.322 698.385 143.703 698.146 143.247 697.72C142.79 697.294 142.534 696.716 142.534 696.113Z" fill="white"/>
</g>
<defs>
<clipPath id="clip0_2694_709">
<rect width="824" height="452" fill="white" transform="translate(452) rotate(90)"/>
</clipPath>
</defs>
</svg>
