<svg width="263" height="474" viewBox="0 0 263 474" fill="none" xmlns="http://www.w3.org/2000/svg">
<path d="M262.162 472.691L262.162 1.30957L3.36713 1.30956L3.36711 472.691L262.162 472.691Z" fill="#60A963" fill-opacity="0.99"/>
<path d="M262.162 68.8742L262.162 1.30957L3.36713 1.30956L3.36712 68.8742L262.162 68.8742Z" fill="#47934B" fill-opacity="0.99"/>
<path d="M262.162 472.691L262.162 406.697L3.36713 406.697L3.36712 472.691L262.162 472.691Z" fill="#47934B" fill-opacity="0.99"/>
<path d="M1.14628 472.691L1.1463 1.30938C1.1463 0.962108 1.29404 0.629058 1.55701 0.3835C1.81998 0.137941 2.17667 -1.13803e-05 2.54855 -1.1364e-05L261.125 -6.12946e-08C261.497 -4.50382e-08 261.853 0.137952 262.116 0.383511C262.379 0.62907 262.527 0.96212 262.527 1.30939L262.527 472.691C262.527 473.038 262.379 473.371 262.116 473.616C261.853 473.862 261.496 474 261.125 474L2.54853 474C2.17665 474 1.81996 473.862 1.55699 473.616C1.29402 473.371 1.14628 473.038 1.14628 472.691ZM3.95081 2.61877L3.95079 471.381L259.722 471.381L259.722 2.61878L3.95081 2.61877Z" fill="white"/>
<path d="M1.14628 472.691L1.1463 1.30938C1.1463 0.962108 1.29404 0.629058 1.55702 0.3835C1.81999 0.137941 2.17666 -1.13803e-05 2.54856 -1.1364e-05L261.125 -6.12946e-08C261.497 -4.50382e-08 261.853 0.137952 262.116 0.383511C262.379 0.62907 262.527 0.96212 262.527 1.30939L262.527 472.691C262.527 473.038 262.379 473.371 262.116 473.616C261.853 473.862 261.496 474 261.125 474L2.54854 474C2.17664 474 1.81997 473.862 1.557 473.616C1.29402 473.371 1.14628 473.038 1.14628 472.691ZM3.95081 2.61877L3.95079 471.381L259.722 471.381L259.722 2.61878L3.95081 2.61877Z" fill="white"/>
<path d="M0.78952 68.2766C0.78952 68.092 0.937347 67.9151 1.2005 67.7846C1.46362 67.6541 1.8205 67.5808 2.1926 67.5808L260.92 67.5808C261.292 67.5808 261.649 67.6541 261.912 67.7846C262.175 67.9151 262.323 68.0921 262.323 68.2766C262.323 68.4611 262.175 68.6381 261.912 68.7686C261.649 68.899 261.292 68.9724 260.92 68.9724L2.1926 68.9723C1.8205 68.9723 1.46362 68.899 1.2005 68.7686C0.937347 68.6381 0.78952 68.4611 0.78952 68.2766Z" fill="white"/>
<path d="M0.78952 103.761C0.78952 103.576 0.937347 103.399 1.2005 103.269C1.46362 103.138 1.8205 103.065 2.1926 103.065L260.92 103.065C261.292 103.065 261.649 103.138 261.912 103.269C262.175 103.399 262.323 103.576 262.323 103.761C262.323 103.945 262.175 104.122 261.912 104.253C261.649 104.383 261.292 104.456 260.92 104.456L2.1926 104.456C1.8205 104.456 1.46362 104.383 1.2005 104.253C0.937347 104.122 0.78952 103.945 0.78952 103.761Z" fill="white"/>
<path d="M0.78952 137.853C0.78952 137.669 0.937347 137.492 1.2005 137.361C1.46362 137.231 1.8205 137.157 2.1926 137.157L260.92 137.157C261.292 137.157 261.649 137.231 261.912 137.361C262.175 137.492 262.323 137.669 262.323 137.853C262.323 138.038 262.175 138.215 261.912 138.345C261.649 138.476 261.292 138.549 260.92 138.549L2.1926 138.549C1.8205 138.549 1.46362 138.476 1.2005 138.345C0.937347 138.215 0.78952 138.038 0.78952 137.853Z" fill="white"/>
<path d="M0.78952 171.946C0.78952 171.761 0.937347 171.584 1.2005 171.454C1.46362 171.323 1.8205 171.25 2.1926 171.25L260.92 171.25C261.292 171.25 261.649 171.323 261.912 171.454C262.175 171.584 262.323 171.761 262.323 171.946C262.323 172.13 262.175 172.307 261.912 172.438C261.649 172.568 261.292 172.642 260.92 172.642L2.1926 172.642C1.8205 172.642 1.46362 172.568 1.2005 172.438C0.937347 172.307 0.78952 172.13 0.78952 171.946Z" fill="white"/>
<path d="M0.78952 205.342C0.78952 205.158 0.937347 204.981 1.2005 204.851C1.46362 204.72 1.8205 204.647 2.1926 204.647L260.92 204.647C261.292 204.647 261.649 204.72 261.912 204.851C262.175 204.981 262.323 205.158 262.323 205.342C262.323 205.527 262.175 205.704 261.912 205.834C261.649 205.965 261.292 206.038 260.92 206.038L2.1926 206.038C1.8205 206.038 1.46362 205.965 1.2005 205.834C0.937347 205.704 0.78952 205.527 0.78952 205.342Z" fill="white"/>
<path d="M0.78952 238.739C0.78952 238.555 0.937347 238.378 1.2005 238.247C1.46362 238.117 1.8205 238.044 2.1926 238.044L260.92 238.044C261.292 238.044 261.649 238.117 261.912 238.247C262.175 238.378 262.323 238.555 262.323 238.739C262.323 238.924 262.175 239.101 261.912 239.231C261.649 239.362 261.292 239.435 260.92 239.435L2.1926 239.435C1.8205 239.435 1.46362 239.362 1.2005 239.231C0.937347 239.101 0.78952 238.924 0.78952 238.739Z" fill="white"/>
<path d="M0.78952 272.832C0.78952 272.647 0.937347 272.47 1.2005 272.34C1.46362 272.209 1.8205 272.136 2.1926 272.136L260.92 272.136C261.292 272.136 261.649 272.209 261.912 272.34C262.175 272.47 262.323 272.647 262.323 272.832C262.323 273.016 262.175 273.193 261.912 273.324C261.649 273.454 261.292 273.528 260.92 273.528L2.1926 273.528C1.8205 273.528 1.46362 273.454 1.2005 273.324C0.937347 273.193 0.78952 273.016 0.78952 272.832Z" fill="white"/>
<path d="M0.78952 305.533C0.78952 305.348 0.937347 305.171 1.2005 305.041C1.46362 304.91 1.8205 304.837 2.1926 304.837L260.92 304.837C261.292 304.837 261.649 304.91 261.912 305.041C262.175 305.171 262.323 305.348 262.323 305.533C262.323 305.717 262.175 305.894 261.912 306.025C261.649 306.155 261.292 306.228 260.92 306.228L2.1926 306.228C1.8205 306.228 1.46362 306.155 1.2005 306.025C0.937347 305.894 0.78952 305.717 0.78952 305.533Z" fill="white"/>
<path d="M0.78952 338.234C0.78952 338.049 0.937347 337.872 1.2005 337.742C1.46362 337.611 1.8205 337.538 2.1926 337.538L260.92 337.538C261.292 337.538 261.649 337.611 261.912 337.742C262.175 337.872 262.323 338.049 262.323 338.234C262.323 338.418 262.175 338.595 261.912 338.726C261.649 338.856 261.292 338.929 260.92 338.929L2.1926 338.929C1.8205 338.929 1.46362 338.856 1.2005 338.726C0.937347 338.595 0.78952 338.418 0.78952 338.234Z" fill="white"/>
<path d="M0.78952 372.326C0.78952 372.142 0.937347 371.965 1.2005 371.834C1.46362 371.704 1.8205 371.63 2.1926 371.63L260.92 371.63C261.292 371.63 261.649 371.704 261.912 371.834C262.175 371.965 262.323 372.142 262.323 372.326C262.323 372.511 262.175 372.688 261.912 372.818C261.649 372.949 261.292 373.022 260.92 373.022L2.1926 373.022C1.8205 373.022 1.46362 372.949 1.2005 372.818C0.937347 372.688 0.78952 372.511 0.78952 372.326Z" fill="white"/>
<path d="M0.78952 407.115C0.78952 406.93 0.937347 406.753 1.2005 406.623C1.46362 406.492 1.8205 406.419 2.1926 406.419L260.92 406.419C261.292 406.419 261.649 406.492 261.912 406.623C262.175 406.753 262.323 406.93 262.323 407.115C262.323 407.299 262.175 407.476 261.912 407.607C261.649 407.737 261.292 407.81 260.92 407.81L2.1926 407.81C1.8205 407.81 1.46362 407.737 1.2005 407.607C0.937347 407.476 0.78952 407.299 0.78952 407.115Z" fill="white"/>
<path d="M111.644 440.741C111.644 440.394 111.792 440.061 112.055 439.815C112.318 439.57 112.674 439.432 113.046 439.432L151.748 439.432C152.12 439.432 152.477 439.57 152.74 439.815C153.003 440.061 153.151 440.394 153.151 440.741C153.151 441.088 153.003 441.421 152.74 441.667C152.477 441.912 152.12 442.05 151.748 442.05L113.046 442.05C112.674 442.05 112.318 441.912 112.055 441.667C111.792 441.421 111.644 441.088 111.644 440.741Z" fill="white"/>
<path d="M111.644 36.4012C111.644 36.0539 111.792 35.7209 112.055 35.4753C112.318 35.2298 112.674 35.0918 113.046 35.0918L151.748 35.0918C152.12 35.0918 152.477 35.2298 152.74 35.4753C153.003 35.7209 153.151 36.0539 153.151 36.4012C153.151 36.7485 153.003 37.0815 152.74 37.3271C152.477 37.5726 152.12 37.7106 151.748 37.7106L113.046 37.7106C112.674 37.7106 112.318 37.5726 112.055 37.3271C111.792 37.0815 111.644 36.7485 111.644 36.4012Z" fill="white"/>
<path d="M172.783 76.7303C172.783 76.383 172.931 76.05 173.194 75.8044C173.457 75.5589 173.813 75.4209 174.185 75.4209L179.233 75.4209C179.605 75.4209 179.962 75.5589 180.225 75.8044C180.488 76.05 180.636 76.383 180.636 76.7303C180.636 77.0776 180.488 77.4106 180.225 77.6562C179.962 77.9017 179.605 78.0397 179.233 78.0397L174.185 78.0397C173.813 78.0397 173.457 77.9017 173.194 77.6562C172.931 77.4106 172.783 77.0776 172.783 76.7303Z" fill="white"/>
<path d="M172.783 83.5394C172.783 83.1921 172.931 82.8591 173.194 82.6135C173.457 82.3679 173.813 82.23 174.185 82.23L179.233 82.23C179.605 82.23 179.962 82.3679 180.225 82.6135C180.488 82.8591 180.636 83.1921 180.636 83.5394C180.636 83.8866 180.488 84.2197 180.225 84.4652C179.962 84.7108 179.605 84.8488 179.233 84.8488L174.185 84.8488C173.813 84.8488 173.457 84.7108 173.194 84.4652C172.931 84.2197 172.783 83.8866 172.783 83.5394Z" fill="white"/>
<path d="M172.783 90.348C172.783 90.0007 172.931 89.6676 173.194 89.4221C173.457 89.1765 173.813 89.0386 174.185 89.0386L179.233 89.0386C179.605 89.0386 179.962 89.1765 180.225 89.4221C180.488 89.6676 180.636 90.0007 180.636 90.348C180.636 90.6952 180.488 91.0283 180.225 91.2738C179.962 91.5194 179.605 91.6574 179.233 91.6574L174.185 91.6574C173.813 91.6574 173.457 91.5194 173.194 91.2738C172.931 91.0283 172.783 90.6952 172.783 90.348Z" fill="white"/>
<path d="M172.783 97.1568C172.783 96.8095 172.931 96.4765 173.194 96.2309C173.457 95.9854 173.813 95.8474 174.185 95.8474L179.233 95.8474C179.605 95.8474 179.962 95.9854 180.225 96.2309C180.488 96.4765 180.636 96.8095 180.636 97.1568C180.636 97.5041 180.488 97.8371 180.225 98.0827C179.962 98.3282 179.605 98.4662 179.233 98.4662L174.185 98.4662C173.813 98.4662 173.457 98.3282 173.194 98.0827C172.931 97.8371 172.783 97.5041 172.783 97.1568Z" fill="white"/>
<path d="M172.783 111.298C172.783 110.951 172.931 110.618 173.194 110.372C173.457 110.127 173.813 109.989 174.185 109.989L179.233 109.989C179.605 109.989 179.962 110.127 180.225 110.372C180.488 110.618 180.636 110.951 180.636 111.298C180.636 111.645 180.488 111.978 180.225 112.224C179.962 112.47 179.605 112.608 179.233 112.608L174.185 112.608C173.813 112.608 173.457 112.47 173.194 112.224C172.931 111.978 172.783 111.645 172.783 111.298Z" fill="white"/>
<path d="M172.783 118.107C172.783 117.76 172.931 117.427 173.194 117.181C173.457 116.936 173.813 116.798 174.185 116.798L179.233 116.798C179.605 116.798 179.962 116.936 180.225 117.181C180.488 117.427 180.636 117.76 180.636 118.107C180.636 118.455 180.488 118.788 180.225 119.033C179.962 119.279 179.605 119.417 179.233 119.417L174.185 119.417C173.813 119.417 173.457 119.279 173.194 119.033C172.931 118.788 172.783 118.455 172.783 118.107Z" fill="white"/>
<path d="M172.783 124.916C172.783 124.569 172.931 124.236 173.194 123.99C173.457 123.744 173.813 123.606 174.185 123.606L179.233 123.606C179.605 123.606 179.962 123.744 180.225 123.99C180.488 124.236 180.636 124.569 180.636 124.916C180.636 125.263 180.488 125.596 180.225 125.842C179.962 126.087 179.605 126.225 179.233 126.225L174.185 126.225C173.813 126.225 173.457 126.087 173.194 125.842C172.931 125.596 172.783 125.263 172.783 124.916Z" fill="white"/>
<path d="M172.783 131.725C172.783 131.377 172.931 131.044 173.194 130.799C173.457 130.553 173.813 130.415 174.185 130.415L179.233 130.415C179.605 130.415 179.962 130.553 180.225 130.799C180.488 131.044 180.636 131.377 180.636 131.725C180.636 132.072 180.488 132.405 180.225 132.651C179.962 132.896 179.605 133.034 179.233 133.034L174.185 133.034C173.813 133.034 173.457 132.896 173.194 132.651C172.931 132.405 172.783 132.072 172.783 131.725Z" fill="white"/>
<path d="M172.783 144.819C172.783 144.471 172.931 144.138 173.194 143.893C173.457 143.647 173.813 143.509 174.185 143.509L179.233 143.509C179.605 143.509 179.962 143.647 180.225 143.893C180.488 144.138 180.636 144.471 180.636 144.819C180.636 145.166 180.488 145.499 180.225 145.745C179.962 145.99 179.605 146.128 179.233 146.128L174.185 146.128C173.813 146.128 173.457 145.99 173.194 145.745C172.931 145.499 172.783 145.166 172.783 144.819Z" fill="white"/>
<path d="M172.783 151.628C172.783 151.28 172.931 150.947 173.194 150.702C173.457 150.456 173.813 150.318 174.185 150.318L179.233 150.318C179.605 150.318 179.962 150.456 180.225 150.702C180.488 150.947 180.636 151.28 180.636 151.628C180.636 151.975 180.488 152.308 180.225 152.554C179.962 152.799 179.605 152.937 179.233 152.937L174.185 152.937C173.813 152.937 173.457 152.799 173.194 152.554C172.931 152.308 172.783 151.975 172.783 151.628Z" fill="white"/>
<path d="M172.783 158.436C172.783 158.089 172.931 157.756 173.194 157.51C173.457 157.265 173.813 157.127 174.185 157.127L179.233 157.127C179.605 157.127 179.962 157.265 180.225 157.51C180.488 157.756 180.636 158.089 180.636 158.436C180.636 158.784 180.488 159.117 180.225 159.362C179.962 159.608 179.605 159.746 179.233 159.746L174.185 159.746C173.813 159.746 173.457 159.608 173.194 159.362C172.931 159.117 172.783 158.784 172.783 158.436Z" fill="white"/>
<path d="M172.783 165.245C172.783 164.898 172.931 164.565 173.194 164.319C173.457 164.074 173.813 163.936 174.185 163.936L179.233 163.936C179.605 163.936 179.962 164.074 180.225 164.319C180.488 164.565 180.636 164.898 180.636 165.245C180.636 165.592 180.488 165.926 180.225 166.171C179.962 166.417 179.605 166.555 179.233 166.555L174.185 166.555C173.813 166.555 173.457 166.417 173.194 166.171C172.931 165.926 172.783 165.592 172.783 165.245Z" fill="white"/>
<path d="M172.783 178.339C172.783 177.992 172.931 177.659 173.194 177.414C173.457 177.168 173.813 177.03 174.185 177.03L179.233 177.03C179.605 177.03 179.962 177.168 180.225 177.414C180.488 177.659 180.636 177.992 180.636 178.339C180.636 178.687 180.488 179.02 180.225 179.265C179.962 179.511 179.605 179.649 179.233 179.649L174.185 179.649C173.813 179.649 173.457 179.511 173.194 179.265C172.931 179.02 172.783 178.687 172.783 178.339Z" fill="white"/>
<path d="M172.783 185.148C172.783 184.8 172.931 184.467 173.194 184.222C173.457 183.976 173.813 183.838 174.185 183.838L179.233 183.838C179.605 183.838 179.962 183.976 180.225 184.222C180.488 184.467 180.636 184.8 180.636 185.148C180.636 185.495 180.488 185.828 180.225 186.074C179.962 186.319 179.605 186.457 179.233 186.457L174.185 186.457C173.813 186.457 173.457 186.319 173.194 186.074C172.931 185.828 172.783 185.495 172.783 185.148Z" fill="white"/>
<path d="M172.783 191.957C172.783 191.609 172.931 191.276 173.194 191.031C173.457 190.785 173.813 190.647 174.185 190.647L179.233 190.647C179.605 190.647 179.962 190.785 180.225 191.031C180.488 191.276 180.636 191.609 180.636 191.957C180.636 192.304 180.488 192.637 180.225 192.882C179.962 193.128 179.605 193.266 179.233 193.266L174.185 193.266C173.813 193.266 173.457 193.128 173.194 192.882C172.931 192.637 172.783 192.304 172.783 191.957Z" fill="white"/>
<path d="M172.783 198.766C172.783 198.418 172.931 198.085 173.194 197.84C173.457 197.594 173.813 197.456 174.185 197.456L179.233 197.456C179.605 197.456 179.962 197.594 180.225 197.84C180.488 198.085 180.636 198.418 180.636 198.766C180.636 199.113 180.488 199.446 180.225 199.692C179.962 199.937 179.605 200.075 179.233 200.075L174.185 200.075C173.813 200.075 173.457 199.937 173.194 199.692C172.931 199.446 172.783 199.113 172.783 198.766Z" fill="white"/>
<path d="M172.783 212.907C172.783 212.56 172.931 212.227 173.194 211.981C173.457 211.736 173.813 211.598 174.185 211.598L179.233 211.598C179.605 211.598 179.962 211.736 180.225 211.981C180.488 212.227 180.636 212.56 180.636 212.907C180.636 213.254 180.488 213.587 180.225 213.833C179.962 214.078 179.605 214.216 179.233 214.216L174.185 214.216C173.813 214.216 173.457 214.078 173.194 213.833C172.931 213.587 172.783 213.254 172.783 212.907Z" fill="white"/>
<path d="M172.783 219.716C172.783 219.368 172.931 219.035 173.194 218.79C173.457 218.544 173.813 218.406 174.185 218.406L179.233 218.406C179.605 218.406 179.962 218.544 180.225 218.79C180.488 219.035 180.636 219.368 180.636 219.716C180.636 220.063 180.488 220.396 180.225 220.642C179.962 220.887 179.605 221.025 179.233 221.025L174.185 221.025C173.813 221.025 173.457 220.887 173.194 220.642C172.931 220.396 172.783 220.063 172.783 219.716Z" fill="white"/>
<path d="M172.783 226.525C172.783 226.177 172.931 225.844 173.194 225.599C173.457 225.353 173.813 225.215 174.185 225.215L179.233 225.215C179.605 225.215 179.962 225.353 180.225 225.599C180.488 225.844 180.636 226.177 180.636 226.525C180.636 226.872 180.488 227.205 180.225 227.451C179.962 227.696 179.605 227.834 179.233 227.834L174.185 227.834C173.813 227.834 173.457 227.696 173.194 227.451C172.931 227.205 172.783 226.872 172.783 226.525Z" fill="white"/>
<path d="M172.783 233.334C172.783 232.986 172.931 232.653 173.194 232.408C173.457 232.162 173.813 232.024 174.185 232.024L179.233 232.024C179.605 232.024 179.962 232.162 180.225 232.408C180.488 232.653 180.636 232.986 180.636 233.334C180.636 233.681 180.488 234.014 180.225 234.259C179.962 234.505 179.605 234.643 179.233 234.643L174.185 234.643C173.813 234.643 173.457 234.505 173.194 234.259C172.931 234.014 172.783 233.681 172.783 233.334Z" fill="white"/>
<path d="M172.783 246.427C172.783 246.08 172.931 245.747 173.194 245.501C173.457 245.256 173.813 245.118 174.185 245.118L179.233 245.118C179.605 245.118 179.962 245.256 180.225 245.501C180.488 245.747 180.636 246.08 180.636 246.427C180.636 246.775 180.488 247.108 180.225 247.353C179.962 247.599 179.605 247.737 179.233 247.737L174.185 247.737C173.813 247.737 173.457 247.599 173.194 247.353C172.931 247.108 172.783 246.775 172.783 246.427Z" fill="white"/>
<path d="M172.783 253.236C172.783 252.889 172.931 252.556 173.194 252.31C173.457 252.065 173.813 251.927 174.185 251.927L179.233 251.927C179.605 251.927 179.962 252.065 180.225 252.31C180.488 252.556 180.636 252.889 180.636 253.236C180.636 253.583 180.488 253.916 180.225 254.162C179.962 254.408 179.605 254.546 179.233 254.546L174.185 254.546C173.813 254.546 173.457 254.408 173.194 254.162C172.931 253.916 172.783 253.583 172.783 253.236Z" fill="white"/>
<path d="M172.783 260.045C172.783 259.698 172.931 259.365 173.194 259.12C173.457 258.874 173.813 258.736 174.185 258.736L179.233 258.736C179.605 258.736 179.962 258.874 180.225 259.12C180.488 259.365 180.636 259.698 180.636 260.045C180.636 260.393 180.488 260.726 180.225 260.971C179.962 261.217 179.605 261.355 179.233 261.355L174.185 261.355C173.813 261.355 173.457 261.217 173.194 260.971C172.931 260.726 172.783 260.393 172.783 260.045Z" fill="white"/>
<path d="M172.783 266.854C172.783 266.507 172.931 266.174 173.194 265.928C173.457 265.682 173.813 265.544 174.185 265.544L179.233 265.544C179.605 265.544 179.962 265.682 180.225 265.928C180.488 266.174 180.636 266.507 180.636 266.854C180.636 267.201 180.488 267.534 180.225 267.78C179.962 268.025 179.605 268.163 179.233 268.163L174.185 268.163C173.813 268.163 173.457 268.025 173.194 267.78C172.931 267.534 172.783 267.201 172.783 266.854Z" fill="white"/>
<path d="M172.783 279.424C172.783 279.077 172.931 278.744 173.194 278.498C173.457 278.252 173.813 278.115 174.185 278.115L179.233 278.115C179.605 278.115 179.962 278.252 180.225 278.498C180.488 278.744 180.636 279.077 180.636 279.424C180.636 279.771 180.488 280.104 180.225 280.35C179.962 280.595 179.605 280.733 179.233 280.733L174.185 280.733C173.813 280.733 173.457 280.595 173.194 280.35C172.931 280.104 172.783 279.771 172.783 279.424Z" fill="white"/>
<path d="M172.783 286.233C172.783 285.885 172.931 285.552 173.194 285.307C173.457 285.061 173.813 284.923 174.185 284.923L179.233 284.923C179.605 284.923 179.962 285.061 180.225 285.307C180.488 285.552 180.636 285.885 180.636 286.233C180.636 286.58 180.488 286.913 180.225 287.159C179.962 287.404 179.605 287.542 179.233 287.542L174.185 287.542C173.813 287.542 173.457 287.404 173.194 287.159C172.931 286.913 172.783 286.58 172.783 286.233Z" fill="white"/>
<path d="M172.783 293.042C172.783 292.695 172.931 292.362 173.194 292.116C173.457 291.871 173.813 291.733 174.185 291.733L179.233 291.733C179.605 291.733 179.962 291.871 180.225 292.116C180.488 292.362 180.636 292.695 180.636 293.042C180.636 293.389 180.488 293.722 180.225 293.968C179.962 294.213 179.605 294.351 179.233 294.351L174.185 294.351C173.813 294.351 173.457 294.213 173.194 293.968C172.931 293.722 172.783 293.389 172.783 293.042Z" fill="white"/>
<path d="M172.783 299.851C172.783 299.503 172.931 299.17 173.194 298.925C173.457 298.679 173.813 298.541 174.185 298.541L179.233 298.541C179.605 298.541 179.962 298.679 180.225 298.925C180.488 299.17 180.636 299.503 180.636 299.851C180.636 300.198 180.488 300.531 180.225 300.777C179.962 301.022 179.605 301.16 179.233 301.16L174.185 301.16C173.813 301.16 173.457 301.022 173.194 300.777C172.931 300.531 172.783 300.198 172.783 299.851Z" fill="white"/>
<path d="M172.783 312.945C172.783 312.598 172.931 312.265 173.194 312.019C173.457 311.773 173.813 311.635 174.185 311.635L179.233 311.635C179.605 311.635 179.962 311.773 180.225 312.019C180.488 312.265 180.636 312.598 180.636 312.945C180.636 313.292 180.488 313.625 180.225 313.871C179.962 314.116 179.605 314.254 179.233 314.254L174.185 314.254C173.813 314.254 173.457 314.116 173.194 313.871C172.931 313.625 172.783 313.292 172.783 312.945Z" fill="white"/>
<path d="M172.783 319.753C172.783 319.406 172.931 319.073 173.194 318.827C173.457 318.582 173.813 318.444 174.185 318.444L179.233 318.444C179.605 318.444 179.962 318.582 180.225 318.827C180.488 319.073 180.636 319.406 180.636 319.753C180.636 320.101 180.488 320.434 180.225 320.679C179.962 320.925 179.605 321.063 179.233 321.063L174.185 321.063C173.813 321.063 173.457 320.925 173.194 320.679C172.931 320.434 172.783 320.101 172.783 319.753Z" fill="white"/>
<path d="M172.783 326.562C172.783 326.215 172.931 325.882 173.194 325.636C173.457 325.391 173.813 325.253 174.185 325.253L179.233 325.253C179.605 325.253 179.962 325.391 180.225 325.636C180.488 325.882 180.636 326.215 180.636 326.562C180.636 326.91 180.488 327.243 180.225 327.488C179.962 327.734 179.605 327.872 179.233 327.872L174.185 327.872C173.813 327.872 173.457 327.734 173.194 327.488C172.931 327.243 172.783 326.91 172.783 326.562Z" fill="white"/>
<path d="M172.783 333.371C172.783 333.024 172.931 332.691 173.194 332.445C173.457 332.2 173.813 332.062 174.185 332.062L179.233 332.062C179.605 332.062 179.962 332.2 180.225 332.445C180.488 332.691 180.636 333.024 180.636 333.371C180.636 333.718 180.488 334.051 180.225 334.297C179.962 334.543 179.605 334.681 179.233 334.681L174.185 334.681C173.813 334.681 173.457 334.543 173.194 334.297C172.931 334.051 172.783 333.718 172.783 333.371Z" fill="white"/>
<path d="M172.783 345.941C172.783 345.594 172.931 345.261 173.194 345.015C173.457 344.77 173.813 344.632 174.185 344.632L179.233 344.632C179.605 344.632 179.962 344.77 180.225 345.015C180.488 345.261 180.636 345.594 180.636 345.941C180.636 346.289 180.488 346.622 180.225 346.867C179.962 347.113 179.605 347.251 179.233 347.251L174.185 347.251C173.813 347.251 173.457 347.113 173.194 346.867C172.931 346.622 172.783 346.289 172.783 345.941Z" fill="white"/>
<path d="M172.783 352.75C172.783 352.403 172.931 352.07 173.194 351.824C173.457 351.579 173.813 351.441 174.185 351.441L179.233 351.441C179.605 351.441 179.962 351.579 180.225 351.824C180.488 352.07 180.636 352.403 180.636 352.75C180.636 353.097 180.488 353.43 180.225 353.676C179.962 353.922 179.605 354.059 179.233 354.059L174.185 354.059C173.813 354.059 173.457 353.922 173.194 353.676C172.931 353.43 172.783 353.097 172.783 352.75Z" fill="white"/>
<path d="M172.783 359.559C172.783 359.211 172.931 358.878 173.194 358.633C173.457 358.387 173.813 358.249 174.185 358.249L179.233 358.249C179.605 358.249 179.962 358.387 180.225 358.633C180.488 358.878 180.636 359.211 180.636 359.559C180.636 359.906 180.488 360.239 180.225 360.485C179.962 360.73 179.605 360.868 179.233 360.868L174.185 360.868C173.813 360.868 173.457 360.73 173.194 360.485C172.931 360.239 172.783 359.906 172.783 359.559Z" fill="white"/>
<path d="M172.783 366.368C172.783 366.02 172.931 365.687 173.194 365.442C173.457 365.196 173.813 365.058 174.185 365.058L179.233 365.058C179.605 365.058 179.962 365.196 180.225 365.442C180.488 365.687 180.636 366.02 180.636 366.368C180.636 366.715 180.488 367.048 180.225 367.294C179.962 367.539 179.605 367.677 179.233 367.677L174.185 367.677C173.813 367.677 173.457 367.539 173.194 367.294C172.931 367.048 172.783 366.715 172.783 366.368Z" fill="white"/>
<path d="M172.783 379.985C172.783 379.638 172.931 379.305 173.194 379.06C173.457 378.814 173.813 378.676 174.185 378.676L179.233 378.676C179.605 378.676 179.962 378.814 180.225 379.06C180.488 379.305 180.636 379.638 180.636 379.985C180.636 380.333 180.488 380.666 180.225 380.911C179.962 381.157 179.605 381.295 179.233 381.295L174.185 381.295C173.813 381.295 173.457 381.157 173.194 380.911C172.931 380.666 172.783 380.333 172.783 379.985Z" fill="white"/>
<path d="M172.783 386.794C172.783 386.447 172.931 386.114 173.194 385.868C173.457 385.623 173.813 385.485 174.185 385.485L179.233 385.485C179.605 385.485 179.962 385.623 180.225 385.868C180.488 386.114 180.636 386.447 180.636 386.794C180.636 387.141 180.488 387.474 180.225 387.72C179.962 387.965 179.605 388.103 179.233 388.103L174.185 388.103C173.813 388.103 173.457 387.965 173.194 387.72C172.931 387.474 172.783 387.141 172.783 386.794Z" fill="white"/>
<path d="M172.783 393.603C172.783 393.256 172.931 392.923 173.194 392.677C173.457 392.432 173.813 392.294 174.185 392.294L179.233 392.294C179.605 392.294 179.962 392.432 180.225 392.677C180.488 392.923 180.636 393.256 180.636 393.603C180.636 393.95 180.488 394.283 180.225 394.529C179.962 394.775 179.605 394.912 179.233 394.912L174.185 394.912C173.813 394.912 173.457 394.775 173.194 394.529C172.931 394.283 172.783 393.95 172.783 393.603Z" fill="white"/>
<path d="M172.783 400.412C172.783 400.065 172.931 399.732 173.194 399.486C173.457 399.241 173.813 399.103 174.185 399.103L179.233 399.103C179.605 399.103 179.962 399.241 180.225 399.486C180.488 399.732 180.636 400.065 180.636 400.412C180.636 400.759 180.488 401.092 180.225 401.338C179.962 401.584 179.605 401.722 179.233 401.722L174.185 401.722C173.813 401.722 173.457 401.584 173.194 401.338C172.931 401.092 172.783 400.759 172.783 400.412Z" fill="white"/>
<path d="M83.5983 76.7303C83.5983 76.383 83.746 76.05 84.009 75.8044C84.272 75.5589 84.6286 75.4209 85.0005 75.4209L90.0487 75.4209C90.4206 75.4209 90.7772 75.5589 91.0402 75.8044C91.3032 76.05 91.4509 76.383 91.4509 76.7303C91.4509 77.0776 91.3032 77.4106 91.0402 77.6562C90.7772 77.9017 90.4206 78.0397 90.0487 78.0397L85.0005 78.0397C84.6286 78.0397 84.272 77.9017 84.009 77.6562C83.746 77.4106 83.5983 77.0776 83.5983 76.7303Z" fill="white"/>
<path d="M83.5983 83.5394C83.5983 83.1921 83.746 82.8591 84.009 82.6135C84.272 82.3679 84.6286 82.23 85.0005 82.23L90.0487 82.23C90.4206 82.23 90.7772 82.3679 91.0402 82.6135C91.3032 82.8591 91.4509 83.1921 91.4509 83.5394C91.4509 83.8866 91.3032 84.2197 91.0402 84.4652C90.7772 84.7108 90.4206 84.8488 90.0487 84.8488L85.0005 84.8488C84.6286 84.8488 84.272 84.7108 84.009 84.4652C83.746 84.2197 83.5983 83.8866 83.5983 83.5394Z" fill="white"/>
<path d="M83.5983 90.348C83.5983 90.0007 83.746 89.6676 84.009 89.4221C84.272 89.1765 84.6286 89.0386 85.0005 89.0386L90.0487 89.0386C90.4206 89.0386 90.7772 89.1765 91.0402 89.4221C91.3032 89.6676 91.4509 90.0007 91.4509 90.348C91.4509 90.6952 91.3032 91.0283 91.0402 91.2738C90.7772 91.5194 90.4206 91.6574 90.0487 91.6574L85.0005 91.6574C84.6286 91.6574 84.272 91.5194 84.009 91.2738C83.746 91.0283 83.5983 90.6952 83.5983 90.348Z" fill="white"/>
<path d="M83.5983 97.1568C83.5983 96.8095 83.746 96.4765 84.009 96.2309C84.272 95.9854 84.6286 95.8474 85.0005 95.8474L90.0487 95.8474C90.4206 95.8474 90.7772 95.9854 91.0402 96.2309C91.3032 96.4765 91.4509 96.8095 91.4509 97.1568C91.4509 97.5041 91.3032 97.8371 91.0402 98.0827C90.7772 98.3282 90.4206 98.4662 90.0487 98.4662L85.0005 98.4662C84.6286 98.4662 84.272 98.3282 84.009 98.0827C83.746 97.8371 83.5983 97.5041 83.5983 97.1568Z" fill="white"/>
<path d="M83.5983 111.298C83.5983 110.951 83.746 110.618 84.009 110.372C84.272 110.127 84.6286 109.989 85.0005 109.989L90.0487 109.989C90.4206 109.989 90.7772 110.127 91.0402 110.372C91.3032 110.618 91.4509 110.951 91.4509 111.298C91.4509 111.645 91.3032 111.978 91.0402 112.224C90.7772 112.47 90.4206 112.608 90.0487 112.608L85.0005 112.608C84.6286 112.608 84.272 112.47 84.009 112.224C83.746 111.978 83.5983 111.645 83.5983 111.298Z" fill="white"/>
<path d="M83.5983 118.107C83.5983 117.76 83.746 117.427 84.009 117.181C84.272 116.936 84.6286 116.798 85.0005 116.798L90.0487 116.798C90.4206 116.798 90.7772 116.936 91.0402 117.181C91.3032 117.427 91.4509 117.76 91.4509 118.107C91.4509 118.455 91.3032 118.788 91.0402 119.033C90.7772 119.279 90.4206 119.417 90.0487 119.417L85.0005 119.417C84.6286 119.417 84.272 119.279 84.009 119.033C83.746 118.788 83.5983 118.455 83.5983 118.107Z" fill="white"/>
<path d="M83.5983 124.916C83.5983 124.569 83.746 124.236 84.009 123.99C84.272 123.744 84.6286 123.606 85.0005 123.606L90.0487 123.606C90.4206 123.606 90.7772 123.744 91.0402 123.99C91.3032 124.236 91.4509 124.569 91.4509 124.916C91.4509 125.263 91.3032 125.596 91.0402 125.842C90.7772 126.087 90.4206 126.225 90.0487 126.225L85.0005 126.225C84.6286 126.225 84.272 126.087 84.009 125.842C83.746 125.596 83.5983 125.263 83.5983 124.916Z" fill="white"/>
<path d="M83.5983 131.725C83.5983 131.377 83.746 131.044 84.009 130.799C84.272 130.553 84.6286 130.415 85.0005 130.415L90.0487 130.415C90.4206 130.415 90.7772 130.553 91.0402 130.799C91.3032 131.044 91.4509 131.377 91.4509 131.725C91.4509 132.072 91.3032 132.405 91.0402 132.651C90.7772 132.896 90.4206 133.034 90.0487 133.034L85.0005 133.034C84.6286 133.034 84.272 132.896 84.009 132.651C83.746 132.405 83.5983 132.072 83.5983 131.725Z" fill="white"/>
<path d="M83.5983 144.819C83.5983 144.471 83.746 144.138 84.009 143.893C84.272 143.647 84.6286 143.509 85.0005 143.509L90.0487 143.509C90.4206 143.509 90.7772 143.647 91.0402 143.893C91.3032 144.138 91.4509 144.471 91.4509 144.819C91.4509 145.166 91.3032 145.499 91.0402 145.745C90.7772 145.99 90.4206 146.128 90.0487 146.128L85.0005 146.128C84.6286 146.128 84.272 145.99 84.009 145.745C83.746 145.499 83.5983 145.166 83.5983 144.819Z" fill="white"/>
<path d="M83.5983 151.628C83.5983 151.28 83.746 150.947 84.009 150.702C84.272 150.456 84.6286 150.318 85.0005 150.318L90.0487 150.318C90.4206 150.318 90.7772 150.456 91.0402 150.702C91.3032 150.947 91.4509 151.28 91.4509 151.628C91.4509 151.975 91.3032 152.308 91.0402 152.554C90.7772 152.799 90.4206 152.937 90.0487 152.937L85.0005 152.937C84.6286 152.937 84.272 152.799 84.009 152.554C83.746 152.308 83.5983 151.975 83.5983 151.628Z" fill="white"/>
<path d="M83.5983 158.436C83.5983 158.089 83.746 157.756 84.009 157.51C84.272 157.265 84.6286 157.127 85.0005 157.127L90.0487 157.127C90.4206 157.127 90.7772 157.265 91.0402 157.51C91.3032 157.756 91.4509 158.089 91.4509 158.436C91.4509 158.784 91.3032 159.117 91.0402 159.362C90.7772 159.608 90.4206 159.746 90.0487 159.746L85.0005 159.746C84.6286 159.746 84.272 159.608 84.009 159.362C83.746 159.117 83.5983 158.784 83.5983 158.436Z" fill="white"/>
<path d="M83.5983 165.245C83.5983 164.898 83.746 164.565 84.009 164.319C84.272 164.074 84.6286 163.936 85.0005 163.936L90.0487 163.936C90.4206 163.936 90.7772 164.074 91.0402 164.319C91.3032 164.565 91.4509 164.898 91.4509 165.245C91.4509 165.592 91.3032 165.926 91.0402 166.171C90.7772 166.417 90.4206 166.555 90.0487 166.555L85.0005 166.555C84.6286 166.555 84.272 166.417 84.009 166.171C83.746 165.926 83.5983 165.592 83.5983 165.245Z" fill="white"/>
<path d="M83.5983 178.339C83.5983 177.992 83.746 177.659 84.009 177.414C84.272 177.168 84.6286 177.03 85.0005 177.03L90.0487 177.03C90.4206 177.03 90.7772 177.168 91.0402 177.414C91.3032 177.659 91.4509 177.992 91.4509 178.339C91.4509 178.687 91.3032 179.02 91.0402 179.265C90.7772 179.511 90.4206 179.649 90.0487 179.649L85.0005 179.649C84.6286 179.649 84.272 179.511 84.009 179.265C83.746 179.02 83.5983 178.687 83.5983 178.339Z" fill="white"/>
<path d="M83.5983 185.148C83.5983 184.8 83.746 184.467 84.009 184.222C84.272 183.976 84.6286 183.838 85.0005 183.838L90.0487 183.838C90.4206 183.838 90.7772 183.976 91.0402 184.222C91.3032 184.467 91.4509 184.8 91.4509 185.148C91.4509 185.495 91.3032 185.828 91.0402 186.074C90.7772 186.319 90.4206 186.457 90.0487 186.457L85.0005 186.457C84.6286 186.457 84.272 186.319 84.009 186.074C83.746 185.828 83.5983 185.495 83.5983 185.148Z" fill="white"/>
<path d="M83.5983 191.957C83.5983 191.61 83.746 191.277 84.009 191.031C84.272 190.785 84.6286 190.647 85.0005 190.647L90.0487 190.647C90.4206 190.647 90.7772 190.785 91.0402 191.031C91.3032 191.277 91.4509 191.61 91.4509 191.957C91.4509 192.304 91.3032 192.637 91.0402 192.883C90.7772 193.128 90.4206 193.266 90.0487 193.266L85.0005 193.266C84.6286 193.266 84.272 193.128 84.009 192.883C83.746 192.637 83.5983 192.304 83.5983 191.957Z" fill="white"/>
<path d="M83.5983 198.766C83.5983 198.418 83.746 198.085 84.009 197.84C84.272 197.594 84.6286 197.456 85.0005 197.456L90.0487 197.456C90.4206 197.456 90.7772 197.594 91.0402 197.84C91.3032 198.085 91.4509 198.418 91.4509 198.766C91.4509 199.113 91.3032 199.446 91.0402 199.692C90.7772 199.937 90.4206 200.075 90.0487 200.075L85.0005 200.075C84.6286 200.075 84.272 199.937 84.009 199.692C83.746 199.446 83.5983 199.113 83.5983 198.766Z" fill="white"/>
<path d="M83.5983 212.907C83.5983 212.56 83.746 212.227 84.009 211.981C84.272 211.736 84.6286 211.598 85.0005 211.598L90.0487 211.598C90.4206 211.598 90.7772 211.736 91.0402 211.981C91.3032 212.227 91.4509 212.56 91.4509 212.907C91.4509 213.254 91.3032 213.587 91.0402 213.833C90.7772 214.078 90.4206 214.216 90.0487 214.216L85.0005 214.216C84.6286 214.216 84.272 214.078 84.009 213.833C83.746 213.587 83.5983 213.254 83.5983 212.907Z" fill="white"/>
<path d="M83.5983 219.716C83.5983 219.368 83.746 219.035 84.009 218.79C84.272 218.544 84.6286 218.406 85.0005 218.406L90.0487 218.406C90.4206 218.406 90.7772 218.544 91.0402 218.79C91.3032 219.035 91.4509 219.368 91.4509 219.716C91.4509 220.063 91.3032 220.396 91.0402 220.642C90.7772 220.887 90.4206 221.025 90.0487 221.025L85.0005 221.025C84.6286 221.025 84.272 220.887 84.009 220.642C83.746 220.396 83.5983 220.063 83.5983 219.716Z" fill="white"/>
<path d="M83.5983 226.525C83.5983 226.177 83.746 225.844 84.009 225.599C84.272 225.353 84.6286 225.215 85.0005 225.215L90.0487 225.215C90.4206 225.215 90.7772 225.353 91.0402 225.599C91.3032 225.844 91.4509 226.177 91.4509 226.525C91.4509 226.872 91.3032 227.205 91.0402 227.451C90.7772 227.696 90.4206 227.834 90.0487 227.834L85.0005 227.834C84.6286 227.834 84.272 227.696 84.009 227.451C83.746 227.205 83.5983 226.872 83.5983 226.525Z" fill="white"/>
<path d="M83.5983 233.334C83.5983 232.986 83.746 232.653 84.009 232.408C84.272 232.162 84.6286 232.024 85.0005 232.024L90.0487 232.024C90.4206 232.024 90.7772 232.162 91.0402 232.408C91.3032 232.653 91.4509 232.986 91.4509 233.334C91.4509 233.681 91.3032 234.014 91.0402 234.259C90.7772 234.505 90.4206 234.643 90.0487 234.643L85.0005 234.643C84.6286 234.643 84.272 234.505 84.009 234.259C83.746 234.014 83.5983 233.681 83.5983 233.334Z" fill="white"/>
<path d="M83.5983 246.427C83.5983 246.08 83.746 245.747 84.009 245.501C84.272 245.256 84.6286 245.118 85.0005 245.118L90.0487 245.118C90.4206 245.118 90.7772 245.256 91.0402 245.501C91.3032 245.747 91.4509 246.08 91.4509 246.427C91.4509 246.775 91.3032 247.108 91.0402 247.353C90.7772 247.599 90.4206 247.737 90.0487 247.737L85.0005 247.737C84.6286 247.737 84.272 247.599 84.009 247.353C83.746 247.108 83.5983 246.775 83.5983 246.427Z" fill="white"/>
<path d="M83.5983 253.236C83.5983 252.889 83.746 252.556 84.009 252.31C84.272 252.065 84.6286 251.927 85.0005 251.927L90.0487 251.927C90.4206 251.927 90.7772 252.065 91.0402 252.31C91.3032 252.556 91.4509 252.889 91.4509 253.236C91.4509 253.583 91.3032 253.916 91.0402 254.162C90.7772 254.408 90.4206 254.546 90.0487 254.546L85.0005 254.546C84.6286 254.546 84.272 254.408 84.009 254.162C83.746 253.916 83.5983 253.583 83.5983 253.236Z" fill="white"/>
<path d="M83.5983 260.045C83.5983 259.698 83.746 259.365 84.009 259.12C84.272 258.874 84.6286 258.736 85.0005 258.736L90.0487 258.736C90.4206 258.736 90.7772 258.874 91.0402 259.12C91.3032 259.365 91.4509 259.698 91.4509 260.045C91.4509 260.393 91.3032 260.726 91.0402 260.971C90.7772 261.217 90.4206 261.355 90.0487 261.355L85.0005 261.355C84.6286 261.355 84.272 261.217 84.009 260.971C83.746 260.726 83.5983 260.393 83.5983 260.045Z" fill="white"/>
<path d="M83.5983 266.854C83.5983 266.507 83.746 266.174 84.009 265.928C84.272 265.682 84.6286 265.544 85.0005 265.544L90.0487 265.544C90.4206 265.544 90.7772 265.682 91.0402 265.928C91.3032 266.174 91.4509 266.507 91.4509 266.854C91.4509 267.201 91.3032 267.534 91.0402 267.78C90.7772 268.025 90.4206 268.163 90.0487 268.163L85.0005 268.163C84.6286 268.163 84.272 268.025 84.009 267.78C83.746 267.534 83.5983 267.201 83.5983 266.854Z" fill="white"/>
<path d="M83.5983 279.424C83.5983 279.077 83.746 278.744 84.009 278.498C84.272 278.252 84.6286 278.115 85.0005 278.115L90.0487 278.115C90.4206 278.115 90.7772 278.252 91.0402 278.498C91.3032 278.744 91.4509 279.077 91.4509 279.424C91.4509 279.771 91.3032 280.104 91.0402 280.35C90.7772 280.595 90.4206 280.733 90.0487 280.733L85.0005 280.733C84.6286 280.733 84.272 280.595 84.009 280.35C83.746 280.104 83.5983 279.771 83.5983 279.424Z" fill="white"/>
<path d="M83.5983 286.233C83.5983 285.885 83.746 285.552 84.009 285.307C84.272 285.061 84.6286 284.923 85.0005 284.923L90.0487 284.923C90.4206 284.923 90.7772 285.061 91.0402 285.307C91.3032 285.552 91.4509 285.885 91.4509 286.233C91.4509 286.58 91.3032 286.913 91.0402 287.159C90.7772 287.404 90.4206 287.542 90.0487 287.542L85.0005 287.542C84.6286 287.542 84.272 287.404 84.009 287.159C83.746 286.913 83.5983 286.58 83.5983 286.233Z" fill="white"/>
<path d="M83.5983 293.042C83.5983 292.695 83.746 292.362 84.009 292.116C84.272 291.871 84.6286 291.733 85.0005 291.733L90.0487 291.733C90.4206 291.733 90.7772 291.871 91.0402 292.116C91.3032 292.362 91.4509 292.695 91.4509 293.042C91.4509 293.389 91.3032 293.722 91.0402 293.968C90.7772 294.213 90.4206 294.351 90.0487 294.351L85.0005 294.351C84.6286 294.351 84.272 294.213 84.009 293.968C83.746 293.722 83.5983 293.389 83.5983 293.042Z" fill="white"/>
<path d="M83.5983 299.851C83.5983 299.503 83.746 299.17 84.009 298.925C84.272 298.679 84.6286 298.541 85.0005 298.541L90.0487 298.541C90.4206 298.541 90.7772 298.679 91.0402 298.925C91.3032 299.17 91.4509 299.503 91.4509 299.851C91.4509 300.198 91.3032 300.531 91.0402 300.777C90.7772 301.022 90.4206 301.16 90.0487 301.16L85.0005 301.16C84.6286 301.16 84.272 301.022 84.009 300.777C83.746 300.531 83.5983 300.198 83.5983 299.851Z" fill="white"/>
<path d="M83.5983 312.945C83.5983 312.598 83.746 312.265 84.009 312.019C84.272 311.773 84.6286 311.635 85.0005 311.635L90.0487 311.635C90.4206 311.635 90.7772 311.773 91.0402 312.019C91.3032 312.265 91.4509 312.598 91.4509 312.945C91.4509 313.292 91.3032 313.625 91.0402 313.871C90.7772 314.116 90.4206 314.254 90.0487 314.254L85.0005 314.254C84.6286 314.254 84.272 314.116 84.009 313.871C83.746 313.625 83.5983 313.292 83.5983 312.945Z" fill="white"/>
<path d="M83.5983 319.753C83.5983 319.406 83.746 319.073 84.009 318.827C84.272 318.582 84.6286 318.444 85.0005 318.444L90.0487 318.444C90.4206 318.444 90.7772 318.582 91.0402 318.827C91.3032 319.073 91.4509 319.406 91.4509 319.753C91.4509 320.101 91.3032 320.434 91.0402 320.679C90.7772 320.925 90.4206 321.063 90.0487 321.063L85.0005 321.063C84.6286 321.063 84.272 320.925 84.009 320.679C83.746 320.434 83.5983 320.101 83.5983 319.753Z" fill="white"/>
<path d="M83.5983 326.562C83.5983 326.215 83.746 325.882 84.009 325.636C84.272 325.391 84.6286 325.253 85.0005 325.253L90.0487 325.253C90.4206 325.253 90.7772 325.391 91.0402 325.636C91.3032 325.882 91.4509 326.215 91.4509 326.562C91.4509 326.91 91.3032 327.243 91.0402 327.488C90.7772 327.734 90.4206 327.872 90.0487 327.872L85.0005 327.872C84.6286 327.872 84.272 327.734 84.009 327.488C83.746 327.243 83.5983 326.91 83.5983 326.562Z" fill="white"/>
<path d="M83.5983 333.371C83.5983 333.024 83.746 332.691 84.009 332.445C84.272 332.2 84.6286 332.062 85.0005 332.062L90.0487 332.062C90.4206 332.062 90.7772 332.2 91.0402 332.445C91.3032 332.691 91.4509 333.024 91.4509 333.371C91.4509 333.718 91.3032 334.051 91.0402 334.297C90.7772 334.543 90.4206 334.681 90.0487 334.681L85.0005 334.681C84.6286 334.681 84.272 334.543 84.009 334.297C83.746 334.051 83.5983 333.718 83.5983 333.371Z" fill="white"/>
<path d="M83.5983 345.941C83.5983 345.594 83.746 345.261 84.009 345.015C84.272 344.77 84.6286 344.632 85.0005 344.632L90.0487 344.632C90.4206 344.632 90.7772 344.77 91.0402 345.015C91.3032 345.261 91.4509 345.594 91.4509 345.941C91.4509 346.289 91.3032 346.622 91.0402 346.867C90.7772 347.113 90.4206 347.251 90.0487 347.251L85.0005 347.251C84.6286 347.251 84.272 347.113 84.009 346.867C83.746 346.622 83.5983 346.289 83.5983 345.941Z" fill="white"/>
<path d="M83.5983 352.75C83.5983 352.403 83.746 352.07 84.009 351.824C84.272 351.579 84.6286 351.441 85.0005 351.441L90.0487 351.441C90.4206 351.441 90.7772 351.579 91.0402 351.824C91.3032 352.07 91.4509 352.403 91.4509 352.75C91.4509 353.097 91.3032 353.43 91.0402 353.676C90.7772 353.922 90.4206 354.059 90.0487 354.059L85.0005 354.059C84.6286 354.059 84.272 353.922 84.009 353.676C83.746 353.43 83.5983 353.097 83.5983 352.75Z" fill="white"/>
<path d="M83.5983 359.559C83.5983 359.212 83.746 358.879 84.009 358.633C84.272 358.387 84.6286 358.25 85.0005 358.25L90.0487 358.25C90.4206 358.25 90.7772 358.387 91.0402 358.633C91.3032 358.879 91.4509 359.212 91.4509 359.559C91.4509 359.906 91.3032 360.239 91.0402 360.485C90.7772 360.73 90.4206 360.868 90.0487 360.868L85.0005 360.868C84.6286 360.868 84.272 360.73 84.009 360.485C83.746 360.239 83.5983 359.906 83.5983 359.559Z" fill="white"/>
<path d="M83.5983 366.368C83.5983 366.02 83.746 365.687 84.009 365.442C84.272 365.196 84.6286 365.058 85.0005 365.058L90.0487 365.058C90.4206 365.058 90.7772 365.196 91.0402 365.442C91.3032 365.687 91.4509 366.02 91.4509 366.368C91.4509 366.715 91.3032 367.048 91.0402 367.294C90.7772 367.539 90.4206 367.677 90.0487 367.677L85.0005 367.677C84.6286 367.677 84.272 367.539 84.009 367.294C83.746 367.048 83.5983 366.715 83.5983 366.368Z" fill="white"/>
<path d="M83.5983 379.986C83.5983 379.638 83.746 379.305 84.009 379.06C84.272 378.814 84.6286 378.676 85.0005 378.676L90.0487 378.676C90.4206 378.676 90.7772 378.814 91.0402 379.06C91.3032 379.305 91.4509 379.638 91.4509 379.986C91.4509 380.333 91.3032 380.666 91.0402 380.912C90.7772 381.157 90.4206 381.295 90.0487 381.295L85.0005 381.295C84.6286 381.295 84.272 381.157 84.009 380.912C83.746 380.666 83.5983 380.333 83.5983 379.986Z" fill="white"/>
<path d="M83.5983 386.794C83.5983 386.447 83.746 386.114 84.009 385.868C84.272 385.623 84.6286 385.485 85.0005 385.485L90.0487 385.485C90.4206 385.485 90.7772 385.623 91.0402 385.868C91.3032 386.114 91.4509 386.447 91.4509 386.794C91.4509 387.141 91.3032 387.474 91.0402 387.72C90.7772 387.965 90.4206 388.103 90.0487 388.103L85.0005 388.103C84.6286 388.103 84.272 387.965 84.009 387.72C83.746 387.474 83.5983 387.141 83.5983 386.794Z" fill="white"/>
<path d="M83.5983 393.603C83.5983 393.256 83.746 392.923 84.009 392.677C84.272 392.432 84.6286 392.294 85.0005 392.294L90.0487 392.294C90.4206 392.294 90.7772 392.432 91.0402 392.677C91.3032 392.923 91.4509 393.256 91.4509 393.603C91.4509 393.95 91.3032 394.283 91.0402 394.529C90.7772 394.775 90.4206 394.912 90.0487 394.912L85.0005 394.912C84.6286 394.912 84.272 394.775 84.009 394.529C83.746 394.283 83.5983 393.95 83.5983 393.603Z" fill="white"/>
<path d="M83.5983 400.412C83.5983 400.065 83.746 399.732 84.009 399.486C84.272 399.241 84.6286 399.103 85.0005 399.103L90.0487 399.103C90.4206 399.103 90.7772 399.241 91.0402 399.486C91.3032 399.732 91.4509 400.065 91.4509 400.412C91.4509 400.759 91.3032 401.092 91.0402 401.338C90.7772 401.584 90.4206 401.722 90.0487 401.722L85.0005 401.722C84.6286 401.722 84.272 401.584 84.009 401.338C83.746 401.092 83.5983 400.759 83.5983 400.412Z" fill="white"/>
</svg>
