<svg width="30" height="32" viewBox="0 0 30 32" fill="none" xmlns="http://www.w3.org/2000/svg">
<path d="M14.1989 1.13525V10.4764H12.746C12.1211 10.4764 11.6032 10.9394 11.5078 11.5452C8.44613 11.883 5.18857 12.8086 3.27441 13.4179C2.95144 13.5206 2.66842 13.6973 2.43994 13.9249C2.47129 7.16234 7.64259 1.63051 14.1989 1.13525Z" fill="#808080"/>
<path d="M16.1545 1.13829V10.4764H14.1982V1.13524C14.5148 1.11131 14.8347 1.09912 15.1573 1.09912C15.4798 1.09912 15.8255 1.11218 16.1545 1.13829Z" fill="#D1D3D4"/>
<path d="M27.874 13.7799C27.6786 13.6219 27.4518 13.4979 27.201 13.4178C25.2675 12.802 21.9636 11.8646 18.8748 11.5351C18.7756 10.9341 18.2598 10.4763 17.6384 10.4763H16.1545V1.13818C22.6456 1.64824 27.7701 7.09651 27.874 13.7799Z" fill="#808080"/>
<path d="M27.8755 13.7799C27.6801 13.6219 27.4533 13.4979 27.2025 13.4178C25.269 12.802 21.9651 11.8646 18.8763 11.5352C18.8879 11.6039 18.8939 11.6749 18.8939 11.7471V12.5779C18.8939 12.7807 18.8471 12.9726 18.7634 13.1428C20.3108 13.3125 21.9282 13.6459 23.354 13.9997C24.7386 14.3426 25.9425 14.7047 26.7262 14.9541C26.9586 15.0281 27.1025 15.26 27.0681 15.5055L26.4368 20.0063C25.8939 20.156 25.0981 20.294 24.0674 20.415C22.005 20.6574 19.0009 20.8332 15.1936 20.9046C11.6887 20.9703 8.48435 20.6422 6.31723 20.3349C5.30539 20.1922 4.51945 20.0533 4.03458 19.9615L3.41012 15.5055C3.37533 15.26 3.51921 15.0281 3.75155 14.9541C4.51172 14.7121 5.66701 14.3644 6.99837 14.0306H6.9988C8.42852 13.672 10.0618 13.3299 11.6285 13.1524C11.5418 12.98 11.4928 12.7846 11.4928 12.5779V11.7471C11.4928 11.6783 11.4984 11.6109 11.5087 11.5452C8.44699 11.8829 5.18943 12.8086 3.27527 13.4178C2.9523 13.5205 2.66928 13.6972 2.4408 13.9248C1.9804 14.3831 1.74076 15.0477 1.83653 15.7318L2.89132 23.2542C3.45522 27.2759 6.85278 30.264 10.8615 30.264H19.6163C23.625 30.264 27.0226 27.2759 27.5865 23.2542L28.6413 15.7318C28.7478 14.9715 28.4398 14.2356 27.8755 13.7799ZM10.8615 28.6542C9.24495 28.6542 7.74265 28.0358 6.59424 27.0096C5.47159 26.0069 4.68695 24.6134 4.46448 23.0275L4.29183 21.7946C4.80119 21.8877 5.53344 22.0113 6.43834 22.1375C7.67265 22.3098 9.22777 22.4861 10.9744 22.5936L11.8244 28.6542H10.8615ZM16.8728 28.6542H13.4886L12.6348 22.6715C13.4611 22.698 14.3179 22.7063 15.1936 22.6898C16.0676 22.6732 16.8995 22.6515 17.6871 22.6245L16.8728 28.6542ZM26.0133 23.0275C25.7857 24.6508 24.9693 26.0721 23.8037 27.0805C22.6656 28.0641 21.1955 28.6542 19.6163 28.6542H18.4911L19.3157 22.5588C21.1405 22.4735 22.678 22.3577 23.9007 22.2189C24.8555 22.1114 25.6186 21.9895 26.1774 21.8577L26.0133 23.0275Z" fill="#D1D3D4"/>
<path d="M6.59269 27.0097C5.47005 26.007 4.6854 24.6135 4.46293 23.0276L4.29028 21.7947C4.79964 21.8878 5.53189 22.0114 6.43679 22.1376L6.59269 27.0097Z" fill="#808080"/>
<path d="M26.1764 21.8577L26.0124 23.0275C25.7848 24.6508 24.9683 26.0721 23.8027 27.0805L23.8998 22.2189C24.8545 22.1114 25.6177 21.9895 26.1764 21.8577Z" fill="#808080"/>
<path d="M18.8928 11.7471V12.5779C18.8928 12.7807 18.846 12.9726 18.7623 13.1428C18.557 13.561 18.1309 13.8487 17.6388 13.8487H12.7458C12.257 13.8487 11.834 13.5654 11.6274 13.1524C11.5407 12.98 11.4917 12.7846 11.4917 12.5779V11.7471C11.4917 11.6783 11.4973 11.6109 11.5076 11.5452C11.6029 10.9394 12.1209 10.4763 12.7458 10.4763H17.6388C18.2602 10.4763 18.776 10.9341 18.8752 11.5352C18.8868 11.6039 18.8928 11.6749 18.8928 11.7471Z" fill="#6DCEF8"/>
<path d="M5.44842 16.3084C5.74261 17.6718 6.12441 19.444 6.31682 20.3348C5.30498 20.1921 4.51904 20.0533 4.03416 19.9614L3.40971 15.5054C3.37492 15.26 3.51879 15.028 3.75114 14.954C4.51131 14.712 5.66659 14.3643 6.99796 14.0305C6.33056 14.457 5.49609 15.2043 5.44455 16.2901C5.44584 16.2962 5.44713 16.3023 5.44842 16.3084Z" fill="#808080"/>
<path d="M27.0676 15.5055L26.4363 20.0064C25.8934 20.1561 25.0976 20.2941 24.0669 20.415C24.2524 19.5538 24.6488 17.7138 24.952 16.3081C24.9533 16.302 24.9546 16.2963 24.9559 16.2902C24.9026 15.1778 24.0282 14.4206 23.3535 13.9998C24.7381 14.3427 25.942 14.7048 26.7257 14.9541C26.9581 15.0281 27.102 15.2601 27.0676 15.5055Z" fill="#808080"/>
<path d="M24.9562 16.2902C24.955 16.2963 24.9537 16.3019 24.9524 16.308C24.449 16.5726 23.554 16.8346 22.2115 16.5039C19.1485 15.8023 12.3868 15.3589 8.18916 16.5039C6.84706 16.8346 5.95203 16.5726 5.44869 16.3085C5.4474 16.3024 5.44611 16.2963 5.44482 16.2902C5.49636 15.2044 6.33083 14.4571 6.99823 14.0306H6.99866C8.42838 13.672 10.0617 13.33 11.6284 13.1524C11.835 13.5654 12.258 13.8487 12.7467 13.8487H17.6397C18.1319 13.8487 18.5579 13.561 18.7632 13.1428C20.3106 13.3126 21.928 13.6459 23.3539 13.9997C24.0286 14.4206 24.903 15.1778 24.9562 16.2902Z" fill="#917267"/>
</svg>
