<svg width="19" height="24" viewBox="0 0 19 24" fill="none" xmlns="http://www.w3.org/2000/svg">
<path d="M0.465111 9.09326L8.38186 0.504584C8.68863 0.166405 9.09437 0 9.5001 0C9.90584 0 10.3106 0.167748 10.6193 0.503243L18.5361 9.09193C19.1546 9.76291 19.1546 10.8499 18.5361 11.5209C17.9176 12.1919 16.9157 12.1919 16.2971 11.5209L11.0835 5.86177V22.3306C11.0835 23.2802 10.3744 24 9.54463 24C8.71486 24 7.91675 23.2802 7.91675 22.3306V5.86177L2.70159 11.5196C2.08309 12.1906 1.08113 12.1906 0.462638 11.5196C-0.155859 10.8486 -0.153385 9.76426 0.465111 9.09326Z" fill="#03A1CD"/>
</svg>
