<svg width="13" height="17" viewBox="0 0 13 17" fill="none" xmlns="http://www.w3.org/2000/svg">
<path d="M11.7819 10.526L6.84053 16.4635C6.64906 16.6972 6.3958 16.8123 6.14256 16.8123C5.88931 16.8123 5.63668 16.6964 5.44397 16.4645L0.502548 10.5269C0.116501 10.063 0.116501 9.31157 0.502548 8.8477C0.888598 8.38384 1.51399 8.38384 1.90004 8.8477L5.15428 12.76V1.3748C5.15428 0.718335 5.59684 0.220703 6.11477 0.220703C6.63269 0.220703 7.13085 0.718335 7.13085 1.3748V12.76L10.386 8.84864C10.772 8.38477 11.3974 8.38477 11.7835 8.84864C12.1695 9.3125 12.168 10.0621 11.7819 10.526Z" fill="#CD0303"/>
</svg>
