<svg width="28" height="39" viewBox="0 0 28 39" fill="none" xmlns="http://www.w3.org/2000/svg">
<g clip-path="url(#clip0_7019_3162)">
<path d="M17.0234 17.8325V19.4998L23.1694 20.6209C25.7553 21.0924 27.603 23.0375 27.603 25.2888V28.505H21.5575V38.7966H6.44389V28.505H0.398438V25.2888C0.398438 23.0375 2.24608 21.0924 4.83202 20.6209L10.978 19.4998V17.8325H17.0234Z" fill="#383838"/>
<path d="M23.1743 20.6209L17.0284 19.4998V17.8325H10.9829V19.4998L5.92969 20.4215C7.17127 28.0444 13.3112 34.3339 21.5625 36.9049V28.505H27.6079V25.2888C27.6079 23.0375 25.7603 21.0924 23.1743 20.6209Z" fill="#4C4C4C"/>
<path d="M4.82692 20.6211C4.68939 20.6462 4.55488 20.6777 4.42188 20.7105L6.43879 25.289V28.5051V38.7968H9.46152V19.7759L4.82692 20.6211Z" fill="#C3D1E8"/>
<path d="M23.5709 20.7105C23.4379 20.677 23.3034 20.6462 23.1658 20.6211L18.5312 19.7759V38.7968H21.554V25.289L23.5709 20.7105Z" fill="#C3D1E8"/>
<path d="M12.4844 17.8325H15.5071V38.7966H12.4844V17.8325Z" fill="#C3D1E8"/>
<path d="M5.92969 20.4217C6.41559 23.4043 7.65189 26.1805 9.47157 28.6119V19.7759L5.92969 20.4217Z" fill="#F0F3F4"/>
<path d="M23.5709 20.7105C23.4379 20.677 23.3034 20.6462 23.1658 20.6211L18.5312 19.7759V35.7531C19.5023 36.1924 20.5104 36.5802 21.554 36.9057V25.289L23.5709 20.7105Z" fill="#F0F3F4"/>
<path d="M12.4922 17.8325V31.8736C13.4247 32.6943 14.4343 33.4514 15.5149 34.1313V17.8325H12.4922Z" fill="#F0F3F4"/>
<path d="M21.5547 28.5049H26.8445V38.7965H21.5547V28.5049Z" fill="#F2BBA7"/>
<path d="M17.025 19.4998V17.8325H10.9796V19.4998L8.85156 19.8876C9.25434 21.3503 10.4944 22.5377 12.1176 23.0652L14.0023 23.3585L17.4006 19.568L17.025 19.4998Z" fill="#D08F7C"/>
<path d="M5.6875 10.146V6.11426C5.6875 4.69336 7.04093 3.54134 8.71023 3.54134V3.19979C8.71023 1.91912 9.81655 0.833989 11.3052 0.652599L12.6541 0.488575C13.5504 0.37987 14.4542 0.325195 15.3595 0.325195C16.9608 0.325195 18.5515 0.54518 20.0704 0.9755C21.4095 1.35565 22.3125 2.42148 22.3125 3.62239V10.146" fill="#383838"/>
<path d="M20.0695 0.9755C18.5506 0.544536 16.9599 0.325195 15.3586 0.325195C14.4533 0.325195 13.5495 0.37987 12.6533 0.488575L11.3044 0.652599C9.81494 0.83399 8.70863 1.91912 8.70863 3.19979V3.54134C8.30811 3.54134 7.92725 3.61081 7.57812 3.73174C8.63608 6.60376 11.7873 8.68717 15.5098 8.68717H22.3109V3.62239C22.3109 2.42148 21.4079 1.35565 20.0695 0.9755Z" fill="#4C4C4C"/>
<path d="M7.95241 9.97363H6.44105C5.60602 9.97363 4.92969 10.5493 4.92969 11.2601V12.5465C4.92969 13.2573 5.60602 13.833 6.44105 13.833H8.21161" fill="#D08F7C"/>
<path d="M20.0483 9.97363H21.5596C22.3947 9.97363 23.071 10.5493 23.071 11.2601V12.5465C23.071 13.2573 22.3947 13.833 21.5596 13.833H19.7891" fill="#D08F7C"/>
<path d="M16.6646 6.11426C17.6961 6.11426 18.5327 6.82631 18.5327 7.70432C18.5327 8.30638 18.9324 8.85699 19.5657 9.1265L20.044 9.3304V11.9033C20.044 13.9025 19.2203 15.8386 17.7173 17.3746C16.7976 18.3137 15.4351 18.8566 13.9986 18.8566C12.562 18.8566 11.1995 18.3137 10.2799 17.374C8.77682 15.8386 7.95312 13.9025 7.95312 11.9033V9.3304L8.43147 9.1265C9.06473 8.85699 9.46449 8.30638 9.46449 7.70432C9.46449 6.82631 10.301 6.11426 11.3325 6.11426H16.6646Z" fill="#D08F7C"/>
<path d="M10.9801 7.72812C10.9907 8.32182 10.5713 8.86085 9.9471 9.1265C9.65389 9.25129 9.46875 9.50665 9.46875 9.78581V11.9033C9.46875 13.9025 10.2924 15.8386 11.7955 17.3746C12.5512 18.1471 13.6084 18.6456 14.7585 18.8007C15.9079 18.6456 16.9651 18.1471 17.7216 17.3746C19.2246 15.8386 20.0483 13.9025 20.0483 11.9033V9.3304L19.57 9.1265C18.9458 8.86085 18.5271 8.32182 18.5369 7.72812C18.552 6.83918 17.7102 6.11426 16.6689 6.11426H12.8482C11.8068 6.11426 10.965 6.83918 10.9801 7.72812Z" fill="#F2BBA7"/>
<path d="M13.7893 18.2589L13.2422 14.9971H16.2649L16.8347 17.907" fill="#05509B"/>
<path d="M13.7919 18.259L16.8373 17.9072L16.5192 16.2837H13.4609L13.7919 18.259Z" fill="#00447C"/>
<path d="M18.5369 20.3362C18.5369 21.0695 18.2951 21.7642 17.8644 22.3624C17.4261 22.9606 16.7989 23.4494 16.0356 23.7775L15.5142 24.0026C14.5167 25.9066 13.2849 27.714 11.8491 29.3929C10.4058 31.0653 8.75841 32.609 6.92966 33.9984C6.12864 34.603 5.10091 34.9375 4.0354 34.9375C3.18148 34.9375 2.38045 34.5773 1.91193 33.9727C1.42074 33.3423 1.15625 32.6026 1.15625 31.85V28.5052H6.31L12.4915 22.7161L13.028 20.4262C13.1716 19.8087 13.3605 19.2041 13.5948 18.6059C13.8366 17.9884 14.5167 17.5703 15.2875 17.5703C16.3757 17.5703 17.3883 18.0334 17.9928 18.8053C18.348 19.2556 18.5369 19.7895 18.5369 20.3362Z" fill="#F2BBA7"/>
<path d="M5.28711 28.5049L4.375 29.3584L5.4919 30.2242L6.86799 28.9378L6.30879 28.5049H5.28711Z" fill="#D08F7C"/>
<path d="M0.398438 25.289V28.5051H3.42116V25.9322C3.42116 25.1224 3.86928 24.3595 4.63026 23.8738L5.55899 23.2808L4.42698 20.7104C2.05565 21.3022 0.398438 23.1573 0.398438 25.289Z" fill="#C3D1E8"/>
<path d="M23.5773 20.7104L22.4453 23.2808L23.374 23.8738C24.135 24.3595 24.5831 25.1224 24.5831 25.9322V28.5051H27.6059V25.289C27.6059 23.1573 25.9487 21.3022 23.5773 20.7104Z" fill="#F0F3F4"/>
</g>
<defs>
<clipPath id="clip0_7019_3162">
<rect width="28" height="39" fill="white"/>
</clipPath>
</defs>
</svg>
