<svg width="37" height="27" viewBox="0 0 37 27" fill="none" xmlns="http://www.w3.org/2000/svg">
<g clip-path="url(#clip0_7034_3258)">
<path d="M33.2313 23.819L3.76346 23.819C2.76793 23.819 1.96094 23.0119 1.96094 22.0165L1.96094 4.98319C1.96094 3.98765 2.76793 3.18066 3.76346 3.18066L33.2313 3.18066C34.2268 3.18066 35.0338 3.98765 35.0338 4.98319V22.0165C35.0338 23.012 34.2267 23.819 33.2313 23.819Z" fill="#79CE6F"/>
<path d="M12.4221 3.18066L3.76346 3.18066C2.76793 3.18066 1.96094 3.98765 1.96094 4.98319L1.96094 22.0165C1.96094 23.012 2.76793 23.819 3.76346 23.819L16.7222 23.819C12.9794 19.2125 11.9731 10.396 12.4221 3.18066Z" fill="#4DC176"/>
<path d="M11.1088 13.4999C11.1088 11.6416 9.73317 10.0991 7.94684 9.83593V8.20605C7.94684 7.90673 7.70417 7.66406 7.40484 7.66406L1.91699 7.66406C1.61767 7.66406 1.375 7.90673 1.375 8.20605C1.375 8.50538 1.61767 8.74805 1.91699 8.74805H6.86278L6.86278 18.2517H1.91699C1.61767 18.2517 1.375 18.4944 1.375 18.7937C1.375 19.093 1.61767 19.3357 1.91699 19.3357H7.40477C7.7041 19.3357 7.94676 19.093 7.94676 18.7937V17.1638C9.7331 16.9007 11.1088 15.3581 11.1088 13.4999ZM7.94676 16.0632L7.94676 10.9366C9.13221 11.187 10.0248 12.241 10.0248 13.4999C10.0248 14.7587 9.13221 15.8128 7.94676 16.0632Z" fill="white"/>
<path d="M35.0824 18.2517H30.1366V8.74805L35.0824 8.74805C35.3818 8.74805 35.6244 8.50538 35.6244 8.20605C35.6244 7.90673 35.3818 7.66406 35.0824 7.66406L29.5946 7.66406C29.2952 7.66406 29.0526 7.90673 29.0526 8.20605V9.83593C27.2663 10.0991 25.8906 11.6416 25.8906 13.4999C25.8906 15.3581 27.2663 16.9007 29.0526 17.1638V18.7937C29.0526 19.093 29.2952 19.3357 29.5946 19.3357H35.0824C35.3818 19.3357 35.6244 19.093 35.6244 18.7937C35.6244 18.4944 35.3818 18.2517 35.0824 18.2517ZM26.9746 13.4999C26.9746 12.241 27.8672 11.1869 29.0526 10.9366V16.062C27.8672 15.8117 26.9746 14.7587 26.9746 13.4999Z" fill="white"/>
<path d="M19.0439 9.8506V3.32422C19.0439 3.02489 18.8013 2.78223 18.5019 2.78223C18.2026 2.78223 17.96 3.02489 17.96 3.32422V9.8506C16.1816 10.1136 14.8125 11.6497 14.8125 13.4999C14.8125 15.3501 16.1816 16.8862 17.96 17.1492V23.6756C17.96 23.9749 18.2026 24.2176 18.5019 24.2176C18.8013 24.2176 19.0439 23.9749 19.0439 23.6756V17.1493C20.8223 16.8863 22.1915 15.3502 22.1915 13.4999C22.1915 11.6497 20.8223 10.1136 19.0439 9.8506ZM17.96 16.0482C16.7826 15.7981 15.8965 14.7506 15.8965 13.4999C15.8965 12.2491 16.7826 11.2017 17.96 10.9515L17.96 16.0482ZM19.0439 16.0482V10.9515C20.2213 11.2016 21.1075 12.249 21.1075 13.4999C21.1075 14.7507 20.2213 15.7981 19.0439 16.0482Z" fill="white"/>
<path d="M32.5919 0.945801L12.6163 0.945801C11.8418 1.63428 11.602 2.74334 12.4 3.63119L32.5919 3.63119C33.544 3.63119 34.3158 4.40299 34.3158 5.35502V21.6448C34.3158 22.5969 33.544 23.3687 32.5919 23.3687L16.3768 23.3687C16.121 24.7114 17.6318 25.7883 19.3528 26.054L32.5919 26.054C35.0232 26.054 37.0012 24.0761 37.0012 21.6448V5.35502C37.0012 2.92378 35.0232 0.945801 32.5919 0.945801Z" fill="#EBCA5F"/>
<path d="M2.68539 21.6448L2.68539 5.35502C2.68539 4.40299 3.45719 3.63119 4.40921 3.63119L12.3988 3.63119C12.448 2.70829 12.5209 1.80916 12.6151 0.945801L4.40921 0.945801C1.97798 0.945801 0 2.92378 0 5.35502L0 21.6448C0 24.0761 1.97798 26.0541 4.40921 26.0541L19.3517 26.0541C18.2004 25.4303 17.2134 24.5111 16.3756 23.3687L4.40921 23.3687C3.45719 23.3687 2.68539 22.5969 2.68539 21.6448Z" fill="#E6AC49"/>
</g>
<defs>
<clipPath id="clip0_7034_3258">
<rect width="37" height="27" fill="white"/>
</clipPath>
</defs>
</svg>
