<svg width="29" height="29" viewBox="0 0 29 29" fill="none" xmlns="http://www.w3.org/2000/svg">
<g clip-path="url(#clip0_6567_13086)">
<path d="M14.4999 28.9999C22.508 28.9999 28.9999 22.508 28.9999 14.4999C28.9999 6.49185 22.508 0 14.4999 0C6.49185 0 0 6.49185 0 14.4999C0 22.508 6.49185 28.9999 14.4999 28.9999Z" fill="#E1EFFB"/>
<path d="M14.4992 0C14.0622 0 13.6302 0.0204472 13.2031 0.058283C20.6039 0.714009 26.407 6.92876 26.407 14.4999C26.407 22.0711 20.6039 28.2859 13.2031 28.9416C13.6302 28.9794 14.0622 28.9999 14.4992 28.9999C22.5073 28.9999 28.9991 22.508 28.9991 14.4999C28.9991 6.49184 22.5073 0 14.4992 0Z" fill="#CCDFED"/>
<path d="M20.003 13.0229L24.4137 11.3047L28.9975 14.6895C28.9983 14.6263 28.9999 14.5633 28.9999 14.4999C28.9999 10.9977 27.7582 7.78551 25.6911 5.27951L24.2079 10.4449L19.8142 12.1566L14.9379 8.7689V4.27527L19.7052 0.96334C18.0894 0.341655 16.3346 0 14.4999 0C12.6652 0 10.9105 0.341655 9.2948 0.96334L14.062 4.27527V8.7689L9.19081 12.1531L4.79025 10.4388L3.30876 5.27951C1.24167 7.78551 0 10.9977 0 14.4999C0 14.5633 0.00158593 14.6263 0.0023789 14.6895L4.59104 11.3011L8.99472 13.0166L10.7946 18.3134L7.8567 22.4429L2.26318 22.2813C4.13005 25.211 7.02012 27.4245 10.43 28.4199L8.57117 22.9494L11.4806 18.8599H17.5183L20.4284 22.9503L18.57 28.4198C21.9798 27.4245 24.8698 25.2109 26.7368 22.2813L21.1423 22.4429L18.205 18.3142L20.003 13.0229Z" fill="#B30B0B"/>
<path d="M24.095 22.3576C22.8148 24.3387 21.0652 25.9879 19.0028 27.1471L18.5703 28.4198C19.5243 28.1413 20.4375 27.7674 21.2991 27.3092C21.3057 27.3056 21.3123 27.3023 21.3189 27.2987C21.4058 27.2523 21.4922 27.2049 21.5781 27.1568C21.5895 27.1504 21.601 27.1441 21.6125 27.1376C21.6951 27.091 21.7772 27.0435 21.8589 26.9953C21.873 26.987 21.8871 26.9787 21.9012 26.9703C21.981 26.9228 22.0602 26.8746 22.1391 26.8257C22.1542 26.8163 22.1694 26.8068 22.1844 26.7974C22.2624 26.7485 22.34 26.699 22.4169 26.6488C22.4319 26.639 22.4469 26.6291 22.4618 26.6192C22.5391 26.5684 22.6159 26.517 22.692 26.4648C22.7053 26.4556 22.7186 26.4463 22.7319 26.4371C22.8097 26.3834 22.887 26.3292 22.9636 26.274C22.9733 26.267 22.9828 26.26 22.9924 26.253C23.0725 26.1949 23.1523 26.1364 23.2313 26.0767C23.2333 26.0752 23.2353 26.0736 23.2373 26.0721C23.7437 25.6892 24.2239 25.2737 24.6754 24.829C24.6864 24.8182 24.6976 24.8075 24.7086 24.7966C24.7701 24.7357 24.8306 24.674 24.891 24.6119C24.9085 24.5939 24.9263 24.576 24.9438 24.5579C25.0002 24.4992 25.0559 24.4399 25.1114 24.3804C25.132 24.3583 25.1527 24.3364 25.1731 24.3142C25.2262 24.2565 25.2786 24.1982 25.3308 24.1396C25.3528 24.1149 25.3748 24.0903 25.3966 24.0655C25.4471 24.0079 25.4972 23.9499 25.5468 23.8915C25.5693 23.8651 25.5917 23.8387 25.614 23.8121C25.6627 23.7541 25.7109 23.6957 25.7587 23.6369C25.7809 23.6095 25.803 23.5821 25.825 23.5545C25.8723 23.4955 25.9192 23.4361 25.9656 23.3764C25.9869 23.3489 26.008 23.3211 26.0292 23.2934C26.0756 23.2326 26.1218 23.1717 26.1672 23.1102C26.187 23.0834 26.2065 23.0565 26.2261 23.0295C26.2721 22.9663 26.318 22.9029 26.3631 22.839C26.3803 22.8146 26.3971 22.7898 26.4142 22.7653C26.4609 22.698 26.5075 22.6307 26.5532 22.5625C26.5655 22.5441 26.5775 22.5255 26.5897 22.507C26.6394 22.4322 26.6888 22.3571 26.7371 22.2813L26.7371 22.2812L24.095 22.3576Z" fill="#632020"/>
<path d="M13.2031 0.058283C15.1669 0.232282 17.0182 0.797723 18.6784 1.67605L19.7043 0.963283C19.7041 0.963227 19.7039 0.963113 19.7037 0.963057C19.0131 0.697357 18.2969 0.483313 17.5601 0.324776C17.5377 0.319962 17.5154 0.314864 17.4929 0.310163C17.4137 0.293511 17.3341 0.277934 17.2544 0.262585C17.2194 0.255845 17.1844 0.248935 17.1494 0.242478C17.0769 0.229054 17.0043 0.216536 16.9314 0.204189C16.8884 0.196939 16.8454 0.189689 16.8023 0.182779C16.7345 0.17196 16.6666 0.161708 16.5986 0.151853C16.5496 0.144773 16.5005 0.137863 16.4513 0.131236C16.3875 0.122626 16.3235 0.114414 16.2594 0.106597C16.2051 0.100027 16.1507 0.0939098 16.0962 0.0879625C16.0359 0.0813356 15.9755 0.074822 15.915 0.0689314C15.8554 0.063154 15.7956 0.0580564 15.7358 0.0530154C15.6794 0.048201 15.623 0.0433299 15.5664 0.0391952C15.5005 0.0343807 15.4343 0.0305292 15.3681 0.026621C15.3167 0.0235624 15.2654 0.020164 15.2139 0.0176718C15.1373 0.0139335 15.0605 0.0114414 14.9837 0.00889254C14.9419 0.00753317 14.9001 0.00555076 14.8582 0.00453123C14.7388 0.00164257 14.6192 0 14.4992 0C14.3898 0 14.2808 0.00135937 14.172 0.00379491C13.8462 0.0113281 13.5233 0.0299628 13.2031 0.058283Z" fill="#632020"/>
<path d="M28.9978 14.1471C28.9969 14.1089 28.9952 14.0708 28.994 14.0327C28.9915 13.9536 28.9888 13.8746 28.985 13.7959C28.9828 13.7509 28.9801 13.706 28.9775 13.6611C28.9734 13.5892 28.969 13.5175 28.9639 13.4459C28.9605 13.399 28.9568 13.3522 28.9529 13.3054C28.9472 13.2355 28.941 13.1657 28.9343 13.0961C28.9299 13.0495 28.9253 13.003 28.9204 12.9565C28.9129 12.8856 28.9047 12.8148 28.8962 12.7442C28.8909 12.7002 28.8858 12.656 28.88 12.612C28.8701 12.5353 28.8591 12.4588 28.8479 12.3824C28.8425 12.3452 28.8375 12.308 28.8318 12.271C28.8144 12.1582 28.7959 12.0457 28.7759 11.9338C28.7753 11.9305 28.7746 11.9272 28.774 11.924C28.7545 11.8151 28.7337 11.7068 28.7117 11.5989C28.7041 11.5615 28.6958 11.5245 28.6879 11.4872C28.6723 11.4134 28.6565 11.3396 28.6398 11.2662C28.63 11.223 28.6196 11.18 28.6093 11.1369C28.5934 11.0695 28.5771 11.0023 28.5602 10.9354C28.5489 10.8905 28.5372 10.8458 28.5255 10.8011C28.5083 10.7359 28.4907 10.6709 28.4727 10.606C28.4603 10.5615 28.4478 10.5169 28.435 10.4726C28.416 10.4067 28.3963 10.3412 28.3764 10.2757C28.3636 10.2335 28.351 10.1912 28.3378 10.1491C28.3154 10.0782 28.2923 10.0076 28.2689 9.93706C28.2571 9.90127 28.2457 9.8653 28.2335 9.82967C28.1978 9.72461 28.1611 9.61993 28.123 9.51594C28.1199 9.50745 28.1166 9.49906 28.1135 9.49057C28.0781 9.39456 28.0418 9.29907 28.0045 9.20402C27.9903 9.16777 27.9754 9.13192 27.9609 9.09584C27.934 9.02872 27.9068 8.96166 27.8789 8.89505C27.8616 8.85393 27.8439 8.81309 27.8263 8.7722C27.7999 8.71091 27.7733 8.64974 27.7461 8.58891C27.7272 8.5466 27.708 8.50446 27.6887 8.46237C27.6615 8.40302 27.6339 8.34388 27.6059 8.28498C27.586 8.24318 27.5661 8.20137 27.5459 8.1598C27.5168 8.10004 27.4871 8.04069 27.4572 7.98138C27.4372 7.94174 27.4174 7.90203 27.3971 7.86261C27.3641 7.79872 27.3304 7.73534 27.2965 7.67201C27.2784 7.63803 27.2606 7.60382 27.2421 7.57C27.1903 7.47502 27.1377 7.38054 27.0838 7.28686C27.0766 7.27429 27.0691 7.26194 27.0618 7.24942C27.0136 7.16616 26.9648 7.08335 26.915 7.00111C26.8944 6.96707 26.8732 6.93348 26.8523 6.89961C26.8155 6.83997 26.7786 6.78038 26.741 6.7213C26.7168 6.68324 26.692 6.64546 26.6674 6.60757C26.6321 6.5532 26.5965 6.49888 26.5604 6.44501C26.5344 6.40616 26.5082 6.36753 26.4818 6.32896C26.4458 6.27628 26.4094 6.22383 26.3727 6.17161C26.3459 6.13349 26.3191 6.09543 26.292 6.05759C26.2541 6.00475 26.2157 5.95235 26.177 5.90002C26.1504 5.86388 26.1239 5.82769 26.0969 5.79184C26.0546 5.73554 26.0115 5.67974 25.9683 5.62407C25.9444 5.59325 25.9209 5.5621 25.8967 5.53152C25.8304 5.44735 25.7633 5.36386 25.6951 5.28122C25.6946 5.2806 25.6941 5.27992 25.6936 5.2793L24.8984 8.04856C25.6105 9.47901 26.0933 11.0435 26.2984 12.6944L29 14.6894C29.0008 14.6262 29.0024 14.5632 29.0024 14.4998C29.0023 14.3819 29.0006 14.2644 28.9978 14.1471Z" fill="#632020"/>
</g>
<defs>
<clipPath id="clip0_6567_13086">
<rect width="29" height="29" fill="white"/>
</clipPath>
</defs>
</svg>
