<svg width="55" height="42" viewBox="0 0 55 42" fill="none" xmlns="http://www.w3.org/2000/svg">
<g clip-path="url(#clip0_115_1952)">
<path d="M55 13.3547C55 13.9221 54.803 14.4933 54.3974 14.9707L50.104 20.0263C49.5609 20.6658 48.7616 20.9984 47.9547 20.9984C47.3523 20.9984 46.7456 20.8128 46.2385 20.4308L41.25 16.677V38.0625C41.25 40.2371 39.4032 42 37.125 42H17.875C15.5977 42 13.75 40.2363 13.75 38.0625V16.677L8.68831 20.434C8.25432 20.8113 7.6476 20.9262 7.04518 20.9262C6.2384 20.9262 5.43901 20.5934 4.89588 19.9541L0.602619 14.9707C0.196995 14.4949 0 13.9207 0 13.3547C0 12.5949 0.353289 11.842 1.03211 11.3302L12.6337 2.58563C13.7328 1.76285 15.0992 1.3125 16.4227 1.3125H19.3875C20.0492 5.03344 23.418 7.875 27.5 7.875C31.5821 7.875 34.9534 5.03344 35.6117 1.3125H38.4992C39.9042 1.3125 41.2681 1.76285 42.3655 2.58973L53.9671 11.3343C54.6477 11.8453 55 12.6 55 13.3547Z" fill="#A60E08"/>
</g>
<defs>
<clipPath id="clip0_115_1952">
<rect width="55" height="42" fill="white"/>
</clipPath>
</defs>
</svg>
