<svg width="53" height="41" viewBox="0 0 53 41" fill="none" xmlns="http://www.w3.org/2000/svg">
<g clip-path="url(#clip0_115_1987)">
<path d="M53 13.0367C53 13.5906 52.8101 14.1482 52.4193 14.6143L48.282 19.5495C47.7587 20.1738 46.9885 20.4984 46.2109 20.4984C45.6304 20.4984 45.0457 20.3173 44.5571 19.9443L39.75 16.2799L39.75 37.1563C39.75 39.2791 37.9704 41 35.775 41L17.225 41C15.0305 41 13.25 39.2783 13.25 37.1562L13.25 16.2799L8.37237 19.9475C7.95416 20.3158 7.36951 20.4279 6.78899 20.4279C6.01155 20.4279 5.24123 20.1031 4.71785 19.479L0.580706 14.6143C0.189831 14.1498 0 13.5893 0 13.0367C0 12.295 0.340442 11.5601 0.994578 11.0604L12.1743 2.52406C13.2335 1.72088 14.5502 1.28125 15.8255 1.28125L18.6825 1.28125C19.3202 4.91359 22.5664 7.6875 26.5 7.6875C30.4336 7.6875 33.6823 4.91359 34.3167 1.28125L37.0992 1.28125C38.4532 1.28125 39.7674 1.72088 40.8249 2.52807L52.0046 11.0644C52.6605 11.5633 53 12.3 53 13.0367Z" fill="white"/>
</g>
<defs>
<clipPath id="clip0_115_1987">
<rect width="53" height="41" fill="white"/>
</clipPath>
</defs>
</svg>
