<svg width="24" height="35" viewBox="0 0 24 35" fill="none" xmlns="http://www.w3.org/2000/svg">
<g clip-path="url(#clip0_6567_13109)">
<path d="M23.3534 23.1288L21.4385 34.9091H12.3096C12.3096 33.3387 11.0212 31.2967 9.95523 29.8761C9.0481 28.6666 8.5625 27.1958 8.5625 25.6867V18.2833C8.5625 17.5571 8.85846 16.8998 9.33638 16.4235C9.81431 15.9479 10.4754 15.6533 11.2051 15.6533C12.6644 15.6533 13.8471 16.8309 13.8471 18.2832V20.5306L16.3834 18.287L17.3065 17.4703L21.5597 19.6183C22.8613 20.2756 23.5865 21.6949 23.3534 23.1288Z" fill="#FFDDB0"/>
<path d="M21.5589 19.6181C18.7248 18.1867 17.3057 22.9214 17.3057 22.9214L14.7344 22.9216L17.3057 17.4702L21.5589 19.6181Z" fill="#E2BE91"/>
<path d="M17.3102 2.28832V20.362C17.3102 21.7754 16.1591 22.9217 14.7389 22.9217H2.90869C1.6388 22.9217 0.609375 21.8972 0.609375 20.6334V2.28832C0.609306 1.0245 1.63873 0 2.90869 0H15.0109C16.2808 0 17.3102 1.0245 17.3102 2.28832Z" fill="#ED3B3B"/>
<path d="M17.3024 2.28832V20.362C17.3024 21.7754 16.1513 22.9217 14.7311 22.9217H2.90088C1.63099 22.9217 0.601563 21.8972 0.601563 20.6334V2.28832C0.601494 1.0245 1.63092 0 2.90088 0H15.0031C16.273 0 17.3024 1.0245 17.3024 2.28832Z" fill="#ED3B3B"/>
<path d="M12.4571 18.2829V22.9215H7.17188V18.2829C7.17188 17.557 7.46749 16.8993 7.94569 16.4234C8.42389 15.9475 9.0846 15.6533 9.81409 15.6533C11.2737 15.6533 12.4571 16.831 12.4571 18.2829Z" fill="#D62727"/>
<path d="M13.8475 24.7382V18.2832C13.8475 16.8308 12.6644 15.6533 11.205 15.6533C9.74559 15.6533 8.5625 16.8308 8.5625 18.2832V25.6865C8.5625 27.1956 9.04796 28.6664 9.95537 29.8756C11.0214 31.2963 12.3101 33.3386 12.3101 34.909" fill="#FFDDB0"/>
<path d="M11.2043 29.8733C10.2974 28.6651 9.81321 27.1946 9.81321 25.6864V18.2831C9.81321 17.0452 10.6729 16.0077 11.8303 15.728C11.6297 15.6796 11.4204 15.6533 11.2049 15.6533C9.74552 15.6533 8.5625 16.8308 8.5625 18.2831V25.6864C8.5625 27.1955 9.04796 28.6664 9.95523 29.8756C11.0212 31.2963 12.31 33.3386 12.31 34.9089L12.3785 34.4555C12.6205 32.8543 12.2115 31.2224 11.2412 29.9226C11.229 29.906 11.2166 29.8896 11.2043 29.8733Z" fill="#E2BE91"/>
</g>
<defs>
<clipPath id="clip0_6567_13109">
<rect width="24" height="34.9091" fill="white"/>
</clipPath>
</defs>
</svg>
