<svg width="43" height="39" viewBox="0 0 43 39" fill="none" xmlns="http://www.w3.org/2000/svg">
<g clip-path="url(#clip0_6566_12884)">
<path d="M10.2832 22.5721H0.699836C0.313364 22.5721 0 22.2962 0 21.956C0 21.6157 0.313364 21.3398 0.699836 21.3398H10.2832C10.6698 21.3398 10.983 21.6157 10.983 21.956C10.983 22.2962 10.6698 22.5721 10.2832 22.5721Z" fill="#C5D3DD"/>
<path d="M10.6548 26.4407H3.37171C2.98524 26.4407 2.67188 26.1649 2.67188 25.8246C2.67188 25.4843 2.98524 25.2085 3.37171 25.2085H10.6549C11.0413 25.2085 11.3547 25.4843 11.3547 25.8246C11.3546 26.1649 11.0413 26.4407 10.6548 26.4407Z" fill="#C5D3DD"/>
<path d="M12.1116 29.6741H7.69202C7.30555 29.6741 6.99219 29.3983 6.99219 29.058C6.99219 28.7177 7.30555 28.4419 7.69202 28.4419H12.1116C12.4981 28.4419 12.8115 28.7177 12.8115 29.058C12.8115 29.3983 12.4982 29.6741 12.1116 29.6741Z" fill="#C5D3DD"/>
<path d="M11.3033 18.7029H4.02015C3.63368 18.7029 3.32031 18.4271 3.32031 18.0868C3.32031 17.7466 3.63368 17.4707 4.02015 17.4707H11.3033C11.6899 17.4707 12.0031 17.7466 12.0031 18.0868C12.0031 18.4272 11.6898 18.7029 11.3033 18.7029Z" fill="#C5D3DD"/>
<path d="M12.7679 15.47H8.34827C7.96172 15.47 7.64844 15.1942 7.64844 14.8539C7.64844 14.5136 7.9618 14.2378 8.34827 14.2378H12.7679C13.1544 14.2378 13.4677 14.5136 13.4677 14.8539C13.4677 15.1942 13.1544 15.47 12.7679 15.47Z" fill="#C5D3DD"/>
<path d="M18.9326 11.0745L15.6604 7.43077C15.4287 7.17282 15.0224 7.14333 14.7528 7.3653L12.7162 9.04161C12.5868 9.14815 12.5069 9.29955 12.494 9.46245C12.4811 9.62535 12.5365 9.78652 12.6478 9.91048L15.92 13.5542C16.0473 13.6959 16.2273 13.7686 16.4082 13.7686C16.5568 13.7686 16.7061 13.7197 16.8275 13.6197L18.8641 11.9434C18.9935 11.8369 19.0734 11.6855 19.0863 11.5226C19.0992 11.3596 19.0439 11.1984 18.9326 11.0745Z" fill="#FEDF30"/>
<path d="M17.0232 6.31311L15.6415 4.77449C15.4097 4.51654 15.0035 4.48713 14.7339 4.70901L9.98178 8.6204C9.85238 8.72695 9.7725 8.87835 9.75962 9.04124C9.74684 9.20414 9.8021 9.36532 9.91339 9.48928L11.2951 11.0279C11.4224 11.1696 11.6023 11.2423 11.7834 11.2423C11.9319 11.2423 12.0812 11.1934 12.2026 11.0934L16.9547 7.18199C17.0841 7.07545 17.164 6.92405 17.1769 6.76115C17.1898 6.59817 17.1344 6.43699 17.0232 6.31311Z" fill="#D7AA02"/>
<path d="M40.2269 9.46244C40.2141 9.29954 40.1341 9.14815 40.0047 9.0416L37.9681 7.36529C37.6986 7.14341 37.2923 7.17274 37.0605 7.43076L33.7883 11.0745C33.6771 11.1984 33.6218 11.3596 33.6346 11.5225C33.6475 11.6854 33.7274 11.8368 33.8568 11.9434L35.8934 13.6197C36.0149 13.7197 36.1641 13.7686 36.3127 13.7686C36.4937 13.7686 36.6737 13.6959 36.801 13.5542L40.0732 9.91048C40.1844 9.78652 40.2397 9.62542 40.2269 9.46244Z" fill="#FEDF30"/>
<path d="M42.7439 8.62054L37.9917 4.70916C37.8622 4.60261 37.694 4.54905 37.5237 4.56195C37.3536 4.57419 37.1954 4.65075 37.0842 4.77463L35.7024 6.31326C35.4707 6.57128 35.5014 6.96025 35.7709 7.18205L40.5231 11.0934C40.6402 11.1899 40.7893 11.2424 40.9427 11.2424C40.9588 11.2424 40.975 11.2418 40.9911 11.2406C41.1612 11.2283 41.3194 11.1518 41.4307 11.0279L42.8123 9.48926C43.0441 9.2314 43.0134 8.84234 42.7439 8.62054Z" fill="#D7AA02"/>
<path d="M24.4766 3.76465H28.4257V9.16423H24.4766V3.76465Z" fill="#0055A3"/>
<path d="M28.8713 0.310059H21.6153C20.9346 0.310059 20.3828 0.838351 20.3828 1.49003V2.92351C20.3828 3.57519 20.9346 4.10348 21.6153 4.10348H28.8324L30.5848 3.65126V0.790952L28.8713 0.310059Z" fill="#0473CE"/>
<path d="M31.2851 0.310059H28.7109C29.3916 0.310059 29.9435 0.838351 29.9435 1.49003V2.92351C29.9435 3.57519 29.3916 4.10348 28.7109 4.10348H31.2851C31.9658 4.10348 32.5176 3.57519 32.5176 2.92351V1.49003C32.5176 0.838351 31.9658 0.310059 31.2851 0.310059Z" fill="#0055A3"/>
<path d="M22.2052 38.1599C13.3721 35.9156 8.1119 27.2407 10.4562 18.7843C12.3464 11.9658 18.6035 7.37107 25.5869 7.02342C27.2644 6.93996 41.9466 9.51808 41.9466 22.3638C41.9466 31.7765 32.9779 39.2371 25.1627 38.6448C24.1804 38.5703 23.1913 38.4105 22.2052 38.1599Z" fill="#26A6FE"/>
<path d="M26.459 7.00635C26.0258 7.00635 25.5966 7.02245 25.1719 7.05375C33.7093 7.68259 40.4322 14.5137 40.4322 22.8483C40.4322 31.183 33.7092 38.014 25.1719 38.6429C25.5966 38.6742 26.0258 38.6903 26.459 38.6903C35.5978 38.6903 43.0064 31.5976 43.0064 22.8483C43.0064 14.099 35.5979 7.00635 26.459 7.00635Z" fill="#0593FC"/>
<path d="M26.4567 35.1852C33.5736 35.1852 39.3431 29.6617 39.3431 22.8482C39.3431 16.0347 33.5736 10.5112 26.4567 10.5112C19.3397 10.5112 13.5703 16.0347 13.5703 22.8482C13.5703 29.6617 19.3397 35.1852 26.4567 35.1852Z" fill="#FFF3EF"/>
<path d="M28.1157 10.6148C27.1098 10.4893 26.116 10.4789 25.1484 10.5722C25.2793 10.5847 25.4102 10.5985 25.5415 10.6148C32.5988 11.4952 37.5744 17.6861 36.6547 24.4425C35.8662 30.2359 30.9991 34.5636 25.1785 35.1246C32.0812 35.7839 38.3264 31.0733 39.2289 24.4425C40.1486 17.6861 35.173 11.4952 28.1157 10.6148Z" fill="#F1F0F0"/>
<path d="M26.4583 14.0371C26.1275 14.0371 25.8594 13.7804 25.8594 13.4637V11.8795C25.8594 11.5629 26.1275 11.3062 26.4583 11.3062C26.7891 11.3062 27.0572 11.5629 27.0572 11.8795V13.4637C27.0572 13.7804 26.7891 14.0371 26.4583 14.0371Z" fill="#B6C4CF"/>
<path d="M33.4427 16.7762C33.2894 16.7762 33.1361 16.7203 33.0192 16.6083C32.7853 16.3844 32.7853 16.0214 33.0193 15.7974L34.1893 14.6773C34.4231 14.4532 34.8023 14.4533 35.0363 14.6773C35.2702 14.9012 35.2702 15.2642 35.0362 15.4881L33.8662 16.6083C33.7492 16.7202 33.5959 16.7762 33.4427 16.7762Z" fill="#B6C4CF"/>
<path d="M38.0036 23.4393H36.3489C36.0181 23.4393 35.75 23.1826 35.75 22.8659C35.75 22.5492 36.0181 22.2925 36.3489 22.2925H38.0036C38.3344 22.2925 38.6025 22.5492 38.6025 22.8659C38.6025 23.1826 38.3344 23.4393 38.0036 23.4393Z" fill="#B6C4CF"/>
<path d="M34.6675 31.2435C34.5142 31.2435 34.3609 31.1874 34.2439 31.0756L33.0739 29.9554C32.84 29.7315 32.84 29.3684 33.0739 29.1445C33.3079 28.9206 33.687 28.9206 33.9209 29.1445L35.091 30.2647C35.3249 30.4886 35.3249 30.8516 35.091 31.0756C34.974 31.1875 34.8207 31.2435 34.6675 31.2435Z" fill="#B6C4CF"/>
<path d="M26.5364 34.4966C26.2056 34.4966 25.9375 34.2399 25.9375 33.9232V32.339C25.9375 32.0223 26.2056 31.7656 26.5364 31.7656C26.8672 31.7656 27.1354 32.0223 27.1354 32.339V33.9232C27.1354 34.2398 26.8672 34.4966 26.5364 34.4966Z" fill="#B6C4CF"/>
<path d="M18.3801 31.2938C18.2269 31.2938 18.0735 31.2379 17.9567 31.1259C17.7228 30.9019 17.7228 30.5389 17.9567 30.315L19.1267 29.1948C19.3606 28.9709 19.7398 28.9709 19.9737 29.1948C20.2076 29.4187 20.2076 29.7818 19.9737 30.0057L18.8037 31.1259C18.6867 31.2378 18.5334 31.2938 18.3801 31.2938Z" fill="#B6C4CF"/>
<path d="M16.6364 23.5106H14.9817C14.651 23.5106 14.3828 23.2538 14.3828 22.9372C14.3828 22.6205 14.651 22.3638 14.9817 22.3638H16.6364C16.9672 22.3638 17.2354 22.6205 17.2354 22.9372C17.2354 23.2538 16.9672 23.5106 16.6364 23.5106Z" fill="#B6C4CF"/>
<path d="M19.4955 16.827C19.3423 16.827 19.1889 16.7711 19.072 16.6591L17.902 15.5389C17.6681 15.315 17.6681 14.952 17.902 14.728C18.1359 14.5041 18.5151 14.504 18.749 14.728L19.919 15.8482C20.1529 16.0721 20.1529 16.4352 19.919 16.6591C19.8021 16.7711 19.6488 16.827 19.4955 16.827Z" fill="#B6C4CF"/>
<path d="M26.4482 22.5719C26.0927 22.5719 25.8047 22.296 25.8047 21.9558V17.8129C25.8047 17.4726 26.0927 17.1968 26.4482 17.1968C26.8037 17.1968 27.0918 17.4726 27.0918 17.8129V21.9558C27.0918 22.296 26.8036 22.5719 26.4482 22.5719Z" fill="#678D98"/>
<path d="M31.8678 28.5047C31.703 28.5047 31.5384 28.4445 31.4127 28.3242L26.7276 23.8388C26.4762 23.5982 26.4762 23.2081 26.7276 22.9676C26.9791 22.727 27.3865 22.727 27.6378 22.9676L32.3228 27.4529C32.5741 27.6935 32.5741 28.0837 32.3228 28.3242C32.1972 28.4444 32.0324 28.5047 31.8678 28.5047Z" fill="#678D98"/>
<path d="M26.5433 24.0254C25.8302 24.0254 25.25 23.47 25.25 22.7874C25.25 22.1047 25.8301 21.5493 26.5433 21.5493C27.2563 21.5493 27.8365 22.1047 27.8365 22.7874C27.8365 23.47 27.2563 24.0254 26.5433 24.0254Z" fill="#3E5959"/>
</g>
<defs>
<clipPath id="clip0_6566_12884">
<rect width="43" height="39" fill="white"/>
</clipPath>
</defs>
</svg>
