<svg width="23" height="28" viewBox="0 0 23 28" fill="none" xmlns="http://www.w3.org/2000/svg">
<g clip-path="url(#clip0_6567_13103)">
<path d="M9.36475 6.43115H5.85558C5.39597 6.43115 5.02344 6.80243 5.02344 7.26001V23.7218C5.02344 26.1973 7.13426 28.0861 9.39757 27.997C9.84409 27.9795 10.1969 27.6138 10.1969 27.1688V7.26001C10.1969 6.80222 9.82436 6.43115 9.36475 6.43115Z" fill="#008799"/>
<path d="M8.68507 0.350452L1.0733 10.479C0.670307 11.0151 1.03383 11.8045 1.76346 11.8045H10.1956V0.83089C10.1956 0.0436894 9.18543 -0.315411 8.68507 0.350452Z" fill="#00A8DD"/>
<path d="M13.604 0.00302472C13.1575 0.0205418 12.8047 0.386264 12.8047 0.831241V20.74C12.8047 21.1978 13.1772 21.5689 13.6368 21.5689H17.146C17.6056 21.5689 17.9781 21.1978 17.9781 20.74V4.27826C17.9781 1.80301 15.8673 -0.086056 13.604 0.00302472Z" fill="#FF0404"/>
<path d="M21.2368 16.1958H12.8047V27.1461C12.8047 27.985 13.832 28.2928 14.303 27.6661L21.927 17.5213C22.33 16.9851 21.9664 16.1958 21.2368 16.1958Z" fill="#FF4848"/>
</g>
<defs>
<clipPath id="clip0_6567_13103">
<rect width="23" height="28" fill="white"/>
</clipPath>
</defs>
</svg>
