<svg width="28" height="33" viewBox="0 0 28 33" fill="none" xmlns="http://www.w3.org/2000/svg">
<g clip-path="url(#clip0_6580_13508)">
<path d="M15.6316 26.8755C14.8502 26.8755 14.2109 27.5197 14.2109 28.307V35.5362C14.9897 35.5259 15.7548 35.4597 16.5026 35.3413V27.1807C16.2616 26.9904 15.9597 26.8755 15.6316 26.8755Z" fill="#E9EFFF"/>
<path d="M14.1964 28.3491C14.1964 27.5958 14.8144 26.9795 15.5698 26.9795C15.9275 26.9795 16.2533 27.1187 16.4983 27.3442V25.6714H11.4922V35.3412C12.3076 35.4703 13.1434 35.5382 13.9953 35.5382C14.0625 35.5382 14.1294 35.537 14.1964 35.5362V28.3491Z" fill="#D3DCFB"/>
<path d="M14.0032 26.98C13.7167 26.98 13.4844 27.2116 13.4844 27.4974V35.5294C13.6567 35.5348 13.8296 35.5387 14.0032 35.5387C14.177 35.5387 14.3497 35.5349 14.5221 35.5294V27.4974C14.5221 27.2116 14.2898 26.98 14.0032 26.98Z" fill="#BEC8F7"/>
<path d="M14.0717 23.5488C13.6623 23.7653 13.3828 24.1932 13.3828 24.6875C13.3828 25.1818 13.6623 25.6097 14.0717 25.8262H17.8732C18.4184 25.8262 18.8604 25.3854 18.8604 24.8416V23.5488H14.0717Z" fill="#2A428C"/>
<path d="M13.4613 24.6875C13.4613 24.1479 13.8226 23.6932 14.3169 23.5488H9.11719V24.8416C9.11719 25.3854 9.5592 25.8262 10.1044 25.8262H14.3169C13.8226 25.6818 13.4613 25.2271 13.4613 24.6875Z" fill="#1C2E7A"/>
<path d="M11.0479 0.996574C11.0326 1.37047 11.1842 1.73366 11.499 2.07752C11.4458 2.11716 11.3778 2.17413 11.3095 2.24812H23.1792C22.6316 0.932057 21.328 0 19.8161 0H11.5087C11.3646 0.148307 11.0679 0.510275 11.0479 0.996574Z" fill="#E9EFFF"/>
<path d="M11.6473 0H8.18331C6.67153 0 5.36793 0.932057 4.82031 2.24819H11.4451C11.5542 2.14603 11.6473 2.09376 11.6473 2.09376C10.5116 0.961125 11.6473 0 11.6473 0Z" fill="#BEC8F7"/>
<path d="M27.3197 4.63184H25.4609V23.7028H27.3197C27.6467 23.7028 27.9119 23.4384 27.9119 23.1123V5.22236C27.9119 4.89622 27.6467 4.63184 27.3197 4.63184Z" fill="#4F71B6"/>
<path d="M2.52905 4.63184H0.670271C0.34324 4.63184 0.078125 4.89622 0.078125 5.22236V23.1124C0.078125 23.4385 0.34324 23.7029 0.670271 23.7029H2.52905V4.63184Z" fill="#3C58A0"/>
<path d="M11.4748 4.63184C11.3321 4.74263 11.1076 4.96209 11.0308 5.29042C10.9564 5.60888 11.0387 5.94945 11.2756 6.30291V7.11779C11.0349 7.34505 9.63904 8.78745 10.9132 10.5481L9.89446 15.2313C9.89045 15.2453 9.51973 16.6254 10.8441 17.1196L11.2666 19.1045C11.1465 19.2258 10.8107 19.6105 10.7955 20.1308C10.7844 20.5102 10.9459 20.8745 11.2756 21.2141V22.0366C11.2149 22.1498 10.9798 22.6347 11.1281 23.1099C11.2041 23.3533 11.3683 23.5519 11.6149 23.7029H25.5425V4.63184H11.4748Z" fill="#3C58A0"/>
<path d="M11.3735 22.0615V21.1744C10.2922 20.0961 11.3735 19.1368 11.3735 19.1368L10.9287 17.0468C9.61311 16.5939 9.98874 15.2573 9.98874 15.2573L11.018 10.5259C9.6248 8.64946 11.3735 7.16014 11.3735 7.16014V6.2732C10.6318 5.19806 11.6465 4.63184 11.6465 4.63184H2.45312V23.7029H11.8182C10.7134 23.1867 11.3735 22.0615 11.3735 22.0615Z" fill="#2A428C"/>
<path d="M22.7989 6.7168H11.2756V7.11789C11.0349 7.34515 9.63904 8.78755 10.9132 10.5481L9.89446 15.2314C9.89045 15.2454 9.51973 16.6255 10.8441 17.1197L11.2666 19.1046C11.1466 19.2259 10.8107 19.6106 10.7955 20.1309C10.7844 20.5103 10.9459 20.8746 11.2756 21.2142V21.6182H22.7989C23.1596 21.6182 23.452 21.3266 23.452 20.9669V7.3681C23.452 7.00838 23.1596 6.7168 22.7989 6.7168Z" fill="#49B1F7"/>
<path d="M11.3688 7.16036V6.7168H5.19209C4.83145 6.7168 4.53906 7.00838 4.53906 7.36803V20.9669C4.53906 21.3266 4.83145 21.6181 5.19209 21.6181H11.3688V21.1746C10.2876 20.0963 11.3689 19.1369 11.3689 19.1369L10.9241 17.047C9.6085 16.594 9.98413 15.2574 9.98413 15.2574L11.0134 10.5261C9.62026 8.64968 11.3688 7.16036 11.3688 7.16036Z" fill="#1E9EF4"/>
<path d="M11.3683 22.0617H5.19157C4.58624 22.0617 4.09375 21.5707 4.09375 20.9669V7.36817C4.09375 6.76451 4.58617 6.27344 5.19157 6.27344H11.3683C11.6139 6.27344 11.813 6.47202 11.813 6.71694C11.813 6.96186 11.6139 7.16044 11.3683 7.16044H5.19157C5.07672 7.16044 4.98326 7.25364 4.98326 7.36811V20.9669C4.98326 21.0814 5.07672 21.1746 5.19157 21.1746H11.3683C11.6139 21.1746 11.813 21.3732 11.813 21.6181C11.813 21.8632 11.6139 22.0617 11.3683 22.0617Z" fill="#73C3F9"/>
<path d="M18.3707 7.16044H11.3744C11.1288 7.16044 10.9297 6.96186 10.9297 6.71694C10.9297 6.47202 11.1288 6.27344 11.3744 6.27344H18.3707C18.6163 6.27344 18.8154 6.47202 18.8154 6.71694C18.8154 6.96186 18.6163 7.16044 18.3707 7.16044Z" fill="#9BD8F9"/>
<path d="M9.22754 19.1373H18.7624C19.3411 19.1373 19.8103 18.6695 19.8103 18.0923C19.8103 17.5152 19.3411 17.0474 18.7624 17.0474H9.22754C8.64884 17.0474 8.17969 17.5152 8.17969 18.0923C8.17962 18.6695 8.64878 19.1373 9.22754 19.1373Z" fill="#73C3F9"/>
<path d="M15.7406 15.6755C15.531 15.6755 15.3335 15.5478 15.2551 15.3406L14.1039 12.2982L12.9413 15.342C12.8394 15.6091 12.5397 15.743 12.2718 15.6415C12.004 15.5398 11.8696 15.2408 11.9716 14.9737L13.5335 10.884C13.535 10.88 13.5366 10.8761 13.5382 10.8722C13.6328 10.6417 13.8553 10.4925 14.1052 10.4922H14.1056C14.3553 10.4922 14.5779 10.6409 14.6728 10.871C14.6747 10.8757 14.6766 10.8805 14.6784 10.8852L16.2262 14.9752C16.3273 15.2426 16.192 15.5412 15.9239 15.642C15.8634 15.6647 15.8015 15.6755 15.7406 15.6755Z" fill="white"/>
<path d="M15.2585 14.6569H12.9407C12.6542 14.6569 12.4219 14.4253 12.4219 14.1395C12.4219 13.8537 12.6542 13.6221 12.9407 13.6221H15.2585C15.545 13.6221 15.7773 13.8537 15.7773 14.1395C15.7773 14.4253 15.545 14.6569 15.2585 14.6569Z" fill="white"/>
<path d="M9.4046 15.6755C9.14563 15.6755 8.91393 15.5125 8.82719 15.2688L7.40383 11.1795C7.30986 10.9095 7.45315 10.6147 7.72388 10.5209C7.99456 10.4273 8.29024 10.5701 8.38422 10.8401L9.39588 13.7466L10.3593 10.8542C10.4497 10.5831 10.7434 10.4361 11.0153 10.5264C11.2872 10.6165 11.4345 10.9093 11.3442 11.1806L9.98602 15.2577C9.9009 15.5072 9.6694 15.6737 9.40881 15.6754C9.40732 15.6755 9.40596 15.6755 9.4046 15.6755Z" fill="white"/>
<path d="M20.0945 15.6753C19.9506 15.6753 19.8074 15.6159 19.7048 15.4997L17.9575 13.5199C17.7682 13.3053 17.7891 12.9784 18.0042 12.7896C18.2194 12.6009 18.5472 12.6217 18.7365 12.8361L20.4838 14.816C20.6732 15.0306 20.6523 15.3575 20.4371 15.5463C20.3385 15.6328 20.2162 15.6753 20.0945 15.6753Z" fill="white"/>
<path d="M17.847 15.6753C17.5604 15.6753 17.3281 15.4437 17.3281 15.1579V11.0096C17.3281 10.7238 17.5604 10.4922 17.847 10.4922C18.1336 10.4922 18.3658 10.7238 18.3658 11.0096V15.1579C18.3658 15.4437 18.1336 15.6753 17.847 15.6753Z" fill="white"/>
<path d="M17.8546 13.688C17.5695 13.688 17.3376 13.4584 17.3358 13.1738C17.3358 13.1738 17.3309 12.3887 17.3309 12.0877C17.3309 11.8416 17.3281 11.0114 17.3281 11.0114C17.3277 10.8738 17.3821 10.7417 17.4795 10.6444C17.5768 10.5469 17.7091 10.4922 17.847 10.4922H18.9524C19.8683 10.4922 20.6134 11.2079 20.6134 12.0877C20.6134 12.9676 19.8683 13.6833 18.9524 13.6833C18.6464 13.6833 17.858 13.6881 17.858 13.6881C17.8567 13.688 17.8556 13.688 17.8546 13.688ZM18.3674 11.527C18.368 11.7464 18.3686 11.9765 18.3686 12.0877C18.3686 12.2184 18.3695 12.4411 18.3706 12.6503C18.5857 12.6492 18.8164 12.6483 18.9523 12.6483C19.2902 12.6483 19.5756 12.3916 19.5756 12.0877C19.5756 11.7838 19.2901 11.527 18.9523 11.527H18.3674Z" fill="white"/>
<path d="M21.3733 9.32197H20.2845C19.9979 9.32197 19.7656 9.09032 19.7656 8.80454C19.7656 8.51875 19.9979 8.28711 20.2845 8.28711H21.3733C21.6599 8.28711 21.8922 8.51875 21.8922 8.80454C21.8922 9.09032 21.6599 9.32197 21.3733 9.32197Z" fill="#B4D667"/>
<path d="M22.8007 22.0616H11.3744C11.1288 22.0616 10.9297 21.8631 10.9297 21.6181C10.9297 21.3732 11.1288 21.1746 11.3744 21.1746H22.8008C22.9156 21.1746 23.0091 21.0814 23.0091 20.9669V11.6149C23.0091 11.37 23.2082 11.1714 23.4538 11.1714C23.6994 11.1714 23.8985 11.37 23.8985 11.6149V20.9668C23.8985 21.5706 23.4061 22.0616 22.8007 22.0616Z" fill="#9BD8F9"/>
<path d="M23.4576 12.0584C23.212 12.0584 23.0128 11.8598 23.0128 11.6149V7.36811C23.0128 7.25364 22.9194 7.16044 22.8045 7.16044H18.3744C18.1288 7.16044 17.9297 6.96186 17.9297 6.71694C17.9297 6.47202 18.1288 6.27344 18.3744 6.27344H22.8045C23.4099 6.27344 23.9023 6.76451 23.9023 7.36817V11.615C23.9023 11.8598 23.7031 12.0584 23.4576 12.0584Z" fill="#E9EFFF"/>
</g>
<defs>
<clipPath id="clip0_6580_13508">
<rect width="28" height="33" fill="white"/>
</clipPath>
</defs>
</svg>
