<svg width="61" height="61" viewBox="0 0 61 61" fill="none" xmlns="http://www.w3.org/2000/svg">
<g id="whistle (1) 1" clip-path="url(#clip0_6567_13147)">
<g id="Group">
<g id="Group_2">
<path id="Vector" d="M6.02116 32.9843C6.13239 30.9346 7.89027 29.3577 9.94002 29.4689C11.9897 29.5801 13.5666 31.338 13.4554 33.3878C13.3442 35.4374 11.5863 37.0144 9.53659 36.9032C7.48679 36.792 5.90987 35.0341 6.02116 32.9843ZM10.9773 33.2533C11.0143 32.5708 10.4891 31.9841 9.80548 31.947C9.12187 31.9099 8.53625 32.4364 8.49922 33.1188C8.46218 33.8013 8.98739 34.388 9.67101 34.4251C10.3546 34.4622 10.9402 33.9357 10.9773 33.2533Z" fill="#297ACC"/>
</g>
<path id="Vector_2" d="M9.6763 34.4254C8.99269 34.3883 8.46748 33.8016 8.50451 33.1191L6.02646 32.9847C5.91523 35.0344 7.49215 36.7922 9.54189 36.9035C11.5916 37.0147 13.3495 35.4378 13.4607 33.3881L10.9827 33.2536C10.9455 33.9361 10.3599 34.4625 9.6763 34.4254Z" fill="#2454B3"/>
<g id="Group_3">
<g id="Group_4">
<path id="Vector_3" d="M35.7652 34.5981L51.6669 32.9419C52.2918 32.8764 52.7661 32.3801 52.7997 31.7607L53.2031 24.3264C53.2408 23.6325 52.7252 23.0578 52.0313 23.0201L37.6766 22.2749C36.9827 22.2373 36.408 22.7528 36.3704 23.4467L36.3031 24.6858L33.8251 24.5513L33.8923 23.3123C33.93 22.6184 33.4144 22.0437 32.7205 22.006L24.0473 21.5353C17.2077 21.1642 11.3556 26.4138 10.9845 33.2534C10.6133 40.0929 15.863 45.945 22.7025 46.3161C29.5421 46.6873 35.4188 41.439 35.7652 34.5981Z" fill="#2EA8E6"/>
</g>
</g>
<path id="Vector_4" d="M22.7021 46.3164C15.8626 45.9453 10.613 40.0932 10.9841 33.2537L35.7649 34.5984C35.4186 41.4393 29.5417 46.6876 22.7021 46.3164Z" fill="#297ACC"/>
<g id="Whistle_3_">
<g id="Group_5">
<g id="Group_6">
<path id="Vector_5" d="M18.4137 33.6572C18.5619 30.9251 20.9054 28.8217 23.6388 28.97C26.3722 29.1183 28.4742 31.4629 28.326 34.1951C28.1777 36.9272 25.8343 39.0307 23.1009 38.8823C20.3675 38.734 18.2653 36.3894 18.4137 33.6572Z" fill="#297ACC"/>
</g>
</g>
<g id="Group_7">
<path id="Vector_6" d="M29.8108 13.514C30.3211 13.0563 31.1051 13.0989 31.5629 13.6091L33.9064 16.2216C34.3642 16.7319 34.3216 17.516 33.8114 17.9737C33.3011 18.4314 32.517 18.3888 32.0593 17.8786L29.7157 15.2661C29.258 14.7558 29.3005 13.9718 29.8108 13.514Z" fill="#878787"/>
</g>
</g>
<g id="Group_8">
<path id="Vector_7" d="M37.1123 16.3953L39.7249 14.0516C40.2351 13.5939 41.0192 13.6365 41.4769 14.1467C41.9346 14.6569 41.8921 15.441 41.3818 15.8987L38.7693 18.2423C38.2591 18.7 37.475 18.6575 37.0173 18.1472C36.5595 17.6371 36.6021 16.853 37.1123 16.3953Z" fill="#878787"/>
</g>
<path id="Vector_8" d="M23.1027 38.8821C25.8361 39.0304 28.1795 36.927 28.3278 34.1948L18.4155 33.6569C18.2672 36.3891 20.3693 38.7337 23.1027 38.8821Z" fill="#2454B3"/>
</g>
</g>
<defs>
<clipPath id="clip0_6567_13147">
<rect width="42.3548" height="42.3548" fill="white" transform="translate(32.4844 0.681641) rotate(48.1061)"/>
</clipPath>
</defs>
</svg>
