<svg width="51" height="60" viewBox="0 0 51 60" fill="none" xmlns="http://www.w3.org/2000/svg">
<path fill-rule="evenodd" clip-rule="evenodd" d="M37.5149 0.665396C37.4463 0.663963 37.3805 0.661101 37.3118 0.659668H23.7747C14.913 1.13818 11.1887 6.29582 10.189 9.04226C6.3059 20.7028 3.88882 35.8047 2.14537 46.7074C2.11104 46.9194 2.07671 47.13 2.04382 47.3392L1.47602 52.5212C1.44312 53.3392 1.52036 54.2246 1.73918 55.0857C2.82616 58.2462 6.10853 60.9081 13.3398 58.2562V58.2619C20.1705 55.2791 28.237 51.5699 36.581 47.4122C41.3308 44.6601 48.2888 38.3348 48.6464 30.3462C48.582 24.4192 48.3832 18.2071 47.9813 12.1612L47.9799 12.1655V12.1225C47.947 11.6254 47.9112 11.0523 47.8769 10.4535C47.8083 9.30445 47.7325 8.06804 47.6538 7.1325C47.5365 6.48207 47.3849 5.8961 47.199 5.36601C46.0391 2.77573 43.7707 1.52643 41.3751 0.929006C40.2824 0.735594 38.9409 0.701212 37.5149 0.665396ZM36.9986 12.7257C36.9986 12.0552 36.4551 11.5108 35.7858 11.5108C28.0926 11.5108 21.8553 17.7601 21.8553 25.4665V30.137C21.8553 34.2803 18.5015 37.6385 14.3667 37.6385C13.6773 37.6385 13.1167 38.1973 13.1167 38.8878V42.7073C13.1167 43.3778 13.6601 43.9208 14.3295 43.9208C22.0227 43.9208 28.2613 37.6729 28.2613 29.9651V25.2946C28.2613 21.1513 31.6138 17.7931 35.75 17.7931C36.4394 17.7931 36.9972 17.2343 36.9972 16.5438L36.9986 12.7257Z" fill="#22A999"/>
<path d="M35.7863 11.5107C36.4557 11.5107 36.9991 12.0537 36.9991 12.7242V16.5437C36.9991 17.2343 36.4385 17.793 35.7491 17.793C31.6158 17.793 28.2619 21.1512 28.2619 25.2945V30.2516C28.2619 37.958 22.0232 44.2059 14.33 44.2059C13.6607 44.2059 13.1172 43.6629 13.1172 42.9924V39.1743C13.1172 38.4838 13.675 37.925 14.3643 37.925C18.5006 37.925 21.853 34.5668 21.853 30.4235V25.4665C21.8544 17.7586 28.0931 11.5107 35.7863 11.5107Z" fill="white"/>
</svg>
