<svg width="56" height="53" viewBox="0 0 56 53" fill="none" xmlns="http://www.w3.org/2000/svg">
<g clip-path="url(#clip0_6049_5874)">
<path d="M0 50.0597C4.70051 45.27 15.9439 41.4272 27.7733 39.8154C29.969 39.5168 32.1569 39.2867 34.2962 39.115C34.3761 39.1086 35.0229 39.0785 35.0229 39.0785L36.0083 41.4638L37.1978 38.9296L38.1459 38.8648C44.1817 38.5552 49.5811 38.6822 53.3066 38.9561C52.3446 41.1405 50.2288 45.8855 50.2288 45.8855C46.729 44.6819 35.8625 43.3596 25.3293 44.2682C12.5092 45.3741 1.31187 49.5364 0 50.0597Z" fill="#444444"/>
<path d="M36.0273 41.1816L28.0406 20.5579L20.0538 41.1816L0.90625 0L8.32688 21.7067L19.8142 52.9655L28.0406 33.371L36.2669 52.9655L47.7542 21.7067L55.1749 0L36.0273 41.1816Z" fill="#6C6C6C"/>
<path d="M51.1604 0.0621338L36.3721 20.4986L28.0606 0.623751L19.7501 20.4986L4.96094 0.0621338L19.8604 30.9821L28.0606 8.8471L36.2609 30.9821L51.1604 0.0621338Z" fill="#6C6C6C"/>
<path d="M40.3074 47.2361V46.0836H39.8984V45.9338H40.883V46.0882H40.4723V47.2406L40.3074 47.2361Z" fill="#6C6C6C"/>
<path d="M41.0469 47.2362V45.9339H41.2943L41.5886 46.859C41.6156 46.9458 41.6355 47.0097 41.6477 47.0526C41.6616 47.0051 41.6841 46.9357 41.7137 46.8435L42.0115 45.9303H42.2329V47.2371H42.074V46.1412L41.7128 47.2371H41.5678L41.2084 46.1248V47.2371L41.0469 47.2362Z" fill="#6C6C6C"/>
</g>
<defs>
<clipPath id="clip0_6049_5874">
<rect width="55.1724" height="52.9655" fill="white"/>
</clipPath>
</defs>
</svg>
