<svg width="82" height="80" viewBox="0 0 82 80" fill="none" xmlns="http://www.w3.org/2000/svg">
<g clip-path="url(#clip0_6449_3170)">
<path d="M41.4932 80C63.8645 80 82.0001 62.0914 82.0001 40C82.0001 17.9086 63.8645 0 41.4932 0C19.1219 0 0.986328 17.9086 0.986328 40C0.986328 62.0914 19.1219 80 41.4932 80Z" fill="#01BCF1"/>
<path d="M35.784 47.4159L40.0959 41.1843C44.4557 34.8685 48.8173 28.5685 53.1807 22.2843C54.4758 20.4264 56.2027 20.179 58.0735 21.4211C58.7717 21.8896 59.4806 22.3317 60.1681 22.8106C61.8843 24.0106 62.2361 25.7685 61.0475 27.4896C56.3893 34.2475 51.7203 41.0001 47.0407 47.7475C44.7631 51.0282 42.4997 54.3106 40.2505 57.5948C38.9287 59.5317 37.2178 59.9054 35.2724 58.5527C31.1044 55.658 26.9596 52.7299 22.8378 49.7685C20.9884 48.4475 20.7698 46.7422 22.1023 44.9106C22.6353 44.1948 23.131 43.4685 23.6693 42.7632C24.7779 41.3211 26.4461 40.958 27.9865 41.958C29.7826 43.1264 31.5095 44.4053 33.2684 45.6422L35.784 47.4159Z" fill="white"/>
</g>
<defs>
<clipPath id="clip0_6449_3170">
<rect width="82" height="80" fill="white"/>
</clipPath>
</defs>
</svg>
