<svg width="21" height="24" viewBox="0 0 21 24" fill="none" xmlns="http://www.w3.org/2000/svg">
<path fill-rule="evenodd" clip-rule="evenodd" d="M9.64518 1.15602e-05C9.98205 -4.68341e-05 10.2782 -9.81802e-05 10.5465 0.00560449V5.07906L10.5465 5.11304C10.5465 5.7093 10.5465 6.20699 10.5797 6.61358C10.6143 7.03764 10.6893 7.43576 10.8811 7.81224C11.1754 8.38986 11.645 8.85947 12.2226 9.15378C12.5991 9.3456 12.9972 9.42052 13.4213 9.45516C13.8279 9.48838 14.3255 9.48837 14.9218 9.48836H14.9218H14.9558H20.0191C20.035 9.8171 20.0349 10.1887 20.0349 10.6426V10.6427L20.0349 10.7358V16.0186V16.0555C20.0349 17.2746 20.0349 18.2407 19.9713 19.0195C19.9062 19.8158 19.7704 20.4896 19.4569 21.1049C18.9486 22.1026 18.1374 22.9137 17.1397 23.4221C16.5245 23.7356 15.8507 23.8713 15.0543 23.9364C14.2756 24 13.3095 24 12.0903 24H12.0535H8.48139H8.44453C7.2254 24 6.25927 24 5.48054 23.9364C4.6842 23.8713 4.01038 23.7356 3.39512 23.4221C2.39742 22.9137 1.58627 22.1026 1.07792 21.1049C0.764426 20.4896 0.628678 19.8158 0.563614 19.0195C0.499989 18.2407 0.499994 17.2746 0.5 16.0555V16.0555V16.0186V7.98141V7.94457V7.94456C0.499994 6.72543 0.499989 5.7593 0.563614 4.98056C0.628678 4.18422 0.764426 3.5104 1.07792 2.89514C1.58627 1.89745 2.39742 1.08629 3.39512 0.577942C4.01038 0.264449 4.6842 0.128701 5.48054 0.0636376C6.25927 1.20263e-05 7.22541 1.70826e-05 8.44455 2.347e-05L8.48139 2.36031e-05H9.54077L9.64518 1.15602e-05ZM19.3958 7.22118C19.4997 7.41316 19.5915 7.61114 19.6708 7.81395H14.9558C14.3168 7.81395 13.8879 7.81329 13.5576 7.78631C13.2371 7.76012 13.0839 7.71337 12.9828 7.66186C12.7202 7.52809 12.5068 7.31462 12.373 7.05207C12.3215 6.95098 12.2747 6.79774 12.2486 6.47723C12.2216 6.14694 12.2209 5.71805 12.2209 5.07906V0.237927C12.6415 0.368356 13.0447 0.550812 13.4209 0.781373C13.9571 1.10994 14.4092 1.56217 15.1107 2.26389L15.1845 2.33772L16.4408 3.59407C16.456 3.60922 16.4705 3.62495 16.4845 3.64122L18.1134 5.54162L18.174 5.61233L18.174 5.61234L18.174 5.61236C18.7529 6.28746 19.126 6.72264 19.3958 7.22118ZM10.2674 11.1628C10.7298 11.1628 11.1046 11.5376 11.1046 12V14.5116H13.6163C14.0786 14.5116 14.4535 14.8864 14.4535 15.3488C14.4535 15.8112 14.0786 16.186 13.6163 16.186H11.1046V18.6977C11.1046 19.16 10.7298 19.5349 10.2674 19.5349C9.80505 19.5349 9.43022 19.16 9.43022 18.6977V16.186H6.9186C6.45622 16.186 6.08139 15.8112 6.08139 15.3488C6.08139 14.8864 6.45622 14.5116 6.9186 14.5116H9.43022V12C9.43022 11.5376 9.80505 11.1628 10.2674 11.1628Z" fill="#01BCF1"/>
</svg>
