<svg width="828" height="702" viewBox="0 0 828 702" fill="none" xmlns="http://www.w3.org/2000/svg">
<path d="M810.584 290.749L781.143 320.246L749.053 352.391L717.331 384.178L687.021 414.544L655.309 446.321L623.659 478.026L591.947 509.803L561.402 540.394L529.69 572.181L497.6 604.325L467.402 634.579C467.392 634.763 467.392 634.947 467.371 635.131C466.215 662.339 443.772 684.028 416.254 684.028C407.866 684.028 399.948 682.004 392.961 678.437C384.072 673.889 376.676 666.805 371.755 658.148C367.704 651.045 365.321 642.889 365.106 634.17V634.058L331.676 601.157L299.667 569.666L269.163 539.648L237.154 508.157L206.568 478.056L174.56 446.566L142.295 414.82L110.287 383.329L78.1355 351.696L46.127 320.205L16.1953 290.749C16.1953 290.749 16.4817 289.675 17.1057 287.672V287.662C17.2284 287.273 17.3614 286.854 17.5047 286.405C17.5763 286.18 17.6479 285.945 17.7298 285.699C17.8525 285.321 17.9855 284.912 18.1185 284.493C18.2514 284.074 18.4049 283.635 18.5583 283.175C18.7118 282.705 18.8857 282.204 19.0596 281.683C19.7449 279.69 20.5531 277.4 21.5045 274.835C21.709 274.283 21.9239 273.71 22.1387 273.138C22.3535 272.566 22.5683 271.993 22.8036 271.4C23.0287 270.808 23.2639 270.205 23.4992 269.581C23.8675 268.651 24.246 267.701 24.6347 266.719C24.9825 265.84 25.3406 264.961 25.7191 264.041C26.1282 263.04 26.5477 262.028 26.9978 260.985C27.2739 260.331 27.5501 259.667 27.8366 259.003C28.1127 258.328 28.4094 257.653 28.7163 256.958C28.9516 256.427 29.1868 255.885 29.4222 255.343C30.1791 253.637 30.9566 251.889 31.7852 250.09C32.3273 248.894 32.8899 247.668 33.473 246.431C34.0561 245.194 34.6597 243.947 35.2735 242.67C35.5702 242.036 35.8873 241.392 36.2044 240.748C37.1455 238.837 38.1173 236.874 39.1198 234.891C39.13 234.871 39.1403 234.84 39.1607 234.82C40.1836 232.817 41.2476 230.772 42.3421 228.698C43.9175 225.723 45.5747 222.678 47.3239 219.581C47.8354 218.661 48.3571 217.741 48.889 216.821C49.4005 215.921 49.9222 215.022 50.4542 214.112C50.8327 213.469 51.2112 212.814 51.5999 212.16C51.9784 211.516 52.3671 210.852 52.7661 210.198C54.1573 207.867 55.5894 205.506 57.083 203.125C57.6967 202.144 58.3208 201.152 58.9447 200.161C59.579 199.17 60.2132 198.178 60.8577 197.187C61.3794 196.369 61.9113 195.562 62.4535 194.744C63.19 193.62 63.9368 192.495 64.6938 191.371C65.103 190.758 65.5224 190.144 65.9418 189.521C66.3305 188.959 66.7192 188.386 67.1079 187.814C67.9059 186.649 68.714 185.484 69.5323 184.319C70.3508 183.153 71.1794 181.978 72.0284 180.803C72.6319 179.954 73.2457 179.116 73.8595 178.268C74.2277 177.757 74.6062 177.246 74.9847 176.735C75.7213 175.733 76.468 174.721 77.225 173.719C78.115 172.534 79.005 171.348 79.9256 170.163C80.8361 168.967 81.7567 167.781 82.6978 166.585C83.24 165.9 83.7822 165.205 84.3346 164.521C85.1938 163.437 86.0634 162.354 86.9534 161.26C87.4035 160.708 87.8433 160.167 88.2934 159.625C89.1834 158.542 90.0836 157.448 91.0043 156.354C91.4646 155.802 91.9249 155.261 92.3853 154.719C94.4926 152.235 96.6408 149.762 98.8606 147.278C99.5971 146.46 100.334 145.633 101.091 144.805C101.49 144.355 101.889 143.915 102.298 143.476C103.137 142.546 103.996 141.626 104.855 140.706C105.714 139.786 106.584 138.866 107.453 137.946C108.323 137.037 109.192 136.127 110.082 135.217C110.093 135.197 110.113 135.177 110.134 135.156C111.013 134.246 111.903 133.347 112.804 132.437C113.458 131.783 114.103 131.129 114.757 130.475C115.33 129.903 115.903 129.33 116.486 128.768C117.141 128.114 117.785 127.48 118.45 126.847C118.778 126.53 119.095 126.213 119.422 125.916C120.148 125.201 120.885 124.496 121.632 123.791C122.869 122.615 124.117 121.45 125.376 120.295C125.928 119.774 126.481 119.273 127.033 118.772C128.24 117.668 129.457 116.575 130.685 115.481C131.227 115.001 131.779 114.51 132.332 114.03C133.232 113.232 134.142 112.445 135.063 111.658C136.311 110.565 137.58 109.492 138.858 108.428C139.922 107.529 140.996 106.64 142.07 105.761C143.124 104.892 144.188 104.034 145.262 103.165C145.855 102.684 146.449 102.214 147.042 101.754C147.635 101.284 148.229 100.814 148.832 100.344C152.116 97.7579 155.481 95.2231 158.918 92.719C159.655 92.1773 160.392 91.6458 161.128 91.1143C162.642 90.0207 164.177 88.9373 165.731 87.8641C166.499 87.3326 167.266 86.8011 168.043 86.2696C168.811 85.7381 169.588 85.2169 170.365 84.6956C171.409 83.9904 172.462 83.2852 173.526 82.5799C174.427 81.9769 175.337 81.3841 176.247 80.8015C177.25 80.1473 178.263 79.5034 179.286 78.8595C180.575 78.0418 181.863 77.2344 183.173 76.4372C184.267 75.7626 185.362 75.0982 186.467 74.4338C189.454 72.6248 192.492 70.8565 195.581 69.119C196.021 68.8737 196.461 68.6284 196.901 68.3831C198.753 67.3304 200.625 66.3083 202.517 65.3066C203.315 64.8773 204.103 64.4583 204.901 64.0392C205.944 63.4771 206.998 62.9354 208.061 62.3937C209.698 61.5453 211.345 60.7072 213.002 59.8895C213.811 59.4909 214.619 59.0923 215.427 58.6937C218.884 56.997 222.403 55.3515 225.984 53.7468C226.782 53.3789 227.59 53.0211 228.408 52.6634C228.582 52.5816 228.756 52.4999 228.94 52.4385C229.513 52.183 230.086 51.9275 230.659 51.6822C232.909 50.6908 235.18 49.73 237.472 48.7999C238.321 48.4524 239.159 48.1048 240.008 47.7676C240.182 47.6858 240.356 47.6143 240.54 47.5529C241.318 47.2361 242.106 46.9193 242.903 46.6126C244.898 45.8154 246.903 45.0488 248.929 44.2925C249.767 43.9756 250.617 43.6588 251.466 43.3522C252.56 42.9433 253.655 42.5447 254.76 42.1461C255.721 41.8088 256.683 41.4613 257.655 41.1343C257.961 41.0218 258.268 40.9094 258.575 40.8072C259.608 40.4494 260.652 40.0917 261.705 39.7442C261.9 39.6726 262.094 39.6113 262.288 39.55C262.82 39.366 263.363 39.1923 263.895 39.0185C264.917 38.671 265.94 38.3337 266.974 38.0067C277.817 34.5213 289.11 31.404 300.854 28.7056C315.155 25.4145 330.131 22.7367 345.813 20.7742C348.125 20.4881 350.457 20.2121 352.8 19.9566C371.899 17.8408 392 16.7779 413.185 16.9312H414.106C434.432 17.524 453.776 19.1798 472.189 21.7452C476.24 22.3073 480.25 22.9206 484.209 23.5646C498.459 25.9153 512.126 28.818 525.24 32.2012C541.26 36.3304 556.44 41.1854 570.823 46.6433C571.785 47.0113 572.746 47.3792 573.708 47.7574C589.155 53.7366 603.681 60.4313 617.317 67.6574C630.789 74.7814 643.402 82.4368 655.197 90.4704C668.147 99.2604 680.106 108.51 691.154 118.016C702.406 127.685 712.708 137.619 722.098 147.595C732.972 159.104 742.639 170.674 751.212 181.978C761.717 195.797 770.587 209.217 777.993 221.635C787.527 237.6 794.667 251.909 799.802 263.316C803.72 272.044 806.472 279.076 808.211 283.829C809.837 288.285 810.584 290.749 810.584 290.749Z" fill="#689F42"/>
<path d="M497.877 605.042L467.359 635.618L466.132 636.847L48.0156 218.076C54.9189 205.866 63.1314 192.755 72.8164 179.306L497.58 604.745L497.877 605.042Z" fill="#559340"/>
<path d="M421.07 650.548L393.036 678.542C376.808 670.246 365.595 653.542 365.175 634.182L16.1953 291.019C16.1953 291.019 16.4818 289.946 17.1059 287.944V287.933C18.6304 283.019 22.1399 272.486 28.2584 258.306L421.07 650.548Z" fill="#559340"/>
<path d="M561.517 540.29L529.817 572.111L101.781 143.817C111.455 133.176 122.11 122.607 133.85 112.375L561.517 540.29Z" fill="#559340"/>
<path d="M624.054 477.765L592.284 509.569L167.609 85.6667C179.948 77.2168 193.199 69.2376 207.444 61.9028L624.054 477.765Z" fill="#559340"/>
<path d="M686.594 414.121L654.931 445.931L252.094 42.4072C257.027 40.586 262.062 38.8569 267.2 37.1995C278.026 33.7105 289.302 30.59 301.027 27.8889L686.594 414.121Z" fill="#559340"/>
<path d="M749.136 352.672L717.427 384.486L353.039 19.9591C372.161 17.8416 392.295 16.7778 413.513 16.9312L749.136 352.672Z" fill="#559340"/>
<path d="M810.586 290.295L781.19 319.75L484.711 23.5C516.313 28.705 545.065 36.6351 571.192 46.5451L808.216 283.386C809.84 287.836 810.586 290.295 810.586 290.295Z" fill="#559340"/>
<path opacity="0.1" d="M267.456 37.7639L17.2891 287.931C24.9295 263.227 82.55 97.2177 267.456 37.7639Z" fill="white"/>
<path opacity="0.1" d="M413.39 16.9311L77.8733 351.569L45.8203 320.091L345.924 20.7728C348.239 20.4867 350.575 20.2108 352.92 19.9554C372.046 17.8405 392.175 16.7779 413.39 16.9311Z" fill="white"/>
<path opacity="0.1" d="M525.305 31.7835L142.547 415.208L110.555 383.651L472.28 21.3055C476.329 21.8689 480.337 22.4834 484.294 23.1287C498.537 25.4845 512.197 28.3933 525.305 31.7835Z" fill="white"/>
<path opacity="0.1" d="M617.473 67.5302L206.241 477.75L174.195 446.273L573.813 47.6389C589.278 53.6155 603.821 60.3073 617.473 67.5302Z" fill="white"/>
<path opacity="0.1" d="M690.984 118.018L268.76 540.292L236.734 508.753L655.008 90.4305C667.965 99.2339 679.93 108.498 690.984 118.018Z" fill="white"/>
<path opacity="0.1" d="M751.337 181.921L331.326 601.736L299.281 570.198L722.19 147.486C733.077 159.012 742.755 170.6 751.337 181.921Z" fill="white"/>
<path opacity="0.1" d="M799.609 262.801L388.187 675.25L371.756 658.777C367.707 651.653 365.324 643.474 365.109 634.73L777.81 221C787.339 237.011 794.476 251.362 799.609 262.801Z" fill="white"/>
<path d="M415.032 488.722C432.909 488.722 447.4 474.231 447.4 456.354C447.4 438.478 432.909 423.986 415.032 423.986C397.156 423.986 382.664 438.478 382.664 456.354C382.664 474.231 397.156 488.722 415.032 488.722Z" fill="#F4A137"/>
<path d="M456.027 254.658C432.984 249.916 409.296 249.333 386.059 253.029C221.709 279.193 200.531 451.995 200.531 451.995L375.168 631.279C375.394 640.341 378.539 673.97 413.19 675.25C452.871 675.291 453.394 634.689 453.537 630.685L631.74 452.138C631.74 452.138 617.488 287.907 456.027 254.658ZM546.188 495.679L440.546 606.109C440.546 606.109 431.611 595.008 417.391 593.974C401.991 592.981 394.174 602.453 391.981 605.658L286.062 496.693C295.119 491.747 301.266 482.142 301.266 471.093C301.266 459.184 294.115 448.933 283.869 444.417L390.137 335.626C390.137 335.626 395.844 352.205 416.141 351.099C436.427 349.983 443.097 337.111 443.097 337.111L546.588 443.537C537.265 448.554 530.933 458.395 530.933 469.721C530.933 480.882 537.09 490.6 546.188 495.679Z" fill="#F4A137"/>
<path d="M415.032 488.722C432.909 488.722 447.4 474.231 447.4 456.354C447.4 438.478 432.909 423.986 415.032 423.986C397.156 423.986 382.664 438.478 382.664 456.354C382.664 474.231 397.156 488.722 415.032 488.722Z" fill="#F4A137"/>
<path d="M415.032 488.722C432.909 488.722 447.4 474.231 447.4 456.354C447.4 438.478 432.909 423.986 415.032 423.986C397.156 423.986 382.664 438.478 382.664 456.354C382.664 474.231 397.156 488.722 415.032 488.722Z" fill="#F4A137"/>
<path d="M417.315 303.292L404.609 315.882L417.371 328.528L429.845 316.167L417.315 303.292Z" fill="#FFFDFF"/>
<path d="M263.706 458L251 470.59L263.762 483.236L276.236 470.875L263.706 458Z" fill="#FFFDFF"/>
<path d="M573.12 458L560.414 470.59L573.176 483.236L585.65 470.875L573.12 458Z" fill="#FFFDFF"/>
<path d="M423.263 445.931H406.805V452.514H423.263V445.931Z" fill="#FFFDFF"/>
<path d="M425.457 629.167V634.122L414.932 648.917L404.609 634.408V629.167H425.457Z" fill="#FFF5FF"/>
<path d="M404.085 624.248H399.498L28.8167 257.756C28.2137 257.16 27.2421 257.165 26.6461 257.768C26.0507 258.371 26.0562 259.343 26.6586 259.939L395.133 624.248H388.555C387.707 624.248 387.02 624.935 387.02 625.782V650.336C387.02 651.183 387.707 651.871 388.555 651.871H404.085C404.933 651.871 405.62 651.183 405.62 650.336V625.782C405.62 624.935 404.933 624.248 404.085 624.248ZM402.551 648.802H390.089V627.317H402.551V648.802Z" fill="white"/>
<path d="M802.072 264.73C801.48 264.125 800.508 264.115 799.902 264.709L433.363 624.248H425.121C424.273 624.248 423.586 624.935 423.586 625.783V650.336C423.586 651.184 424.273 651.871 425.121 651.871H440.661C441.509 651.871 442.196 651.184 442.196 650.336V625.783C442.196 624.935 441.509 624.248 440.661 624.248H437.747L802.052 266.9C802.656 266.306 802.666 265.335 802.072 264.73ZM439.126 648.802H426.655V627.317H439.126V648.802Z" fill="white"/>
<path d="M815.892 296.05C817.844 294.094 818.563 291.224 817.763 288.579L810.584 290.751C817.763 288.579 817.761 288.574 817.759 288.568L817.754 288.552L817.739 288.5C817.726 288.458 817.708 288.4 817.685 288.326C817.664 288.261 817.64 288.184 817.612 288.095C817.576 287.981 817.534 287.848 817.484 287.695C817.31 287.152 817.051 286.365 816.704 285.351C816.01 283.322 814.962 280.383 813.521 276.66C810.639 269.215 806.183 258.63 799.843 245.926C787.169 220.531 766.929 186.598 736.623 152.36C675.889 83.7494 574.902 14.1589 414.326 9.43904C414.273 9.43749 414.221 9.4365 414.168 9.43606C250.122 8.08165 148.629 77.7244 88.2984 147.956C58.2091 182.983 38.4147 218.077 26.1348 244.424C19.9915 257.605 15.7184 268.618 12.9714 276.372C11.5976 280.249 10.6048 283.314 9.9499 285.429C9.62245 286.486 9.37944 287.307 9.21553 287.873C9.13357 288.156 9.07138 288.376 9.02829 288.53C9.00675 288.607 8.98997 288.667 8.97789 288.711L8.96328 288.764L8.95859 288.782C8.95697 288.788 8.95564 288.792 16.1953 290.751L8.95564 288.792C8.24842 291.406 9.005 294.198 10.9351 296.097L357.759 637.351C360.025 667.666 385.366 691.528 416.254 691.528C446.98 691.528 472.205 667.932 474.722 637.862L815.892 296.05Z" stroke="#232825" stroke-width="15" stroke-linecap="round" stroke-linejoin="round"/>
<path d="M810.584 290.751L467.402 634.579C466.522 662.043 443.956 684.028 416.254 684.028C388.389 684.028 365.71 661.767 365.106 634.058L16.1953 290.751C16.1953 290.751 91.0043 14.2682 414.106 16.9358C730.538 26.2368 810.584 290.751 810.584 290.751Z" stroke="#094624" stroke-width="10" stroke-linecap="round" stroke-linejoin="round"/>
</svg>
