<svg width="54" height="60" viewBox="0 0 54 60" fill="none" xmlns="http://www.w3.org/2000/svg">
<path d="M48.6535 37.5894C48.5015 37.9161 48.3377 38.2479 48.1612 38.5831C47.9135 39.0535 47.6413 39.5315 47.3422 40.0153C47.1322 40.3563 46.9088 40.6991 46.6711 41.0451C46.4115 41.4223 46.1352 41.8028 45.8412 42.185C45.6354 42.453 45.4203 42.7218 45.1961 42.9914C45.1961 42.9914 45.1961 42.9923 45.1952 42.9923C45.1952 42.9931 45.1944 42.9931 45.1944 42.9939C45.1683 43.025 45.1431 43.0561 45.1171 43.0872C44.8189 43.4433 44.5047 43.8003 44.1738 44.1582C44.0049 44.3413 43.8311 44.5244 43.653 44.7084C43.6026 44.7605 43.5513 44.8134 43.5018 44.8646L43.5001 44.8663C39.8847 47.8853 33.9283 49.3905 29.9593 48.3817C22.6244 46.2683 19.4181 39.6373 18.1313 37.5734C16.8435 35.5087 15.6549 31.5985 15.35 31.3188C15.0443 31.0391 14.2446 30.7719 14.4873 32.084L14.888 34.3428C15.2887 36.6015 18.1069 47.4107 18.4706 48.989C18.5151 49.1814 18.5555 49.3637 18.5966 49.5417C18.6344 49.7097 18.6731 49.8735 18.7134 50.0357C18.9603 51.0277 19.2947 51.9668 20.3153 53.5897C19.8717 53.2445 19.4702 52.8337 19.0603 52.3952C18.0212 51.2847 16.6193 50.6472 16.3639 50.4649C16.1085 50.2826 11.4818 47.0579 9.09537 38.2043C7.10962 29.1953 5.3977 14.7599 5.28766 10.9337C5.21121 8.25994 5.42878 5.7265 6.28809 4.43458C6.39813 4.26826 6.51909 4.12294 6.65182 4.00114C6.96262 3.71134 7.33725 3.54922 7.78329 3.54418C8.2117 3.53914 8.56113 3.6391 8.85009 3.8197C9.98745 4.52866 10.1899 6.48334 10.5771 8.20786C11.0627 10.3692 13.9775 26.2788 15.6776 31.6707C15.6776 31.6707 17.1468 29.2784 17.5483 22.4291V6.30694C17.5483 5.5921 18.0313 4.28926 19.2233 3.53494C19.823 3.15358 20.6034 2.9125 21.5921 2.95534C21.6441 2.95702 21.6945 2.96038 21.7449 2.96375C21.8163 2.96794 21.8861 2.97298 21.9541 2.97886H21.9549C22.259 3.00658 22.5345 3.0511 22.784 3.1099C23.5526 3.2905 24.0734 3.60886 24.4346 3.99779C24.968 4.5715 25.1528 5.29894 25.2721 5.96086C25.3452 7.2721 25.2897 26.4728 25.3452 27.1289C25.3687 27.4153 25.4552 27.6396 25.5451 27.8009C25.661 28.0092 25.782 28.1125 25.782 28.1125C25.782 28.1125 25.8609 28.0839 25.9634 28.0075C26.1415 27.8748 26.3901 27.5967 26.4011 27.0743C26.4195 26.2544 26.4011 7.77022 26.4011 6.36154C26.4011 5.6425 26.6833 4.70842 27.3242 3.99694H27.3251C27.9391 3.31486 28.8841 2.83775 30.2273 2.9503C30.36 2.96122 30.4885 2.9755 30.6111 2.99314C30.6825 3.00238 30.7514 3.0133 30.8195 3.02506C31.0437 3.06454 31.2512 3.11326 31.4436 3.17206C32.4667 3.48118 33.0606 4.0423 33.384 4.65802C33.6125 5.0923 33.7074 5.5543 33.7242 5.97262C33.7729 7.18726 33.7242 26.1637 33.7242 26.892C33.7242 27.2649 33.8057 27.548 33.9149 27.7421C34.0182 27.9269 34.1459 28.0319 34.2525 28.0579C34.3113 28.0722 34.3836 28.0579 34.4575 28.0151C34.6582 27.9 34.8725 27.5749 34.8725 27.0558V6.92602C34.8725 6.33466 35.232 5.38294 36.0442 4.70842H36.0451C36.6835 4.17754 37.6008 3.81886 38.8431 3.93898C38.8952 3.94402 38.9456 3.94906 38.996 3.95579C39.0666 3.96418 39.1355 3.97342 39.2035 3.98434C39.4715 4.0255 39.7167 4.08094 39.9402 4.14898C41.7378 4.6933 42.1779 6.01462 42.2107 6.71266C42.2124 6.7429 42.2132 6.77146 42.2132 6.79918V27.1406C42.2132 27.3179 42.2451 27.459 42.2947 27.5715C42.4165 27.8529 42.6467 27.9554 42.7525 27.989C42.7869 27.9999 42.8088 28.0033 42.8088 28.0033C42.8088 28.0033 42.8701 27.9857 42.9507 27.9218C43.0927 27.8126 43.2968 27.5648 43.343 27.0314C43.4161 26.1939 43.343 12.0819 43.343 10.7337C43.343 9.92986 43.6345 8.86054 44.4569 8.1205C44.9978 7.6333 45.7698 7.2889 46.8399 7.25698C46.8702 7.2553 46.9004 7.25446 46.9315 7.25446C46.971 7.25362 47.0105 7.25362 47.0491 7.25362H47.0499C47.2784 7.25446 47.4926 7.2679 47.6951 7.29142C49.8622 7.54426 50.567 9.03022 50.6661 10.2785V27.8571C50.6661 29.3691 50.756 33.0752 48.6535 37.5894Z" fill="#E38C4F"/>
<path d="M44.3567 44.0809C44.324 44.1691 43.2664 46.9999 41.6889 49.0436C41.0328 49.9542 40.3407 51.4485 40.2676 52.5052C40.1945 53.5611 40.0853 54.9463 38.8102 55.893C37.5351 56.8405 36.26 57.0412 35.3494 57.0043C34.438 56.9682 28.5908 57.1404 27.261 57.0085C25.9305 56.8766 22.2143 56.4944 20.5931 54.0172C20.4965 53.8694 20.405 53.7274 20.3184 53.5897C18.9551 51.4216 18.8165 50.4741 18.4738 48.989C18.1101 47.4106 15.2919 36.6015 14.8912 34.3428L14.4905 32.084C14.2478 30.7719 15.0474 31.039 15.3532 31.3188C15.6581 31.5985 16.8467 35.5087 18.1344 37.5734C19.4213 39.6373 22.6276 46.2682 29.9625 48.3817C33.9315 49.3905 39.8879 47.8852 43.5033 44.8663L43.505 44.8646C43.8057 44.6134 44.0904 44.3514 44.3567 44.0809Z" fill="#303338"/>
<path d="M19.2247 3.53494C18.0328 4.28925 17.5498 5.59209 17.5498 6.30694V22.4291C17.1482 29.2784 15.6791 31.6707 15.6791 31.6707C13.9789 26.2788 11.0641 10.3692 10.5786 8.20786C10.1914 6.48333 9.98892 4.52865 8.85156 3.81969C9.01956 3.65925 9.31608 3.46941 9.76464 3.48369C10.5299 3.50721 14.0696 3.51982 17.5859 3.30141C18.4872 3.17709 18.9072 3.18045 19.2247 3.53494Z" fill="#85472A"/>
<path d="M26.4039 6.36155C26.4039 7.77023 26.4224 26.2544 26.4039 27.0743C26.3863 27.8941 25.7849 28.1125 25.7849 28.1125C25.7849 28.1125 25.4027 27.7849 25.3481 27.1289C25.2926 26.4728 25.3481 7.27211 25.275 5.96087C25.1557 5.29895 24.9709 4.57151 24.4375 3.99779C24.8945 4.17419 25.4858 4.33379 26.0159 4.2607C26.514 4.19183 26.976 4.08766 27.3271 3.99695C26.6862 4.70843 26.4039 5.64251 26.4039 6.36155Z" fill="#85472A"/>
<path d="M36.0431 4.70848C35.2308 5.383 34.8713 6.33472 34.8713 6.92608V27.0558C34.8713 27.7665 34.4706 28.1126 34.2514 28.058C34.033 28.0034 33.723 27.6203 33.723 26.892C33.723 26.1638 33.7717 7.18732 33.723 5.97268C33.7062 5.55436 33.6113 5.09236 33.3828 4.65808C33.8448 4.84624 34.6638 4.984 36.0431 4.70848Z" fill="#85472A"/>
<path d="M43.3433 10.7337C43.3433 12.0819 43.4163 26.1939 43.3433 27.0314C43.2702 27.8697 42.809 28.0033 42.809 28.0033C42.809 28.0033 42.7872 27.9999 42.7527 27.989C42.6041 27.942 42.2134 27.7605 42.2134 27.1406V6.79917C42.2134 6.77145 42.2126 6.74289 42.2109 6.71265C42.6754 7.24185 43.4961 7.99953 44.4571 8.12049C43.6347 8.86053 43.3433 9.92985 43.3433 10.7337Z" fill="#85472A"/>
<path d="M18.9141 42.8108C18.9141 42.8108 19.9585 47.6379 20.7115 49.8315C21.4644 52.0252 23.4076 53.7254 25.715 53.8711C28.2897 54.1383 33.4631 53.944 34.9691 53.9683C36.4751 53.9926 37.6241 53.2639 38.4341 52.0494C39.2441 50.835 39.9971 50.2095 39.7967 49.3351C39.7967 49.3351 34.8423 51.5029 29.6593 50.3735C24.4763 49.244 22.0777 46.9615 18.9141 42.8108Z" fill="#A2A39B"/>
<path d="M9.78054 11.9116C9.78054 11.9116 8.74825 12.1302 8.40821 12.2031C8.06816 12.276 7.971 12.9439 8.10459 13.5147C8.23818 14.0855 10.8857 28.6772 11.0132 29.2602C11.1407 29.8431 11.2136 30.3714 11.7874 30.8086L13.263 30.5718C13.263 30.5718 12.6892 30.2348 12.5799 29.3057C12.4706 28.3766 9.61052 13.539 9.57408 13.1564C9.53765 12.7739 9.49514 12.1059 9.78054 11.9116Z" fill="#303338"/>
<path d="M20.6867 8.58399L19.6302 8.53845C19.6302 8.53845 19.4935 8.77527 19.4935 9.40375C19.4935 10.0322 19.4905 12.8832 19.4935 13.0532C19.4966 13.2232 19.6423 13.4175 19.6423 13.4175H20.6867C20.6867 13.4175 20.5501 13.2202 20.5319 12.8376C20.5137 12.4551 20.5167 9.27623 20.5167 9.27623C20.5167 9.27623 20.5046 8.60828 20.6867 8.58399Z" fill="#303338"/>
<path d="M46.9446 16.5266L45.888 16.4811C45.888 16.4811 45.7513 16.7179 45.7513 17.3464C45.7513 17.9749 45.7483 20.5586 45.7513 20.7286C45.7544 20.8987 45.9001 21.093 45.9001 21.093H46.9446C46.9446 21.093 46.8079 20.8956 46.7897 20.5131C46.7715 20.1305 46.7745 17.2189 46.7745 17.2189C46.7745 17.2189 46.7624 16.5509 46.9446 16.5266Z" fill="#303338"/>
<path d="M46.9446 21.4816L45.888 21.436C45.888 21.436 45.7513 21.6729 45.7513 22.3013C45.7513 22.9298 45.7483 25.5136 45.7513 25.6836C45.7544 25.8536 45.9001 26.0479 45.9001 26.0479H46.9446C46.9446 26.0479 46.8079 25.8506 46.7897 25.468C46.7715 25.0855 46.7745 22.1738 46.7745 22.1738C46.7745 22.1738 46.7624 21.5059 46.9446 21.4816Z" fill="#303338"/>
<path d="M46.9446 26.4365L45.888 26.391C45.888 26.391 45.7513 26.6278 45.7513 27.2563C45.7513 27.8848 45.7483 30.4685 45.7513 30.6386C45.7544 30.8086 45.9001 31.0029 45.9001 31.0029H46.9446C46.9446 31.0029 46.8079 30.8055 46.7897 30.423C46.7715 30.0404 46.7745 27.1288 46.7745 27.1288C46.7745 27.1288 46.7624 26.4608 46.9446 26.4365Z" fill="#303338"/>
<path d="M20.6867 15.5004L19.6302 15.4548C19.6302 15.4548 19.4935 15.6917 19.4935 16.3201C19.4935 16.9486 19.4905 19.7996 19.4935 19.9696C19.4966 20.1396 19.6423 20.3339 19.6423 20.3339H20.6867C20.6867 20.3339 20.5501 20.1366 20.5319 19.754C20.5137 19.3715 20.5167 16.1926 20.5167 16.1926C20.5167 16.1926 20.5046 15.5247 20.6867 15.5004Z" fill="#303338"/>
<path d="M20.6867 22.8751L19.6302 22.8296C19.6302 22.8296 19.4935 23.0664 19.4935 23.6949C19.4935 24.3234 19.4905 26.7159 19.4935 26.8859C19.4966 27.0559 19.6423 27.2502 19.6423 27.2502H20.6867C20.6867 27.2502 20.5501 27.0529 20.5319 26.6703C20.5137 26.2878 20.5167 23.5674 20.5167 23.5674C20.5167 23.5674 20.5046 22.8994 20.6867 22.8751Z" fill="#303338"/>
<path d="M11.43 4.90413H10.501C10.632 4.36149 10.5178 3.85665 10.375 3.49377C10.6388 3.49545 10.963 3.49713 11.336 3.49545C11.693 4.34889 11.43 4.90413 11.43 4.90413Z" fill="#050D0F"/>
<path d="M13.3449 4.90414H12.4159C12.5478 4.35814 12.4319 3.85078 12.2891 3.4879C12.5898 3.48453 12.9081 3.47949 13.2416 3.47278C13.6129 4.33882 13.3449 4.90414 13.3449 4.90414Z" fill="#050D0F"/>
<path d="M15.3856 4.80498H14.4566C14.5817 4.28754 14.4834 3.8037 14.3516 3.44586C14.6607 3.43662 14.9765 3.42654 15.2991 3.41394C15.6452 4.25646 15.3856 4.80498 15.3856 4.80498Z" fill="#050D0F"/>
<path d="M17.7224 4.71347H16.7933C16.9185 4.19519 16.8202 3.71135 16.6875 3.35267C16.9857 3.33671 17.2847 3.31991 17.5846 3.30143C17.5981 3.29975 17.6115 3.29807 17.6249 3.29639C17.987 4.15403 17.7224 4.71347 17.7224 4.71347Z" fill="#050D0F"/>
<path d="M18.9769 50.0149C18.9467 50.0662 18.8988 50.0998 18.8459 50.1124C18.8299 50.1166 18.8131 50.1182 18.7963 50.1182C18.7593 50.1182 18.7232 50.109 18.6896 50.0888C16.1587 48.5911 13.3833 43.4399 11.4824 36.4385C9.374 28.6685 7.66881 18.2206 6.84981 11.6342C6.36681 7.75086 6.27273 5.59878 6.2912 4.43454C6.40124 4.26822 6.5222 4.1229 6.65493 4.0011C6.69608 4.04058 6.72044 4.09686 6.71793 4.15818C6.68685 5.0301 6.71624 7.15446 7.26644 11.5821C8.08377 18.1551 9.78476 28.5803 11.8873 36.3285C13.716 43.0636 16.3427 48.0468 18.7291 49.6184C18.7871 49.6571 18.845 49.6932 18.903 49.7276C19.0029 49.7864 19.0357 49.915 18.9769 50.0149Z" fill="#303338"/>
<path d="M47.3411 40.0153C47.1311 40.3564 46.9076 40.6991 46.6699 41.0452C46.5901 40.9486 46.5086 40.8621 46.4263 40.7848C45.7652 40.1623 45.0781 40.1355 45.0781 40.1355L45.7342 39.1644C45.7342 39.1644 46.2802 39.2459 46.9522 39.7121C47.0782 39.7986 47.2092 39.8994 47.3411 40.0153Z" fill="#303338"/>
<path d="M23.9988 31.0891C23.9988 31.0891 22.6629 31.0029 22.2135 31.0029C21.7642 31.0029 21.2784 31.3065 20.9262 32.351C20.574 33.3954 20.8837 33.5867 20.8837 33.5867L22.924 33.7142C22.924 33.7142 22.6507 33.2132 22.9331 32.6121C23.2154 32.0109 23.4705 31.3331 23.9988 31.0891Z" fill="#303338"/>
<path d="M32.3432 31.2367L30.1299 31.1456C30.1299 31.1456 28.8746 32.4026 29.0476 33.8235L31.2776 33.9601C31.2776 33.9601 31.0043 33.3499 31.2776 32.6758C31.5508 32.0018 31.9516 31.3369 32.3432 31.2367Z" fill="#303338"/>
<path d="M40.5308 31.9166L38.3174 31.8256C38.3174 31.8256 37.0621 33.0825 37.2351 34.5034L39.4651 34.6401C39.4651 34.6401 39.1918 34.0298 39.4651 33.3558C39.7383 32.6818 40.1391 32.0168 40.5308 31.9166Z" fill="#303338"/>
<path d="M29.6557 38.2401L27.4424 38.149C27.4424 38.149 26.1871 39.406 26.3601 40.8269L28.5901 40.9636C28.5901 40.9636 28.3168 40.3533 28.5901 39.6793C28.8633 39.0052 29.2641 38.3403 29.6557 38.2401Z" fill="#303338"/>
<path d="M37.8667 39.0401L35.6533 38.949C35.6533 38.949 34.398 40.2059 34.5711 41.6269L36.801 41.7635C36.801 41.7635 36.5277 41.1532 36.801 40.4792C37.0742 39.8052 37.475 39.1403 37.8667 39.0401Z" fill="#303338"/>
<path d="M21.3792 38.3017C21.3792 38.3017 20.4602 38.4008 20.1914 40.8897C19.6421 40.0951 19.1935 39.3559 18.8281 38.7376C19.0272 38.3932 19.254 38.1488 19.254 38.1488L21.3792 38.3017Z" fill="#303338"/>
<path d="M21.6507 42.8109C21.3987 42.5135 21.1618 42.2178 20.9375 41.9247C21.1097 41.7558 21.4281 41.4316 21.6649 41.1191C21.9438 40.7512 21.8884 40.6109 21.859 40.5723C21.9463 40.6605 22.5117 41.2308 22.6242 41.3988C22.7343 41.5635 22.4755 42.007 21.6507 42.8109Z" fill="#303338"/>
<path d="M23.118 44.3698C22.8164 44.08 22.53 43.7869 22.2578 43.4912C23.5346 42.6814 23.5892 42.1884 23.5892 42.1884C23.5892 42.1884 24.1965 42.7957 24.3183 42.9654C24.4343 43.1275 24.0269 43.87 23.118 44.3698Z" fill="#303338"/>
<path d="M25.2953 46.1566C24.9534 45.9205 24.6258 45.6744 24.3125 45.4216C25.0525 45.0016 25.3961 44.0095 25.3961 44.0095C25.3961 44.0095 25.9673 44.3497 26.1857 44.6051C26.3663 44.8159 25.7481 45.7114 25.2953 46.1566Z" fill="#303338"/>
<path d="M28.5035 45.7096C28.5035 45.7096 28.4204 46.9024 27.8643 47.6122C27.5216 47.4593 27.1889 47.2955 26.8672 47.1217C27.4812 46.3077 27.4711 45.188 27.4711 45.188L28.5035 45.7096Z" fill="#303338"/>
<path d="M30.6221 48.5237C30.3961 48.4834 30.1752 48.4364 29.9602 48.3818C29.8207 48.3414 29.683 48.2994 29.5469 48.2558C30.0047 47.3712 29.851 46.0499 29.851 46.0499C29.851 46.0499 30.7741 46.2448 30.932 46.2809C31.0664 46.312 31.1656 47.7518 30.6221 48.5237Z" fill="#303338"/>
<path d="M33.8231 48.6481C33.4082 48.6808 32.9983 48.6959 32.5967 48.6943C32.8194 47.1932 32.2188 46.3658 32.2188 46.3658L33.4326 46.3053C33.4326 46.3053 34.0667 47.383 33.8231 48.6481Z" fill="#303338"/>
<path d="M36.6387 48.1919C36.2632 48.2834 35.886 48.3641 35.5105 48.4304C35.5231 46.7034 34.9688 46.0499 34.9688 46.0499L36.1708 45.9407C36.1708 45.9407 36.7378 46.9798 36.6387 48.1919Z" fill="#303338"/>
<path d="M39.3609 47.3066C39.024 47.446 38.6821 47.5745 38.3369 47.693C38.2579 47.3545 38.1109 46.7161 37.9446 46.3053C37.7144 45.7341 37.5078 45.6375 37.5078 45.6375L38.6368 45.3217C38.6368 45.3217 39.3592 46.0441 39.3609 47.3066Z" fill="#303338"/>
<path d="M41.9949 45.9566C41.6807 46.1557 41.3565 46.343 41.0239 46.522C40.8676 46.2103 40.5098 45.4955 40.4065 45.2603C40.2729 44.957 39.9453 44.8966 39.9453 44.8966L40.9894 44.3136C40.9894 44.3136 41.8487 44.9604 41.9949 45.9566Z" fill="#303338"/>
<path d="M44.1762 44.1583C44.0073 44.3414 43.8335 44.5245 43.6554 44.7085C43.605 44.7605 43.5538 44.8135 43.5042 44.8647L43.5025 44.8664C43.4395 44.9193 43.3757 44.9714 43.311 45.0226C42.7667 43.6324 42.0703 43.4997 42.0703 43.4997L43.0657 42.7958C43.0657 42.7958 43.9334 43.367 44.1762 44.1583Z" fill="#303338"/>
<path d="M45.8351 42.1577C45.6612 42.4651 45.3369 42.8057 45.1985 42.9914C45.1985 42.9914 45.1985 42.9922 45.1977 42.9922C45.1968 42.9931 45.1968 42.9939 45.196 42.9948C45.1699 43.0258 45.1456 43.0561 45.1195 43.0872C44.34 42.1136 43.7344 42.0666 43.7344 42.0666L44.5475 41.2896C44.5475 41.2896 45.2723 41.5235 45.8351 42.1577Z" fill="#303338"/>
<path d="M48.6595 37.5894C48.5074 37.9162 48.3436 38.248 48.1672 38.5832C48.011 38.5042 47.7959 38.3975 47.5843 38.2984C47.3247 38.1774 47.0693 38.0682 46.9316 38.0346C46.5796 37.9498 46.3125 38.0951 46.3125 38.0951L46.8224 37.0628C46.8224 37.0628 47.2592 36.9174 47.8909 37.2207C47.9245 37.2366 47.958 37.2526 47.9908 37.2686C48.2563 37.3962 48.4873 37.5063 48.6595 37.5894Z" fill="#303338"/>
<path d="M46.9521 39.9222C46.9221 39.9222 46.8918 39.9157 46.8628 39.9022C46.7579 39.8528 46.7129 39.7277 46.7622 39.6227C46.9783 39.1632 47.1873 38.6907 47.3832 38.218C47.4277 38.1108 47.5507 38.0598 47.6576 38.1044C47.7648 38.1488 47.8156 38.2716 47.7712 38.3788C47.5727 38.8575 47.3612 39.3362 47.1423 39.8015C47.1065 39.8776 47.0309 39.9222 46.9521 39.9222Z" fill="#303338"/>
<path d="M45.7411 42.2723C45.7061 42.2723 45.6706 42.2636 45.6379 42.2451C45.5369 42.1881 45.5014 42.06 45.5585 41.959C45.7993 41.5331 46.0293 41.1059 46.2422 40.6891C46.2951 40.5859 46.4216 40.5451 46.5248 40.5977C46.6281 40.6505 46.669 40.777 46.6163 40.8803C46.4006 41.3022 46.1677 41.7347 45.924 42.1657C45.8855 42.234 45.8143 42.2723 45.7411 42.2723Z" fill="#303338"/>
<path d="M48.1852 37.3425C48.1533 37.4265 48.0735 37.4785 47.9887 37.4785C47.9643 37.4785 47.9391 37.4743 47.9148 37.4651C47.8064 37.4239 47.751 37.303 47.7921 37.1946C49.4066 32.9005 49.6158 29.5473 49.5612 28.7106V28.7014C49.5494 28.1487 49.5318 11.9921 49.5309 11.3041V11.2924C49.5318 11.2798 49.5922 10.0584 49.0118 9.05379C48.4179 8.08274 47.5872 7.64762 46.9941 7.45526C46.9076 7.42922 46.8454 7.35026 46.8438 7.25703C46.874 7.25534 46.9042 7.2545 46.9353 7.2545C46.9748 7.25366 47.0143 7.25366 47.0529 7.25366H47.0538C47.2822 7.2545 47.4964 7.26795 47.6989 7.29146C48.2592 7.57118 48.8866 8.04326 49.373 8.83958C50.003 9.93158 49.9568 11.1958 49.9509 11.3092C49.9509 11.6947 49.9694 28.0672 49.9812 28.6888C50.0358 29.5557 49.8224 32.9871 48.1852 37.3425Z" fill="#303338"/>
<path d="M42.966 28.021C42.95 28.1251 42.861 28.1991 42.7585 28.1991C42.7484 28.1991 42.7375 28.1982 42.7266 28.1965C41.8068 28.0554 41.3171 27.1154 41.3171 26.4913V26.2536C41.3187 22.1897 41.3204 8.79421 41.2574 6.73201C41.0256 5.25109 39.821 4.49509 39.1221 4.17505C39.0365 4.13557 38.9894 4.04569 39.002 3.95581C39.0726 3.96421 39.1415 3.97345 39.2095 3.98437C39.4775 4.02553 39.7227 4.08097 39.9462 4.14901C40.6677 4.61437 41.4809 5.40901 41.6741 6.68077C41.6757 6.68917 41.6766 6.69757 41.6766 6.70597C41.7387 8.67577 41.7396 21.0322 41.7371 26.2536V26.4913C41.7371 26.8256 41.9345 27.2977 42.3007 27.5716C42.4401 27.6774 42.6039 27.753 42.7904 27.7816C42.8702 27.7942 42.9324 27.8504 42.9567 27.9219C42.9677 27.9529 42.971 27.9865 42.966 28.021Z" fill="#303338"/>
<path d="M34.4625 28.0747C34.4541 28.1848 34.3617 28.2679 34.2533 28.2679C34.2483 28.2679 34.2424 28.2679 34.2365 28.2671C33.3217 28.194 32.7413 27.118 32.7413 26.6828C32.7413 26.4922 32.7388 7.65852 32.6413 5.55432C32.3314 4.32793 31.4292 3.60385 30.7236 3.21156C30.6556 3.17628 30.6094 3.10656 30.6094 3.02508C30.6094 3.01416 30.6102 3.00324 30.6119 2.99316C30.6833 3.0024 30.7522 3.01332 30.8202 3.02508C31.0445 3.06456 31.252 3.11328 31.4443 3.17208C32.1046 3.64668 32.785 4.38085 33.0546 5.47285C33.058 5.48628 33.0597 5.49972 33.0605 5.51316C33.1588 7.52328 33.1613 26.4922 33.1613 26.6828C33.1613 26.8651 33.4385 27.4884 33.9156 27.7421C34.024 27.8 34.1424 27.8387 34.2701 27.8488C34.3658 27.8563 34.4406 27.926 34.4583 28.0151C34.4625 28.0344 34.4641 28.0546 34.4625 28.0747Z" fill="#303338"/>
<path d="M25.9917 28.1612C25.969 28.2578 25.8825 28.3225 25.7876 28.3225C25.7716 28.3225 25.7548 28.3208 25.7388 28.3166C24.8022 28.0923 24.352 27.1784 24.3209 26.372C24.2932 25.674 24.2898 8.05834 24.2898 7.30906V7.29898C24.2907 7.28638 24.3478 6.05662 24.2369 5.53918C23.7783 4.00114 22.5855 3.40306 21.9068 3.18214C21.8723 3.1729 21.8412 3.1561 21.8144 3.1309C21.7673 3.08554 21.7463 3.02338 21.7505 2.96375C21.8219 2.96794 21.8916 2.97298 21.9597 2.97886H21.9605C22.2646 3.00658 22.5401 3.0511 22.7896 3.1099C23.486 3.49462 24.2756 4.19014 24.6418 5.42746C24.6426 5.4325 24.6443 5.4367 24.6452 5.44175C24.7678 5.99698 24.7149 7.21162 24.7098 7.3141C24.7098 7.7005 24.714 25.6698 24.7409 26.3552C24.7611 26.8928 25.024 27.5237 25.5507 27.8009C25.638 27.8479 25.7338 27.884 25.8363 27.9084C25.8951 27.9218 25.9413 27.9596 25.969 28.0075C25.995 28.0529 26.0043 28.1066 25.9917 28.1612Z" fill="#303338"/>
<path d="M22.7066 5.01355C22.7066 5.01355 22.1965 5.90618 22.1237 5.99726C22.0508 6.08834 22.1905 6.94454 24.1336 8.29258C24.1336 8.29258 22.992 8.99697 22.567 9.32488C22.3484 9.53133 22.3241 10.0535 22.3241 10.0535L22.8463 11.0615C22.8463 11.0615 22.992 10.6729 23.4171 10.3693C23.8421 10.0657 25.1538 9.10627 25.1538 9.10627C25.1538 9.10627 26.9754 10.6729 28.3478 10.7701L29.0643 9.89567C29.0643 9.89567 28.7607 9.9321 28.2385 9.73779C27.7163 9.54348 26.2953 8.53851 26.2953 8.53851C26.2953 8.53851 28.117 7.07813 28.3964 7.02955C28.6757 6.98097 29.1129 7.05384 29.1129 7.05384L28.4935 5.9001C28.4935 5.9001 28.0806 5.74222 27.4491 6.07013C26.8176 6.39803 25.2388 7.83109 25.2388 7.83109C25.2388 7.83109 24.4129 7.23601 23.5567 6.38589C22.7005 5.53577 22.7066 5.01355 22.7066 5.01355Z" fill="#303338"/>
<path d="M31.6131 5.49402C31.6131 5.49402 30.9219 6.25504 30.831 6.32819C30.7402 6.40133 30.6911 7.26746 32.2963 9.00423C32.2963 9.00423 31.0293 9.44475 30.5433 9.67285C30.2852 9.82708 30.1484 10.3316 30.1484 10.3316L30.44 11.4288C30.44 11.4288 30.6664 11.0809 31.1472 10.8766C31.6279 10.6722 33.1161 10.0195 33.1161 10.0195C33.1161 10.0195 34.5554 11.9434 35.8741 12.3354L36.763 11.6368C36.763 11.6368 36.4587 11.6067 35.9909 11.3039C35.5232 11.0011 34.3535 9.71236 34.3535 9.71236C34.3535 9.71236 36.4482 8.68102 36.7314 8.69407C37.0146 8.70712 37.4257 8.87291 37.4257 8.87291L37.0708 7.61244C37.0708 7.61244 36.7019 7.36891 36.0143 7.55231C35.3268 7.73571 33.4752 8.79296 33.4752 8.79296C33.4752 8.79296 32.7978 8.03319 32.1459 7.01786C31.4941 6.00253 31.6131 5.49402 31.6131 5.49402Z" fill="#303338"/>
<path d="M40.0428 6.9718C40.0428 6.9718 39.3516 7.73282 39.2607 7.80597C39.1698 7.87912 39.1208 8.74524 40.726 10.482C40.726 10.482 39.459 10.9225 38.973 11.1506C38.7149 11.3049 38.5781 11.8094 38.5781 11.8094L38.8697 12.9066C38.8697 12.9066 39.0961 12.5587 39.5769 12.3543C40.0576 12.15 41.5458 11.4973 41.5458 11.4973C41.5458 11.4973 42.9851 13.4212 44.3038 13.8131L45.1927 13.1146C45.1927 13.1146 44.8884 13.0844 44.4206 12.7817C43.9529 12.4789 42.7832 11.1901 42.7832 11.1901C42.7832 11.1901 44.8779 10.1588 45.1611 10.1718C45.4443 10.1849 45.8554 10.3507 45.8554 10.3507L45.5005 9.09023C45.5005 9.09023 45.1315 8.84669 44.444 9.03009C43.7565 9.21349 41.9049 10.2707 41.9049 10.2707C41.9049 10.2707 41.2275 9.51097 40.5756 8.49565C39.9238 7.48032 40.0428 6.9718 40.0428 6.9718Z" fill="#303338"/>
</svg>
