<svg width="43" height="34" viewBox="0 0 43 34" fill="none" xmlns="http://www.w3.org/2000/svg">
<g clip-path="url(#clip0_4_540832)">
<path d="M21.0006 10.475L18.8582 14.1777C15.928 19.2312 11.83 23.1042 7.08649 25.3011L4.43555 26.5292C4.43555 26.5292 17.3638 4.30249 17.4776 4.13379L21.0006 10.475Z" fill="#00C4FB"/>
<path d="M26.5051 20.3646L26.5727 20.3842L26.5609 20.3646L25.3662 18.2279L17.4767 4.13029C18.2902 2.93853 19.4339 1.94043 21.1173 1.94043C22.9553 1.94043 24.1704 3.13218 25.0317 4.6532L37.4187 26.5263H16.5C18.8266 22.6272 22.5504 20.3304 26.5051 20.3646Z" fill="white"/>
<path d="M21.0001 10.4751L19.4413 13.1694L17.4766 4.13281L21.0001 10.4751Z" fill="#009CC8"/>
<path d="M4.45239 30.1515H1.60223V31.2977H4.31654C4.59093 31.2977 4.80732 31.333 4.96518 31.4035C5.12305 31.474 5.23581 31.5988 5.30293 31.7783C5.37005 31.9579 5.40441 32.2161 5.40441 32.5546V33.2836C5.40441 33.6221 5.37059 33.8809 5.30293 34.0604C5.23581 34.24 5.12305 34.3647 4.96518 34.4347C4.80732 34.5052 4.59093 34.5405 4.31654 34.5405H1.6264C1.35201 34.5405 1.13562 34.5052 0.977755 34.4347C0.81989 34.3647 0.70713 34.24 0.64001 34.0604C0.572891 33.8809 0.539062 33.6227 0.539062 33.2836V33.1372L1.43309 32.911V33.5391H4.51038V32.3278H1.79607C1.51901 32.3278 1.30208 32.292 1.14743 32.2193C0.992253 32.1472 0.88164 32.0214 0.815594 31.8423C0.750086 31.6628 0.716795 31.4062 0.716795 31.0704V30.4824C0.716795 30.1439 0.749549 29.8852 0.815594 29.7062C0.881103 29.5266 0.99279 29.4019 1.14904 29.3314C1.3053 29.2614 1.52115 29.2256 1.79554 29.2256H4.26714C4.53616 29.2256 4.74718 29.2587 4.89968 29.3254C5.05217 29.3921 5.16439 29.5093 5.23742 29.6764C5.31045 29.8434 5.34642 30.0805 5.34642 30.388V30.4982L4.45239 30.7558V30.1515Z" fill="white"/>
<path d="M8.17969 34.5393V29.2266H11.9078C12.1365 29.2266 12.3223 29.2613 12.4641 29.3296C12.6063 29.3985 12.7121 29.5081 12.7825 29.6594C12.8528 29.8102 12.8877 30.0099 12.8877 30.2578V31.4441C12.8877 31.692 12.8528 31.8905 12.7825 32.0397C12.7121 32.1889 12.6058 32.2979 12.4641 32.3668C12.3218 32.4357 12.1365 32.4698 11.9078 32.4698H9.17681V34.5404L8.17969 34.5393ZM11.4508 30.1514H9.17681V31.5537H11.4508C11.6157 31.5537 11.7327 31.5255 11.8025 31.469C11.8723 31.4121 11.9072 31.3003 11.9072 31.1333V30.5669C11.9072 30.4031 11.8734 30.293 11.8063 30.2366C11.7397 30.1802 11.621 30.1514 11.4508 30.1514Z" fill="white"/>
<path d="M15.0332 30.4834C15.0332 30.1449 15.066 29.8862 15.132 29.7072C15.1975 29.5276 15.3092 29.4029 15.4655 29.3323C15.6217 29.2624 15.8376 29.2266 16.1119 29.2266H19.3165C19.5909 29.2266 19.8067 29.2618 19.963 29.3323C20.1192 29.4029 20.2309 29.5276 20.2964 29.7072C20.3619 29.8867 20.3952 30.1449 20.3952 30.4834V33.283C20.3952 33.6215 20.3625 33.8802 20.2964 34.0598C20.2309 34.2393 20.1192 34.3641 19.963 34.434C19.8067 34.5046 19.5909 34.5398 19.3165 34.5398H16.1119C15.8376 34.5398 15.6217 34.5046 15.4655 34.434C15.3092 34.3641 15.1975 34.2393 15.132 34.0598C15.0665 33.8802 15.0332 33.622 15.0332 33.283V30.4834ZM16.0464 33.539H19.3831V30.1818H16.0464V33.539Z" fill="white"/>
<path d="M23.2051 34.5393V29.2266H26.9332C27.1619 29.2266 27.3477 29.2613 27.4894 29.3296C27.6317 29.3985 27.7375 29.5086 27.8079 29.6594C27.8782 29.8108 27.9131 30.0104 27.9131 30.2583V31.5065C27.9131 31.8726 27.8336 32.1357 27.6752 32.2968C27.5168 32.4579 27.2693 32.5382 26.9332 32.5382H26.3565L28.3706 34.5387H26.9122L25.1607 32.5382H24.2022V34.5387H23.2051V34.5393ZM26.4762 30.1514H24.2022V31.6242H26.4762C26.6411 31.6242 26.7581 31.596 26.8279 31.539C26.8977 31.4821 26.9326 31.3703 26.9326 31.2032V30.5669C26.9326 30.4031 26.8988 30.293 26.8317 30.2366C26.7651 30.1802 26.6464 30.1514 26.4762 30.1514Z" fill="white"/>
<path d="M32.6694 30.1818V34.5393H31.6557V30.1818H29.6582V29.2266H34.675V30.1818H32.6694Z" fill="white"/>
<path d="M40.362 30.1515H37.5119V31.2977H40.2262C40.5005 31.2977 40.7169 31.333 40.8748 31.4035C41.0327 31.474 41.1454 31.5988 41.2125 31.7783C41.2797 31.9579 41.314 32.2161 41.314 32.5546V33.2836C41.314 33.6221 41.2802 33.8809 41.2125 34.0604C41.1454 34.24 41.0327 34.3647 40.8748 34.4347C40.7169 34.5052 40.5005 34.5405 40.2262 34.5405H37.5365C37.2622 34.5405 37.0458 34.5052 36.8879 34.4347C36.73 34.3647 36.6173 34.24 36.5502 34.0604C36.483 33.8809 36.4492 33.6227 36.4492 33.2836V33.1372L37.3432 32.911V33.5391H40.42V32.3278H37.7057C37.4286 32.3278 37.2117 32.292 37.057 32.2193C36.9019 32.1472 36.7913 32.0214 36.7252 31.8423C36.6597 31.6628 36.6264 31.4062 36.6264 31.0704V30.4824C36.6264 30.1439 36.6592 29.8852 36.7252 29.7062C36.7907 29.5266 36.9024 29.4019 37.0587 29.3314C37.2149 29.2614 37.4308 29.2256 37.7052 29.2256H40.1768C40.4458 29.2256 40.6563 29.2587 40.8093 29.3254C40.9618 29.3921 41.074 29.5093 41.147 29.6764C41.2201 29.8434 41.256 30.0805 41.256 30.388V30.4982L40.362 30.7558V30.1515Z" fill="white"/>
<path d="M33.9269 20.3642H26.562L25.1133 17.7734L33.9269 20.3642Z" fill="#CBCBCB"/>
</g>
<defs>
<clipPath id="clip0_4_540832">
<rect width="42.5" height="34" fill="white"/>
</clipPath>
</defs>
</svg>
