<svg width="368" height="383" viewBox="0 0 368 383" fill="none" xmlns="http://www.w3.org/2000/svg">
<path d="M333.842 294.298L333.842 294.299C327.24 304.811 319.655 314.585 311.216 323.484C311.215 323.484 311.215 323.485 311.214 323.485L333.842 294.298ZM333.842 294.298C339.611 285.102 344.63 275.345 348.797 265.119M333.842 294.298L348.797 265.119M34.2231 294.299L34.2224 294.298C28.4532 285.102 23.4342 275.344 19.267 265.118C15.4489 255.759 12.3425 246.013 10.0151 235.945C7.82323 226.48 6.32362 216.737 5.57375 206.777C5.19635 201.846 5.00781 196.86 5.00781 191.831C5.00781 187.051 5.17695 182.31 5.52056 177.616C6.23174 167.656 7.6975 157.913 9.85024 148.45C12.134 138.386 15.1971 128.636 18.972 119.275L34.2231 294.299ZM34.2231 294.299C40.8251 304.812 48.4107 314.586 56.8499 323.485L34.2231 294.299ZM348.797 265.119C352.616 255.759 355.722 246.013 358.05 235.943L348.797 265.119ZM362.544 177.613C361.833 167.654 360.367 157.911 358.214 148.449C355.93 138.385 352.867 128.634 349.092 119.274C344.974 109.054 340.013 99.297 334.297 90.0958C327.773 79.5927 320.264 69.8138 311.912 60.9094C301.415 49.7103 289.578 39.8824 276.671 31.7134C249.65 14.6028 217.94 4.74988 184.03 4.74988C150.124 4.74988 118.415 14.6027 91.3946 31.713C78.4873 39.8819 66.6504 49.7096 56.1533 60.9086C47.8008 69.8131 40.2924 79.5923 33.7677 90.0957C28.0513 99.297 23.0906 109.054 18.9724 119.274L362.544 177.613ZM184.03 378.908C217.446 378.908 248.729 369.342 275.489 352.686L56.8504 323.485C67.4888 334.719 79.4907 344.547 92.5767 352.686C119.336 369.342 150.619 378.908 184.03 378.908Z" fill="#008C2C" stroke="#103018" stroke-width="6"/>
<path d="M309.726 62.961H58.3438C68.6705 51.9435 80.312 42.2788 93.0014 34.2479H275.068C287.757 42.2788 299.399 51.9435 309.726 62.961Z" fill="#007F22"/>
<path d="M346.313 120.397H21.7578C25.8114 110.336 30.6937 100.734 36.3192 91.6787H331.752C337.377 100.734 342.26 110.336 346.313 120.397Z" fill="#007F22"/>
<path d="M359.555 177.832H8.51562C9.21581 168.025 10.6591 158.431 12.7787 149.114H355.292C357.411 158.431 358.855 168.025 359.555 177.832Z" fill="#007F22"/>
<path d="M359.505 206.55C358.766 216.358 357.29 225.951 355.132 235.268H12.943C10.7852 225.951 9.30864 216.358 8.57031 206.55H359.505Z" fill="#007F22"/>
<path d="M346.021 263.986C341.92 274.05 336.98 283.653 331.303 292.703H36.7654C31.0876 283.653 26.148 274.05 22.0469 263.986H346.021Z" fill="#007F22"/>
<path d="M309.041 321.421C298.576 332.472 286.773 342.137 273.907 350.139H94.1652C81.2996 342.137 69.4962 332.472 59.0312 321.421H309.041Z" fill="#007F22"/>
<path d="M184.863 82.5385H184.863C141.39 82.5385 106.148 117.78 106.148 161.253V223.646C106.148 267.119 141.39 302.361 184.863 302.361H184.863C228.336 302.361 263.578 267.119 263.578 223.646V161.253C263.578 117.78 228.336 82.5385 184.863 82.5385Z" fill="#69AA13"/>
<path d="M196.405 192.289C204.264 187.93 209.58 179.552 209.58 169.93C209.58 155.821 198.143 144.38 184.03 144.38C169.921 144.38 158.484 155.821 158.484 169.93C158.484 179.547 163.8 187.926 171.655 192.289C163.8 196.647 158.484 205.026 158.484 214.643C158.484 228.756 169.921 240.193 184.03 240.193C198.143 240.193 209.58 228.756 209.58 214.643C209.58 205.021 204.264 196.642 196.405 192.289ZM195.705 223.645H172.36V160.532H195.705V223.645Z" fill="#89C42C"/>
<path d="M195.712 160.532H172.367V223.646H195.712V160.532Z" fill="#FFE170"/>
<path d="M184.037 367.052C276.574 367.052 351.589 288.602 351.589 191.83C351.589 95.0572 276.574 16.6075 184.037 16.6075C91.5002 16.6075 16.4844 95.0572 16.4844 191.83C16.4844 288.602 91.5002 367.052 184.037 367.052Z" stroke="white" stroke-width="2.5" stroke-linecap="round" stroke-linejoin="round"/>
<path d="M195.712 163.895H172.367V165.324H195.712V163.895Z" fill="white"/>
<path d="M195.712 168.701H172.367V170.13H195.712V168.701Z" fill="white"/>
<path d="M195.712 214.324H172.367V215.753H195.712V214.324Z" fill="white"/>
<path d="M178.129 167.313C177.734 167.313 177.414 166.994 177.414 166.599V162.803C177.414 162.408 177.734 162.088 178.129 162.088C178.523 162.088 178.843 162.408 178.843 162.803V166.599C178.843 166.994 178.523 167.313 178.129 167.313Z" fill="white"/>
<path d="M190.027 167.313C189.632 167.313 189.312 166.994 189.312 166.599V162.803C189.312 162.408 189.632 162.088 190.027 162.088C190.422 162.088 190.741 162.408 190.741 162.803V166.599C190.741 166.994 190.422 167.313 190.027 167.313Z" fill="white"/>
<path d="M195.712 218.453H172.367V219.882H195.712V218.453Z" fill="white"/>
<path d="M178.129 221.873C177.734 221.873 177.414 221.553 177.414 221.158V217.362C177.414 216.968 177.734 216.648 178.129 216.648C178.523 216.648 178.843 216.968 178.843 217.362V221.158C178.843 221.553 178.523 221.873 178.129 221.873Z" fill="white"/>
<path d="M190.027 221.873C189.632 221.873 189.312 221.553 189.312 221.158V217.362C189.312 216.968 189.632 216.648 190.027 216.648C190.422 216.648 190.741 216.968 190.741 217.362V221.158C190.741 221.553 190.422 221.873 190.027 221.873Z" fill="white"/>
</svg>
