<svg width="674" height="703" viewBox="0 0 674 703" fill="none" xmlns="http://www.w3.org/2000/svg">
<path d="M613.38 540.359L613.379 540.361C601.211 559.736 587.23 577.75 571.677 594.152C552.068 614.858 529.947 632.973 505.827 647.975C456.507 678.673 398.849 696.305 337.261 696.305C275.682 696.305 218.024 678.673 168.704 647.975C144.584 632.973 122.462 614.858 102.854 594.152C87.3001 577.75 73.3196 559.736 61.1518 540.361L61.1505 540.359C50.5177 523.41 41.2672 505.427 33.5869 486.579C26.5493 469.328 20.8235 451.366 16.5338 432.808C12.4939 415.364 9.72998 397.406 8.34785 379.049C7.65221 369.961 7.30469 360.77 7.30469 351.502C7.30469 342.69 7.61643 333.954 8.24972 325.301C9.56051 306.944 12.2621 288.987 16.2298 271.546L613.38 540.359ZM613.38 540.359C624.013 523.41 633.263 505.427 640.944 486.579M613.38 540.359L640.944 486.579M657.997 432.807C662.037 415.362 664.801 397.403 666.183 379.045M657.997 432.807L666.183 379.045M657.997 432.807C653.707 451.366 647.981 469.328 640.944 486.579M657.997 432.807L640.944 486.579M666.183 379.045C666.879 369.958 667.226 360.768 667.226 351.502M666.183 379.045L667.226 351.502M667.226 351.502C667.226 342.692 666.914 333.957 666.281 325.306M667.226 351.502L666.281 325.306M33.0423 217.773C40.6328 198.935 49.7762 180.951 60.3124 163.991C72.3378 144.633 86.1761 126.609 101.57 110.198C120.918 89.556 142.735 71.442 166.525 56.3856C216.326 24.8496 274.77 6.68994 337.261 6.68994C399.761 6.68994 458.206 24.8498 508.007 56.3863C531.796 71.4426 553.613 89.5564 572.96 110.198C588.355 126.609 602.193 144.633 614.218 163.991C624.754 180.951 633.898 198.935 641.488 217.773M33.0423 217.773H641.488M33.0423 217.773C26.0849 235.024 20.4395 252.995 16.2302 271.544L33.0423 217.773ZM641.488 217.773C648.446 235.023 654.091 252.994 658.3 271.543M641.488 217.773L658.3 271.543M658.3 271.543C662.269 288.986 664.97 306.946 666.281 325.306M658.3 271.543L666.281 325.306" fill="#008C2C" stroke="#103018" stroke-width="11"/>
<path d="M568.95 113.959H105.586C124.621 93.6507 146.079 75.8361 169.469 61.033H505.067C528.457 75.8361 549.915 93.6507 568.95 113.959Z" fill="#007F22"/>
<path d="M636.391 219.828H38.1484C45.6202 201.285 54.6197 183.584 64.989 166.893H609.551C619.92 183.584 628.92 201.285 636.391 219.828Z" fill="#007F22"/>
<path d="M660.794 325.697H13.7344C15.025 307.619 17.6854 289.936 21.5924 272.763H652.936C656.843 289.936 659.503 307.619 660.794 325.697Z" fill="#007F22"/>
<path d="M660.702 378.632C659.341 396.71 656.62 414.393 652.642 431.567H21.8959C17.9185 414.393 15.1969 396.71 13.8359 378.632H660.702Z" fill="#007F22"/>
<path d="M635.851 484.501C628.292 503.053 619.187 520.754 608.721 537.436H65.8098C55.3441 520.754 46.2391 503.053 38.6797 484.501H635.851Z" fill="#007F22"/>
<path d="M567.688 590.37C548.398 610.74 526.641 628.555 502.926 643.305H171.613C147.898 628.555 126.141 610.74 106.852 590.37H567.688Z" fill="#007F22"/>
<path d="M338.788 150.045H338.787C258.655 150.045 193.695 215.005 193.695 295.137V410.145C193.695 490.277 258.655 555.237 338.787 555.237H338.788C418.92 555.237 483.88 490.277 483.88 410.145V295.137C483.88 215.005 418.92 150.045 338.788 150.045Z" fill="#69AA13"/>
<path d="M360.069 352.345C374.556 344.311 384.355 328.867 384.355 311.131C384.355 285.125 363.274 264.035 337.259 264.035C311.253 264.035 290.172 285.125 290.172 311.131C290.172 328.858 299.97 344.302 314.449 352.345C299.97 360.378 290.172 375.822 290.172 393.549C290.172 419.564 311.253 440.645 337.259 440.645C363.274 440.645 384.355 419.564 384.355 393.549C384.355 375.814 374.556 360.37 360.069 352.345ZM358.779 410.143H315.748V293.808H358.779V410.143Z" fill="#89C42C"/>
<path d="M358.781 293.808H315.75V410.143H358.781V293.808Z" fill="#FFE170"/>
<path d="M337.266 674.48C507.836 674.48 646.111 529.876 646.111 351.499C646.111 173.121 507.836 28.517 337.266 28.517C166.696 28.517 28.4219 173.121 28.4219 351.499C28.4219 529.876 166.696 674.48 337.266 674.48Z" stroke="white" stroke-width="3" stroke-linecap="round" stroke-linejoin="round"/>
<path d="M358.781 300.007H315.75V302.641H358.781V300.007Z" fill="white"/>
<path d="M358.781 308.866H315.75V311.5H358.781V308.866Z" fill="white"/>
<path d="M358.781 392.961H315.75V395.595H358.781V392.961Z" fill="white"/>
<path d="M326.364 306.308C325.636 306.308 325.047 305.719 325.047 304.991V297.994C325.047 297.266 325.636 296.677 326.364 296.677C327.091 296.677 327.681 297.266 327.681 297.994V304.991C327.681 305.719 327.091 306.308 326.364 306.308Z" fill="white"/>
<path d="M348.309 306.308C347.582 306.308 346.992 305.719 346.992 304.991V297.994C346.992 297.266 347.582 296.677 348.309 296.677C349.037 296.677 349.626 297.266 349.626 297.994V304.991C349.626 305.719 349.037 306.308 348.309 306.308Z" fill="white"/>
<path d="M358.781 400.573H315.75V403.207H358.781V400.573Z" fill="white"/>
<path d="M326.364 406.876C325.636 406.876 325.047 406.286 325.047 405.559V398.562C325.047 397.835 325.636 397.245 326.364 397.245C327.091 397.245 327.681 397.835 327.681 398.562V405.559C327.681 406.286 327.091 406.876 326.364 406.876Z" fill="white"/>
<path d="M348.309 406.876C347.582 406.876 346.992 406.286 346.992 405.559V398.562C346.992 397.835 347.582 397.245 348.309 397.245C349.037 397.245 349.626 397.835 349.626 398.562V405.559C349.626 406.286 349.037 406.876 348.309 406.876Z" fill="white"/>
</svg>
