<svg width="68" height="77" viewBox="0 0 68 77" fill="none" xmlns="http://www.w3.org/2000/svg">
<g clip-path="url(#clip0_5867_24717)">
<mask id="mask0_5867_24717" style="mask-type:luminance" maskUnits="userSpaceOnUse" x="-6" y="0" width="83" height="83">
<path d="M77 0H-6V83H77V0Z" fill="white"/>
</mask>
<g mask="url(#mask0_5867_24717)">
<path d="M39.8193 73.206L42.9733 66.3723C42.9733 66.3723 44.7993 62.3606 48.894 61.5306C48.894 61.5306 53.7356 56.6613 59.0753 44.7093L61.427 38.8716C61.427 38.8716 65.079 33.034 58.7156 29.3266C58.7156 29.3266 59.4073 24.6233 52.629 22.6313C52.629 22.6313 50.72 19.8093 46.1826 19.3666C46.1826 19.3666 45.3803 21.3586 44.827 21.8843C44.827 21.8843 43.914 25.3426 43.748 25.564C43.748 25.564 45.8783 26.5876 44.661 30.461L44.4673 31.291C44.4673 31.291 42.337 39.9783 41.839 40.6423L41.6176 41.5L40.7046 44.6263L40.096 46.812L39.598 49.4126V49.551L39.7086 55.0013L42.0326 62.1116L25.5156 66.483L39.8193 73.206Z" fill="white"/>
</g>
<mask id="mask1_5867_24717" style="mask-type:luminance" maskUnits="userSpaceOnUse" x="-6" y="0" width="83" height="83">
<path d="M77 0H-6V83H77V0Z" fill="white"/>
</mask>
<g mask="url(#mask1_5867_24717)">
<path d="M19.091 67.7003L41.4457 61.752L39.1493 54.5863C39.1493 54.5863 38.4577 51.792 39.1217 49.1083L40.3667 44.0453L41.3073 40.919L41.8607 39.2313L43.4653 33.7533L44.2953 30.2396C44.2953 30.2396 45.402 26.5323 43.078 25.896C40.7817 25.2596 38.2917 28.3583 38.2917 28.3583L36.5487 31.374L36.2997 31.8996L35.7463 33.0616L35.359 34.03C35.359 34.03 35.1653 34.6663 35.027 33.947C34.8887 33.2276 33.5053 29.133 33.5053 29.133L32.2327 24.6233C32.2327 24.6233 30.8493 19.5326 30.13 14.9953C30.13 14.9953 30.213 12.201 25.565 13.1416C25.565 13.1416 23.988 13.4736 23.5177 13.7503L22.328 13.6673C22.328 13.6673 18.2887 13.0586 15.7433 15.6593C15.7433 15.6593 12.5063 15.8806 11.1783 16.9873C9.85033 18.0663 9.18633 18.2876 8.467 21.082L8.35633 21.2756C8.35633 21.2756 4.4 22.659 3.70833 25.896C3.70833 25.896 3.155 27.8603 3.819 29.4926L4.4 32.5083L5.811 38.595L8.10733 45.65L12.285 54.5586C12.285 54.5586 15.9923 55.7206 17.182 60.258C18.261 64.7953 19.091 67.7003 19.091 67.7003Z" fill="white"/>
</g>
<mask id="mask2_5867_24717" style="mask-type:luminance" maskUnits="userSpaceOnUse" x="-6" y="0" width="83" height="83">
<path d="M77 0H-6V83H77V0Z" fill="white"/>
</mask>
<g mask="url(#mask2_5867_24717)">
<path d="M23.3828 13.2247C23.3828 13.2247 24.2681 5.81003 32.6788 3.73503C32.6788 3.73503 38.8485 2.15803 43.4411 7.35936C48.0338 12.5607 46.0141 18.3984 46.0141 18.3984C46.0141 18.3984 44.5755 23.572 39.5401 25.7024C39.5401 25.7024 37.2715 26.892 33.2321 26.4494L32.2085 22.742L30.2995 13.695C30.2995 13.695 29.5525 11.371 23.3828 13.2247Z" fill="#874646"/>
</g>
<mask id="mask3_5867_24717" style="mask-type:luminance" maskUnits="userSpaceOnUse" x="-6" y="0" width="83" height="83">
<path d="M77 0H-6V83H77V0Z" fill="white"/>
</mask>
<g mask="url(#mask3_5867_24717)">
<path d="M42.9112 25.3427L43.4645 23.655C43.4645 23.655 42.8835 24.4574 41.3065 25.398L39.7572 26.1727C39.7572 26.1727 38.5952 26.8367 36.7969 27.0304L38.2909 27.556L39.6465 26.3664C39.6465 26.3387 41.2235 25.232 42.9112 25.3427Z" fill="white"/>
</g>
<mask id="mask4_5867_24717" style="mask-type:luminance" maskUnits="userSpaceOnUse" x="-6" y="0" width="83" height="83">
<path d="M77 0H-6V83H77V0Z" fill="white"/>
</mask>
<g mask="url(#mask4_5867_24717)">
<path d="M35.5552 27.224H35.1955L34.1719 29.548L35.2232 32.868C35.2232 32.868 37.2429 28.718 37.8515 28.22C37.8515 28.22 37.5472 27.805 35.8595 27.8327C35.8319 27.8327 35.5275 27.9433 35.5552 27.224Z" fill="white"/>
</g>
<mask id="mask5_5867_24717" style="mask-type:luminance" maskUnits="userSpaceOnUse" x="-6" y="0" width="83" height="83">
<path d="M77 0H-6V83H77V0Z" fill="white"/>
</mask>
<g mask="url(#mask5_5867_24717)">
<path d="M35.6625 3.98401C35.6625 3.98401 29.7419 15.604 38.0972 25.896L37.3502 26.1173C37.3502 26.1173 29.4375 17.4023 34.8602 4.01168H35.6625V3.98401Z" fill="white"/>
</g>
<mask id="mask6_5867_24717" style="mask-type:luminance" maskUnits="userSpaceOnUse" x="-6" y="0" width="83" height="83">
<path d="M77 0H-6V83H77V0Z" fill="white"/>
</mask>
<g mask="url(#mask6_5867_24717)">
<path d="M31.8484 4.28836L32.6784 4.15002C32.6784 4.15002 27.7537 16.0467 35.0854 26.311H34.2831C34.2831 26.311 32.872 24.1807 32.291 22.7144L32.2081 22.5207L30.382 13.7504C30.3544 13.7504 30.216 9.13002 31.8484 4.28836Z" fill="white"/>
</g>
<mask id="mask7_5867_24717" style="mask-type:luminance" maskUnits="userSpaceOnUse" x="-6" y="0" width="83" height="83">
<path d="M77 0H-6V83H77V0Z" fill="white"/>
</mask>
<g mask="url(#mask7_5867_24717)">
<path d="M51.382 57.519L48.892 60.922L39.8727 55.0843L39.7344 49.5787C39.762 49.5787 46.319 53.0093 51.382 57.519Z" fill="#C1C0BF"/>
</g>
<mask id="mask8_5867_24717" style="mask-type:luminance" maskUnits="userSpaceOnUse" x="-6" y="0" width="83" height="83">
<path d="M77 0H-6V83H77V0Z" fill="white"/>
</mask>
<g mask="url(#mask8_5867_24717)">
<path d="M40.7808 49.6617L39.8125 49.0807L41.8322 45.5947L43.4092 42.579L44.1008 41.1403C44.1008 41.1403 47.3655 34.9983 51.8475 22.825L52.1518 23.157L52.6498 23.1847C52.6498 23.2123 46.6462 40.6977 40.7808 49.6617Z" fill="#C1C0BF"/>
</g>
<mask id="mask9_5867_24717" style="mask-type:luminance" maskUnits="userSpaceOnUse" x="-6" y="0" width="83" height="83">
<path d="M77 0H-6V83H77V0Z" fill="white"/>
</mask>
<g mask="url(#mask9_5867_24717)">
<path d="M41.9713 40.753C41.9713 40.753 43.7143 41.9703 43.161 42.413C43.161 42.413 42.912 42.579 42.6077 42.413C42.6077 42.413 42.0267 41.7213 41.75 41.6107L41.9713 40.753Z" fill="#C1C0BF"/>
</g>
<mask id="mask10_5867_24717" style="mask-type:luminance" maskUnits="userSpaceOnUse" x="-6" y="0" width="83" height="83">
<path d="M77 0H-6V83H77V0Z" fill="white"/>
</mask>
<g mask="url(#mask10_5867_24717)">
<path d="M44.7676 30.5717C44.7676 30.5717 46.5936 31.0697 47.5342 32.536C47.5342 32.536 47.5896 33.283 46.8979 32.8957C46.8979 32.8957 46.0956 31.8167 44.6016 31.3463L44.7676 30.5717Z" fill="#C1C0BF"/>
</g>
<mask id="mask11_5867_24717" style="mask-type:luminance" maskUnits="userSpaceOnUse" x="-6" y="0" width="83" height="83">
<path d="M77 0H-6V83H77V0Z" fill="white"/>
</mask>
<g mask="url(#mask11_5867_24717)">
<path d="M49.4692 33.8087C49.4692 33.8087 51.9315 33.8087 54.3108 36.9627C54.3108 36.9627 54.3938 37.516 53.7298 37.3777C53.7298 37.3777 51.8762 34.8047 49.4692 34.611C49.4692 34.6387 48.8882 34.2513 49.4692 33.8087Z" fill="#C1C0BF"/>
</g>
<mask id="mask12_5867_24717" style="mask-type:luminance" maskUnits="userSpaceOnUse" x="-6" y="0" width="83" height="83">
<path d="M77 0H-6V83H77V0Z" fill="white"/>
</mask>
<g mask="url(#mask12_5867_24717)">
<path d="M49.9963 45.484C49.9963 45.484 49.9963 46.0927 49.4153 45.9543C49.4153 45.9543 47.8106 43.575 44.9056 43.6303C44.9056 43.6303 44.1863 43.1877 44.9056 42.828C44.878 42.828 48.1703 42.828 49.9963 45.484Z" fill="#C1C0BF"/>
</g>
<mask id="mask13_5867_24717" style="mask-type:luminance" maskUnits="userSpaceOnUse" x="-6" y="0" width="83" height="83">
<path d="M77 0H-6V83H77V0Z" fill="white"/>
</mask>
<g mask="url(#mask13_5867_24717)">
<path d="M51.9336 46.9227C51.9336 46.9227 54.2576 46.6183 55.9176 49.4403C55.9176 49.4403 56.0006 49.966 55.392 49.8553C55.392 49.8553 54.0363 47.7527 52.0166 47.6697C52.0166 47.6973 51.3526 47.3653 51.9336 46.9227Z" fill="#C1C0BF"/>
</g>
<mask id="mask14_5867_24717" style="mask-type:luminance" maskUnits="userSpaceOnUse" x="-6" y="0" width="83" height="83">
<path d="M77 0H-6V83H77V0Z" fill="white"/>
</mask>
<g mask="url(#mask14_5867_24717)">
<path d="M56.2793 38.4567C56.2793 38.4567 58.465 39.1483 59.9036 41.583C59.9036 41.583 59.876 42.3577 59.2396 42.0257C59.2396 42.0257 58.1883 40.006 56.058 39.2867C56.0856 39.2867 55.56 38.7887 56.2793 38.4567Z" fill="#C1C0BF"/>
</g>
<mask id="mask15_5867_24717" style="mask-type:luminance" maskUnits="userSpaceOnUse" x="-6" y="0" width="83" height="83">
<path d="M77 0H-6V83H77V0Z" fill="white"/>
</mask>
<g mask="url(#mask15_5867_24717)">
<path d="M47.121 53.618L46.125 52.954C46.125 52.954 50.026 48.306 58.2983 29.1053L58.3813 29.797L58.741 30.1013C58.741 30.0737 53.6503 43.99 47.121 53.618Z" fill="#C1C0BF"/>
</g>
<mask id="mask16_5867_24717" style="mask-type:luminance" maskUnits="userSpaceOnUse" x="-6" y="0" width="83" height="83">
<path d="M77 0H-6V83H77V0Z" fill="white"/>
</mask>
<g mask="url(#mask16_5867_24717)">
<path d="M23.7455 14.0823L23.4688 14.2207L22.9708 14.1377C22.9708 14.1377 22.6665 23.3507 29.4448 42.413L30.6345 42.1917C30.6621 42.1917 25.5992 30.2397 23.7455 14.0823Z" fill="#C2C1C0"/>
</g>
<mask id="mask17_5867_24717" style="mask-type:luminance" maskUnits="userSpaceOnUse" x="-6" y="0" width="83" height="83">
<path d="M77 0H-6V83H77V0Z" fill="white"/>
</mask>
<g mask="url(#mask17_5867_24717)">
<path d="M15.25 16.185H15.665L16.1353 15.8807C16.1353 15.8807 19.0957 33.8087 23.5223 43.907L22.4157 44.2943C22.4157 44.322 18.3763 35.2473 15.25 16.185Z" fill="#C2C1C0"/>
</g>
<mask id="mask18_5867_24717" style="mask-type:luminance" maskUnits="userSpaceOnUse" x="-6" y="0" width="83" height="83">
<path d="M77 0H-6V83H77V0Z" fill="white"/>
</mask>
<g mask="url(#mask18_5867_24717)">
<path d="M8 21.8567L8.415 21.7183L8.63633 21.331C8.63633 21.331 11.2923 34.3343 16.466 46.5907L15.4423 47.061C15.4423 47.0333 11.0433 37.2947 8 21.8567Z" fill="#C2C1C0"/>
</g>
<mask id="mask19_5867_24717" style="mask-type:luminance" maskUnits="userSpaceOnUse" x="-6" y="0" width="83" height="83">
<path d="M77 0H-6V83H77V0Z" fill="white"/>
</mask>
<g mask="url(#mask19_5867_24717)">
<path d="M5.04244 32.9233C5.04244 32.9233 6.6471 30.876 9.1371 30.627C9.1371 30.627 9.91177 30.9037 9.16477 31.4293C9.16477 31.4293 7.28344 31.54 5.67877 33.5043C5.67877 33.532 4.93177 33.698 5.04244 32.9233Z" fill="#C2C1C0"/>
</g>
<mask id="mask20_5867_24717" style="mask-type:luminance" maskUnits="userSpaceOnUse" x="-6" y="0" width="83" height="83">
<path d="M77 0H-6V83H77V0Z" fill="white"/>
</mask>
<g mask="url(#mask20_5867_24717)">
<path d="M7.53013 41.3063C7.53013 41.3063 9.24546 39.3143 11.7908 39.591C11.7908 39.591 12.5931 40.0613 11.7908 40.3933C11.7908 40.3933 9.66046 40.0613 8.16646 41.8597C8.13879 41.8597 7.33646 42.081 7.53013 41.3063Z" fill="#C2C1C0"/>
</g>
<mask id="mask21_5867_24717" style="mask-type:luminance" maskUnits="userSpaceOnUse" x="-6" y="0" width="83" height="83">
<path d="M77 0H-6V83H77V0Z" fill="white"/>
</mask>
<g mask="url(#mask21_5867_24717)">
<path d="M14.0848 38.595C14.0848 38.595 15.7448 36.3817 19.3968 36.9073C19.3968 36.9073 20.0331 37.4883 19.2585 37.7097C19.2585 37.7097 16.4088 37.1287 14.7211 39.176C14.7211 39.176 14.0018 39.425 14.0848 38.595Z" fill="#C2C1C0"/>
</g>
<mask id="mask22_5867_24717" style="mask-type:luminance" maskUnits="userSpaceOnUse" x="-6" y="0" width="83" height="83">
<path d="M77 0H-6V83H77V0Z" fill="white"/>
</mask>
<g mask="url(#mask22_5867_24717)">
<path d="M21.3367 36.354C21.3367 36.354 23.6054 34.113 26.4274 35.026C26.4274 35.026 26.9254 35.524 26.2337 35.69C26.2337 35.69 23.9927 34.9707 21.8901 36.935C21.8901 36.935 21.1431 37.0733 21.3367 36.354Z" fill="#C2C1C0"/>
</g>
<mask id="mask23_5867_24717" style="mask-type:luminance" maskUnits="userSpaceOnUse" x="-6" y="0" width="83" height="83">
<path d="M77 0H-6V83H77V0Z" fill="white"/>
</mask>
<g mask="url(#mask23_5867_24717)">
<path d="M18.7337 26.3387C18.7337 26.3387 20.4767 24.4574 23.7137 24.983C23.7137 24.983 24.1841 25.4257 23.6307 25.73C23.6307 25.73 21.0301 25.2044 19.3424 26.892C19.3147 26.8644 18.6507 26.975 18.7337 26.3387Z" fill="#C2C1C0"/>
</g>
<mask id="mask24_5867_24717" style="mask-type:luminance" maskUnits="userSpaceOnUse" x="-6" y="0" width="83" height="83">
<path d="M77 0H-6V83H77V0Z" fill="white"/>
</mask>
<g mask="url(#mask24_5867_24717)">
<path d="M25.9864 24.236C25.9864 24.236 28.8084 22.161 31.4367 23.1017C31.4367 23.1017 31.741 23.6827 31.16 23.7933C31.16 23.7933 29.3894 23.0187 26.4844 24.8447C26.512 24.8723 25.765 24.9553 25.9864 24.236Z" fill="#C2C1C0"/>
</g>
<mask id="mask25_5867_24717" style="mask-type:luminance" maskUnits="userSpaceOnUse" x="-6" y="0" width="83" height="83">
<path d="M77 0H-6V83H77V0Z" fill="white"/>
</mask>
<g mask="url(#mask25_5867_24717)">
<path d="M28.6962 34.528C28.6962 34.528 30.3838 32.0933 33.7315 32.868C33.7315 32.868 34.3125 33.3937 33.6208 33.698C33.6208 33.698 31.1032 32.7573 29.3602 35.0537C29.3325 35.0537 28.6685 35.275 28.6962 34.528Z" fill="#C2C1C0"/>
</g>
<mask id="mask26_5867_24717" style="mask-type:luminance" maskUnits="userSpaceOnUse" x="-6" y="0" width="83" height="83">
<path d="M77 0H-6V83H77V0Z" fill="white"/>
</mask>
<g mask="url(#mask26_5867_24717)">
<path d="M10.5156 50.1597L12.48 54.0053C12.48 54.0053 23.685 48.223 39.2336 45.318L37.8503 42.1363C37.8226 42.1363 26.175 41.2233 10.5156 50.1597Z" fill="#C1C0BF"/>
</g>
<mask id="mask27_5867_24717" style="mask-type:luminance" maskUnits="userSpaceOnUse" x="-6" y="0" width="83" height="83">
<path d="M77 0H-6V83H77V0Z" fill="white"/>
</mask>
<g mask="url(#mask27_5867_24717)">
<path d="M11.3475 29.4373C11.3475 29.4373 14.0035 26.8367 16.6871 27.2517C16.6871 27.2517 17.0745 27.6943 16.5765 27.9987C16.5765 27.9987 14.3078 27.6667 11.8731 29.9907C11.8731 29.9907 11.2921 30.046 11.3475 29.4373Z" fill="#C1C0BF"/>
</g>
<mask id="mask28_5867_24717" style="mask-type:luminance" maskUnits="userSpaceOnUse" x="-6" y="0" width="83" height="83">
<path d="M77 0H-6V83H77V0Z" fill="white"/>
</mask>
<g mask="url(#mask28_5867_24717)">
<path d="M35.5515 27.224L36.8241 27.0027L38.3181 27.5284L37.8478 28.22C37.8478 28.22 37.3498 27.722 35.8558 27.8327C35.8281 27.8327 35.4685 27.7497 35.5515 27.224Z" fill="#C1C0BF"/>
</g>
<mask id="mask29_5867_24717" style="mask-type:luminance" maskUnits="userSpaceOnUse" x="-6" y="0" width="83" height="83">
<path d="M77 0H-6V83H77V0Z" fill="white"/>
</mask>
<g mask="url(#mask29_5867_24717)">
<path d="M43.4674 23.6273L44.8231 21.912L43.7441 25.5917L42.9141 25.3427L43.4674 23.6273Z" fill="#C1C0BF"/>
</g>
</g>
<defs>
<clipPath id="clip0_5867_24717">
<rect width="68" height="77" fill="white"/>
</clipPath>
</defs>
</svg>
