<svg width="260" height="262" viewBox="0 0 260 262" fill="none" xmlns="http://www.w3.org/2000/svg">
<path d="M130.13 6.31384C61.1493 6.31384 5.23438 62.3009 5.23438 131.356C5.23438 200.412 61.1493 256.399 130.13 256.399C199.114 256.399 255.029 200.412 255.029 131.356C255.029 62.3009 199.114 6.31384 130.13 6.31384ZM130.13 245.04C67.4264 245.04 16.5853 194.144 16.5853 131.356C16.5853 68.5653 67.4263 17.6732 130.13 17.6732C192.837 17.6732 243.678 68.5654 243.678 131.356C243.678 194.144 192.837 245.04 130.13 245.04Z" fill="#4C4C4E" stroke="#202525" stroke-width="7"/>
<path d="M226.768 131.356C226.768 136.52 226.365 141.588 225.584 146.535C223.968 156.81 220.735 166.549 216.158 175.481C211.509 184.545 205.476 192.778 198.335 199.898C191.167 207.047 182.885 213.077 173.774 217.699V217.703C164.885 222.216 155.206 225.391 145.003 226.969C140.153 227.721 135.186 228.109 130.13 228.109C124.9 228.109 119.766 227.692 114.763 226.891C104.598 225.266 94.9622 222.052 86.1161 217.516C77.0077 212.841 68.7388 206.762 61.5943 199.563C54.5221 192.443 48.5482 184.223 43.9546 175.186C39.43 166.29 36.2397 156.597 34.6529 146.378C33.8889 141.483 33.4922 136.464 33.4922 131.356C33.4922 126.252 33.8856 121.239 34.6496 116.348C36.2397 106.113 39.4333 96.4096 43.9678 87.5005C48.5613 78.47 54.5319 70.2602 61.5976 63.1434C68.7355 55.9545 76.9946 49.8816 86.0899 45.2104C94.913 40.6837 104.52 37.47 114.658 35.8418C119.697 35.0244 124.864 34.6042 130.13 34.6042C135.169 34.6042 140.12 34.9916 144.953 35.7368C155.176 37.3091 164.872 40.49 173.774 45.0102C182.892 49.6387 191.177 55.6722 198.348 62.8283C205.495 69.9582 211.535 78.2041 216.181 87.2806C220.765 96.2323 223.994 105.988 225.601 116.286C226.371 121.197 226.768 126.229 226.768 131.356Z" fill="#E54A18"/>
<path d="M130.131 14.1732C65.4901 14.1732 13.0859 66.6362 13.0859 131.356C13.0859 196.073 65.4901 248.54 130.131 248.54C194.775 248.54 247.179 196.073 247.179 131.356C247.179 66.6362 194.775 14.1732 130.131 14.1732ZM216.159 175.482C211.509 184.545 205.476 192.778 198.335 199.898C191.168 207.047 182.886 213.077 173.774 217.699V217.703C164.886 222.216 155.207 225.391 145.003 226.97C140.154 227.721 135.187 228.109 130.131 228.109C124.901 228.109 119.767 227.692 114.763 226.891C104.599 225.266 94.9629 222.052 86.1168 217.516C77.0084 212.841 68.7394 206.762 61.595 199.563C54.5227 192.443 48.5489 184.223 43.9553 175.186C39.4306 166.29 36.2404 156.597 34.6536 146.378C33.8896 141.483 33.4929 136.464 33.4929 131.356C33.4929 126.252 33.8863 121.239 34.6503 116.348C36.2404 106.113 39.434 96.4096 43.9685 87.5006C48.562 78.4701 54.5326 70.2602 61.5983 63.1435C68.7362 55.9545 76.9953 49.8816 86.0906 45.2105C94.9137 40.6837 104.52 37.47 114.658 35.8418C119.698 35.0245 124.865 34.6043 130.131 34.6043C135.17 34.6043 140.121 34.9917 144.954 35.7368C155.177 37.3092 164.872 40.4901 173.774 45.0102C182.892 49.6387 191.178 55.6722 198.348 62.8283C205.496 69.9582 211.536 78.2042 216.182 87.2806C220.765 96.2323 223.995 105.988 225.601 116.286C226.372 121.197 226.769 126.229 226.769 131.356C226.769 136.52 226.365 141.588 225.585 146.535C223.969 156.81 220.736 166.55 216.159 175.482Z" fill="#191919"/>
<path d="M226.768 131.356C226.768 136.52 226.365 141.588 225.584 146.535C223.968 156.81 220.735 166.549 216.158 175.481C211.509 184.545 205.476 192.778 198.335 199.898C191.167 207.047 182.885 213.077 173.774 217.699V217.703C164.885 222.216 155.206 225.391 145.003 226.969C140.153 227.721 135.186 228.109 130.13 228.109C124.9 228.109 119.766 227.692 114.763 226.891C104.598 225.266 94.9622 222.052 86.1161 217.516C77.0077 212.841 68.7388 206.762 61.5943 199.563C54.5221 192.443 48.5482 184.223 43.9546 175.186C39.43 166.29 36.2397 156.597 34.6529 146.378C33.8889 141.483 33.4922 136.464 33.4922 131.356C33.4922 126.252 33.8856 121.239 34.6496 116.348C36.2397 106.113 39.4333 96.4096 43.9678 87.5005C48.5613 78.47 54.5319 70.2602 61.5976 63.1434C68.7355 55.9545 76.9946 49.8816 86.0899 45.2104C94.913 40.6837 104.52 37.47 114.658 35.8418C119.697 35.0244 124.864 34.6042 130.13 34.6042C135.169 34.6042 140.12 34.9916 144.953 35.7368C155.176 37.3091 164.872 40.49 173.774 45.0102C182.892 49.6387 191.177 55.6722 198.348 62.8283C205.495 69.9582 211.535 78.2041 216.181 87.2806C220.765 96.2323 223.994 105.988 225.601 116.286C226.371 121.197 226.768 126.229 226.768 131.356Z" fill="#E54A18"/>
<path d="M48.5569 89.9329C48.4683 90.1069 48.3798 90.2776 48.2946 90.4516C44.2584 98.5235 41.3829 107.278 39.878 116.496C39.8452 116.696 39.8125 116.896 39.7829 117.097L34.6484 116.348C36.2386 106.113 39.4322 96.4095 43.9666 87.5005L48.5569 89.9329Z" fill="#EA1C24"/>
<path d="M38.6825 131.356C38.6825 136.202 39.0595 140.958 39.7841 145.6L34.6529 146.378C33.8889 141.483 33.4922 136.464 33.4922 131.356C33.4922 126.252 33.8856 121.239 34.6496 116.348L39.7841 117.097C39.0595 121.742 38.6825 126.508 38.6825 131.356Z" fill="#23CA58"/>
<path d="M48.5798 172.832L43.9502 175.186C39.4255 166.29 36.2353 156.597 34.6484 146.378L39.7796 145.6C39.8026 145.744 39.8256 145.889 39.8485 146.033C41.3567 155.408 44.2846 164.304 48.4093 172.498C48.4651 172.609 48.5208 172.721 48.5798 172.832Z" fill="#EA1C24"/>
<path d="M65.3044 195.932L61.5928 199.563C54.5205 192.443 48.5467 184.223 43.9531 175.186L48.5828 172.832C52.9369 181.4 58.5994 189.186 65.3044 195.932Z" fill="#23CA58"/>
<path d="M88.4172 212.854L86.1155 217.516C77.0072 212.841 68.7382 206.762 61.5938 199.563L65.3053 195.932C65.4627 196.093 65.6233 196.254 65.784 196.412C72.2037 202.777 79.558 208.196 87.627 212.444C87.8893 212.582 88.1516 212.72 88.4172 212.854Z" fill="#EA1C24"/>
<path d="M115.531 221.75L114.764 226.891C104.6 225.266 94.9632 222.052 86.1172 217.516L88.4189 212.854C96.7895 217.158 105.908 220.207 115.531 221.75Z" fill="#23CA58"/>
<path d="M145.006 226.969C140.156 227.721 135.189 228.109 130.133 228.109C124.903 228.109 119.769 227.692 114.766 226.891L115.533 221.75C115.566 221.757 115.595 221.76 115.628 221.767C120.353 222.522 125.195 222.912 130.133 222.912C134.769 222.912 139.323 222.567 143.773 221.901C143.937 221.878 144.097 221.852 144.261 221.826L145.006 226.969Z" fill="#EA1C24"/>
<path d="M173.773 217.699V217.703C164.884 222.216 155.206 225.391 145.002 226.969L144.258 221.826C153.891 220.329 163.029 217.328 171.422 213.071L173.773 217.699Z" fill="#23CA58"/>
<path d="M198.334 199.898C191.166 207.047 182.884 213.077 173.773 217.699L171.422 213.071C171.537 213.012 171.648 212.956 171.763 212.897C180.114 208.613 187.721 203.082 194.337 196.546C194.442 196.444 194.544 196.343 194.645 196.241L198.334 199.898Z" fill="#EA1C24"/>
<path d="M216.16 175.481C211.511 184.545 205.478 192.778 198.337 199.898L194.648 196.241C201.458 189.456 207.206 181.6 211.619 172.954L216.16 175.481Z" fill="#23CA58"/>
<path d="M225.585 146.535C223.968 156.81 220.735 166.549 216.158 175.481L211.617 172.954C211.748 172.698 211.879 172.439 212.007 172.182C216.047 164.078 218.919 155.287 220.408 146.033L220.467 145.659L225.585 146.535Z" fill="#EA1C24"/>
<path d="M226.77 131.356C226.77 136.52 226.367 141.588 225.587 146.535L220.469 145.659C221.2 140.998 221.58 136.221 221.58 131.356C221.58 126.485 221.2 121.699 220.469 117.031L225.603 116.286C226.374 121.197 226.77 126.229 226.77 131.356Z" fill="#23CA58"/>
<path d="M225.598 116.286L220.463 117.031H220.46C220.43 116.811 220.394 116.594 220.358 116.374C218.817 107.009 215.856 98.123 211.709 89.946C211.66 89.8476 211.607 89.7458 211.555 89.6473L216.178 87.2805C220.761 96.2322 223.991 105.988 225.598 116.286Z" fill="#EA1C24"/>
<path d="M216.182 87.2805L211.559 89.6473C207.146 81.0206 201.402 73.1915 194.602 66.426L198.349 62.8282C205.497 69.9581 211.536 78.2041 216.182 87.2805Z" fill="#23CA58"/>
<path d="M198.346 62.8283L194.598 66.4261C194.46 66.2882 194.323 66.1504 194.182 66.0125C187.683 59.6245 180.237 54.2049 172.07 49.9769C171.853 49.8652 171.634 49.7536 171.414 49.642L173.772 45.0103C182.89 49.6387 191.175 55.6722 198.346 62.8283Z" fill="#EA1C24"/>
<path d="M173.776 45.0102L171.419 49.642C162.983 45.3582 153.786 42.348 144.094 40.8643L144.956 35.7368C155.179 37.3092 164.875 40.4901 173.776 45.0102Z" fill="#23CA58"/>
<path d="M144.952 35.7368L144.09 40.8642C143.936 40.838 143.778 40.815 143.624 40.792C139.221 40.1388 134.712 39.8007 130.129 39.8007C125.184 39.8007 120.332 40.1946 115.6 40.9496C115.561 40.9562 115.519 40.9627 115.479 40.9693L114.656 35.8418C119.696 35.0244 124.863 34.6042 130.129 34.6042C135.168 34.6042 140.119 34.9916 144.952 35.7368Z" fill="#EA1C24"/>
<path d="M115.477 40.9693C105.837 42.522 96.7026 45.5847 88.3188 49.9079L86.0859 45.2104C94.9091 40.6837 104.516 37.47 114.654 35.8418L115.477 40.9693Z" fill="#23CA58"/>
<path d="M88.3267 49.9079C88.3201 49.9112 88.3135 49.9145 88.307 49.9177C79.8904 54.2607 72.2345 59.8706 65.5918 66.4983C65.5295 66.5607 65.4705 66.6197 65.4114 66.6821L61.6016 63.1434C68.7394 55.9545 76.9986 49.8816 86.0938 45.2104L88.3267 49.9079Z" fill="#EA1C24"/>
<path d="M65.4085 66.6821C58.6444 73.464 52.9394 81.3029 48.559 89.9329L43.9688 87.5005C48.5623 78.47 54.5329 70.2602 61.5986 63.1434L65.4085 66.6821Z" fill="#23CA58"/>
<path d="M87.2616 88.0947C82.5435 92.779 78.586 98.2347 75.5958 104.252L48.2969 90.4517C52.7494 81.5393 58.6118 73.4575 65.589 66.4983L87.2616 88.0947Z" fill="#E6E6E6"/>
<path d="M75.5982 104.252C72.9622 109.56 71.0769 115.304 70.0833 121.348L39.8828 116.496C41.3877 107.278 44.2632 98.5236 48.2993 90.4517L75.5982 104.252Z" fill="#1A1A1A"/>
<path d="M102.052 77.2686C96.58 80.1212 91.5963 83.7813 87.2585 88.0947L65.5859 66.4983C72.2287 59.8706 79.8846 54.2607 88.3011 49.9177L102.052 77.2686Z" fill="#1A1A1A"/>
<path d="M120.446 71.1793C113.912 72.2265 107.721 74.3142 102.056 77.2685L88.3047 49.9177C96.7278 45.5715 105.912 42.499 115.604 40.9496L120.446 71.1793Z" fill="#E6E6E6"/>
<path d="M143.625 40.792L138.835 71.0315C135.992 70.6212 133.084 70.4112 130.13 70.4112C126.835 70.4112 123.598 70.6738 120.444 71.1793L115.602 40.9496C120.333 40.1946 125.185 39.8007 130.13 39.8007C134.713 39.8007 139.222 40.1388 143.625 40.792Z" fill="#1A1A1A"/>
<path d="M172.073 49.9768L158.164 77.2455C152.226 74.1566 145.718 72.0163 138.836 71.0315L143.626 40.792C153.741 42.2888 163.322 45.4467 172.073 49.9768Z" fill="#E6E6E6"/>
<path d="M194.184 66.0124L172.607 87.7007C168.348 83.5482 163.489 80.0161 158.164 77.2456L172.072 49.9768C180.24 54.2048 187.686 59.6244 194.184 66.0124Z" fill="#1A1A1A"/>
<path d="M211.707 89.9461L184.467 103.864C181.418 97.831 177.392 92.3719 172.602 87.7008L194.179 66.0125C201.241 72.9519 207.183 81.0272 211.707 89.9461Z" fill="#E6E6E6"/>
<path d="M220.358 116.374L190.164 121.249C189.141 115.094 187.193 109.248 184.469 103.864L211.709 89.946C215.856 98.123 218.817 107.009 220.358 116.374Z" fill="#1A1A1A"/>
<path d="M221.574 131.356C221.574 136.353 221.174 141.254 220.404 146.033L190.207 141.208C190.728 138 191 134.711 191 131.356C191 127.913 190.715 124.538 190.164 121.249L220.358 116.375C221.158 121.249 221.574 126.255 221.574 131.356Z" fill="#E6E6E6"/>
<path d="M220.409 146.033C218.92 155.287 216.048 164.078 212.009 172.182L184.664 158.471C187.326 153.117 189.221 147.313 190.212 141.208L220.409 146.033Z" fill="#1A1A1A"/>
<path d="M212.01 172.182C207.482 181.265 201.489 189.492 194.341 196.546L172.711 174.91C177.557 170.164 181.613 164.609 184.665 158.471L212.01 172.182Z" fill="#E6E6E6"/>
<path d="M194.34 196.546C187.723 203.082 180.117 208.613 171.766 212.897L157.906 185.598C163.372 182.789 168.359 179.171 172.71 174.91L194.34 196.546Z" fill="#1A1A1A"/>
<path d="M171.762 212.897C163.132 217.319 153.712 220.411 143.768 221.901L138.961 191.662C145.696 190.68 152.073 188.599 157.902 185.599L171.762 212.897Z" fill="#E6E6E6"/>
<path d="M143.77 221.901C139.321 222.568 134.766 222.912 130.13 222.912C125.192 222.912 120.35 222.522 115.625 221.767L120.54 191.543C123.665 192.042 126.868 192.298 130.13 192.298C133.13 192.298 136.078 192.082 138.963 191.662L143.77 221.901Z" fill="#1A1A1A"/>
<path d="M120.545 191.543L115.63 221.767C105.669 220.178 96.2461 216.977 87.6328 212.444L101.59 185.192C107.41 188.294 113.794 190.477 120.545 191.543Z" fill="#E6E6E6"/>
<path d="M101.582 185.191L87.6242 212.444C79.5553 208.196 72.201 202.777 65.7812 196.411L87.3783 174.736C91.5621 178.872 96.3457 182.405 101.582 185.191Z" fill="#1A1A1A"/>
<path d="M87.382 174.736L65.7849 196.412C58.7814 189.469 52.8928 181.4 48.4141 172.498L75.6375 158.537C78.6474 164.577 82.6311 170.046 87.382 174.736Z" fill="#E6E6E6"/>
<path d="M75.6359 158.537L48.4124 172.498C44.2877 164.304 41.3598 155.408 39.8516 146.033L70.0489 141.191C71.0424 147.33 72.9506 153.16 75.6359 158.537Z" fill="#1A1A1A"/>
<path d="M69.2572 131.356C69.2572 134.705 69.5261 137.991 70.0475 141.191L39.8501 146.033C39.0797 141.254 38.6797 136.353 38.6797 131.356C38.6797 126.298 39.0895 121.331 39.8764 116.496L70.0769 121.348C69.536 124.604 69.2572 127.949 69.2572 131.356Z" fill="#E6E6E6"/>
<path d="M74.2953 131.356C74.2953 134.432 74.5444 137.452 75.0231 140.393L70.0559 141.191C69.5345 137.991 69.2656 134.705 69.2656 131.356C69.2656 127.949 69.5444 124.604 70.0853 121.348L75.0494 122.145C74.5543 125.142 74.2953 128.218 74.2953 131.356Z" fill="#23CA58"/>
<path d="M80.0849 106.523C77.6783 111.372 75.957 116.624 75.0422 122.145L70.0781 121.348C71.0717 115.304 72.957 109.56 75.593 104.252L80.0849 106.523Z" fill="#EA1C24"/>
<path d="M104.314 81.7691C99.3269 84.3755 94.7825 87.7139 90.8218 91.6432L87.2578 88.0947C91.5956 83.7813 96.5793 80.1212 102.051 77.2686L104.314 81.7691Z" fill="#EA1C24"/>
<path d="M121.242 76.1525C115.225 77.1143 109.534 79.0412 104.32 81.7691H104.317L102.055 77.2686C107.72 74.3142 113.911 72.2265 120.445 71.1793L121.242 76.1525Z" fill="#23CA58"/>
<path d="M138.836 71.0315L138.049 76.0047C135.462 75.637 132.819 75.4467 130.131 75.4467C127.104 75.4467 124.137 75.6863 121.242 76.1524L120.445 71.1793C123.599 70.6738 126.836 70.4111 130.131 70.4111C133.085 70.4111 135.993 70.6212 138.836 71.0315Z" fill="#EA1C24"/>
<path d="M158.162 77.2456L155.873 81.733C150.401 78.8771 144.395 76.9076 138.047 76.0048L138.834 71.0316C145.716 72.0164 152.224 74.1567 158.162 77.2456Z" fill="#23CA58"/>
<path d="M172.606 87.7008L169.059 91.269C165.17 87.4841 160.731 84.2606 155.875 81.733L158.164 77.2456C163.488 80.0162 168.347 83.5483 172.606 87.7008Z" fill="#EA1C24"/>
<path d="M184.476 103.864L179.994 106.152C177.187 100.595 173.479 95.5693 169.062 91.2691L172.61 87.7008C177.4 92.372 181.427 97.831 184.476 103.864Z" fill="#23CA58"/>
<path d="M190.169 121.249L185.205 122.053C184.264 116.424 182.484 111.08 179.992 106.152L184.474 103.864C187.199 109.248 189.146 115.094 190.169 121.249Z" fill="#EA1C24"/>
<path d="M191.003 131.356C191.003 134.711 190.731 138 190.21 141.208L185.243 140.413C185.724 137.465 185.974 134.439 185.974 131.356C185.974 128.189 185.711 125.08 185.203 122.053L190.167 121.249C190.718 124.538 191.003 127.913 191.003 131.356Z" fill="#23CA58"/>
<path d="M190.21 141.208C189.22 147.313 187.325 153.117 184.663 158.471L180.164 156.216C182.6 151.315 184.335 146.004 185.243 140.413L190.21 141.208Z" fill="#EA1C24"/>
<path d="M184.665 158.471C181.612 164.609 177.556 170.164 172.71 174.91L169.156 171.352C173.619 166.983 177.356 161.872 180.166 156.216L184.665 158.471Z" fill="#23CA58"/>
<path d="M172.707 174.91C168.356 179.171 163.369 182.789 157.904 185.599L155.625 181.108C160.619 178.541 165.173 175.242 169.153 171.352L172.707 174.91Z" fill="#EA1C24"/>
<path d="M157.907 185.599C152.077 188.599 145.7 190.68 138.965 191.662L138.172 186.688C144.379 185.792 150.257 183.875 155.628 181.108L157.907 185.599Z" fill="#23CA58"/>
<path d="M138.962 191.662C136.077 192.082 133.129 192.298 130.129 192.298C126.867 192.298 123.664 192.042 120.539 191.543L121.346 186.573C124.208 187.026 127.142 187.263 130.129 187.263C132.861 187.263 135.546 187.066 138.169 186.688L138.962 191.662Z" fill="#EA1C24"/>
<path d="M121.347 186.573L120.54 191.543C113.789 190.477 107.406 188.294 101.586 185.191L103.878 180.714C109.239 183.576 115.124 185.592 121.347 186.573Z" fill="#23CA58"/>
<path d="M103.878 180.714L101.586 185.191C96.3502 182.405 91.5666 178.872 87.3828 174.736L90.9304 171.175C94.7502 174.94 99.1077 178.163 103.878 180.714Z" fill="#EA1C24"/>
<path d="M90.9249 171.175L87.3772 174.736C82.6264 170.046 78.6427 164.577 75.6328 158.537L80.1083 156.242C82.8788 161.809 86.5478 166.852 90.9249 171.175Z" fill="#23CA58"/>
<path d="M80.1172 156.242L75.6417 158.537C72.9564 153.16 71.0482 147.33 70.0547 141.191L75.022 140.393C75.9302 146 77.6712 151.328 80.1172 156.242Z" fill="#EA1C24"/>
<path d="M121.953 127.69C121.681 128.287 121.477 128.917 121.346 129.577L75.0469 122.145C75.9617 116.624 77.683 111.372 80.0896 106.523L121.953 127.69Z" fill="#1A1A1A"/>
<path d="M124.054 124.758C123.165 125.579 122.444 126.574 121.949 127.69L80.0859 106.523C82.8369 100.979 86.4795 95.9566 90.8238 91.6432L124.054 124.758Z" fill="#E6E6E6"/>
<path d="M125.419 123.724C124.934 124.026 124.478 124.371 124.058 124.758L90.8281 91.6432C94.7889 87.7139 99.3333 84.3755 104.32 81.769H104.324L125.419 123.724Z" fill="#1A1A1A"/>
<path d="M128.668 122.503C127.491 122.694 126.39 123.117 125.416 123.724L104.32 81.769C109.533 79.0412 115.225 77.1143 121.242 76.1525L128.668 122.503Z" fill="#E6E6E6"/>
<path d="M138.049 76.0048L130.701 122.401C130.511 122.388 130.321 122.382 130.131 122.382C129.633 122.382 129.144 122.421 128.669 122.503L121.242 76.1526C124.137 75.6864 127.105 75.4468 130.131 75.4468C132.819 75.4468 135.462 75.6372 138.049 76.0048Z" fill="#1A1A1A"/>
<path d="M155.877 81.7329L134.552 123.55C133.405 122.894 132.097 122.487 130.703 122.401L138.051 76.0048C144.398 76.9075 150.405 78.8771 155.877 81.7329Z" fill="#E6E6E6"/>
<path d="M169.064 91.269L135.965 124.538C135.528 124.164 135.056 123.833 134.555 123.55L155.88 81.7329C160.735 84.2605 165.175 87.4841 169.064 91.269Z" fill="#1A1A1A"/>
<path d="M179.991 106.152L138.223 127.49C137.682 126.354 136.908 125.349 135.961 124.538L169.06 91.269C173.476 95.5692 177.185 100.595 179.991 106.152Z" fill="#E6E6E6"/>
<path d="M185.2 122.053L138.907 129.528C138.76 128.812 138.527 128.13 138.219 127.489L179.987 106.152C182.479 111.08 184.259 116.424 185.2 122.053Z" fill="#1A1A1A"/>
<path d="M185.977 131.356C185.977 134.439 185.728 137.465 185.246 140.413L138.944 133.017C139.048 132.479 139.101 131.924 139.101 131.356C139.101 130.729 139.035 130.119 138.914 129.528L185.207 122.053C185.715 125.08 185.977 128.189 185.977 131.356Z" fill="#E6E6E6"/>
<path d="M185.239 140.413C184.33 146.004 182.596 151.315 180.16 156.216L138.234 135.191C138.559 134.511 138.798 133.782 138.936 133.017L185.239 140.413Z" fill="#1A1A1A"/>
<path d="M180.164 156.216C177.354 161.872 173.617 166.983 169.154 171.352L135.977 138.161C136.924 137.344 137.701 136.333 138.239 135.191L180.164 156.216Z" fill="#E6E6E6"/>
<path d="M169.157 171.352C165.177 175.242 160.623 178.541 155.629 181.108L134.383 139.261C134.957 138.952 135.491 138.581 135.98 138.161L169.157 171.352Z" fill="#1A1A1A"/>
<path d="M155.627 181.108C150.256 183.875 144.377 185.792 138.171 186.688L130.797 140.305C132.085 140.213 133.299 139.845 134.381 139.261L155.627 181.108Z" fill="#E6E6E6"/>
<path d="M138.167 186.688C135.544 187.066 132.859 187.263 130.128 187.263C127.141 187.263 124.206 187.026 121.344 186.573L128.882 140.242C129.288 140.301 129.705 140.331 130.128 140.331C130.35 140.331 130.573 140.324 130.793 140.305L138.167 186.688Z" fill="#1A1A1A"/>
<path d="M128.882 140.243L121.344 186.574C115.121 185.592 109.236 183.577 103.875 180.714L125.285 138.906C126.351 139.596 127.571 140.062 128.882 140.243Z" fill="#E6E6E6"/>
<path d="M125.288 138.906L103.877 180.714C99.107 178.163 94.7495 174.94 90.9297 171.175L124.045 137.945C124.429 138.299 124.845 138.624 125.288 138.906Z" fill="#1A1A1A"/>
<path d="M124.041 137.945L90.926 171.175C86.5489 166.851 82.8799 161.809 80.1094 156.242L121.858 134.826C122.356 136.018 123.107 137.081 124.041 137.945Z" fill="#E6E6E6"/>
<path d="M121.859 134.826L80.1108 156.242C77.6649 151.328 75.9238 146 75.0156 140.393L121.312 132.968C121.426 133.615 121.61 134.239 121.859 134.826Z" fill="#1A1A1A"/>
<path d="M121.165 131.356C121.165 131.908 121.215 132.446 121.313 132.968L75.0169 140.393C74.5383 137.452 74.2891 134.432 74.2891 131.356C74.2891 128.218 74.5481 125.142 75.0432 122.145L121.342 129.577C121.224 130.152 121.165 130.746 121.165 131.356Z" fill="#E6E6E6"/>
<path d="M138.909 129.528C138.761 128.812 138.528 128.13 138.22 127.49C137.679 126.354 136.905 125.349 135.958 124.538C135.522 124.164 135.05 123.833 134.548 123.55C133.4 122.894 132.092 122.487 130.699 122.401C130.509 122.388 130.318 122.382 130.128 122.382C129.63 122.382 129.141 122.421 128.666 122.503C127.489 122.694 126.387 123.117 125.413 123.724C124.928 124.026 124.472 124.371 124.053 124.758C123.164 125.579 122.443 126.574 121.948 127.69C121.676 128.287 121.472 128.917 121.341 129.577C121.223 130.152 121.164 130.746 121.164 131.356C121.164 131.908 121.213 132.446 121.312 132.968C121.426 133.615 121.61 134.239 121.859 134.826C122.358 136.018 123.108 137.081 124.043 137.945C124.426 138.299 124.843 138.624 125.285 138.906C126.351 139.596 127.571 140.062 128.882 140.243C129.289 140.302 129.705 140.331 130.128 140.331C130.351 140.331 130.574 140.325 130.794 140.305C132.082 140.213 133.295 139.845 134.377 139.261C134.951 138.952 135.486 138.581 135.974 138.161C136.922 137.344 137.699 136.333 138.237 135.191C138.561 134.511 138.8 133.782 138.938 133.017C139.043 132.479 139.096 131.924 139.096 131.356C139.096 130.729 139.03 130.119 138.909 129.528ZM130.128 135.253C127.981 135.253 126.236 133.51 126.236 131.356C126.236 129.203 127.981 127.46 130.128 127.46C132.279 127.46 134.023 129.203 134.023 131.356C134.023 133.51 132.279 135.253 130.128 135.253Z" fill="#23CA58"/>
<path d="M134.021 131.356C134.021 133.51 132.277 135.253 130.126 135.253C127.979 135.253 126.234 133.51 126.234 131.356C126.234 129.203 127.979 127.46 130.126 127.46C132.277 127.46 134.021 129.203 134.021 131.356Z" fill="#EA1C24"/>
<path d="M90.8235 91.6432C86.4792 95.9566 82.8365 100.979 80.0856 106.523L75.5938 104.252C78.584 98.2348 82.5415 92.779 87.2596 88.0947L90.8235 91.6432Z" fill="#23CA58"/>
<path d="M127.733 20.9905C127.425 20.9905 127.152 21.0651 126.914 21.2145C126.681 21.3591 126.483 21.5295 126.319 21.7255C126.161 21.9215 126.039 22.1011 125.955 22.2645C125.871 22.4231 125.825 22.5165 125.815 22.5445L124.023 21.7255C124.033 21.6648 124.077 21.5435 124.156 21.3615C124.236 21.1748 124.362 20.9601 124.534 20.7175C124.707 20.4748 124.933 20.2391 125.213 20.0105C125.498 19.7818 125.848 19.5928 126.263 19.4435C126.679 19.2895 127.169 19.2125 127.733 19.2125C128.387 19.2125 128.928 19.3058 129.357 19.4925C129.791 19.6791 130.132 19.9241 130.379 20.2275C130.631 20.5261 130.811 20.8505 130.918 21.2005C131.026 21.5505 131.079 21.8865 131.079 22.2085C131.079 22.6098 130.998 22.9995 130.834 23.3775C130.676 23.7508 130.468 24.1055 130.211 24.4415C129.955 24.7728 129.679 25.0785 129.385 25.3585C129.091 25.6338 128.809 25.8765 128.538 26.0865C128.272 26.2918 128.046 26.4551 127.859 26.5765C127.673 26.6978 127.561 26.7725 127.523 26.8005H131.002V28.6205H124.373V26.9615C124.443 26.9101 124.602 26.7958 124.849 26.6185C125.097 26.4412 125.393 26.2195 125.738 25.9535C126.088 25.6875 126.45 25.3958 126.823 25.0785C127.201 24.7565 127.551 24.4251 127.873 24.0845C128.2 23.7438 128.466 23.4101 128.671 23.0835C128.877 22.7568 128.979 22.4558 128.979 22.1805C128.979 21.7465 128.87 21.4408 128.65 21.2635C128.436 21.0815 128.13 20.9905 127.733 20.9905ZM132.092 24.0075C132.092 23.2048 132.192 22.5048 132.393 21.9075C132.598 21.3055 132.876 20.8061 133.226 20.4095C133.581 20.0081 133.982 19.7095 134.43 19.5135C134.883 19.3128 135.356 19.2125 135.851 19.2125C136.346 19.2125 136.817 19.3128 137.265 19.5135C137.718 19.7095 138.119 20.0081 138.469 20.4095C138.819 20.8061 139.094 21.3055 139.295 21.9075C139.496 22.5048 139.596 23.2048 139.596 24.0075C139.596 24.8615 139.496 25.5918 139.295 26.1985C139.094 26.8052 138.819 27.2998 138.469 27.6825C138.119 28.0605 137.718 28.3405 137.265 28.5225C136.817 28.6998 136.346 28.7885 135.851 28.7885C135.356 28.7885 134.883 28.6998 134.43 28.5225C133.982 28.3405 133.581 28.0605 133.226 27.6825C132.876 27.2998 132.598 26.8052 132.393 26.1985C132.192 25.5918 132.092 24.8615 132.092 24.0075ZM134.192 24.0075C134.192 24.6748 134.26 25.2255 134.395 25.6595C134.53 26.0935 134.722 26.4178 134.969 26.6325C135.216 26.8425 135.51 26.9475 135.851 26.9475C136.192 26.9475 136.483 26.8425 136.726 26.6325C136.973 26.4178 137.162 26.0935 137.293 25.6595C137.428 25.2208 137.496 24.6701 137.496 24.0075C137.496 23.3821 137.428 22.8501 137.293 22.4115C137.162 21.9728 136.973 21.6368 136.726 21.4035C136.483 21.1701 136.192 21.0535 135.851 21.0535C135.51 21.0535 135.216 21.1701 134.969 21.4035C134.722 21.6368 134.53 21.9728 134.395 22.4115C134.26 22.8501 134.192 23.3821 134.192 24.0075Z" fill="white"/>
<path d="M94.5938 31.4291C94.6358 31.5597 94.6941 31.6857 94.7688 31.8071C94.8435 31.9284 94.9368 32.0381 95.0488 32.1361C95.1608 32.2341 95.2961 32.3111 95.4548 32.3671C95.6135 32.4231 95.8001 32.4511 96.0148 32.4511C96.4488 32.4511 96.7848 32.3134 97.0228 32.0381C97.2655 31.7581 97.3845 31.3964 97.3798 30.9531C97.3751 30.5284 97.2585 30.1947 97.0298 29.9521C96.8058 29.7094 96.4978 29.5881 96.1058 29.5881C95.8538 29.5881 95.6368 29.6324 95.4548 29.7211C95.2728 29.8097 95.1235 29.9124 95.0068 30.0291C94.8948 30.1457 94.8155 30.2531 94.7688 30.3511L93.0398 29.7211L93.8588 24.7931H99.0528V26.6131H95.6158L95.3288 28.3561C95.3521 28.3234 95.4245 28.2721 95.5458 28.2021C95.6718 28.1321 95.8351 28.0691 96.0358 28.0131C96.2411 27.9524 96.4721 27.9221 96.7288 27.9221C97.1861 27.9221 97.6248 28.0224 98.0448 28.2231C98.4648 28.4237 98.8101 28.7387 99.0808 29.1681C99.3515 29.5974 99.4868 30.1527 99.4868 30.8341C99.4868 31.5154 99.3398 32.1104 99.0458 32.6191C98.7565 33.1231 98.3575 33.5127 97.8488 33.7881C97.3401 34.0634 96.7568 34.2011 96.0988 34.2011C95.5995 34.2011 95.1608 34.1427 94.7828 34.0261C94.4095 33.9047 94.0898 33.7461 93.8238 33.5501C93.5578 33.3541 93.3408 33.1417 93.1728 32.9131C93.0095 32.6797 92.8858 32.4511 92.8018 32.2271L94.5938 31.4291Z" fill="white"/>
<path d="M62.2943 42.8107L60.8243 43.5807V41.5927L63.4003 40.1577H64.3873V49.3977H62.2943V42.8107ZM69.1493 41.7677C68.8413 41.7677 68.5683 41.8424 68.3303 41.9917C68.097 42.1364 67.8987 42.3067 67.7353 42.5027C67.5767 42.6987 67.4553 42.8784 67.3713 43.0417C67.2873 43.2004 67.2407 43.2937 67.2313 43.3217L65.4393 42.5027C65.4487 42.442 65.493 42.3207 65.5723 42.1387C65.6517 41.952 65.7777 41.7374 65.9503 41.4947C66.123 41.252 66.3493 41.0164 66.6293 40.7877C66.914 40.559 67.264 40.37 67.6793 40.2207C68.0947 40.0667 68.5847 39.9897 69.1493 39.9897C69.8027 39.9897 70.344 40.083 70.7733 40.2697C71.2073 40.4564 71.548 40.7014 71.7953 41.0047C72.0473 41.3034 72.227 41.6277 72.3343 41.9777C72.4417 42.3277 72.4953 42.6637 72.4953 42.9857C72.4953 43.387 72.4137 43.7767 72.2503 44.1547C72.0917 44.528 71.884 44.8827 71.6273 45.2187C71.3707 45.55 71.0953 45.8557 70.8013 46.1357C70.5073 46.411 70.225 46.6537 69.9543 46.8637C69.6883 47.069 69.462 47.2324 69.2753 47.3537C69.0887 47.475 68.9767 47.5497 68.9393 47.5777H72.4183V49.3977H65.7893V47.7387C65.8593 47.6874 66.018 47.573 66.2653 47.3957C66.5127 47.2184 66.809 46.9967 67.1543 46.7307C67.5043 46.4647 67.866 46.173 68.2393 45.8557C68.6173 45.5337 68.9673 45.2024 69.2893 44.8617C69.616 44.521 69.882 44.1874 70.0873 43.8607C70.2927 43.534 70.3953 43.233 70.3953 42.9577C70.3953 42.5237 70.2857 42.218 70.0663 42.0407C69.8517 41.8587 69.546 41.7677 69.1493 41.7677Z" fill="white"/>
<path d="M39.0507 74.8444L41.8997 71.5124C41.8437 71.5684 41.7457 71.6244 41.6057 71.6804C41.4657 71.7317 41.2814 71.7574 41.0527 71.7574C40.572 71.7574 40.1077 71.6337 39.6597 71.3864C39.2164 71.139 38.85 70.7867 38.5607 70.3294C38.276 69.8674 38.1337 69.3167 38.1337 68.6774C38.1337 68.0474 38.2877 67.4897 38.5957 67.0044C38.9084 66.519 39.3237 66.1364 39.8417 65.8564C40.3597 65.5764 40.9337 65.4364 41.5637 65.4364C42.2077 65.4364 42.7887 65.5694 43.3067 65.8354C43.8247 66.0967 44.2377 66.477 44.5457 66.9764C44.8584 67.471 45.0147 68.0637 45.0147 68.7544C45.0147 69.515 44.891 70.1567 44.6437 70.6794C44.3964 71.1974 44.114 71.6477 43.7967 72.0304L41.5007 74.8444H39.0507ZM41.5707 70.0844C41.846 70.0844 42.0934 70.019 42.3127 69.8884C42.5367 69.7577 42.714 69.5804 42.8447 69.3564C42.98 69.1324 43.0477 68.885 43.0477 68.6144C43.0477 68.3437 42.98 68.0964 42.8447 67.8724C42.714 67.6484 42.5367 67.471 42.3127 67.3404C42.0887 67.2097 41.8414 67.1444 41.5707 67.1444C41.3 67.1444 41.0527 67.212 40.8287 67.3474C40.6094 67.478 40.432 67.6554 40.2967 67.8794C40.166 68.0987 40.1007 68.3437 40.1007 68.6144C40.1007 68.885 40.166 69.1324 40.2967 69.3564C40.432 69.5804 40.6117 69.7577 40.8357 69.8884C41.0597 70.019 41.3047 70.0844 41.5707 70.0844Z" fill="white"/>
<path d="M21.6146 98.4206L20.1446 99.1906V97.2026L22.7206 95.7676H23.7076V105.008H21.6146V98.4206ZM30.4996 95.7676V101.235H31.5706V103.062H30.4996V105.008H28.4136V103.062H24.6056V101.403L28.0986 95.7676H30.4996ZM28.4136 101.235V98.4486H28.3996L26.7126 101.235H28.4136Z" fill="white"/>
<path d="M19.5989 132.263L18.1289 133.033V131.045L20.7049 129.61H21.6919V138.85H19.5989V132.263ZM24.179 132.263L22.709 133.033V131.045L25.285 129.61H26.272V138.85H24.179V132.263Z" fill="white"/>
<path d="M28.9758 171.958C28.3691 171.958 27.8091 171.841 27.2958 171.608C26.7825 171.375 26.3695 171.053 26.0568 170.642C25.7441 170.227 25.5878 169.753 25.5878 169.221C25.5878 168.792 25.6578 168.423 25.7978 168.115C25.9425 167.807 26.1385 167.548 26.3858 167.338C26.6378 167.123 26.9155 166.946 27.2188 166.806C26.9901 166.675 26.7801 166.524 26.5888 166.351C26.4021 166.174 26.2528 165.961 26.1408 165.714C26.0335 165.467 25.9798 165.163 25.9798 164.804C25.9798 164.309 26.1151 163.882 26.3858 163.523C26.6565 163.159 27.0158 162.879 27.4638 162.683C27.9165 162.482 28.4158 162.382 28.9618 162.382C29.5171 162.382 30.0165 162.482 30.4598 162.683C30.9078 162.879 31.2601 163.159 31.5168 163.523C31.7781 163.882 31.9088 164.309 31.9088 164.804C31.9088 165.336 31.7945 165.754 31.5658 166.057C31.3371 166.356 31.0501 166.605 30.7048 166.806C31.0128 166.946 31.2881 167.123 31.5308 167.338C31.7781 167.548 31.9741 167.807 32.1188 168.115C32.2681 168.423 32.3428 168.792 32.3428 169.221C32.3428 169.753 32.1865 170.227 31.8738 170.642C31.5658 171.053 31.1551 171.375 30.6418 171.608C30.1331 171.841 29.5778 171.958 28.9758 171.958ZM28.9618 170.138C29.1858 170.138 29.3865 170.084 29.5638 169.977C29.7458 169.87 29.8905 169.727 29.9978 169.55C30.1098 169.368 30.1658 169.167 30.1658 168.948C30.1658 168.729 30.1098 168.528 29.9978 168.346C29.8905 168.164 29.7458 168.022 29.5638 167.919C29.3865 167.812 29.1858 167.758 28.9618 167.758C28.7378 167.758 28.5348 167.812 28.3528 167.919C28.1755 168.026 28.0308 168.171 27.9188 168.353C27.8115 168.53 27.7578 168.729 27.7578 168.948C27.7578 169.167 27.8115 169.368 27.9188 169.55C28.0308 169.727 28.1755 169.87 28.3528 169.977C28.5348 170.084 28.7378 170.138 28.9618 170.138ZM28.9688 166.148C29.1648 166.148 29.3421 166.101 29.5008 166.008C29.6641 165.91 29.7948 165.779 29.8928 165.616C29.9908 165.448 30.0398 165.266 30.0398 165.07C30.0398 164.874 29.9908 164.697 29.8928 164.538C29.7948 164.375 29.6641 164.244 29.5008 164.146C29.3421 164.048 29.1648 163.999 28.9688 163.999C28.7728 163.999 28.5931 164.048 28.4298 164.146C28.2665 164.244 28.1358 164.375 28.0378 164.538C27.9398 164.697 27.8908 164.874 27.8908 165.07C27.8908 165.266 27.9398 165.446 28.0378 165.609C28.1358 165.772 28.2665 165.903 28.4298 166.001C28.5931 166.099 28.7728 166.148 28.9688 166.148Z" fill="white"/>
<path d="M40.5443 192.489L39.0743 193.259V191.271L41.6503 189.836H42.6373V199.076H40.5443V192.489ZM47.8263 192.923C48.3117 192.923 48.776 193.047 49.2193 193.294C49.6673 193.541 50.0337 193.896 50.3183 194.358C50.603 194.815 50.7453 195.364 50.7453 196.003C50.7453 196.633 50.5913 197.191 50.2833 197.676C49.9753 198.161 49.56 198.544 49.0373 198.824C48.5193 199.104 47.9453 199.244 47.3153 199.244C46.676 199.244 46.095 199.113 45.5723 198.852C45.0543 198.586 44.639 198.206 44.3263 197.711C44.0183 197.212 43.8643 196.617 43.8643 195.926C43.8643 195.161 43.988 194.519 44.2353 194.001C44.4873 193.483 44.7697 193.033 45.0823 192.65L47.3783 189.836H49.8283L46.9793 193.168C47.0353 193.107 47.1333 193.051 47.2733 193C47.4133 192.949 47.5977 192.923 47.8263 192.923ZM47.3083 197.536C47.579 197.536 47.824 197.471 48.0433 197.34C48.2673 197.209 48.4447 197.032 48.5753 196.808C48.7107 196.579 48.7783 196.33 48.7783 196.059C48.7783 195.788 48.7107 195.543 48.5753 195.324C48.4447 195.1 48.2673 194.923 48.0433 194.792C47.824 194.661 47.579 194.596 47.3083 194.596C47.0377 194.596 46.7903 194.661 46.5663 194.792C46.3423 194.923 46.1627 195.1 46.0273 195.324C45.8967 195.543 45.8313 195.788 45.8313 196.059C45.8313 196.33 45.8967 196.579 46.0273 196.808C46.1627 197.032 46.3423 197.209 46.5663 197.34C46.7903 197.471 47.0377 197.536 47.3083 197.536Z" fill="white"/>
<path d="M65.3773 216.282H72.0203V217.689L67.5613 225.522H65.2513L69.5773 218.102H65.3773V216.282Z" fill="white"/>
<path d="M94.7318 233.807L93.2618 234.577V232.589L95.8378 231.154H96.8248V240.394H94.7318V233.807ZM98.9198 240.394L101.769 237.062C101.713 237.118 101.615 237.174 101.475 237.23C101.335 237.281 101.15 237.307 100.922 237.307C100.441 237.307 99.9768 237.183 99.5288 236.936C99.0855 236.689 98.7192 236.336 98.4298 235.879C98.1452 235.417 98.0028 234.866 98.0028 234.227C98.0028 233.597 98.1568 233.039 98.4648 232.554C98.7775 232.069 99.1928 231.686 99.7108 231.406C100.229 231.126 100.803 230.986 101.433 230.986C102.077 230.986 102.658 231.119 103.176 231.385C103.694 231.646 104.107 232.027 104.415 232.526C104.727 233.021 104.884 233.613 104.884 234.304C104.884 235.065 104.76 235.706 104.513 236.229C104.265 236.747 103.983 237.197 103.666 237.58L101.37 240.394H98.9198ZM101.44 235.634C101.715 235.634 101.962 235.569 102.182 235.438C102.406 235.307 102.583 235.13 102.714 234.906C102.849 234.682 102.917 234.435 102.917 234.164C102.917 233.893 102.849 233.646 102.714 233.422C102.583 233.198 102.406 233.021 102.182 232.89C101.958 232.759 101.71 232.694 101.44 232.694C101.169 232.694 100.922 232.762 100.698 232.897C100.478 233.028 100.301 233.205 100.166 233.429C100.035 233.648 99.9698 233.893 99.9698 234.164C99.9698 234.435 100.035 234.682 100.166 234.906C100.301 235.13 100.481 235.307 100.705 235.438C100.929 235.569 101.174 235.634 101.44 235.634Z" fill="white"/>
<path d="M126.078 238.602C126.13 238.416 126.23 238.206 126.379 237.972C126.529 237.739 126.732 237.517 126.988 237.307C127.25 237.097 127.567 236.925 127.94 236.789C128.318 236.654 128.755 236.586 129.249 236.586C129.837 236.586 130.358 236.696 130.81 236.915C131.268 237.13 131.627 237.431 131.888 237.818C132.15 238.206 132.28 238.658 132.28 239.176C132.28 239.489 132.224 239.776 132.112 240.037C132 240.294 131.856 240.509 131.678 240.681C131.501 240.854 131.314 240.966 131.118 241.017C131.347 241.045 131.576 241.15 131.804 241.332C132.038 241.514 132.234 241.757 132.392 242.06C132.556 242.364 132.637 242.721 132.637 243.131C132.637 243.719 132.488 244.242 132.189 244.699C131.895 245.152 131.492 245.509 130.978 245.77C130.465 246.032 129.877 246.162 129.214 246.162C128.528 246.162 127.945 246.041 127.464 245.798C126.988 245.556 126.608 245.259 126.323 244.909C126.043 244.559 125.857 244.221 125.763 243.894L127.681 242.942C127.737 243.143 127.831 243.353 127.961 243.572C128.097 243.792 128.269 243.978 128.479 244.132C128.689 244.282 128.932 244.356 129.207 244.356C129.492 244.356 129.735 244.3 129.935 244.188C130.136 244.076 130.29 243.925 130.397 243.733C130.509 243.537 130.565 243.313 130.565 243.061C130.565 242.8 130.502 242.583 130.376 242.41C130.255 242.238 130.092 242.109 129.886 242.025C129.681 241.941 129.455 241.899 129.207 241.899H129.025V240.401H129.263C129.478 240.401 129.672 240.359 129.844 240.275C130.017 240.187 130.152 240.063 130.25 239.904C130.353 239.741 130.404 239.55 130.404 239.33C130.404 239.036 130.304 238.787 130.103 238.581C129.903 238.371 129.611 238.266 129.228 238.266C128.995 238.266 128.79 238.308 128.612 238.392C128.44 238.472 128.295 238.574 128.178 238.7C128.062 238.822 127.968 238.948 127.898 239.078C127.833 239.204 127.791 239.314 127.772 239.407L126.078 238.602Z" fill="white"/>
<path d="M161.06 233.807L159.59 234.577V232.589L162.166 231.154H163.153V240.394H161.06V233.807ZM164.723 231.154H171.366V232.561L166.907 240.394H164.597L168.923 232.974H164.723V231.154Z" fill="white"/>
<path d="M195.116 218.052C194.808 218.052 194.535 218.126 194.297 218.276C194.064 218.42 193.865 218.591 193.702 218.787C193.543 218.983 193.422 219.162 193.338 219.326C193.254 219.484 193.207 219.578 193.198 219.606L191.406 218.787C191.415 218.726 191.46 218.605 191.539 218.423C191.618 218.236 191.744 218.021 191.917 217.779C192.09 217.536 192.316 217.3 192.596 217.072C192.881 216.843 193.231 216.654 193.646 216.505C194.061 216.351 194.551 216.274 195.116 216.274C195.769 216.274 196.311 216.367 196.74 216.554C197.174 216.74 197.515 216.985 197.762 217.289C198.014 217.587 198.194 217.912 198.301 218.262C198.408 218.612 198.462 218.948 198.462 219.27C198.462 219.671 198.38 220.061 198.217 220.439C198.058 220.812 197.851 221.167 197.594 221.503C197.337 221.834 197.062 222.14 196.768 222.42C196.474 222.695 196.192 222.938 195.921 223.148C195.655 223.353 195.429 223.516 195.242 223.638C195.055 223.759 194.943 223.834 194.906 223.862H198.385V225.682H191.756V224.023C191.826 223.971 191.985 223.857 192.232 223.68C192.479 223.502 192.776 223.281 193.121 223.015C193.471 222.749 193.833 222.457 194.206 222.14C194.584 221.818 194.934 221.486 195.256 221.146C195.583 220.805 195.849 220.471 196.054 220.145C196.259 219.818 196.362 219.517 196.362 219.242C196.362 218.808 196.252 218.502 196.033 218.325C195.818 218.143 195.513 218.052 195.116 218.052Z" fill="white"/>
<path d="M214.927 193.988L213.457 194.758V192.77L216.033 191.335H217.02V200.575H214.927V193.988ZM219.955 197.971C219.997 198.102 220.055 198.228 220.13 198.349C220.205 198.471 220.298 198.58 220.41 198.678C220.522 198.776 220.657 198.853 220.816 198.909C220.975 198.965 221.161 198.993 221.376 198.993C221.81 198.993 222.146 198.856 222.384 198.58C222.627 198.3 222.746 197.939 222.741 197.495C222.736 197.071 222.62 196.737 222.391 196.494C222.167 196.252 221.859 196.13 221.467 196.13C221.215 196.13 220.998 196.175 220.816 196.263C220.634 196.352 220.485 196.455 220.368 196.571C220.256 196.688 220.177 196.795 220.13 196.893L218.401 196.263L219.22 191.335H224.414V193.155H220.977L220.69 194.898C220.713 194.866 220.786 194.814 220.907 194.744C221.033 194.674 221.196 194.611 221.397 194.555C221.602 194.495 221.833 194.464 222.09 194.464C222.547 194.464 222.986 194.565 223.406 194.765C223.826 194.966 224.171 195.281 224.442 195.71C224.713 196.14 224.848 196.695 224.848 197.376C224.848 198.058 224.701 198.653 224.407 199.161C224.118 199.665 223.719 200.055 223.21 200.33C222.701 200.606 222.118 200.743 221.46 200.743C220.961 200.743 220.522 200.685 220.144 200.568C219.771 200.447 219.451 200.288 219.185 200.092C218.919 199.896 218.702 199.684 218.534 199.455C218.371 199.222 218.247 198.993 218.163 198.769L219.955 197.971Z" fill="white"/>
<path d="M229.716 164.943L228.246 165.713V163.725L230.822 162.29H231.809V171.53H229.716V164.943ZM232.959 166.917C232.959 166.114 233.06 165.414 233.26 164.817C233.466 164.215 233.743 163.716 234.093 163.319C234.448 162.918 234.849 162.619 235.297 162.423C235.75 162.222 236.224 162.122 236.718 162.122C237.213 162.122 237.684 162.222 238.132 162.423C238.585 162.619 238.986 162.918 239.336 163.319C239.686 163.716 239.962 164.215 240.162 164.817C240.363 165.414 240.463 166.114 240.463 166.917C240.463 167.771 240.363 168.501 240.162 169.108C239.962 169.715 239.686 170.209 239.336 170.592C238.986 170.97 238.585 171.25 238.132 171.432C237.684 171.609 237.213 171.698 236.718 171.698C236.224 171.698 235.75 171.609 235.297 171.432C234.849 171.25 234.448 170.97 234.093 170.592C233.743 170.209 233.466 169.715 233.26 169.108C233.06 168.501 232.959 167.771 232.959 166.917ZM235.059 166.917C235.059 167.584 235.127 168.135 235.262 168.569C235.398 169.003 235.589 169.327 235.836 169.542C236.084 169.752 236.378 169.857 236.718 169.857C237.059 169.857 237.351 169.752 237.593 169.542C237.841 169.327 238.03 169.003 238.16 168.569C238.296 168.13 238.363 167.58 238.363 166.917C238.363 166.292 238.296 165.76 238.16 165.321C238.03 164.882 237.841 164.546 237.593 164.313C237.351 164.08 237.059 163.963 236.718 163.963C236.378 163.963 236.084 164.08 235.836 164.313C235.589 164.546 235.398 164.882 235.262 165.321C235.127 165.76 235.059 166.292 235.059 166.917Z" fill="white"/>
<path d="M239.863 130.874C240.349 130.874 240.813 130.998 241.256 131.245C241.704 131.492 242.071 131.847 242.355 132.309C242.64 132.766 242.782 133.315 242.782 133.954C242.782 134.584 242.628 135.142 242.32 135.627C242.012 136.112 241.597 136.495 241.074 136.775C240.556 137.055 239.982 137.195 239.352 137.195C238.713 137.195 238.132 137.064 237.609 136.803C237.091 136.537 236.676 136.157 236.363 135.662C236.055 135.163 235.901 134.568 235.901 133.877C235.901 133.112 236.025 132.47 236.272 131.952C236.524 131.434 236.807 130.984 237.119 130.601L239.415 127.787H241.865L239.016 131.119C239.072 131.058 239.17 131.002 239.31 130.951C239.45 130.9 239.635 130.874 239.863 130.874ZM239.345 135.487C239.616 135.487 239.861 135.422 240.08 135.291C240.304 135.16 240.482 134.983 240.612 134.759C240.748 134.53 240.815 134.281 240.815 134.01C240.815 133.739 240.748 133.494 240.612 133.275C240.482 133.051 240.304 132.874 240.08 132.743C239.861 132.612 239.616 132.547 239.345 132.547C239.075 132.547 238.827 132.612 238.603 132.743C238.379 132.874 238.2 133.051 238.064 133.275C237.934 133.494 237.868 133.739 237.868 134.01C237.868 134.281 237.934 134.53 238.064 134.759C238.2 134.983 238.379 135.16 238.603 135.291C238.827 135.422 239.075 135.487 239.345 135.487Z" fill="white"/>
<path d="M229.482 99.0331L228.012 99.8031V97.8151L230.588 96.3801H231.575V105.62H229.482V99.0331ZM232.893 98.2281C232.944 98.0415 233.044 97.8315 233.194 97.5981C233.343 97.3648 233.546 97.1431 233.803 96.9331C234.064 96.7231 234.381 96.5505 234.755 96.4151C235.133 96.2798 235.569 96.2121 236.064 96.2121C236.652 96.2121 237.172 96.3218 237.625 96.5411C238.082 96.7558 238.441 97.0568 238.703 97.4441C238.964 97.8315 239.095 98.2841 239.095 98.8021C239.095 99.1148 239.039 99.4018 238.927 99.6631C238.815 99.9198 238.67 100.134 238.493 100.307C238.315 100.48 238.129 100.592 237.933 100.643C238.161 100.671 238.39 100.776 238.619 100.958C238.852 101.14 239.048 101.383 239.207 101.686C239.37 101.989 239.452 102.346 239.452 102.757C239.452 103.345 239.302 103.868 239.004 104.325C238.71 104.778 238.306 105.135 237.793 105.396C237.279 105.657 236.691 105.788 236.029 105.788C235.343 105.788 234.759 105.667 234.279 105.424C233.803 105.181 233.422 104.885 233.138 104.535C232.858 104.185 232.671 103.847 232.578 103.52L234.496 102.568C234.552 102.769 234.645 102.979 234.776 103.198C234.911 103.417 235.084 103.604 235.294 103.758C235.504 103.907 235.746 103.982 236.022 103.982C236.306 103.982 236.549 103.926 236.75 103.814C236.95 103.702 237.104 103.55 237.212 103.359C237.324 103.163 237.38 102.939 237.38 102.687C237.38 102.426 237.317 102.209 237.191 102.036C237.069 101.863 236.906 101.735 236.701 101.651C236.495 101.567 236.269 101.525 236.022 101.525H235.84V100.027H236.078C236.292 100.027 236.486 99.9851 236.659 99.9011C236.831 99.8125 236.967 99.6888 237.065 99.5301C237.167 99.3668 237.219 99.1755 237.219 98.9561C237.219 98.6621 237.118 98.4124 236.918 98.2071C236.717 97.9971 236.425 97.8921 236.043 97.8921C235.809 97.8921 235.604 97.9341 235.427 98.0181C235.254 98.0975 235.109 98.2001 234.993 98.3261C234.876 98.4475 234.783 98.5735 234.713 98.7041C234.647 98.8301 234.605 98.9398 234.587 99.0331L232.893 98.2281Z" fill="white"/>
<path d="M220.849 65.6042V71.0712H221.92V72.8982H220.849V74.8442H218.763V72.8982H214.955V71.2392L218.448 65.6042H220.849ZM218.763 71.0712V68.2852H218.749L217.062 71.0712H218.763Z" fill="white"/>
<path d="M189.302 43.2867L187.832 44.0567V42.0687L190.408 40.6337H191.395V49.8737H189.302V43.2867ZM196.087 50.0417C195.48 50.0417 194.92 49.925 194.407 49.6917C193.894 49.4583 193.481 49.1363 193.168 48.7257C192.855 48.3103 192.699 47.8367 192.699 47.3047C192.699 46.8753 192.769 46.5067 192.909 46.1987C193.054 45.8907 193.25 45.6317 193.497 45.4217C193.749 45.207 194.027 45.0297 194.33 44.8897C194.101 44.759 193.891 44.6073 193.7 44.4347C193.513 44.2573 193.364 44.045 193.252 43.7977C193.145 43.5503 193.091 43.247 193.091 42.8877C193.091 42.393 193.226 41.966 193.497 41.6067C193.768 41.2427 194.127 40.9627 194.575 40.7667C195.028 40.566 195.527 40.4657 196.073 40.4657C196.628 40.4657 197.128 40.566 197.571 40.7667C198.019 40.9627 198.371 41.2427 198.628 41.6067C198.889 41.966 199.02 42.393 199.02 42.8877C199.02 43.4197 198.906 43.8373 198.677 44.1407C198.448 44.4393 198.161 44.689 197.816 44.8897C198.124 45.0297 198.399 45.207 198.642 45.4217C198.889 45.6317 199.085 45.8907 199.23 46.1987C199.379 46.5067 199.454 46.8753 199.454 47.3047C199.454 47.8367 199.298 48.3103 198.985 48.7257C198.677 49.1363 198.266 49.4583 197.753 49.6917C197.244 49.925 196.689 50.0417 196.087 50.0417ZM196.073 48.2217C196.297 48.2217 196.498 48.168 196.675 48.0607C196.857 47.9533 197.002 47.811 197.109 47.6337C197.221 47.4517 197.277 47.251 197.277 47.0317C197.277 46.8123 197.221 46.6117 197.109 46.4297C197.002 46.2477 196.857 46.1053 196.675 46.0027C196.498 45.8953 196.297 45.8417 196.073 45.8417C195.849 45.8417 195.646 45.8953 195.464 46.0027C195.287 46.11 195.142 46.2547 195.03 46.4367C194.923 46.614 194.869 46.8123 194.869 47.0317C194.869 47.251 194.923 47.4517 195.03 47.6337C195.142 47.811 195.287 47.9533 195.464 48.0607C195.646 48.168 195.849 48.2217 196.073 48.2217ZM196.08 44.2317C196.276 44.2317 196.453 44.185 196.612 44.0917C196.775 43.9937 196.906 43.863 197.004 43.6997C197.102 43.5317 197.151 43.3497 197.151 43.1537C197.151 42.9577 197.102 42.7803 197.004 42.6217C196.906 42.4583 196.775 42.3277 196.612 42.2297C196.453 42.1317 196.276 42.0827 196.08 42.0827C195.884 42.0827 195.704 42.1317 195.541 42.2297C195.378 42.3277 195.247 42.4583 195.149 42.6217C195.051 42.7803 195.002 42.9577 195.002 43.1537C195.002 43.3497 195.051 43.5293 195.149 43.6927C195.247 43.856 195.378 43.9867 195.541 44.0847C195.704 44.1827 195.884 44.2317 196.08 44.2317Z" fill="white"/>
<path d="M162.888 28.2476L161.418 29.0176V27.0296L163.994 25.5946H164.981V34.8346H162.888V28.2476Z" fill="white"/>
<path d="M226.768 131.356C226.768 136.52 226.365 141.588 225.584 146.535C223.968 156.81 220.735 166.549 216.158 175.481C211.509 184.545 205.476 192.778 198.335 199.898C191.167 207.047 182.885 213.077 173.774 217.699V217.703C164.885 222.216 155.206 225.391 145.003 226.969C140.153 227.721 135.186 228.109 130.13 228.109C124.9 228.109 119.766 227.692 114.763 226.891C104.598 225.266 94.9622 222.052 86.1161 217.516C77.0077 212.841 68.7387 206.762 61.5943 199.563C54.5221 192.443 48.5482 184.223 43.9546 175.186C39.43 166.29 36.2397 156.597 34.6529 146.378C33.8889 141.483 33.4922 136.464 33.4922 131.356C33.4922 126.252 33.8856 121.239 34.6496 116.348C36.2397 106.113 39.4333 96.4096 43.9678 87.5005C48.5613 78.47 54.5319 70.2602 61.5976 63.1434C68.7355 55.9545 76.9946 49.8816 86.0899 45.2104C94.913 40.6837 104.52 37.47 114.658 35.8418C119.697 35.0244 124.864 34.6042 130.13 34.6042C135.169 34.6042 140.12 34.9916 144.953 35.7368C155.176 37.3091 164.872 40.49 173.774 45.0102C182.892 49.6387 191.177 55.6722 198.348 62.8283C205.495 69.9582 211.535 78.2041 216.181 87.2806C220.765 96.2323 223.994 105.988 225.601 116.286C226.371 121.197 226.768 126.229 226.768 131.356Z" stroke="white" stroke-width="1.5" stroke-linecap="round" stroke-linejoin="round"/>
<path d="M226.768 131.356C226.768 136.52 226.365 141.588 225.584 146.535C223.968 156.81 220.735 166.549 216.158 175.481C211.509 184.545 205.476 192.778 198.335 199.898C191.167 207.047 182.885 213.077 173.774 217.699V217.703C164.885 222.216 155.206 225.391 145.003 226.969C140.153 227.721 135.186 228.109 130.13 228.109C124.9 228.109 119.766 227.692 114.763 226.891C104.598 225.266 94.9622 222.052 86.1161 217.516C77.0077 212.841 68.7387 206.762 61.5943 199.563C54.5221 192.443 48.5482 184.223 43.9546 175.186C39.43 166.29 36.2397 156.597 34.6529 146.378C33.8889 141.483 33.4922 136.464 33.4922 131.356C33.4922 126.252 33.8856 121.239 34.6496 116.348C36.2397 106.113 39.4333 96.4096 43.9678 87.5005C48.5613 78.47 54.5319 70.2602 61.5976 63.1434C68.7355 55.9545 76.9946 49.8816 86.0899 45.2104C94.913 40.6837 104.52 37.47 114.658 35.8418C119.697 35.0244 124.864 34.6042 130.13 34.6042C135.169 34.6042 140.12 34.9916 144.953 35.7368C155.176 37.3091 164.872 40.49 173.774 45.0102C182.892 49.6387 191.177 55.6722 198.348 62.8283C205.495 69.9582 211.535 78.2041 216.181 87.2806C220.765 96.2323 223.994 105.988 225.601 116.286C226.371 121.197 226.768 126.229 226.768 131.356Z" stroke="white" stroke-width="1.5" stroke-linecap="round" stroke-linejoin="round"/>
<path d="M48.5569 89.9329C48.4683 90.1069 48.3798 90.2776 48.2946 90.4516C44.2584 98.5235 41.3829 107.278 39.878 116.496C39.8452 116.696 39.8125 116.896 39.7829 117.097L34.6484 116.348C36.2386 106.113 39.4322 96.4095 43.9666 87.5005L48.5569 89.9329Z" stroke="white" stroke-width="1.5" stroke-linecap="round" stroke-linejoin="round"/>
<path d="M38.6825 131.356C38.6825 136.202 39.0595 140.958 39.7841 145.6L34.6529 146.378C33.8889 141.483 33.4922 136.464 33.4922 131.356C33.4922 126.252 33.8856 121.239 34.6496 116.348L39.7841 117.097C39.0595 121.742 38.6825 126.508 38.6825 131.356Z" stroke="white" stroke-width="1.5" stroke-linecap="round" stroke-linejoin="round"/>
<path d="M48.5798 172.832L43.9502 175.186C39.4255 166.29 36.2353 156.597 34.6484 146.378L39.7796 145.6C39.8026 145.744 39.8256 145.889 39.8485 146.033C41.3567 155.408 44.2846 164.304 48.4093 172.498C48.4651 172.609 48.5208 172.721 48.5798 172.832Z" stroke="white" stroke-width="1.5" stroke-linecap="round" stroke-linejoin="round"/>
<path d="M65.3044 195.932L61.5928 199.563C54.5205 192.443 48.5467 184.223 43.9531 175.186L48.5828 172.832C52.9369 181.4 58.5994 189.186 65.3044 195.932Z" stroke="white" stroke-width="1.5" stroke-linecap="round" stroke-linejoin="round"/>
<path d="M88.4172 212.854L86.1155 217.516C77.0072 212.841 68.7382 206.762 61.5938 199.563L65.3053 195.932C65.4627 196.093 65.6233 196.254 65.784 196.412C72.2037 202.777 79.558 208.196 87.627 212.444C87.8893 212.582 88.1516 212.72 88.4172 212.854Z" stroke="white" stroke-width="1.5" stroke-linecap="round" stroke-linejoin="round"/>
<path d="M115.531 221.75L114.764 226.891C104.6 225.266 94.9632 222.052 86.1172 217.516L88.4189 212.854C96.7895 217.158 105.908 220.207 115.531 221.75Z" stroke="white" stroke-width="1.5" stroke-linecap="round" stroke-linejoin="round"/>
<path d="M145.006 226.969C140.156 227.721 135.189 228.109 130.133 228.109C124.903 228.109 119.769 227.692 114.766 226.891L115.533 221.75C115.566 221.757 115.595 221.76 115.628 221.767C120.353 222.522 125.195 222.912 130.133 222.912C134.769 222.912 139.323 222.567 143.773 221.901C143.937 221.878 144.097 221.852 144.261 221.826L145.006 226.969Z" stroke="white" stroke-width="1.5" stroke-linecap="round" stroke-linejoin="round"/>
<path d="M173.773 217.699V217.703C164.884 222.216 155.206 225.391 145.002 226.969L144.258 221.826C153.891 220.329 163.029 217.328 171.422 213.071L173.773 217.699Z" stroke="white" stroke-width="1.5" stroke-linecap="round" stroke-linejoin="round"/>
<path d="M198.334 199.898C191.166 207.047 182.884 213.077 173.773 217.699L171.422 213.071C171.537 213.012 171.648 212.956 171.763 212.897C180.114 208.613 187.721 203.082 194.337 196.546C194.442 196.444 194.544 196.343 194.645 196.241L198.334 199.898Z" stroke="white" stroke-width="1.5" stroke-linecap="round" stroke-linejoin="round"/>
<path d="M216.16 175.481C211.511 184.545 205.478 192.778 198.337 199.898L194.648 196.241C201.458 189.456 207.206 181.6 211.619 172.954L216.16 175.481Z" stroke="white" stroke-width="1.5" stroke-linecap="round" stroke-linejoin="round"/>
<path d="M225.585 146.535C223.968 156.81 220.735 166.549 216.158 175.481L211.617 172.954C211.748 172.698 211.879 172.439 212.007 172.182C216.047 164.078 218.919 155.287 220.408 146.033L220.467 145.659L225.585 146.535Z" stroke="white" stroke-width="1.5" stroke-linecap="round" stroke-linejoin="round"/>
<path d="M226.77 131.356C226.77 136.52 226.367 141.588 225.587 146.535L220.469 145.659C221.2 140.998 221.58 136.221 221.58 131.356C221.58 126.485 221.2 121.699 220.469 117.031L225.603 116.286C226.374 121.197 226.77 126.229 226.77 131.356Z" stroke="white" stroke-width="1.5" stroke-linecap="round" stroke-linejoin="round"/>
<path d="M225.598 116.286L220.463 117.031H220.46C220.43 116.811 220.394 116.594 220.358 116.374C218.817 107.009 215.856 98.123 211.709 89.946C211.66 89.8476 211.607 89.7458 211.555 89.6473L216.178 87.2805C220.761 96.2322 223.991 105.988 225.598 116.286Z" stroke="white" stroke-width="1.5" stroke-linecap="round" stroke-linejoin="round"/>
<path d="M216.182 87.2805L211.559 89.6473C207.146 81.0206 201.402 73.1915 194.602 66.426L198.349 62.8282C205.497 69.9581 211.536 78.2041 216.182 87.2805Z" stroke="white" stroke-width="1.5" stroke-linecap="round" stroke-linejoin="round"/>
<path d="M198.346 62.8283L194.598 66.4261C194.46 66.2882 194.323 66.1504 194.182 66.0125C187.683 59.6245 180.237 54.2049 172.07 49.9769C171.853 49.8652 171.634 49.7536 171.414 49.642L173.772 45.0103C182.89 49.6387 191.175 55.6722 198.346 62.8283Z" stroke="white" stroke-width="1.5" stroke-linecap="round" stroke-linejoin="round"/>
<path d="M173.776 45.0101L171.419 49.6419C162.983 45.3581 153.786 42.3479 144.094 40.8642L144.956 35.7367C155.179 37.309 164.875 40.4899 173.776 45.0101Z" stroke="white" stroke-width="1.5" stroke-linecap="round" stroke-linejoin="round"/>
<path d="M144.952 35.7368L144.09 40.8642C143.936 40.838 143.778 40.815 143.624 40.792C139.221 40.1388 134.712 39.8007 130.129 39.8007C125.184 39.8007 120.332 40.1946 115.6 40.9496C115.561 40.9562 115.519 40.9627 115.479 40.9693L114.656 35.8418C119.696 35.0244 124.863 34.6042 130.129 34.6042C135.168 34.6042 140.119 34.9916 144.952 35.7368Z" stroke="white" stroke-width="1.5" stroke-linecap="round" stroke-linejoin="round"/>
<path d="M115.485 40.9693C105.845 42.522 96.7104 45.5847 88.3266 49.9079L86.0938 45.2104C94.9169 40.6837 104.524 37.47 114.662 35.8418L115.485 40.9693Z" stroke="white" stroke-width="1.5" stroke-linecap="round" stroke-linejoin="round"/>
<path d="M88.3188 49.9079C88.3123 49.9112 88.3057 49.9145 88.2992 49.9177C79.8826 54.2607 72.2267 59.8706 65.584 66.4983C65.5217 66.5607 65.4627 66.6197 65.4036 66.6821L61.5938 63.1434C68.7316 55.9545 76.9907 49.8816 86.086 45.2104L88.3188 49.9079Z" stroke="white" stroke-width="1.5" stroke-linecap="round" stroke-linejoin="round"/>
<path d="M65.4085 66.6821C58.6444 73.464 52.9394 81.3029 48.559 89.9329L43.9688 87.5006C48.5623 78.47 54.5329 70.2602 61.5986 63.1434L65.4085 66.6821Z" stroke="white" stroke-width="1.5" stroke-linecap="round" stroke-linejoin="round"/>
<path d="M87.2616 88.0947C82.5435 92.779 78.586 98.2347 75.5958 104.252L48.2969 90.4517C52.7494 81.5393 58.6118 73.4575 65.589 66.4983L87.2616 88.0947Z" stroke="white" stroke-width="1.5" stroke-linecap="round" stroke-linejoin="round"/>
<path d="M75.5982 104.252C72.9622 109.56 71.0769 115.304 70.0833 121.348L39.8828 116.496C41.3877 107.278 44.2632 98.5236 48.2993 90.4517L75.5982 104.252Z" stroke="white" stroke-width="1.5" stroke-linecap="round" stroke-linejoin="round"/>
<path d="M102.052 77.2686C96.58 80.1212 91.5963 83.7813 87.2585 88.0947L65.5859 66.4983C72.2287 59.8706 79.8846 54.2607 88.3011 49.9177L102.052 77.2686Z" stroke="white" stroke-width="1.5" stroke-linecap="round" stroke-linejoin="round"/>
<path d="M120.446 71.1793C113.912 72.2265 107.721 74.3142 102.056 77.2685L88.3047 49.9177C96.7278 45.5715 105.912 42.499 115.604 40.9496L120.446 71.1793Z" stroke="white" stroke-width="1.5" stroke-linecap="round" stroke-linejoin="round"/>
<path d="M143.625 40.792L138.835 71.0315C135.992 70.6212 133.084 70.4112 130.13 70.4112C126.835 70.4112 123.598 70.6738 120.444 71.1793L115.602 40.9496C120.333 40.1946 125.185 39.8007 130.13 39.8007C134.713 39.8007 139.222 40.1388 143.625 40.792Z" stroke="white" stroke-width="1.5" stroke-linecap="round" stroke-linejoin="round"/>
<path d="M172.073 49.9768L158.164 77.2455C152.226 74.1566 145.718 72.0163 138.836 71.0315L143.626 40.792C153.741 42.2888 163.322 45.4467 172.073 49.9768Z" stroke="white" stroke-width="1.5" stroke-linecap="round" stroke-linejoin="round"/>
<path d="M194.184 66.0124L172.607 87.7007C168.348 83.5482 163.489 80.0161 158.164 77.2456L172.072 49.9768C180.24 54.2048 187.686 59.6244 194.184 66.0124Z" stroke="white" stroke-width="1.5" stroke-linecap="round" stroke-linejoin="round"/>
<path d="M211.715 89.9461L184.475 103.864C181.426 97.831 177.4 92.3719 172.609 87.7008L194.187 66.0125C201.249 72.9519 207.19 81.0272 211.715 89.9461Z" stroke="white" stroke-width="1.5" stroke-linecap="round" stroke-linejoin="round"/>
<path d="M220.358 116.374L190.164 121.249C189.141 115.094 187.193 109.248 184.469 103.864L211.709 89.946C215.856 98.123 218.817 107.009 220.358 116.374Z" stroke="white" stroke-width="1.5" stroke-linecap="round" stroke-linejoin="round"/>
<path d="M221.582 131.356C221.582 136.353 221.182 141.254 220.412 146.033L190.214 141.208C190.736 138 191.008 134.711 191.008 131.356C191.008 127.913 190.723 124.538 190.172 121.249L220.366 116.375C221.166 121.249 221.582 126.255 221.582 131.356Z" stroke="white" stroke-width="1.5" stroke-linecap="round" stroke-linejoin="round"/>
<path d="M220.409 146.033C218.92 155.287 216.048 164.078 212.009 172.182L184.664 158.471C187.326 153.117 189.221 147.313 190.212 141.208L220.409 146.033Z" stroke="white" stroke-width="1.5" stroke-linecap="round" stroke-linejoin="round"/>
<path d="M212.01 172.182C207.482 181.265 201.489 189.492 194.341 196.546L172.711 174.91C177.557 170.164 181.613 164.609 184.665 158.471L212.01 172.182Z" stroke="white" stroke-width="1.5" stroke-linecap="round" stroke-linejoin="round"/>
<path d="M194.34 196.546C187.723 203.082 180.117 208.613 171.766 212.897L157.906 185.598C163.372 182.789 168.359 179.171 172.71 174.91L194.34 196.546Z" stroke="white" stroke-width="1.5" stroke-linecap="round" stroke-linejoin="round"/>
<path d="M171.762 212.897C163.132 217.319 153.712 220.411 143.768 221.901L138.961 191.662C145.696 190.68 152.073 188.599 157.902 185.599L171.762 212.897Z" stroke="white" stroke-width="1.5" stroke-linecap="round" stroke-linejoin="round"/>
<path d="M143.77 221.901C139.321 222.568 134.766 222.912 130.13 222.912C125.192 222.912 120.35 222.522 115.625 221.767L120.54 191.543C123.665 192.042 126.868 192.298 130.13 192.298C133.13 192.298 136.078 192.082 138.963 191.662L143.77 221.901Z" stroke="white" stroke-width="1.5" stroke-linecap="round" stroke-linejoin="round"/>
<path d="M120.537 191.543L115.622 221.767C105.661 220.178 96.2383 216.977 87.625 212.444L101.583 185.192C107.402 188.294 113.786 190.477 120.537 191.543Z" stroke="white" stroke-width="1.5" stroke-linecap="round" stroke-linejoin="round"/>
<path d="M101.582 185.191L87.6242 212.444C79.5553 208.196 72.201 202.777 65.7812 196.411L87.3783 174.736C91.5621 178.872 96.3457 182.405 101.582 185.191Z" stroke="white" stroke-width="1.5" stroke-linecap="round" stroke-linejoin="round"/>
<path d="M87.382 174.736L65.7849 196.412C58.7814 189.469 52.8928 181.4 48.4141 172.498L75.6375 158.537C78.6474 164.577 82.6311 170.046 87.382 174.736Z" stroke="white" stroke-width="1.5" stroke-linecap="round" stroke-linejoin="round"/>
<path d="M75.6359 158.537L48.4124 172.498C44.2877 164.304 41.3598 155.408 39.8516 146.033L70.0489 141.191C71.0424 147.33 72.9506 153.16 75.6359 158.537Z" stroke="white" stroke-width="1.5" stroke-linecap="round" stroke-linejoin="round"/>
<path d="M69.2572 131.356C69.2572 134.705 69.5261 137.991 70.0475 141.191L39.8501 146.033C39.0797 141.254 38.6797 136.353 38.6797 131.356C38.6797 126.298 39.0895 121.331 39.8764 116.496L70.0769 121.348C69.536 124.604 69.2572 127.949 69.2572 131.356Z" stroke="white" stroke-width="1.5" stroke-linecap="round" stroke-linejoin="round"/>
<path d="M74.2874 131.356C74.2874 134.432 74.5366 137.452 75.0153 140.393L70.048 141.191C69.5267 137.991 69.2578 134.705 69.2578 131.356C69.2578 127.949 69.5365 124.604 70.0775 121.348L75.0416 122.145C74.5465 125.142 74.2874 128.218 74.2874 131.356Z" stroke="white" stroke-width="1.5" stroke-linecap="round" stroke-linejoin="round"/>
<path d="M80.0849 106.523C77.6783 111.372 75.957 116.624 75.0422 122.145L70.0781 121.348C71.0717 115.304 72.957 109.56 75.593 104.252L80.0849 106.523Z" stroke="white" stroke-width="1.5" stroke-linecap="round" stroke-linejoin="round"/>
<path d="M104.314 81.7691C99.3269 84.3755 94.7825 87.7139 90.8218 91.6432L87.2578 88.0947C91.5956 83.7813 96.5793 80.1212 102.051 77.2686L104.314 81.7691Z" stroke="white" stroke-width="1.5" stroke-linecap="round" stroke-linejoin="round"/>
<path d="M121.242 76.1525C115.225 77.1143 109.534 79.0412 104.32 81.7691H104.317L102.055 77.2686C107.72 74.3142 113.911 72.2265 120.445 71.1793L121.242 76.1525Z" stroke="white" stroke-width="1.5" stroke-linecap="round" stroke-linejoin="round"/>
<path d="M138.836 71.0315L138.049 76.0047C135.462 75.637 132.819 75.4467 130.131 75.4467C127.104 75.4467 124.137 75.6863 121.242 76.1524L120.445 71.1793C123.599 70.6738 126.836 70.4111 130.131 70.4111C133.085 70.4111 135.993 70.6212 138.836 71.0315Z" stroke="white" stroke-width="1.5" stroke-linecap="round" stroke-linejoin="round"/>
<path d="M158.162 77.2455L155.873 81.7329C150.401 78.877 144.395 76.9074 138.047 76.0047L138.834 71.0315C145.716 72.0163 152.224 74.1566 158.162 77.2455Z" stroke="white" stroke-width="1.5" stroke-linecap="round" stroke-linejoin="round"/>
<path d="M172.606 87.7008L169.059 91.269C165.17 87.4841 160.731 84.2606 155.875 81.733L158.164 77.2456C163.488 80.0162 168.347 83.5483 172.606 87.7008Z" stroke="white" stroke-width="1.5" stroke-linecap="round" stroke-linejoin="round"/>
<path d="M184.476 103.864L179.994 106.152C177.187 100.595 173.479 95.5691 169.062 91.2689L172.61 87.7007C177.4 92.3719 181.427 97.8309 184.476 103.864Z" stroke="white" stroke-width="1.5" stroke-linecap="round" stroke-linejoin="round"/>
<path d="M190.169 121.249L185.205 122.053C184.264 116.424 182.484 111.08 179.992 106.152L184.474 103.864C187.199 109.248 189.146 115.094 190.169 121.249Z" stroke="white" stroke-width="1.5" stroke-linecap="round" stroke-linejoin="round"/>
<path d="M191.003 131.356C191.003 134.711 190.731 138 190.21 141.208L185.243 140.413C185.724 137.465 185.974 134.439 185.974 131.356C185.974 128.189 185.711 125.08 185.203 122.053L190.167 121.249C190.718 124.538 191.003 127.913 191.003 131.356Z" stroke="white" stroke-width="1.5" stroke-linecap="round" stroke-linejoin="round"/>
<path d="M190.21 141.208C189.22 147.313 187.325 153.117 184.663 158.471L180.164 156.216C182.6 151.315 184.335 146.004 185.243 140.413L190.21 141.208Z" stroke="white" stroke-width="1.5" stroke-linecap="round" stroke-linejoin="round"/>
<path d="M184.657 158.471C181.604 164.609 177.549 170.164 172.703 174.91L169.148 171.352C173.611 166.983 177.349 161.872 180.158 156.216L184.657 158.471Z" stroke="white" stroke-width="1.5" stroke-linecap="round" stroke-linejoin="round"/>
<path d="M172.707 174.91C168.356 179.171 163.369 182.789 157.904 185.598L155.625 181.108C160.619 178.541 165.173 175.242 169.153 171.352L172.707 174.91Z" stroke="white" stroke-width="1.5" stroke-linecap="round" stroke-linejoin="round"/>
<path d="M157.907 185.599C152.077 188.599 145.7 190.68 138.965 191.662L138.172 186.688C144.379 185.792 150.257 183.875 155.628 181.108L157.907 185.599Z" stroke="white" stroke-width="1.5" stroke-linecap="round" stroke-linejoin="round"/>
<path d="M138.962 191.662C136.077 192.082 133.129 192.298 130.129 192.298C126.867 192.298 123.664 192.042 120.539 191.543L121.346 186.573C124.208 187.026 127.142 187.263 130.129 187.263C132.861 187.263 135.546 187.066 138.169 186.688L138.962 191.662Z" stroke="white" stroke-width="1.5" stroke-linecap="round" stroke-linejoin="round"/>
<path d="M121.347 186.573L120.54 191.543C113.789 190.477 107.406 188.294 101.586 185.191L103.878 180.714C109.239 183.576 115.124 185.592 121.347 186.573Z" stroke="white" stroke-width="1.5" stroke-linecap="round" stroke-linejoin="round"/>
<path d="M103.878 180.714L101.586 185.191C96.3502 182.405 91.5666 178.872 87.3828 174.736L90.9304 171.175C94.7502 174.94 99.1077 178.163 103.878 180.714Z" stroke="white" stroke-width="1.5" stroke-linecap="round" stroke-linejoin="round"/>
<path d="M90.9249 171.175L87.3772 174.736C82.6264 170.045 78.6427 164.577 75.6328 158.536L80.1083 156.242C82.8788 161.809 86.5478 166.851 90.9249 171.175Z" stroke="white" stroke-width="1.5" stroke-linecap="round" stroke-linejoin="round"/>
<path d="M80.1093 156.242L75.6339 158.537C72.9486 153.16 71.0403 147.33 70.0469 141.191L75.0141 140.393C75.9224 146 77.6634 151.328 80.1093 156.242Z" stroke="white" stroke-width="1.5" stroke-linecap="round" stroke-linejoin="round"/>
<path d="M121.953 127.69C121.681 128.287 121.477 128.917 121.346 129.577L75.0469 122.145C75.9617 116.624 77.683 111.372 80.0896 106.523L121.953 127.69Z" stroke="white" stroke-width="1.5" stroke-linecap="round" stroke-linejoin="round"/>
<path d="M124.054 124.758C123.165 125.579 122.444 126.574 121.949 127.69L80.0859 106.523C82.8369 100.979 86.4795 95.9566 90.8238 91.6432L124.054 124.758Z" stroke="white" stroke-width="1.5" stroke-linecap="round" stroke-linejoin="round"/>
<path d="M125.411 123.724C124.926 124.026 124.47 124.371 124.05 124.758L90.8203 91.6432C94.7811 87.7139 99.3255 84.3755 104.312 81.769H104.316L125.411 123.724Z" stroke="white" stroke-width="1.5" stroke-linecap="round" stroke-linejoin="round"/>
<path d="M128.668 122.503C127.491 122.694 126.39 123.117 125.416 123.724L104.32 81.769C109.533 79.0412 115.225 77.1143 121.242 76.1525L128.668 122.503Z" stroke="white" stroke-width="1.5" stroke-linecap="round" stroke-linejoin="round"/>
<path d="M138.049 76.0048L130.701 122.401C130.511 122.388 130.321 122.382 130.131 122.382C129.633 122.382 129.144 122.421 128.669 122.503L121.242 76.1526C124.137 75.6864 127.105 75.4468 130.131 75.4468C132.819 75.4468 135.462 75.6372 138.049 76.0048Z" stroke="white" stroke-width="1.5" stroke-linecap="round" stroke-linejoin="round"/>
<path d="M155.877 81.7329L134.552 123.55C133.405 122.894 132.097 122.487 130.703 122.401L138.051 76.0048C144.398 76.9075 150.405 78.8771 155.877 81.7329Z" stroke="white" stroke-width="1.5" stroke-linecap="round" stroke-linejoin="round"/>
<path d="M169.056 91.269L135.957 124.538C135.521 124.164 135.049 123.833 134.547 123.55L155.872 81.7329C160.728 84.2605 165.167 87.4841 169.056 91.269Z" stroke="white" stroke-width="1.5" stroke-linecap="round" stroke-linejoin="round"/>
<path d="M179.991 106.152L138.223 127.49C137.682 126.354 136.908 125.349 135.961 124.538L169.06 91.269C173.476 95.5692 177.185 100.595 179.991 106.152Z" stroke="white" stroke-width="1.5" stroke-linecap="round" stroke-linejoin="round"/>
<path d="M185.2 122.053L138.907 129.528C138.76 128.812 138.527 128.13 138.219 127.489L179.987 106.152C182.479 111.08 184.259 116.424 185.2 122.053Z" stroke="white" stroke-width="1.5" stroke-linecap="round" stroke-linejoin="round"/>
<path d="M185.969 131.356C185.969 134.439 185.72 137.465 185.238 140.413L138.936 133.017C139.041 132.479 139.093 131.924 139.093 131.356C139.093 130.729 139.028 130.119 138.906 129.528L185.199 122.053C185.707 125.08 185.969 128.189 185.969 131.356Z" stroke="white" stroke-width="1.5" stroke-linecap="round" stroke-linejoin="round"/>
<path d="M185.239 140.413C184.33 146.004 182.596 151.315 180.16 156.216L138.234 135.191C138.559 134.511 138.798 133.782 138.936 133.017L185.239 140.413Z" stroke="white" stroke-width="1.5" stroke-linecap="round" stroke-linejoin="round"/>
<path d="M180.164 156.216C177.354 161.872 173.617 166.983 169.154 171.352L135.977 138.161C136.924 137.344 137.701 136.333 138.239 135.191L180.164 156.216Z" stroke="white" stroke-width="1.5" stroke-linecap="round" stroke-linejoin="round"/>
<path d="M169.149 171.352C165.169 175.242 160.615 178.541 155.621 181.108L134.375 139.261C134.949 138.952 135.483 138.581 135.972 138.161L169.149 171.352Z" stroke="white" stroke-width="1.5" stroke-linecap="round" stroke-linejoin="round"/>
<path d="M155.627 181.108C150.256 183.875 144.377 185.792 138.171 186.688L130.797 140.305C132.085 140.213 133.299 139.845 134.381 139.261L155.627 181.108Z" stroke="white" stroke-width="1.5" stroke-linecap="round" stroke-linejoin="round"/>
<path d="M138.175 186.688C135.552 187.066 132.866 187.263 130.135 187.263C127.148 187.263 124.214 187.026 121.352 186.573L128.889 140.242C129.296 140.301 129.712 140.331 130.135 140.331C130.358 140.331 130.581 140.324 130.801 140.305L138.175 186.688Z" stroke="white" stroke-width="1.5" stroke-linecap="round" stroke-linejoin="round"/>
<path d="M128.882 140.243L121.344 186.574C115.121 185.592 109.236 183.577 103.875 180.714L125.285 138.906C126.351 139.596 127.571 140.062 128.882 140.243Z" stroke="white" stroke-width="1.5" stroke-linecap="round" stroke-linejoin="round"/>
<path d="M125.288 138.906L103.877 180.714C99.107 178.163 94.7495 174.94 90.9297 171.175L124.045 137.945C124.429 138.299 124.845 138.624 125.288 138.906Z" stroke="white" stroke-width="1.5" stroke-linecap="round" stroke-linejoin="round"/>
<path d="M124.041 137.945L90.926 171.175C86.5489 166.851 82.8799 161.809 80.1094 156.242L121.858 134.826C122.356 136.018 123.107 137.081 124.041 137.945Z" stroke="white" stroke-width="1.5" stroke-linecap="round" stroke-linejoin="round"/>
<path d="M121.859 134.826L80.1108 156.242C77.6649 151.328 75.9238 146 75.0156 140.393L121.312 132.968C121.426 133.615 121.61 134.239 121.859 134.826Z" stroke="white" stroke-width="1.5" stroke-linecap="round" stroke-linejoin="round"/>
<path d="M121.165 131.356C121.165 131.908 121.215 132.446 121.313 132.968L75.0169 140.393C74.5383 137.452 74.2891 134.432 74.2891 131.356C74.2891 128.218 74.5481 125.142 75.0432 122.145L121.342 129.577C121.224 130.152 121.165 130.746 121.165 131.356Z" stroke="white" stroke-width="1.5" stroke-linecap="round" stroke-linejoin="round"/>
<path d="M138.909 129.528C138.761 128.812 138.528 128.13 138.22 127.49C137.679 126.354 136.905 125.349 135.958 124.538C135.522 124.164 135.05 123.833 134.548 123.55C133.4 122.894 132.092 122.487 130.699 122.401C130.509 122.388 130.318 122.382 130.128 122.382C129.63 122.382 129.141 122.421 128.666 122.503C127.489 122.694 126.387 123.117 125.413 123.724C124.928 124.026 124.472 124.371 124.053 124.758C123.164 125.579 122.443 126.574 121.948 127.69C121.676 128.287 121.472 128.917 121.341 129.577C121.223 130.152 121.164 130.746 121.164 131.356C121.164 131.908 121.213 132.446 121.312 132.968C121.426 133.615 121.61 134.239 121.859 134.826C122.358 136.018 123.108 137.081 124.043 137.945C124.426 138.299 124.843 138.624 125.285 138.906C126.351 139.596 127.571 140.062 128.882 140.242C129.289 140.302 129.705 140.331 130.128 140.331C130.351 140.331 130.574 140.325 130.794 140.305C132.082 140.213 133.295 139.845 134.377 139.261C134.951 138.952 135.486 138.581 135.974 138.161C136.922 137.344 137.699 136.333 138.237 135.191C138.561 134.511 138.8 133.782 138.938 133.017C139.043 132.479 139.096 131.924 139.096 131.356C139.096 130.729 139.03 130.119 138.909 129.528ZM130.128 135.253C127.981 135.253 126.236 133.51 126.236 131.356C126.236 129.203 127.981 127.46 130.128 127.46C132.279 127.46 134.023 129.203 134.023 131.356C134.023 133.51 132.279 135.253 130.128 135.253Z" stroke="white" stroke-width="1.5" stroke-linecap="round" stroke-linejoin="round"/>
<path d="M134.021 131.356C134.021 133.51 132.277 135.253 130.126 135.253C127.979 135.253 126.234 133.51 126.234 131.356C126.234 129.203 127.979 127.46 130.126 127.46C132.277 127.46 134.021 129.203 134.021 131.356Z" stroke="white" stroke-width="1.5" stroke-linecap="round" stroke-linejoin="round"/>
<path d="M90.8235 91.6432C86.4792 95.9566 82.8365 100.979 80.0856 106.523L75.5938 104.252C78.584 98.2348 82.5415 92.779 87.2596 88.0947L90.8235 91.6432Z" stroke="white" stroke-width="1.5" stroke-linecap="round" stroke-linejoin="round"/>
</svg>
