<svg width="76" height="59" viewBox="0 0 76 59" fill="none" xmlns="http://www.w3.org/2000/svg">
<path d="M38.0369 15.6147L34.0545 22.2579C28.6078 31.3243 20.9903 38.2731 12.173 42.2146L7.24536 44.4179C7.24536 44.4179 31.2767 4.54052 31.4883 4.23785L38.0369 15.6147Z" fill="#00C4FB"/>
<path d="M48.2705 33.3583L48.3963 33.3934L48.3743 33.3583L46.1536 29.5248L31.4884 4.23202C33.0005 2.09387 35.1265 0.303162 38.2556 0.303162C41.6721 0.303162 43.9308 2.44131 45.5317 5.1702L68.557 44.4131H29.6729C33.9976 37.4176 40.9195 33.297 48.2705 33.3583Z" fill="white"/>
<path d="M38.0369 15.6147L35.1394 20.4487L31.4873 4.2359L38.0369 15.6147Z" fill="#009CC8"/>
<path d="M7.27638 50.917H1.97844V52.9734H7.02386C7.5339 52.9734 7.93613 53.0367 8.22958 53.1632C8.52302 53.2897 8.73262 53.5135 8.85738 53.8357C8.98215 54.1578 9.04602 54.6211 9.04602 55.2283V56.5363C9.04602 57.1436 8.98314 57.6078 8.85738 57.93C8.73262 58.2521 8.52302 58.476 8.22958 58.6015C7.93613 58.728 7.5339 58.7913 7.02386 58.7913H2.02336C1.51333 58.7913 1.11109 58.728 0.817649 58.6015C0.524206 58.476 0.314604 58.2521 0.189841 57.93C0.0650779 57.6078 0.00219727 57.1446 0.00219727 56.5363V56.2736L1.66404 55.8677V56.9947H7.38418V54.8215H2.33876C1.82374 54.8215 1.4205 54.7573 1.13305 54.6269C0.844598 54.4975 0.638988 54.2717 0.516221 53.9505C0.394453 53.6284 0.33257 53.1681 0.33257 52.5656V51.5107C0.33257 50.9034 0.393454 50.4392 0.516221 50.118C0.63799 49.7959 0.845596 49.572 1.13604 49.4455C1.42649 49.32 1.82773 49.2557 2.33776 49.2557H6.93204C7.43209 49.2557 7.82434 49.3151 8.10781 49.4348C8.39127 49.5545 8.59987 49.7647 8.73561 50.0645C8.87136 50.3642 8.93823 50.7895 8.93823 51.3413V51.5389L7.27638 52.0012V50.917Z" fill="white"/>
<path d="M14.2043 58.7893V49.2577H21.1342C21.5594 49.2577 21.9047 49.32 22.1682 49.4426C22.4327 49.5662 22.6293 49.7628 22.7601 50.0343C22.8909 50.3049 22.9557 50.663 22.9557 51.1078V53.2362C22.9557 53.6809 22.8909 54.0371 22.7601 54.3048C22.6293 54.5724 22.4317 54.768 22.1682 54.8916C21.9037 55.0152 21.5594 55.0765 21.1342 55.0765H16.0578V58.7913L14.2043 58.7893ZM20.2848 50.917H16.0578V53.4328H20.2848C20.5912 53.4328 20.8088 53.3822 20.9386 53.281C21.0683 53.1788 21.1332 52.9783 21.1332 52.6785V51.6625C21.1332 51.3686 21.0703 51.171 20.9455 51.0698C20.8218 50.9686 20.6012 50.917 20.2848 50.917Z" fill="white"/>
<path d="M26.9441 51.5126C26.9441 50.9053 27.005 50.4411 27.1277 50.12C27.2495 49.7978 27.4571 49.574 27.7476 49.4475C28.038 49.3219 28.4393 49.2577 28.9493 49.2577H34.906C35.416 49.2577 35.8172 49.3209 36.1077 49.4475C36.3981 49.574 36.6057 49.7978 36.7275 50.12C36.8493 50.4421 36.9112 50.9053 36.9112 51.5126V56.5354C36.9112 57.1427 36.8503 57.6069 36.7275 57.929C36.6057 58.2511 36.3981 58.475 36.1077 58.6005C35.8172 58.7271 35.416 58.7903 34.906 58.7903H28.9493C28.4393 58.7903 28.038 58.7271 27.7476 58.6005C27.4571 58.475 27.2495 58.2511 27.1277 57.929C27.006 57.6069 26.9441 57.1436 26.9441 56.5354V51.5126ZM28.8275 56.9947H35.0297V50.9715H28.8275V56.9947Z" fill="white"/>
<path d="M42.1333 58.7893V49.2577H49.0631C49.4883 49.2577 49.8337 49.32 50.0972 49.4426C50.3617 49.5662 50.5583 49.7638 50.6891 50.0343C50.8198 50.3058 50.8847 50.664 50.8847 51.1087V53.3481C50.8847 54.005 50.737 54.477 50.4425 54.7661C50.1481 55.0551 49.688 55.1992 49.0631 55.1992H47.9912L51.7351 58.7884H49.0242L45.7684 55.1992H43.9868V58.7884H42.1333V58.7893ZM48.2138 50.917H43.9868V53.5593H48.2138C48.5202 53.5593 48.7378 53.5087 48.8675 53.4065C48.9973 53.3043 49.0621 53.1038 49.0621 52.8041V51.6625C49.0621 51.3686 48.9993 51.171 48.8745 51.0698C48.7507 50.9686 48.5302 50.917 48.2138 50.917Z" fill="white"/>
<path d="M59.7268 50.9715V58.7893H57.8423V50.9715H54.1294V49.2577H63.4547V50.9715H59.7268Z" fill="white"/>
<path d="M74.0276 50.917H68.7296V52.9734H73.7751C74.2851 52.9734 74.6873 53.0367 74.9808 53.1632C75.2742 53.2897 75.4838 53.5135 75.6086 53.8357C75.7333 54.1578 75.7972 54.6211 75.7972 55.2283V56.5363C75.7972 57.1436 75.7343 57.6078 75.6086 57.93C75.4838 58.2521 75.2742 58.476 74.9808 58.6015C74.6873 58.728 74.2851 58.7913 73.7751 58.7913H68.7756C68.2655 58.7913 67.8633 58.728 67.5698 58.6015C67.2764 58.476 67.0668 58.2521 66.942 57.93C66.8173 57.6078 66.7544 57.1446 66.7544 56.5363V56.2736L68.4162 55.8677V56.9947H74.1354V54.8215H69.09C68.5749 54.8215 68.1717 54.7573 67.8842 54.6269C67.5958 54.4975 67.3902 54.2717 67.2674 53.9505C67.1457 53.6284 67.0838 53.1681 67.0838 52.5656V51.5107C67.0838 50.9034 67.1447 50.4392 67.2674 50.118C67.3892 49.7959 67.5968 49.572 67.8872 49.4455C68.1777 49.32 68.5789 49.2557 69.089 49.2557H73.6832C74.1833 49.2557 74.5745 49.3151 74.859 49.4348C75.1425 49.5545 75.3511 49.7647 75.4868 50.0645C75.6226 50.3642 75.6894 50.7895 75.6894 51.3413V51.5389L74.0276 52.0012V50.917Z" fill="white"/>
<path d="M62.0633 33.3583H48.3733L45.6804 28.7103L62.0633 33.3583Z" fill="#CBCBCB"/>
</svg>
