<svg width="40" height="39" viewBox="0 0 40 39" fill="none" xmlns="http://www.w3.org/2000/svg">
<path d="M20 39C23.9556 39 27.8224 37.8563 31.1114 35.7137C34.4004 33.571 36.9638 30.5255 38.4776 26.9623C39.9913 23.3992 40.3874 19.4784 39.6157 15.6957C38.844 11.9131 36.9392 8.43855 34.1421 5.71142C31.3451 2.9843 27.7814 1.1271 23.9018 0.374694C20.0222 -0.377717 16.0008 0.00844504 12.3463 1.48436C8.69181 2.96027 5.56823 5.45963 3.37061 8.66638C1.17298 11.8731 -1.02096e-06 15.6433 -8.52372e-07 19.5C0.00573451 24.67 2.11471 29.6267 5.8642 33.2824C9.61368 36.9382 14.6974 38.9944 20 39ZM17.6433 13.9523C18.2684 13.343 19.1161 13.0007 20 13.0007C20.8839 13.0007 21.7316 13.343 22.3567 13.9523L30.145 21.5459L27.7883 23.8436L20 16.25L12.1467 23.9054L9.79 21.6125L17.6433 13.9523Z" fill="white"/>
</svg>
