<svg width="50" height="41" viewBox="0 0 50 41" fill="none" xmlns="http://www.w3.org/2000/svg">
<path fill-rule="evenodd" clip-rule="evenodd" d="M4.14332 17.5251C17.1159 11.8096 25.7665 8.04151 30.0946 6.22112C42.4528 1.02327 45.0207 0.120284 46.6944 0.0904007C47.0625 0.0838968 47.8856 0.176183 48.4187 0.613702C49.2097 1.26269 49.2142 2.6714 49.1264 3.60374C48.4566 10.7194 45.5589 27.9869 44.0847 35.9565C43.4608 39.3286 42.2325 40.4594 41.0436 40.57C38.4594 40.8105 36.4971 38.843 33.9941 37.1839C30.0776 34.5877 27.8649 32.9715 24.0632 30.4382C19.6696 27.5103 22.5178 25.9012 25.0216 23.2714C25.677 22.5832 37.0629 12.1103 37.2833 11.1602C37.3109 11.0414 37.3365 10.5984 37.0763 10.3646C36.8161 10.1309 36.4321 10.2107 36.155 10.2743C35.7621 10.3645 29.5054 14.5465 17.3847 22.8201C15.6087 24.0534 14.0001 24.6543 12.5589 24.6228C10.9699 24.5882 7.91365 23.7143 5.64154 22.9675C2.85473 22.0515 0.639813 21.567 0.832762 20.0113C0.933235 19.2008 2.0367 18.3722 4.14332 17.5251Z" fill="white"/>
</svg>
