<svg xmlns="http://www.w3.org/2000/svg" viewBox="0 0 1000 1000"><defs><style>.cls-1{fill:#fff;}.cls-2{fill:#2dc0f1;}.cls-3,.cls-4{opacity:0.2;}</style></defs><title>m1khan icons two FINAL 1Artboard 1 copy 11</title><g id="background"><circle class="cls-1" cx="500" cy="500" r="423.5"/></g><g id="color"><path class="cls-2" d="M543.33,421.08a182.29,182.29,0,0,1,10.93,178.83C523.45,663,460.73,702.19,390.56,702.19a183.58,183.58,0,0,1-23.69-1.53,7.48,7.48,0,0,0-4.7.92l-96.58,55.2V655.72a7.46,7.46,0,0,0-2.26-5.36,180.74,180.74,0,0,1-54.82-130.23c0-100.39,81.66-182.07,182.05-182.07a181.67,181.67,0,0,1,152.77,83Z"/><g class="cls-3"><path class="cls-1" d="M360.11,371.9a250.55,250.55,0,0,0-35.5,15.93,196.28,196.28,0,0,0-58.07,48.79,251.83,251.83,0,0,0-21.87,32.18A114.2,114.2,0,0,1,260.14,432a133.64,133.64,0,0,1,61.08-51.27A113.94,113.94,0,0,1,360.11,371.9Z"/></g><path class="cls-2" d="M761.34,520.2h0A181.11,181.11,0,0,1,747,539.13a7.47,7.47,0,0,0-1.81,4.43l-7.17,111-30.2-20-54.14-35.75a7.44,7.44,0,0,0-4.13-1.24,7.17,7.17,0,0,0-1.59.17,183.35,183.35,0,0,1-76.33.21c.38-.89.76-1.78,1.13-2.67.27-.65.54-1.31.8-2q1.4-3.48,2.66-7c.21-.59.42-1.18.62-1.77.41-1.15.8-2.31,1.18-3.48.14-.44.29-.89.43-1.34.5-1.55,1-3.12,1.43-4.69.19-.64.37-1.29.55-1.94q.81-2.91,1.54-5.85,1-4.23,1.89-8.52c.16-.8.31-1.61.46-2.42s.3-1.64.44-2.47c.11-.64.22-1.28.32-1.92s.19-1.14.27-1.71l0-.19c.12-.78.23-1.56.34-2.34.24-1.74.47-3.5.66-5.26.1-.89.2-1.78.28-2.66.07-.7.14-1.41.2-2.12,0-.45.08-.9.11-1.35.06-.71.11-1.41.16-2.12s.1-1.49.14-2.23c0-.37.05-.73.06-1.1,0-.76.08-1.52.11-2.29,0-.94.08-1.88.1-2.82,0-.65,0-1.31,0-2,0-1.23,0-2.46,0-3.69q0-3.15-.1-6.27,0-1.47-.12-2.94c0-.95-.09-1.91-.15-2.86,0-.52-.06-1-.1-1.56q-.18-2.73-.45-5.43c-.05-.56-.11-1.12-.17-1.68s-.09-.84-.14-1.26c-.07-.66-.15-1.32-.23-2s-.16-1.31-.25-2-.17-1.31-.27-2-.19-1.31-.29-2c-.2-1.36-.43-2.71-.66-4.06-.1-.59-.21-1.18-.32-1.77a196.22,196.22,0,0,0-4.58-19.37c-.34-1.14-.68-2.28-1-3.42s-.79-2.47-1.2-3.7c-.18-.56-.37-1.13-.57-1.69s-.45-1.32-.69-2c-.13-.39-.27-.77-.41-1.16q-1.11-3.08-2.32-6.09c-.24-.6-.48-1.2-.73-1.8s-.49-1.19-.74-1.78c-.5-1.19-1-2.37-1.54-3.54-1-2.36-2.14-4.68-3.28-7-.28-.57-.57-1.15-.86-1.72s-.59-1.15-.88-1.72q-1.23-2.37-2.52-4.71c-.08-.13-.14-.25-.21-.37-.31-.56-.63-1.12-.95-1.68-.63-1.11-1.27-2.22-1.93-3.33s-1.29-2.14-1.95-3.21q-2.06-3.3-4.23-6.51c-.35-.54-.72-1.06-1.08-1.59-1.23-1.79-2.5-3.55-3.8-5.3-.57-.78-1.15-1.55-1.73-2.32l-2-2.61-.81-1q-3.48-4.35-7.2-8.49c-.66-.73-1.32-1.46-2-2.18l-.74-.79c-.65-.71-1.32-1.41-2-2.11-.47-.48-.92-.95-1.39-1.42s-1.12-1.14-1.69-1.7l-2.56-2.5-.32-.3c-.85-.82-1.72-1.63-2.59-2.43l-.1-.09q-2.7-2.49-5.51-4.87l-.49-.42c-.9-.76-1.81-1.52-2.73-2.27l-.23-.19q-1.38-1.12-2.79-2.22l-.34-.27-2.19-1.68-1-.75c-.88-.66-1.77-1.31-2.66-2s-2-1.41-3-2.1l-.9-.62c-.83-.57-1.67-1.13-2.51-1.69-1.08-.72-2.16-1.42-3.26-2.12s-2.15-1.35-3.24-2l-1.16-.7c-.74-.45-1.5-.89-2.25-1.33-1-.58-2-1.14-3-1.71q-5.67-3.15-11.59-5.95c-.94-.45-1.88-.89-2.83-1.32l-.1-.05c-1.06-.47-2.12-.95-3.19-1.4l-.64-.28c-1-.44-2.06-.88-3.1-1.3l-.59-.24c-1.1-.44-2.21-.88-3.32-1.3s-2.23-.84-3.35-1.25c-1.37-.5-2.76-1-4.15-1.45-1.15-.39-2.31-.77-3.47-1.13l-.33-.11c2.35-4.27,4.9-8.49,7.62-12.61A182.06,182.06,0,1,1,761.34,520.2Z"/><path class="cls-4" d="M761.34,520.2h0A181.11,181.11,0,0,1,747,539.13a7.47,7.47,0,0,0-1.81,4.43l-7.17,111-30.2-20L713.67,544a189.2,189.2,0,0,0,14.92-19.7c57.7-87.35,33.65-205-53.71-262.64A189.66,189.66,0,0,0,626,238.61,182,182,0,0,1,761.34,520.2Z"/></g><g id="shadow"><path class="cls-4" d="M543.33,421.08a182.29,182.29,0,0,1,10.93,178.83C523.45,663,460.73,702.19,390.56,702.19a183.58,183.58,0,0,1-23.69-1.53,7.48,7.48,0,0,0-4.7.92l-96.58,55.2V710.94l73.22-41.84a191.21,191.21,0,0,0,24.67,1.59C468.17,670.69,553,585.82,553,481.13A189.29,189.29,0,0,0,543.33,421.08Z"/></g><g id="Layer_2" data-name="Layer 2"><path class="cls-1" d="M303.31,534a15,15,0,0,1-5.51-1.1,13.21,13.21,0,0,1-2.48-1.34,13.34,13.34,0,0,1-2.18-1.78,15.26,15.26,0,0,1-1.81-2.19,15.79,15.79,0,0,1-1.32-2.47,15.34,15.34,0,0,1-.8-2.69,13.86,13.86,0,0,1,0-5.64,15.34,15.34,0,0,1,.8-2.69,15.79,15.79,0,0,1,1.32-2.47,13.78,13.78,0,0,1,1.81-2.19,14.59,14.59,0,0,1,2.18-1.8,15.14,15.14,0,0,1,2.48-1.33,14.72,14.72,0,0,1,2.7-.8,14,14,0,0,1,5.62,0,14.85,14.85,0,0,1,2.69.8,14.65,14.65,0,0,1,2.47,1.33,14.18,14.18,0,0,1,2.19,1.8,13.21,13.21,0,0,1,1.8,2.19,15,15,0,0,1,1.33,2.47,15.34,15.34,0,0,1,.8,2.69,13.86,13.86,0,0,1,0,5.64,15.34,15.34,0,0,1-.8,2.69,15,15,0,0,1-1.33,2.47,14.44,14.44,0,0,1-12,6.41Z"/><path class="cls-1" d="M388.26,534a13.86,13.86,0,0,1-2.8-.29,14.1,14.1,0,0,1-2.71-.81,12.82,12.82,0,0,1-2.47-1.34,13,13,0,0,1-2.19-1.78,14.56,14.56,0,0,1-1.8-2.19,15,15,0,0,1-1.33-2.47,15.34,15.34,0,0,1-.8-2.69,13.86,13.86,0,0,1,0-5.64,15.34,15.34,0,0,1,.8-2.69,15,15,0,0,1,1.33-2.47,13.21,13.21,0,0,1,1.8-2.19,14.18,14.18,0,0,1,2.19-1.8,14.65,14.65,0,0,1,2.47-1.33,14.82,14.82,0,0,1,2.71-.8,14,14,0,0,1,5.62,0,15,15,0,0,1,2.68.8,15.14,15.14,0,0,1,2.48,1.33,14.59,14.59,0,0,1,2.18,1.8,13.78,13.78,0,0,1,1.81,2.19,15,15,0,0,1,1.32,2.47,15.38,15.38,0,0,1,.81,2.69,14.34,14.34,0,0,1,0,5.64,15.38,15.38,0,0,1-.81,2.69,15,15,0,0,1-1.32,2.47,15.26,15.26,0,0,1-1.81,2.19A14.43,14.43,0,0,1,388.26,534Z"/><path class="cls-1" d="M473.21,534a13.86,13.86,0,0,1-2.8-.29,14.31,14.31,0,0,1-2.71-.81,15.21,15.21,0,0,1-4.66-3.12,15.2,15.2,0,0,1-1.8-2.19,15,15,0,0,1-1.33-2.47,15.34,15.34,0,0,1-.8-2.69,13.86,13.86,0,0,1,0-5.64,15.34,15.34,0,0,1,.8-2.69,15,15,0,0,1,1.33-2.47,13.73,13.73,0,0,1,1.8-2.19,14.18,14.18,0,0,1,2.19-1.8,13.63,13.63,0,0,1,5.18-2.13,14,14,0,0,1,5.62,0,15,15,0,0,1,2.68.8,14.74,14.74,0,0,1,2.48,1.33,14.59,14.59,0,0,1,2.18,1.8,13.26,13.26,0,0,1,1.81,2.19,14.28,14.28,0,0,1,1.32,2.47,15.38,15.38,0,0,1,.81,2.69,13.86,13.86,0,0,1,0,5.64,15.38,15.38,0,0,1-.81,2.69,14.28,14.28,0,0,1-1.32,2.47,14.63,14.63,0,0,1-1.81,2.19A14.43,14.43,0,0,1,473.21,534Z"/></g></svg>