<?xml version="1.0" encoding="utf-8"?>
<!-- Generator: Adobe Illustrator 23.1.0, SVG Export Plug-In . SVG Version: 6.00 Build 0)  -->
<svg version="1.1" id="Layer_1" xmlns="http://www.w3.org/2000/svg" xmlns:xlink="http://www.w3.org/1999/xlink" x="0px" y="0px"
	 viewBox="0 0 172.1 171.7" style="enable-background:new 0 0 172.1 171.7;" xml:space="preserve">
<style type="text/css">
	.st0{clip-path:url(#SVGID_2_);}
	.st1{fill:#5865F2;}
	.st2{fill:#FFFFFF;}
	.st3{fill:none;}
</style>
<g>
	<g>
		<defs>
			<rect id="SVGID_1_" x="0.4" y="0.4" width="172" height="172"/>
		</defs>
		<clipPath id="SVGID_2_">
			<use xlink:href="#SVGID_1_"  style="overflow:visible;"/>
		</clipPath>
		<g class="st0">
			<path class="st1" d="M0.4,86.2c0-47.4,38.4-85.8,85.8-85.8S172,38.8,172,86.2S133.6,172,86.2,172l0,0
				C38.8,171.9,0.4,133.5,0.4,86.2L0.4,86.2z"/>
			<path class="st2" d="M124.8,51.3c-7.3-3.3-14.9-5.7-22.8-7c-1,1.8-2.1,4.1-2.9,6c-8.4-1.3-16.9-1.3-25.3,0c-0.9-2.1-1.9-4.1-3-6
				C62.9,45.6,55.2,48,48,51.4c-14.4,21.5-18.3,42.4-16.4,63.1c8.5,6.3,17.9,11.1,28,14.1c2.3-3.1,4.3-6.3,6-9.7
				c-3.3-1.2-6.4-2.7-9.4-4.5c0.8-0.6,1.5-1.2,2.3-1.8c17.7,8.4,38.3,8.4,56,0c0.8,0.6,1.5,1.2,2.3,1.8c-3,1.8-6.2,3.3-9.5,4.5
				c1.7,3.4,3.7,6.6,6,9.7c10.1-3.1,19.6-7.8,28-14.1C143.5,90.5,137.3,69.7,124.8,51.3z M68,101.7c-5.5,0-9.9-5-9.9-11.1
				s4.4-11.2,9.9-11.2c5.6,0,10,5,10,11.2C77.9,96.7,73.6,101.7,68,101.7z M104.8,101.7c-5.5,0-9.9-5-9.9-11.1s4.4-11.2,9.9-11.2
				c5.6,0,10,5,9.9,11.2S110.3,101.7,104.8,101.7z"/>
		</g>
	</g>
</g>
<rect x="-13.6" y="-13.6" class="st3" width="200" height="200"/>
</svg>
