<svg width="95" height="91" viewBox="0 0 95 91" fill="none" xmlns="http://www.w3.org/2000/svg">
<path d="M34.3236 62.8345L44.2764 48.2682C54.34 33.505 64.4076 18.7788 74.4794 4.08942C77.4689 -0.253406 81.455 -0.831629 85.7732 2.07179C87.3849 3.16673 89.0211 4.20015 90.6081 5.31969C94.5696 8.12469 95.3816 12.2338 92.6381 16.2567C81.8856 32.0533 71.1085 47.8376 60.3068 63.6096C55.0494 71.2782 49.8249 78.9509 44.6332 86.6278C41.5822 91.1552 37.633 92.0286 33.1426 88.8669C23.5219 82.1004 13.9545 75.256 4.4405 68.3338C0.171491 65.2458 -0.332918 61.2598 2.74274 56.9784C3.973 55.3053 5.11715 53.6075 6.35972 51.959C8.91866 48.588 12.7694 47.7392 16.3248 50.0767C20.4708 52.8078 24.4569 55.7974 28.5168 58.6885L34.3236 62.8345Z" fill="white"/>
</svg>
