<svg width="30" height="36" viewBox="0 0 30 36" fill="none" xmlns="http://www.w3.org/2000/svg">
<path d="M27.4298 26.9999H21.1771C20.7992 26.9999 20.6052 26.7509 20.5392 26.6439C20.4725 26.537 20.3371 26.2521 20.5062 25.9144L29.6761 7.57466C29.8878 7.15208 29.9999 6.67747 29.9999 6.20287C29.9999 4.37622 28.6236 3 26.9325 3C25.7628 3 24.711 3.64969 24.1881 4.69558L19.4984 14.0757C18.6993 12.6145 17.0412 11.7949 15.3918 12.0461H15.3911L7.41872 13.2729C6.21898 13.4575 5.17822 14.2163 4.63555 15.3025L0.63499 23.3019C0.219726 24.1339 0 25.0648 0 25.9935C0 28.2882 1.27441 30.3514 3.32669 31.3768L10.3777 34.902C11.8132 35.6205 13.4216 35.9999 15.0278 35.9999C16.081 35.9999 17.1247 35.8402 18.1296 35.526L28.7233 32.2155C28.9182 32.1546 29.0793 32.0177 29.1709 31.8354L29.729 30.7198C29.9063 30.3639 30 29.9662 30 29.57C29.9999 28.1527 28.8471 26.9999 27.4298 26.9999Z" fill="white"/>
<path d="M0.749822 9.03295C0.811345 9.03295 0.873571 9.02564 0.935094 9.00953L6.93505 7.47659C7.18114 7.41359 7.37816 7.2312 7.46021 6.99101C7.5415 6.75075 7.49607 6.4856 7.33935 6.28641L6.72411 5.5044C9.16972 3.88588 12.0519 3.00001 14.9998 3.00001C17.167 3.00001 19.2448 3.44734 21.1876 4.33088C21.5544 4.49767 21.9838 4.36238 22.1678 4.00393L22.8521 2.67046C23.0464 2.29176 22.8918 1.81265 22.5052 1.63462C20.1495 0.54949 17.6288 0 14.9998 0C11.3733 0 7.82528 1.10889 4.84537 3.14493C4.8382 3.1495 3.94284 3.79025 3.53967 4.12353L3.54094 4.12508C2.23686 5.20255 1.09217 6.45263 0.131003 7.85958C-0.0454805 8.11741 -0.0433008 8.45723 0.135433 8.71282C0.278167 8.91651 0.508861 9.03295 0.749822 9.03295Z" fill="white"/>
</svg>
