<svg width="59" height="67" viewBox="0 0 59 67" fill="none" xmlns="http://www.w3.org/2000/svg">
<g clip-path="url(#clip0_5901_14695)">
<path d="M2.50761 49.5102C2.96893 49.9603 5.33238 51.8146 6.56433 52.7524C7.7952 53.6912 20.1306 63.3946 20.9447 64.0323C21.7579 64.67 23.5941 66.1755 23.9135 66.3844C24.2319 66.5932 25.0349 66.9998 25.7821 66.3073C26.5294 65.6149 28.9781 61.6792 30.2089 54.2336C30.5314 52.2688 30.502 47.2564 30.4442 45.4974C30.3854 43.7384 30.9126 34.8552 33.3754 34.0938C33.3754 34.0938 35.3982 35.5588 39.826 34.035C39.826 34.035 44.4069 36.1093 48.6501 35.1198C48.6501 35.1198 49.4562 36.1164 50.0139 36.7176C50.5705 37.3178 51.0835 37.8166 52.6967 37.2012C53.4582 36.9082 54.25 36.5281 54.25 36.5281C54.25 36.5281 56.068 37.2448 57.2553 36.0718C58.4426 34.8998 57.9295 32.4078 57.8708 32.129C57.8119 31.8512 58.5176 31.1294 58.0309 30.0294C57.5443 28.9304 55.8622 28.4062 55.8622 28.4062C53.9864 27.0578 53.2828 26.5885 51.0835 24.0964C48.8854 21.6055 46.598 20.0219 46.598 20.0219C46.598 20.0219 45.0193 18.0418 42.1702 16.0943C39.7966 14.4721 36.5419 12.8713 32.5835 12.4587C32.5835 12.4587 34.1156 10.0103 33.632 6.36047C33.632 6.36047 32.98 7.72407 30.9866 9.41006C28.9922 11.0951 28.391 12.1799 28.2014 12.854C28.2014 12.854 26.1563 12.6929 22.9898 16.1886C19.8234 19.6853 16.5474 25.4742 13.2339 31.25C10.3057 36.3557 7.94932 40.4982 6.06445 43.4768C5.81805 43.8672 5.57878 44.2382 5.34763 44.588C4.70274 45.615 3.25082 46.9776 2.67896 47.4612C2.10813 47.9448 1.71573 48.696 2.50761 49.5102Z" fill="#572601"/>
<path d="M0.609257 41.9206C0.609257 41.9206 0.711689 43.6035 3.20387 43.8266C4.39116 43.933 5.36657 43.7242 6.06111 43.4768C7.94597 40.4982 10.3023 36.3556 13.2305 31.25C16.544 25.4742 19.82 19.6852 22.9865 16.1885C26.153 12.6928 28.198 12.854 28.198 12.854C28.3877 12.1798 28.9889 11.095 30.9833 9.41002C32.9766 7.72403 33.6286 6.36043 33.6286 6.36043C34.1123 10.0102 32.5802 12.4586 32.5802 12.4586C36.5385 12.8713 39.7932 14.4721 42.1668 16.0942C42.3483 15.5751 43.1331 14.5775 46.4922 14.4376C46.4922 14.4376 44.9085 11.755 40.2029 12.8246C40.2029 12.8246 41.8961 11.3515 41.303 8.42763C41.303 8.42763 40.1157 10.8243 38.246 10.8902C38.246 10.8902 40.1157 7.19685 37.7411 5.21784C36.6197 4.31653 34.8818 3.79543 32.6096 3.38483C30.3374 2.97524 27.5522 1.17162 26.8779 0.703247C26.8779 0.703247 26.2918 2.97524 28.7841 5.24725C28.7841 5.24725 25.8123 4.76667 24.1961 6.55914C23.2065 7.63582 22.9642 9.03187 22.3264 9.66957C21.6887 10.3073 20.1718 11.1984 16.467 9.78009C16.467 9.78009 16.25 12.1778 19.0028 13.513C18.9075 13.4958 16.54 13.0842 14.2566 14.98C11.9256 16.9144 9.52874 22.675 8.51784 23.8622C7.50595 25.0494 6.79521 26.193 5.21245 26.339C5.21245 26.339 5.9161 28.2592 10.4159 27.2332C10.4159 27.2332 7.51406 30.2676 5.21245 34.108C2.91088 37.9484 3.13089 39.7956 0.609257 41.9206Z" fill="#3E2E24"/>
<path d="M42.1944 34.8369C43.0167 35.0528 43.9993 35.2506 45.0547 35.3388C46.4012 33.4905 51.047 26.4272 51.9453 25.0595C51.6827 24.7746 51.3958 24.4563 51.0774 24.0964C50.7763 23.7547 50.4731 23.4303 50.173 23.1251C49.6873 23.8642 48.4128 25.8027 46.9832 27.9398C46.6638 28.4173 46.3363 28.905 46.0078 29.3906C44.5407 31.5643 43.0593 33.7115 42.1944 34.8369Z" fill="#4C2925"/>
<path d="M22.7646 16.445L46.0168 29.3906C46.3453 28.9049 46.6728 28.4173 46.9922 27.9398L24.0127 15.1462C23.6882 15.4514 23.3476 15.7971 22.9927 16.1885C22.943 16.2432 22.8934 16.298 22.8446 16.3537C22.8173 16.3841 22.7909 16.4145 22.7646 16.445Z" fill="#4A5160"/>
<path d="M39.9194 21.543C39.1543 21.543 38.5341 20.9229 38.5341 20.1579C38.5341 19.3929 39.1543 18.7727 39.9194 18.7727C40.6845 18.7727 41.3047 19.3929 41.3047 20.1579C41.3047 20.9229 40.6845 21.543 39.9194 21.543Z" fill="#3F4554"/>
<path d="M42.1138 22.1105C42.2067 22.1105 42.3013 22.0954 42.3942 22.0636C42.8446 21.9095 43.0839 21.4173 42.9298 20.967C42.9001 20.8801 42.1798 18.8345 40.2577 18.4042C38.4067 17.9899 36.8958 19.1553 36.8324 19.2052C36.4581 19.4992 36.3931 20.041 36.6872 20.4151C36.9812 20.7894 37.5231 20.8544 37.8973 20.5604C37.902 20.5569 38.8401 19.8529 39.8812 20.0861C40.8545 20.3039 41.2963 21.5173 41.3006 21.5295C41.4229 21.887 41.7563 22.1105 42.1138 22.1105Z" fill="#75482A"/>
<path d="M36.4612 34.7366C39.4108 34.7366 41.9139 33.1723 42.0621 33.0779C42.4635 32.8221 42.5816 32.2895 42.3258 31.8881C42.07 31.4866 41.5373 31.3686 41.1359 31.6244C41.0944 31.6507 36.8169 34.3054 33.488 32.175C30.0311 29.9628 29.2031 23.6241 29.1951 23.5603C29.1362 23.0882 28.7059 22.7526 28.2337 22.8115C27.7616 22.8701 27.4262 23.2998 27.4845 23.772C27.5206 24.0648 28.4173 30.9763 32.5589 33.6266C33.8409 34.4471 35.1924 34.7366 36.4612 34.7366Z" fill="#75482A"/>
<path d="M17.4535 32.3169C17.6059 32.3169 17.7601 32.2766 17.8998 32.1918C24.165 28.3905 25.8406 22.2595 25.9089 22.0004C26.0301 21.5402 25.7553 21.0688 25.295 20.9475C24.8353 20.8259 24.3643 21.1004 24.2424 21.5599C24.2272 21.6167 22.6555 27.2903 17.0056 30.7183C16.5987 30.9653 16.469 31.4953 16.7159 31.9021C16.8781 32.1693 17.1623 32.3169 17.4535 32.3169Z" fill="#75482A"/>
<path d="M22.9382 43.0598C23.2397 41.3638 24.1223 39.2271 24.9758 37.1609C25.5229 35.8365 26.0397 34.5854 26.3971 33.4822C27.2112 30.9688 26.6302 29.3072 26.6164 29.2688C26.4485 28.8267 26.6687 28.3312 27.1103 28.1598C27.554 27.9876 28.0534 28.2077 28.2257 28.6514C28.2601 28.7401 29.0578 30.8618 28.0368 34.0132C27.6586 35.1808 27.1047 36.5219 26.5689 37.8189C25.7505 39.8003 24.9041 41.8493 24.6353 43.3615C24.3239 45.1127 24.6396 46.0958 24.777 46.4167C24.8531 46.5945 24.9027 46.7828 24.9146 46.9759C24.9313 47.246 24.8815 47.5531 24.626 47.7288C24.4061 47.88 24.1622 47.8682 23.9526 47.803C23.6281 47.7021 23.3708 47.4553 23.2297 47.1462C22.9549 46.5441 22.5547 45.217 22.9382 43.0598Z" fill="#75482A"/>
<path opacity="0.25" d="M29.8318 13.8657C34.5597 14.4588 37.5903 16.1671 39.5248 17.5956C41.4604 19.0251 44.2305 21.5313 44.8023 22.0149C45.3742 22.4995 49.3315 25.8634 50.3911 27.4288C51.4496 28.9941 53.8688 30.2827 54.1324 30.3557C54.397 30.4287 55.0855 30.6193 55.4668 31.4841C55.848 32.3489 55.0267 33.3901 55.0267 33.3901C55.6604 35.2748 54.906 36.6962 54.906 36.6962C55.5438 36.7996 56.5202 36.7976 57.2553 36.0717C58.4426 34.8997 57.9295 32.4077 57.8708 32.1289C57.8119 31.8511 58.5176 31.1293 58.0309 30.0293C57.5443 28.9303 55.8622 28.4061 55.8622 28.4061C53.9864 27.0577 53.2828 26.5883 51.0835 24.0963C48.8854 21.6053 46.598 20.0217 46.598 20.0217C46.598 20.0217 45.0193 18.0417 42.1702 16.0941C39.7966 14.472 36.5419 12.8712 32.5835 12.4585C32.5835 12.4585 34.1156 10.0101 33.632 6.36035C33.632 6.36035 32.98 7.72395 30.9866 9.40994C30.943 9.44645 30.9005 9.48294 30.8589 9.51843C31.0728 11.5806 29.8318 13.8657 29.8318 13.8657Z" fill="#231F20"/>
<path opacity="0.25" d="M32.2344 35.1852C32.2344 35.1852 30.6776 34.5151 29.4231 36.8327C28.1685 39.1503 27.6847 42.5656 27.7141 48.1355C27.7434 53.7055 27.6261 56.4465 26.3068 60.7999C24.9875 65.1532 23.7814 66.2921 23.7814 66.2921C23.7814 66.2921 24.994 67.3066 25.8923 66.1914C26.7905 65.0763 27.9418 63.0117 28.8321 60.0442C29.7223 57.0768 30.3641 54.796 30.4208 51.5427C30.4774 48.2894 30.3973 45.8472 30.4424 44.7727C30.4876 43.6981 30.7958 37.8674 32.2344 35.1852Z" fill="#231F20"/>
<path d="M56.036 33.0352C56.3691 33.0352 56.6863 32.8409 56.8272 32.5159C57.0164 32.0792 56.8158 31.5718 56.3791 31.3826C55.7803 31.1231 56.0398 30.1653 56.0511 30.1246C56.1858 29.6681 55.924 29.1918 55.4674 29.0572C55.0109 28.9228 54.5308 29.1864 54.3962 29.6429C54.1466 30.489 54.0967 32.2719 55.6937 32.9639C55.8053 33.0123 55.9216 33.0352 56.036 33.0352Z" fill="#75482A"/>
</g>
<defs>
<clipPath id="clip0_5901_14695">
<rect width="59" height="67" fill="white" transform="matrix(-1 0 0 1 59 0)"/>
</clipPath>
</defs>
</svg>
