<svg width="178" height="478" viewBox="0 0 178 478" fill="none" xmlns="http://www.w3.org/2000/svg">
<g clip-path="url(#clip0_6153_50772)">
<path d="M89.2703 461.325C109.953 461.325 128.914 453.491 143.692 440.484L143.692 470.536L143.692 473.036L146.192 473.036L172.418 473.036L174.918 473.036L174.918 470.536L174.918 95.5188C174.918 70.3032 165.368 47.4448 149.893 30.881C134.415 14.3078 112.977 4.01718 89.2703 4.01718C41.8086 4.01718 3.61719 45.1472 3.61719 95.5188L3.61719 369.83C3.61719 395.04 13.1668 417.898 28.6478 434.468C44.1259 451.034 65.5639 461.325 89.2703 461.325Z" fill="#006E2B" stroke="#203327" stroke-width="5"/>
<path d="M27.8672 94.233L27.8672 371.354C27.8672 407.746 55.4307 437.249 89.432 437.249L89.4321 437.249C123.433 437.249 150.997 407.746 150.997 371.354L150.997 94.233C150.997 57.8402 123.433 28.338 89.432 28.338C55.4307 28.338 27.8672 57.8402 27.8672 94.233Z" fill="#318B43"/>
<path d="M45.5156 92.3036L45.5156 372.061C45.5156 397.886 65.0753 418.822 89.2034 418.822L89.2035 418.822C113.332 418.822 132.891 397.886 132.891 372.061L132.891 92.3036C132.891 66.4784 113.332 45.543 89.2034 45.543C65.0753 45.543 45.5156 66.4784 45.5156 92.3036Z" fill="#51AD42"/>
<path d="M61.3828 90.4381L61.3828 372.643C61.3828 388.353 73.2819 401.089 87.9601 401.089L90.5702 401.089C105.248 401.089 117.147 388.353 117.147 372.643L117.147 90.4381C117.147 74.7275 105.248 61.9915 90.5702 61.9915L87.9601 61.9915C73.2819 61.9915 61.3828 74.7275 61.3828 90.4381Z" fill="#DCEBC0"/>
<g clip-path="url(#clip1_6153_50772)">
<path d="M76.3523 372.591C76.5804 372.793 77.749 373.624 78.3581 374.044C78.9667 374.465 85.0659 378.813 85.4684 379.099C85.8705 379.384 86.7784 380.059 86.9363 380.152C87.0937 380.246 87.4908 380.428 87.8603 380.118C88.2297 379.808 89.4405 378.044 90.0491 374.708C90.2085 373.827 90.1939 371.581 90.1654 370.793C90.1363 370.005 90.397 366.025 91.6147 365.683C91.6147 365.683 92.6149 366.34 94.8042 365.657C94.8042 365.657 97.0692 366.587 99.1672 366.143C99.1672 366.143 99.5658 366.59 99.8415 366.859C100.117 367.128 100.37 367.352 101.168 367.076C101.545 366.944 101.936 366.774 101.936 366.774C101.936 366.774 102.835 367.095 103.422 366.57C104.009 366.045 103.755 364.928 103.726 364.803C103.697 364.679 104.046 364.355 103.805 363.862C103.565 363.37 102.733 363.135 102.733 363.135C101.806 362.531 101.458 362.32 100.37 361.204C99.2835 360.087 98.1525 359.378 98.1525 359.378C98.1525 359.378 97.372 358.491 95.9632 357.618C94.7896 356.891 93.1803 356.174 91.2232 355.989C91.2232 355.989 91.9807 354.892 91.7415 353.256C91.7415 353.256 91.4192 353.867 90.4336 354.623C89.4475 355.378 89.1502 355.864 89.0564 356.166C89.0564 356.166 88.0453 356.094 86.4796 357.66C84.914 359.227 83.2942 361.821 81.6558 364.409C80.208 366.697 79.0429 368.553 78.1109 369.888C77.9891 370.063 77.8708 370.229 77.7565 370.386C77.4377 370.846 76.7198 371.456 76.437 371.673C76.1548 371.89 75.9607 372.226 76.3523 372.591Z" fill="#B77442"/>
<path d="M75.415 369.19C75.415 369.19 75.4656 369.944 76.6979 370.044C77.2849 370.092 77.7672 369.998 78.1106 369.888C79.0426 368.553 80.2077 366.697 81.6555 364.409C83.2939 361.821 84.9137 359.227 86.4793 357.66C88.045 356.094 89.0561 356.166 89.0561 356.166C89.1499 355.864 89.4472 355.378 90.4333 354.623C91.4189 353.867 91.7412 353.256 91.7412 353.256C91.9804 354.892 91.2229 355.989 91.2229 355.989C93.18 356.174 94.7893 356.891 95.9629 357.618C96.0527 357.385 96.4407 356.938 98.1016 356.875C98.1016 356.875 97.3185 355.673 94.9918 356.153C94.9918 356.153 95.8291 355.493 95.5358 354.182C95.5358 354.182 94.9487 355.256 94.0243 355.286C94.0243 355.286 94.9487 353.631 93.7746 352.744C93.2202 352.34 92.3609 352.107 91.2374 351.923C90.1139 351.739 88.7368 350.931 88.4034 350.721C88.4034 350.721 88.1136 351.739 89.3459 352.757C89.3459 352.757 87.8765 352.542 87.0774 353.345C86.5881 353.828 86.4683 354.453 86.1529 354.739C85.8376 355.025 85.0876 355.424 83.2558 354.788C83.2558 354.788 83.1485 355.863 84.5096 356.461C84.4625 356.453 83.2919 356.269 82.1629 357.118C81.0103 357.985 79.8252 360.567 79.3254 361.098C78.825 361.63 78.4736 362.143 77.691 362.208C77.691 362.208 78.0389 363.069 80.2639 362.609C80.2639 362.609 78.829 363.969 77.691 365.69C76.553 367.41 76.6618 368.238 75.415 369.19Z" fill="#914613"/>
<path d="M95.9756 366.016C96.3822 366.113 96.868 366.201 97.3899 366.241C98.0556 365.413 100.353 362.248 100.797 361.635C100.667 361.507 100.525 361.365 100.368 361.203C100.219 361.05 100.069 360.905 99.9206 360.768C99.6804 361.099 99.0503 361.968 98.3434 362.925C98.1855 363.139 98.0235 363.358 97.8611 363.576C97.1357 364.55 96.4033 365.512 95.9756 366.016Z" fill="#4C2925"/>
<path d="M86.3645 357.775L97.8615 363.576C98.0239 363.358 98.1858 363.14 98.3438 362.926L86.9817 357.193C86.8212 357.33 86.6528 357.485 86.4773 357.66C86.4528 357.684 86.4282 357.709 86.4041 357.734C86.3906 357.748 86.3776 357.761 86.3645 357.775Z" fill="#4A5160"/>
<path d="M94.8541 360.059C94.4758 360.059 94.1692 359.781 94.1692 359.439C94.1692 359.096 94.4758 358.818 94.8541 358.818C95.2324 358.818 95.5391 359.096 95.5391 359.439C95.5391 359.781 95.2324 360.059 94.8541 360.059Z" fill="#3F4554"/>
<path d="M95.9328 360.313C95.9787 360.313 96.0255 360.307 96.0714 360.292C96.2941 360.223 96.4125 360.003 96.3363 359.801C96.3216 359.762 95.9654 358.845 95.0151 358.653C94.0998 358.467 93.3528 358.989 93.3214 359.012C93.1364 359.143 93.1042 359.386 93.2496 359.554C93.395 359.721 93.6629 359.751 93.848 359.619C93.8503 359.617 94.3141 359.302 94.8289 359.406C95.3101 359.504 95.5286 360.048 95.5307 360.053C95.5912 360.213 95.756 360.313 95.9328 360.313Z" fill="#75482A"/>
<path d="M93.1429 365.971C94.6013 365.971 95.8389 365.27 95.9122 365.228C96.1107 365.113 96.169 364.874 96.0426 364.695C95.9161 364.515 95.6527 364.462 95.4542 364.576C95.4337 364.588 93.3187 365.778 91.6728 364.823C89.9635 363.832 89.5541 360.992 89.5502 360.963C89.521 360.752 89.3083 360.601 89.0748 360.628C88.8414 360.654 88.6756 360.846 88.7044 361.058C88.7222 361.189 89.1656 364.286 91.2133 365.474C91.8473 365.841 92.5155 365.971 93.1429 365.971Z" fill="#75482A"/>
<path d="M83.7427 364.887C83.818 364.887 83.8942 364.869 83.9633 364.831C87.0611 363.127 87.8896 360.38 87.9233 360.264C87.9833 360.058 87.8474 359.847 87.6198 359.792C87.3925 359.738 87.1597 359.861 87.0994 360.067C87.0919 360.092 86.3147 362.634 83.5212 364.17C83.32 364.281 83.2559 364.519 83.3779 364.701C83.4581 364.821 83.5986 364.887 83.7427 364.887Z" fill="#75482A"/>
<path d="M86.4573 369.701C86.6064 368.941 87.0428 367.983 87.4648 367.058C87.7353 366.464 87.9908 365.904 88.1676 365.409C88.5701 364.283 88.2828 363.538 88.276 363.521C88.193 363.323 88.3019 363.101 88.5202 363.024C88.7396 362.947 88.9865 363.046 89.0717 363.245C89.0887 363.284 89.4831 364.235 88.9783 365.647C88.7913 366.17 88.5174 366.771 88.2525 367.352C87.8478 368.24 87.4294 369.158 87.2964 369.836C87.1425 370.621 87.2986 371.061 87.3665 371.205C87.4041 371.285 87.4287 371.369 87.4346 371.456C87.4428 371.577 87.4182 371.714 87.2919 371.793C87.1831 371.861 87.0626 371.855 86.9589 371.826C86.7985 371.781 86.6712 371.67 86.6015 371.532C86.4656 371.262 86.2677 370.667 86.4573 369.701Z" fill="#75482A"/>
<path opacity="0.25" d="M89.8626 356.619C92.2003 356.885 93.6987 357.651 94.6552 358.291C95.6123 358.931 96.9819 360.054 97.2647 360.271C97.5474 360.488 99.5041 361.995 100.028 362.697C100.551 363.398 101.748 363.976 101.878 364.008C102.009 364.041 102.349 364.127 102.538 364.514C102.726 364.902 102.32 365.368 102.32 365.368C102.633 366.213 102.26 366.85 102.26 366.85C102.576 366.896 103.059 366.895 103.422 366.57C104.009 366.045 103.755 364.928 103.726 364.803C103.697 364.679 104.046 364.355 103.805 363.862C103.565 363.37 102.733 363.135 102.733 363.135C101.806 362.531 101.458 362.32 100.37 361.204C99.2835 360.087 98.1525 359.378 98.1525 359.378C98.1525 359.378 97.372 358.491 95.9632 357.618C94.7896 356.891 93.1803 356.174 91.2232 355.989C91.2232 355.989 91.9807 354.892 91.7416 353.256C91.7416 353.256 91.4192 353.867 90.4336 354.623C90.412 354.639 90.391 354.656 90.3704 354.671C90.4762 355.595 89.8626 356.619 89.8626 356.619Z" fill="#231F20"/>
<path opacity="0.25" d="M91.0469 366.173C91.0469 366.173 90.2772 365.872 89.6568 366.911C89.0365 367.949 88.7973 369.48 88.8118 371.976C88.8263 374.471 88.7683 375.7 88.116 377.65C87.4637 379.601 86.8674 380.111 86.8674 380.111C86.8674 380.111 87.4669 380.566 87.9111 380.066C88.3552 379.567 88.9244 378.641 89.3646 377.312C89.8048 375.982 90.1221 374.96 90.1501 373.502C90.1782 372.045 90.1385 370.95 90.1609 370.469C90.1832 369.987 90.3356 367.374 91.0469 366.173Z" fill="#231F20"/>
<path d="M102.816 365.209C102.98 365.209 103.137 365.122 103.207 364.976C103.301 364.78 103.201 364.553 102.985 364.468C102.689 364.352 102.818 363.923 102.823 363.905C102.89 363.7 102.76 363.487 102.535 363.426C102.309 363.366 102.072 363.484 102.005 363.689C101.882 364.068 101.857 364.867 102.647 365.177C102.702 365.199 102.759 365.209 102.816 365.209Z" fill="#75482A"/>
</g>
<path opacity="0.9" d="M79.6322 391.69L79.6322 392.781L76.3827 392.781L76.3827 391.69L79.6322 391.69ZM76.7264 384.96L76.7264 392.781L75.4213 392.781L75.4213 384.96L76.7264 384.96ZM80.3895 390.111L80.3895 389.644C80.3895 389.193 80.445 388.794 80.556 388.446C80.667 388.099 80.8246 387.809 81.0287 387.576C81.2364 387.34 81.4799 387.163 81.7592 387.044C82.0385 386.923 82.3464 386.862 82.683 386.862C83.0267 386.862 83.3383 386.923 83.6176 387.044C83.9004 387.163 84.1439 387.34 84.348 387.576C84.5557 387.809 84.715 388.099 84.826 388.446C84.9371 388.794 84.9926 389.193 84.9926 389.644L84.9926 390.111C84.9926 390.563 84.9371 390.962 84.826 391.309C84.715 391.656 84.5557 391.948 84.348 392.185C84.1439 392.417 83.9022 392.593 83.6229 392.711C83.3436 392.829 83.0339 392.888 82.6937 392.888C82.3571 392.888 82.0474 392.829 81.7645 392.711C81.4852 392.593 81.2417 392.417 81.0341 392.185C80.8264 391.948 80.667 391.656 80.556 391.309C80.445 390.962 80.3895 390.563 80.3895 390.111ZM81.641 389.644L81.641 390.111C81.641 390.401 81.6661 390.656 81.7162 390.874C81.7663 391.089 81.8379 391.268 81.931 391.411C82.0241 391.554 82.1351 391.662 82.264 391.733C82.3929 391.805 82.5362 391.841 82.6937 391.841C82.8692 391.841 83.0214 391.805 83.1503 391.733C83.2828 391.662 83.392 391.554 83.4779 391.411C83.5674 391.268 83.6337 391.089 83.6766 390.874C83.7196 390.656 83.7411 390.401 83.7411 390.111L83.7411 389.644C83.7411 389.358 83.716 389.107 83.6659 388.892C83.6158 388.674 83.5441 388.493 83.451 388.35C83.3579 388.203 83.2452 388.094 83.1127 388.022C82.9838 387.95 82.8405 387.915 82.683 387.915C82.529 387.915 82.3876 387.95 82.2587 388.022C82.1333 388.094 82.0241 388.203 81.931 388.35C81.8379 388.493 81.7663 388.674 81.7162 388.892C81.6661 389.107 81.641 389.358 81.641 389.644ZM87.3236 388.092L87.3236 392.781L86.0721 392.781L86.0721 386.969L87.2645 386.969L87.3236 388.092ZM88.7255 386.932L88.7201 388.167C88.6485 388.149 88.5715 388.138 88.4891 388.135C88.4104 388.128 88.3316 388.124 88.2528 388.124C88.0809 388.124 87.9323 388.154 87.807 388.215C87.6817 388.276 87.576 388.364 87.4901 388.479C87.4042 388.593 87.3361 388.731 87.286 388.892C87.2395 389.053 87.2108 389.236 87.2001 389.44L86.9315 389.451C86.9315 389.085 86.9602 388.747 87.0175 388.436C87.0747 388.12 87.1607 387.847 87.2753 387.614C87.3934 387.377 87.5402 387.193 87.7157 387.061C87.8912 386.928 88.0953 386.862 88.328 386.862C88.3925 386.862 88.4659 386.869 88.5482 386.883C88.6306 386.898 88.6897 386.914 88.7255 386.932ZM91.701 392.888C91.3251 392.888 90.9903 392.833 90.6967 392.722C90.403 392.607 90.1542 392.439 89.9501 392.217C89.746 391.991 89.5902 391.715 89.4828 391.39C89.3754 391.06 89.3217 390.679 89.3217 390.246L89.3217 389.687C89.3217 389.196 89.3772 388.774 89.4882 388.419C89.6027 388.061 89.7603 387.768 89.9608 387.539C90.1613 387.309 90.3977 387.139 90.6698 387.028C90.9455 386.917 91.2445 386.862 91.5668 386.862C91.932 386.862 92.2489 386.921 92.5175 387.039C92.786 387.157 93.0062 387.334 93.1781 387.571C93.3536 387.807 93.4825 388.099 93.5648 388.446C93.6508 388.794 93.6937 389.193 93.6937 389.644L93.6937 390.272L89.9232 390.272L89.9232 389.327L92.4584 389.327L92.4584 389.193C92.4512 388.928 92.419 388.701 92.3617 388.511C92.3044 388.317 92.2113 388.171 92.0824 388.07C91.9571 387.966 91.7834 387.915 91.5614 387.915C91.4003 387.915 91.257 387.945 91.1317 388.006C91.0064 388.067 90.9025 388.165 90.8202 388.301C90.7414 388.437 90.6805 388.62 90.6376 388.849C90.5946 389.075 90.5731 389.354 90.5731 389.687L90.5731 390.246C90.5731 390.536 90.5982 390.781 90.6483 390.981C90.702 391.182 90.7808 391.347 90.8846 391.476C90.9885 391.601 91.1138 391.694 91.2606 391.755C91.411 391.812 91.5847 391.841 91.7816 391.841C92.0717 391.841 92.3205 391.787 92.5282 391.68C92.7395 391.569 92.9221 391.425 93.076 391.25L93.6293 392.018C93.5254 392.158 93.3858 392.296 93.2103 392.432C93.0349 392.564 92.8218 392.673 92.5712 392.759C92.3241 392.845 92.0341 392.888 91.701 392.888ZM95.955 388.151L95.955 392.781L94.7035 392.781L94.7035 386.969L95.8798 386.969L95.955 388.151ZM95.7509 389.666L95.3265 389.666C95.3194 389.261 95.3552 388.889 95.434 388.548C95.5163 388.208 95.6381 387.911 95.7992 387.657C95.9639 387.403 96.1698 387.207 96.4169 387.071C96.6639 386.932 96.9522 386.862 97.2816 386.862C97.5 386.862 97.7006 386.901 97.8832 386.98C98.0694 387.055 98.2305 387.175 98.3666 387.34C98.5062 387.505 98.6136 387.716 98.6888 387.974C98.764 388.231 98.8016 388.543 98.8016 388.908L98.8016 392.781L97.5502 392.781L97.5502 389.026C97.5502 388.747 97.5179 388.529 97.4535 388.371C97.3926 388.21 97.3031 388.095 97.1849 388.027C97.0668 387.959 96.9235 387.925 96.7552 387.925C96.5726 387.925 96.4169 387.972 96.288 388.065C96.1591 388.154 96.0552 388.28 95.9764 388.441C95.8977 388.598 95.8404 388.783 95.8046 388.994C95.7688 389.202 95.7509 389.426 95.7509 389.666ZM98.7211 389.333L98.1356 389.467C98.1285 389.112 98.1643 388.779 98.243 388.468C98.3218 388.153 98.44 387.875 98.5975 387.635C98.7587 387.395 98.9592 387.207 99.1991 387.071C99.4426 386.932 99.7237 386.862 100.042 386.862C100.293 386.862 100.517 386.903 100.714 386.985C100.911 387.064 101.079 387.189 101.219 387.361C101.358 387.533 101.464 387.757 101.536 388.033C101.611 388.305 101.648 388.636 101.648 389.026L101.648 392.781L100.391 392.781L100.391 389.021C100.391 388.731 100.359 388.507 100.295 388.35C100.234 388.192 100.144 388.083 100.026 388.022C99.9081 387.958 99.7666 387.925 99.6019 387.925C99.4587 387.925 99.3316 387.963 99.2206 388.038C99.1132 388.11 99.0219 388.21 98.9467 388.339C98.8715 388.468 98.8142 388.618 98.7748 388.79C98.739 388.958 98.7211 389.139 98.7211 389.333Z" fill="#394122"/>
</g>
<defs>
<clipPath id="clip0_6153_50772">
<rect width="478" height="178" fill="white" transform="translate(0 478) rotate(-90)"/>
</clipPath>
<clipPath id="clip1_6153_50772">
<rect width="29.6667" height="30.4701" fill="white" transform="matrix(-1 -8.25278e-10 8.86639e-10 1 104.344 350.406)"/>
</clipPath>
</defs>
</svg>
