<svg width="187" height="502" viewBox="0 0 187 502" fill="none" xmlns="http://www.w3.org/2000/svg">
<g clip-path="url(#clip0_6049_13402)">
<path d="M183.631 496.661L181.131 496.661L153.579 496.661L151.079 496.661L151.079 494.161L151.079 462.321C135.545 476.073 115.573 484.363 93.7793 484.363C68.9124 484.363 46.4232 473.572 30.1843 456.197M183.631 496.661L30.1843 456.197M183.631 496.661L183.631 494.161L183.631 100.315C183.631 73.8648 173.611 49.8893 157.374 32.517C141.135 15.135 118.646 4.34451 93.7793 4.34451C43.9965 4.34451 3.92188 47.4745 3.92188 100.315L3.92188 388.399C3.92188 414.843 13.9423 438.818 30.1843 456.197M183.631 496.661L32.0108 454.49L30.1843 456.197" fill="#006E2B" stroke="#203327" stroke-width="5"/>
<path d="M29.2813 98.9644L29.2813 389.999C29.2813 428.219 58.2384 459.203 93.9589 459.203L93.959 459.203C129.679 459.203 158.637 428.219 158.637 389.999L158.637 98.9644C158.637 60.7444 129.679 29.7609 93.9589 29.7609C58.2384 29.7609 29.2813 60.7444 29.2813 98.9644Z" fill="#318B43"/>
<path d="M47.8203 96.938L47.8203 390.742C47.8203 417.864 68.369 439.85 93.717 439.85L93.7171 439.85C119.065 439.85 139.614 417.864 139.614 390.742L139.614 96.938C139.614 69.8162 119.065 47.8296 93.717 47.8296C68.369 47.8296 47.8203 69.8162 47.8203 96.938Z" fill="#51AD42"/>
<path d="M64.4922 94.9788L64.4922 391.353C64.4922 407.852 76.9929 421.228 92.4133 421.228L95.1553 421.228C110.576 421.228 123.076 407.852 123.076 391.353L123.076 94.9788C123.076 78.4793 110.576 65.1039 95.1553 65.1039L92.4133 65.1039C76.9929 65.1039 64.4922 78.4793 64.4922 94.9788Z" fill="#DCEBC0"/>
</g>
<defs>
<clipPath id="clip0_6049_13402">
<rect width="502" height="187" fill="white" transform="translate(0 502) rotate(-90)"/>
</clipPath>
</defs>
</svg>
