<svg width="823" height="328" viewBox="0 0 823 328" fill="none" xmlns="http://www.w3.org/2000/svg">
<path d="M7.85156 317.709V322.709H12.8516H658.54C702.239 322.709 741.803 304.994 770.427 276.372C799.062 247.751 816.779 208.179 816.779 164.494C816.779 77.109 745.931 6.26819 658.54 6.26819H186.242C142.553 6.26819 102.989 23.9841 74.355 52.6157C45.7311 81.2372 28.0136 120.809 28.0136 164.494C28.0136 202.364 41.3301 237.15 63.5323 264.383H12.8516H7.85156V269.383V317.709Z" fill="#006E2B" stroke="#203327" stroke-width="10"/>
<path d="M660.754 51.3531H183.619C120.96 51.3531 70.1641 102.144 70.1641 164.798V164.799C70.1641 227.453 120.96 278.244 183.619 278.244H660.754C723.413 278.244 774.209 227.453 774.209 164.798C774.209 102.144 723.413 51.3531 660.754 51.3531Z" fill="#318B43"/>
<path d="M664.076 83.8752H182.401C137.936 83.8752 101.891 119.918 101.891 164.379V164.379C101.891 208.84 137.936 244.882 182.401 244.882H664.076C708.54 244.882 744.586 208.84 744.586 164.379C744.586 119.918 708.54 83.8752 664.076 83.8752Z" fill="#51AD42"/>
<path d="M667.288 113.115H181.4C154.35 113.115 132.422 135.041 132.422 162.088V166.898C132.422 193.945 154.35 215.872 181.4 215.872H667.288C694.338 215.872 716.266 193.945 716.266 166.898V162.088C716.266 135.041 694.338 113.115 667.288 113.115Z" fill="#DCEBC0"/>
</svg>
