<svg width="181" height="486" viewBox="0 0 181 486" fill="none" xmlns="http://www.w3.org/2000/svg">
<g clip-path="url(#clip0_6145_13176)">
<path d="M146.154 447.763L146.154 478.411L146.154 480.911L148.654 480.911L175.322 480.911L177.822 480.911L177.822 478.411L177.822 97.1176C177.822 71.4905 168.116 48.2598 152.387 31.4265C136.655 14.5837 114.866 4.12644 90.7733 4.12644C42.5379 4.12643 3.71876 45.9232 3.71875 97.1176L3.71875 376.02C3.71875 401.641 13.4253 424.872 29.1599 441.711C44.8917 458.547 66.6801 469.005 90.7733 469.005C111.826 469.005 131.124 461.018 146.154 447.763Z" fill="#006E2B" stroke="#203327" stroke-width="5"/>
<path d="M28.3359 95.8103L28.3359 377.569C28.3359 414.571 56.364 444.567 90.9383 444.567L90.9384 444.567C125.513 444.567 153.541 414.571 153.541 377.569L153.541 95.8103C153.541 58.8084 125.513 28.8124 90.9383 28.8124C56.364 28.8124 28.3359 58.8084 28.3359 95.8103Z" fill="#318B43"/>
<path d="M46.2813 93.8483L46.2813 378.288C46.2813 404.545 66.1706 425.831 90.7053 425.831L90.7055 425.831C115.24 425.831 135.13 404.545 135.13 378.288L135.13 93.8483C135.13 67.5909 115.24 46.3051 90.7054 46.3051C66.1706 46.3051 46.2813 67.5909 46.2813 93.8483Z" fill="#51AD42"/>
<path d="M62.4219 91.9516L62.4219 378.879C62.4219 394.853 74.5215 407.802 89.4471 407.802L92.1012 407.802C107.027 407.802 119.126 394.853 119.126 378.879L119.126 91.9516C119.126 75.978 107.027 63.0289 92.1012 63.0289L89.4471 63.0289C74.5215 63.0289 62.4219 75.978 62.4219 91.9516Z" fill="#DCEBC0"/>
</g>
<defs>
<clipPath id="clip0_6145_13176">
<rect width="486" height="181" fill="white" transform="translate(0 486) rotate(-90)"/>
</clipPath>
</defs>
</svg>
