<svg width="58" height="67" viewBox="0 0 58 67" fill="none" xmlns="http://www.w3.org/2000/svg">
<g clip-path="url(#clip0_5901_14679)">
<path d="M2.28105 49.5102C2.74236 49.9603 5.10582 51.8146 6.33777 52.7524C7.56863 53.6912 19.904 63.3946 20.7182 64.0323C21.5313 64.67 23.3676 66.1755 23.687 66.3844C24.0053 66.5932 24.8084 66.9998 25.5556 66.3073C26.3029 65.6149 28.7515 61.6792 29.9824 54.2336C30.3048 52.2688 30.2754 47.2564 30.2176 45.4974C30.1588 43.7384 30.686 34.8552 33.1488 34.0938C33.1488 34.0938 35.1716 35.5588 39.5994 34.035C39.5994 34.035 44.1803 36.1093 48.4236 35.1198C48.4236 35.1198 49.2296 36.1164 49.7873 36.7176C50.344 37.3178 50.857 37.8166 52.4701 37.2012C53.2316 36.9082 54.0235 36.5281 54.0235 36.5281C54.0235 36.5281 55.8414 37.2448 57.0287 36.0718C58.216 34.8998 57.703 32.4078 57.6442 32.129C57.5854 31.8512 58.2911 31.1294 57.8043 30.0294C57.3177 28.9304 55.6356 28.4062 55.6356 28.4062C53.7599 27.0578 53.0562 26.5885 50.857 24.0964C48.6588 21.6055 46.3714 20.0219 46.3714 20.0219C46.3714 20.0219 44.7927 18.0418 41.9436 16.0943C39.57 14.4721 36.3153 12.8713 32.357 12.4587C32.357 12.4587 33.889 10.0103 33.4054 6.36047C33.4054 6.36047 32.7534 7.72407 30.76 9.41006C28.7657 11.0951 28.1644 12.1799 27.9748 12.854C27.9748 12.854 25.9298 12.6929 22.7633 16.1886C19.5968 19.6853 16.3208 25.4742 13.0073 31.25C10.0791 36.3557 7.72276 40.4982 5.83789 43.4768C5.59149 43.8672 5.35222 44.2382 5.12107 44.588C4.47618 45.615 3.02426 46.9776 2.4524 47.4612C1.88157 47.9448 1.48917 48.696 2.28105 49.5102Z" fill="#B6B6B6"/>
<path d="M0.382694 41.9206C0.382694 41.9206 0.485126 43.6035 2.9773 43.8266C4.1646 43.933 5.14 43.7242 5.83455 43.4768C7.71941 40.4982 10.0758 36.3556 13.004 31.25C16.3175 25.4742 19.5935 19.6852 22.7599 16.1885C25.9264 12.6928 27.9715 12.854 27.9715 12.854C28.1611 12.1798 28.7623 11.095 30.7567 9.41002C32.7501 7.72403 33.4021 6.36043 33.4021 6.36043C33.8857 10.0102 32.3536 12.4586 32.3536 12.4586C36.312 12.8713 39.5667 14.4721 41.9403 16.0942C42.1218 15.5751 42.9065 14.5775 46.2656 14.4376C46.2656 14.4376 44.6819 11.755 39.9763 12.8246C39.9763 12.8246 41.6696 11.3515 41.0764 8.42763C41.0764 8.42763 39.8891 10.8243 38.0195 10.8902C38.0195 10.8902 39.8891 7.19685 37.5145 5.21784C36.3931 4.31653 34.6552 3.79543 32.383 3.38483C30.1109 2.97524 27.3256 1.17162 26.6514 0.703247C26.6514 0.703247 26.0653 2.97524 28.5575 5.24725C28.5575 5.24725 25.5857 4.76667 23.9695 6.55914C22.98 7.63582 22.7376 9.03187 22.0999 9.66957C21.4621 10.3073 19.9453 11.1984 16.2404 9.78009C16.2404 9.78009 16.0235 12.1778 18.7762 13.513C18.6809 13.4958 16.3134 13.0842 14.0301 14.98C11.699 16.9144 9.30218 22.675 8.29128 23.8622C7.27938 25.0494 6.56865 26.193 4.98589 26.339C4.98589 26.339 5.68954 28.2592 10.1894 27.2332C10.1894 27.2332 7.2875 30.2676 4.98589 34.108C2.68431 37.9484 2.90433 39.7956 0.382694 41.9206Z" fill="#7B4521"/>
<path d="M41.9679 34.8369C42.7902 35.0528 43.7727 35.2506 44.8281 35.3388C46.1747 33.4905 50.8204 26.4272 51.7188 25.0595C51.4562 24.7746 51.1692 24.4563 50.8508 24.0964C50.5497 23.7547 50.2465 23.4303 49.9464 23.1251C49.4607 23.8642 48.1863 25.8027 46.7566 27.9398C46.4373 28.4173 46.1098 28.905 45.7812 29.3906C44.3141 31.5643 42.8328 33.7115 41.9679 34.8369Z" fill="#4C2925"/>
<path d="M22.538 16.445L45.7902 29.3906C46.1188 28.9049 46.4462 28.4173 46.7656 27.9398L23.7862 15.1462C23.4617 15.4514 23.121 15.7971 22.7662 16.1885C22.7164 16.2432 22.6668 16.298 22.6181 16.3537C22.5907 16.3841 22.5644 16.4145 22.538 16.445Z" fill="#4A5160"/>
<path d="M39.6928 21.543C38.9278 21.543 38.3076 20.9229 38.3076 20.1579C38.3076 19.3929 38.9278 18.7727 39.6928 18.7727C40.4579 18.7727 41.0781 19.3929 41.0781 20.1579C41.0781 20.9229 40.4579 21.543 39.6928 21.543Z" fill="#3F4554"/>
<path d="M41.8872 22.1105C41.9802 22.1105 42.0747 22.0954 42.1676 22.0636C42.618 21.9095 42.8573 21.4173 42.7033 20.967C42.6736 20.8801 41.9533 18.8345 40.0312 18.4042C38.1801 17.9899 36.6693 19.1553 36.6058 19.2052C36.2316 19.4992 36.1666 20.041 36.4606 20.4151C36.7547 20.7894 37.2965 20.8544 37.6708 20.5604C37.6754 20.5569 38.6136 19.8529 39.6546 20.0861C40.6279 20.3039 41.0697 21.5173 41.074 21.5295C41.1963 21.887 41.5297 22.1105 41.8872 22.1105Z" fill="#75482A"/>
<path d="M36.2347 34.7366C39.1842 34.7366 41.6873 33.1723 41.8356 33.0779C42.237 32.8221 42.355 32.2895 42.0992 31.8881C41.8435 31.4866 41.3107 31.3686 40.9093 31.6244C40.8678 31.6507 36.5904 34.3054 33.2614 32.175C29.8046 29.9628 28.9765 23.6241 28.9686 23.5603C28.9096 23.0882 28.4794 22.7526 28.0072 22.8115C27.5351 22.8701 27.1997 23.2998 27.2579 23.772C27.2941 24.0648 28.1907 30.9763 32.3323 33.6266C33.6144 34.4471 34.9659 34.7366 36.2347 34.7366Z" fill="#75482A"/>
<path d="M17.227 32.3169C17.3793 32.3169 17.5335 32.2766 17.6732 32.1918C23.9384 28.3905 25.614 22.2595 25.6823 22.0004C25.8035 21.5402 25.5287 21.0688 25.0684 20.9475C24.6088 20.8259 24.1378 21.1004 24.0159 21.5599C24.0007 21.6167 22.4289 27.2903 16.7791 30.7183C16.3721 30.9653 16.2424 31.4953 16.4894 31.9021C16.6515 32.1693 16.9357 32.3169 17.227 32.3169Z" fill="#75482A"/>
<path d="M22.7117 43.0598C23.0132 41.3638 23.8957 39.2271 24.7493 37.1609C25.2964 35.8365 25.8131 34.5854 26.1705 33.4822C26.9847 30.9688 26.4037 29.3072 26.3898 29.2688C26.222 28.8267 26.4421 28.3312 26.8838 28.1598C27.3275 27.9876 27.8269 28.2077 27.9991 28.6514C28.0336 28.7401 28.8312 30.8618 27.8103 34.0132C27.4321 35.1808 26.8781 36.5219 26.3424 37.8189C25.5239 39.8003 24.6776 41.8493 24.4087 43.3615C24.0973 45.1127 24.4131 46.0958 24.5504 46.4167C24.6265 46.5945 24.6761 46.7828 24.688 46.9759C24.7047 47.246 24.655 47.5531 24.3994 47.7288C24.1795 47.88 23.9357 47.8682 23.726 47.803C23.4016 47.7021 23.1442 47.4553 23.0032 47.1462C22.7284 46.5441 22.3281 45.217 22.7117 43.0598Z" fill="#75482A"/>
<path opacity="0.25" d="M29.6052 13.8657C34.3331 14.4588 37.3638 16.1671 39.2983 17.5956C41.2339 19.0251 44.0039 21.5313 44.5758 22.0149C45.1476 22.4995 49.1049 25.8634 50.1645 27.4288C51.223 28.9941 53.6422 30.2827 53.9059 30.3557C54.1705 30.4287 54.8589 30.6193 55.2402 31.4841C55.6214 32.3489 54.8001 33.3901 54.8001 33.3901C55.4338 35.2748 54.6795 36.6962 54.6795 36.6962C55.3172 36.7996 56.2936 36.7976 57.0287 36.0717C58.216 34.8997 57.703 32.4077 57.6442 32.1289C57.5854 31.8511 58.2911 31.1293 57.8043 30.0293C57.3177 28.9303 55.6356 28.4061 55.6356 28.4061C53.7599 27.0577 53.0562 26.5883 50.857 24.0963C48.6588 21.6053 46.3714 20.0217 46.3714 20.0217C46.3714 20.0217 44.7927 18.0417 41.9436 16.0941C39.57 14.472 36.3153 12.8712 32.357 12.4585C32.357 12.4585 33.889 10.0101 33.4054 6.36035C33.4054 6.36035 32.7534 7.72395 30.76 9.40994C30.7165 9.44645 30.6739 9.48294 30.6323 9.51843C30.8462 11.5806 29.6052 13.8657 29.6052 13.8657Z" fill="#231F20"/>
<path opacity="0.25" d="M32.0078 35.1852C32.0078 35.1852 30.4511 34.5151 29.1965 36.8327C27.9419 39.1503 27.4582 42.5656 27.4875 48.1355C27.5168 53.7055 27.3995 56.4465 26.0802 60.7999C24.7609 65.1532 23.5548 66.2921 23.5548 66.2921C23.5548 66.2921 24.7674 67.3066 25.6657 66.1914C26.564 65.0763 27.7152 63.0117 28.6055 60.0442C29.4958 57.0768 30.1375 54.796 30.1942 51.5427C30.2509 48.2894 30.1707 45.8472 30.2159 44.7727C30.261 43.6981 30.5692 37.8674 32.0078 35.1852Z" fill="#231F20"/>
<path d="M55.8094 33.0352C56.1425 33.0352 56.4597 32.8409 56.6006 32.5159C56.7899 32.0792 56.5892 31.5718 56.1525 31.3826C55.5537 31.1231 55.8132 30.1653 55.8246 30.1246C55.9592 29.6681 55.6974 29.1918 55.2409 29.0572C54.7843 28.9228 54.3042 29.1864 54.1696 29.6429C53.9201 30.489 53.8702 32.2719 55.4671 32.9639C55.5788 33.0123 55.695 33.0352 55.8094 33.0352Z" fill="#75482A"/>
</g>
<defs>
<clipPath id="clip0_5901_14679">
<rect width="58" height="67" fill="white" transform="matrix(-1 0 0 1 58 0)"/>
</clipPath>
</defs>
</svg>
