<svg width="59" height="68" viewBox="0 0 59 68" fill="none" xmlns="http://www.w3.org/2000/svg">
<path d="M2.05449 49.5102C2.5158 49.9603 4.87926 51.8146 6.11121 52.7524C7.34207 53.6912 19.6774 63.3946 20.4916 64.0323C21.3048 64.67 23.141 66.1755 23.4604 66.3844C23.7788 66.5932 24.5818 66.9998 25.329 66.3073C26.0763 65.6149 28.525 61.6792 29.7558 54.2336C30.0783 52.2688 30.0489 47.2564 29.9911 45.4974C29.9323 43.7384 30.4595 34.8552 32.9223 34.0938C32.9223 34.0938 34.9451 35.5588 39.3729 34.035C39.3729 34.035 43.9538 36.1093 48.197 35.1198C48.197 35.1198 49.0031 36.1164 49.5607 36.7176C50.1174 37.3178 50.6304 37.8166 52.2436 37.2012C53.005 36.9082 53.7969 36.5281 53.7969 36.5281C53.7969 36.5281 55.6149 37.2448 56.8021 36.0718C57.9894 34.8998 57.4764 32.4078 57.4176 32.129C57.3588 31.8512 58.0645 31.1294 57.5778 30.0294C57.0911 28.9304 55.409 28.4062 55.409 28.4062C53.5333 27.0578 52.8296 26.5885 50.6304 24.0964C48.4323 21.6055 46.1448 20.0219 46.1448 20.0219C46.1448 20.0219 44.5662 18.0418 41.7171 16.0943C39.3435 14.4721 36.0888 12.8713 32.1304 12.4587C32.1304 12.4587 33.6625 10.0103 33.1788 6.36047C33.1788 6.36047 32.5269 7.72407 30.5335 9.41006C28.5391 11.0951 27.9379 12.1799 27.7483 12.854C27.7483 12.854 25.7032 12.6929 22.5367 16.1886C19.3703 19.6853 16.0943 25.4742 12.7808 31.25C9.85257 36.3557 7.49619 40.4982 5.61133 43.4768C5.36493 43.8672 5.12566 44.2382 4.8945 44.588C4.24961 45.615 2.7977 46.9776 2.22583 47.4612C1.65501 47.9448 1.26261 48.696 2.05449 49.5102Z" fill="#B77442"/>
<path d="M0.156132 41.9206C0.156132 41.9206 0.258564 43.6035 2.75074 43.8266C3.93804 43.933 4.91344 43.7242 5.60799 43.4768C7.49285 40.4982 9.84922 36.3556 12.7774 31.25C16.0909 25.4742 19.3669 19.6852 22.5334 16.1885C25.6999 12.6928 27.7449 12.854 27.7449 12.854C27.9345 12.1798 28.5358 11.095 30.5301 9.41002C32.5235 7.72403 33.1755 6.36043 33.1755 6.36043C33.6591 10.0102 32.1271 12.4586 32.1271 12.4586C36.0854 12.8713 39.3401 14.4721 41.7137 16.0942C41.8952 15.5751 42.68 14.5775 46.0391 14.4376C46.0391 14.4376 44.4554 11.755 39.7497 12.8246C39.7497 12.8246 41.443 11.3515 40.8498 8.42763C40.8498 8.42763 39.6626 10.8243 37.7929 10.8902C37.7929 10.8902 39.6626 7.19685 37.288 5.21784C36.1666 4.31653 34.4287 3.79543 32.1565 3.38483C29.8843 2.97524 27.099 1.17162 26.4248 0.703247C26.4248 0.703247 25.8387 2.97524 28.3309 5.24725C28.3309 5.24725 25.3591 4.76667 23.743 6.55914C22.7534 7.63582 22.5111 9.03187 21.8733 9.66957C21.2355 10.3073 19.7187 11.1984 16.0138 9.78009C16.0138 9.78009 15.7969 12.1778 18.5497 13.513C18.4544 13.4958 16.0869 13.0842 13.8035 14.98C11.4725 16.9144 9.07561 22.675 8.06471 23.8622C7.05282 25.0494 6.34209 26.193 4.75932 26.339C4.75932 26.339 5.46298 28.2592 9.9628 27.2332C9.9628 27.2332 7.06094 30.2676 4.75932 34.108C2.45775 37.9484 2.67776 39.7956 0.156132 41.9206Z" fill="#914613"/>
<path d="M41.7413 34.8369C42.5636 35.0528 43.5461 35.2506 44.6016 35.3388C45.9481 33.4905 50.5939 26.4272 51.4922 25.0595C51.2296 24.7746 50.9427 24.4563 50.6243 24.0964C50.3232 23.7547 50.02 23.4303 49.7199 23.1251C49.2342 23.8642 47.9597 25.8027 46.5301 27.9398C46.2107 28.4173 45.8832 28.905 45.5547 29.3906C44.0875 31.5643 42.6062 33.7115 41.7413 34.8369Z" fill="#4C2925"/>
<path d="M22.3115 16.445L45.5637 29.3906C45.8922 28.9049 46.2197 28.4173 46.5391 27.9398L23.5596 15.1462C23.2351 15.4514 22.8945 15.7971 22.5396 16.1885C22.4899 16.2432 22.4402 16.298 22.3915 16.3537C22.3642 16.3841 22.3378 16.4145 22.3115 16.445Z" fill="#4A5160"/>
<path d="M39.4663 21.543C38.7012 21.543 38.081 20.9229 38.081 20.1579C38.081 19.3929 38.7012 18.7727 39.4663 18.7727C40.2313 18.7727 40.8516 19.3929 40.8516 20.1579C40.8516 20.9229 40.2313 21.543 39.4663 21.543Z" fill="#3F4554"/>
<path d="M41.6607 22.1105C41.7536 22.1105 41.8481 22.0954 41.9411 22.0636C42.3914 21.9095 42.6308 21.4173 42.4767 20.967C42.447 20.8801 41.7267 18.8345 39.8046 18.4042C37.9535 17.9899 36.4427 19.1553 36.3793 19.2052C36.005 19.4992 35.94 20.041 36.2341 20.4151C36.5281 20.7894 37.0699 20.8544 37.4442 20.5604C37.4489 20.5569 38.387 19.8529 39.4281 20.0861C40.4014 20.3039 40.8431 21.5173 40.8475 21.5295C40.9698 21.887 41.3032 22.1105 41.6607 22.1105Z" fill="#75482A"/>
<path d="M36.0081 34.7366C38.9577 34.7366 41.4608 33.1723 41.609 33.0779C42.0104 32.8221 42.1285 32.2895 41.8727 31.8881C41.6169 31.4866 41.0842 31.3686 40.6827 31.6244C40.6412 31.6507 36.3638 34.3054 33.0349 32.175C29.578 29.9628 28.75 23.6241 28.742 23.5603C28.6831 23.0882 28.2528 22.7526 27.7806 22.8115C27.3085 22.8701 26.9731 23.2998 27.0314 23.772C27.0675 24.0648 27.9642 30.9763 32.1057 33.6266C33.3878 34.4471 34.7393 34.7366 36.0081 34.7366Z" fill="#75482A"/>
<path d="M17.0004 32.3169C17.1527 32.3169 17.307 32.2766 17.4467 32.1918C23.7118 28.3905 25.3875 22.2595 25.4557 22.0004C25.577 21.5402 25.3021 21.0688 24.8419 20.9475C24.3822 20.8259 23.9112 21.1004 23.7893 21.5599C23.7741 21.6167 22.2024 27.2903 16.5525 30.7183C16.1456 30.9653 16.0159 31.4953 16.2628 31.9021C16.4249 32.1693 16.7092 32.3169 17.0004 32.3169Z" fill="#75482A"/>
<path d="M22.4851 43.0598C22.7866 41.3638 23.6692 39.2271 24.5227 37.1609C25.0698 35.8365 25.5866 34.5854 25.944 33.4822C26.7581 30.9688 26.1771 29.3072 26.1633 29.2688C25.9954 28.8267 26.2156 28.3312 26.6572 28.1598C27.1009 27.9876 27.6003 28.2077 27.7725 28.6514C27.807 28.7401 28.6047 30.8618 27.5837 34.0132C27.2055 35.1808 26.6516 36.5219 26.1158 37.8189C25.2973 39.8003 24.451 41.8493 24.1821 43.3615C23.8708 45.1127 24.1865 46.0958 24.3238 46.4167C24.4 46.5945 24.4495 46.7828 24.4615 46.9759C24.4782 47.246 24.4284 47.5531 24.1729 47.7288C23.953 47.88 23.7091 47.8682 23.4995 47.803C23.175 47.7021 22.9176 47.4553 22.7766 47.1462C22.5018 46.5441 22.1015 45.217 22.4851 43.0598Z" fill="#75482A"/>
<path opacity="0.25" d="M29.3787 13.8657C34.1066 14.4588 37.1372 16.1671 39.0717 17.5956C41.0073 19.0251 43.7773 21.5313 44.3492 22.0149C44.9211 22.4995 48.8784 25.8634 49.9379 27.4288C50.9965 28.9941 53.4157 30.2827 53.6793 30.3557C53.9439 30.4287 54.6324 30.6193 55.0136 31.4841C55.3948 32.3489 54.5736 33.3901 54.5736 33.3901C55.2073 35.2748 54.4529 36.6962 54.4529 36.6962C55.0907 36.7996 56.0671 36.7976 56.8021 36.0717C57.9894 34.8997 57.4764 32.4077 57.4176 32.1289C57.3588 31.8511 58.0645 31.1293 57.5778 30.0293C57.0911 28.9303 55.409 28.4061 55.409 28.4061C53.5333 27.0577 52.8296 26.5883 50.6304 24.0963C48.4323 21.6053 46.1448 20.0217 46.1448 20.0217C46.1448 20.0217 44.5662 18.0417 41.7171 16.0941C39.3435 14.472 36.0888 12.8712 32.1304 12.4585C32.1304 12.4585 33.6625 10.0101 33.1788 6.36035C33.1788 6.36035 32.5269 7.72395 30.5335 9.40994C30.4899 9.44645 30.4473 9.48294 30.4058 9.51843C30.6197 11.5806 29.3787 13.8657 29.3787 13.8657Z" fill="#231F20"/>
<path opacity="0.25" d="M31.7812 35.1852C31.7812 35.1852 30.2245 34.5151 28.9699 36.8327C27.7154 39.1503 27.2316 42.5656 27.2609 48.1355C27.2902 53.7055 27.173 56.4465 25.8537 60.7999C24.5343 65.1532 23.3283 66.2921 23.3283 66.2921C23.3283 66.2921 24.5409 67.3066 25.4391 66.1914C26.3374 65.0763 27.4887 63.0117 28.3789 60.0442C29.2692 57.0768 29.911 54.796 29.9676 51.5427C30.0243 48.2894 29.9442 45.8472 29.9893 44.7727C30.0344 43.6981 30.3427 37.8674 31.7812 35.1852Z" fill="#231F20"/>
<path d="M55.5828 33.0352C55.916 33.0352 56.2331 32.8409 56.374 32.5159C56.5633 32.0792 56.3627 31.5718 55.9259 31.3826C55.3271 31.1231 55.5867 30.1653 55.598 30.1246C55.7326 29.6681 55.4708 29.1918 55.0143 29.0572C54.5578 28.9228 54.0777 29.1864 53.943 29.6429C53.6935 30.489 53.6436 32.2719 55.2406 32.9639C55.3522 33.0123 55.4685 33.0352 55.5828 33.0352Z" fill="#75482A"/>
</svg>
