<svg width="27" height="26" viewBox="0 0 27 26" fill="none" xmlns="http://www.w3.org/2000/svg">
<g opacity="0.99" clip-path="url(#clip0_2911_902)">
<path d="M13.5 0C6.0558 0 0 5.83151 0 13C0 20.1685 6.0558 26 13.5 26C20.9442 26 27 20.1685 27 13C27 5.83151 20.9442 0 13.5 0Z" fill="#2196F3"/>
<path d="M20.3426 10.2451L13.03 17.2866C12.8106 17.4978 12.5226 17.6042 12.2346 17.6042C11.9467 17.6042 11.6587 17.4978 11.4393 17.2866L7.78313 13.7658C7.34312 13.3423 7.34312 12.6576 7.78313 12.2341C8.22292 11.8103 8.93381 11.8103 9.37381 12.2341L12.2346 14.9889L18.7519 8.71329C19.1917 8.28958 19.9026 8.28958 20.3426 8.71329C20.7824 9.13679 20.7824 9.82135 20.3426 10.2451Z" fill="#FAFAFA"/>
</g>
<defs>
<clipPath id="clip0_2911_902">
<rect width="27" height="26" fill="white"/>
</clipPath>
</defs>
</svg>
