<svg width="27" height="26" viewBox="0 0 27 26" fill="none" xmlns="http://www.w3.org/2000/svg">
<path d="M0 13C0 5.81953 6.04336 0 13.5 0C20.9566 0 27 5.81953 27 13C27 20.1805 20.9566 26 13.5 26C6.04336 26 0 20.1805 0 13ZM13.5158 16.8492C11.0162 16.8492 8.65371 16.4988 6.56543 15.8844C5.9168 15.6914 5.28398 16.2348 5.54766 16.834C6.86074 19.8352 9.93516 21.9375 13.5158 21.9375C17.0965 21.9375 20.1656 19.8352 21.484 16.834C21.7477 16.2348 21.1148 15.6914 20.4662 15.8844C18.3727 16.4988 16.0154 16.8492 13.5158 16.8492ZM9.30234 8.9375C8.36895 8.9375 7.61484 9.66367 7.61484 10.5625C7.61484 11.4613 8.36895 12.1875 9.30234 12.1875C10.2305 12.1875 10.9898 11.4613 10.9898 10.5625C10.9898 9.66367 10.2305 8.9375 9.30234 8.9375ZM17.7398 12.1875C18.668 12.1875 19.4273 11.4613 19.4273 10.5625C19.4273 9.66367 18.668 8.9375 17.7398 8.9375C16.8064 8.9375 16.0523 9.66367 16.0523 10.5625C16.0523 11.4613 16.8064 12.1875 17.7398 12.1875Z" fill="white"/>
</svg>
