<svg width="19" height="19" viewBox="0 0 19 19" fill="none" xmlns="http://www.w3.org/2000/svg">
<path d="M9.5 0C4.25273 0 0 4.25273 0 9.5C0 14.7473 4.25273 19 9.5 19C14.7473 19 19 14.7473 19 9.5C18.9926 4.25645 14.7436 0.00742187 9.5 0ZM12.6654 11.5484C12.9883 11.8453 13.0068 12.3463 12.71 12.6654C12.4131 12.9846 11.9121 13.0068 11.593 12.71C11.5781 12.6951 11.5596 12.6803 11.5484 12.6654L9.5 10.6207L7.45156 12.6691C7.13613 12.9734 6.63516 12.966 6.33086 12.6506C6.03398 12.3426 6.03398 11.8564 6.33086 11.5521L8.3793 9.50371L6.33086 7.45527C6.02656 7.13984 6.0377 6.63887 6.34941 6.33457C6.65742 6.0377 7.14355 6.0377 7.44785 6.33457L9.49629 8.38301L11.5447 6.33457C11.8416 6.01172 12.3426 5.99316 12.6617 6.29004C12.9809 6.58691 13.0031 7.08789 12.7063 7.40703C12.6914 7.42188 12.6766 7.44043 12.6617 7.45156L10.6207 9.5L12.6654 11.5484Z" fill="white"/>
</svg>
