<svg width="17" height="17" viewBox="0 0 17 17" fill="none" xmlns="http://www.w3.org/2000/svg">
<path d="M16.9996 0.801033C16.9993 0.781212 16.9984 0.761556 16.9967 0.742099C16.9964 0.737584 16.9962 0.733035 16.9957 0.728519C16.9935 0.70644 16.9902 0.684692 16.9863 0.663177C16.9856 0.659326 16.985 0.655441 16.9842 0.65159C16.9798 0.629311 16.9743 0.607464 16.9681 0.585882C16.9672 0.582595 16.9663 0.579308 16.9653 0.576054C16.9587 0.553908 16.951 0.532227 16.9425 0.510911C16.9414 0.508023 16.9403 0.505134 16.9391 0.502279C16.9301 0.480398 16.9201 0.459016 16.9093 0.438165C16.9081 0.435841 16.907 0.433483 16.9057 0.431159C16.8941 0.409246 16.8815 0.38793 16.868 0.367278C16.8671 0.366016 16.8664 0.364754 16.8655 0.363493C16.8054 0.272684 16.7274 0.194758 16.6366 0.134629C16.6356 0.133932 16.6345 0.133301 16.6335 0.132637C16.6126 0.118924 16.591 0.106141 16.5689 0.0943877C16.5668 0.0933253 16.5648 0.092296 16.5628 0.0912667C16.5416 0.0802768 16.5199 0.07015 16.4977 0.0610526C16.4952 0.0599901 16.4926 0.0590273 16.49 0.057998C16.4684 0.0493986 16.4465 0.0416292 16.424 0.0348892C16.421 0.0339927 16.418 0.0331958 16.4149 0.0322994C16.3932 0.0260241 16.3711 0.0205457 16.3486 0.0160634C16.3449 0.015333 16.3412 0.0147685 16.3374 0.0140713C16.3158 0.0101202 16.294 0.00679996 16.2718 0.00457541C16.2673 0.00411057 16.2627 0.00391136 16.2582 0.00354613C16.2387 0.00191922 16.2191 0.000956351 16.1993 0.000723934C16.1949 0.000690732 16.1905 0.000458316 16.1861 0.000491518H11.3333C10.8856 0.000491518 10.5237 0.363161 10.5237 0.809998C10.5237 1.25684 10.8856 1.6195 11.3333 1.6195H14.2361L9.95144 5.9042C9.63492 6.22072 9.63492 6.73233 9.95144 7.04885C10.1093 7.2067 10.3165 7.28605 10.5237 7.28605C10.731 7.28605 10.9382 7.20673 11.0961 7.04885L15.3808 2.76416V5.66704C15.3808 6.11387 15.7426 6.47654 16.1903 6.47654C16.638 6.47654 16.9998 6.11387 16.9998 5.66704V0.814248C16.9998 0.809832 16.9996 0.805449 16.9996 0.801033Z" fill="white"/>
<path d="M5.90389 9.95174L1.6192 14.2365V11.3336C1.6192 10.8859 1.25653 10.5241 0.809693 10.5241C0.362856 10.5241 0.000186809 10.8859 0.000186809 11.3336V16.1864C0.000153606 16.1908 0.000352821 16.1952 0.000419226 16.1996C0.000651642 16.2194 0.00161451 16.239 0.00324142 16.2585C0.00360665 16.263 0.00380586 16.2676 0.0042707 16.2721C0.00649525 16.2943 0.00978229 16.3161 0.0137666 16.3377C0.0144638 16.3414 0.0150283 16.3452 0.0157587 16.3489C0.0202078 16.3714 0.0257194 16.3935 0.0319947 16.4152C0.0328579 16.4183 0.0336548 16.4213 0.0345844 16.4243C0.0413245 16.4468 0.0490939 16.4688 0.0576933 16.4903C0.0587225 16.4929 0.0596854 16.4955 0.0607479 16.498C0.0698785 16.5202 0.0800052 16.5419 0.090962 16.5631C0.0920245 16.5651 0.0930206 16.5671 0.094083 16.5692C0.105837 16.5914 0.11862 16.6129 0.132332 16.6338C0.132996 16.6348 0.133627 16.6359 0.134324 16.6369C0.194587 16.7279 0.272745 16.806 0.363786 16.8662C0.364251 16.8665 0.364749 16.8668 0.365213 16.8671C0.386828 16.8813 0.40914 16.8946 0.432149 16.9067C0.433112 16.9072 0.434042 16.9077 0.435005 16.9082C0.457416 16.9199 0.480459 16.9306 0.504032 16.9402C0.504896 16.9406 0.505792 16.9409 0.506655 16.9413C0.530063 16.9507 0.553969 16.9591 0.578406 16.9664C0.579103 16.9666 0.579833 16.9668 0.580531 16.967C0.604635 16.9741 0.629205 16.9801 0.654207 16.985C0.65507 16.9852 0.655933 16.9853 0.656796 16.9855C0.6812 16.9902 0.706002 16.9938 0.731136 16.9963C0.732265 16.9964 0.733394 16.9964 0.734523 16.9965C0.759292 16.9988 0.78436 17.0001 0.809726 17.0001H5.66676C6.1136 17.0001 6.47627 16.6383 6.47627 16.1906C6.47627 15.7429 6.1136 15.3811 5.66676 15.3811H2.76388L7.04858 11.0964C7.3651 10.7799 7.3651 10.2683 7.04858 9.95174C6.73206 9.63523 6.22041 9.63523 5.90389 9.95174Z" fill="white"/>
</svg>
