<svg width="18" height="18" viewBox="0 0 18 18" fill="none" xmlns="http://www.w3.org/2000/svg">
<path opacity="0.4" d="M17.9096 7.75412C17.5853 5.39619 16.3352 3.26334 14.4344 1.82479C12.5335 0.386234 10.1376 -0.240188 7.77369 0.0833267C5.40981 0.406842 3.27158 1.65379 1.82939 3.54987C0.387209 5.44594 -0.240795 7.83582 0.0835369 10.1938C0.350744 12.1454 1.24985 13.9564 2.64402 15.3514C4.03819 16.7463 5.85107 17.6487 7.80677 17.9213C8.20695 17.9736 8.61011 17.9998 9.01371 18C10.6443 18.0027 12.2444 17.5588 13.6395 16.7168C13.7374 16.658 13.8228 16.5805 13.8907 16.4887C13.9586 16.397 14.0077 16.2928 14.0352 16.1822C14.0628 16.0715 14.0682 15.9565 14.0511 15.8438C14.0341 15.731 13.995 15.6227 13.936 15.5251C13.8771 15.4274 13.7994 15.3423 13.7074 15.2745C13.6154 15.2068 13.511 15.1578 13.4001 15.1304C13.176 15.0749 12.939 15.1105 12.7413 15.2293C11.7483 15.8238 10.6269 16.1725 9.47112 16.2462C8.31531 16.3199 7.15861 16.1164 6.09778 15.6528C5.03696 15.1892 4.10285 14.479 3.37361 13.5815C2.64437 12.684 2.14119 11.6253 1.90617 10.4941C1.67115 9.36291 1.71112 8.19199 2.02274 7.07934C2.33435 5.96668 2.90856 4.94464 3.69732 4.09871C4.48608 3.25277 5.46645 2.60754 6.55644 2.21699C7.64642 1.82644 8.81432 1.70193 9.96243 1.85387C11.0288 1.9953 12.0504 2.37158 12.953 2.95545C13.8556 3.53932 14.6167 4.31616 15.1811 5.22968C15.7456 6.1432 16.0992 7.17052 16.2165 8.23722C16.3337 9.30391 16.2116 10.3833 15.859 11.3971C15.7675 11.6409 15.6022 11.8502 15.386 11.996C15.1699 12.1418 14.9135 12.2169 14.6527 12.2109C14.3088 12.2104 13.9792 12.074 13.7361 11.8315C13.493 11.589 13.3562 11.2602 13.3558 10.9172V5.55469C13.3558 5.32443 13.2641 5.10361 13.1008 4.94079C12.9376 4.77797 12.7162 4.6865 12.4854 4.6865C12.2545 4.6865 12.0332 4.77797 11.8699 4.94079C11.7067 5.10361 11.615 5.32443 11.615 5.55469V5.5628C10.9552 5.06604 10.1671 4.76702 9.34313 4.70074C8.51912 4.63445 7.69324 4.80364 6.96212 5.1885C6.231 5.57337 5.62491 6.15799 5.21476 6.87394C4.80461 7.58989 4.60738 8.40756 4.64615 9.23125C4.68492 10.0549 4.95808 10.8506 5.43368 11.525C5.90927 12.1995 6.56761 12.7249 7.33166 13.0398C8.09571 13.3546 8.93386 13.4459 9.74801 13.3029C10.5622 13.1599 11.3186 12.7885 11.9289 12.2323C12.1755 12.7446 12.5618 13.1772 13.0435 13.4805C13.5253 13.7838 14.083 13.9456 14.6527 13.9473C15.2754 13.9532 15.8846 13.7656 16.3956 13.4105C16.9066 13.0553 17.294 12.5503 17.504 11.9655C17.9731 10.6138 18.1122 9.1701 17.9096 7.75412ZM9.00384 11.6321C8.4874 11.6321 7.98256 11.4793 7.55316 11.1931C7.12376 10.9069 6.78908 10.5001 6.59144 10.0242C6.39381 9.54828 6.3421 9.02459 6.44285 8.51935C6.54361 8.01411 6.79229 7.55001 7.15747 7.18576C7.52265 6.8215 7.98791 6.57343 8.49443 6.47294C9.00094 6.37244 9.52596 6.42402 10.0031 6.62115C10.4802 6.81829 10.888 7.15212 11.1749 7.58045C11.4619 8.00877 11.615 8.51234 11.615 9.02748C11.6142 9.71802 11.3389 10.3801 10.8494 10.8684C10.3598 11.3566 9.69613 11.6313 9.00384 11.6321Z" fill="#878787"/>
</svg>
