<svg width="24" height="24" viewBox="0 0 24 24" fill="none" xmlns="http://www.w3.org/2000/svg">
<path fill-rule="evenodd" clip-rule="evenodd" d="M16.3829 0.0882906L23.9117 7.61819C24.0295 7.73558 24.0295 7.92779 23.9117 8.04558L21.3476 10.6093C21.2301 10.7273 21.0379 10.7273 20.9205 10.6093L20.1916 9.88073L16.8121 13.26C17.5703 16.116 16.8306 19.2874 14.5913 21.5265C14.5394 21.5788 14.4868 21.6298 14.4335 21.6802C14.2374 21.8668 14.2689 21.8656 14.0794 21.6761L9.29636 16.8926L0 24.0002L7.10924 14.7055L2.31916 9.91531C2.12814 9.72388 2.14416 9.75396 2.33205 9.55648C2.37893 9.50745 2.42678 9.45823 2.47541 9.40939C4.7143 7.17029 7.886 6.42998 10.7415 7.18846L14.1206 3.80919L13.3915 3.08021C13.2741 2.96281 13.2741 2.77061 13.3915 2.65282L15.9554 0.0882906C16.0734 -0.0291047 16.2656 -0.0291047 16.3829 0.0882906Z" fill="#03A1CD"/>
</svg>
