<svg width="13" height="15" viewBox="0 0 13 15" fill="none" xmlns="http://www.w3.org/2000/svg">
<path d="M12.3909 5.49845C12.3892 5.49675 12.3875 5.49507 12.3858 5.49337L7.14177 0.24246C7.1001 0.201019 7.05406 0.164212 7.00448 0.132648L6.85349 0.050281L6.75053 0.0159506H6.67501C6.55931 -0.00531687 6.44068 -0.00531687 6.32495 0.0159506H6.25632H6.17396L6.05726 0.077726C5.99223 0.113054 5.93219 0.156908 5.87879 0.20813L0.614169 5.49337C0.261631 5.84311 0.259347 6.41244 0.609086 6.76498C0.610759 6.76668 0.612464 6.76836 0.614169 6.77006C0.969539 7.10912 1.52861 7.10912 1.88401 6.77006L5.02081 3.64011C5.15614 3.50742 5.37345 3.50954 5.50614 3.6449C5.56788 3.70787 5.60302 3.79216 5.60424 3.88036V14.1007C5.60421 14.5974 6.00674 15 6.50336 15C6.99998 15 7.40255 14.5975 7.40261 14.1009V14.1007V3.88036C7.40528 3.69085 7.56107 3.53934 7.75058 3.54201C7.83874 3.54326 7.92307 3.57836 7.98603 3.64011L11.1091 6.77006C11.4654 7.11349 12.0296 7.11349 12.3858 6.77006C12.7384 6.42032 12.7406 5.85099 12.3909 5.49845Z" fill="white"/>
</svg>
