<svg width="56" height="52" viewBox="0 0 56 52" fill="none" xmlns="http://www.w3.org/2000/svg">
<path fill-rule="evenodd" clip-rule="evenodd" d="M26.1812 19.6411C26.4196 19.7034 26.6235 19.8576 26.7483 20.0701C26.8731 20.2825 26.9085 20.5358 26.8468 20.7743C26.7851 21.0128 26.6313 21.2171 26.4192 21.3424C26.2071 21.4677 25.9539 21.5038 25.7153 21.4427C23.8715 20.9598 22.2286 19.904 21.0233 18.4275C19.818 16.951 19.1126 15.13 19.0086 13.2269C18.9046 11.3238 19.4075 9.43673 20.4447 7.83772C21.482 6.2387 23.0001 5.01025 24.7803 4.32935C26.5605 3.64846 28.5109 3.55028 30.3505 4.04895C32.1901 4.54763 33.8239 5.61742 35.0165 7.10418C36.2091 8.59095 36.8989 10.4179 36.9866 12.3219C37.0743 14.2259 36.5552 16.1085 35.5043 17.6986C35.1665 18.2127 34.673 18.6052 34.0961 18.8186C33.5192 19.0321 32.8891 19.0554 32.298 18.885C31.7069 18.7146 31.1858 18.3596 30.811 17.8718C30.4362 17.384 30.2273 16.789 30.215 16.174C29.4532 16.666 28.5493 16.8902 27.646 16.8112C26.7426 16.7322 25.8913 16.3545 25.2266 15.7377C24.5618 15.1209 24.1215 14.3003 23.9752 13.4053C23.8289 12.5104 23.9849 11.5923 24.4186 10.7959C24.8522 9.99952 25.5389 9.37033 26.37 9.00772C27.2012 8.64511 28.1294 8.56973 29.0082 8.79351C29.8869 9.01729 30.6661 9.52745 31.2226 10.2434C31.7791 10.9594 32.0811 11.8404 32.0811 12.7472V16.1085C32.0783 16.329 32.1474 16.5445 32.2779 16.7224C32.4084 16.9002 32.5933 17.0307 32.8046 17.0942C33.0158 17.1576 33.242 17.1506 33.4489 17.0741C33.6558 16.9977 33.8322 16.8559 33.9514 16.6703C34.7806 15.4111 35.1889 13.9212 35.1176 12.4152C35.0464 10.9091 34.4992 9.46448 33.5549 8.28911C32.6105 7.11375 31.3176 6.26825 29.8623 5.87426C28.4069 5.48027 26.8641 5.5581 25.4558 6.09654C24.0475 6.63499 22.8463 7.6063 22.025 8.87073C21.2037 10.1352 20.8047 11.6275 20.8853 13.1331C20.966 14.6387 21.5222 16.0799 22.4739 17.2493C23.4255 18.4188 24.7236 19.2562 26.1814 19.6411H26.1812ZM42.4496 13.5479C42.2467 17.243 40.636 20.72 37.9484 23.264C35.2609 25.8081 31.7008 27.2258 28.0001 27.2258C24.2994 27.2258 20.7394 25.8081 18.0518 23.264C15.3643 20.72 13.7535 17.243 13.5506 13.5479H3.28563C2.59374 13.5475 1.91962 13.767 1.36063 14.1747L25.8979 34.5622C26.4871 35.0562 27.2313 35.3269 28.0001 35.3269C28.7689 35.3269 29.5132 35.0562 30.1023 34.5622L54.6396 14.1747C54.0805 13.7671 53.4065 13.5477 52.7146 13.5479H42.4496ZM36.9132 3.83956C34.8511 1.77774 32.1378 0.494716 29.2358 0.209074C26.3337 -0.0765681 23.4224 0.652849 20.9979 2.27305C18.5733 3.89325 16.7855 6.30398 15.9391 9.09452C15.0927 11.8851 15.2401 14.8827 16.3561 17.5768C17.472 20.2709 19.4876 22.4947 22.0593 23.8693C24.6311 25.2439 27.5999 25.6843 30.46 25.1155C33.32 24.5466 35.8943 23.0037 37.7443 20.7496C39.5943 18.4955 40.6056 15.6697 40.6057 12.7536C40.6078 11.0978 40.2827 9.45788 39.649 7.9281C39.0153 6.39833 38.0856 5.00887 36.9132 3.83956ZM29.5653 11.1808C29.2032 10.8187 28.7268 10.5932 28.2172 10.5428C27.7076 10.4923 27.1962 10.6201 26.7702 10.9043C26.3442 11.1885 26.0298 11.6115 25.8806 12.1014C25.7314 12.5913 25.7566 13.1177 25.9519 13.5912C26.1471 14.0646 26.5005 14.4557 26.9517 14.6979C27.4029 14.9401 27.9241 15.0185 28.4266 14.9196C28.929 14.8208 29.3817 14.5509 29.7076 14.1558C30.0334 13.7607 30.2123 13.265 30.2138 12.7529V12.7472C30.2143 12.4562 30.1573 12.168 30.046 11.8992C29.9347 11.6304 29.7713 11.3862 29.5653 11.1808ZM30.2138 12.7472L54.6396 51.2253C54.0804 51.6325 53.4064 51.8517 52.7146 51.8516H3.28563C2.59383 51.8519 1.91979 51.6326 1.36063 51.2253L22.2031 33.9078L24.709 35.9911C25.6299 36.7675 26.7957 37.1933 28.0002 37.1933C29.2047 37.1933 30.3704 36.7675 31.2913 35.9911L33.798 33.9078L54.6396 51.2252L30.2138 12.7472ZM35.2516 32.7003L55.7768 49.754C55.9248 49.3755 56.0005 48.9727 56 48.5664V16.8344C56.0005 16.4276 55.9247 16.0242 55.7767 15.6453L35.2516 32.7003ZM0.223019 49.754L20.7484 32.7003L0.223019 15.6457C0.0750955 16.0245 -0.000547884 16.4277 3.4299e-06 16.8344V48.5664C-0.000587015 48.9727 0.07506 49.3755 0.223019 49.754Z" fill="#02C6F9"/>
</svg>
