<svg width="144" height="125" viewBox="0 0 144 125" fill="none" xmlns="http://www.w3.org/2000/svg">
<path d="M143.073 93.7947C142.336 92.0064 140.589 90.8438 138.656 90.8438H129.094V19.125C129.094 8.5773 120.516 0 109.969 0H57.375C55.442 0 53.698 1.16263 52.958 2.95093C52.2179 4.73923 52.6264 6.79367 53.9945 8.16174L73.1195 27.2867C74.016 28.1832 75.2323 28.6875 76.5 28.6875H100.406V90.8438H90.8438C88.9107 90.8438 87.1644 92.0064 86.4267 93.7947C85.6843 95.583 86.0952 97.6374 87.4633 99.0055L111.37 122.912C112.303 123.846 113.527 124.312 114.75 124.312C115.973 124.312 117.197 123.846 118.131 122.912L142.037 99.0055C143.405 97.6374 143.816 95.583 143.073 93.7947Z" fill="white"/>
<path d="M88.9247 115.628L70.318 97.0258C69.4215 96.1293 68.2052 95.625 66.9375 95.625H43.0313V33.4688H52.5938C54.5268 33.4688 56.2708 32.3061 57.0108 30.5178C57.7509 28.7295 57.3423 26.6751 55.9743 25.307L32.068 1.40076C30.2003 -0.466919 27.1747 -0.466919 25.307 1.40076L1.40077 25.307C0.0326997 26.6751 -0.375855 28.7295 0.364212 30.5178C1.10428 32.3061 2.84822 33.4688 4.78127 33.4688H14.3438V105.188C14.3438 115.735 22.9234 124.312 33.4688 124.312H86.0625H86.1559C88.7987 124.312 90.9371 122.174 90.9371 119.531C90.9371 117.92 90.1434 116.496 88.9247 115.628Z" fill="white"/>
</svg>
