<svg width="55" height="47" viewBox="0 0 55 47" fill="none" xmlns="http://www.w3.org/2000/svg">
<path d="M54.0831 35.2869C53.8082 34.6206 53.1577 34.1875 52.4375 34.1875H48.875V7.46875C48.875 3.53922 45.6795 0.34375 41.75 0.34375H22.1563C21.4361 0.34375 20.7864 0.776886 20.5107 1.44312C20.235 2.10934 20.3872 2.87473 20.8969 3.3844L28.0219 10.5094C28.3558 10.8434 28.809 11.0312 29.2813 11.0312H38.1875V34.1875H34.625C33.9049 34.1875 33.2543 34.6206 32.9794 35.2869C32.7029 35.9531 32.8559 36.7185 33.3656 37.2281L42.2719 46.1344C42.6198 46.4823 43.0755 46.6562 43.5313 46.6562C43.987 46.6562 44.4428 46.4823 44.7907 46.1344L53.6969 37.2281C54.2066 36.7185 54.3597 35.9531 54.0831 35.2869Z" fill="#00BAEB"/>
<path d="M33.9101 43.4208L26.9782 36.4906C26.6442 36.1566 26.191 35.9688 25.7188 35.9688H16.8125V12.8125H20.375C21.0952 12.8125 21.7449 12.3794 22.0206 11.7131C22.2963 11.0469 22.1441 10.2815 21.6344 9.77185L12.7282 0.865601C12.0324 0.1698 10.9052 0.1698 10.2094 0.865601L1.30311 9.77185C0.793432 10.2815 0.641226 11.0469 0.916937 11.7131C1.19265 12.3794 1.84235 12.8125 2.56251 12.8125H6.12501V39.5312C6.12501 43.4608 9.32134 46.6562 13.25 46.6562H32.8438H32.8785C33.8631 46.6562 34.6598 45.8596 34.6598 44.875C34.6598 44.2749 34.3641 43.7443 33.9101 43.4208Z" fill="#00BAEB"/>
</svg>
