<svg width="56" height="57" viewBox="0 0 56 57" fill="none" xmlns="http://www.w3.org/2000/svg">
<path fill-rule="evenodd" clip-rule="evenodd" d="M28.0584 0C12.6278 0 0.117188 12.7609 0.117188 28.5C0.117188 44.2391 12.6278 57 28.0584 57C43.4889 57 55.9995 44.2391 55.9995 28.5C55.9995 12.7609 43.4889 0 28.0584 0ZM41.0091 19.3824C40.59 23.8878 38.7691 34.8246 37.8448 39.8715C37.4536 42.009 36.6805 42.7239 35.9354 42.7927C34.3125 42.9447 33.0808 41.6979 31.5091 40.6481C29.0503 39.0046 27.6602 37.981 25.2736 36.3755C22.5144 34.5206 24.3026 33.5018 25.8743 31.8369C26.2864 31.3999 33.4347 24.7665 33.5744 24.1656C33.5907 24.0896 33.6093 23.8094 33.444 23.6621C33.2787 23.5149 33.0389 23.5648 32.8666 23.6051C32.6198 23.6621 28.6917 26.3103 21.0801 31.5495C19.9647 32.3309 18.9542 32.7109 18.0484 32.6919C17.0519 32.6705 15.1332 32.1171 13.7059 31.6421C11.9573 31.0626 10.5649 30.7539 10.6859 29.7706C10.7488 29.2576 11.4403 28.7327 12.7629 28.196C20.9078 24.5765 26.34 22.1896 29.0573 21.0354C36.8179 17.7436 38.4292 17.1712 39.4816 17.1523C40.7995 17.1333 41.1162 18.2424 41.0091 19.3824Z" fill="#02C6F9"/>
</svg>
