<svg width="73" height="61" viewBox="0 0 73 61" fill="none" xmlns="http://www.w3.org/2000/svg">
<path fill-rule="evenodd" clip-rule="evenodd" d="M5.10146 26.2929C24.4875 17.7831 37.4148 12.1729 43.8827 9.46254C62.3504 1.72351 66.188 0.379064 68.689 0.334572C69.2392 0.324889 70.4692 0.462292 71.2659 1.11371C72.4478 2.07998 72.4545 4.17739 72.3234 5.56554C71.3225 16.1599 66.9922 41.8693 64.7891 53.7351C63.8568 58.756 62.0213 60.4396 60.2445 60.6042C56.3828 60.9622 53.4503 58.0328 49.71 55.5627C43.8572 51.6971 40.5506 49.2909 34.8693 45.519C28.3037 41.1598 32.56 38.764 36.3017 34.8485C37.281 33.8238 54.2959 18.2309 54.6253 16.8163C54.6666 16.6394 54.7048 15.9799 54.3159 15.6318C53.927 15.2837 53.3532 15.4025 52.9391 15.4972C52.3521 15.6315 43.002 21.8581 24.8891 34.1766C22.2351 36.0129 19.8312 36.9074 17.6775 36.8606C15.303 36.809 10.7358 35.508 7.34038 34.396C3.17582 33.0321 -0.134111 32.3108 0.154229 29.9946C0.304373 28.7878 1.95336 27.5541 5.10146 26.2929Z" fill="white"/>
</svg>
