<svg width="52" height="43" viewBox="0 0 52 43" fill="none" xmlns="http://www.w3.org/2000/svg">
<path d="M46.6765 11.096C46.7068 11.5444 46.7068 11.9949 46.7068 12.4475C46.7068 26.2749 35.9732 42.2187 16.3518 42.2187V42.2102C10.556 42.2187 4.87933 40.591 0 37.5204C0.842833 37.6202 1.69 37.6691 2.53933 37.6712C7.345 37.6755 12.012 36.0945 15.7885 33.1832C11.2233 33.0982 7.21933 30.1785 5.82183 25.9157C7.42083 26.2175 9.0675 26.1559 10.6383 25.7372C5.65933 24.7512 2.08 20.4609 2.08 15.4799C2.08 15.4352 2.08 15.3906 2.08 15.3481C3.56417 16.1599 5.22383 16.6082 6.9225 16.6571C2.23383 13.5865 0.7865 7.47074 3.61833 2.68949C9.035 9.22599 17.0278 13.1997 25.6057 13.6226C24.7455 9.98887 25.922 6.18087 28.691 3.62449C32.9875 -0.338633 39.7453 -0.134633 43.7862 4.07924C46.176 3.61812 48.4662 2.75749 50.5613 1.53987C49.764 3.96237 48.0978 6.01937 45.8705 7.32837C47.9873 7.07974 50.0522 6.52512 52 5.67937C50.5678 7.78099 48.7652 9.61487 46.6765 11.096Z" fill="#02C6F9"/>
</svg>
