<svg width="88" height="70" viewBox="0 0 88 70" fill="none" xmlns="http://www.w3.org/2000/svg">
<path d="M78.991 17.456C79.0423 18.2121 79.0423 18.9717 79.0423 19.735C79.0423 43.0517 60.8777 69.9375 27.6723 69.9375V69.9232C17.864 69.9375 8.25733 67.1927 0 62.0148C1.42633 62.1832 2.86 62.2656 4.29733 62.2692C12.43 62.2763 20.328 59.6103 26.719 54.7012C18.9933 54.5578 12.2173 49.6343 9.85233 42.4462C12.5583 42.955 15.345 42.8511 18.0033 42.1452C9.57733 40.4825 3.52 33.2477 3.52 24.8484C3.52 24.7732 3.52 24.6979 3.52 24.6262C6.03167 25.9951 8.84033 26.7512 11.715 26.8336C3.78033 21.6557 1.331 11.3428 6.12333 3.28033C15.29 14.3027 28.8163 21.0035 43.3327 21.7166C41.877 15.5891 43.868 9.16775 48.554 4.857C55.825 -1.82592 67.2613 -1.48192 74.0997 5.62383C78.144 4.84625 82.0197 3.395 85.5653 1.34175C84.216 5.42675 81.3963 8.89542 77.627 11.1027C81.2093 10.6835 84.7037 9.74825 88 8.32208C85.5763 11.866 82.5257 14.9584 78.991 17.456Z" fill="white"/>
</svg>
