<svg width="20" height="18" viewBox="0 0 20 18" fill="none" xmlns="http://www.w3.org/2000/svg">
<path d="M0 1.6C0 1.03995 0 0.759921 0.108993 0.546009C0.204867 0.357847 0.357847 0.204867 0.546009 0.108993C0.759921 0 1.03995 0 1.6 0H18.4C18.9601 0 19.2401 0 19.454 0.108993C19.6422 0.204867 19.7951 0.357847 19.891 0.546009C20 0.759921 20 1.03995 20 1.6V2.26939C20 2.53819 20 2.67259 19.9672 2.79756C19.938 2.90831 19.8901 3.01323 19.8255 3.10776C19.7526 3.21443 19.651 3.30245 19.4479 3.4785L13.0521 9.0215C12.849 9.19755 12.7474 9.28557 12.6745 9.39224C12.6099 9.48677 12.562 9.59169 12.5328 9.70244C12.5 9.82741 12.5 9.96181 12.5 10.2306V15.4584C12.5 15.6539 12.5 15.7517 12.4685 15.8363C12.4406 15.911 12.3953 15.9779 12.3363 16.0315C12.2695 16.0922 12.1787 16.1285 11.9971 16.2012L8.59711 17.5612C8.22957 17.7082 8.0458 17.7817 7.89827 17.751C7.76927 17.7242 7.65605 17.6476 7.58325 17.5377C7.5 17.4122 7.5 17.2142 7.5 16.8184V10.2306C7.5 9.96181 7.5 9.82741 7.46715 9.70244C7.43805 9.59169 7.39014 9.48677 7.32551 9.39224C7.25258 9.28557 7.15102 9.19755 6.94789 9.0215L0.552111 3.4785C0.348984 3.30245 0.247421 3.21443 0.174492 3.10776C0.109865 3.01323 0.061953 2.90831 0.0328461 2.79756C0 2.67259 0 2.53819 0 2.26939V1.6Z" fill="white"/>
</svg>
