<svg width="241" height="409" viewBox="0 0 241 409" fill="none" xmlns="http://www.w3.org/2000/svg">
<g clip-path="url(#clip0_6153_50052)">
<path d="M236.641 396.917L236.641 12.5718C236.641 8.1535 233.059 4.57178 228.641 4.57178L12.5998 4.57177C8.18153 4.57177 4.59982 8.15351 4.59982 12.5718L4.59981 396.917C4.59981 401.335 8.18152 404.917 12.5998 404.917L228.641 404.917C233.059 404.917 236.641 401.335 236.641 396.917Z" fill="#40A2BF" stroke="#212C2F" stroke-width="6"/>
<path d="M220.609 374.134L220.609 35.1997C220.609 26.9154 213.894 20.1997 205.609 20.1997L35.5498 20.1997C27.2656 20.1997 20.5498 26.9154 20.5498 35.1997L20.5498 374.134C20.5498 382.418 27.2655 389.134 35.5498 389.134L205.609 389.134C213.894 389.134 220.609 382.418 220.609 374.134Z" stroke="white" stroke-width="4" stroke-linecap="round" stroke-linejoin="round"/>
<path d="M20.5472 171.985L220.609 171.985" stroke="white" stroke-width="4" stroke-linecap="round" stroke-linejoin="round"/>
<path d="M20.5472 236.884L220.609 236.884" stroke="white" stroke-width="4" stroke-linecap="round" stroke-linejoin="round"/>
<path d="M226.383 207.616L15.8701 207.616C15.8452 207.616 15.8251 207.596 15.8251 207.571C15.8251 207.551 15.8387 207.533 15.8581 207.528C17.1612 207.151 18.1141 205.948 18.1141 204.521C18.1141 203.749 19.0965 201.609 19.8689 201.609L221.943 201.609C222.716 201.609 223.698 203.749 223.698 204.521C223.698 206.098 224.865 207.404 226.383 207.616Z" fill="white"/>
<path d="M14.9876 207.652C13.2622 207.652 11.863 206.253 11.863 204.522C11.863 202.797 13.2622 201.397 14.9876 201.397C15.3831 201.397 15.7638 201.472 16.1148 201.61C17.2866 202.06 18.1172 203.192 18.1172 204.522C18.1172 205.961 17.1482 207.172 15.8281 207.538C15.5612 207.612 15.2793 207.652 14.9876 207.652Z" fill="white"/>
<path d="M226.836 207.652C226.683 207.652 226.535 207.641 226.391 207.617C224.874 207.404 223.707 206.099 223.707 204.522C223.707 203.192 224.537 202.06 225.709 201.61C226.06 201.471 226.441 201.397 226.836 201.397C228.562 201.397 229.961 202.796 229.961 204.522C229.961 206.252 228.562 207.652 226.836 207.652Z" fill="white"/>
<path d="M233.719 395L233.719 14.6548C233.719 10.7888 230.585 7.65479 226.719 7.65478L14.6779 7.65478C10.812 7.65478 7.67795 10.7888 7.67795 14.6548L7.67793 395C7.67793 398.866 10.8119 402 14.6779 402L226.719 402C230.585 402 233.719 398.866 233.719 395Z" stroke="#3A7384" stroke-width="3" stroke-linecap="round" stroke-linejoin="round"/>
<path d="M226.375 207.616L15.8173 207.616L15.8173 207.536C17.1373 207.171 18.1062 205.959 18.1062 204.521C18.1062 203.191 17.2757 202.059 16.104 201.609L225.693 201.609C224.521 202.059 223.691 203.191 223.691 204.521C223.691 206.098 224.857 207.403 226.375 207.616Z" stroke="#3A7384" stroke-linecap="round" stroke-linejoin="round"/>
<path d="M14.9876 207.651C13.2622 207.651 11.863 206.252 11.863 204.521C11.863 202.796 13.2622 201.396 14.9876 201.396C15.3831 201.396 15.7638 201.471 16.1148 201.609C17.2866 202.059 18.1172 203.191 18.1172 204.521C18.1172 205.96 17.1482 207.171 15.8281 207.537C15.5612 207.611 15.2793 207.651 14.9876 207.651Z" stroke="#3A7384" stroke-linecap="round" stroke-linejoin="round"/>
<path d="M226.836 207.651C226.683 207.651 226.535 207.641 226.391 207.616C224.874 207.404 223.707 206.099 223.707 204.521C223.707 203.191 224.537 202.059 225.709 201.609C226.06 201.471 226.441 201.396 226.836 201.396C228.562 201.396 229.961 202.796 229.961 204.521C229.961 206.252 228.562 207.651 226.836 207.651Z" stroke="#3A7384" stroke-linecap="round" stroke-linejoin="round"/>
<path d="M17.8864 203.325L223.945 203.325" stroke="#3A7384" stroke-linecap="round" stroke-linejoin="round"/>
<path d="M18.097 204.808L223.711 204.808" stroke="#3A7384" stroke-linecap="round" stroke-linejoin="round"/>
<path d="M17.5682 206.291L224.25 206.291" stroke="#3A7384" stroke-linecap="round" stroke-linejoin="round"/>
<path d="M223.492 207.616L223.492 201.609" stroke="#3A7384" stroke-linecap="round" stroke-linejoin="round"/>
<path d="M221.492 207.616L221.492 201.609" stroke="#3A7384" stroke-linecap="round" stroke-linejoin="round"/>
<path d="M219.5 207.616L219.5 201.609" stroke="#3A7384" stroke-linecap="round" stroke-linejoin="round"/>
<path d="M217.5 207.616L217.5 201.609" stroke="#3A7384" stroke-linecap="round" stroke-linejoin="round"/>
<path d="M215.5 207.616L215.5 201.609" stroke="#3A7384" stroke-linecap="round" stroke-linejoin="round"/>
<path d="M213.5 207.616L213.5 201.609" stroke="#3A7384" stroke-linecap="round" stroke-linejoin="round"/>
<path d="M211.5 207.616L211.5 201.609" stroke="#3A7384" stroke-linecap="round" stroke-linejoin="round"/>
<path d="M209.492 207.616L209.492 201.609" stroke="#3A7384" stroke-linecap="round" stroke-linejoin="round"/>
<path d="M207.5 207.616L207.5 201.609" stroke="#3A7384" stroke-linecap="round" stroke-linejoin="round"/>
<path d="M205.5 207.616L205.5 201.609" stroke="#3A7384" stroke-linecap="round" stroke-linejoin="round"/>
<path d="M203.5 207.616L203.5 201.609" stroke="#3A7384" stroke-linecap="round" stroke-linejoin="round"/>
<path d="M201.5 207.616L201.5 201.609" stroke="#3A7384" stroke-linecap="round" stroke-linejoin="round"/>
<path d="M199.5 207.616L199.5 201.609" stroke="#3A7384" stroke-linecap="round" stroke-linejoin="round"/>
<path d="M197.508 207.616L197.508 201.609" stroke="#3A7384" stroke-linecap="round" stroke-linejoin="round"/>
<path d="M195.5 207.616L195.5 201.609" stroke="#3A7384" stroke-linecap="round" stroke-linejoin="round"/>
<path d="M193.5 207.616L193.5 201.609" stroke="#3A7384" stroke-linecap="round" stroke-linejoin="round"/>
<path d="M191.5 207.616L191.5 201.609" stroke="#3A7384" stroke-linecap="round" stroke-linejoin="round"/>
<path d="M189.508 207.616L189.508 201.609" stroke="#3A7384" stroke-linecap="round" stroke-linejoin="round"/>
<path d="M187.508 207.616L187.508 201.609" stroke="#3A7384" stroke-linecap="round" stroke-linejoin="round"/>
<path d="M185.508 207.616L185.508 201.609" stroke="#3A7384" stroke-linecap="round" stroke-linejoin="round"/>
<path d="M183.516 207.616L183.516 201.609" stroke="#3A7384" stroke-linecap="round" stroke-linejoin="round"/>
<path d="M181.5 207.616L181.5 201.609" stroke="#3A7384" stroke-linecap="round" stroke-linejoin="round"/>
<path d="M179.508 207.616L179.508 201.609" stroke="#3A7384" stroke-linecap="round" stroke-linejoin="round"/>
<path d="M177.516 207.616L177.516 201.609" stroke="#3A7384" stroke-linecap="round" stroke-linejoin="round"/>
<path d="M175.516 207.616L175.516 201.609" stroke="#3A7384" stroke-linecap="round" stroke-linejoin="round"/>
<path d="M173.508 207.616L173.508 201.609" stroke="#3A7384" stroke-linecap="round" stroke-linejoin="round"/>
<path d="M171.516 207.616L171.516 201.609" stroke="#3A7384" stroke-linecap="round" stroke-linejoin="round"/>
<path d="M169.516 207.616L169.516 201.609" stroke="#3A7384" stroke-linecap="round" stroke-linejoin="round"/>
<path d="M167.508 207.616L167.508 201.609" stroke="#3A7384" stroke-linecap="round" stroke-linejoin="round"/>
<path d="M165.516 207.616L165.516 201.609" stroke="#3A7384" stroke-linecap="round" stroke-linejoin="round"/>
<path d="M163.516 207.616L163.516 201.609" stroke="#3A7384" stroke-linecap="round" stroke-linejoin="round"/>
<path d="M161.516 207.616L161.516 201.609" stroke="#3A7384" stroke-linecap="round" stroke-linejoin="round"/>
<path d="M159.516 207.616L159.516 201.609" stroke="#3A7384" stroke-linecap="round" stroke-linejoin="round"/>
<path d="M157.516 207.616L157.516 201.609" stroke="#3A7384" stroke-linecap="round" stroke-linejoin="round"/>
<path d="M155.516 207.616L155.516 201.609" stroke="#3A7384" stroke-linecap="round" stroke-linejoin="round"/>
<path d="M153.516 207.616L153.516 201.609" stroke="#3A7384" stroke-linecap="round" stroke-linejoin="round"/>
<path d="M151.516 207.616L151.516 201.609" stroke="#3A7384" stroke-linecap="round" stroke-linejoin="round"/>
<path d="M149.523 207.616L149.523 201.609" stroke="#3A7384" stroke-linecap="round" stroke-linejoin="round"/>
<path d="M147.516 207.616L147.516 201.609" stroke="#3A7384" stroke-linecap="round" stroke-linejoin="round"/>
<path d="M145.516 207.616L145.516 201.609" stroke="#3A7384" stroke-linecap="round" stroke-linejoin="round"/>
<path d="M143.516 207.616L143.516 201.609" stroke="#3A7384" stroke-linecap="round" stroke-linejoin="round"/>
<path d="M141.516 207.616L141.516 201.609" stroke="#3A7384" stroke-linecap="round" stroke-linejoin="round"/>
<path d="M139.523 207.616L139.523 201.609" stroke="#3A7384" stroke-linecap="round" stroke-linejoin="round"/>
<path d="M137.516 207.616L137.516 201.609" stroke="#3A7384" stroke-linecap="round" stroke-linejoin="round"/>
<path d="M135.523 207.616L135.523 201.609" stroke="#3A7384" stroke-linecap="round" stroke-linejoin="round"/>
<path d="M133.516 207.616L133.516 201.609" stroke="#3A7384" stroke-linecap="round" stroke-linejoin="round"/>
<path d="M131.516 207.616L131.516 201.609" stroke="#3A7384" stroke-linecap="round" stroke-linejoin="round"/>
<path d="M129.523 207.616L129.523 201.609" stroke="#3A7384" stroke-linecap="round" stroke-linejoin="round"/>
<path d="M127.531 207.616L127.531 201.609" stroke="#3A7384" stroke-linecap="round" stroke-linejoin="round"/>
<path d="M125.523 207.616L125.523 201.609" stroke="#3A7384" stroke-linecap="round" stroke-linejoin="round"/>
<path d="M123.523 207.616L123.523 201.609" stroke="#3A7384" stroke-linecap="round" stroke-linejoin="round"/>
<path d="M121.531 207.616L121.531 201.609" stroke="#3A7384" stroke-linecap="round" stroke-linejoin="round"/>
<path d="M119.523 207.616L119.523 201.609" stroke="#3A7384" stroke-linecap="round" stroke-linejoin="round"/>
<path d="M117.523 207.616L117.523 201.609" stroke="#3A7384" stroke-linecap="round" stroke-linejoin="round"/>
<path d="M115.531 207.616L115.531 201.609" stroke="#3A7384" stroke-linecap="round" stroke-linejoin="round"/>
<path d="M113.531 207.616L113.531 201.609" stroke="#3A7384" stroke-linecap="round" stroke-linejoin="round"/>
<path d="M111.531 207.616L111.531 201.609" stroke="#3A7384" stroke-linecap="round" stroke-linejoin="round"/>
<path d="M109.531 207.616L109.531 201.609" stroke="#3A7384" stroke-linecap="round" stroke-linejoin="round"/>
<path d="M107.531 207.616L107.531 201.609" stroke="#3A7384" stroke-linecap="round" stroke-linejoin="round"/>
<path d="M105.523 207.616L105.523 201.609" stroke="#3A7384" stroke-linecap="round" stroke-linejoin="round"/>
<path d="M103.531 207.616L103.531 201.609" stroke="#3A7384" stroke-linecap="round" stroke-linejoin="round"/>
<path d="M101.539 207.616L101.539 201.609" stroke="#3A7384" stroke-linecap="round" stroke-linejoin="round"/>
<path d="M99.5312 207.616L99.5312 201.609" stroke="#3A7384" stroke-linecap="round" stroke-linejoin="round"/>
<path d="M97.5312 207.616L97.5312 201.609" stroke="#3A7384" stroke-linecap="round" stroke-linejoin="round"/>
<path d="M95.5391 207.616L95.5391 201.609" stroke="#3A7384" stroke-linecap="round" stroke-linejoin="round"/>
<path d="M93.5312 207.616L93.5312 201.609" stroke="#3A7384" stroke-linecap="round" stroke-linejoin="round"/>
<path d="M91.5391 207.616L91.5391 201.609" stroke="#3A7384" stroke-linecap="round" stroke-linejoin="round"/>
<path d="M89.5312 207.616L89.5312 201.609" stroke="#3A7384" stroke-linecap="round" stroke-linejoin="round"/>
<path d="M87.5391 207.616L87.5391 201.609" stroke="#3A7384" stroke-linecap="round" stroke-linejoin="round"/>
<path d="M85.5391 207.616L85.5391 201.609" stroke="#3A7384" stroke-linecap="round" stroke-linejoin="round"/>
<path d="M83.5312 207.616L83.5312 201.609" stroke="#3A7384" stroke-linecap="round" stroke-linejoin="round"/>
<path d="M81.5312 207.616L81.5312 201.609" stroke="#3A7384" stroke-linecap="round" stroke-linejoin="round"/>
<path d="M79.5391 207.616L79.5391 201.609" stroke="#3A7384" stroke-linecap="round" stroke-linejoin="round"/>
<path d="M77.5391 207.616L77.5391 201.609" stroke="#3A7384" stroke-linecap="round" stroke-linejoin="round"/>
<path d="M75.5312 207.616L75.5312 201.609" stroke="#3A7384" stroke-linecap="round" stroke-linejoin="round"/>
<path d="M73.5469 207.616L73.5469 201.609" stroke="#3A7384" stroke-linecap="round" stroke-linejoin="round"/>
<path d="M71.5469 207.616L71.5469 201.609" stroke="#3A7384" stroke-linecap="round" stroke-linejoin="round"/>
<path d="M69.5391 207.616L69.5391 201.609" stroke="#3A7384" stroke-linecap="round" stroke-linejoin="round"/>
<path d="M67.5391 207.617L67.5391 201.609" stroke="#3A7384" stroke-linecap="round" stroke-linejoin="round"/>
<path d="M65.5469 207.617L65.5469 201.609" stroke="#3A7384" stroke-linecap="round" stroke-linejoin="round"/>
<path d="M63.5469 207.617L63.5469 201.609" stroke="#3A7384" stroke-linecap="round" stroke-linejoin="round"/>
<path d="M61.5391 207.617L61.5391 201.609" stroke="#3A7384" stroke-linecap="round" stroke-linejoin="round"/>
<path d="M59.5469 207.617L59.5469 201.609" stroke="#3A7384" stroke-linecap="round" stroke-linejoin="round"/>
<path d="M57.5469 207.617L57.5469 201.609" stroke="#3A7384" stroke-linecap="round" stroke-linejoin="round"/>
<path d="M55.5391 207.616L55.5391 201.609" stroke="#3A7384" stroke-linecap="round" stroke-linejoin="round"/>
<path d="M53.5547 207.617L53.5547 201.609" stroke="#3A7384" stroke-linecap="round" stroke-linejoin="round"/>
<path d="M51.5469 207.617L51.5469 201.609" stroke="#3A7384" stroke-linecap="round" stroke-linejoin="round"/>
<path d="M49.5469 207.617L49.5469 201.609" stroke="#3A7384" stroke-linecap="round" stroke-linejoin="round"/>
<path d="M47.5469 207.617L47.5469 201.609" stroke="#3A7384" stroke-linecap="round" stroke-linejoin="round"/>
<path d="M45.5469 207.617L45.5469 201.609" stroke="#3A7384" stroke-linecap="round" stroke-linejoin="round"/>
<path d="M43.5469 207.617L43.5469 201.609" stroke="#3A7384" stroke-linecap="round" stroke-linejoin="round"/>
<path d="M41.5469 207.617L41.5469 201.609" stroke="#3A7384" stroke-linecap="round" stroke-linejoin="round"/>
<path d="M39.5547 207.617L39.5547 201.609" stroke="#3A7384" stroke-linecap="round" stroke-linejoin="round"/>
<path d="M37.5469 207.617L37.5469 201.609" stroke="#3A7384" stroke-linecap="round" stroke-linejoin="round"/>
<path d="M35.5469 207.617L35.5469 201.609" stroke="#3A7384" stroke-linecap="round" stroke-linejoin="round"/>
<path d="M33.5547 207.617L33.5547 201.609" stroke="#3A7384" stroke-linecap="round" stroke-linejoin="round"/>
<path d="M31.5547 207.617L31.5547 201.609" stroke="#3A7384" stroke-linecap="round" stroke-linejoin="round"/>
<path d="M29.5547 207.617L29.5547 201.609" stroke="#3A7384" stroke-linecap="round" stroke-linejoin="round"/>
<path d="M27.5469 207.617L27.5469 201.609" stroke="#3A7384" stroke-linecap="round" stroke-linejoin="round"/>
<path d="M25.5547 207.617L25.5547 201.609" stroke="#3A7384" stroke-linecap="round" stroke-linejoin="round"/>
<path d="M23.5547 207.617L23.5547 201.609" stroke="#3A7384" stroke-linecap="round" stroke-linejoin="round"/>
<path d="M21.5547 207.617L21.5547 201.609" stroke="#3A7384" stroke-linecap="round" stroke-linejoin="round"/>
<path d="M19.5547 207.617L19.5547 201.609" stroke="#3A7384" stroke-linecap="round" stroke-linejoin="round"/>
</g>
<defs>
<clipPath id="clip0_6153_50052">
<rect width="409" height="241" fill="white" transform="translate(241) rotate(90)"/>
</clipPath>
</defs>
</svg>
