<svg width="462" height="787" viewBox="0 0 462 787" fill="none" xmlns="http://www.w3.org/2000/svg">
<g clip-path="url(#clip0_5830_46192)">
<path d="M454.687 768.993L454.687 18.1545C454.688 12.3556 449.986 7.65454 444.188 7.65454L18.1871 7.65452C12.3881 7.65452 7.6871 12.3556 7.6871 18.1545L7.68707 768.993C7.68707 774.792 12.388 779.493 18.1871 779.493L444.187 779.493C449.986 779.493 454.687 774.792 454.687 768.993Z" fill="#40A2BF" stroke="#212C2F" stroke-width="11"/>
<path d="M424.055 734.331L424.055 52.5183C424.055 44.234 417.339 37.5183 409.055 37.5183L53.1685 37.5183C44.8842 37.5183 38.1685 44.234 38.1685 52.5183L38.1684 734.331C38.1684 742.615 44.8842 749.331 53.1685 749.331L409.055 749.331C417.339 749.331 424.055 742.615 424.055 734.331Z" stroke="white" stroke-width="5" stroke-linecap="round" stroke-linejoin="round"/>
<path d="M38.1634 330.37L424.055 330.37" stroke="white" stroke-width="5" stroke-linecap="round" stroke-linejoin="round"/>
<path d="M38.1634 455.584L424.055 455.584" stroke="white" stroke-width="5" stroke-linecap="round" stroke-linejoin="round"/>
<path d="M435.203 399.115L29.1542 399.115C29.1063 399.115 29.0675 399.076 29.0675 399.028C29.0675 398.989 29.0936 398.955 29.1311 398.944C31.6446 398.218 33.4825 395.896 33.4825 393.144C33.4825 391.654 35.3782 387.526 36.8687 387.526L426.639 387.526C428.13 387.526 430.025 391.654 430.025 393.144C430.025 396.187 432.276 398.705 435.203 399.115Z" fill="white"/>
<path d="M27.4482 399.182C24.1202 399.182 21.4217 396.483 21.4217 393.144C21.4217 389.815 24.1202 387.116 27.4482 387.116C28.2111 387.116 28.9454 387.259 29.6224 387.526C31.8824 388.394 33.4844 390.578 33.4844 393.144C33.4844 395.92 31.6154 398.257 29.0693 398.962C28.5545 399.106 28.0109 399.182 27.4482 399.182Z" fill="white"/>
<path d="M436.059 399.182C435.764 399.182 435.478 399.163 435.201 399.115C432.274 398.705 430.023 396.187 430.023 393.144C430.023 390.578 431.625 388.394 433.885 387.526C434.562 387.259 435.297 387.116 436.059 387.116C439.387 387.116 442.086 389.815 442.086 393.144C442.086 396.483 439.387 399.182 436.059 399.182Z" fill="white"/>
<path d="M449.352 767.154L449.352 20.3154C449.352 16.4494 446.218 13.3154 442.352 13.3154L20.3512 13.3154C16.4852 13.3154 13.3512 16.4494 13.3512 20.3154L13.3511 767.154C13.3511 771.02 16.4851 774.154 20.3511 774.154L442.352 774.154C446.218 774.154 449.352 771.02 449.352 767.154Z" stroke="#3A7384" stroke-width="3" stroke-linecap="round" stroke-linejoin="round"/>
<path d="M435.203 399.115L29.0675 399.115L29.0675 398.962C31.6136 398.257 33.4825 395.92 33.4825 393.144C33.4825 390.578 31.8806 388.394 29.6205 387.526L433.887 387.526C431.627 388.394 430.025 390.578 430.025 393.144C430.025 396.187 432.276 398.705 435.203 399.115Z" stroke="#3A7384" stroke-linecap="round" stroke-linejoin="round"/>
<path d="M27.4482 399.182C24.1202 399.182 21.4217 396.483 21.4217 393.144C21.4217 389.815 24.1202 387.116 27.4482 387.116C28.2111 387.116 28.9454 387.259 29.6224 387.526C31.8824 388.394 33.4844 390.578 33.4844 393.144C33.4844 395.92 31.6154 398.257 29.0693 398.962C28.5545 399.106 28.0109 399.182 27.4482 399.182Z" stroke="#3A7384" stroke-linecap="round" stroke-linejoin="round"/>
<path d="M436.059 399.182C435.764 399.182 435.478 399.163 435.201 399.115C432.274 398.705 430.023 396.187 430.023 393.144C430.023 390.578 431.625 388.394 433.885 387.526C434.562 387.259 435.297 387.115 436.059 387.115C439.387 387.115 442.086 389.815 442.086 393.144C442.086 396.483 439.387 399.182 436.059 399.182Z" stroke="#3A7384" stroke-linecap="round" stroke-linejoin="round"/>
<path d="M33.0262 390.836L430.484 390.836" stroke="#3A7384" stroke-linecap="round" stroke-linejoin="round"/>
<path d="M33.447 393.697L430.047 393.697" stroke="#3A7384" stroke-linecap="round" stroke-linejoin="round"/>
<path d="M32.4263 396.559L431.086 396.559" stroke="#3A7384" stroke-linecap="round" stroke-linejoin="round"/>
<path d="M429.633 399.115L429.633 387.526" stroke="#3A7384" stroke-linecap="round" stroke-linejoin="round"/>
<path d="M425.773 399.115L425.773 387.526" stroke="#3A7384" stroke-linecap="round" stroke-linejoin="round"/>
<path d="M421.922 399.115L421.922 387.526" stroke="#3A7384" stroke-linecap="round" stroke-linejoin="round"/>
<path d="M418.062 399.115L418.062 387.526" stroke="#3A7384" stroke-linecap="round" stroke-linejoin="round"/>
<path d="M414.203 399.115L414.203 387.526" stroke="#3A7384" stroke-linecap="round" stroke-linejoin="round"/>
<path d="M410.352 399.115L410.352 387.526" stroke="#3A7384" stroke-linecap="round" stroke-linejoin="round"/>
<path d="M406.492 399.115L406.492 387.526" stroke="#3A7384" stroke-linecap="round" stroke-linejoin="round"/>
<path d="M402.633 399.115L402.633 387.526" stroke="#3A7384" stroke-linecap="round" stroke-linejoin="round"/>
<path d="M398.781 399.115L398.781 387.526" stroke="#3A7384" stroke-linecap="round" stroke-linejoin="round"/>
<path d="M394.922 399.115L394.922 387.526" stroke="#3A7384" stroke-linecap="round" stroke-linejoin="round"/>
<path d="M391.062 399.115L391.062 387.526" stroke="#3A7384" stroke-linecap="round" stroke-linejoin="round"/>
<path d="M387.211 399.115L387.211 387.526" stroke="#3A7384" stroke-linecap="round" stroke-linejoin="round"/>
<path d="M383.352 399.115L383.352 387.526" stroke="#3A7384" stroke-linecap="round" stroke-linejoin="round"/>
<path d="M379.492 399.115L379.492 387.526" stroke="#3A7384" stroke-linecap="round" stroke-linejoin="round"/>
<path d="M375.641 399.115L375.641 387.526" stroke="#3A7384" stroke-linecap="round" stroke-linejoin="round"/>
<path d="M371.781 399.115L371.781 387.526" stroke="#3A7384" stroke-linecap="round" stroke-linejoin="round"/>
<path d="M367.922 399.115L367.922 387.526" stroke="#3A7384" stroke-linecap="round" stroke-linejoin="round"/>
<path d="M364.07 399.115L364.07 387.526" stroke="#3A7384" stroke-linecap="round" stroke-linejoin="round"/>
<path d="M360.219 399.115L360.219 387.526" stroke="#3A7384" stroke-linecap="round" stroke-linejoin="round"/>
<path d="M356.359 399.115L356.359 387.526" stroke="#3A7384" stroke-linecap="round" stroke-linejoin="round"/>
<path d="M352.508 399.115L352.508 387.526" stroke="#3A7384" stroke-linecap="round" stroke-linejoin="round"/>
<path d="M348.648 399.115L348.648 387.526" stroke="#3A7384" stroke-linecap="round" stroke-linejoin="round"/>
<path d="M344.789 399.115L344.789 387.526" stroke="#3A7384" stroke-linecap="round" stroke-linejoin="round"/>
<path d="M340.937 399.115L340.938 387.526" stroke="#3A7384" stroke-linecap="round" stroke-linejoin="round"/>
<path d="M337.078 399.115L337.078 387.526" stroke="#3A7384" stroke-linecap="round" stroke-linejoin="round"/>
<path d="M333.219 399.115L333.219 387.526" stroke="#3A7384" stroke-linecap="round" stroke-linejoin="round"/>
<path d="M329.367 399.115L329.367 387.526" stroke="#3A7384" stroke-linecap="round" stroke-linejoin="round"/>
<path d="M325.508 399.115L325.508 387.526" stroke="#3A7384" stroke-linecap="round" stroke-linejoin="round"/>
<path d="M321.648 399.115L321.648 387.526" stroke="#3A7384" stroke-linecap="round" stroke-linejoin="round"/>
<path d="M317.797 399.115L317.797 387.526" stroke="#3A7384" stroke-linecap="round" stroke-linejoin="round"/>
<path d="M313.937 399.115L313.938 387.526" stroke="#3A7384" stroke-linecap="round" stroke-linejoin="round"/>
<path d="M310.078 399.115L310.078 387.526" stroke="#3A7384" stroke-linecap="round" stroke-linejoin="round"/>
<path d="M306.227 399.115L306.227 387.526" stroke="#3A7384" stroke-linecap="round" stroke-linejoin="round"/>
<path d="M302.367 399.115L302.367 387.526" stroke="#3A7384" stroke-linecap="round" stroke-linejoin="round"/>
<path d="M298.508 399.115L298.508 387.526" stroke="#3A7384" stroke-linecap="round" stroke-linejoin="round"/>
<path d="M294.656 399.115L294.656 387.526" stroke="#3A7384" stroke-linecap="round" stroke-linejoin="round"/>
<path d="M290.797 399.115L290.797 387.526" stroke="#3A7384" stroke-linecap="round" stroke-linejoin="round"/>
<path d="M286.937 399.115L286.938 387.526" stroke="#3A7384" stroke-linecap="round" stroke-linejoin="round"/>
<path d="M283.078 399.115L283.078 387.526" stroke="#3A7384" stroke-linecap="round" stroke-linejoin="round"/>
<path d="M279.227 399.115L279.227 387.526" stroke="#3A7384" stroke-linecap="round" stroke-linejoin="round"/>
<path d="M275.367 399.115L275.367 387.526" stroke="#3A7384" stroke-linecap="round" stroke-linejoin="round"/>
<path d="M271.508 399.115L271.508 387.526" stroke="#3A7384" stroke-linecap="round" stroke-linejoin="round"/>
<path d="M267.656 399.115L267.656 387.526" stroke="#3A7384" stroke-linecap="round" stroke-linejoin="round"/>
<path d="M263.797 399.115L263.797 387.526" stroke="#3A7384" stroke-linecap="round" stroke-linejoin="round"/>
<path d="M259.937 399.115L259.938 387.526" stroke="#3A7384" stroke-linecap="round" stroke-linejoin="round"/>
<path d="M256.086 399.115L256.086 387.526" stroke="#3A7384" stroke-linecap="round" stroke-linejoin="round"/>
<path d="M252.227 399.115L252.227 387.526" stroke="#3A7384" stroke-linecap="round" stroke-linejoin="round"/>
<path d="M248.375 399.115L248.375 387.526" stroke="#3A7384" stroke-linecap="round" stroke-linejoin="round"/>
<path d="M244.523 399.115L244.523 387.526" stroke="#3A7384" stroke-linecap="round" stroke-linejoin="round"/>
<path d="M240.664 399.115L240.664 387.526" stroke="#3A7384" stroke-linecap="round" stroke-linejoin="round"/>
<path d="M236.805 399.115L236.805 387.526" stroke="#3A7384" stroke-linecap="round" stroke-linejoin="round"/>
<path d="M232.953 399.115L232.953 387.526" stroke="#3A7384" stroke-linecap="round" stroke-linejoin="round"/>
<path d="M229.094 399.115L229.094 387.526" stroke="#3A7384" stroke-linecap="round" stroke-linejoin="round"/>
<path d="M225.234 399.115L225.234 387.526" stroke="#3A7384" stroke-linecap="round" stroke-linejoin="round"/>
<path d="M221.383 399.115L221.383 387.526" stroke="#3A7384" stroke-linecap="round" stroke-linejoin="round"/>
<path d="M217.523 399.115L217.523 387.526" stroke="#3A7384" stroke-linecap="round" stroke-linejoin="round"/>
<path d="M213.664 399.115L213.664 387.526" stroke="#3A7384" stroke-linecap="round" stroke-linejoin="round"/>
<path d="M209.812 399.115L209.812 387.526" stroke="#3A7384" stroke-linecap="round" stroke-linejoin="round"/>
<path d="M205.953 399.115L205.953 387.526" stroke="#3A7384" stroke-linecap="round" stroke-linejoin="round"/>
<path d="M202.094 399.115L202.094 387.526" stroke="#3A7384" stroke-linecap="round" stroke-linejoin="round"/>
<path d="M198.242 399.115L198.242 387.526" stroke="#3A7384" stroke-linecap="round" stroke-linejoin="round"/>
<path d="M194.383 399.115L194.383 387.526" stroke="#3A7384" stroke-linecap="round" stroke-linejoin="round"/>
<path d="M190.523 399.115L190.523 387.526" stroke="#3A7384" stroke-linecap="round" stroke-linejoin="round"/>
<path d="M186.672 399.115L186.672 387.526" stroke="#3A7384" stroke-linecap="round" stroke-linejoin="round"/>
<path d="M182.812 399.115L182.812 387.526" stroke="#3A7384" stroke-linecap="round" stroke-linejoin="round"/>
<path d="M178.953 399.115L178.953 387.526" stroke="#3A7384" stroke-linecap="round" stroke-linejoin="round"/>
<path d="M175.102 399.115L175.102 387.526" stroke="#3A7384" stroke-linecap="round" stroke-linejoin="round"/>
<path d="M171.242 399.115L171.242 387.526" stroke="#3A7384" stroke-linecap="round" stroke-linejoin="round"/>
<path d="M167.383 399.115L167.383 387.526" stroke="#3A7384" stroke-linecap="round" stroke-linejoin="round"/>
<path d="M163.531 399.115L163.531 387.526" stroke="#3A7384" stroke-linecap="round" stroke-linejoin="round"/>
<path d="M159.672 399.115L159.672 387.526" stroke="#3A7384" stroke-linecap="round" stroke-linejoin="round"/>
<path d="M155.812 399.115L155.812 387.526" stroke="#3A7384" stroke-linecap="round" stroke-linejoin="round"/>
<path d="M151.961 399.115L151.961 387.526" stroke="#3A7384" stroke-linecap="round" stroke-linejoin="round"/>
<path d="M148.102 399.115L148.102 387.526" stroke="#3A7384" stroke-linecap="round" stroke-linejoin="round"/>
<path d="M144.242 399.115L144.242 387.526" stroke="#3A7384" stroke-linecap="round" stroke-linejoin="round"/>
<path d="M140.391 399.115L140.391 387.526" stroke="#3A7384" stroke-linecap="round" stroke-linejoin="round"/>
<path d="M136.539 399.115L136.539 387.526" stroke="#3A7384" stroke-linecap="round" stroke-linejoin="round"/>
<path d="M132.68 399.115L132.68 387.526" stroke="#3A7384" stroke-linecap="round" stroke-linejoin="round"/>
<path d="M128.82 399.115L128.82 387.526" stroke="#3A7384" stroke-linecap="round" stroke-linejoin="round"/>
<path d="M124.969 399.115L124.969 387.526" stroke="#3A7384" stroke-linecap="round" stroke-linejoin="round"/>
<path d="M121.109 399.115L121.109 387.526" stroke="#3A7384" stroke-linecap="round" stroke-linejoin="round"/>
<path d="M117.25 399.115L117.25 387.526" stroke="#3A7384" stroke-linecap="round" stroke-linejoin="round"/>
<path d="M113.398 399.115L113.398 387.526" stroke="#3A7384" stroke-linecap="round" stroke-linejoin="round"/>
<path d="M109.539 399.115L109.539 387.526" stroke="#3A7384" stroke-linecap="round" stroke-linejoin="round"/>
<path d="M105.68 399.115L105.68 387.526" stroke="#3A7384" stroke-linecap="round" stroke-linejoin="round"/>
<path d="M101.828 399.115L101.828 387.526" stroke="#3A7384" stroke-linecap="round" stroke-linejoin="round"/>
<path d="M97.9687 399.115L97.9688 387.526" stroke="#3A7384" stroke-linecap="round" stroke-linejoin="round"/>
<path d="M94.1094 399.115L94.1094 387.526" stroke="#3A7384" stroke-linecap="round" stroke-linejoin="round"/>
<path d="M90.2578 399.115L90.2578 387.526" stroke="#3A7384" stroke-linecap="round" stroke-linejoin="round"/>
<path d="M86.3984 399.115L86.3984 387.526" stroke="#3A7384" stroke-linecap="round" stroke-linejoin="round"/>
<path d="M82.5391 399.115L82.5391 387.526" stroke="#3A7384" stroke-linecap="round" stroke-linejoin="round"/>
<path d="M78.6875 399.115L78.6875 387.526" stroke="#3A7384" stroke-linecap="round" stroke-linejoin="round"/>
<path d="M74.8281 399.115L74.8281 387.526" stroke="#3A7384" stroke-linecap="round" stroke-linejoin="round"/>
<path d="M70.9687 399.115L70.9688 387.526" stroke="#3A7384" stroke-linecap="round" stroke-linejoin="round"/>
<path d="M67.1172 399.115L67.1172 387.526" stroke="#3A7384" stroke-linecap="round" stroke-linejoin="round"/>
<path d="M63.2578 399.115L63.2578 387.526" stroke="#3A7384" stroke-linecap="round" stroke-linejoin="round"/>
<path d="M59.3984 399.115L59.3984 387.526" stroke="#3A7384" stroke-linecap="round" stroke-linejoin="round"/>
<path d="M55.5469 399.115L55.5469 387.526" stroke="#3A7384" stroke-linecap="round" stroke-linejoin="round"/>
<path d="M51.6875 399.115L51.6875 387.526" stroke="#3A7384" stroke-linecap="round" stroke-linejoin="round"/>
<path d="M47.8281 399.115L47.8281 387.526" stroke="#3A7384" stroke-linecap="round" stroke-linejoin="round"/>
<path d="M43.9766 399.115L43.9766 387.526" stroke="#3A7384" stroke-linecap="round" stroke-linejoin="round"/>
<path d="M40.1172 399.115L40.1172 387.526" stroke="#3A7384" stroke-linecap="round" stroke-linejoin="round"/>
<path d="M36.2578 399.115L36.2578 387.526" stroke="#3A7384" stroke-linecap="round" stroke-linejoin="round"/>
</g>
<defs>
<clipPath id="clip0_5830_46192">
<rect width="787" height="462" fill="white" transform="translate(462) rotate(90)"/>
</clipPath>
</defs>
</svg>
