<svg width="255" height="435" viewBox="0 0 255 435" fill="none" xmlns="http://www.w3.org/2000/svg">
<g clip-path="url(#clip0_6145_9357)">
<path d="M251.539 422.911L251.539 12.5718C251.539 8.1535 247.957 4.57178 243.539 4.57178L12.5981 4.57177C8.17984 4.57177 4.5981 8.15346 4.5981 12.5718L4.59808 422.911C4.59808 427.329 8.17979 430.911 12.5981 430.911L243.539 430.911C247.957 430.911 251.539 427.329 251.539 422.911Z" fill="#40A2BF" stroke="#212C2F" stroke-width="6"/>
<path d="M234.648 399.286L234.648 36.032C234.648 27.7477 227.933 21.032 219.648 21.032L36.4014 21.032C28.1171 21.032 21.4014 27.7477 21.4014 36.032L21.4014 399.286C21.4014 407.57 28.1171 414.286 36.4014 414.286L219.648 414.286C227.933 414.286 234.648 407.57 234.648 399.286Z" stroke="white" stroke-width="4" stroke-linecap="round" stroke-linejoin="round"/>
<path d="M21.3986 182.823L234.648 182.823" stroke="white" stroke-width="4" stroke-linecap="round" stroke-linejoin="round"/>
<path d="M21.3986 252L234.648 252" stroke="white" stroke-width="4" stroke-linecap="round" stroke-linejoin="round"/>
<path d="M240.805 220.803L16.4154 220.803C16.3889 220.803 16.3675 220.781 16.3675 220.755C16.3675 220.733 16.3819 220.714 16.4026 220.708C17.7916 220.307 18.8073 219.024 18.8073 217.504C18.8073 216.681 19.8545 214.4 20.6778 214.4L236.073 214.4C236.896 214.4 237.943 216.681 237.943 217.504C237.943 219.185 239.187 220.576 240.805 220.803Z" fill="white"/>
<path d="M15.4768 220.84C13.6377 220.84 12.1465 219.349 12.1465 217.504C12.1465 215.665 13.6377 214.174 15.4768 214.174C15.8984 214.174 16.3042 214.253 16.6783 214.4C17.9272 214.88 18.8125 216.086 18.8125 217.504C18.8125 219.038 17.7797 220.329 16.3727 220.719C16.0882 220.798 15.7878 220.84 15.4768 220.84Z" fill="white"/>
<path d="M241.287 220.84C241.123 220.84 240.965 220.829 240.813 220.803C239.195 220.576 237.951 219.185 237.951 217.504C237.951 216.086 238.836 214.88 240.085 214.4C240.459 214.253 240.865 214.173 241.287 214.173C243.126 214.173 244.617 215.665 244.617 217.504C244.617 219.348 243.126 220.84 241.287 220.84Z" fill="white"/>
<path d="M248.625 421L248.625 14.6606C248.625 10.7947 245.491 7.66064 241.625 7.66064L14.684 7.66063C10.8181 7.66063 7.68404 10.7946 7.68404 14.6606L7.68402 421C7.68402 424.866 10.818 428 14.684 428L241.625 428C245.491 428 248.625 424.866 248.625 421Z" stroke="#3A7384" stroke-width="3" stroke-linecap="round" stroke-linejoin="round"/>
<path d="M240.805 220.803L16.3675 220.803L16.3675 220.718C17.7745 220.328 18.8073 219.037 18.8073 217.504C18.8073 216.086 17.922 214.88 16.6731 214.4L240.077 214.4C238.829 214.88 237.943 216.086 237.943 217.504C237.943 219.185 239.187 220.576 240.805 220.803Z" stroke="#3A7384" stroke-linecap="round" stroke-linejoin="round"/>
<path d="M15.4768 220.84C13.6377 220.84 12.1465 219.348 12.1465 217.504C12.1465 215.665 13.6377 214.173 15.4768 214.173C15.8984 214.173 16.3042 214.253 16.6783 214.4C17.9272 214.88 18.8125 216.086 18.8125 217.504C18.8125 219.037 17.7797 220.329 16.3727 220.718C16.0882 220.798 15.7878 220.84 15.4768 220.84Z" stroke="#3A7384" stroke-linecap="round" stroke-linejoin="round"/>
<path d="M241.287 220.84C241.123 220.84 240.965 220.829 240.813 220.803C239.195 220.576 237.951 219.185 237.951 217.504C237.951 216.086 238.836 214.88 240.085 214.4C240.459 214.253 240.865 214.173 241.287 214.173C243.126 214.173 244.617 215.665 244.617 217.504C244.617 219.348 243.126 220.84 241.287 220.84Z" stroke="#3A7384" stroke-linecap="round" stroke-linejoin="round"/>
<path d="M18.5613 216.229L238.203 216.229" stroke="#3A7384" stroke-linecap="round" stroke-linejoin="round"/>
<path d="M18.7856 217.81L237.953 217.81" stroke="#3A7384" stroke-linecap="round" stroke-linejoin="round"/>
<path d="M18.2254 219.391L238.531 219.391" stroke="#3A7384" stroke-linecap="round" stroke-linejoin="round"/>
<path d="M237.727 220.803L237.727 214.4" stroke="#3A7384" stroke-linecap="round" stroke-linejoin="round"/>
<path d="M235.594 220.803L235.594 214.4" stroke="#3A7384" stroke-linecap="round" stroke-linejoin="round"/>
<path d="M233.469 220.803L233.469 214.4" stroke="#3A7384" stroke-linecap="round" stroke-linejoin="round"/>
<path d="M231.336 220.803L231.336 214.4" stroke="#3A7384" stroke-linecap="round" stroke-linejoin="round"/>
<path d="M229.203 220.803L229.203 214.4" stroke="#3A7384" stroke-linecap="round" stroke-linejoin="round"/>
<path d="M227.078 220.803L227.078 214.4" stroke="#3A7384" stroke-linecap="round" stroke-linejoin="round"/>
<path d="M224.937 220.803L224.938 214.4" stroke="#3A7384" stroke-linecap="round" stroke-linejoin="round"/>
<path d="M222.805 220.803L222.805 214.4" stroke="#3A7384" stroke-linecap="round" stroke-linejoin="round"/>
<path d="M220.68 220.803L220.68 214.4" stroke="#3A7384" stroke-linecap="round" stroke-linejoin="round"/>
<path d="M218.547 220.803L218.547 214.4" stroke="#3A7384" stroke-linecap="round" stroke-linejoin="round"/>
<path d="M216.414 220.803L216.414 214.4" stroke="#3A7384" stroke-linecap="round" stroke-linejoin="round"/>
<path d="M214.281 220.803L214.281 214.4" stroke="#3A7384" stroke-linecap="round" stroke-linejoin="round"/>
<path d="M212.148 220.803L212.148 214.4" stroke="#3A7384" stroke-linecap="round" stroke-linejoin="round"/>
<path d="M210.023 220.803L210.023 214.4" stroke="#3A7384" stroke-linecap="round" stroke-linejoin="round"/>
<path d="M207.891 220.803L207.891 214.4" stroke="#3A7384" stroke-linecap="round" stroke-linejoin="round"/>
<path d="M205.758 220.803L205.758 214.4" stroke="#3A7384" stroke-linecap="round" stroke-linejoin="round"/>
<path d="M203.625 220.803L203.625 214.4" stroke="#3A7384" stroke-linecap="round" stroke-linejoin="round"/>
<path d="M201.5 220.803L201.5 214.4" stroke="#3A7384" stroke-linecap="round" stroke-linejoin="round"/>
<path d="M199.367 220.803L199.367 214.4" stroke="#3A7384" stroke-linecap="round" stroke-linejoin="round"/>
<path d="M197.234 220.803L197.234 214.4" stroke="#3A7384" stroke-linecap="round" stroke-linejoin="round"/>
<path d="M195.109 220.803L195.109 214.4" stroke="#3A7384" stroke-linecap="round" stroke-linejoin="round"/>
<path d="M192.969 220.803L192.969 214.4" stroke="#3A7384" stroke-linecap="round" stroke-linejoin="round"/>
<path d="M190.844 220.803L190.844 214.4" stroke="#3A7384" stroke-linecap="round" stroke-linejoin="round"/>
<path d="M188.711 220.803L188.711 214.4" stroke="#3A7384" stroke-linecap="round" stroke-linejoin="round"/>
<path d="M186.586 220.803L186.586 214.4" stroke="#3A7384" stroke-linecap="round" stroke-linejoin="round"/>
<path d="M184.445 220.803L184.445 214.4" stroke="#3A7384" stroke-linecap="round" stroke-linejoin="round"/>
<path d="M182.32 220.803L182.32 214.4" stroke="#3A7384" stroke-linecap="round" stroke-linejoin="round"/>
<path d="M180.187 220.803L180.188 214.4" stroke="#3A7384" stroke-linecap="round" stroke-linejoin="round"/>
<path d="M178.055 220.803L178.055 214.4" stroke="#3A7384" stroke-linecap="round" stroke-linejoin="round"/>
<path d="M175.93 220.803L175.93 214.4" stroke="#3A7384" stroke-linecap="round" stroke-linejoin="round"/>
<path d="M173.789 220.803L173.789 214.4" stroke="#3A7384" stroke-linecap="round" stroke-linejoin="round"/>
<path d="M171.664 220.803L171.664 214.4" stroke="#3A7384" stroke-linecap="round" stroke-linejoin="round"/>
<path d="M169.531 220.803L169.531 214.4" stroke="#3A7384" stroke-linecap="round" stroke-linejoin="round"/>
<path d="M167.398 220.803L167.398 214.4" stroke="#3A7384" stroke-linecap="round" stroke-linejoin="round"/>
<path d="M165.266 220.803L165.266 214.4" stroke="#3A7384" stroke-linecap="round" stroke-linejoin="round"/>
<path d="M163.133 220.803L163.133 214.4" stroke="#3A7384" stroke-linecap="round" stroke-linejoin="round"/>
<path d="M161.008 220.803L161.008 214.4" stroke="#3A7384" stroke-linecap="round" stroke-linejoin="round"/>
<path d="M158.875 220.803L158.875 214.4" stroke="#3A7384" stroke-linecap="round" stroke-linejoin="round"/>
<path d="M156.742 220.803L156.742 214.4" stroke="#3A7384" stroke-linecap="round" stroke-linejoin="round"/>
<path d="M154.609 220.803L154.609 214.4" stroke="#3A7384" stroke-linecap="round" stroke-linejoin="round"/>
<path d="M152.477 220.803L152.477 214.4" stroke="#3A7384" stroke-linecap="round" stroke-linejoin="round"/>
<path d="M150.344 220.803L150.344 214.4" stroke="#3A7384" stroke-linecap="round" stroke-linejoin="round"/>
<path d="M148.219 220.803L148.219 214.4" stroke="#3A7384" stroke-linecap="round" stroke-linejoin="round"/>
<path d="M146.086 220.803L146.086 214.4" stroke="#3A7384" stroke-linecap="round" stroke-linejoin="round"/>
<path d="M143.953 220.803L143.953 214.4" stroke="#3A7384" stroke-linecap="round" stroke-linejoin="round"/>
<path d="M141.82 220.803L141.82 214.4" stroke="#3A7384" stroke-linecap="round" stroke-linejoin="round"/>
<path d="M139.687 220.803L139.688 214.4" stroke="#3A7384" stroke-linecap="round" stroke-linejoin="round"/>
<path d="M137.562 220.803L137.562 214.4" stroke="#3A7384" stroke-linecap="round" stroke-linejoin="round"/>
<path d="M135.437 220.803L135.438 214.4" stroke="#3A7384" stroke-linecap="round" stroke-linejoin="round"/>
<path d="M133.297 220.803L133.297 214.4" stroke="#3A7384" stroke-linecap="round" stroke-linejoin="round"/>
<path d="M131.172 220.803L131.172 214.4" stroke="#3A7384" stroke-linecap="round" stroke-linejoin="round"/>
<path d="M129.039 220.803L129.039 214.4" stroke="#3A7384" stroke-linecap="round" stroke-linejoin="round"/>
<path d="M126.906 220.803L126.906 214.4" stroke="#3A7384" stroke-linecap="round" stroke-linejoin="round"/>
<path d="M124.773 220.803L124.773 214.4" stroke="#3A7384" stroke-linecap="round" stroke-linejoin="round"/>
<path d="M122.641 220.803L122.641 214.4" stroke="#3A7384" stroke-linecap="round" stroke-linejoin="round"/>
<path d="M120.516 220.803L120.516 214.4" stroke="#3A7384" stroke-linecap="round" stroke-linejoin="round"/>
<path d="M118.383 220.803L118.383 214.4" stroke="#3A7384" stroke-linecap="round" stroke-linejoin="round"/>
<path d="M116.258 220.803L116.258 214.4" stroke="#3A7384" stroke-linecap="round" stroke-linejoin="round"/>
<path d="M114.117 220.803L114.117 214.4" stroke="#3A7384" stroke-linecap="round" stroke-linejoin="round"/>
<path d="M111.984 220.803L111.984 214.4" stroke="#3A7384" stroke-linecap="round" stroke-linejoin="round"/>
<path d="M109.859 220.803L109.859 214.4" stroke="#3A7384" stroke-linecap="round" stroke-linejoin="round"/>
<path d="M107.727 220.803L107.727 214.4" stroke="#3A7384" stroke-linecap="round" stroke-linejoin="round"/>
<path d="M105.594 220.803L105.594 214.4" stroke="#3A7384" stroke-linecap="round" stroke-linejoin="round"/>
<path d="M103.461 220.803L103.461 214.4" stroke="#3A7384" stroke-linecap="round" stroke-linejoin="round"/>
<path d="M101.336 220.803L101.336 214.4" stroke="#3A7384" stroke-linecap="round" stroke-linejoin="round"/>
<path d="M99.1953 220.803L99.1953 214.4" stroke="#3A7384" stroke-linecap="round" stroke-linejoin="round"/>
<path d="M97.0703 220.803L97.0703 214.4" stroke="#3A7384" stroke-linecap="round" stroke-linejoin="round"/>
<path d="M94.9375 220.803L94.9375 214.4" stroke="#3A7384" stroke-linecap="round" stroke-linejoin="round"/>
<path d="M92.8047 220.803L92.8047 214.4" stroke="#3A7384" stroke-linecap="round" stroke-linejoin="round"/>
<path d="M90.6797 220.803L90.6797 214.4" stroke="#3A7384" stroke-linecap="round" stroke-linejoin="round"/>
<path d="M88.5391 220.803L88.5391 214.4" stroke="#3A7384" stroke-linecap="round" stroke-linejoin="round"/>
<path d="M86.4062 220.803L86.4062 214.4" stroke="#3A7384" stroke-linecap="round" stroke-linejoin="round"/>
<path d="M84.2812 220.803L84.2812 214.4" stroke="#3A7384" stroke-linecap="round" stroke-linejoin="round"/>
<path d="M82.1484 220.803L82.1484 214.4" stroke="#3A7384" stroke-linecap="round" stroke-linejoin="round"/>
<path d="M80.0156 220.803L80.0156 214.4" stroke="#3A7384" stroke-linecap="round" stroke-linejoin="round"/>
<path d="M77.8906 220.803L77.8906 214.4" stroke="#3A7384" stroke-linecap="round" stroke-linejoin="round"/>
<path d="M75.7656 220.803L75.7656 214.4" stroke="#3A7384" stroke-linecap="round" stroke-linejoin="round"/>
<path d="M73.625 220.803L73.625 214.4" stroke="#3A7384" stroke-linecap="round" stroke-linejoin="round"/>
<path d="M71.4922 220.803L71.4922 214.4" stroke="#3A7384" stroke-linecap="round" stroke-linejoin="round"/>
<path d="M69.3672 220.803L69.3672 214.4" stroke="#3A7384" stroke-linecap="round" stroke-linejoin="round"/>
<path d="M67.2344 220.803L67.2344 214.4" stroke="#3A7384" stroke-linecap="round" stroke-linejoin="round"/>
<path d="M65.1016 220.803L65.1016 214.4" stroke="#3A7384" stroke-linecap="round" stroke-linejoin="round"/>
<path d="M62.9687 220.803L62.9688 214.4" stroke="#3A7384" stroke-linecap="round" stroke-linejoin="round"/>
<path d="M60.8437 220.803L60.8438 214.4" stroke="#3A7384" stroke-linecap="round" stroke-linejoin="round"/>
<path d="M58.7031 220.803L58.7031 214.4" stroke="#3A7384" stroke-linecap="round" stroke-linejoin="round"/>
<path d="M56.5781 220.803L56.5781 214.4" stroke="#3A7384" stroke-linecap="round" stroke-linejoin="round"/>
<path d="M54.4453 220.803L54.4453 214.4" stroke="#3A7384" stroke-linecap="round" stroke-linejoin="round"/>
<path d="M52.3125 220.803L52.3125 214.4" stroke="#3A7384" stroke-linecap="round" stroke-linejoin="round"/>
<path d="M50.1875 220.803L50.1875 214.4" stroke="#3A7384" stroke-linecap="round" stroke-linejoin="round"/>
<path d="M48.0469 220.803L48.0469 214.4" stroke="#3A7384" stroke-linecap="round" stroke-linejoin="round"/>
<path d="M45.9219 220.803L45.9219 214.4" stroke="#3A7384" stroke-linecap="round" stroke-linejoin="round"/>
<path d="M43.7891 220.803L43.7891 214.4" stroke="#3A7384" stroke-linecap="round" stroke-linejoin="round"/>
<path d="M41.6562 220.803L41.6562 214.4" stroke="#3A7384" stroke-linecap="round" stroke-linejoin="round"/>
<path d="M39.5234 220.803L39.5234 214.4" stroke="#3A7384" stroke-linecap="round" stroke-linejoin="round"/>
<path d="M37.3906 220.803L37.3906 214.4" stroke="#3A7384" stroke-linecap="round" stroke-linejoin="round"/>
<path d="M35.2656 220.803L35.2656 214.4" stroke="#3A7384" stroke-linecap="round" stroke-linejoin="round"/>
<path d="M33.1328 220.803L33.1328 214.4" stroke="#3A7384" stroke-linecap="round" stroke-linejoin="round"/>
<path d="M31 220.803L31 214.4" stroke="#3A7384" stroke-linecap="round" stroke-linejoin="round"/>
<path d="M28.8672 220.803L28.8672 214.4" stroke="#3A7384" stroke-linecap="round" stroke-linejoin="round"/>
<path d="M26.7344 220.803L26.7344 214.4" stroke="#3A7384" stroke-linecap="round" stroke-linejoin="round"/>
<path d="M24.6094 220.803L24.6094 214.4" stroke="#3A7384" stroke-linecap="round" stroke-linejoin="round"/>
<path d="M22.4766 220.803L22.4766 214.4" stroke="#3A7384" stroke-linecap="round" stroke-linejoin="round"/>
<path d="M20.3437 220.803L20.3438 214.4" stroke="#3A7384" stroke-linecap="round" stroke-linejoin="round"/>
</g>
<defs>
<clipPath id="clip0_6145_9357">
<rect width="435" height="255" fill="white" transform="translate(255) rotate(90)"/>
</clipPath>
</defs>
</svg>
