<svg width="83" height="83" viewBox="0 0 83 83" fill="none" xmlns="http://www.w3.org/2000/svg">
<g clip-path="url(#clip0_5901_14602)">
<path d="M74.0004 8.46248L32.8949 49.6192L29.2566 45.9627L19.5044 36.1594C18.5342 29.8693 19.1271 23.1471 23.8306 16.5143C30.2589 7.44738 42.4493 -0.787267 57.9791 0.626719C64.4125 1.21226 69.8718 4.32536 74.0004 8.46248Z" fill="#E54A18"/>
<path d="M29.2572 45.9628C28.5411 46.2734 27.499 46.8193 26.4929 47.6964C25.2698 48.7626 20.8243 53.0366 18.1562 55.6101C22.1192 51.3362 22.7647 47.0929 21.4853 43.7881C21.0926 42.7704 20.7332 41.7412 20.4573 40.6865C20.071 39.2086 19.7412 37.6974 19.505 36.1594L29.2572 45.9628Z" fill="#FFB54C"/>
<path d="M32.8919 49.6192L4.8573 77.6881C4.85345 77.6843 4.8496 77.6817 4.84574 77.6779C3.3725 76.324 2.07499 74.3462 1.16255 72.7456C0.319417 71.2651 0.731365 69.3921 2.11992 68.4013C5.59394 65.9223 12.1287 61.1536 16.0878 57.6084C16.0878 57.6084 16.0929 57.6033 16.1019 57.5943C16.7141 57.0471 17.2647 56.5281 17.7318 56.0512C17.873 55.908 18.009 55.7648 18.1412 55.6217C18.145 55.6191 18.1489 55.6153 18.1527 55.6101C20.8208 53.0366 25.2663 48.7626 26.4893 47.6964C27.4955 46.8193 28.5376 46.2734 29.2536 45.9628L32.8919 49.6192Z" fill="#F98B00"/>
<path d="M16.1016 57.5943C16.2158 57.4843 17.0204 56.7045 18.1408 55.6216L16.1016 57.5943Z" fill="#00A651"/>
<path d="M27.2656 64.0532C27.3439 63.9816 27.5877 63.7502 27.9445 63.4114L27.2656 64.0532Z" fill="#00A651"/>
<path d="M46.6617 63.4587C43.8255 63.0266 41.6695 62.3656 41.0265 62.0128C39.3569 61.0974 35.1822 58.8511 28.2521 63.1774C28.1661 63.2324 28.066 63.3078 27.9531 63.4012C29.4829 61.9476 33.0544 58.534 34.579 56.9014C35.7045 55.6958 36.4168 54.4288 36.8198 53.5671L46.6617 63.4587Z" fill="#FFA526"/>
<path d="M82.5227 27.9093C81.6872 37.641 80.5181 49.9515 62.0379 61.5959C57.4371 64.2551 51.1847 64.1477 46.6609 63.4586L36.819 53.567L32.8906 49.6191L73.9961 8.4624C79.8341 14.3114 83.0116 22.2086 82.5227 27.9093Z" fill="#D74214"/>
<path d="M36.8223 53.5671C36.4194 54.4288 35.7071 55.6957 34.5816 56.9013C33.057 58.534 29.4854 61.9475 27.9557 63.4011C27.9519 63.4037 27.948 63.4075 27.9441 63.4113C27.7516 63.5737 27.5232 63.7898 27.2653 64.0531L27.2524 64.0659C27.2486 64.0698 27.246 64.0723 27.2434 64.0749L27.2396 64.0787C24.388 66.9847 17.9854 75.3459 16.3145 77.7328C15.5881 78.7722 14.822 79.8065 14.1508 80.6899C13.0625 82.1231 11.0284 82.4299 9.55768 81.3893C8.08826 80.3473 6.27744 78.9896 4.85938 77.6881L32.894 49.6191L36.8223 53.5671Z" fill="#F37C00"/>
</g>
<defs>
<clipPath id="clip0_5901_14602">
<rect width="83" height="83" fill="white"/>
</clipPath>
</defs>
</svg>
