<svg width="31" height="36" viewBox="0 0 31 36" fill="none" xmlns="http://www.w3.org/2000/svg">
<path d="M20.826 33.1705C20.8341 33.181 20.8416 33.1921 20.8485 33.2035C20.8383 33.2177 20.8285 33.234 20.8173 33.2477C20.7314 33.3475 20.636 33.4387 20.5323 33.5201C20.526 33.527 20.5184 33.5325 20.5099 33.5362C20.5013 33.54 20.4921 33.542 20.4828 33.542C20.4734 33.542 20.4642 33.54 20.4557 33.5362C20.4472 33.5325 20.4395 33.527 20.4332 33.5201C20.3188 33.4271 20.1431 33.3321 20.1416 33.2096C20.1416 33.0774 20.3199 32.9849 20.4363 32.8904C20.4598 32.8706 20.4812 32.8498 20.516 32.8772C20.6301 32.963 20.7341 33.0613 20.826 33.1705Z" fill="#8C1539"/>
<path d="M21.5423 32.1484C21.2501 31.8541 20.8783 31.7581 20.4697 31.7545C20.3611 31.7532 20.2525 31.7619 20.1454 31.7804C19.4631 31.8907 19.0335 32.4035 19.0555 33.0861C19.0769 33.7595 19.6423 34.4614 20.2971 34.6286C20.4286 34.6651 20.5682 34.6598 20.6965 34.6133C21.2685 34.3994 21.6669 34.0131 21.836 33.4241C21.9682 32.955 21.9013 32.5098 21.5423 32.1484ZM21.2175 33.1074C21.2118 33.4896 21.1378 33.854 20.8773 34.1498C20.5709 34.499 20.3722 34.5056 20.0729 34.1498C19.7429 33.7595 19.6643 33.2899 19.7598 32.8005C19.8282 32.4447 20.1541 32.247 20.5428 32.2816C20.9314 32.3161 21.1883 32.5626 21.2169 32.9463C21.221 32.9997 21.2175 33.0531 21.2175 33.1074Z" fill="#8C1539"/>
<path d="M17.0636 34.0925C17.6137 34.0925 18.1648 34.096 18.7149 34.0925C18.8247 34.0925 18.8385 34.1306 18.817 34.2175C18.7889 34.3258 18.7593 34.4335 18.7358 34.5423C18.7235 34.5987 18.696 34.616 18.6398 34.6154C17.9728 34.6154 17.3059 34.6154 16.6392 34.6154C16.5779 34.6154 16.556 34.5921 16.5514 34.5382C16.5503 34.5305 16.5488 34.5228 16.5468 34.5153C16.4926 34.1916 16.4957 34.1926 16.7797 34.0218C17.1183 33.8185 17.4579 33.6152 17.7536 33.3535C17.935 33.1919 18.0708 33.0064 18.0601 32.7436C18.0494 32.4809 17.9028 32.3116 17.6346 32.2862C17.2914 32.2537 16.964 32.3218 16.6285 32.4565C16.6693 32.2643 16.7102 32.088 16.8159 31.934C16.8333 31.9137 16.8562 31.8987 16.8818 31.8908C17.2904 31.7383 17.7041 31.6992 18.1234 31.8181C18.8717 32.0306 18.8517 32.9022 18.4886 33.3057C18.2491 33.572 17.9411 33.7296 17.6173 33.8648C17.4329 33.941 17.2444 34.0076 17.058 34.0788L17.0636 34.0925Z" fill="#8C1539"/>
<path d="M22.5328 34.0924C23.0875 34.0924 23.6417 34.095 24.1963 34.0924C24.2877 34.0924 24.3036 34.1148 24.2913 34.2007C24.2331 34.6139 24.2351 34.6144 23.8255 34.6144C23.2637 34.6144 22.7019 34.6144 22.1401 34.6144C22.0538 34.6144 22.0293 34.5869 22.0165 34.5087C21.9654 34.1895 21.9654 34.1895 22.2361 34.0279C22.5788 33.8246 22.9215 33.6213 23.2213 33.356C23.3899 33.2066 23.5216 33.0363 23.5339 32.7969C23.5487 32.5001 23.3899 32.3111 23.0911 32.2856C22.7519 32.2567 22.4271 32.3258 22.1013 32.4574C22.1296 32.2795 22.1882 32.1076 22.2744 31.9492C22.2932 31.9198 22.3221 31.8982 22.3556 31.8882C22.7642 31.7357 23.1794 31.6946 23.5977 31.8186C24.182 31.9924 24.394 32.6597 24.0436 33.1908C23.8837 33.4348 23.6488 33.5893 23.3955 33.7204C23.1599 33.8368 22.9165 33.9369 22.6672 34.0203L22.5293 34.0711L22.5328 34.0924Z" fill="#8C1539"/>
<path d="M25.0467 34.0924C25.5967 34.0924 26.1473 34.0955 26.6974 34.0924C26.8026 34.0924 26.8174 34.1229 26.8026 34.2154C26.7382 34.6108 26.7403 34.6108 26.3378 34.6108C25.7796 34.6108 25.2213 34.6078 24.6636 34.6134C24.5656 34.6134 24.54 34.5793 24.5283 34.494C24.4854 34.1839 24.4833 34.1844 24.751 34.0259C25.0937 33.8226 25.4369 33.6193 25.7357 33.3535C25.8976 33.2096 26.0288 33.0485 26.0457 32.8173C26.0687 32.4996 25.9108 32.309 25.5926 32.2826C25.2576 32.2557 24.9389 32.3253 24.6156 32.4554C24.6442 32.2775 24.7027 32.1057 24.7887 31.9472C24.8079 31.9179 24.8368 31.8963 24.8705 31.8862C25.2791 31.7337 25.6928 31.6966 26.1121 31.8161C26.8552 32.028 26.8337 32.8869 26.49 33.2859C26.2908 33.5171 26.0355 33.6655 25.7632 33.7941C25.5283 33.9044 25.2831 33.9847 25.0467 34.0924Z" fill="#8C1539"/>
<path d="M14.256 32.4762C14.256 32.4178 14.2391 32.3918 14.1794 32.3883C13.7968 32.3664 13.4133 32.3283 13.0307 32.3827C12.4975 32.4584 12.1625 32.7659 12.0603 33.2833C12.0137 33.5107 12.0104 33.7448 12.0506 33.9735C12.067 34.0629 12.0583 34.0949 11.9485 34.0939C11.2115 34.0883 10.475 34.0939 9.7385 34.0899C9.64945 34.0898 9.56052 34.0833 9.4724 34.0705C9.27628 34.0426 9.17464 33.9343 9.17004 33.7371C9.16443 33.4901 9.17004 33.2431 9.16698 32.9966C9.16698 32.9372 9.18332 32.9138 9.24614 32.9158C9.34829 32.9204 9.44738 32.9158 9.5485 32.9158C9.97344 32.9158 9.97906 32.9077 10.0296 32.4823C10.0388 32.4015 10.0123 32.3944 9.94637 32.3959C9.72522 32.3959 9.50407 32.3923 9.28241 32.3959C9.18945 32.399 9.16085 32.3741 9.16902 32.2805C9.1869 32.0818 9.19456 31.8831 9.20682 31.6707C8.96115 31.7419 8.73683 31.8721 8.55358 32.0498C8.53249 32.0721 8.51985 32.101 8.51783 32.1316C8.50711 32.217 8.56482 32.3349 8.48974 32.3807C8.42539 32.4208 8.31711 32.3913 8.22773 32.3934H8.21598C8.14959 32.3807 8.12763 32.4173 8.12354 32.4757C8.11537 32.5992 8.1072 32.7222 8.09545 32.8452C8.09085 32.896 8.10771 32.9148 8.15929 32.9128C8.2405 32.9102 8.32273 32.9179 8.40343 32.9128C8.49332 32.9052 8.52192 32.9321 8.52141 33.0261C8.52141 33.3189 8.50455 33.6126 8.53111 33.9049C8.56584 34.2876 8.79976 34.5371 9.18026 34.5945C9.26495 34.605 9.35032 34.6091 9.43563 34.6067C10.4479 34.6067 11.4602 34.5971 12.4715 34.6133C12.8469 34.6189 13.0986 34.4644 13.2932 34.1702C13.4112 33.9923 13.4975 33.8002 13.6053 33.6111C13.6053 33.916 13.6053 34.2174 13.6053 34.5213C13.6053 34.592 13.6242 34.6138 13.6962 34.6118C13.8494 34.6067 14.0062 34.6077 14.1615 34.6118C14.2274 34.6118 14.2575 34.6011 14.2575 34.5244C14.2534 33.8434 14.2545 33.1603 14.256 32.4762ZM13.2789 33.762C13.2341 33.869 13.164 33.9637 13.0746 34.038C12.951 34.13 12.8249 34.1026 12.7759 33.9587C12.6778 33.6731 12.6737 33.3758 12.7166 33.0805C12.7345 32.9468 12.8494 32.8904 12.975 32.866C13.1793 32.8254 13.3836 32.8472 13.6033 32.8416C13.5016 33.1669 13.4184 33.4749 13.2789 33.7636V33.762Z" fill="#8C1539"/>
<path d="M5.68642 35.2309C5.67566 35.1015 5.62997 34.9773 5.55419 34.8716C5.47841 34.7659 5.37534 34.6824 5.25586 34.6302C5.04084 34.5239 4.83144 34.4071 4.61948 34.2947C4.49793 34.2302 4.37586 34.1641 4.23541 34.0884C4.37001 34.038 4.49976 33.9755 4.62306 33.9019C4.74228 33.8296 4.85163 33.7423 4.9484 33.6422C5.45556 33.107 5.37486 32.2323 4.77934 31.8374C4.46269 31.6275 4.10415 31.5675 3.73386 31.5991C3.20116 31.6438 2.76346 31.8684 2.54435 32.3756C2.32524 32.8829 2.38398 33.3855 2.7415 33.8312C2.96265 34.1087 3.25223 34.3018 3.56174 34.4655C4.03673 34.7196 4.51427 34.9626 4.99181 35.2101C5.2242 35.3305 5.45709 35.4505 5.69816 35.5765C5.70518 35.4612 5.70125 35.3455 5.68642 35.2309ZM4.09495 33.9603C4.08561 33.9725 4.07193 33.9806 4.05674 33.9831C4.04154 33.9855 4.02598 33.9821 4.01324 33.9735C3.76195 33.8358 3.51424 33.6925 3.32833 33.4653C3.23097 33.352 3.16305 33.2167 3.13055 33.0712C3.09804 32.9257 3.10195 32.7744 3.14191 32.6308C3.21801 32.3223 3.46317 32.1388 3.81762 32.1164C4.13888 32.0966 4.39118 32.2496 4.51018 32.5362C4.56347 32.6731 4.58983 32.8189 4.58782 32.9657C4.59292 33.3809 4.38148 33.6889 4.09495 33.9598V33.9603Z" fill="#8C1539"/>
<path d="M7.81399 32.4762C7.81399 32.4157 7.79407 32.3944 7.73687 32.3913C7.35433 32.3695 6.97076 32.3273 6.58873 32.3878C6.18729 32.4503 5.85633 32.6277 5.69902 33.0231C5.53925 33.4214 5.53143 33.8641 5.67706 34.2678C5.81496 34.6682 6.18473 34.776 6.53408 34.529C6.67609 34.4208 6.79502 34.2855 6.88394 34.131C6.98608 33.9659 7.06525 33.787 7.1628 33.6126V33.7224C7.1628 33.9887 7.1628 34.2545 7.1628 34.5209C7.1628 34.5859 7.17097 34.6184 7.24911 34.6154C7.41204 34.6093 7.57496 34.6113 7.73738 34.6154C7.79969 34.6154 7.81552 34.5951 7.81501 34.5361C7.81263 33.8483 7.81229 33.1617 7.81399 32.4762ZM6.79251 33.8439C6.7532 33.9239 6.69545 33.9936 6.62397 34.0472C6.50139 34.1315 6.39158 34.1021 6.33132 33.9679C6.28694 33.8483 6.26446 33.7218 6.26492 33.5943C6.2553 33.4601 6.25257 33.3254 6.25675 33.1908C6.26186 33.0028 6.35072 32.9047 6.5397 32.8676C6.74399 32.8274 6.94829 32.8493 7.16382 32.8452C7.05095 33.1878 6.96719 33.5313 6.79456 33.8424L6.79251 33.8439Z" fill="#8C1539"/>
<path d="M15.433 33.3483C15.4897 33.2009 15.529 33.049 15.5979 32.9077C15.7241 32.648 15.8962 32.4411 16.197 32.3725C16.2726 32.3552 16.3053 32.3598 16.3155 32.4492C16.3334 32.6139 16.3538 32.7781 16.3574 32.9438C16.3574 32.9915 16.3574 33.02 16.292 33.0169C16.0224 33.0052 15.8385 33.1476 15.7067 33.3661C15.5458 33.6324 15.483 33.9297 15.4488 34.2337C15.4376 34.3353 15.4309 34.4339 15.4294 34.534C15.4294 34.5925 15.4136 34.6148 15.3507 34.6133C15.1919 34.6092 15.0325 34.6082 14.8742 34.6133C14.7961 34.6164 14.7762 34.5904 14.7762 34.5152C14.7787 34.0446 14.7797 33.5745 14.7762 33.1038C14.7762 32.9005 14.7603 32.6973 14.747 32.494C14.7424 32.4269 14.7522 32.3964 14.8303 32.3994C14.9835 32.4055 15.1403 32.4035 15.2956 32.3994C15.3548 32.3994 15.3727 32.4193 15.3804 32.4772C15.4163 32.7662 15.4338 33.0571 15.433 33.3483Z" fill="#8C1539"/>
<path d="M26.5688 29.2957C26.5688 29.5351 26.5739 29.774 26.5688 30.0133C26.5571 30.4631 26.3134 30.7579 25.8722 30.858C25.5686 30.9356 25.2479 30.9127 24.9585 30.793C24.825 30.7422 24.7089 30.6544 24.624 30.54C24.5391 30.4256 24.4889 30.2894 24.4794 30.1475C24.4314 29.6093 24.4681 29.0685 24.4595 28.5288C24.4595 28.4841 24.4753 28.4673 24.5202 28.4678C24.6949 28.4678 24.8691 28.4678 25.0437 28.4678C25.1255 28.4678 25.1015 28.5237 25.1015 28.5638C25.1015 28.984 25.1015 29.4043 25.1015 29.8248C25.097 29.9404 25.1125 30.0559 25.1474 30.1663C25.2102 30.3442 25.3272 30.4255 25.5157 30.425C25.7041 30.4245 25.8221 30.3406 25.8834 30.1643C25.9188 30.0417 25.9333 29.914 25.9263 29.7867C25.9263 29.3801 25.9263 28.977 25.9263 28.572C25.9263 28.4947 25.9411 28.4627 26.0284 28.4668C26.1817 28.4739 26.3308 28.4724 26.482 28.4668C26.5525 28.4642 26.5744 28.482 26.5734 28.5557C26.5683 28.8022 26.5734 29.0492 26.5734 29.2957H26.5688Z" fill="#8C1539"/>
<path d="M28.1762 28.5242C28.1198 28.5102 28.0627 28.4995 28.0051 28.4922C27.6695 28.4459 27.3324 28.481 26.9959 28.4663C26.9019 28.4622 26.8901 28.4968 26.8906 28.5776C26.8947 28.9333 26.8906 29.2937 26.8906 29.652C26.8906 30.022 26.8906 30.392 26.8906 30.762C26.8906 30.8377 26.9111 30.8606 26.9877 30.858C27.1383 30.8519 27.29 30.8524 27.4407 30.858C27.5122 30.8606 27.5326 30.8397 27.5311 30.7686C27.5265 30.5526 27.5311 30.3366 27.5275 30.1206C27.5275 30.0372 27.5531 30.0189 27.6322 30.0189C27.7794 30.0269 27.927 30.019 28.0725 29.9955C28.4704 29.9249 28.7186 29.6616 28.7329 29.2906C28.7489 28.884 28.5633 28.6286 28.1762 28.5242ZM27.7778 29.563C27.7431 29.5666 27.7078 29.5691 27.6435 29.5742C27.5526 29.5981 27.5178 29.5483 27.527 29.4299C27.5347 29.2875 27.5347 29.1448 27.527 29.0025C27.527 28.9364 27.5464 28.91 27.6128 28.9171C27.6705 28.9227 27.7293 28.9201 27.7865 28.9272C27.9974 28.9526 28.0929 29.0538 28.0893 29.2489C28.0858 29.4441 27.9841 29.5432 27.7773 29.563H27.7778Z" fill="#8C1539"/>
<path d="M23.5792 30.9007C23.3226 30.9042 23.0684 30.8522 22.834 30.7482C22.3381 30.518 22.0904 30.0199 22.1849 29.4522C22.2804 28.8764 22.6731 28.5161 23.2641 28.4429C23.569 28.4102 23.8774 28.4368 24.1721 28.5211C24.2426 28.5399 24.2636 28.5679 24.2513 28.6411C24.2352 28.7518 24.225 28.8632 24.2207 28.975C24.2171 29.0456 24.1992 29.0619 24.1308 29.0258C23.9712 28.9453 23.7954 28.9018 23.6165 28.8988C23.1256 28.8855 22.7783 29.2616 22.8345 29.7475C22.8805 30.1424 23.1379 30.3859 23.5388 30.4179C23.7443 30.4322 23.9504 30.4027 24.1435 30.3315C24.2166 30.3056 24.2426 30.3172 24.2416 30.395C24.2406 30.4728 24.2457 30.5414 24.2508 30.6146C24.2641 30.8031 24.2651 30.8041 24.0751 30.8438C23.9124 30.8808 23.7461 30.8998 23.5792 30.9007Z" fill="#8C1539"/>
<path d="M10.4877 29.0543C10.4417 29.3196 10.3959 29.5847 10.3503 29.8497C10.2962 30.1607 10.24 30.4718 10.1904 30.7833C10.1807 30.8448 10.1557 30.8575 10.1005 30.857C9.87173 30.857 9.64087 30.857 9.4141 30.857C9.36967 30.857 9.34209 30.8479 9.33136 30.7996C9.16027 30.026 8.98764 29.2525 8.81348 28.4683C9.01777 28.4683 9.21645 28.4683 9.41359 28.4683C9.48152 28.4683 9.47539 28.5191 9.48152 28.5537C9.54741 28.9369 9.61125 29.3206 9.6756 29.7043C9.70727 29.8939 9.73996 30.084 9.78745 30.2751C9.83546 30.0077 9.88313 29.7401 9.93046 29.4721C9.98562 29.161 10.0413 28.8505 10.0929 28.5389C10.1021 28.4881 10.1215 28.4678 10.1746 28.4683C10.3993 28.4683 10.6246 28.4714 10.8493 28.4683C10.9101 28.4683 10.9249 28.4912 10.9351 28.5471C11.0326 29.0929 11.1343 29.6378 11.2349 30.1831C11.2347 30.1985 11.2378 30.2139 11.244 30.228C11.2501 30.2422 11.2592 30.255 11.2706 30.2654C11.337 29.8761 11.4024 29.496 11.4673 29.1158C11.4995 28.9257 11.5337 28.7361 11.5618 28.5461C11.571 28.48 11.6021 28.4668 11.6639 28.4683C11.811 28.4719 11.9586 28.4744 12.1057 28.4683C12.1915 28.4647 12.1992 28.4942 12.1823 28.5674C12.0332 29.2205 11.8876 29.8746 11.7405 30.5282C11.7211 30.6146 11.6951 30.7 11.6823 30.7874C11.6731 30.8489 11.6435 30.8595 11.5893 30.859C11.3682 30.859 11.147 30.854 10.9254 30.859C10.8518 30.859 10.834 30.8306 10.8232 30.7701C10.719 30.1985 10.6138 29.6267 10.5076 29.0548L10.4877 29.0543Z" fill="#8C1539"/>
<path d="M21.3282 29.4649C21.3026 29.1966 21.2148 28.9531 21.0064 28.7681C20.8144 28.5964 20.5779 28.5262 20.3286 28.4947C19.9231 28.4439 19.5145 28.479 19.108 28.4673C19.0252 28.4642 19.0375 28.515 19.0375 28.5648V29.6637C19.0375 29.9493 19.0375 30.2344 19.0375 30.52C19.0375 30.6273 18.9915 30.7675 19.0554 30.8331C19.1192 30.8987 19.2683 30.8555 19.3787 30.855C19.727 30.8509 20.0768 30.8814 20.4221 30.8072C20.8772 30.7096 21.1933 30.4621 21.3016 29.994C21.3389 29.8202 21.3479 29.6416 21.3282 29.4649ZM20.6494 29.8985C20.5866 30.1617 20.3981 30.3274 20.1238 30.3691C20.0052 30.3828 19.8858 30.3892 19.7663 30.3884C19.6994 30.3909 19.6805 30.3696 19.6815 30.3035C19.6851 30.088 19.6815 29.872 19.6815 29.656C19.6815 29.44 19.6841 29.2322 19.6815 29.0202C19.6815 28.9536 19.7004 28.9343 19.7668 28.9359C19.9175 28.9394 20.0687 28.9359 20.2163 28.9775C20.3242 29.0042 20.4224 29.0607 20.4994 29.1406C20.5764 29.2205 20.6291 29.3204 20.6514 29.4288C20.6876 29.5834 20.6869 29.7442 20.6494 29.8985Z" fill="#8C1539"/>
<path d="M14.6327 29.5869C14.6184 28.9196 14.2685 28.5196 13.6045 28.4378C13.2154 28.3905 12.8435 28.4535 12.5493 28.7427C12.294 28.9923 12.2306 29.3145 12.2266 29.7008C12.2327 30.086 12.3318 30.4768 12.7312 30.7203C13.0591 30.921 13.4196 30.9378 13.7853 30.858C14.2174 30.7635 14.4794 30.4926 14.5877 30.0687C14.6244 29.9109 14.6395 29.7488 14.6327 29.5869ZM13.8635 30.1577C13.8265 30.2415 13.7646 30.3121 13.686 30.3598C13.6075 30.4075 13.5161 30.4301 13.4242 30.4245C13.3344 30.426 13.246 30.4017 13.1698 30.3543C13.0936 30.307 13.0328 30.2387 12.9947 30.1577C12.9203 30.0109 12.8829 29.8483 12.8859 29.684C12.8782 29.5119 12.9113 29.3404 12.9825 29.1834C13.0193 29.0977 13.0812 29.0249 13.16 28.9745C13.2389 28.9241 13.3311 28.8985 13.4248 28.9008C13.5186 28.8944 13.612 28.9175 13.692 28.9667C13.772 29.016 13.8345 29.0889 13.8706 29.1752C13.944 29.3289 13.9815 29.4971 13.9803 29.6673C13.979 29.8374 13.9391 30.0051 13.8635 30.1577Z" fill="#8C1539"/>
<path d="M16.8799 30.7751C16.7737 30.4946 16.6731 30.212 16.5689 29.931C16.5285 29.8247 16.4713 29.7307 16.36 29.685C16.3641 29.6768 16.3651 29.6723 16.3682 29.6707C16.3769 29.6634 16.387 29.6578 16.3978 29.654C16.4921 29.6292 16.5774 29.5784 16.6439 29.5075C16.7104 29.4365 16.7554 29.3483 16.7737 29.253C16.861 28.8586 16.6715 28.5562 16.266 28.4957C15.8242 28.4286 15.3763 28.4815 14.9314 28.4677C14.8691 28.4677 14.8773 28.5084 14.8773 28.5455C14.8773 29.2909 14.8773 30.035 14.8773 30.7777C14.8773 30.8498 14.9069 30.8585 14.9667 30.857C15.1199 30.857 15.2767 30.8514 15.432 30.857C15.507 30.8595 15.5203 30.8326 15.5198 30.7645C15.5157 30.5139 15.5198 30.2633 15.5162 30.0128C15.5162 29.9371 15.5295 29.9081 15.6158 29.9071C15.7014 29.8989 15.7871 29.9202 15.8588 29.9672C15.9305 30.0143 15.9839 30.0843 16.0101 30.1658C16.0898 30.366 16.1506 30.5723 16.2144 30.7756C16.216 30.7877 16.2201 30.7992 16.2262 30.8097C16.2324 30.8202 16.2406 30.8293 16.2503 30.8366C16.2601 30.8439 16.2712 30.8491 16.283 30.8521C16.2948 30.8551 16.3071 30.8557 16.3191 30.8539C16.4856 30.8488 16.6521 30.8498 16.8186 30.8539C16.8886 30.859 16.9075 30.8468 16.8799 30.7751ZM15.9739 29.4268C15.839 29.4695 15.6991 29.4583 15.5607 29.4603C15.5132 29.4603 15.5168 29.4278 15.5168 29.3968V29.132C15.5168 28.9003 15.5168 28.8992 15.7542 28.9196C15.8276 28.9214 15.9005 28.9321 15.9713 28.9516C16.0811 28.9887 16.1496 29.0532 16.1511 29.1762C16.1575 29.2323 16.143 29.2888 16.1103 29.335C16.0776 29.3812 16.0291 29.4138 15.9739 29.4268Z" fill="#8C1539"/>
<path d="M17.1855 29.6632C17.1855 29.3013 17.1855 28.939 17.1855 28.5766C17.1855 28.4948 17.1983 28.4602 17.2913 28.4658C17.4343 28.4749 17.5778 28.4749 17.7208 28.4658C17.8132 28.4602 17.8265 28.4948 17.826 28.5766C17.8224 29.1428 17.826 29.7089 17.8219 30.2756C17.8219 30.3686 17.848 30.3915 17.9384 30.3895C18.2014 30.3834 18.4649 30.3895 18.728 30.3859C18.7969 30.3859 18.8255 30.4006 18.8209 30.4748C18.8148 30.5765 18.8168 30.6751 18.8209 30.7752C18.8209 30.8316 18.8117 30.8581 18.7459 30.8575C18.2498 30.8552 17.754 30.8552 17.2586 30.8575C17.1758 30.8575 17.1876 30.8103 17.1876 30.761C17.1866 30.3954 17.1859 30.0295 17.1855 29.6632Z" fill="#8C1539"/>
<path d="M8.3691 30.8138C8.09058 30.0511 7.81222 29.2887 7.53404 28.5267C7.51514 28.4759 7.48297 28.4688 7.43649 28.4688C7.23526 28.4688 7.03352 28.4749 6.83229 28.4688C6.74904 28.4652 6.72044 28.4972 6.69541 28.5704C6.45894 29.222 6.21889 29.872 5.98038 30.5231C5.94054 30.6318 5.90223 30.7421 5.86035 30.8605H6.32972C6.58509 30.8605 6.58867 30.8605 6.66374 30.6166C6.68162 30.5581 6.70562 30.5363 6.76589 30.5373C6.92422 30.5419 7.08408 30.5373 7.24292 30.5373C7.33588 30.5373 7.44466 30.5114 7.51668 30.551C7.58869 30.5907 7.57848 30.7086 7.60657 30.7924C7.61934 30.829 7.62904 30.8605 7.68267 30.8595C7.91046 30.8595 8.13876 30.8595 8.36808 30.8595C8.37095 30.8444 8.3713 30.829 8.3691 30.8138ZM7.32362 30.0758C7.1847 30.0717 7.04527 30.0717 6.90635 30.0758C6.82667 30.0784 6.82871 30.0443 6.84659 29.9848C6.93239 29.6941 7.01564 29.4034 7.10196 29.1107C7.14639 29.1432 7.14435 29.1945 7.15712 29.2367C7.23424 29.4852 7.30574 29.7363 7.38286 29.9859C7.40176 30.0479 7.40227 30.0778 7.32362 30.0758Z" fill="#8C1539"/>
<path d="M6.24184 28.4683C6.18106 28.635 6.12386 28.7895 6.0687 28.944C6.04827 29.0024 5.99975 28.9841 5.96093 28.9841C5.72089 28.9841 5.48033 28.9882 5.23977 28.9841C5.16214 28.9841 5.13762 29.0075 5.14273 29.0827C5.14937 29.179 5.14937 29.2756 5.14273 29.3719C5.13609 29.4573 5.17133 29.4735 5.24896 29.4735C5.4267 29.469 5.60648 29.4735 5.78371 29.4735C5.84908 29.4735 5.87819 29.4817 5.84755 29.5564C5.79647 29.6809 5.75 29.8075 5.70914 29.936C5.69075 29.993 5.65806 30.0026 5.60699 30.0016C5.48288 29.9991 5.35877 30.0047 5.23466 29.9991C5.16367 29.996 5.14171 30.0179 5.14324 30.0895C5.14732 30.3172 5.14324 30.5444 5.1463 30.7721C5.1463 30.8432 5.12792 30.8641 5.0559 30.8626C4.86233 30.8575 4.66825 30.8585 4.47417 30.8626C4.4139 30.8626 4.39501 30.8453 4.39552 30.7843C4.39552 30.0389 4.39552 29.2947 4.39552 28.5516C4.39552 28.5038 4.39552 28.4718 4.4614 28.4723C5.04977 28.4693 5.63815 28.4683 6.24184 28.4683Z" fill="#8C1539"/>
<path d="M2.90371 28.4683C2.84549 28.6299 2.78931 28.7768 2.73926 28.9257C2.71985 28.9841 2.68052 28.9856 2.63149 28.9856C2.38736 28.9856 2.14322 28.9856 1.89909 28.9856C1.82861 28.9856 1.80103 29.0024 1.80767 29.0751C1.81941 29.2042 1.75404 29.3734 1.83372 29.4522C1.89756 29.5147 2.06866 29.47 2.19123 29.4715C2.28061 29.4715 2.36948 29.4715 2.45886 29.4715C2.50993 29.4715 2.5416 29.4715 2.51402 29.5396C2.46295 29.6713 2.41187 29.8059 2.36795 29.9406C2.35109 29.9914 2.31943 30.0006 2.27193 29.9996C2.15191 29.997 2.03086 30.0057 1.91441 29.9965C1.82146 29.9894 1.80665 30.0245 1.80869 30.1063C1.81431 30.3264 1.80869 30.5459 1.81278 30.767C1.81278 30.8448 1.78979 30.8636 1.71522 30.862C1.52523 30.857 1.33523 30.8575 1.14575 30.862C1.07833 30.862 1.0625 30.8407 1.0625 30.7772C1.06454 30.0372 1.06454 29.297 1.0625 28.5567C1.0625 28.5059 1.0625 28.4708 1.13247 28.4713C1.71625 28.4693 2.30155 28.4683 2.90371 28.4683Z" fill="#8C1539"/>
<path d="M3.13477 29.6636C3.13477 29.3013 3.13885 28.9394 3.13477 28.5775C3.13477 28.483 3.16286 28.4632 3.2507 28.4662C3.43253 28.4728 3.61435 28.4703 3.79617 28.4662C3.85644 28.4662 3.88555 28.4728 3.88504 28.545C3.88232 29.2881 3.88232 30.0313 3.88504 30.7746C3.88504 30.8427 3.86206 30.8575 3.79924 30.8565C3.60924 30.8529 3.41976 30.8514 3.22976 30.8565C3.15162 30.859 3.13477 30.8331 3.13528 30.7599C3.13681 30.3955 3.13477 30.0296 3.13477 29.6636Z" fill="#8C1539"/>
<path d="M17.6904 14.5137C17.7696 14.3683 17.8508 14.2194 17.932 14.0674C18.9223 12.2154 19.9964 9.91007 20.0327 8.56376C20.0756 6.97501 19.8437 6.17505 19.6144 5.68003C19.5158 5.46555 19.4173 5.30698 19.3417 5.16519C19.3151 5.11436 19.2906 5.0671 19.2712 5.01983C19.2104 4.88243 19.1422 4.7484 19.0669 4.61832V4.61578C19.0112 4.51414 18.9509 4.41249 18.8902 4.3144L18.8845 4.30525C18.8396 4.23207 18.7952 4.1604 18.7523 4.09179C18.5801 3.81836 18.432 3.59677 18.4106 3.54951C18.3651 3.44786 18.1746 3.31978 17.7977 3.31978C17.7091 3.31465 17.6213 3.30034 17.5357 3.27709C16.9228 3.1297 15.6715 2.65705 15.5836 2.60724C15.4815 2.54879 14.8722 2.53507 14.7154 2.54422C14.5586 2.55336 12.8532 2.87813 12.6178 2.88677C12.4287 2.89174 12.2434 2.93988 12.076 3.02747C11.9086 3.11507 11.7637 3.23977 11.6525 3.39195C11.3486 3.80667 11.4395 3.76601 11.2173 3.83818C10.9952 3.91035 9.37306 4.92479 9.18306 8.00927C8.99307 11.0938 12.581 16.017 12.8803 16.8017C12.8803 16.8017 11.344 20.1805 11.2219 22.184C11.2048 22.4432 11.2077 22.7033 11.2306 22.9621C11.2398 23.0591 11.2516 23.1526 11.2664 23.2416C11.4676 24.4614 12.174 24.9696 12.6627 25.1861C12.7761 25.2369 12.8721 25.2786 12.9574 25.3127C13.0606 25.3572 13.1681 25.3912 13.2782 25.4143C13.4896 25.4534 13.6995 25.4285 14.0954 25.3523C14.2781 25.4519 14.4725 25.5289 14.674 25.5815C14.7338 25.5978 14.7971 25.6135 14.8645 25.6283C14.9156 25.6394 14.9667 25.6491 15.0229 25.6582C15.125 25.6755 15.2333 25.6887 15.3487 25.6969L15.4422 25.702C15.4718 25.702 15.5019 25.7045 15.5321 25.7045C15.5974 25.7045 15.6649 25.7045 15.7364 25.702C15.9937 25.6907 16.2491 25.6515 16.4979 25.5851C16.698 25.5314 16.8935 25.4621 17.0827 25.3777L17.1639 25.3406C17.2809 25.3144 17.3928 25.2694 17.4953 25.2074C17.7686 25.0504 18.1465 24.717 18.3687 24.0238C18.4048 23.9105 18.435 23.7955 18.4591 23.6792C18.6025 22.9914 18.5979 22.2813 18.4458 21.5954C18.4412 21.5725 18.4361 21.5497 18.431 21.5273C18.362 21.2319 18.2712 20.9419 18.1593 20.6598C18.1343 20.5967 18.1082 20.5373 18.0852 20.4803C18.0612 20.4229 18.0377 20.369 18.0148 20.3177C17.7839 19.7998 16.9677 18.2202 16.5295 17.406C16.4657 17.2876 16.4105 17.186 16.3656 17.1057C16.355 17.086 16.3448 17.0677 16.3349 17.0508C16.3084 17.004 16.2874 16.9679 16.2726 16.9435C16.2726 16.9435 16.336 16.8419 16.4463 16.662C16.6925 16.2635 17.1659 15.4717 17.6904 14.5137ZM12.4738 6.13134C12.4978 6.07493 12.5248 6.01902 12.5499 5.96312C12.5606 5.95448 12.8711 5.71459 13.5131 5.66122C13.8785 5.635 14.2457 5.66258 14.603 5.74305C15.0116 5.8447 16.2634 6.31481 16.3166 8.27355C16.2885 8.95052 16.1245 9.78962 15.7879 10.8203C15.4973 11.7133 15.0765 12.7516 14.5029 13.9516C14.4973 13.945 14.4079 13.8306 14.2659 13.6304C14.1597 13.4779 14.0244 13.2812 13.8737 13.0428C13.3379 12.1961 12.6055 10.8483 12.2817 9.38659C12.0437 8.31218 12.0269 7.17475 12.4738 6.13134Z" fill="#EFECE8"/>
<path d="M14.403 22.9849C14.3181 23.5144 14.1209 24.0198 13.8243 24.4675C13.4157 25.0743 12.9612 25.3116 12.9612 25.3116C12.8759 25.2776 12.7799 25.2354 12.6665 25.1851C12.1777 24.9671 11.4714 24.4593 11.2701 23.2406C11.2553 23.1516 11.2436 23.0581 11.2344 22.9611C11.646 24.2515 12.6083 24.5534 13.2104 24.3557C13.5363 24.2484 13.6869 24.0873 13.7538 23.943C13.8027 23.842 13.817 23.728 13.7947 23.6182L13.9581 23.0297L14.403 22.9849Z" fill="#EBE7E3"/>
<path d="M12.3637 23.9973C11.9832 23.7493 11.71 23.2574 11.7273 22.5235C11.7815 20.1561 13.091 17.2434 13.091 17.2434C13.091 17.2434 13.1053 17.2663 13.1309 17.3105C13.3057 17.618 13.4633 17.935 13.6028 18.2599C13.7003 18.4845 13.8035 18.7412 13.9036 19.0253C14.2505 19.9927 14.4539 21.0052 14.5073 22.031C14.5905 23.8972 13.2116 24.5478 12.3637 23.9973Z" fill="#9A9794"/>
<path d="M12.4965 19.2291C12.2922 20.178 11.7677 22.9102 12.3647 23.9973C11.9842 23.7493 11.711 23.2574 11.7283 22.5235C11.7825 20.1561 13.092 17.2434 13.092 17.2434C13.092 17.2434 13.1063 17.2663 13.1318 17.3105C12.8582 17.9281 12.6454 18.5706 12.4965 19.2291Z" fill="#ACA9A6"/>
<path d="M13.3277 22.8986C13.273 22.9087 13.059 22.8071 12.8757 21.5431C12.7296 20.5373 13.3445 18.8911 13.6024 18.2594C13.7 18.484 13.8032 18.7407 13.9033 19.0248C12.5891 21.4933 13.3782 22.8889 13.3277 22.8986Z" fill="#8F8C8A"/>
<path d="M13.8247 24.468C13.4161 25.0748 12.9616 25.3121 12.9616 25.3121C12.8763 25.2781 12.7803 25.2359 12.6669 25.1856C12.1781 24.9676 11.4717 24.4598 11.2705 23.2411C11.4855 23.7453 11.7858 24.2606 12.1776 24.5157C13.077 25.1022 13.8073 24.4812 13.8247 24.468Z" fill="#CCC9C6"/>
<path d="M11.1968 4.45117C11.1968 4.45117 10.3929 6.80481 10.6135 8.87892C10.8342 10.953 11.3796 11.8999 11.5773 13.2889C11.5773 13.2889 11.2198 11.2503 11.0763 10.7635C10.9327 10.2766 10.5298 8.06981 10.7346 7.20581C10.9394 6.34181 10.8633 6.02162 10.8633 6.02162C10.8633 6.02162 11.015 4.98329 11.1968 4.45117Z" fill="#CCC9C6"/>
<path d="M12.683 16.3412C12.683 16.3412 13.1902 15.4264 12.9184 13.8565C12.6467 12.2865 12.7371 11.6741 12.7371 11.6741L12.4215 10.3486L12.3525 10.3995C12.3525 10.3995 12.8188 13.7198 12.8459 14.1706C12.873 14.6214 13.0451 15.0112 12.683 16.3412Z" fill="#E0DCD9"/>
<path d="M18.461 23.6771C18.4369 23.7935 18.4067 23.9085 18.3706 24.0217C18.1484 24.7149 17.7704 25.0483 17.4972 25.2054C17.3947 25.2673 17.2827 25.3123 17.1657 25.3385C17.1657 25.3385 17.2204 25.2415 17.298 25.088C17.3348 25.0153 17.3772 24.9289 17.4216 24.8339C17.608 24.4359 17.8276 23.888 17.8302 23.5125C17.8302 23.1745 17.822 22.6098 17.7939 22.0787C17.7909 22.0208 17.7878 21.9634 17.7842 21.9064C17.7761 21.7733 17.7664 21.6442 17.7551 21.5237C17.7405 21.3103 17.707 21.0986 17.655 20.891C17.5161 20.4336 16.9354 19.3744 16.9354 19.3744L16.4722 18.8819C16.3312 18.732 16.1703 18.5597 16.0048 18.3828L16.0002 18.3772L15.9241 18.2964C15.6785 18.0327 15.4302 17.7643 15.2346 17.5493C15.1325 17.4401 15.0487 17.346 14.9833 17.2693C14.918 17.1925 14.8766 17.1448 14.8582 17.1168C14.8189 17.0609 14.7264 16.909 14.6064 16.7102C14.2576 16.1278 13.6789 15.1388 13.517 14.9238C13.4195 14.7942 13.0466 13.6674 12.7356 12.3826C12.5987 11.8169 12.4736 11.2203 12.3898 10.6658C12.3898 10.651 12.3857 10.6363 12.3837 10.6226C12.3765 10.5718 12.3694 10.5209 12.3627 10.4701C12.3627 10.4615 12.3627 10.4533 12.3597 10.4467C12.3566 10.4401 12.3597 10.4345 12.3571 10.4295C12.3546 10.4244 12.3571 10.4223 12.3571 10.4193C12.3571 10.4162 12.3571 10.4137 12.3571 10.4112C12.3574 10.4102 12.3574 10.4091 12.3571 10.4081C12.3571 10.4081 12.3571 10.4046 12.3571 10.4035C12.3134 10.0884 12.2897 9.77077 12.2861 9.45263V9.39062C12.6099 10.8523 13.3423 12.2001 13.8781 13.0469C14.0288 13.2852 14.1641 13.4845 14.2704 13.6344C14.4123 13.8346 14.5017 13.949 14.5073 13.9556C15.0809 12.7546 15.5017 11.7194 15.7924 10.8244L16.3782 11.7133L16.6065 12.0584L16.964 12.6001L17.5799 13.5333L17.7572 13.8006L17.9329 14.0664C17.8517 14.2189 17.7704 14.3673 17.6913 14.5126C17.1668 15.4706 16.6933 16.261 16.4492 16.6604C16.3388 16.8414 16.2755 16.942 16.2755 16.942C16.2903 16.9664 16.3113 17.0025 16.3378 17.0492C16.3474 17.0662 16.3576 17.0845 16.3685 17.1041C16.4134 17.1844 16.4706 17.2861 16.5324 17.4045C16.9706 18.2177 17.7868 19.7983 18.0176 20.3162C18.0406 20.367 18.0641 20.4214 18.0881 20.4788C18.1181 20.5364 18.1433 20.5964 18.1632 20.6582C18.2751 20.9403 18.3659 21.2303 18.4349 21.5258C18.44 21.5481 18.4451 21.571 18.4497 21.5939C18.6011 22.2797 18.6049 22.9897 18.461 23.6771Z" fill="#FFFBF7"/>
<path d="M13.725 4.00439C13.725 4.00439 11.8664 4.71135 11.443 7.3186C11.0196 9.92584 13.0319 12.5112 12.1212 15.2572C12.1212 15.2572 12.7055 13.9866 11.5773 10.8203C10.4491 7.65403 11.489 4.84349 13.725 4.00439Z" fill="#CCC9C6"/>
<path d="M16.317 8.27513C16.266 6.31639 15.0131 5.84628 14.6035 5.74463C14.6985 5.76428 14.7971 5.78851 14.8992 5.81731C15.7731 6.06024 16.3809 6.7672 16.317 8.27513Z" fill="black"/>
<path d="M20.033 8.56326C19.9967 9.90957 18.9226 12.2149 17.9323 14.0669C17.8511 14.2194 17.7699 14.3678 17.6907 14.5132C17.1662 15.4712 16.6927 16.2615 16.4486 16.661C16.3383 16.8419 16.275 16.9425 16.275 16.9425L15.9772 16.4404L15.8863 16.2879L15.7269 16.0191L15.5318 15.6897L15.1232 14.995L14.5063 13.9541C15.0798 12.7531 15.5007 11.7179 15.7913 10.8229C16.1279 9.79217 16.2918 8.95307 16.3199 8.2761C16.2688 6.31737 15.016 5.84725 14.6064 5.7456C14.2493 5.66467 13.8822 5.63658 13.517 5.66225C12.875 5.71562 12.5644 5.9555 12.5537 5.96414C13.2616 4.88923 13.8306 4.41453 14.3556 4.2646C14.5621 4.20635 14.7788 4.193 14.991 4.22547C15.2974 4.26816 15.6038 4.38811 15.9312 4.52482C16.4042 4.72202 16.7453 4.7149 16.9915 4.6346C17.0838 4.60423 17.1712 4.56075 17.251 4.50551C17.4042 4.4003 17.4961 4.27934 17.5503 4.2336C17.5635 4.22242 17.5784 4.21073 17.5947 4.19853C17.7479 4.08215 18.0217 3.92561 18.3961 4.07198C18.7909 4.22445 19.0452 4.5853 19.0682 4.61834V4.62088C19.1435 4.75095 19.2117 4.88498 19.2725 5.02238C19.2929 5.06965 19.3164 5.11793 19.343 5.16774C19.4186 5.30954 19.5171 5.4681 19.6157 5.68258C19.844 6.17658 20.0759 6.97451 20.033 8.56326Z" fill="#CCC9C6"/>
<path d="M19.6147 5.67951L19.5254 6.29651H19.3476C19.4814 4.9751 18.9227 4.59646 18.533 4.24984C18.1433 3.90323 17.6137 4.18581 17.5938 4.19902C17.747 4.08264 18.0207 3.9261 18.3951 4.07247C18.7899 4.22494 19.0443 4.58579 19.0672 4.61882V4.62136C19.1426 4.75144 19.2108 4.88547 19.2715 5.02287C19.292 5.07014 19.3155 5.11842 19.342 5.16823C19.4176 5.30647 19.5162 5.46504 19.6147 5.67951Z" fill="#BBB8B5"/>
<path d="M19.0907 8.94186C18.9819 9.71742 18.2112 11.1425 17.9905 11.7016C17.7699 12.2606 17.7433 13.2085 17.7428 13.2263L17.7883 13.4601L17.7566 13.8006L17.6907 14.5121C17.1662 15.4701 16.6927 16.2604 16.4486 16.6599C16.3383 16.8408 16.275 16.9415 16.275 16.9415L15.9772 16.4393L15.8863 16.2869L15.7269 16.018L15.5318 15.6887L15.1232 14.9939L14.5063 13.9531C15.0798 12.7521 15.5007 11.7168 15.7913 10.8218C16.1279 9.79112 16.2918 8.95202 16.3199 8.27505C16.2688 6.31631 15.016 5.84619 14.6064 5.74455C14.2493 5.66361 13.8822 5.63553 13.517 5.6612C12.875 5.71456 12.5644 5.95445 12.5537 5.96309C13.2616 4.88817 13.8306 4.41348 14.3556 4.26355C14.5654 4.57272 14.8317 4.83994 15.1406 5.05131C15.1917 5.08842 15.2494 5.12552 15.3076 5.1616C15.65 5.37205 16.0173 5.53951 16.4011 5.66018C16.4815 5.68661 16.5647 5.71202 16.6509 5.73642C16.7346 5.7603 16.8153 5.7847 16.894 5.81011C19.4078 6.61922 19.1959 8.18967 19.0907 8.94186Z" fill="#BBB8B5"/>
<path d="M20.0324 8.56331C19.9962 9.90962 18.9221 12.215 17.9318 14.067C17.8506 14.2195 17.7693 14.3679 17.6902 14.5132C17.1657 15.4712 16.6922 16.2615 16.4481 16.661C16.3377 16.842 16.2744 16.9426 16.2744 16.9426L15.9767 16.4404L15.8857 16.288C15.8949 16.2753 16.256 15.7686 16.7453 14.9752C16.9465 14.6479 17.1697 14.2718 17.3991 13.8617C17.4586 13.7549 17.5187 13.6458 17.5794 13.5344C17.634 13.4327 17.6886 13.3311 17.7428 13.2294C18.8557 11.1096 19.9242 8.36408 19.1969 6.61016C19.2605 6.51362 19.3111 6.40923 19.3475 6.29963C19.4739 5.93302 19.4719 5.53465 19.3419 5.16931C19.4175 5.31111 19.5161 5.46968 19.6146 5.68415C19.8435 6.17663 20.0753 6.97456 20.0324 8.56331Z" fill="#EFECE8"/>
<path d="M16.7455 14.9747L16.8252 15.0834L16.6719 15.7441C16.6357 15.8417 16.6056 15.9301 16.58 16.0099L15.9768 16.4399L15.8859 16.2874L15.7266 16.0186L15.5315 15.6892L15.1229 14.9945L14.5059 13.9536C15.0795 12.7527 15.5003 11.7174 15.7909 10.8224C16.1275 9.79168 16.2914 8.95258 16.3195 8.27561C16.2685 6.31687 15.0156 5.84676 14.606 5.74511C14.249 5.66417 13.8819 5.63609 13.5166 5.66176C13.7461 5.61217 13.9805 5.58831 14.2153 5.59061C14.9431 5.60026 15.8333 5.89148 16.3629 7.06449L16.4375 7.23119C17.3334 9.27277 16.8415 9.40339 16.4447 11.3271C16.4171 11.4587 16.3936 11.5893 16.3772 11.7179C16.3347 12.0284 16.3149 12.3417 16.318 12.6551C16.323 13.0597 16.3627 13.4632 16.4365 13.8611C16.4914 14.1621 16.5672 14.4589 16.6633 14.7495C16.7103 14.8903 16.7434 14.9696 16.7455 14.9747Z" fill="#9A9794"/>
<path d="M17.6 10.4828C17.3819 11.601 16.8875 12.8604 16.4365 13.8611C15.9595 14.9208 15.5315 15.6907 15.5315 15.6907L15.1229 14.996C15.3782 14.4969 15.9401 13.3996 16.3206 12.6581C16.3219 12.656 16.3231 12.6538 16.3241 12.6515C16.8272 11.664 18.2006 8.68725 17.1674 6.61009C16.9887 6.23984 16.7265 5.91564 16.4013 5.66274C16.0774 5.41772 15.7034 5.24647 15.3057 5.16111C14.8454 5.06348 14.3715 5.04628 13.9053 5.11029C14.3126 5.04185 14.7266 5.02172 15.1387 5.05032C15.9212 5.11334 16.4886 5.39388 16.8931 5.80911C17.9825 6.92875 17.8839 9.02777 17.6 10.4828Z" fill="#A5A2A0"/>
<path d="M17.5264 13.7584C17.4243 13.854 17.3313 14.2113 16.8701 15.2587C16.7899 15.4412 16.7251 15.6023 16.6719 15.7441C16.6357 15.8417 16.6055 15.9301 16.58 16.0099C16.4268 16.4846 16.4482 16.6604 16.4482 16.6604C16.3379 16.8414 16.2746 16.942 16.2746 16.942L15.9768 16.4399L15.8859 16.2874L15.7266 16.0185L16.6633 14.748L17.1525 14.0873C17.2293 14.0063 17.3118 13.9309 17.3992 13.8616C17.4656 13.8062 17.5193 13.7635 17.5264 13.7584Z" fill="#DAD7D3"/>
<path d="M18.4375 12.3959C18.4375 12.3959 20.6919 8.80215 19.5443 6.4353C19.5443 6.4353 20.2333 8.45096 18.4375 12.3959Z" fill="#FFFBF7"/>
<path d="M13.6045 5.1642C13.7033 5.14144 13.8032 5.12362 13.9038 5.11084C13.8067 5.12609 13.7066 5.14388 13.6045 5.1642Z" fill="#A5A2A0"/>
<path d="M17.1827 4.64937L16.9886 4.6331C16.9886 4.6331 16.4988 4.66766 16.0774 4.45573C15.6561 4.2438 14.6928 3.40521 13.467 4.59295C12.2413 5.7807 11.1631 5.28568 11.1631 5.28568L11.2177 5.16268C11.2177 5.16268 11.3199 3.96884 11.5242 3.75233C11.7075 3.69134 13.1008 3.18209 13.2775 3.10992L13.9298 2.97473L14.4058 3.07638L15.2148 3.48551L15.8941 3.89515L16.5105 4.21076L16.8456 4.32308C16.8456 4.32308 17.1607 4.41558 17.5494 4.22956L17.1827 4.64937Z" fill="#FEFAF6"/>
<path d="M18.8847 4.30474C18.8298 4.22209 18.7681 4.14407 18.7003 4.07146C18.4598 3.80972 17.9955 3.4387 17.3367 3.50427C16.5573 3.58152 15.9786 3.73755 15.4847 3.59473C15.3386 3.55238 15.2016 3.48345 15.0807 3.39144L15.0072 3.33452C14.9755 3.3086 14.9485 3.28369 14.9255 3.26438C14.6078 2.97519 15.0276 3.07176 15.0276 3.07176L15.7427 3.20237L16.2503 3.29487L16.4996 3.25777C16.4996 3.25777 17.0956 3.27708 17.5364 3.27708C17.622 3.30034 17.7098 3.31464 17.7984 3.31978C18.1743 3.31978 18.3648 3.45039 18.4113 3.5495C18.4327 3.59676 18.5808 3.81835 18.753 4.09179C18.7953 4.15989 18.8398 4.23155 18.8847 4.30474Z" fill="#EBE7E3"/>
<path d="M16.4983 3.25724C16.4983 3.25724 16.053 3.4768 15.7608 3.46054C15.4687 3.44427 15.0126 3.30349 14.9988 3.33856L13.9967 2.9767L13.8604 2.94925C13.8604 2.94925 14.5754 2.70581 15.1249 2.82779C15.6745 2.94976 15.7302 3.21303 16.4983 3.25724Z" fill="#BBB8B5"/>
<path d="M11.293 4.68088C11.293 4.68088 13.0867 2.59712 14.4054 3.15922C15.7241 3.72133 16.6777 4.74187 17.549 4.23109C17.549 4.23109 17.1578 4.5279 16.3084 4.08116C15.4591 3.63442 14.7839 3.03623 13.9703 2.92239C13.1567 2.80854 11.8241 3.86923 11.293 4.68088Z" fill="#CCC9C6"/>
<path d="M18.6194 5.35324V5.48538L17.7424 5.11335L17.248 4.50347C17.4013 4.39827 17.4932 4.27731 17.5473 4.23157C17.5606 4.22038 17.5754 4.2087 17.5918 4.1965C18.5785 3.80871 18.6184 5.33139 18.6194 5.35324Z" fill="#DEDBD7"/>
<path d="M19.1457 6.43529C18.5574 5.36291 16.4531 5.11388 15.8009 4.84299C15.3254 4.6463 15.0833 4.36321 14.9873 4.22396C15.2937 4.26665 15.6002 4.38659 15.9276 4.52331C16.4005 4.7205 16.7417 4.71339 16.9879 4.63309C17.0802 4.60271 17.1675 4.55923 17.2473 4.504C17.4005 4.39879 17.4925 4.27783 17.5466 4.23209C17.5599 4.22091 17.5747 4.20922 17.5911 4.19702C17.9813 4.53763 18.3261 4.92654 18.6171 5.35427C19.0421 5.98347 19.1457 6.43529 19.1457 6.43529Z" fill="#BCBAB7"/>
<path d="M16.7404 23.4677C16.7404 23.4677 16.9958 22.7343 16.8201 21.4856C16.8201 21.4856 16.4569 19.7434 15.4411 18.8595C14.4252 17.9757 15.2169 18.0464 15.2669 18.084C15.2669 18.084 15.0401 17.9823 14.8583 18.147C14.6765 18.3117 13.6254 16.7717 12.9277 14.3347V14.7764L12.9972 14.6432C12.9972 14.6432 13.6228 16.695 14.2317 17.6118C14.2317 17.6118 14.8706 18.8392 14.9467 19.0959C14.9467 19.0959 14.5601 18.0509 14.2827 17.6332C14.2827 17.6332 14.8788 18.4377 15.2138 18.7803C15.5488 19.1228 17.2276 20.7329 16.7404 23.4677Z" fill="#E1DEDA"/>
<path d="M17.4967 25.2054C17.3942 25.2674 17.2822 25.3123 17.1652 25.3386L17.084 25.3757C16.8949 25.46 16.6993 25.5294 16.4992 25.583C16.2504 25.6495 15.995 25.6887 15.7377 25.6999C15.6682 25.703 15.6008 25.7035 15.5334 25.7024C15.5033 25.7024 15.4731 25.7024 15.4435 25.6999L15.35 25.6948C15.2346 25.6867 15.1258 25.6735 15.0242 25.6562C14.969 25.6471 14.9164 25.6374 14.8659 25.6262C14.7984 25.6115 14.7351 25.5957 14.6753 25.5795C14.4738 25.5268 14.2794 25.4499 14.0967 25.3502L14.1324 25.3365C14.1764 25.3208 14.2576 25.2913 14.3602 25.2562C14.4236 25.2349 14.4956 25.211 14.5722 25.1871C14.7009 25.1464 14.8424 25.1053 14.9808 25.0707C15.0482 25.0539 15.1141 25.0392 15.1779 25.0265C15.3988 24.9613 15.6361 24.9794 15.8444 25.0773C16.0273 25.1454 16.2387 25.2339 16.4706 25.2669C16.6351 25.2935 16.8035 25.2839 16.964 25.2389C17.0148 25.2243 17.0647 25.2063 17.1131 25.1851C17.1764 25.1559 17.2374 25.122 17.2954 25.0834L17.488 25.1266L17.4967 25.2054Z" fill="#CCC9C6"/>
<path d="M18.3699 24.0217C18.1477 24.715 17.7698 25.0484 17.4965 25.2054C17.394 25.2674 17.282 25.3123 17.165 25.3386C17.165 25.3386 17.2197 25.2415 17.2973 25.088C17.3341 25.0153 17.3765 24.9289 17.4209 24.8339C17.4219 24.8339 17.6799 25.1922 18.3699 24.0217Z" fill="#CCC9C6"/>
<path d="M16.7657 21.4877C16.7657 21.4877 16.4986 22.2963 15.9036 22.8442C15.9036 22.8442 15.9036 21.5039 15.4398 20.3589C15.4398 20.3589 15.0849 19.5884 15.0394 19.5361C14.994 19.4837 14.2963 18.3925 14.165 18.2258C14.165 18.2258 14.2784 18.5557 14.3009 18.5867C14.3234 18.6177 14.994 19.6372 15.0124 19.6779C15.0307 19.7185 15.1303 20.1602 15.1303 20.1602L15.3566 20.4209C15.3566 20.4209 15.9746 21.8409 15.8597 23.2894C15.8597 23.2894 15.4781 24.3653 15.828 24.4436C16.1779 24.5218 16.4307 24.5071 16.6661 23.9353L16.7907 23.8205L16.8178 23.6558L16.7432 23.5125V23.4688C16.7432 23.4688 16.7918 23.2721 16.7943 23.2289C16.7969 23.1857 16.8454 22.7832 16.8454 22.7832L16.8612 22.4721C16.8612 22.4721 16.8428 21.5934 16.7657 21.4877Z" fill="#E1DEDA"/>
<path d="M13.0547 15.6786C13.0547 15.6786 13.2406 16.7876 13.3269 16.9227V16.6615C13.3269 16.6615 13.1272 15.8499 13.0547 15.6786Z" fill="#CECBC8"/>
<path d="M14.9304 22.4193C14.9304 22.4193 14.8012 20.1038 14.2327 18.9013C13.6643 17.6988 13.1632 16.5533 12.298 15.2979C11.4329 14.0426 10.0447 10.8966 9.83731 9.80237C9.62995 8.70814 9.56559 6.54306 10.3991 4.88367C10.3991 4.88367 9.51095 7.52649 9.9461 9.63211C10.3812 11.7377 12.8961 15.9896 13.2112 16.4496C13.5264 16.9095 14.9927 19.2113 14.9304 22.4193Z" fill="#E1DEDA"/>
<path d="M14.8391 17.0325C14.8391 17.0325 14.9106 16.91 14.9464 16.9425C14.9822 16.9751 14.9592 17.0493 15.0353 17.1189C15.1114 17.1885 15.0485 17.2891 14.9796 17.2429C14.9796 17.2429 14.9939 17.2937 14.9668 17.3196C14.9398 17.3456 14.8887 17.3425 14.8305 17.2963C14.7722 17.25 14.7007 17.1946 14.6798 17.1834C14.6589 17.1723 14.6961 17.0818 14.7487 17.0747C14.659 17.0078 14.5866 16.9207 14.5373 16.8206C14.4765 16.6752 14.5107 16.6579 14.5312 16.6625C14.5516 16.6671 14.7115 16.7448 14.8391 17.0325Z" fill="#8C1539"/>
<path d="M15.5269 17.928C15.5269 17.928 15.2955 17.739 15.2398 17.6399C15.1842 17.5408 15.0866 17.4274 14.9947 17.4254C14.9028 17.4234 14.9308 17.5652 15.0882 17.6531C15.2455 17.741 15.2516 17.7649 15.2501 17.802C15.2712 17.8753 15.3196 17.9378 15.3854 17.9768C15.4457 18.0033 15.5688 18.0866 15.5861 18.1258C15.6166 18.1802 15.6617 18.2253 15.7163 18.2559C15.7709 18.2865 15.833 18.3014 15.8956 18.2991C16.0759 18.2848 16.0489 18.0033 16.0075 17.9565C15.9661 17.9098 15.8456 17.7817 15.8349 17.741C15.8241 17.7004 15.7133 17.5159 15.653 17.4788C15.5928 17.4417 15.5606 17.4727 15.5259 17.4193C15.4911 17.3659 15.3277 17.1652 15.2327 17.1723C15.1377 17.1794 15.2015 17.3095 15.2981 17.367C15.3946 17.4244 15.6714 17.5774 15.7276 17.7359C15.7276 17.7359 15.5064 17.5265 15.4115 17.4783C15.3165 17.43 15.2189 17.4102 15.2174 17.4645C15.2158 17.5189 15.2031 17.5494 15.5269 17.928Z" fill="#8C1539"/>
<path d="M15.1525 17.7816C15.1525 17.7816 14.889 17.6215 14.772 17.6911C14.6551 17.7608 14.8119 17.8863 14.912 17.87C15.0121 17.8538 14.9339 17.7623 15.1643 17.7862L15.1525 17.7816Z" fill="#8C1539"/>
<path d="M15.5264 17.3105C15.5264 17.3105 15.3001 17.1006 15.3359 16.97C15.3716 16.8394 15.5356 16.9558 15.5468 17.0564C15.558 17.157 15.4482 17.1072 15.534 17.3202L15.5264 17.3105Z" fill="#8C1539"/>
<path d="M16.008 18.3717C16.008 18.3717 15.9151 18.4708 15.6817 18.3285C15.4482 18.1862 15.0754 17.8299 14.8992 17.9473C14.9292 17.9754 14.9567 18.006 14.9814 18.0388C14.9814 18.0388 14.8226 18.0495 14.793 18.1404C14.793 18.1404 14.9191 18.235 14.9161 18.2487C14.913 18.2624 14.793 18.3742 14.8895 18.424C14.8895 18.424 14.9145 18.3788 14.9733 18.424C15.032 18.4693 15.0713 18.5846 15.2128 18.5862C15.3543 18.5877 15.4324 18.3956 15.2332 18.2548C15.1633 18.2131 15.0933 18.2395 15.1101 18.3056C15.1101 18.3056 15.2741 18.3102 15.2537 18.4464C15.2332 18.5826 15.0683 18.4433 15.0187 18.3661C14.9692 18.2888 14.9937 18.0703 15.1852 18.1181C15.3767 18.1658 15.532 18.3661 15.5974 18.423C15.6628 18.4799 15.9794 18.6227 16.008 18.3717Z" fill="#8C1539"/>
<path d="M16.109 18.2594C16.109 18.2594 16.2158 18.1745 16.0916 17.9315C15.9675 17.6886 15.6401 17.2912 15.7719 17.1255C15.7976 17.1575 15.8259 17.1873 15.8567 17.2144C15.8567 17.2144 15.8802 17.0579 15.9742 17.0355C15.9742 17.0355 16.059 17.1682 16.0733 17.1661C16.0876 17.1641 16.2086 17.0538 16.2505 17.1534C16.2505 17.1534 16.2035 17.1748 16.2438 17.2368C16.2842 17.2988 16.3971 17.3471 16.3879 17.4873C16.3787 17.6276 16.1795 17.6906 16.0538 17.4812C16.0176 17.4086 16.0498 17.3415 16.1167 17.3638C16.1167 17.3638 16.108 17.5265 16.2464 17.5163C16.3848 17.5061 16.2581 17.3323 16.1846 17.2769C16.111 17.2215 15.8899 17.2287 15.9231 17.4223C15.9563 17.6159 16.1437 17.7862 16.1943 17.8553C16.2449 17.9244 16.3634 18.2507 16.109 18.2594Z" fill="#8C1539"/>
<path d="M16.9575 18.2355C16.9575 18.2355 16.7211 18.1084 16.7532 18.3839C16.7854 18.6594 17.1266 18.6568 17.3477 19.0156C17.4114 19.1101 17.4414 19.2231 17.4328 19.3365C17.4243 19.45 17.3778 19.5573 17.3008 19.6413C17.3122 19.5639 17.3076 19.4849 17.2873 19.4094C17.267 19.3338 17.2314 19.2631 17.1828 19.2016C17.0178 18.9984 16.4917 18.5638 16.4264 18.3808C16.361 18.1979 16.386 18.0281 16.5168 18.0063C16.6052 17.993 16.6955 18.0081 16.7748 18.0493C16.854 18.0905 16.918 18.1557 16.9575 18.2355Z" fill="#8C1539"/>
<path d="M15.9145 19.3129C15.9145 19.3129 15.7612 19.2417 15.771 18.9505C15.7807 18.6593 16.0697 18.548 16.3685 18.9632C16.6673 19.3784 16.5616 19.7154 16.9942 19.8831C16.9942 19.8831 16.9288 20.0097 16.7076 19.9573C16.4865 19.905 16.4058 19.7063 16.3123 19.3474C16.2189 18.9886 15.8491 19.0079 15.9145 19.3129Z" fill="#8C1539"/>
<path d="M16.3115 18.5867C16.3115 18.5867 16.5919 19.0873 16.6103 19.1523C16.6287 19.2174 16.8452 19.7033 17.026 19.6941C17.0633 19.6941 17.2125 19.8628 17.6655 21.0567C17.6866 21.105 17.6888 21.1594 17.6716 21.2092C17.6624 21.2325 17.5746 21.4236 17.9316 21.6884C17.9316 21.6884 17.9597 21.3982 17.9316 21.2773C17.9035 21.1563 17.787 21.1543 17.7401 20.985C17.6931 20.8158 17.3059 19.9376 17.1941 19.777C17.0822 19.6164 17.1782 19.5737 17.1599 19.5076C17.1415 19.4415 16.9699 19.0034 16.3115 18.5867Z" fill="#8C1539"/>
<path d="M17.5451 19.536C17.5451 19.536 17.399 19.8211 17.494 20.0686C17.589 20.3162 17.7085 20.4991 17.6983 20.5733C17.6983 20.5733 17.8352 20.5489 17.8914 20.3258C17.9476 20.1027 17.5732 19.6229 17.5451 19.536Z" fill="#8C1539"/>
<path d="M16.8203 20.0549C16.9057 20.2418 16.9797 20.4336 17.042 20.6292C17.089 20.8153 17.3622 20.8244 17.4633 20.7192L17.3346 20.4C17.3086 20.338 17.2652 20.0753 16.8203 20.0549Z" fill="#8C1539"/>
<path d="M18.1619 20.6597C18.0812 20.6562 17.8555 20.7406 17.8555 20.7406C17.9052 20.6328 17.9825 20.5398 18.0797 20.4712L18.0858 20.4798C18.1162 20.5376 18.1417 20.5978 18.1619 20.6597Z" fill="#8C1539"/>
<path d="M17.462 20.9708C17.462 20.9708 16.8711 21.3911 16.7802 21.7951C16.7802 21.7951 16.725 21.6975 16.7388 21.6498C16.7388 21.6498 16.5738 21.7514 16.5381 21.7377C16.5381 21.7377 16.6361 21.5344 16.6402 21.5212C16.6443 21.508 16.5764 21.5069 16.5764 21.5069C16.5764 21.5069 16.8507 20.9281 17.462 20.9708Z" fill="#8C1539"/>
<path d="M17.6466 21.1426C17.5072 21.1994 17.3907 21.3008 17.3157 21.4307C17.1814 21.6539 17.2135 21.7743 17.306 21.8373C17.306 21.8373 17.4919 21.7072 17.4362 21.5481C17.5097 21.5488 17.5832 21.5455 17.6563 21.5385C17.6671 21.5288 17.5195 21.3306 17.6466 21.1426Z" fill="#8C1539"/>
<path d="M17.8594 21.0171C17.8594 21.0171 17.8849 20.9058 18.2537 20.9195C18.2931 21.0295 18.3247 21.1421 18.3482 21.2565C18.3482 21.2565 18.2756 21.1614 18.246 21.1614C18.246 21.1614 18.1714 21.318 18.0734 21.3225C18.0693 21.3225 18.0841 21.072 17.8594 21.0171Z" fill="#8C1539"/>
<path d="M17.7061 21.5786C17.7061 21.5786 17.7571 21.7819 17.6969 21.8927C17.6366 22.0035 17.5273 22.0706 17.417 21.9532C17.4419 21.9466 17.4651 21.935 17.4851 21.919C17.5052 21.9029 17.5216 21.8829 17.5334 21.8602C17.5595 21.7905 17.6478 21.5786 17.7061 21.5786Z" fill="#8C1539"/>
<path d="M17.7852 21.6747C17.7852 21.6747 17.8143 22.0055 17.7168 22.0787C17.7168 22.0787 17.9047 22.1067 17.9374 21.9578C17.9701 21.8089 17.7975 21.6747 17.7852 21.6747Z" fill="#8C1539"/>
<path d="M18.0292 21.8774C18.0292 21.8774 17.9828 22.159 18.0681 22.1824C18.1534 22.2058 18.2095 22.0807 18.1585 22.0299C18.1105 21.9834 18.0672 21.9323 18.0292 21.8774Z" fill="#8C1539"/>
<path d="M18.3704 21.8155C18.3704 21.8155 18.2897 21.9329 18.2442 21.9411C18.1987 21.9492 18.0282 21.9146 18.07 21.6265C18.07 21.6265 18.2411 21.7937 18.2851 21.8059C18.3128 21.8136 18.3416 21.8169 18.3704 21.8155Z" fill="#8C1539"/>
<path d="M18.448 21.5954C18.4444 21.602 18.4398 21.6102 18.4342 21.6188C18.3458 21.7565 18.2054 21.659 18.1788 21.6031C18.1444 21.5431 18.1066 21.4853 18.0654 21.4298C18.0654 21.4298 18.1252 21.3434 18.2503 21.4516C18.3042 21.4915 18.3672 21.5175 18.4337 21.5273C18.4383 21.5492 18.4434 21.5726 18.448 21.5954Z" fill="#8C1539"/>
<path d="M15.6582 19.41C15.6582 19.41 15.9917 19.7002 15.7374 20.0418C15.7717 20.0391 15.8053 20.0298 15.836 20.0142C15.8667 19.9986 15.894 19.9772 15.9164 19.951C15.9388 19.9249 15.9557 19.8947 15.9663 19.862C15.9768 19.8293 15.9808 19.7949 15.9779 19.7607C15.9698 19.498 15.6582 19.41 15.6582 19.41Z" fill="#8C1539"/>
<path d="M15.3964 19.8491C15.3964 19.8491 15.3826 20.1144 15.5691 20.0651C15.7555 20.0158 15.8214 19.7211 15.5946 19.5061C15.3678 19.2911 15.1421 19.4853 15.1278 19.5528C15.1278 19.5528 14.9833 19.4385 14.9812 19.407C14.9812 19.407 14.828 19.4852 15.0113 19.808C15.0113 19.808 14.829 19.808 14.8178 19.7663C14.8178 19.7663 14.7126 19.9498 15.0415 20.1729C15.0415 20.1729 14.9148 20.2425 14.899 20.2471C14.9307 20.3212 14.9855 20.3831 15.0553 20.4238C15.1251 20.4644 15.2062 20.4816 15.2866 20.4728C15.5834 20.4519 15.8822 20.2588 16.1901 20.3238C16.4981 20.3889 16.7152 20.7096 16.5727 21.1243C16.5656 21.1421 16.5634 21.1614 16.5663 21.1804C16.5692 21.1993 16.577 21.2171 16.589 21.2321C16.6576 21.117 16.6959 20.9866 16.7004 20.8529C16.6973 20.6562 16.6779 20.4494 16.3209 20.2542C15.9639 20.059 15.4782 20.3782 15.1932 20.0585C14.9082 19.7389 15.4174 19.3648 15.5691 19.7084C15.5972 19.777 15.5854 20.0138 15.3964 19.8491Z" fill="#8C1539"/>
<path d="M16.5385 20.8122C16.3421 20.7679 16.1375 20.7751 15.9446 20.833C15.7518 20.8909 15.5774 20.9976 15.4384 21.1426C15.4384 21.1426 15.4665 20.951 15.5227 20.9103C15.5227 20.9103 15.3311 20.9027 15.3184 20.9103C15.3184 20.9103 15.4425 20.7045 15.6013 20.6659C15.5753 20.6573 15.5479 20.6541 15.5206 20.6567C15.5206 20.6567 16.1289 20.1592 16.5385 20.8122Z" fill="#8C1539"/>
<path d="M14.46 24.9238C14.46 24.9238 14.4344 24.4776 14.0049 24.2829C14.0618 24.27 14.1214 24.2748 14.1755 24.2967C14.1755 24.2967 14.1555 24.1747 14.1285 24.1528C14.1285 24.1528 14.2817 24.2072 14.3471 24.2921C14.3471 24.2921 14.3573 24.2489 14.3409 24.2306C14.3409 24.2306 14.8078 24.5233 14.46 24.9238Z" fill="#8C1539"/>
<path d="M14.8257 23.9227C14.8257 23.9227 14.6771 23.9506 14.7205 24.0655C14.7639 24.1803 14.9728 24.2215 15.0739 24.1295C15.1751 24.0375 15.2547 23.758 14.9386 23.6497C14.9386 23.6497 14.9646 23.5125 14.9922 23.514C14.9922 23.514 14.8533 23.4785 14.7506 23.6665C14.7186 23.6225 14.7051 23.5678 14.7128 23.514C14.7128 23.514 14.5397 23.5562 14.5085 23.7885C14.5085 23.7885 14.4299 23.7341 14.4299 23.7194C14.3822 23.7647 14.354 23.8266 14.3511 23.8921C14.3483 23.9577 14.371 24.0218 14.4146 24.0711C14.5678 24.2744 14.769 24.4721 14.7721 24.6174C14.7752 24.7628 14.6332 25.0474 14.3783 25.0423C14.3272 25.0423 14.2665 25.088 14.3191 25.1297C14.3717 25.1714 14.721 25.0555 14.8298 24.8756C14.8802 24.8032 14.9047 24.716 14.8993 24.6281C14.8939 24.5401 14.859 24.4565 14.8002 24.3907C14.6868 24.2561 14.5295 24.0177 14.6398 23.8413C14.7501 23.665 14.9401 23.7112 14.9886 23.8149C15.0372 23.9186 14.9636 24.0182 14.9074 24.0299C14.8513 24.0416 14.7716 23.9989 14.8257 23.9227Z" fill="#8C1539"/>
<path d="M14.5789 25.5465C14.5789 25.5465 14.2056 25.27 13.9068 25.3279C13.9068 25.3279 13.9538 25.2542 13.991 25.2527C13.9571 25.2217 13.9213 25.1929 13.8838 25.1663C13.9435 25.1523 14.0061 25.1555 14.0641 25.1755C14.0641 25.1755 14.0564 25.1399 14.0436 25.1307C14.0436 25.1307 14.4834 25.1933 14.5789 25.5465Z" fill="#8C1539"/>
<path d="M14.9576 24.847C14.8792 24.9259 14.7954 24.9992 14.7068 25.0666C14.6425 25.1027 14.5291 25.1815 14.5735 25.2826C14.5937 25.3361 14.6275 25.3833 14.6716 25.4198C14.6716 25.4198 14.9122 25.2165 14.9622 25.1357C15.0123 25.0549 14.9714 24.8725 14.9576 24.847Z" fill="#8C1539"/>
<path d="M16.2855 24.6402C16.2855 24.6402 16.2855 24.4877 16.2017 24.5126C16.118 24.5376 16.024 24.6499 16.001 24.7637C15.9757 24.8795 15.9232 24.9876 15.8478 25.0793C15.8059 25.1296 15.751 25.1674 15.689 25.1886C15.4974 25.2491 15.3948 25.1957 15.3575 25.1535C15.3575 25.1535 15.0863 25.4183 14.8692 25.6262C14.8018 25.6115 14.7385 25.5957 14.6787 25.5794C14.7834 25.5062 15.0664 25.2984 15.2221 25.0793C15.2221 25.0793 15.2038 25.057 15.1813 25.0285C15.1492 24.9887 15.1222 24.9449 15.1011 24.8984C15.0822 24.8425 15.0704 24.6915 15.241 24.596C15.4116 24.5005 15.5608 24.3546 15.5373 24.257C15.5138 24.1594 15.381 24.1665 15.3391 24.2224C15.3391 24.2224 15.4019 24.011 15.6144 24.0191C15.6388 24.0201 15.663 24.0249 15.6859 24.0334C15.8141 24.0842 15.7727 24.2606 15.7405 24.3048L15.7135 24.3393C15.6399 24.4334 15.4622 24.657 15.4862 24.7347C15.4862 24.7347 15.6629 24.5584 15.787 24.4268C15.8286 24.385 15.8674 24.3405 15.903 24.2936C15.903 24.2936 15.8881 24.3592 15.8595 24.4501C15.8191 24.5901 15.7584 24.7235 15.6792 24.846C15.7564 24.7763 15.8259 24.6986 15.8866 24.6143C15.9045 24.5833 15.9331 24.5279 15.9688 24.4694C16.0357 24.3602 16.1282 24.2407 16.2273 24.2545C16.2615 24.2586 16.2935 24.2735 16.3187 24.297C16.3439 24.3205 16.3608 24.3513 16.3672 24.3851C16.374 24.431 16.3702 24.4778 16.356 24.522C16.3418 24.5663 16.3177 24.6067 16.2855 24.6402Z" fill="#8C1539"/>
<path d="M15.6633 25.3142L15.3512 25.6948C15.2358 25.6867 15.127 25.6735 15.0254 25.6562C15.1755 25.5007 15.4238 25.2918 15.6633 25.3142Z" fill="#8C1539"/>
<path d="M17.0132 25.1714C16.9993 25.1956 16.9837 25.2188 16.9668 25.241C16.9157 25.3071 16.8319 25.3991 16.7318 25.4149C16.5852 25.4387 15.9586 25.2116 15.5362 25.7025C15.506 25.7025 15.4759 25.7025 15.4463 25.7C15.5995 25.5053 15.8871 25.2019 16.1833 25.2466C16.2791 25.2628 16.3762 25.2702 16.4734 25.269C16.7017 25.2639 16.8181 25.1821 16.9019 25.0189C17.0163 24.7984 16.953 24.7033 16.7717 24.7648C16.5903 24.8263 16.6036 25.1679 16.7717 24.9742C16.7717 24.9859 16.7134 25.2105 16.5454 25.1043C16.3774 24.9981 16.504 24.4761 16.9182 24.6434C16.9693 24.6601 17.0204 24.7008 17.0924 24.5148C17.0924 24.5148 17.1848 24.5814 17.026 24.8461C17.026 24.8461 17.145 24.7892 17.1603 24.7486C17.1603 24.7486 17.2114 24.8975 16.9259 25.1668C16.9542 25.1756 16.9842 25.1772 17.0132 25.1714Z" fill="#8C1539"/>
<path d="M16.4998 25.583C16.251 25.6494 15.9956 25.6886 15.7383 25.6999C15.9078 25.5835 16.225 25.4204 16.4998 25.583Z" fill="#8C1539"/>
<path d="M16.3955 23.5973C16.4283 23.5745 16.4561 23.5453 16.4772 23.5114C16.5216 23.4464 16.657 23.3442 16.7035 23.3701C16.6974 23.4011 16.6955 23.4327 16.6978 23.4642C16.7219 23.4495 16.7496 23.4418 16.7778 23.4418C16.806 23.4418 16.8336 23.4495 16.8577 23.4642C16.8577 23.4642 16.7934 23.5658 16.8123 23.5933C16.8123 23.5933 16.9088 23.5968 16.9267 23.6558C16.9267 23.6558 16.8368 23.6756 16.8296 23.7513C16.8225 23.827 16.7678 23.9693 16.6932 23.9719C16.6749 23.9734 16.6565 23.971 16.6392 23.9647C16.6219 23.9584 16.6063 23.9485 16.5932 23.9356C16.5802 23.9227 16.5702 23.9071 16.5638 23.8899C16.5574 23.8728 16.5549 23.8544 16.5564 23.8362C16.5564 23.7432 16.6171 23.5897 16.7127 23.6791C16.7127 23.6791 16.587 23.7406 16.6616 23.8408C16.7362 23.9409 16.8991 23.6375 16.6922 23.5597C16.4854 23.4819 16.466 23.951 16.3786 24.0507C16.2913 24.1503 16.2075 24.1488 16.1079 24.0944C16.0084 24.04 15.9353 24.1411 15.8219 23.9983C15.7085 23.8555 15.8842 23.6283 15.8434 23.483C15.8025 23.3376 15.6784 23.2985 15.613 23.3945C15.5477 23.4906 15.565 23.6237 15.6227 23.61C15.6805 23.5963 15.73 23.517 15.6784 23.4799C15.6784 23.4799 15.7193 23.4179 15.752 23.4708C15.7846 23.5236 15.7469 23.7335 15.6365 23.7366C15.5262 23.7396 15.4833 23.641 15.5058 23.5333C15.5283 23.4255 15.5814 23.3808 15.5007 23.3625C15.5007 23.3625 15.4935 23.2573 15.6427 23.3071C15.6427 23.3071 15.6457 23.2111 15.6227 23.1892C15.6227 23.1892 15.6799 23.1491 15.7938 23.2604C15.7938 23.2604 15.8138 23.2045 15.8015 23.1821C15.8015 23.1821 15.8776 23.174 15.9307 23.3518C15.9838 23.5297 16.0114 23.5267 16.0114 23.5267C16.0114 23.5267 16.0272 23.3071 16.1268 23.2726C16.2264 23.238 16.1064 23.1267 16.1095 23.0693C16.1095 23.0693 16.2009 23.0352 16.2397 23.1013C16.2397 23.1013 16.2351 22.7481 16.2933 22.6657C16.3516 22.5834 16.3996 22.7923 16.3832 22.9036C16.3669 23.0149 16.3117 23.0698 16.3807 23.0723C16.3989 23.0716 16.417 23.0769 16.4319 23.0873C16.4469 23.0978 16.4579 23.1129 16.4634 23.1303C16.4318 23.1789 16.404 23.2299 16.3802 23.2827C16.3797 23.2983 16.3827 23.3137 16.389 23.3279C16.3953 23.3422 16.4046 23.3548 16.4164 23.3651C16.4363 23.3757 16.4782 23.4454 16.3868 23.5892L16.3955 23.5973Z" fill="#8C1539"/>
<path d="M10.9262 7.66015C11.3972 7.66015 11.7791 7.28015 11.7791 6.8114C11.7791 6.34265 11.3972 5.96265 10.9262 5.96265C10.4551 5.96265 10.0732 6.34265 10.0732 6.8114C10.0732 7.28015 10.4551 7.66015 10.9262 7.66015Z" fill="#8C1539"/>
<path d="M10.6138 7.16056C10.614 7.21756 10.5916 7.27235 10.5515 7.31303C10.432 7.22497 10.3477 7.09768 10.3135 6.95371C10.3385 6.94386 10.3652 6.93885 10.3921 6.93897C10.4213 6.93897 10.4502 6.94471 10.4772 6.95585C10.5042 6.967 10.5286 6.98334 10.5492 7.00393C10.5698 7.02452 10.5861 7.04896 10.5972 7.07584C10.6083 7.10271 10.6139 7.13151 10.6138 7.16056Z" fill="white"/>
<path d="M10.6575 6.38652C10.6575 6.44467 10.6345 6.50047 10.5933 6.54178C10.5522 6.58309 10.4963 6.60656 10.4379 6.6071C10.4039 6.60725 10.3703 6.59941 10.3398 6.58423C10.3931 6.44787 10.4929 6.33452 10.6218 6.26404C10.6458 6.30034 10.6583 6.34304 10.6575 6.38652Z" fill="white"/>
<path d="M11.3015 6.31028C11.2822 6.34348 11.2544 6.37103 11.221 6.39013C11.1875 6.40922 11.1496 6.4192 11.111 6.41904C11.0819 6.41911 11.053 6.41345 11.0261 6.4024C10.9991 6.39134 10.9746 6.3751 10.954 6.35461C10.9333 6.33412 10.917 6.30979 10.9058 6.28299C10.8946 6.2562 10.8889 6.22747 10.8889 6.19847C10.8886 6.19457 10.8886 6.19067 10.8889 6.18678H10.9251C11.0608 6.18611 11.1929 6.22947 11.3015 6.31028Z" fill="white"/>
<path d="M11.5542 6.81034C11.5544 6.8958 11.537 6.98039 11.5031 7.05887C11.4528 7.04666 11.4084 7.01734 11.3776 6.97598C11.3468 6.93463 11.3315 6.88385 11.3343 6.83244C11.3372 6.78103 11.358 6.73224 11.3932 6.69451C11.4284 6.65678 11.4758 6.63249 11.5271 6.62585C11.5452 6.68568 11.5544 6.74785 11.5542 6.81034Z" fill="white"/>
<path d="M11.2843 7.32523C11.1617 7.40976 11.0129 7.44814 10.8644 7.43348C10.8642 7.43044 10.8642 7.42738 10.8644 7.42433C10.8646 7.37471 10.8816 7.32659 10.9126 7.28772C10.9436 7.24886 10.9869 7.2215 11.0354 7.21006C11.0839 7.19862 11.1349 7.20375 11.1801 7.22465C11.2254 7.24554 11.2622 7.28096 11.2848 7.32523H11.2843Z" fill="white"/>
<path d="M11.1264 7.00705L10.8077 7.05736L10.6611 6.77123L10.8894 6.54456L11.177 6.69042L11.1264 7.00705Z" fill="white"/>
<path d="M11.1009 8.3167L10.8135 8.03064L10.5372 8.30556L10.8247 8.59163L11.1009 8.3167Z" fill="#8C1539"/>
<path d="M11.5636 5.40163L11.3604 5.05127L11.022 5.24567L11.2253 5.59603L11.5636 5.40163Z" fill="#8C1539"/>
<path d="M11.7019 15.586L11.5773 15.3786L11.6907 15.311L12.0482 15.9001L11.9348 15.9677L11.8097 15.7598L11.2004 16.1237L11.0957 15.9494L11.7019 15.586Z" fill="#BCBAB7"/>
<path d="M12.0061 16.8606C12.1297 16.7869 12.2722 16.7082 12.356 16.6599L12.3534 16.6558C12.1961 16.7041 11.9198 16.7961 11.6476 16.8718L11.5531 16.7148C11.7426 16.5379 11.9683 16.3275 12.0894 16.2132L12.0863 16.2076C12.0051 16.2635 11.8565 16.36 11.7288 16.4327L11.4734 16.5852L11.3779 16.4261L12.1006 15.9951L12.2569 16.2548C12.0879 16.4251 11.9132 16.5898 11.8192 16.6721C11.929 16.6335 12.1834 16.5643 12.405 16.5008L12.5582 16.7549L11.8361 17.1859L11.7339 17.0192L12.0061 16.8606Z" fill="#BCBAB7"/>
</svg>
