<svg width="25" height="31" viewBox="0 0 25 31" fill="none" xmlns="http://www.w3.org/2000/svg">
<g clip-path="url(#clip0_4368_6255)">
<path d="M2.70228 22.9472C2.70228 23.5529 3.24571 23.8505 3.9843 23.8505C4.72288 23.8505 5.26632 23.5529 5.26632 22.9472V21.5963C5.26575 21.5884 5.26144 21.5809 5.25432 21.5756C5.2472 21.5703 5.23782 21.5674 5.22817 21.5677H4.51225C4.50276 21.5675 4.49358 21.5704 4.48667 21.5758C4.47975 21.5811 4.47564 21.5885 4.47521 21.5963V22.9408C4.47521 23.1971 4.31655 23.3434 3.97766 23.3411C3.85253 23.3425 3.73176 23.3034 3.64138 23.2322C3.551 23.1611 3.49825 23.0636 3.49449 22.9608V21.5976C3.49392 21.5898 3.48969 21.5825 3.48269 21.5771C3.47568 21.5718 3.46644 21.5689 3.4569 21.569H2.73821C2.72872 21.5689 2.71954 21.5718 2.71263 21.5772C2.70571 21.5825 2.7016 21.5898 2.70117 21.5976V22.9485M5.78377 21.5677C5.77428 21.5675 5.7651 21.5704 5.75819 21.5758C5.75127 21.5811 5.74716 21.5885 5.74673 21.5963V23.7887C5.74687 23.7926 5.74795 23.7964 5.74989 23.7999C5.75182 23.8035 5.75459 23.8066 5.75803 23.8093C5.76147 23.812 5.76552 23.814 5.76993 23.8154C5.77435 23.8168 5.77905 23.8174 5.78377 23.8173H7.84308C7.85257 23.8174 7.86174 23.8145 7.86866 23.8092C7.87558 23.8038 7.87969 23.7965 7.88012 23.7887V23.3393C7.87968 23.3315 7.87556 23.3242 7.86863 23.319C7.86169 23.3137 7.85251 23.3109 7.84308 23.3111H6.53507V22.9244H7.56666C7.5763 22.9246 7.58561 22.9216 7.59263 22.9162C7.59965 22.9107 7.60382 22.9033 7.60425 22.8954V22.4728C7.60368 22.465 7.59943 22.4577 7.59241 22.4524C7.58539 22.4472 7.57615 22.4444 7.56666 22.4446H6.53507V22.0743H7.78005C7.78477 22.0744 7.78947 22.0738 7.79389 22.0724C7.79831 22.071 7.80235 22.0689 7.80579 22.0663C7.80923 22.0636 7.812 22.0604 7.81394 22.0569C7.81588 22.0534 7.81695 22.0495 7.81709 22.0457V21.5963C7.81666 21.5885 7.81255 21.5811 7.80564 21.5758C7.79872 21.5704 7.78954 21.5675 7.78005 21.5677H5.78377ZM8.29972 21.5677C8.29022 21.5675 8.28105 21.5704 8.27413 21.5758C8.26722 21.5811 8.26311 21.5885 8.26268 21.5963V23.7887C8.26282 23.7926 8.26389 23.7964 8.26583 23.7999C8.26777 23.8035 8.27054 23.8066 8.27398 23.8093C8.27742 23.812 8.28146 23.814 8.28588 23.8154C8.29029 23.8168 8.295 23.8174 8.29972 23.8173H9.0184C9.02784 23.8174 9.03695 23.8145 9.04378 23.8091C9.05061 23.8038 9.0546 23.7964 9.05489 23.7887V23.0367H10.0914C10.1009 23.0369 10.1102 23.0341 10.1172 23.0289C10.1242 23.0236 10.1285 23.0163 10.129 23.0085V22.5587C10.1285 22.5509 10.1242 22.5436 10.1172 22.5383C10.1102 22.533 10.1009 22.5302 10.0914 22.5305H9.05102V22.0761H10.2849C10.2916 22.0757 10.2981 22.0739 10.3037 22.0709C10.3093 22.0679 10.3139 22.0637 10.317 22.0588L10.5978 21.609C10.6004 21.6045 10.6014 21.5995 10.6009 21.5945C10.6003 21.5896 10.5982 21.5848 10.5947 21.5807C10.5913 21.5767 10.5866 21.5734 10.5811 21.5713C10.5757 21.5691 10.5696 21.5682 10.5636 21.5686H8.29695M12.0452 23.5469H11.0158L10.8787 23.801C10.8753 23.8061 10.8703 23.8105 10.8642 23.8135C10.858 23.8166 10.851 23.8182 10.8439 23.8182H10.1545C10.1484 23.8186 10.1424 23.8177 10.1369 23.8156C10.1314 23.8135 10.1267 23.8102 10.1233 23.8061C10.1198 23.802 10.1178 23.7972 10.1174 23.7922C10.1169 23.7872 10.1181 23.7823 10.1207 23.7778L11.5332 21.5281C11.546 21.5049 11.5725 21.5049 11.5852 21.5281L12.9938 23.7769C12.9963 23.7814 12.9973 23.7863 12.9968 23.7912C12.9963 23.7961 12.9942 23.8008 12.9909 23.8049C12.9875 23.809 12.9828 23.8123 12.9775 23.8144C12.9721 23.8166 12.9661 23.8176 12.9601 23.8173H12.2265C12.2196 23.8174 12.2128 23.8158 12.2069 23.8128C12.2011 23.8099 12.1964 23.8056 12.1933 23.8005L12.0452 23.5469ZM11.259 23.1103H11.7936L11.5244 22.6341L11.259 23.1103Z" fill="#405463"/>
<path d="M11.0667 24.662C11.0543 24.6618 11.0423 24.6656 11.0333 24.6725C11.0243 24.6795 11.019 24.6891 11.0186 24.6993V27.5619C11.019 27.5721 11.0243 27.5817 11.0333 27.5887C11.0423 27.5956 11.0543 27.5994 11.0667 27.5992H12.0032C12.0156 27.5994 12.0277 27.5957 12.0368 27.5887C12.0459 27.5817 12.0513 27.5721 12.0519 27.5619V24.6993C12.0513 24.6891 12.0459 24.6795 12.0368 24.6725C12.0277 24.6655 12.0156 24.6618 12.0032 24.662H11.0667ZM12.5566 26.1315C12.5566 25.2455 13.5163 24.6275 14.6286 24.6275C15.7409 24.6275 16.7006 25.2455 16.7006 26.1315C16.7006 27.0176 15.7415 27.6401 14.6286 27.6401C13.5158 27.6401 12.5566 27.0176 12.5566 26.1315ZM15.6447 26.1315C15.6447 25.6689 15.276 25.3104 14.6286 25.3104C13.9812 25.3104 13.6125 25.6689 13.6125 26.1315C13.6125 26.5941 13.9812 26.9571 14.6286 26.9571C15.276 26.9571 15.6447 26.5936 15.6447 26.1315ZM8.47613 27.5637C8.47627 27.5688 8.47763 27.5738 8.48013 27.5784C8.48264 27.583 8.48623 27.5871 8.4907 27.5906C8.49518 27.5941 8.50044 27.5968 8.5062 27.5986C8.51195 27.6003 8.51808 27.6012 8.52422 27.601H9.46072C9.47309 27.6012 9.48508 27.5975 9.49409 27.5905C9.50309 27.5835 9.50839 27.5739 9.50882 27.5637V25.3232H10.4824C10.4947 25.3235 10.5068 25.3199 10.5159 25.313C10.525 25.3061 10.5304 25.2965 10.531 25.2864V24.6993C10.5304 24.6891 10.525 24.6795 10.5159 24.6725C10.5068 24.6655 10.4948 24.6618 10.4824 24.662H7.09791C7.0901 24.6617 7.08231 24.6631 7.07533 24.666C7.06834 24.6689 7.06239 24.6732 7.05805 24.6786C7.0537 24.6839 7.05112 24.6901 7.05055 24.6965C7.04998 24.7029 7.05144 24.7094 7.05479 24.7152L7.42187 25.3027C7.42624 25.3089 7.43253 25.3141 7.4401 25.3177C7.44767 25.3213 7.45626 25.3232 7.465 25.3232H8.47613V27.5637ZM21.1045 27.1366C21.1003 27.1399 21.0969 27.1438 21.0946 27.1482C21.0923 27.1526 21.0911 27.1573 21.0911 27.162C21.0911 27.1668 21.0923 27.1715 21.0946 27.1759C21.0969 27.1803 21.1003 27.1842 21.1045 27.1875C21.3693 27.4088 21.8447 27.6419 22.6088 27.6419C23.6304 27.6419 24.0732 27.2529 24.0732 26.7131C24.0732 26.2978 23.8123 26.017 23.04 25.8225L22.5269 25.6939C22.339 25.6485 22.2544 25.5903 22.2544 25.4781C22.2544 25.3659 22.3793 25.275 22.6287 25.275C22.7488 25.2711 22.8686 25.2869 22.9812 25.3214C23.0939 25.3559 23.1971 25.4083 23.2849 25.4758C23.2893 25.479 23.7327 25.1364 23.8576 25.0405C23.8618 25.0372 23.8651 25.0333 23.8673 25.0289C23.8696 25.0245 23.8707 25.0198 23.8707 25.0151C23.8707 25.0103 23.8696 25.0056 23.8673 25.0013C23.8651 24.9969 23.8618 24.9929 23.8576 24.9896C23.6249 24.797 23.2224 24.6261 22.5706 24.6261C21.8834 24.6261 21.2538 24.9242 21.2538 25.5035C21.2538 25.9875 21.6513 26.2465 22.2129 26.3891L22.6668 26.5059C22.9222 26.5709 23.0472 26.6313 23.0472 26.7567C23.0472 26.9208 22.8658 26.9898 22.5596 26.9898C22.1958 26.9898 21.9514 26.849 21.7696 26.6845C21.7602 26.6766 21.7476 26.6719 21.7342 26.6715C21.7208 26.6711 21.7077 26.6749 21.6977 26.6822L21.1045 27.1366ZM20.5771 27.6519C20.6401 27.6905 20.6567 27.6778 20.6567 27.6432V24.6988C20.6565 24.6938 20.6551 24.6888 20.6525 24.6842C20.6499 24.6795 20.6463 24.6754 20.6418 24.6719C20.6373 24.6685 20.632 24.6658 20.6262 24.664C20.6204 24.6622 20.6142 24.6614 20.6081 24.6616H19.7351C19.7226 24.6612 19.7104 24.6649 19.7012 24.6719C19.692 24.6789 19.6865 24.6885 19.6859 24.6988V26.1356L17.2623 24.6143C17.1998 24.5752 17.1833 24.597 17.1833 24.6229V27.5628C17.1834 27.5679 17.1848 27.573 17.1873 27.5776C17.1898 27.5823 17.1935 27.5865 17.198 27.59C17.2025 27.5935 17.2078 27.5963 17.2137 27.5981C17.2195 27.5999 17.2257 27.6007 17.2319 27.6005H18.1054C18.1116 27.6006 18.1177 27.5998 18.1234 27.5979C18.1292 27.5961 18.1345 27.5934 18.1389 27.5899C18.1434 27.5864 18.147 27.5822 18.1495 27.5775C18.152 27.5729 18.1533 27.5679 18.1535 27.5628V26.1356L20.5771 27.6519ZM3.61064 27.6519C3.67311 27.6905 3.69025 27.6778 3.69025 27.6432V24.7002C3.69011 24.6951 3.68873 24.6901 3.68619 24.6854C3.68366 24.6808 3.68001 24.6766 3.67548 24.6731C3.67095 24.6697 3.66561 24.667 3.6598 24.6652C3.65398 24.6635 3.64779 24.6627 3.6416 24.6629H2.76868C2.76246 24.6627 2.75624 24.6635 2.75039 24.6652C2.74454 24.667 2.73917 24.6696 2.7346 24.6731C2.73002 24.6766 2.72633 24.6808 2.72373 24.6854C2.72113 24.6901 2.71969 24.6951 2.71947 24.7002V26.1356L0.296405 24.6143C0.233935 24.5752 0.216797 24.597 0.216797 24.6229V27.5628C0.21694 27.5679 0.218299 27.5729 0.220794 27.5775C0.223289 27.5822 0.226872 27.5864 0.231338 27.5899C0.235805 27.5934 0.241067 27.5961 0.246824 27.5979C0.252582 27.5998 0.258722 27.6006 0.264893 27.6005H1.21964C1.22581 27.6006 1.23195 27.5998 1.2377 27.5979C1.24346 27.5961 1.24873 27.5934 1.25319 27.5899C1.25766 27.5864 1.26124 27.5822 1.26374 27.5775C1.26623 27.5729 1.26759 27.5679 1.26773 27.5628V26.1738L3.61064 27.6519ZM6.59594 27.2457H5.2509L5.07067 27.5774C5.06676 27.5843 5.06042 27.5902 5.05246 27.5943C5.04449 27.5983 5.03525 27.6003 5.02589 27.6001H4.12478C4.11687 27.6005 4.10894 27.5993 4.1018 27.5965C4.09466 27.5936 4.08854 27.5893 4.08407 27.5839C4.07959 27.5786 4.07691 27.5723 4.07629 27.5658C4.07568 27.5593 4.07714 27.5528 4.08055 27.5469L5.92591 24.6098C5.94304 24.5798 5.97677 24.5798 5.99446 24.6098L7.83373 27.5469C7.83714 27.5528 7.83861 27.5593 7.83799 27.5658C7.83737 27.5723 7.83469 27.5786 7.83022 27.5839C7.82574 27.5893 7.81963 27.5936 7.81248 27.5965C7.80534 27.5993 7.79742 27.6005 7.78951 27.6001H6.83366C6.82445 27.6003 6.81535 27.5984 6.80742 27.5945C6.7995 27.5906 6.79306 27.585 6.78888 27.5783L6.59594 27.2457ZM5.56767 26.6754H6.26645L5.9143 26.0529L5.56767 26.6754Z" fill="#405463"/>
<path d="M0.265446 28.1195C0.259229 28.1193 0.25303 28.1201 0.247209 28.1219C0.241387 28.1237 0.236059 28.1265 0.231534 28.13C0.227008 28.1335 0.223374 28.1377 0.220844 28.1424C0.218315 28.147 0.216939 28.1521 0.216797 28.1572V31.0198C0.216937 31.0249 0.218316 31.0299 0.220853 31.0346C0.223389 31.0392 0.227032 31.0434 0.231566 31.0469C0.2361 31.0503 0.241432 31.053 0.247251 31.0548C0.25307 31.0565 0.259257 31.0573 0.265446 31.0571H2.8411C2.84729 31.0573 2.85347 31.0565 2.85929 31.0548C2.86511 31.053 2.87044 31.0503 2.87498 31.0469C2.87951 31.0434 2.88315 31.0392 2.88569 31.0346C2.88823 31.0299 2.88961 31.0249 2.88975 31.0198V30.4341C2.88953 30.429 2.8881 30.424 2.88554 30.4194C2.88298 30.4148 2.87934 30.4106 2.87482 30.4072C2.8703 30.4037 2.865 30.401 2.85921 30.3992C2.85342 30.3975 2.84727 30.3967 2.8411 30.3968H1.25833V28.1572C1.25826 28.1521 1.25696 28.1471 1.25449 28.1424C1.25202 28.1377 1.24844 28.1335 1.24396 28.13C1.23947 28.1265 1.23418 28.1237 1.22839 28.1219C1.2226 28.1201 1.21643 28.1193 1.21024 28.1195H0.265446ZM3.4166 28.1195C3.41035 28.1193 3.40412 28.1201 3.39827 28.1219C3.39242 28.1237 3.38705 28.1264 3.38248 28.1299C3.37791 28.1334 3.37423 28.1377 3.37164 28.1423C3.36905 28.147 3.36761 28.152 3.36739 28.1572V31.0198C3.36797 31.0301 3.37346 31.0398 3.38267 31.0467C3.39189 31.0537 3.40408 31.0574 3.4166 31.0571H6.10558C6.1181 31.0574 6.13029 31.0537 6.1395 31.0467C6.14871 31.0398 6.1542 31.0301 6.15478 31.0198V30.4341C6.15407 30.4239 6.14853 30.4142 6.13935 30.4073C6.13017 30.4003 6.11806 30.3966 6.10558 30.3968H4.40119V29.8916H5.749C5.76152 29.8918 5.77365 29.888 5.78276 29.8809C5.79186 29.8739 5.79722 29.8641 5.79765 29.8538V29.3013C5.79694 29.2912 5.79144 29.2818 5.78235 29.275C5.77325 29.2682 5.76128 29.2646 5.749 29.265H4.40119V28.7806H6.02708C6.03941 28.7808 6.05138 28.7771 6.06046 28.7703C6.06954 28.7634 6.07501 28.7539 6.07572 28.7438V28.1572C6.07558 28.1521 6.07421 28.147 6.07168 28.1424C6.06915 28.1377 6.06551 28.1335 6.06099 28.13C6.05646 28.1265 6.05113 28.1237 6.04531 28.1219C6.03949 28.1201 6.03329 28.1193 6.02708 28.1195H3.41604M14.2825 29.9197C14.2825 30.7104 14.9918 31.1011 15.9565 31.1011C16.9212 31.1011 17.6316 30.7122 17.6316 29.9197V28.1572C17.6314 28.152 17.6299 28.147 17.6274 28.1423C17.6248 28.1377 17.6211 28.1334 17.6165 28.1299C17.6119 28.1264 17.6066 28.1237 17.6007 28.1219C17.5949 28.1201 17.5886 28.1193 17.5824 28.1195H16.647C16.6408 28.1193 16.6346 28.1201 16.6288 28.1219C16.6229 28.1237 16.6176 28.1265 16.6131 28.13C16.6086 28.1335 16.6049 28.1377 16.6024 28.1424C16.5999 28.147 16.5985 28.1521 16.5984 28.1572V29.9129C16.5984 30.2483 16.391 30.4386 15.9466 30.4359C15.5944 30.4332 15.3158 30.2087 15.3158 29.9388V28.1572C15.3156 28.152 15.3141 28.147 15.3115 28.1423C15.3089 28.1377 15.3053 28.1334 15.3007 28.1299C15.2961 28.1264 15.2908 28.1237 15.2849 28.1219C15.279 28.1201 15.2728 28.1193 15.2666 28.1195H14.3312C14.325 28.1193 14.3188 28.1201 14.3129 28.1219C14.3071 28.1237 14.3018 28.1265 14.2973 28.13C14.2927 28.1335 14.2891 28.1377 14.2866 28.1424C14.2841 28.147 14.2827 28.1521 14.2825 28.1572V29.9197ZM18.3105 28.1176C18.3043 28.1175 18.2981 28.1183 18.2922 28.1201C18.2864 28.1219 18.2811 28.1246 18.2766 28.1281C18.272 28.1317 18.2684 28.1359 18.2659 28.1405C18.2633 28.1452 18.262 28.1502 18.2618 28.1554V31.018C18.262 31.0231 18.2633 31.0281 18.2659 31.0327C18.2684 31.0374 18.2721 31.0416 18.2766 31.045C18.2811 31.0485 18.2865 31.0512 18.2923 31.053C18.2981 31.0547 18.3043 31.0555 18.3105 31.0552H20.9995C21.0056 31.0555 21.0118 31.0547 21.0177 31.053C21.0235 31.0512 21.0288 31.0485 21.0333 31.045C21.0379 31.0416 21.0415 31.0374 21.0441 31.0327C21.0466 31.0281 21.048 31.0231 21.0481 31.018V30.4341C21.0479 30.429 21.0465 30.424 21.0439 30.4194C21.0413 30.4148 21.0377 30.4106 21.0332 30.4072C21.0287 30.4037 21.0234 30.401 21.0176 30.3992C21.0118 30.3975 21.0056 30.3967 20.9995 30.3968H19.2951V29.8916H20.6423C20.6548 29.8918 20.667 29.888 20.6761 29.8809C20.6852 29.8739 20.6905 29.8641 20.691 29.8538V29.3013C20.6903 29.2912 20.6848 29.2818 20.6757 29.275C20.6666 29.2682 20.6546 29.2646 20.6423 29.265H19.2951V28.7806H20.9204C20.9327 28.7808 20.9447 28.7771 20.9538 28.7703C20.9629 28.7634 20.9683 28.7539 20.9691 28.7438V28.1572C20.9689 28.1521 20.9675 28.147 20.965 28.1424C20.9625 28.1377 20.9588 28.1335 20.9543 28.13C20.9498 28.1265 20.9445 28.1237 20.9386 28.1219C20.9328 28.1201 20.9266 28.1193 20.9204 28.1195H18.3105M12.8861 30.3191C12.7202 30.3796 12.5113 30.4359 12.1364 30.4359C11.4559 30.4359 11.1037 30.051 11.1037 29.5889C11.1037 29.1268 11.4498 28.7674 12.0806 28.7674C12.2337 28.7631 12.3861 28.7862 12.5272 28.8352C12.6683 28.8841 12.7947 28.9578 12.8977 29.051C12.9022 29.055 12.9076 29.0583 12.9137 29.0606C12.9197 29.063 12.9263 29.0643 12.9329 29.0646C12.9396 29.0648 12.9463 29.064 12.9526 29.0621C12.9588 29.0602 12.9646 29.0574 12.9696 29.0537L13.5738 28.5893C13.5782 28.5862 13.5818 28.5824 13.5843 28.5781C13.5869 28.5738 13.5883 28.5691 13.5886 28.5643C13.5888 28.5596 13.5879 28.5548 13.5858 28.5504C13.5838 28.5459 13.5806 28.5418 13.5766 28.5384C13.2393 28.2526 12.7346 28.084 12.1027 28.084C10.9899 28.084 10.0478 28.702 10.0478 29.588C10.0478 30.4741 10.9876 31.0961 12.1254 31.0961C12.9823 31.0961 13.4478 30.9144 13.8054 30.6895V29.4572C13.8049 29.447 13.7994 29.4374 13.7903 29.4305C13.7812 29.4237 13.7692 29.42 13.7568 29.4204H12.1685C12.1561 29.42 12.1441 29.4237 12.135 29.4305C12.1259 29.4374 12.1204 29.447 12.1199 29.4572V29.9879C12.1204 29.9981 12.1258 30.0077 12.1349 30.0147C12.144 30.0216 12.1561 30.0254 12.1685 30.0252H12.8872L12.8861 30.3191ZM8.97478 30.7035H7.62974L7.44896 31.0352C7.44499 31.0422 7.43864 31.0481 7.43069 31.0521C7.42274 31.0561 7.41353 31.0582 7.40418 31.058H6.50196C6.49409 31.0584 6.48624 31.057 6.47918 31.0542C6.47212 31.0513 6.46608 31.047 6.46167 31.0416C6.45726 31.0363 6.45463 31.03 6.45404 31.0236C6.45344 31.0171 6.45491 31.0107 6.45828 31.0048L8.30364 28.0681C8.32078 28.0377 8.3545 28.0377 8.37109 28.0681L10.2115 31.0048C10.2147 31.0107 10.216 31.0172 10.2153 31.0236C10.2147 31.0301 10.212 31.0363 10.2075 31.0416C10.2031 31.0469 10.197 31.0512 10.19 31.0541C10.1829 31.057 10.1751 31.0583 10.1672 31.058H9.21084C9.2016 31.058 9.19251 31.056 9.1846 31.0521C9.17669 31.0481 9.17027 31.0425 9.16606 31.0357L8.97478 30.7035ZM7.94762 30.1333H8.64585L8.29369 29.5108L7.94762 30.1333Z" fill="#405463"/>
<path d="M21.3184 28.2149V28.1368C21.3184 28.1355 21.3187 28.1342 21.3193 28.133C21.3199 28.1318 21.3208 28.1307 21.322 28.1298C21.3231 28.1289 21.3244 28.1283 21.3259 28.1278C21.3274 28.1273 21.3289 28.1271 21.3305 28.1272H21.8607C21.8623 28.1271 21.8638 28.1273 21.8653 28.1278C21.8668 28.1283 21.8681 28.1289 21.8693 28.1298C21.8704 28.1307 21.8713 28.1318 21.8719 28.133C21.8725 28.1342 21.8729 28.1355 21.8729 28.1368V28.2149C21.8729 28.2162 21.8725 28.2174 21.8719 28.2186C21.8713 28.2198 21.8704 28.2208 21.8692 28.2217C21.8681 28.2225 21.8667 28.2232 21.8653 28.2236C21.8638 28.224 21.8622 28.2241 21.8607 28.224H21.6722V28.6725C21.6722 28.6751 21.6709 28.6777 21.6686 28.6795C21.6663 28.6814 21.6632 28.6825 21.66 28.6825H21.5395C21.5379 28.6825 21.5364 28.6822 21.5349 28.6817C21.5335 28.6812 21.5322 28.6804 21.5311 28.6795C21.53 28.6786 21.5292 28.6775 21.5286 28.6763C21.5281 28.675 21.5278 28.6738 21.5279 28.6725V28.224H21.3327C21.3312 28.2241 21.3296 28.224 21.3282 28.2236C21.3267 28.2232 21.3253 28.2225 21.3242 28.2217C21.323 28.2208 21.3221 28.2198 21.3215 28.2186C21.3209 28.2174 21.3206 28.2162 21.3206 28.2149" fill="#405463"/>
<path d="M22.0146 28.1195H22.0268L22.3685 28.4012C22.372 28.4041 22.3768 28.4057 22.3817 28.4057C22.3867 28.4057 22.3915 28.4041 22.395 28.4012L22.7366 28.1195H22.7499V28.6684C22.7498 28.6703 22.7493 28.6722 22.7484 28.6739C22.7474 28.6757 22.746 28.6772 22.7443 28.6786C22.7427 28.6799 22.7407 28.6809 22.7385 28.6816C22.7363 28.6822 22.734 28.6825 22.7317 28.6825H22.6211C22.6166 28.6825 22.6122 28.681 22.609 28.6784C22.6058 28.6757 22.604 28.6721 22.604 28.6684V28.3571L22.3939 28.5389C22.3922 28.5405 22.3902 28.5418 22.3878 28.5427C22.3855 28.5436 22.3829 28.5441 22.3804 28.5441C22.3778 28.5441 22.3752 28.5436 22.3729 28.5427C22.3705 28.5418 22.3685 28.5405 22.3668 28.5389L22.1595 28.3571V28.6684C22.1595 28.6721 22.1577 28.6757 22.1545 28.6784C22.1513 28.681 22.1469 28.6825 22.1424 28.6825H22.0318C22.0272 28.6825 22.0229 28.681 22.0197 28.6784C22.0165 28.6757 22.0146 28.6721 22.0146 28.6684V28.1195Z" fill="#405463"/>
<path d="M1.262 2.42584C1.26217 2.41391 1.25864 2.40214 1.25176 2.39164C1.24487 2.38114 1.23486 2.37224 1.22264 2.36579C1.21043 2.35934 1.19642 2.35555 1.18194 2.35477C1.16745 2.35398 1.15296 2.35624 1.13983 2.36132C0.81391 2.48084 0.526103 2.66078 0.29897 2.88704C0.241081 2.947 0.209696 3.02134 0.209963 3.09788V23.4429C0.209986 23.4851 0.22164 23.5267 0.244046 23.5646C0.266452 23.6026 0.299027 23.6358 0.339325 23.6619L1.10998 24.1826C1.12367 24.1915 1.14013 24.197 1.15747 24.1986C1.17481 24.2001 1.19233 24.1976 1.20802 24.1914C1.22371 24.1851 1.23694 24.1753 1.24619 24.1632C1.25545 24.151 1.26035 24.137 1.26035 24.1227L1.262 2.42584Z" fill="#405463"/>
<path d="M4.32043 6.06732L4.30273 6.00916C4.69359 5.50025 5.06564 4.98089 5.42609 4.47789C5.80976 3.94217 6.17463 3.43281 6.54447 2.96025L6.66831 2.88391L6.7938 2.89891C7.66938 3.37459 8.49788 3.90636 9.2716 4.48925V4.55059L9.14721 4.59603C8.01114 4.63783 6.60694 5.20399 5.24642 5.75016C4.97885 5.85785 4.70354 5.96781 4.43486 6.07232L4.32043 6.06732Z" fill="#D32C20"/>
<path d="M16.9131 6.57399C16.0285 6.57399 15.0633 6.38361 13.961 5.9942L13.8145 5.89378L13.8244 5.8279C14.3861 5.41668 14.8084 5.08861 15.2468 4.68149L15.3519 4.64832L15.4857 4.6983C16.24 5.32155 17.0703 5.87943 17.9635 6.36316L17.9795 6.42586L17.8689 6.49175C17.5548 6.54692 17.2343 6.57449 16.9131 6.57399Z" fill="#D32C20"/>
<path d="M18.1757 9.45969C18.0237 9.46151 17.8734 9.43363 17.7371 9.37833C17.6008 9.32303 17.4824 9.24189 17.3918 9.14162C17.2269 8.96468 17.1251 8.75357 17.0977 8.53183L17.1469 8.49049L17.1977 8.44823C17.2856 8.45095 17.3713 8.45232 17.4559 8.45232C18.1246 8.455 18.7879 8.35419 19.4113 8.15515L19.4665 8.18423L19.5218 8.21377C19.5218 8.47367 19.4113 8.73994 19.1951 8.98622C19.086 9.12821 18.9358 9.24578 18.7579 9.3284C18.58 9.41102 18.38 9.45613 18.1757 9.45969Z" fill="#183E79"/>
<path d="M17.1473 8.49232L17.0981 8.53367C16.8096 8.5238 16.5219 8.50166 16.2362 8.46733L16.1074 8.40917V8.34464C16.7745 7.78219 17.3637 7.16074 17.8643 6.49167L17.9749 6.42578L18.107 6.44486C18.9081 6.87835 19.7279 7.27684 20.6042 7.65898L20.6501 7.72895L20.4743 7.86527C20.1978 7.99613 19.8601 8.102 19.5156 8.21423L19.4604 8.18515L19.4051 8.15562C19.3802 7.85118 19.1839 7.58628 18.8467 7.40725C18.7012 7.3322 18.5325 7.29323 18.3608 7.29502C18.1829 7.29755 18.0084 7.33581 17.8526 7.40645C17.6968 7.4771 17.5643 7.57799 17.4668 7.70033C17.2818 7.9201 17.1876 8.18294 17.1982 8.45006L17.1473 8.49232Z" fill="#138DC5"/>
<path d="M16.9599 10.5507C16.0964 10.5507 15.297 10.3544 14.2417 9.8868L14.0957 9.77457L14.1112 9.7105C14.7497 9.32836 15.3705 8.94577 15.9958 8.43823L16.1064 8.40869L16.2352 8.46685C16.8977 9.11127 17.6157 9.71579 18.3835 10.2758L18.3868 10.3421L18.2541 10.4112C17.8307 10.4991 17.3961 10.5458 16.9594 10.5502L16.9599 10.5507Z" fill="#183E79"/>
<path d="M15.9958 8.4387C15.7075 8.39648 15.4225 8.3405 15.1422 8.27103L15.0836 8.21014L15.0189 8.14744C14.9633 7.91114 14.8493 7.68673 14.6839 7.48813C14.3251 7.04874 13.8873 6.7752 13.5412 6.7752C13.43 6.77426 13.3221 6.80655 13.2377 6.86608C13.079 6.97604 13.0221 7.20369 13.0812 7.49495L13.0337 7.52357L12.9867 7.55356C12.7031 7.43769 12.43 7.31728 12.1884 7.19869L12.0049 7.06419L12.0182 7.00194C12.6545 6.61662 13.1913 6.28492 13.7181 5.9046L13.8143 5.89233L13.9608 5.99275C14.6276 6.806 15.3449 7.59054 16.1097 8.34328V8.4078L15.9958 8.4387Z" fill="#F4C51D"/>
<path d="M14.5389 8.95542C14.147 8.95542 13.6483 8.65507 13.2984 8.20705C13.1456 8.00717 13.0392 7.7858 12.9844 7.5541L13.0314 7.52411L13.0789 7.49548C13.7053 7.75188 14.3539 7.96982 15.0194 8.14752L15.084 8.21023L15.1426 8.27112C15.1598 8.54647 15.0464 8.76549 14.8176 8.88999C14.7354 8.93387 14.6392 8.95664 14.5412 8.95542" fill="#183E79"/>
<path d="M1.82115 8.72313C2.75378 8.00521 3.45477 7.11234 4.18396 6.16677L4.32051 6.06726L4.43494 6.0709C5.14091 6.39396 5.93533 6.72975 6.86409 7.09644L6.88455 7.15233L6.7187 7.28864C6.38092 7.46313 6.047 7.62216 5.7236 7.76484L5.67163 7.73848L5.61635 7.71213C5.62132 7.40815 5.47703 7.18186 5.20725 7.07372C5.11179 7.03522 5.00676 7.01546 4.90043 7.01601C4.52284 7.01601 3.92081 7.27865 3.42768 7.86344C3.25857 8.06491 3.1514 8.29706 3.11533 8.54002L3.05562 8.59818L3.00034 8.65588C2.63695 8.73771 2.26767 8.80069 1.89467 8.84445L1.77637 8.81219L1.82115 8.72313Z" fill="#D32C20"/>
<path d="M4.47141 10.4721L4.45703 10.413C5.17571 9.57422 5.70699 8.7845 6.17579 8.08747C6.36486 7.80621 6.54453 7.53767 6.72144 7.29048L6.88729 7.15417L6.99785 7.14917C8.24504 7.64445 9.05163 8.03613 9.74986 8.49142V8.5514L9.58954 8.61592C8.4109 8.78495 7.25603 9.31658 6.23107 9.78823C5.65502 10.0531 5.10938 10.304 4.59248 10.4803L4.47141 10.4721Z" fill="#183E79"/>
<path d="M4.47128 14.8797L4.45801 14.821C5.42325 13.7841 6.14083 12.7172 6.82358 11.6808L6.97616 11.5395L7.08673 11.5304C8.02748 11.8696 8.92614 12.2827 9.77018 12.764L9.77627 12.8263L9.62811 12.8999C8.80549 13.0789 8.00388 13.4638 7.15749 13.8677C6.34428 14.2562 5.50452 14.6543 4.60009 14.8906L4.47128 14.8797Z" fill="#119144"/>
<path d="M9.58568 11.8975C9.25627 11.9019 8.93518 11.8125 8.67682 11.6445C8.43357 11.4841 8.2926 11.2287 8.2832 10.9347L8.33849 10.867L8.39653 10.7988C9.04943 10.5694 9.69182 10.4521 10.3077 10.4521C10.5204 10.4522 10.7328 10.4661 10.9429 10.494L11.0087 10.5476L11.0717 10.6025C11.0963 10.7748 11.0732 10.9493 11.0041 11.1132C10.935 11.277 10.8216 11.4259 10.6725 11.5486C10.4088 11.7671 10.0031 11.8975 9.58789 11.8975" fill="white"/>
<path d="M6.95312 11.4831C7.70332 10.3498 8.54529 9.43379 9.58848 8.61408L9.74825 8.54956L9.87982 8.58091C10.7301 9.15798 11.4598 9.87091 12.2255 10.871L12.2139 10.9373L12.1171 10.9446C11.7982 10.8083 11.4438 10.667 11.0695 10.6025L11.0065 10.5475L10.9407 10.4939C10.8995 10.3059 10.809 10.1276 10.6754 9.97133C10.5828 9.86073 10.459 9.7702 10.3146 9.70745C10.1702 9.64471 10.0094 9.61161 9.8461 9.611C9.49008 9.611 9.12023 9.75958 8.83165 10.0199C8.58642 10.234 8.43321 10.5082 8.39547 10.8006L8.33742 10.8687L8.28214 10.9364C7.9145 11.0768 7.50817 11.2909 7.08415 11.5321L6.97358 11.5412L6.95312 11.4831Z" fill="#D32C20"/>
<path d="M14.6679 12.9171C14.3102 12.9171 13.8237 12.585 13.4577 12.0901C13.2964 11.8757 13.1852 11.6384 13.1299 11.3904L13.178 11.3613L13.2266 11.3331C13.8071 11.5858 14.4368 11.8429 15.1212 12.0288L15.1814 12.091L15.2367 12.151C15.245 12.4732 15.1217 12.7417 14.905 12.8599C14.8342 12.8982 14.751 12.9181 14.6662 12.9171" fill="#138DC5"/>
<path d="M4.45726 14.8209C3.49773 14.3533 2.63284 13.7656 1.89377 13.0788L1.7832 13.0393V15.1522L1.82632 15.2022C1.98621 15.2205 2.14751 15.2293 2.30895 15.2285C2.87671 15.2285 3.57328 15.1345 4.33342 14.9559L4.47329 14.8777L4.45726 14.8209Z" fill="#119144"/>
<path d="M14.2659 13.6746C13.4239 13.2806 12.3072 12.7627 10.9251 12.7627C10.5816 12.7633 10.239 12.7917 9.90234 12.8476L9.77464 12.8263L9.76855 12.764C10.417 12.166 11.1871 11.5703 12.117 10.9465L12.2137 10.9392L12.3586 11.0496C13.0894 12.0111 13.7219 12.8385 14.372 13.6128L14.3598 13.6751L14.2659 13.6746Z" fill="#119144"/>
<path d="M20.3444 11.5667L20.2305 11.6671C19.7654 12.4978 19.2272 13.2995 18.6201 14.0658L18.6345 14.1303L18.7556 14.1489C19.3609 14.0115 19.947 13.8222 20.5042 13.5841L20.5318 13.5228C20.3953 12.877 20.3325 12.2221 20.3444 11.5667Z" fill="#119144"/>
<path d="M17.143 14.3243C16.2305 14.3241 15.3318 14.1415 14.5242 13.7922L14.3584 13.6732L14.3706 13.6109C15.0273 13.2179 15.5929 12.7808 16.1557 12.3287L16.2662 12.2982L16.3879 12.3509C17.0498 12.9896 17.7974 13.5649 18.6163 14.0658L18.6307 14.1303L18.5201 14.1939C18.0676 14.2783 17.6053 14.322 17.1414 14.3243H17.143Z" fill="#119144"/>
<path d="M4.39615 18.3166C4.12985 18.3153 3.87018 18.2481 3.65093 18.1239C3.50235 18.0374 3.37778 17.9259 3.28545 17.7969C3.19311 17.6679 3.13509 17.5243 3.11523 17.3755L3.16278 17.3301L3.21143 17.2847C4.12939 17.2287 5.02738 17.0363 5.86171 16.7167L5.91699 16.743L5.97228 16.7703C5.98389 17.047 5.87443 17.3496 5.65495 17.6495C5.33984 18.0803 4.89204 18.3179 4.39615 18.3179V18.3166Z" fill="white"/>
<path d="M14.7254 7.46406C14.2571 6.88926 13.6075 6.55029 13.2007 6.83292C13.0044 6.96923 12.9685 7.23914 13.0309 7.52403C13.692 7.79709 14.3783 8.02652 15.0836 8.21015C15.0371 7.94179 14.9144 7.68619 14.7254 7.46406Z" fill="white"/>
<path d="M15.1757 16.649C14.8241 16.649 14.2911 16.4218 13.9467 15.9834C13.7575 15.7469 13.6217 15.4843 13.5459 15.2082L13.594 15.1768L13.6415 15.145C13.9898 15.2618 14.2939 15.3795 14.5885 15.494C14.9302 15.6271 15.2558 15.7543 15.5886 15.8529L15.655 15.9188L15.7163 15.9824C15.7296 16.2551 15.6185 16.4905 15.4233 16.5959C15.3489 16.6333 15.2628 16.6518 15.1757 16.649Z" fill="white"/>
<path d="M18.3219 13.2383C18.0839 13.2382 17.8533 13.1701 17.6696 13.0457C17.5485 12.9656 17.4495 12.8652 17.3793 12.7512C17.3092 12.6372 17.2694 12.5122 17.2627 12.3846L17.3152 12.3391L17.3705 12.2937C18.0777 12.2588 18.7721 12.123 19.4226 11.8925L19.4779 11.9202L19.5332 11.9493C19.5403 12.2372 19.4475 12.5209 19.2656 12.7671C19.045 13.0675 18.7017 13.2383 18.3219 13.2383Z" fill="white"/>
<path d="M13.9974 9.77822C13.8725 9.72052 13.7409 9.65872 13.6055 9.59374C12.6496 9.13663 11.4599 8.5682 10.2061 8.5682C10.0955 8.5682 9.98735 8.57244 9.88157 8.58092L9.75 8.54957V8.48959C10.4687 7.94433 11.204 7.49858 11.9094 7.07146L12.0083 7.06555L12.1852 7.2005C12.6607 7.75712 13.114 8.36827 13.59 9.01259C13.7591 9.23978 13.9344 9.47651 14.1113 9.71188L14.0958 9.77595L13.9974 9.77822Z" fill="#183E79"/>
<path d="M12.2141 10.9373C11.8238 10.7688 11.4307 10.6102 11.0067 10.5475C11.0436 10.7219 11.0288 10.901 10.9638 11.0698C10.8988 11.2385 10.7853 11.392 10.633 11.5171C10.1813 11.8897 9.29514 11.9956 8.71025 11.608C8.45539 11.4399 8.32326 11.165 8.33653 10.8646C7.90919 11.021 7.43652 11.2736 6.97656 11.5371C7.96014 11.8868 8.89779 12.318 9.775 12.8239C10.403 12.2405 11.1936 11.6176 12.2141 10.9351" fill="#F4C51D"/>
<path d="M1.82879 12.9458C2.89908 12.1565 3.62882 11.3682 4.32594 10.5648L4.47134 10.4717L4.59075 10.4785C5.35433 10.85 6.14303 11.1854 6.953 11.4831L6.97622 11.5395L6.82364 11.6808C6.49277 11.8762 6.14873 12.0562 5.79316 12.2197L5.73788 12.1938L5.68259 12.1674C5.66933 11.9098 5.54107 11.7199 5.30225 11.6022C5.16003 11.532 4.99711 11.4952 4.83123 11.4959C4.41218 11.4959 3.9467 11.719 3.54921 12.1084C3.32451 12.3303 3.18281 12.6009 3.14122 12.8876L3.08151 12.9408L3.02623 12.9921C2.65057 13.0399 2.27174 13.0688 1.89182 13.0789L1.78125 13.0394L1.82879 12.9458Z" fill="#183E79"/>
<path d="M2.03776 10.9788C1.96645 10.9788 1.89679 10.9788 1.82935 10.9733L1.78125 10.9279V8.81409L1.89956 8.84635C2.5718 9.37525 3.49503 9.94141 4.45641 10.4131L4.47134 10.4717L4.32594 10.563C3.44141 10.8356 2.67407 10.977 2.03776 10.977" fill="#183E79"/>
<path d="M16.0952 4.7241C15.8967 4.7241 15.6894 4.71274 15.4871 4.6982L15.3533 4.64821L15.3428 4.5737C15.9695 3.98939 16.4993 3.33942 16.9183 2.64075L17.0339 2.57532L17.1583 2.59349C17.8007 2.95473 18.803 3.37185 19.6223 3.61722L19.6864 3.6831L19.5543 3.82215C19.294 3.9826 19.0164 4.12313 18.725 4.242L18.667 4.21746L18.6067 4.19201C18.5697 4.04555 18.4907 3.90846 18.3763 3.79213C18.2619 3.6758 18.1153 3.58359 17.9488 3.52316C17.8253 3.47431 17.6901 3.4487 17.553 3.44819C17.1616 3.44819 16.7851 3.66311 16.5938 3.99572C16.4776 4.19175 16.4347 4.4117 16.4706 4.62777L16.4258 4.67321L16.3832 4.71864C16.2881 4.72228 16.1914 4.72319 16.0952 4.72319" fill="#D32C20"/>
<path d="M16.6675 16.13C16.3441 16.1134 16.0245 16.0638 15.716 15.9824L15.6547 15.9188L15.5883 15.8529C15.5329 15.6078 15.403 15.3782 15.2107 15.1854C14.8166 14.7714 14.3815 14.5243 14.0465 14.5243C13.9385 14.5221 13.8334 14.5532 13.7518 14.6115C13.6274 14.7024 13.586 14.8937 13.6412 15.1449L13.5937 15.1768L13.5456 15.2081C13.246 15.1095 12.9845 15.0318 12.6898 14.9586L12.5361 14.8796V14.8169C13.0823 14.4066 13.6595 14.025 14.2643 13.6746H14.3583L14.5241 13.7936C15.2854 14.6837 16.0223 15.4189 16.7753 16.0383L16.7797 16.0992L16.6675 16.13Z" fill="#183E79"/>
<path d="M17.0656 12.3883C16.8401 12.3866 16.6149 12.3742 16.3912 12.351L16.2695 12.2983L16.2734 12.2342C16.9784 11.6604 17.6401 11.0518 18.2548 10.4117L18.3874 10.3422L18.498 10.3644C19.0694 10.768 19.6696 11.1432 20.2953 11.4881L20.3423 11.5667L20.2284 11.6671C19.9945 11.7721 19.7601 11.8684 19.5296 11.9502L19.4743 11.9207L19.419 11.893C19.3947 11.6849 19.2996 11.5117 19.1481 11.4022C18.9961 11.2905 18.7993 11.2287 18.5953 11.2287C18.2636 11.2287 17.9269 11.3841 17.6627 11.6549C17.4838 11.8367 17.38 12.0606 17.3664 12.2942L17.3111 12.3396L17.2586 12.3851C17.1944 12.3851 17.1286 12.3887 17.0645 12.3887L17.0656 12.3883Z" fill="#183E79"/>
<path d="M20.6553 7.72892L20.4795 7.86524C19.6502 8.87988 18.9824 9.64733 18.3848 10.2735L18.3881 10.3394L18.4986 10.3616C19.1791 10.2062 19.8354 9.98684 20.4546 9.70776L20.5226 9.62552C20.6251 8.99608 20.6689 8.36112 20.6536 7.7262" fill="#183E79"/>
<path d="M3.88507 9.55197C3.69598 9.55293 3.51172 9.50297 3.36043 9.40975C3.12105 9.2648 2.99058 8.98672 3.00385 8.65774L3.05914 8.60004L3.11884 8.54188C3.93482 8.3315 4.76407 8.08749 5.61986 7.71399L5.67514 7.74034L5.72711 7.7667C5.70887 8.03933 5.58392 8.34331 5.36334 8.64548C4.94872 9.213 4.39644 9.55197 3.88507 9.55197Z" fill="#183E79"/>
<path d="M9.58295 7.74577C9.18754 7.74732 8.80538 7.6287 8.5099 7.41271C8.38204 7.31954 8.27911 7.20556 8.20765 7.07799C8.13618 6.95042 8.09773 6.81203 8.09473 6.67161L8.15001 6.608L8.21027 6.54393C8.63436 6.42678 9.07862 6.36649 9.52601 6.36536C9.93849 6.36621 10.3485 6.41798 10.7422 6.51894L10.8091 6.58301L10.8711 6.64707C10.8839 6.79264 10.8604 6.93882 10.8021 7.07666C10.7437 7.21449 10.6517 7.34106 10.5316 7.44861C10.3132 7.63536 9.96828 7.74577 9.58295 7.74577Z" fill="#183E79"/>
<path d="M1.78125 6.70065V4.58777L1.8979 4.61639C2.5519 5.10031 3.3806 5.58014 4.30272 6.00863L4.32041 6.06679L4.18386 6.1663C3.22691 6.5239 2.38218 6.732 1.82935 6.74382L1.78125 6.70065Z" fill="#D32C20"/>
<path d="M16.27 12.2982L16.1594 12.3287C15.8474 12.2883 15.5392 12.2297 15.2373 12.1533L15.182 12.0933L15.1218 12.031C15.0919 11.8119 15.0061 11.6004 14.8702 11.4103C14.4683 10.8442 14.0167 10.6433 13.7518 10.6433C13.6835 10.644 13.616 10.656 13.5533 10.6785C13.4907 10.7009 13.4341 10.7335 13.387 10.7742C13.2432 10.8892 13.1863 11.0868 13.2272 11.3354L13.1786 11.3635L13.1305 11.3926C12.99 11.3317 12.854 11.2704 12.7153 11.2109C12.592 11.1563 12.4759 11.1027 12.3582 11.0514L12.2139 10.941L12.2255 10.8746C12.7783 10.507 13.2941 10.2017 13.7933 9.90452L13.9979 9.78183L14.0963 9.7782L14.2422 9.89043C14.7646 10.5784 15.4502 11.4353 16.2739 12.2378L16.27 12.2982Z" fill="#D32C20"/>
<path d="M7.22745 16.0942L7.20312 16.0352C7.83501 14.9982 8.46248 14.0013 9.62619 12.8999L9.77435 12.8263L9.90206 12.8477C10.8698 13.4186 11.7541 14.0794 12.5374 14.8169V14.8797L12.4362 14.9001C12.0674 14.83 11.6904 14.7926 11.3118 14.7888L11.2565 14.7433L11.1962 14.6979C11.161 14.4671 11.0283 14.2537 10.8214 14.0949C10.635 13.95 10.3891 13.8681 10.1326 13.8655C9.69032 13.8655 9.22705 14.1245 8.89645 14.558C8.71844 14.7915 8.58576 15.0578 8.56144 15.285L8.50339 15.3608L8.45142 15.4358C8.05504 15.6176 7.69072 15.8652 7.32807 16.0833L7.22745 16.0942Z" fill="#D32C20"/>
<path d="M13.7185 5.90605C13.4056 5.78928 13.0849 5.65978 12.7742 5.53346C11.6802 5.08816 10.5469 4.62469 9.40472 4.59243L9.27148 4.55063V4.48928C9.96197 3.91494 10.8144 3.42921 11.4226 3.09842L11.5282 3.09387L11.7288 3.24155C12.3071 3.88086 12.8046 4.52473 13.2519 5.10043C13.4564 5.36397 13.6499 5.61343 13.8246 5.82744L13.8147 5.89333L13.7185 5.90605Z" fill="#D32C20"/>
<path d="M19.6854 3.68311L19.5533 3.82215C19.0054 4.8327 18.4835 5.66513 17.9639 6.36306L17.9799 6.42577L18.112 6.44485C18.8307 6.2949 19.634 6.09543 20.3101 5.76782L20.3455 5.6992C20.1133 4.86359 19.8225 4.19701 19.6848 3.68356" fill="#D32C20"/>
<path d="M3.82533 5.12588C3.61971 5.12657 3.41949 5.07183 3.25536 4.97003C3.06353 4.85325 2.95462 4.6356 2.9502 4.3657L3.00548 4.30344L3.06076 4.23892C3.66169 4.05217 4.16643 3.81862 4.65237 3.59324C4.91441 3.47192 5.18419 3.34606 5.46393 3.22974L5.51921 3.25654L5.57449 3.28244C5.5955 3.58552 5.48604 3.93403 5.27154 4.24574C4.89783 4.78782 4.34278 5.12406 3.82312 5.12406L3.82533 5.12588Z" fill="white"/>
<path d="M19.0785 16.9425C18.7899 16.9425 18.5102 16.8599 18.2876 16.7089C18.065 16.5579 17.9132 16.348 17.8584 16.1151L17.9043 16.0655L17.9524 16.0151C18.7335 15.9319 19.445 15.7525 20.0454 15.5825L20.1134 15.6098L20.1797 15.6384C20.2748 15.9384 20.2232 16.2571 20.036 16.5263C19.8547 16.7825 19.4882 16.9425 19.0785 16.9425Z" fill="white"/>
<path d="M6.88471 7.15236L6.86426 7.09647C7.61058 6.09137 8.35691 5.27257 9.14746 4.59463L9.27185 4.54919L9.40508 4.591C10.3699 5.3227 11.2453 6.1302 12.0189 7.00196L12.0062 7.06421L11.9067 7.07011C11.5285 6.88836 11.2305 6.74432 10.8706 6.64345L10.8087 6.57938L10.7418 6.51895C10.6929 6.30256 10.572 6.10155 10.3924 5.93825C10.1061 5.67334 9.75558 5.52703 9.40784 5.52703C9.2475 5.52842 9.0895 5.55887 8.94511 5.6162C8.80072 5.67354 8.6735 5.75635 8.57251 5.85873C8.37083 6.05197 8.24499 6.29083 8.21151 6.54394L8.15125 6.60801L8.09597 6.67162C7.70899 6.78612 7.39387 6.94425 6.99583 7.14963L6.88471 7.15236Z" fill="#138DC5"/>
<path d="M17.0994 16.1442C17.0369 16.1442 16.9733 16.1442 16.9108 16.141L16.7798 16.0979L16.7754 16.037C17.4166 15.462 18.0006 14.8457 18.5218 14.194L18.6324 14.1304L18.7534 14.149C19.4844 14.5794 20.2704 14.9429 21.0974 15.2332L21.1826 15.3104L21.0974 15.3758C20.9023 15.4254 20.7105 15.4835 20.4799 15.5517L20.1814 15.6385L20.1151 15.6098L20.0471 15.5826C19.9647 15.3842 19.7972 15.2172 19.576 15.1127C19.3999 15.0261 19.1991 14.9791 18.9939 14.9764C18.8276 14.9772 18.6641 15.012 18.5183 15.0779C18.3725 15.1438 18.249 15.2385 18.1591 15.3536C18.0028 15.5493 17.93 15.7822 17.9524 16.0156L17.9043 16.066L17.8584 16.1156C17.6064 16.1372 17.3532 16.1469 17.0999 16.1447L17.0994 16.1442Z" fill="#138DC5"/>
<path d="M17.6076 5.57789C17.3522 5.57789 17.0913 5.48974 16.8337 5.31571C16.6062 5.16454 16.4479 4.95434 16.3848 4.71956L16.4273 4.67412L16.4721 4.62868C17.2124 4.59937 17.9385 4.45102 18.6094 4.19202L18.6696 4.21746L18.7277 4.242C18.7608 4.45218 18.7273 4.66583 18.6304 4.86223C18.4098 5.31753 18.0377 5.57789 17.6076 5.57789Z" fill="#119144"/>
<path d="M19.1827 11.3691C18.7405 11.0487 18.0837 11.1519 17.6204 11.6272C17.4221 11.8289 17.3134 12.0802 17.3125 12.3396C18.0583 12.3084 18.791 12.1665 19.4752 11.9207C19.4569 11.6962 19.3602 11.4972 19.1827 11.3691Z" fill="#138DC5"/>
<path d="M14.878 12.8231C14.5231 13.0175 13.916 12.6241 13.5042 12.067C13.3412 11.8513 13.2306 11.6116 13.1786 11.3613C12.8469 11.2173 12.5273 11.0723 12.2139 10.9374C12.9829 11.9484 13.6684 12.8535 14.36 13.6732C15.0466 13.2665 15.6254 12.8176 16.27 12.2983C15.9009 12.2544 15.537 12.1851 15.182 12.0911C15.208 12.4205 15.093 12.7049 14.878 12.8231Z" fill="#183E79"/>
<path d="M8.52908 5.82689C8.30035 6.04433 8.16701 6.31857 8.15039 6.6057C9.00725 6.35043 9.94412 6.34162 10.8079 6.58071C10.771 6.32943 10.64 6.09379 10.433 5.9064C9.86196 5.3775 9.06035 5.3207 8.52908 5.82689Z" fill="#F4C51D"/>
<path d="M9.67264 16.3C9.48477 16.299 9.29939 16.2646 9.1292 16.1992C8.72674 16.0465 8.47078 15.7761 8.44922 15.4353L8.50119 15.3604L8.55923 15.2845C9.45261 14.8887 10.3316 14.6979 11.194 14.6979L11.2543 14.7433L11.3129 14.7888C11.3321 15.1121 11.2082 15.4303 10.9641 15.6843C10.5892 16.0806 10.1309 16.3 9.67264 16.3Z" fill="#F4C51D"/>
<path d="M19.601 15.0741C19.0228 14.8038 18.4296 14.9419 18.1128 15.3309C17.94 15.5479 17.8661 15.8081 17.9044 16.0656C18.7336 15.9825 19.48 15.7907 20.1157 15.6112C20.0356 15.3849 19.8519 15.1929 19.6033 15.0755" fill="#F4C51D"/>
<path d="M19.4515 17.6386C18.518 17.2452 17.6609 16.7399 16.9085 16.1391L16.7774 16.0959L16.6669 16.1282C16.0284 16.6821 15.4291 17.1092 14.7762 17.4527L14.7568 17.5191C16.0709 18.1166 17.5857 18.1902 19.4592 17.694L19.4515 17.6386Z" fill="#F4C51D"/>
<path d="M10.298 17.1283C9.85243 16.9579 9.377 16.788 8.87945 16.6094C8.3819 16.4308 7.84841 16.2818 7.32654 16.0828L7.22869 16.0941L7.08108 16.2395L6.95835 16.444C6.40552 17.3655 5.83444 18.2765 4.72656 19.2766L4.7332 19.3325C7.33151 18.8972 8.17348 17.973 10.3168 17.186L10.298 17.1283Z" fill="#F4C51D"/>
<path d="M2.64975 17.357C2.40364 17.3554 2.15782 17.3428 1.91338 17.3192L1.78125 17.2661L1.81995 17.1829C2.91124 16.4436 3.615 15.7203 4.33147 14.9564L4.47134 14.8783L4.59849 14.8892C5.31717 15.2354 6.12486 15.6198 7.20344 16.0338L7.22776 16.0929L7.08016 16.2383C6.72927 16.4385 6.35955 16.6156 5.97449 16.7676L5.91921 16.7404L5.86392 16.714C5.83297 16.4241 5.65219 16.191 5.36195 16.0724C5.19265 16.0038 5.00618 15.9686 4.81741 15.9697C4.30272 15.9697 3.77034 16.2128 3.46186 16.5895C3.29019 16.7922 3.20309 17.0352 3.21364 17.282L3.16499 17.3274L3.11745 17.3729C2.9516 17.381 2.80067 17.3542 2.65196 17.3542" fill="#119144"/>
<path d="M6.88458 7.15234C6.46941 7.37227 6.0675 7.56765 5.67554 7.74032C5.66448 8.00204 5.54728 8.30784 5.3173 8.62273C4.75065 9.39972 3.94517 9.70871 3.39234 9.37428C3.13914 9.2207 3.03189 8.92308 3.06064 8.60183C2.64082 8.6989 2.21287 8.77044 1.78027 8.81584C2.39281 9.30976 3.33761 9.9209 4.47036 10.4734C5.56939 9.19889 6.23666 8.0284 6.88348 7.15416" fill="#119144"/>
<path d="M11.4222 3.09841C11.088 2.96029 10.7387 2.84832 10.379 2.76398L10.311 2.70219L10.2375 2.63948C10.1676 2.42948 10.0419 2.23485 9.86928 2.06968C9.58844 1.8016 9.24347 1.64847 8.92338 1.64847C8.68124 1.64847 8.45624 1.73208 8.25501 1.89747C8.05378 2.06287 7.9421 2.31551 7.94542 2.58586L7.89346 2.63903L7.8437 2.69219C7.512 2.74217 7.18914 2.80942 6.79332 2.90121L6.66782 2.88394L6.65234 2.82351C7.42078 1.85794 8.12399 1.20318 8.799 0.827854L8.93389 0.807861L9.11798 0.870566C9.81953 1.33676 10.6725 2.0974 11.541 3.03252L11.5289 3.09296L11.4222 3.09841Z" fill="#119144"/>
<path d="M19.1505 8.96356C18.7187 9.49656 17.853 9.57244 17.4367 9.1176C17.269 8.93657 17.1691 8.71931 17.1493 8.49237C16.801 8.48061 16.4538 8.45285 16.1094 8.40922C16.8551 9.13259 17.597 9.77237 18.3898 10.3426C19.0809 9.62106 19.815 8.76409 20.6564 7.729C20.2645 7.93166 19.8272 8.07025 19.4684 8.18657C19.4794 8.43603 19.3794 8.70502 19.1522 8.96356" fill="#119144"/>
<path d="M12.69 14.9587L12.5363 14.8796L12.4351 14.9001C11.5935 15.552 10.8734 16.3022 10.2979 17.1266L10.3183 17.1861C12.2383 16.4809 13.967 17.1593 14.7576 17.5192L14.7769 17.4528C14.2241 16.5554 13.4899 15.7325 12.69 14.9569" fill="#F4C51D"/>
<path d="M4.0768 13.9072C3.81604 13.9096 3.56278 13.8355 3.36254 13.6982C3.14141 13.5455 3.02089 13.2915 3.03084 12.9939L3.08613 12.9425L3.14583 12.8894C4.03412 12.7601 4.89223 12.5171 5.68887 12.1692L5.74415 12.1955L5.79943 12.2214C5.79667 12.5395 5.63358 12.9203 5.35274 13.2665C5.02104 13.6755 4.55888 13.9072 4.08123 13.9072" fill="#F4C51D"/>
<path d="M8.79037 9.98865C8.51694 10.2279 8.35587 10.5392 8.33594 10.867C9.29953 10.5148 10.1868 10.4267 11.0061 10.5489C10.9688 10.3323 10.8701 10.1259 10.7181 9.94639C10.2366 9.40431 9.37195 9.46838 8.79037 9.99183" fill="#183E79"/>
<path d="M21.1802 15.3104L21.0973 15.3759C20.7528 16.1638 20.0894 17.0775 19.4531 17.6387L19.462 17.6959C21.1492 17.2484 22.1985 17.187 22.1985 17.187C22.1985 17.187 21.7009 16.2987 21.1818 15.3104" fill="#F4C51D"/>
<path d="M4.72509 19.2766C3.70448 18.7096 2.76173 18.0533 1.91338 17.3192L1.78125 17.266V19.2653C1.78125 19.2653 3.07433 19.6133 4.73283 19.3325L4.72509 19.2766Z" fill="#F4C51D"/>
<path d="M5.38349 16.0342C4.69963 15.7548 3.83555 16.0515 3.4154 16.5663C3.227 16.7893 3.13761 17.0589 3.1622 17.3296C4.11716 17.2761 5.05167 17.077 5.91808 16.7426C5.89486 16.4191 5.69694 16.1642 5.38349 16.0351" fill="#183E79"/>
<path d="M5.91768 16.7426C5.93647 17.0025 5.84305 17.3074 5.6092 17.626C5.06742 18.3661 4.2343 18.3984 3.68036 18.0881C3.53125 18.0011 3.40744 17.8881 3.31787 17.7571C3.2283 17.6262 3.17518 17.4805 3.16236 17.3306C2.70903 17.3551 2.28335 17.3202 1.78027 17.267C2.66702 18.0445 3.65749 18.7374 4.73296 19.3326C6.02216 18.1794 6.60209 17.1175 7.22623 16.0924C6.8171 16.344 6.3788 16.5618 5.91768 16.7426Z" fill="#D32C20"/>
<path d="M19.9914 16.5036C19.699 16.918 18.9294 17.028 18.4076 16.7254C18.2718 16.651 18.1569 16.5537 18.0705 16.4399C17.9841 16.3261 17.9283 16.1985 17.9067 16.0656C17.5337 16.1035 17.1575 16.1143 16.7822 16.0979C18.1201 17.1884 19.4629 17.6959 19.4629 17.6959C20.092 17.1507 20.8168 16.1928 21.1828 15.3104C20.8726 15.384 20.5371 15.4895 20.1158 15.6099C20.1699 15.758 20.1868 15.9136 20.1654 16.0673C20.144 16.2209 20.0848 16.3694 19.9914 16.5036Z" fill="#D32C20"/>
<path d="M5.3318 11.5626C4.7845 11.2931 4.07466 11.5235 3.51077 12.0783C3.26313 12.3218 3.11394 12.6226 3.08398 12.9389C4.01216 12.8105 4.90853 12.5582 5.73758 12.1919C5.73261 11.9297 5.61264 11.7016 5.3307 11.5626" fill="#D32C20"/>
<path d="M9.34941 3.75808C8.97549 3.7507 8.61537 3.64046 8.32667 3.44501C8.18885 3.35237 8.07521 3.23781 7.99256 3.1082C7.90992 2.97859 7.85997 2.83659 7.8457 2.69073L7.89546 2.63757L7.94743 2.58441C8.29758 2.534 8.65228 2.50786 9.00776 2.50625C9.42363 2.50499 9.83785 2.5493 10.2395 2.63802L10.3113 2.70209L10.3793 2.76525C10.4302 3.06015 10.3379 3.32323 10.1145 3.51226C10.0141 3.59399 9.89446 3.65806 9.76292 3.70056C9.63137 3.74306 9.49068 3.76309 9.34941 3.75944V3.75808Z" fill="#D32C20"/>
<path d="M10.8549 14.0618C10.1976 13.5847 9.36561 13.8564 8.84871 14.5348C8.63642 14.8133 8.50761 15.1132 8.50098 15.3617C9.40209 14.9528 10.3148 14.7256 11.2541 14.7424C11.2297 14.4821 11.0873 14.2389 10.8549 14.0608" fill="white"/>
<path d="M14.9166 11.3858C14.5373 10.8519 13.8496 10.3408 13.3493 10.7406C13.1774 10.8769 13.1315 11.1041 13.1785 11.3613C13.8059 11.6339 14.4682 11.9034 15.1819 12.091C15.1605 11.8423 15.0697 11.601 14.9166 11.3858Z" fill="#F4C51D"/>
<path d="M15.3932 16.5609C15.1129 16.7126 14.3981 16.48 13.9917 15.962C13.8018 15.7233 13.6669 15.4579 13.5937 15.1791C13.2485 15.0626 12.8954 14.9626 12.5361 14.8796C13.5312 15.8252 14.2859 16.7458 14.7574 17.521C15.4905 17.142 16.1334 16.6663 16.7797 16.0978C16.3961 16.0832 16.0172 16.0229 15.6547 15.9188C15.6923 16.2192 15.5762 16.4595 15.3932 16.5586" fill="#138DC5"/>
<path d="M4.32031 6.06727C5.23857 6.49076 6.17396 6.87198 6.88435 7.15234C7.63952 6.13088 8.41349 5.27346 9.27149 4.55054C7.85071 4.55054 5.99429 5.42114 4.32031 6.06727Z" fill="white"/>
<path d="M14.0957 9.77466C14.7331 10.6203 15.4308 11.4854 16.2694 12.2983C17.0269 11.685 17.7345 11.0316 18.3879 10.3422C16.7692 10.6875 15.6464 10.4858 14.0963 9.77466" fill="white"/>
<path d="M20.3456 5.70105C19.6153 6.06456 18.7197 6.27403 17.9795 6.42806C18.8439 6.89858 19.7368 7.33277 20.6547 7.72896C20.6398 7.04588 20.5362 6.36605 20.3456 5.70105Z" fill="#CED1D2"/>
<path d="M21.1796 15.3104C20.88 14.7372 20.6624 14.1373 20.5311 13.5228C19.9833 13.7582 19.2839 14.0013 18.6338 14.1303C19.4215 14.6056 20.2752 15.0021 21.1768 15.3117" fill="#CED1D2"/>
<path d="M20.3446 11.5667C20.3534 10.9181 20.4135 10.2706 20.5243 9.6283C19.8523 9.94005 19.1346 10.1799 18.3887 10.3421C19.008 10.7846 19.6615 11.1937 20.3451 11.5667" fill="#CED1D2"/>
<path d="M13.8145 5.89368C14.5226 6.76557 15.2878 7.60529 16.1065 8.40914C16.7235 7.90114 17.3388 7.27909 17.9795 6.42531C16.7113 6.68476 15.3066 6.44166 13.8145 5.89368Z" fill="white"/>
<path d="M12.0057 7.06417C11.5866 6.85607 11.2317 6.69158 10.8088 6.57935C10.8327 6.72917 10.8167 6.88149 10.7618 7.02571C10.7069 7.16993 10.6145 7.3026 10.4909 7.4145C10.0658 7.78483 9.1254 7.81163 8.54824 7.37633C8.41631 7.27997 8.31221 7.16062 8.24354 7.02699C8.17487 6.89335 8.14336 6.7488 8.15131 6.60388C7.71678 6.72748 7.34196 6.90832 6.88477 7.14914C8.03245 7.60353 8.94517 8.01747 9.74844 8.54637C10.5003 7.96976 11.2643 7.51129 12.0057 7.06236" fill="#D32C20"/>
<path d="M4.47134 14.8796C5.48357 13.7986 6.21 12.704 6.97622 11.5394C6.54833 11.7866 6.14145 12.0184 5.73898 12.1937C5.74562 12.5273 5.5665 12.9158 5.30169 13.242C4.74112 13.9331 3.8975 14.0081 3.39663 13.6632C3.16223 13.5015 3.06161 13.2325 3.08428 12.9407C2.65307 12.9973 2.21777 13.0302 1.78125 13.0393C2.55118 13.7681 3.45964 14.3896 4.47134 14.8796Z" fill="#D32C20"/>
<path d="M1.82428 4.49245C2.47773 3.95309 3.36005 2.84304 4.00134 1.90246L4.1412 1.78659L4.2479 1.77478C5.08554 2.06446 5.88998 2.41513 6.65162 2.82259L6.6682 2.88393L6.54548 2.95936C6.21323 3.04692 5.88962 3.15522 5.57746 3.28333L5.52218 3.25743L5.4669 3.23063C5.4376 3.01343 5.33201 2.85303 5.16892 2.77897C5.04927 2.72592 4.91511 2.69886 4.77917 2.70036C4.29987 2.70036 3.7791 2.98071 3.41975 3.43146C3.22277 3.67256 3.10054 3.94961 3.06373 4.23845L3.00845 4.30252L2.95316 4.36477C2.61296 4.47436 2.2614 4.55846 1.90278 4.61604L1.78613 4.58741L1.82428 4.49245Z" fill="#183E79"/>
<path d="M14.7878 8.8531C14.4318 9.04803 13.7751 8.73541 13.3433 8.18288C13.1893 7.98153 13.0833 7.75794 13.0309 7.52402C12.6362 7.36363 12.2835 7.20368 12.0049 7.06555C12.7131 7.86981 13.3682 8.80948 14.0957 9.77459C14.7928 9.35701 15.4518 8.94852 16.1064 8.41144C15.7602 8.36498 15.4184 8.29848 15.0836 8.21242C15.1195 8.48505 15.0283 8.72269 14.7878 8.85537" fill="#D32C20"/>
<path d="M15.2472 4.68139C15.0023 4.65458 14.7768 4.57461 14.5109 4.49964L14.4373 4.43148L14.3566 4.35923C14.2507 4.09698 14.0951 3.8501 13.8956 3.62768C13.597 3.28598 13.1597 2.92111 12.8258 2.92111C12.7842 2.9207 12.7428 2.92725 12.7043 2.94037C12.6658 2.95349 12.631 2.97291 12.6019 2.99745C12.4914 3.08514 12.4914 3.30234 12.5969 3.58133L12.5516 3.61041L12.5068 3.63994C12.3476 3.55725 11.8534 3.30597 11.729 3.241L11.5283 3.09332L11.5405 3.03289C11.6599 2.96837 11.7821 2.90021 11.8998 2.83478C12.2282 2.6503 12.5395 2.46036 12.9115 2.30133L13.0392 2.29724L13.21 2.3813C13.6604 2.78738 14.0816 3.21461 14.4716 3.66085C14.7773 4.00572 15.067 4.33061 15.3418 4.57325L15.3523 4.64777L15.2472 4.68139Z" fill="#D32C20"/>
<path d="M19.2171 12.7467C18.8268 13.2783 18.1175 13.296 17.7001 13.0116C17.5788 12.9303 17.4811 12.8278 17.4141 12.7116C17.3472 12.5953 17.3127 12.4682 17.3132 12.3396C16.9648 12.3521 16.6158 12.3383 16.2705 12.2982C16.9682 12.9833 17.7618 13.5982 18.635 14.1303C19.2841 13.3131 19.8558 12.456 20.3449 11.5667C20.0636 11.6981 19.7734 11.8163 19.4758 11.9206C19.4924 12.2111 19.4022 12.4989 19.2171 12.7467Z" fill="#D32C20"/>
<path d="M14.1537 5.13669C13.7872 5.13669 13.2692 4.71002 12.9193 4.28744C12.7466 4.08817 12.6079 3.87049 12.5068 3.6404L12.5516 3.61087L12.5969 3.58179C13.183 3.88304 13.7579 4.1693 14.3566 4.35969L14.4373 4.43194L14.5109 4.5001C14.5623 4.72002 14.5335 4.89859 14.4263 5.02082C14.396 5.05711 14.3553 5.08669 14.3077 5.1069C14.2602 5.12712 14.2073 5.13735 14.1537 5.13669Z" fill="#D32C20"/>
<path d="M15.2546 15.1576C14.6669 14.5406 14.0505 14.3375 13.7166 14.5774C13.5646 14.6864 13.532 14.9109 13.5944 15.1767C14.4054 15.4494 15.0014 15.7352 15.6554 15.9187C15.6117 15.6391 15.4727 15.3752 15.2546 15.1576Z" fill="#D32C20"/>
<path d="M19.4664 8.18612C19.4521 7.85987 19.2453 7.56634 18.8821 7.37186C18.473 7.15421 17.8035 7.22237 17.4221 7.67585C17.221 7.9153 17.1236 8.20335 17.1456 8.49374C17.9375 8.53227 18.7301 8.42773 19.4675 8.18748" fill="#D32C20"/>
<path d="M4.47134 14.8796C3.42095 15.1373 2.45073 15.2431 1.78125 15.1523V17.2661C2.98477 16.4613 3.73828 15.663 4.47134 14.8796Z" fill="#CED1D2"/>
<path d="M4.32041 6.06735C3.41266 6.41768 2.4242 6.70076 1.78125 6.70076V8.81364C2.79902 8.05028 3.54147 7.07744 4.32041 6.06689" fill="#CED1D2"/>
<path d="M4.47134 10.4721C3.27832 10.8597 2.40485 10.9683 1.78125 10.9265V13.0394C2.97316 12.1761 3.75597 11.3014 4.47134 10.4717" fill="#CED1D2"/>
<path d="M4.47168 14.8797C5.34903 15.3081 6.29603 15.7362 7.22811 16.0942C7.83899 15.09 8.49299 14.0163 9.77501 12.8263C8.05127 13.1444 6.40991 14.4062 4.47168 14.8797Z" fill="white"/>
<path d="M9.74847 8.54956C7.81356 8.76903 5.99474 9.97632 4.47168 10.4716C5.27978 10.8686 6.11626 11.2252 6.97657 11.5394C7.85502 10.2044 8.79318 9.28157 9.74847 8.54956Z" fill="white"/>
<path d="M14.3594 13.6732C15.1107 14.5643 15.9001 15.3794 16.7797 16.0978C17.464 15.4861 18.0843 14.8279 18.6339 14.1303C17.3071 14.3934 15.8144 14.3521 14.3594 13.6732Z" fill="white"/>
<path d="M9.74805 8.54966C10.6414 9.13763 11.3994 9.86737 12.2137 10.9374C12.8848 10.489 13.504 10.1286 14.0961 9.77467C12.9644 9.25577 11.4021 8.362 9.74805 8.54784" fill="#CED1D2"/>
<path d="M12.0052 7.06422C12.6261 6.68844 13.2331 6.31766 13.8147 5.89236C12.3618 5.35891 10.8327 4.54602 9.27148 4.5492C10.2841 5.30924 11.2 6.15191 12.0052 7.06422Z" fill="#CED1D2"/>
<path d="M9.77441 12.8262C10.794 13.4157 11.7222 14.1053 12.5386 14.8796C13.1136 14.4447 13.723 14.0417 14.3629 13.6732C13.2716 13.1643 11.8575 12.4436 9.77773 12.8262" fill="white"/>
<path d="M12.5362 14.8796C12.1181 14.7909 11.6882 14.7451 11.2564 14.7433C11.293 15.0716 11.1742 15.3989 10.9247 15.6571C10.4398 16.1728 9.8002 16.405 9.1556 16.161C8.76862 16.0142 8.4922 15.7466 8.50492 15.3626C8.08587 15.5535 7.66848 15.8284 7.2334 16.0964C8.30534 16.5054 9.38945 16.8307 10.3243 17.1901C10.914 16.3318 11.6599 15.5526 12.5362 14.8796Z" fill="#183E79"/>
<path d="M5.23692 7.03609C4.62051 6.788 3.81393 7.33644 3.38935 7.8399C3.20098 8.06533 3.08793 8.32746 3.06152 8.60008C3.97083 8.4006 4.84766 8.11197 5.67311 7.74039C5.68693 7.41414 5.53601 7.15696 5.23471 7.03609" fill="white"/>
<path d="M17.9716 3.48323C17.4094 3.26468 16.8068 3.52277 16.5459 3.97715C16.4177 4.19318 16.3757 4.43694 16.4259 4.67372C17.2027 4.64835 17.9651 4.49377 18.6671 4.21934C18.6339 4.05926 18.5531 3.90842 18.4317 3.78029C18.3104 3.65217 18.1523 3.55073 17.9716 3.48505" fill="white"/>
<path d="M10.3112 2.70219C10.2464 2.45763 10.1086 2.23013 9.91035 2.04016C9.46145 1.61213 8.78146 1.40175 8.21647 1.86567C7.99534 2.04743 7.87427 2.34232 7.89361 2.63812C8.78146 2.50908 9.54272 2.52044 10.3112 2.70219Z" fill="#183E79"/>
<path d="M13.9389 3.60184C13.5287 3.13201 12.9184 2.68035 12.5635 2.9657C12.4241 3.07794 12.4413 3.32921 12.5513 3.61093C13.1594 3.92309 13.783 4.23616 14.437 4.432C14.358 4.17209 14.1783 3.87629 13.9395 3.60184" fill="#F4C51D"/>
<path d="M5.19257 2.74117C4.68286 2.50898 3.88457 2.76616 3.37265 3.40866C3.15428 3.67429 3.02691 3.98332 3.00391 4.30334C3.98629 4.008 4.69226 3.59542 5.52096 3.25826C5.49718 3.02017 5.38717 2.82932 5.19257 2.74117Z" fill="#F4C51D"/>
<path d="M15.3523 4.64832C15.0349 4.62106 14.7442 4.52427 14.4373 4.43203C14.5075 4.65922 14.4981 4.86233 14.382 4.99456C14.1056 5.30854 13.4179 4.81281 12.9635 4.26209C12.7904 4.06167 12.6518 3.84255 12.5516 3.61096C12.1586 3.40831 11.9009 3.26063 11.5283 3.09387C12.4681 4.10896 13.2338 5.18676 13.8148 5.89378C14.3942 5.46984 14.8652 5.10906 15.3523 4.64832Z" fill="#183E79"/>
<path d="M11.5279 3.09377C11.1408 2.92741 10.733 2.79565 10.3117 2.70073C10.3808 2.97972 10.3294 3.26553 10.0756 3.47955C9.65382 3.83533 8.89036 3.76308 8.35909 3.41003C8.21963 3.31555 8.10609 3.19787 8.02596 3.06473C7.94582 2.93159 7.9009 2.78601 7.89415 2.63757C7.48021 2.70101 7.07086 2.78323 6.66797 2.88385C7.59091 3.37865 8.46206 3.93584 9.27237 4.54962C9.92637 3.99845 10.7324 3.51953 11.529 3.09287" fill="#F4C51D"/>
<path d="M17.9801 6.42808C18.5236 5.70425 19.0858 4.80957 19.6856 3.68542C19.3726 3.8952 19.031 4.07451 18.6678 4.21978C18.7087 4.43215 18.6779 4.64967 18.5788 4.84865C18.2444 5.54431 17.566 5.75423 16.8651 5.28395C16.634 5.13119 16.4772 4.91554 16.4228 4.67598C16.0645 4.69015 15.7054 4.68165 15.3486 4.65054C16.1447 5.31984 17.027 5.91587 17.9801 6.42808Z" fill="#F4C51D"/>
<path d="M6.6683 2.88391C6.27314 2.97964 5.88937 3.10465 5.52172 3.25741C5.54991 3.54322 5.45372 3.89764 5.22817 4.2248C4.71127 4.97408 3.87649 5.29214 3.28661 4.93454C3.0887 4.81413 2.9914 4.58058 3.00356 4.30341C2.61271 4.42109 2.28488 4.51969 1.78125 4.5883C2.42917 5.07949 3.30596 5.59931 4.32041 6.06732C5.16127 4.9768 5.9087 3.84311 6.66719 2.88664" fill="#119144"/>
<path d="M4.1416 1.78837C5.02391 2.08754 5.86997 2.45433 6.6686 2.88389C7.37623 1.98966 8.1325 1.2213 8.93522 0.807812C7.42819 0.626059 5.92615 0.831894 4.14381 1.78746" fill="#CED1D2"/>
<path d="M19.3674 1.73016C19.3674 1.73016 18.1423 2.32086 17.0322 2.57531C17.6674 2.94881 18.7692 3.41728 19.6858 3.6831C19.5112 3.04062 19.405 2.38687 19.3685 1.72925" fill="#CED1D2"/>
<path d="M13.0391 2.29773C13.9789 3.09245 14.7042 4.09709 15.3521 4.64826C16.0284 4.02583 16.5942 3.32796 17.0327 2.57536C15.9226 2.83118 14.5931 2.77165 13.0391 2.29773Z" fill="#CED1D2"/>
<path d="M11.5282 3.09381C12.0169 2.83163 12.4752 2.52583 13.0391 2.29773C11.4685 1.81927 10.4673 0.995013 8.93262 0.808716C9.73478 1.30854 10.6917 2.18913 11.5309 3.09381" fill="#CED1D2"/>
<path d="M4.1413 1.78833C3.43221 2.16814 2.62315 2.40351 1.78125 2.4749V4.58779C2.52205 4.01481 3.52986 2.7021 4.1413 1.78833Z" fill="#CED1D2"/>
</g>
<defs>
<clipPath id="clip0_4368_6255">
<rect width="24.8" height="31" fill="white"/>
</clipPath>
</defs>
</svg>
