<svg width="32" height="33" viewBox="0 0 32 33" fill="none" xmlns="http://www.w3.org/2000/svg">
<path d="M15.9997 31.072C24.3238 31.072 31.0717 24.324 31.0717 16C31.0717 7.67594 24.3238 0.927979 15.9997 0.927979C7.6757 0.927979 0.927734 7.67594 0.927734 16C0.927734 24.324 7.6757 31.072 15.9997 31.072Z" fill="white"/>
<path fill-rule="evenodd" clip-rule="evenodd" d="M16.1328 17.8272C19.3354 18.7109 21.7234 19.128 21.7234 19.128C20.4248 17.8228 19.2005 16.4457 18.0562 15.0034C19.9152 12.3744 21.3797 10.5552 21.3797 10.5552C19.4079 10.992 17.5435 11.5258 15.8741 12.0744C14.2877 9.79632 13.417 8.19312 13.417 8.19312C12.9542 9.90288 12.7306 11.6155 12.6557 13.224C10.0056 14.2502 8.34961 15.0878 8.34961 15.0878C9.78241 15.7334 11.2699 16.2974 12.7104 16.7822C12.9442 19.8754 13.5691 22.0224 13.5691 22.0224C14.3731 20.5882 15.2563 19.1616 16.1328 17.8262V17.8272Z" fill="#2D2E2F"/>
<path fill-rule="evenodd" clip-rule="evenodd" d="M30.7529 17.0161C30.3171 17.6982 29.6489 18.1844 28.8718 18.5266C28.7992 17.1453 28.6518 15.7688 28.4302 14.4034C27.8296 16.028 27.1441 17.62 26.3768 19.1727C24.0286 19.4737 21.7236 19.1281 21.7236 19.1281C22.988 20.6444 23.9696 21.5434 24.7644 22.1521C23.5755 24.1566 22.7148 25.2241 22.7148 25.2241C24.3766 24.8439 25.6976 24.2127 26.7468 23.4644C27.2136 23.7731 27.6108 24.176 27.9128 24.6471C27.9128 24.6471 28.591 23.6871 28.8248 21.459C30.5048 19.263 30.7529 17.0161 30.7529 17.0161Z" fill="#2D2E2F"/>
<path fill-rule="evenodd" clip-rule="evenodd" d="M29.9861 10.9527C29.3099 9.42928 28.2805 8.08891 26.9832 7.04259C25.9809 4.93635 24.8265 3.96387 24.8265 3.96387C24.9225 4.44819 24.8501 4.99683 24.6701 5.56323C22.1741 4.32579 19.8955 4.15347 19.8955 4.15347C21.3461 5.10435 22.6315 6.28323 23.7393 7.49859C22.7208 9.15651 21.3806 10.5552 21.3806 10.5552C23.1566 10.1554 24.5865 9.98691 25.7304 9.95619C27.4853 12.3735 28.4323 14.4034 28.4323 14.4034C28.4659 12.7714 28.3027 11.3443 28.0296 10.1146C29.5176 10.3978 29.9875 10.9527 29.9875 10.9527H29.9861Z" fill="#2D2E2F"/>
<path fill-rule="evenodd" clip-rule="evenodd" d="M19.8941 4.15348C18.7921 3.59655 17.6366 3.15237 16.4453 2.82772C17.8176 1.66708 19.0944 1.37284 19.0944 1.37284C16.8908 1.28548 14.9957 1.6834 13.4098 2.29348C11.041 2.10484 9.53187 2.51572 9.53187 2.51572C9.88659 2.78308 10.1861 3.26068 10.4919 3.83236C8.49027 5.20276 7.47363 6.63076 7.47363 6.63076C8.67987 6.03172 9.96051 5.57764 11.2229 5.23156C11.3607 5.48452 11.5052 5.73652 11.6636 5.98372C12.1741 6.7755 12.7614 7.51507 13.417 8.19172C13.7448 6.63172 14.3088 5.41684 14.9573 4.47412C17.7744 4.08244 19.8936 4.15204 19.8936 4.15204L19.8941 4.15348Z" fill="#2D2E2F"/>
<path fill-rule="evenodd" clip-rule="evenodd" d="M4.6871 8.95827C5.56147 8.11894 6.49299 7.34123 7.47494 6.63075C6.76289 6.64466 6.05457 6.73738 5.36294 6.90723C6.08054 5.16867 6.87734 4.20483 6.87734 4.20483C6.87734 4.20483 2.30534 7.45587 1.4375 13.2989C1.4375 13.2989 1.8215 12.2429 3.12422 10.6493C3.64118 11.8076 4.23638 12.5367 4.23638 12.5367C4.24234 11.3301 4.39367 10.1286 4.6871 8.95827Z" fill="#2D2E2F"/>
<path fill-rule="evenodd" clip-rule="evenodd" d="M8.35011 15.0879C6.76371 15.1359 5.51811 15.2766 4.54995 15.4542C4.39058 14.4879 4.28577 13.5134 4.23603 12.5353C3.45219 13.731 2.94483 14.8844 2.63091 15.9582C1.52691 16.3676 1.24707 16.7641 1.24707 16.7641C1.41939 17.3526 1.76403 17.9257 2.19891 18.4623C2.06307 21.0063 2.88579 22.6863 2.88579 22.6863C3.07107 21.795 3.44019 20.9266 3.90387 20.1154C4.74953 20.7879 5.65067 21.3875 6.59763 21.9078C5.96595 20.7754 5.50083 19.5078 5.15763 18.2809C6.10363 17.1046 7.174 16.0341 8.35011 15.0879Z" fill="#2D2E2F"/>
<path fill-rule="evenodd" clip-rule="evenodd" d="M16.2 28.0829C16.2 28.0829 14.8685 27.5521 12.9629 26.4778C13.031 25.3325 13.2077 23.8743 13.5701 22.0234C13.5701 22.0234 12.0557 23.5225 10.0944 24.6841C8.86677 23.84 7.69829 22.9131 6.59709 21.9097C7.03688 23.1813 7.59099 24.4105 8.25261 25.5821C7.21869 25.9695 6.15261 26.1485 5.17773 25.9105C5.17773 25.9105 6.32973 27.3481 9.88173 27.9581C10.8667 29.1269 12.0667 30.0922 13.4669 30.4282C13.4669 30.4282 13.0454 29.965 12.9513 28.2279C14.0362 28.2389 15.1208 28.1908 16.2005 28.0839L16.2 28.0829Z" fill="#2D2E2F"/>
<path fill-rule="evenodd" clip-rule="evenodd" d="M22.6381 27.9361C22.9434 26.5307 22.7145 25.2241 22.7145 25.2241C21.8159 26.5163 20.9322 27.4998 20.1148 28.2481C18.8074 28.3183 17.4962 28.2626 16.1994 28.082C16.1994 28.082 17.181 29.0622 18.3114 29.6281C16.8172 30.5526 15.8154 30.6361 15.8154 30.6361C22.3573 30.7744 26.2833 26.5038 26.2833 26.5038C25.1793 27.231 23.9039 27.6755 22.6353 27.9366L22.6381 27.9361Z" fill="#2D2E2F"/>
</svg>
