<svg width="31" height="31" viewBox="0 0 31 31" fill="none" xmlns="http://www.w3.org/2000/svg">
<g clip-path="url(#clip0_4368_6122)">
<path d="M15.5002 30.3225C23.6865 30.3225 30.3227 23.6862 30.3227 15.5C30.3227 7.31375 23.6865 0.67749 15.5002 0.67749C7.31399 0.67749 0.677734 7.31375 0.677734 15.5C0.677734 23.6862 7.31399 30.3225 15.5002 30.3225Z" fill="white"/>
<path d="M19.6786 26.9144L19.3598 25.7615C18.4571 26.1325 17.6154 26.5598 16.725 26.8262C15.1258 27.3022 13.5351 27.2014 11.9923 26.5112C11.6647 26.3642 11.5793 26.1962 11.6538 25.8462C11.9814 24.3037 12.1015 22.7532 11.7074 21.1999C11.6846 21.1103 11.6598 21.0207 11.63 20.9336C11.6185 20.8986 11.5894 20.8727 11.525 20.7813C10.7078 21.9521 9.86846 23.0658 8.69876 23.9772C7.78386 21.9822 7.78876 19.9452 8.04741 17.8172L6.38281 18.3072C6.59281 16.4413 7.29561 14.8446 8.39321 13.3424L7.39046 13.1447C8.09046 11.7251 9.05086 10.5634 10.3613 9.56346C10.1401 10.5848 10.1929 11.4451 11.0963 12.045C11.0263 11.7447 10.9346 11.4472 10.8922 11.143C10.857 10.9085 10.8588 10.6699 10.8978 10.436C11.055 9.58235 11.6864 9.2173 12.5148 9.4819C12.6716 9.53195 12.8235 9.59705 13.0647 9.6877C12.8319 9.0892 12.4116 8.8442 11.9429 8.6496L11.9272 8.5222C12.7024 8.2793 13.4654 7.9797 14.2564 7.81065C14.9634 7.6598 15.7009 7.6549 16.4264 7.58245C17.1142 7.51245 17.6616 7.78335 18.1264 8.26845C18.2863 8.43576 18.4592 8.5901 18.6265 8.7504L18.7315 8.7L18.5565 7.8845C18.643 7.8929 18.728 7.8887 18.8057 7.9104C19.6426 8.14245 20.4301 8.4788 21.1126 9.02795C21.2242 9.1179 21.3709 9.21555 21.4087 9.33806C21.5788 9.88686 21.7153 10.4462 21.8518 10.9572L19.4144 9.2642C19.2824 9.67965 19.189 9.97295 19.0885 10.2894C18.4851 9.92185 17.9458 9.56275 17.3756 9.26245C17.1443 9.14986 16.8839 9.11101 16.6298 9.15115C15.6781 9.31425 14.7996 9.66845 13.9988 10.3314L14.4783 10.6733C13.8809 10.9698 13.3762 11.2382 12.9649 11.8283C13.6723 11.7156 13.7528 12.171 13.9551 12.5871C14.2932 13.2822 14.9326 13.6308 15.6963 13.6588C16.6308 13.6938 17.5674 13.6669 18.5422 13.6669C18.266 13.3837 17.9507 13.0813 17.6598 12.7569C17.3312 12.3901 16.9343 12.2595 16.452 12.3019C15.7688 12.36 15.143 12.1969 14.597 11.7646C15.346 10.8711 16.0456 10.849 17.5611 11.6519L18.293 11.276C18.328 11.3439 18.3542 11.3723 18.3479 11.3852C18.027 12.0639 18.0329 12.059 18.5628 12.6036C18.8855 12.934 19.1897 13.2826 19.4795 13.5983C19.8879 13.5283 20.2866 13.4177 20.6898 13.3991C21.093 13.3806 21.4986 13.453 21.9407 13.4887L20.176 11.6337L20.295 11.485L20.9652 11.8682C21.2274 11.8154 21.3971 11.2834 21.773 11.6428C22.053 11.9106 22.0271 12.1885 21.7447 12.5178L22.4545 13.2686C22.5126 13.0936 22.5465 12.9886 22.5794 12.8888C22.6197 12.8923 22.6568 12.8853 22.6655 12.8979C24.6007 15.6363 25.1484 18.5928 24.0729 21.8828C23.8023 21.5986 23.5734 21.3578 23.2749 21.0428C23.0873 22.3 22.773 23.4098 22.15 24.4094C21.527 25.409 20.715 26.2322 19.6786 26.9144ZM16.7036 15.8957C17.0246 16.5015 17.3431 17.0647 17.6224 17.6457C17.7596 17.932 17.9374 17.9925 18.2223 17.9232C19.1673 17.6933 19.8949 17.0983 20.624 16.5047C20.6659 16.473 20.6941 16.4263 20.7027 16.3745C20.7073 15.9783 20.7601 15.5695 20.6747 15.1915C20.6397 15.035 20.3027 14.9465 20.1035 14.8271C19.9793 14.7519 19.8648 14.6451 19.7301 14.6049C19.5425 14.5485 19.3227 14.4754 19.1473 14.5233C18.2405 14.7722 17.4796 15.2975 16.705 15.8957H16.7036ZM18.412 19.1013C18.5313 19.3302 18.7074 19.6358 18.8512 19.956C18.9562 20.1909 19.0962 20.2437 19.3164 20.131C19.7224 19.9277 20.1298 19.7271 20.5844 19.501C20.6383 19.928 20.6915 20.3501 20.7461 20.7817C20.8053 20.7691 20.8511 20.7726 20.8767 20.7523C21.4906 20.2759 21.8857 19.6298 21.94 18.8787C21.9645 18.5287 21.7202 18.0254 21.4349 17.8329C21.1924 17.6695 20.6649 17.7496 20.3541 17.9029C19.6891 18.2298 19.084 18.6768 18.412 19.1013ZM22.395 14.5062C22.1055 14.7057 21.8721 14.8562 21.6519 15.0238C21.571 15.0842 21.5112 15.1686 21.4811 15.265C21.227 16.3024 21.8535 16.9768 22.493 17.7125C22.9501 16.6051 22.8101 15.58 22.395 14.5062Z" fill="#381D54"/>
<path d="M18.0564 3.87988L18.2339 6.16083L19.4589 4.81858L19.546 4.90433C19.3735 5.69463 19.2006 6.48493 19.021 7.30533C16.333 6.63753 13.7504 6.92033 11.3028 8.25488L10.1797 5.86018L11.7851 6.86713L11.446 4.63133L13.8732 6.30223L14.7132 3.88093L16.0782 6.05478L18.0564 3.87988Z" fill="#381D54"/>
<path d="M16.7051 15.8957C17.4796 15.2976 18.2405 14.7722 19.1488 14.5241C19.3238 14.4761 19.5439 14.5493 19.7315 14.6056C19.8663 14.6459 19.9807 14.7526 20.105 14.8279C20.3041 14.9479 20.6408 15.0358 20.6762 15.1922C20.7616 15.5699 20.7087 15.979 20.7042 16.3752C20.6956 16.4271 20.6674 16.4737 20.6254 16.5054C19.8964 17.1004 19.1694 17.6954 18.2237 17.924C17.9381 17.994 17.761 17.9327 17.6238 17.6464C17.3445 17.0647 17.026 16.5016 16.7051 15.8957Z" fill="white"/>
<path d="M18.4121 19.1013C19.0841 18.6768 19.6893 18.2312 20.3525 17.9036C20.664 17.7496 21.1925 17.6695 21.4333 17.8336C21.7186 18.0261 21.9629 18.5305 21.9384 18.8794C21.8859 19.6309 21.4907 20.2766 20.8768 20.7551C20.8506 20.7754 20.8068 20.7719 20.7463 20.7845C20.6917 20.3529 20.6385 19.9308 20.5846 19.5038C20.1296 19.7292 19.7225 19.9298 19.3165 20.1338C19.0946 20.2451 18.9567 20.1923 18.8514 19.9588C18.7075 19.6358 18.5315 19.3302 18.4121 19.1013Z" fill="white"/>
<path d="M22.3946 14.5063C22.8083 15.5801 22.9483 16.6063 22.4926 17.7127C21.8532 16.9777 21.2267 16.3025 21.4808 15.2651C21.5109 15.1688 21.5706 15.0844 21.6516 15.024C21.8731 14.8563 22.1066 14.7058 22.3946 14.5063Z" fill="white"/>
</g>
<defs>
<clipPath id="clip0_4368_6122">
<rect width="31" height="31" fill="white"/>
</clipPath>
</defs>
</svg>
