<svg width="32" height="34" viewBox="0 0 32 34" fill="none" xmlns="http://www.w3.org/2000/svg">
<g clip-path="url(#clip0_4368_6110)">
<path d="M26.0636 28.0642C31.8981 22.2297 31.8981 12.7703 26.0636 6.93582C20.2292 1.10139 10.7697 1.10139 4.93527 6.93582C-0.899163 12.7703 -0.899163 22.2297 4.93527 28.0642C10.7697 33.8986 20.2292 33.8986 26.0636 28.0642Z" fill="url(#paint0_radial_4368_6110)"/>
<path d="M15.4994 2.72412C7.80438 2.72412 1.56738 9.31347 1.56738 17.4418C1.56738 17.7735 1.57908 18.1029 1.59933 18.4291C4.49283 23.6019 9.63588 27.0435 15.4994 27.0435C21.3629 27.0435 26.5055 23.6019 29.3994 18.4291C29.4197 18.1029 29.4309 17.7735 29.4309 17.4418C29.4309 9.31347 23.1944 2.72412 15.4994 2.72412Z" fill="url(#paint1_linear_4368_6110)"/>
<path d="M15.5514 2.55984C12.9708 2.55545 10.4335 3.22228 8.18848 4.49484C8.85943 5.69769 10.1995 8.41344 11.302 12.6043C12.8415 18.4543 15.3552 25.5854 20.4865 30.5111C20.4865 30.5111 15.0991 21.3266 15.0991 9.83364C15.0991 7.04949 15.3853 4.63029 15.8191 2.56164C15.73 2.55984 15.6409 2.55984 15.5514 2.55984Z" fill="url(#paint2_radial_4368_6110)"/>
<path d="M18.0647 2.771C17.9144 3.5621 17.6075 5.05385 17.1008 7.0136C16.3313 9.98945 16.8956 20.3025 18.3325 23.2271C18.3325 23.2271 17.662 15.6752 22.8118 4.43915C21.3358 3.61706 19.7304 3.05291 18.0647 2.771Z" fill="url(#paint3_radial_4368_6110)"/>
<path d="M14.9735 32.44C14.6338 23.6317 12.4841 19.2249 12.4841 19.2249C12.8707 25.2396 10.9919 30.0645 10.3691 31.4761C11.8421 32.0431 13.3969 32.3686 14.9735 32.44Z" fill="url(#paint4_radial_4368_6110)"/>
<path d="M16.2576 32.4373C17.6422 32.3681 19.0101 32.1028 20.3202 31.6494C17.0064 28.8139 15.0498 25.074 15.0498 25.074C15.8967 27.6633 16.1838 31.27 16.2576 32.4373Z" fill="url(#paint5_radial_4368_6110)"/>
<path d="M11.9101 12.4465C11.0609 9.21995 10.0147 6.18335 8.80505 4.1687C8.59715 4.274 8.3915 4.38245 8.18945 4.49675C8.8604 5.6996 10.2005 8.41535 11.303 12.6062C12.7799 18.22 15.1573 25.0172 19.8841 29.9096C14.4229 22.0621 12.8447 16.0015 11.9101 12.4465Z" fill="#C96F5A"/>
<path d="M17.8185 6.39755C18.2334 4.5296 18.3684 3.3857 18.4125 2.83805C18.2964 2.81555 18.1807 2.79305 18.0637 2.771C17.9134 3.5621 17.6065 5.05385 17.0998 7.0136C16.3303 9.98945 16.8946 20.3025 18.3315 23.2271C18.3315 23.2271 18.2329 22.1093 18.4035 20.0964C16.7317 14.1344 17.2546 8.9441 17.8185 6.39755Z" fill="#C96F5A"/>
<path d="M13.1015 20.8408C12.7451 19.7649 12.4841 19.2249 12.4841 19.2249C12.8707 25.2396 10.9919 30.0645 10.3691 31.4761C10.3943 31.4856 10.42 31.4941 10.4447 31.5036C11.4653 30.0249 13.1852 26.6589 13.1015 20.8408Z" fill="#C96F5A"/>
<path d="M16.2575 32.4373C16.4442 32.4279 16.6292 32.4148 16.8141 32.3986C16.7244 30.5023 16.4769 28.6167 16.0743 26.7615C15.4065 25.758 15.0479 25.074 15.0479 25.074C15.8966 27.6633 16.1837 31.27 16.2575 32.4373Z" fill="#C96F5A"/>
</g>
<defs>
<radialGradient id="paint0_radial_4368_6110" cx="0" cy="0" r="1" gradientUnits="userSpaceOnUse" gradientTransform="translate(15.5914 17.8764) scale(15.0011)">
<stop offset="0.76" stop-color="#EAA822"/>
<stop offset="1" stop-color="#CC7A29"/>
</radialGradient>
<linearGradient id="paint1_linear_4368_6110" x1="15.4994" y1="24.9226" x2="15.4994" y2="9.86517" gradientUnits="userSpaceOnUse">
<stop stop-color="#EAA822"/>
<stop offset="0.39" stop-color="#F1C062"/>
</linearGradient>
<radialGradient id="paint2_radial_4368_6110" cx="0" cy="0" r="1" gradientUnits="userSpaceOnUse" gradientTransform="translate(15.7129 17.0669) scale(15.3977 15.3977)">
<stop stop-color="#A21D2E"/>
<stop offset="1" stop-color="#650B1A"/>
</radialGradient>
<radialGradient id="paint3_radial_4368_6110" cx="0" cy="0" r="1" gradientUnits="userSpaceOnUse" gradientTransform="translate(15.7126 17.067) scale(15.3976 15.3977)">
<stop stop-color="#A21D2E"/>
<stop offset="1" stop-color="#650B1A"/>
</radialGradient>
<radialGradient id="paint4_radial_4368_6110" cx="0" cy="0" r="1" gradientUnits="userSpaceOnUse" gradientTransform="translate(15.7124 17.0667) scale(15.3977)">
<stop stop-color="#A21D2E"/>
<stop offset="1" stop-color="#650B1A"/>
</radialGradient>
<radialGradient id="paint5_radial_4368_6110" cx="0" cy="0" r="1" gradientUnits="userSpaceOnUse" gradientTransform="translate(15.7131 17.0667) scale(15.3976)">
<stop stop-color="#A21D2E"/>
<stop offset="1" stop-color="#650B1A"/>
</radialGradient>
<clipPath id="clip0_4368_6110">
<rect width="32" height="34" fill="white"/>
</clipPath>
</defs>
</svg>
