<svg width="31" height="32" viewBox="0 0 31 32" fill="none" xmlns="http://www.w3.org/2000/svg">
<path fill-rule="evenodd" clip-rule="evenodd" d="M16.8618 9.18903L16.0615 3.21697C16.0615 3.21697 22.2656 2.18541 26.3431 6.2645L22.4645 11.0053C22.4645 11.0053 20.4871 9.0279 16.8618 9.18903Z" fill="#EC1C24"/>
<path fill-rule="evenodd" clip-rule="evenodd" d="M21.4375 12.8425L25.5785 8.46533C25.5785 8.46533 30.2804 12.6404 29.6732 18.3767L23.5478 18.3414C23.5478 18.3414 23.8422 15.5604 21.4375 12.8425Z" fill="#F48120"/>
<path fill-rule="evenodd" clip-rule="evenodd" d="M21.4532 18.7432L27.4569 19.2548C27.4569 19.2548 27.1207 25.534 22.2552 28.6328L18.4668 23.8194C18.4668 23.8194 20.8255 22.3171 21.4532 18.7432Z" fill="#FDEE36"/>
<path fill-rule="evenodd" clip-rule="evenodd" d="M16.8461 22.4292L20.1864 27.446C20.1864 27.446 15.0651 31.095 9.6084 29.22L11.0147 23.2578C11.0147 23.2578 13.6592 24.1668 16.8461 22.4292Z" fill="#4FB864"/>
<path fill-rule="evenodd" clip-rule="evenodd" d="M11.0921 21.1252L9.2504 26.8628C9.2504 26.8628 3.20536 25.1305 1.27344 19.6951L6.81213 17.0793C6.81213 17.0793 7.74898 19.7144 11.0921 21.1252Z" fill="#4282C3"/>
<path fill-rule="evenodd" clip-rule="evenodd" d="M8.52789 15.8112L2.89285 17.9432C2.89285 17.9432 0.481643 12.138 3.52835 7.23975L9.02645 9.94247C9.02645 9.94247 7.55045 12.3168 8.52789 15.8112Z" fill="#2C519E"/>
<path fill-rule="evenodd" clip-rule="evenodd" d="M11.087 10.4944L5.90625 7.41611C5.90625 7.41611 8.9464 1.91186 14.6762 1.24438L15.9881 7.22792C15.9881 7.22792 13.2104 7.55182 11.087 10.4944Z" fill="#911B80"/>
<path d="M13.7825 11.2693C12.7247 11.6964 11.8639 12.5023 11.3681 13.5297C10.8723 14.5572 10.777 15.7324 11.1009 16.8263C11.4247 17.9202 12.1444 18.8542 13.1196 19.4462C14.0948 20.0381 15.2556 20.2455 16.3754 20.028C17.4953 19.8104 18.494 19.1835 19.1766 18.2694C19.8593 17.3554 20.1769 16.2199 20.0676 15.0843C19.9584 13.9488 19.43 12.8946 18.5855 12.1276C17.7411 11.3605 16.6412 10.9356 15.5004 10.9356C14.9116 10.9344 14.3281 11.0477 13.7825 11.2693Z" fill="#211315"/>
<path d="M12.0767 17.4216C11.8569 17.2856 11.6548 17.123 11.4748 16.9374C11.202 16.1674 11.1538 15.3357 11.3358 14.5393C11.4215 14.3708 11.5193 14.2087 11.6286 14.0543C11.6622 14.0067 11.6938 13.9567 11.7302 13.9104L12.7602 14.5201V14.5459C12.7575 15.0988 12.8124 15.6505 12.9242 16.1921C12.9242 16.1945 12.9242 16.1957 12.9242 16.1982L12.1255 17.4508C12.1079 17.4417 12.0906 17.4323 12.0738 17.4216H12.0767Z" fill="white"/>
<path d="M15.1396 19.5393C15.3164 19.6295 15.4998 19.7063 15.6882 19.7689C14.8786 19.805 14.0754 19.6105 13.3721 19.208L15.099 19.5155C15.1122 19.5242 15.1259 19.5322 15.14 19.5393H15.1396Z" fill="white"/>
<path d="M15.1312 19.2278L13.0935 18.8645C12.8542 18.5763 12.641 18.2673 12.4564 17.9412C12.4092 17.8592 12.3572 17.7772 12.3174 17.6903L13.1152 16.439L13.1751 16.4537C13.6751 16.5845 14.1823 16.6858 14.6942 16.7571C14.7241 16.7612 14.7491 16.7649 14.7704 16.767L15.7269 18.4213C15.5613 18.6547 15.3928 18.8871 15.2214 19.1183C15.1931 19.1564 15.1628 19.1933 15.1312 19.2298V19.2278Z" fill="white"/>
<path d="M18.5232 18.5229C18.3637 18.6828 18.1916 18.8296 18.0087 18.962C17.9788 18.724 17.9272 18.4892 17.8545 18.2605L18.8754 16.3561C19.1575 16.2314 19.4268 16.0795 19.6794 15.9026C19.7109 15.8814 19.7386 15.855 19.7614 15.8247C19.6864 16.8435 19.2472 17.8013 18.524 18.5229H18.5232Z" fill="white"/>
<path d="M18.4779 16.0532C18.5156 16.1257 18.5534 16.1987 18.5911 16.2729L17.6071 18.1122L17.5903 18.1155C17.0586 18.2155 16.5191 18.2675 15.9781 18.2708L14.9941 16.5693C15.1475 16.2848 15.2993 15.9996 15.4497 15.7137C15.5517 15.5202 15.6522 15.325 15.7522 15.1302L17.7887 14.9211C18.041 15.2847 18.2718 15.6627 18.48 16.0532H18.4779Z" fill="white"/>
<path d="M18.0646 13.8715C17.9678 14.1269 17.8645 14.3795 17.762 14.6324L15.778 14.8374C15.7543 14.8063 15.7297 14.7755 15.7038 14.746C15.4693 14.4809 15.2342 14.2164 14.9986 13.9527L15.0048 13.9457L14.7178 13.6607L15.2705 11.9982C15.3081 11.9875 15.3464 11.9798 15.3853 11.9752C15.6858 11.9449 15.9863 11.91 16.2873 11.8932C16.4727 11.8804 16.6588 11.8794 16.8444 11.8904L18.211 13.4303C18.1638 13.5787 18.1179 13.728 18.063 13.8731L18.0646 13.8715Z" fill="white"/>
<path d="M18.5234 12.4772C18.8899 12.8428 19.1866 13.2723 19.3988 13.7445C19.1435 13.5699 18.8703 13.4231 18.5837 13.3066C18.539 13.2882 18.4931 13.2718 18.4464 13.2558L17.1016 11.7388C17.1106 11.6735 17.1159 11.6078 17.1176 11.542C17.6439 11.7564 18.122 12.0741 18.5234 12.4764V12.4772Z" fill="white"/>
<path d="M14.1317 11.4633C14.1371 11.467 14.1395 11.4703 14.1428 11.4711C14.446 11.5798 14.7324 11.7307 14.9936 11.9193L14.4757 13.4732C14.4731 13.4737 14.4706 13.4746 14.4684 13.476C14.3626 13.5195 14.2552 13.558 14.151 13.6056C13.7213 13.7962 13.307 14.0199 12.912 14.2747L11.8936 13.672C11.8947 13.6404 11.9008 13.6091 11.9116 13.5793C11.9797 13.3973 12.0469 13.214 12.1244 13.0357C12.184 12.8986 12.2514 12.765 12.3261 12.6355C12.3741 12.5818 12.4245 12.5289 12.4762 12.4773C12.9431 12.0095 13.5126 11.657 14.1395 11.4478C14.1361 11.4527 14.1329 11.4579 14.1301 11.4633H14.1317Z" fill="white"/>
</svg>
