<svg width="33" height="32" viewBox="0 0 33 32" fill="none" xmlns="http://www.w3.org/2000/svg">
<path d="M16.4706 31.6091C24.8313 31.6091 31.6091 24.8313 31.6091 16.4706C31.6091 8.10978 24.8313 1.33203 16.4706 1.33203C8.10978 1.33203 1.33203 8.10978 1.33203 16.4706C1.33203 24.8313 8.10978 31.6091 16.4706 31.6091Z" fill="#D20515"/>
<path d="M28.0243 17.8634C28.0243 17.9147 27.9735 17.9655 27.871 18.0168L27.8197 18.068V18.1193C27.8197 18.1705 27.8197 18.1705 27.7685 18.2217L27.666 18.273H27.5635V18.2217L27.4622 18.273V18.3242C27.4622 18.3755 27.4622 18.3755 27.4109 18.4263L27.3085 18.478H27.206V18.4263C26.8477 18.6313 26.3868 18.785 25.9773 18.9896V19.0413C25.9773 19.0921 25.9773 19.0921 25.926 19.1434L25.8236 19.1946H25.7211L25.6698 19.1434L25.5165 19.1946L25.5677 19.2458C25.5677 19.2971 25.5677 19.2971 25.5165 19.3483L25.414 19.3992H25.3107L25.2595 19.3483C25.0549 19.4508 24.8499 19.4508 24.6962 19.1434C24.6453 18.9896 24.6453 18.6826 24.5941 18.5288C24.58 18.4996 24.5582 18.4746 24.5312 18.4566C24.5042 18.4386 24.4728 18.4281 24.4404 18.4263C22.4946 18.068 21.8801 18.478 20.6002 18.1705C20.1906 18.068 19.9856 17.7097 19.5248 17.7097C18.5007 17.6585 18.1948 17.7097 17.0158 17.6585C16.99 17.7243 16.9729 17.7932 16.965 17.8634H12.9711L13.5856 18.1705L13.7902 19.9128C13.7237 19.9359 13.6552 19.9529 13.5856 19.9637C13.6365 20.3224 13.6365 20.7851 13.6877 21.1927C13.6877 21.551 13.7389 21.9606 13.7389 22.2164C13.7448 22.3764 13.7095 22.5352 13.6365 22.6776C13.5856 22.8314 13.4319 22.9335 13.3294 22.9847C13.2781 23.036 13.1248 23.1384 12.9711 23.2409L12.459 23.4968C12.459 23.548 12.5103 23.5993 12.5103 23.6505C10.1037 24.8279 7.08268 25.1863 6.10982 27.0811C6.00773 27.2857 5.59777 27.1832 5.59777 26.9274V26.5687H5.54653C5.49568 26.5687 5.49568 26.5178 5.49568 26.4666V26.3641C5.50097 26.3253 5.51883 26.2893 5.54653 26.2616H5.59777C5.59777 26.1591 5.64902 26.057 5.64902 25.9545H5.59777C5.54653 25.9545 5.54653 25.9033 5.59777 25.852L5.64902 25.7495C5.64902 25.6983 5.70026 25.6475 5.75151 25.6983H5.80275C5.95648 25.2887 6.3148 25.135 6.46775 24.7254C6.41651 24.7254 6.41651 24.6746 6.46775 24.6234L6.4169 24.5197C6.4169 24.4684 6.46814 24.4172 6.519 24.4684H6.57024C6.57024 24.4172 6.62148 24.366 6.67273 24.3147H6.62148C6.57024 24.3147 6.57024 24.2639 6.62148 24.2122L6.67273 24.1101C6.72397 24.0589 6.72397 24.0589 6.77522 24.0589L6.82646 24.0076C6.90243 23.9575 6.99146 23.9308 7.08249 23.9308C7.17352 23.9308 7.26254 23.9575 7.33851 24.0076C7.49185 24.1101 8.10639 24.4172 8.66851 23.9051C9.59012 23.0348 10.7167 21.9102 11.5358 21.8573C11.3309 21.3961 10.9213 20.3709 10.8708 19.9625L10.615 19.9116C10.4613 19.6042 10.103 18.1705 10.0005 17.0443C10.0005 17.0443 9.89798 15.8665 10.0005 15.4569C9.94922 15.4569 9.79588 15.5594 9.79588 15.5594C9.64215 15.2007 10.1542 12.0263 10.615 11.1047L11.3848 10.7984C11.2827 10.7984 10.7707 10.7475 9.33664 10.645C8.51752 11.3617 7.64715 12.1315 7.1351 12.5395C7.03261 12.5908 6.93051 13.0516 6.93051 13.0516C6.79027 13.1873 6.63577 13.3074 6.46971 13.4099C6.16224 13.6145 5.49685 13.7682 5.34312 13.5124C5.29187 13.4611 5.29187 13.4099 5.34312 13.4099C5.44561 13.3074 5.85517 13.1028 6.00812 12.8466C5.80314 12.9491 5.54692 13.1028 5.34312 13.0516C5.24063 13.0516 5.18939 12.8466 5.34312 12.7953C5.65019 12.6932 5.85517 12.5908 6.05975 12.3858C6.21349 12.13 6.41846 11.9762 6.72475 11.9762C6.72475 11.9762 8.05475 10.2355 8.8242 9.41597C9.02878 9.21139 9.43834 9.26263 9.43834 9.26263L9.48959 9.00641C9.48959 9.00641 12.1523 8.69934 13.4323 9.1089C13.381 8.34102 13.7393 7.36816 14.9187 7.36816C15.5333 7.36816 16.4052 7.93146 16.5574 8.54561C16.6082 8.75058 16.4549 8.90431 16.4036 9.16014C16.3011 9.56971 16.4549 9.97927 16.4036 10.0818C16.3524 10.1842 16.2499 10.1842 16.1474 10.338C16.0449 10.4917 15.8896 10.7984 15.8896 10.7984L15.7359 11.1571L14.9168 11.1059C14.6093 11.7709 13.9952 13.1028 13.7902 14.434C14.4552 14.4852 17.4258 14.8948 17.4258 14.8948L17.477 15.1506C17.477 15.1506 18.7057 15.3044 19.7298 15.7652C19.9344 15.8164 20.5489 15.7139 20.9072 15.9189L21.0097 15.8164C22.3397 16.226 23.4675 16.943 24.7474 17.2501L25.5669 17.455C26.0278 17.5571 26.3348 17.5571 26.5907 17.6084C26.8963 17.6471 27.2042 17.6642 27.5123 17.6596C27.666 17.6084 27.9735 17.5571 28.0243 17.8646M29.97 13.8183C29.6459 13.8183 29.3291 13.9144 29.0596 14.0944C28.7902 14.2745 28.5801 14.5304 28.4561 14.8298C28.3321 15.1293 28.2996 15.4587 28.3629 15.7766C28.4261 16.0945 28.5822 16.3864 28.8113 16.6156C29.0405 16.8448 29.3325 17.0008 29.6503 17.0641C29.9682 17.1273 30.2977 17.0948 30.5971 16.9708C30.8965 16.8468 31.1524 16.6368 31.3325 16.3673C31.5126 16.0978 31.6087 15.781 31.6087 15.4569C31.6087 14.5353 30.8408 13.8183 29.97 13.8183Z" fill="white"/>
</svg>
