<svg width="35" height="35" viewBox="0 0 35 35" fill="none" xmlns="http://www.w3.org/2000/svg">
<path d="M17.5002 32.3225C25.6865 32.3225 32.3227 25.6862 32.3227 17.5C32.3227 9.31375 25.6865 2.67749 17.5002 2.67749C9.31399 2.67749 2.67773 9.31375 2.67773 17.5C2.67773 25.6862 9.31399 32.3225 17.5002 32.3225Z" fill="#081B3D"/>
<path d="M17.4993 20.7134C19.249 20.7134 20.6675 19.2949 20.6675 17.5452C20.6675 15.7954 19.249 14.377 17.4993 14.377C15.7495 14.377 14.3311 15.7954 14.3311 17.5452C14.3311 19.2949 15.7495 20.7134 17.4993 20.7134Z" fill="white"/>
<path fill-rule="evenodd" clip-rule="evenodd" d="M14.8416 24.1679L12.415 28.0907C12.415 28.0907 17.5341 28.8051 23.0113 28.0099C26.149 24.1994 28.6207 19.4114 29.0778 18.2225C27.1378 13.7344 23.9416 9.64746 23.9416 9.64746L21.4744 13.5713C21.4744 13.5713 23.2521 15.8012 24.3056 18.2225C23.4747 19.955 22.061 22.3479 20.6656 24.1273C18.4907 24.3475 14.8416 24.1679 14.8416 24.1679Z" fill="#D0FB0C"/>
<path fill-rule="evenodd" clip-rule="evenodd" d="M20.1572 10.8321L22.5837 6.90933C22.5837 6.90933 17.4646 6.19498 11.9874 6.99018C8.8497 10.8006 6.378 15.5886 5.9209 16.7776C7.86095 21.2656 11.0571 25.3526 11.0571 25.3526L13.5243 21.4298C13.5243 21.4298 11.7466 19.1999 10.6931 16.7786C11.524 15.0461 12.9377 12.6532 14.3331 10.8738C16.508 10.6526 20.1572 10.8321 20.1572 10.8321Z" fill="#D0FB0C"/>
</svg>
