<svg width="22" height="22" viewBox="0 0 22 22" fill="none" xmlns="http://www.w3.org/2000/svg">
<path d="M19.6624 12.5034V13.42C19.6624 13.6675 19.4699 13.8692 19.2132 13.8784H17.8749C17.3891 13.8784 16.9491 13.5209 16.9124 13.0442C16.8849 12.76 16.9949 12.4942 17.1782 12.3109C17.3432 12.1367 17.5724 12.045 17.8199 12.045H19.2041C19.4699 12.0542 19.6624 12.2559 19.6624 12.5034Z" fill="white"/>
<path d="M16.4911 11.6326C16.0328 12.0818 15.8128 12.7509 15.9961 13.4476C16.2344 14.3001 17.0686 14.8409 17.9486 14.8409H18.7461C19.2503 14.8409 19.6628 15.2534 19.6628 15.7576V15.9318C19.6628 17.8293 18.1136 19.3784 16.2161 19.3784H5.69276C3.79526 19.3784 2.24609 17.8293 2.24609 15.9318V9.76258C2.24609 8.63508 2.78693 7.63592 3.62109 7.01258C4.19859 6.57258 4.91359 6.31592 5.69276 6.31592H16.2161C18.1136 6.31592 19.6628 7.86508 19.6628 9.76258V10.1659C19.6628 10.6701 19.2503 11.0826 18.7461 11.0826H17.8111C17.2978 11.0826 16.8303 11.2843 16.4911 11.6326Z" fill="white"/>
<path d="M14.8505 4.41837C15.098 4.66587 14.8871 5.05087 14.5388 5.05087L7.49879 5.04171C7.09546 5.04171 6.88463 4.54671 7.17796 4.26254L8.66296 2.76837C9.91879 1.52171 11.9538 1.52171 13.2096 2.76837L14.8138 4.39087C14.823 4.40004 14.8413 4.40921 14.8505 4.41837Z" fill="white"/>
</svg>
