<svg width="19" height="19" viewBox="0 0 19 19" fill="none" xmlns="http://www.w3.org/2000/svg">
<path d="M18.0154 5.72549H12.3263C14.033 5.72549 15.4552 4.11351 15.1708 2.40686C14.9811 1.26898 14.033 0.320796 12.8952 0.131262C11.0937 -0.247976 9.4818 1.17429 9.4818 2.88095C9.4818 1.17429 7.86982 -0.247976 6.16317 0.0364099C5.02528 0.32081 4.0771 1.17429 3.88757 2.40686C3.50833 4.11351 4.9306 5.72549 6.63726 5.72549H0.94818C0.379238 5.72549 0 6.10472 0 6.67367V8.57003C0 9.04412 0.379238 9.5182 0.94818 9.5182H1.89636V18.0518C1.89636 18.5259 2.37045 19 2.84454 19H8.53362V9.5182H10.43V19H16.1191C16.5931 19 17.0672 18.5259 17.0672 18.0518V9.5182H18.0154C18.4895 9.5182 18.9636 9.04412 18.9636 8.57003V6.67367C18.9636 6.10472 18.5843 5.72549 18.0154 5.72549ZM7.5854 3.82913H6.63722C6.16313 3.82913 5.68904 3.35504 5.68904 2.88095C5.68904 2.40686 6.16313 1.93277 6.63722 1.93277C7.11131 1.93277 7.5854 2.40686 7.5854 2.88095V3.82913ZM11.3781 2.88095C11.3781 2.40686 11.8522 1.93277 12.3263 1.93277C12.8004 1.93277 13.2745 2.40686 13.2745 2.88095C13.2745 3.35504 12.8004 3.82913 12.3263 3.82913H11.3781V2.88095Z" fill="white"/>
</svg>
