<svg id="Capa_1" enable-background="new 0 0 512 512" height="512" viewBox="0 0 512 512" width="512" xmlns="http://www.w3.org/2000/svg"><g><path d="m511.654 242.58c-3.223-62.419-28.802-118.928-68.887-161.669l-11.677-11.677c-42.746-40.089-99.262-65.67-161.689-68.889l-16.858-.322c-76.78 1.016-145.402 35.833-191.666 90.25-37.968 44.658-50.765 102.517-50.765 165.727 0 141.385 104.503 248.393 245.888 248.393 99.567 0 185.859-49.235 228.193-132.239 17.295-33.909 27.254-72.185 27.784-112.734z" fill="#ffaa5a"/><path d="m289.032 462.452c-141.385 0-256-114.615-256-256 0-41.817 10.065-81.318 27.844-116.179-37.27 43.848-60.043 100.44-60.854 162.304l.324 16.858c3.227 62.409 28.804 118.907 68.882 161.645l11.675 11.676c42.839 40.18 99.508 65.79 162.098 68.921l16.859.296c66.203-.979 126.317-27.086 171.231-69.21l11.694-11.696c16.416-17.508 30.399-37.325 41.409-58.912-46.958 55.245-116.975 90.297-195.162 90.297z" fill="#ff8b57"/><path d="m511.654 242.58c-17.722-2.541-35.296-2.846-52.42-3.128-45.508-.745-88.597-1.558-132.822-42.187l116.355-116.354c-3.767-4.017-7.66-7.91-11.677-11.677l-116.356 116.354c-40.647-44.232-41.462-87.336-42.21-132.85-.277-17.113-.583-34.678-3.123-52.393-4.439-.229-8.905-.345-13.401-.345-1.155 0-2.306.008-3.457.023 2.739 17.365 3.172 34.803 3.465 52.989.775 46.849 1.698 95.236 47.052 144.251l-47.06 47.06-175.041-175.042c-4.017 3.767-7.91 7.66-11.677 11.677l175.041 175.042-46.904 46.904c-48.923-45.102-97.21-46.022-143.975-46.792-5.282-.086-10.496-.183-15.662-.344l-2.475 7.43 6.304 9.212c3.875.091 7.732.155 11.567.218 45.42.743 88.431 1.553 132.566 41.95l-75.294 75.294 2.396 9.941 9.808 1.21 74.783-74.783c40.398 43.799 41.676 86.483 42.424 131.493l6.559 11.799 10.005-9.137c-.007-.441-.014-.882-.021-1.323-.776-46.934-1.704-95.405-47.292-144.507l46.888-46.888 160.722 160.723 10.565-.242 3.844-8.704-163.454-163.454 47.06-47.06c49.005 45.335 97.385 46.261 144.23 47.028 18.189.298 35.639.709 53.01 3.452.015-1.144.022-2.273.022-3.42.001-4.503-.115-8.975-.345-13.42z" fill="#845252"/><g fill="#70393c"><path d="m122.653 401.024c-4.189-3.585-8.255-7.306-12.204-11.151l-41.221 41.206c3.767 4.017 7.658 7.909 11.675 11.676z"/><path d="m442.785 431.066-11.653-11.612c-4.695 3.14-9.503 6.114-14.409 8.946l14.368 14.362c4.017-3.767 7.926-7.679 11.694-11.696z"/><path d="m41.611 272.411c-1.458-5.482-2.733-11.022-3.829-16.642-12.774-.398-25.286-1.194-37.759-3.192-.016 1.142-.023 2.277-.023 3.423 0 4.508.116 8.984.346 13.435 13.912 2.021 27.683 2.659 41.265 2.976z"/><path d="m259.86 511.971c-2.663-16.935-3.143-33.877-3.435-51.576-5.579-.71-11.103-1.599-16.564-2.662.009.554.017 1.053.027 1.609.277 17.094.581 34.637 3.114 52.333 4.305.216 8.639.325 12.998.325 1.287 0 2.577-.009 3.86-.029z"/></g></g></svg>