<?xml version="1.0" encoding="utf-8"?>
<!-- Generator: Adobe Illustrator 27.0.0, SVG Export Plug-In . SVG Version: 6.00 Build 0)  -->
<svg version="1.1" id="Layer_1" xmlns="http://www.w3.org/2000/svg" xmlns:xlink="http://www.w3.org/1999/xlink" x="0px" y="0px"
	 viewBox="0 0 512 512" style="enable-background:new 0 0 512 512;" xml:space="preserve">
<style type="text/css">
	.st0{fill:#F34336;}
	.st1{opacity:0.15;enable-background:new    ;}
	.st2{fill:#455A64;}
	.st3{fill:#E1ECF1;}
	.st4{fill:#D02E2B;}
</style>
<g id="shadows">
	<path class="st0" d="M461.7,314.7c-19.9,18.4-100.4,97.2-158.5,114c-35.1,11.1-49.7,11-54.5,10.4c-0.6-0.1-1.2-0.2-1.9-0.4
		l-0.1-0.1L78.4,266.1l-0.2-0.2c0,0-9.9-77.8,34.4-151.1s91.7-53,99.9-25.2c2.5,8.7,4.1,17.6,4.8,26.7c0,0.5,0.1,1,0.1,1.5
		c0.1,1.4,0.2,2.9,0.3,4.2c0.7-1.2,1.4-2.4,2.2-3.7c0.3-0.5,0.5-0.9,0.8-1.4c4-7.5,7.1-15.4,9.3-23.6c4.8-26.6-11.8-49.5,21.5-78.1
		s114.7,4.5,145.1,31.1c30.3,26.5,96.3,84.2,106,148.3C512.1,258.5,481.6,296.4,461.7,314.7z"/>
	<path class="st1" d="M461.7,314.7c-19.9,18.4-100.4,97.2-158.5,114c-35.1,11.1-49.7,11-54.5,10.4c-0.6-0.1-1.2-0.2-1.9-0.4
		l-0.1-0.1l-6.6-6.8c5.5-1.4,11.8-3.2,19-5.5c58.1-16.8,138.7-95.7,158.5-114c19.9-18.4,50.5-56.2,40.8-120.2
		c-9.7-64-75.6-121.8-106-148.2c-16.7-14.5-48.8-31.2-79.9-38.3c38.9-7.6,98.9,18.8,123.9,40.7c30.3,26.5,96.3,84.2,106,148.3
		S481.6,296.4,461.7,314.7z"/>
	<path class="st2" d="M78.4,266.1l168.3,172.5l-62.4,57.3c-17.9,16.4-45.5,15.6-62.4-1.9L20.2,389.1C3.5,371.8,3.4,344.3,20.1,327
		L78.4,266.1z"/>
	<path class="st1" d="M246.7,438.6l-62.4,57.3c-11.5,10.5-27.6,14.3-42.5,10.1c6.7-1.9,12.9-5.4,18.1-10.1l51.6-47.4
		c5.8-5.3,6.2-14.2,0.9-20c-0.1-0.1-0.2-0.2-0.3-0.3L66.4,278.7l12.1-12.6L246.7,438.6z"/>
	<path class="st3" d="M74.1,326.1L54.3,345c-6.6,6.4-6.9,16.9-0.5,23.5l0.1,0.1l88.2,90.4c6.3,6.4,16.5,6.7,23.1,0.7l20.6-18.7
		c6.8-6.2,7.3-16.7,1.1-23.5c-0.1-0.2-0.3-0.3-0.4-0.5l-89-90.5C91.1,320,80.7,319.8,74.1,326.1z"/>
	<path class="st4" d="M222.6,125.2c-4.5,7.4-9.9,14.2-16,20.3c-28.2,28.2-63.4,33.4-64.8,33.6c-0.3,0-0.5,0.1-0.8,0.1
		c-3.2,0-5.9-2.7-5.8-5.9c0-2.9,2.2-5.3,5-5.8c0.3-0.1,33-5.2,58.5-30.6c5.4-5.4,10.1-11.4,14-17.9c0.9-1.7,2.7-2.7,4.6-2.8
		c0,0.5,0.1,1,0.1,1.5c0.1,1.4,0.2,2.9,0.3,4.2c0.7-1.2,1.4-2.4,2.2-3.7c0.3-0.5,0.5-0.9,0.8-1.4l0.2,0.2
		C223.4,118.9,224.2,122.4,222.6,125.2z"/>
</g>
</svg>
