<svg id="Layer_1" enable-background="new 0 0 512 512" height="512" viewBox="0 0 512 512" width="512" xmlns="http://www.w3.org/2000/svg"><g><path d="m125.385 437.614 80.389-143.876c4.133 3.078 9.226 4.861 14.638 4.861h71.526c5.299 0 10.296-1.703 14.382-4.663l86.101 150.238c-4.104 2.973-7.289 7.215-8.934 12.276l-44.279 41.665c-26.085 8.991-54.075 13.885-83.208 13.885-26.29 0-51.651-3.981-75.52-11.365l-46.417-50.943c-1.61-4.954-4.7-9.115-8.678-12.078z" fill="#e2edf2"/><path d="m474.254 177.093-156.392 74.092c-1.524-4.96-4.605-9.436-9.014-12.639l-57.866-42.042c-4.305-3.128-9.374-4.687-14.442-4.681l20.201-151.065c5.046-.006 10.09-1.566 14.377-4.681l65.669-23.013c50.135 16.718 93.359 48.573 124.287 90.144l13.287 59.114c-1.597 4.919-1.553 10.063-.107 14.771z" fill="#cae2e8"/><path d="m256.741 43.437-.598 128.784c-5.046.007-10.09 78.63-14.377 81.745l-38.764-15.92c-4.252 3.089-7.275 7.361-8.851 12.11l-121.955-49.464c1.61-4.849-33.609-10.196-35.267-15.299l10.279-77.074c31.329-44.353 76.392-78.273 128.984-95.574l66.107 26.01c4.305 3.129 9.374 4.689 14.442 4.682z" fill="#e2edf2"/><path d="m72.196 200.692 102.852 30.362c-1.61 4.849 41.873-10.185 43.531-5.083l23.748 72.094c1.61 4.954-40.531 25.429-36.553 28.392l-75.61 115.856c-4.133-3.078-17.789-11.969-23.2-11.969l-54.98-20.132c-31.9-42.271-50.998-94.764-51.544-151.707l22.099-57.813c4.252-3.089 48.08 4.75 49.657 0z" fill="#fafafa"/><path d="m271.118 60.776c-4.287 3.115-9.331 4.674-14.377 4.681-5.068.007-10.137-1.553-14.442-4.681l-66.107-48.03c25.113-8.261 51.936-12.746 79.808-12.746 28.234 0 55.394 4.597 80.787 13.064z" fill="#0c475b"/><path d="m72.196 200.692c-1.577 4.75-4.6 9.021-8.851 12.11l-62.905 45.703c-.008-.836-.032-1.668-.032-2.505 0-55.004 17.325-105.952 46.799-147.68l25.043 77.074c1.658 5.102 1.556 10.449-.054 15.298z" fill="#0c475b"/><path d="m256.639 65.456-.441-65.456c28.163.021 55.255 4.614 80.589 13.062l-65.669 47.712c-4.287 3.115-9.433 4.676-14.479 4.682z" fill="#062842"/><path d="m383.487 456.452-44.279 41.665c-26.026 8.972-53.948 13.861-83.01 13.883v-213.399h35.74c5.299 0 10.296-1.703 14.382-4.663l86.101 150.238c-4.104 2.973-7.289 7.214-8.934 12.276z" fill="#cae2e8"/><path d="m51.984 410.212h81.304c5.412 0 10.505 1.783 14.638 4.862 3.978 2.963 7.068 7.124 8.678 12.078l23.876 73.484c-51.799-16.025-96.556-48.101-128.496-90.424z" fill="#0c475b"/><path d="m482.777 189.732 28.771 62.006c.023 1.419.043 2.838.043 4.262 0 57.91-19.207 111.32-51.575 154.212l-53.213 29.299c-5.299 0-10.296 1.703-14.382 4.663l-86.101-117.519c4.104-2.973-38.496-35.402-36.852-40.464l22.9-44.104c1.598-4.918 46.542-5.796 45.096-10.504l136.3-54.49c1.524 4.96 4.605 9.436 9.013 12.639z" fill="#a7d2d7"/><path d="m446.081 204.173c-4.408-3.203-7.49-7.679-9.013-12.639-1.446-4.708-1.49-9.852.108-14.77l23.9-73.555c30.939 41.585 49.566 92.896 50.473 148.529z" fill="#062842"/><path d="m339.208 498.114 23.057-70.963c1.645-5.062 4.829-9.303 8.934-12.276 4.086-2.96 9.083-4.663 14.382-4.663h74.435c-30.348 40.215-72.27 71.171-120.808 87.902z" fill="#062842"/><path d="m349.53 245.54-25.417 78.226c-1.891 5.821-5.553 10.698-10.273 14.117-4.699 3.404-10.445 5.363-16.538 5.363h-82.252c-6.223 0-12.08-2.051-16.833-5.59-4.575-3.407-8.128-8.192-9.979-13.889l-25.417-78.226c-1.907-5.868-1.789-12.016.062-17.592 1.813-5.462 5.289-10.374 10.179-13.926l66.543-48.346c4.93-3.582 10.731-5.375 16.533-5.383 5.828-.008 11.657 1.786 16.608 5.383l66.543 48.346c5.069 3.683 8.613 8.83 10.365 14.534 1.663 5.413 1.713 11.327-.124 16.983z" fill="#0c475b"/><path d="m324.113 323.766c-1.891 5.821-5.553 10.698-10.273 14.117-4.699 3.404-10.445 5.363-16.538 5.363h-41.099v-182.951c5.806.005 11.611 1.796 16.544 5.38l66.543 48.346c5.069 3.683 8.613 8.83 10.365 14.534 1.663 5.414 1.714 11.328-.124 16.984z" fill="#062842"/></g></svg>