<?xml version="1.0" encoding="iso-8859-1"?>
<!-- Generator: Adobe Illustrator 19.0.0, SVG Export Plug-In . SVG Version: 6.00 Build 0)  -->
<svg version="1.1" id="Layer_1" xmlns="http://www.w3.org/2000/svg" xmlns:xlink="http://www.w3.org/1999/xlink" x="0px" y="0px"
	 viewBox="0 0 512.001 512.001" style="enable-background:new 0 0 512.001 512.001;" xml:space="preserve">
<path style="fill:#D98156;" d="M509.387,206.013c-8.399,72.6-35.886,150.787-94.386,208.987
	c-58.2,58.5-136.385,85.985-208.986,94.386l-101.699-101.7l-101.7-101.7C11.014,233.385,38.501,155.2,97.001,97
	c58.2-58.5,136.385-85.987,208.986-94.386L509.387,206.013z"/>
<path style="fill:#BF724C;" d="M509.387,206.013c-8.399,72.6-35.886,150.787-94.386,208.987
	c-58.2,58.5-136.385,85.985-208.986,94.386l-101.699-101.7l303.37-303.372L509.387,206.013z"/>
<rect x="107.878" y="240.94" transform="matrix(-0.7071 0.7071 -0.7071 -0.7071 618.0319 256.0026)" style="fill:#FFEACC;" width="296.237" height="30.12"/>
<rect x="113.271" y="253.971" transform="matrix(-0.7071 0.7071 -0.7071 -0.7071 631.0553 261.4017)" style="fill:#FFDBB2;" width="296.237" height="14.851"/>
<path style="fill:#A66342;" d="M511.787,173.315c-0.3,10.8-1.199,21.599-2.401,32.699c-14.399,3.9-29.099,6.301-44.7,6.301
	c-45.601,0-86.7-18.6-116.7-48.3c-29.7-30-48.3-71.102-48.3-116.7c0-15.601,2.401-30.3,6.301-44.7
	c11.1-1.201,21.899-2.1,32.699-2.401c62.701-2.1,115.8,11.4,138.6,34.499C500.387,57.513,513.887,110.614,511.787,173.315z"/>
<path style="fill:#995B3D;" d="M511.787,173.315c-0.3,10.8-1.199,21.599-2.401,32.699c-14.399,3.9-29.099,6.301-44.7,6.301
	c-45.601,0-86.7-18.6-116.7-48.3l129.3-129.302C500.387,57.513,513.887,110.614,511.787,173.315z"/>
<path style="fill:#A66342;" d="M212.315,464.686c0,15.599-2.401,30.3-6.301,44.7c-11.1,1.199-21.899,2.1-32.699,2.401
	c-62.701,2.1-115.8-11.4-138.6-34.501c-23.101-22.8-36.601-75.899-34.501-138.6c0.3-10.8,1.199-21.601,2.401-32.701
	c14.399-3.9,29.099-6.299,44.7-6.299c45.601,0,86.7,18.6,116.7,48.3C193.715,377.985,212.315,419.085,212.315,464.686z"/>
<path style="fill:#995B3D;" d="M212.315,464.686c0,15.599-2.401,30.3-6.301,44.7c-11.1,1.199-21.899,2.1-32.699,2.401
	c-62.701,2.1-115.8-11.4-138.6-34.501l129.3-129.3C193.715,377.985,212.315,419.085,212.315,464.686z"/>
<path style="fill:#FFEACC;" d="M330.1,245.499c-5.698,5.7-15.298,5.7-20.999,0l-21.3-21.299L266.5,202.899c-5.7-5.7-5.7-15.3,0-21
	c6-6,15.601-6,21.301,0l21.301,21.301l20.999,21C336.1,229.9,336.1,239.5,330.1,245.499z"/>
<path style="fill:#FFDBB2;" d="M330.1,245.499c-5.698,5.7-15.298,5.7-20.999,0l-21.3-21.299l21.301-21l20.999,21
	C336.1,229.9,336.1,239.5,330.1,245.499z"/>
<path style="fill:#FFEACC;" d="M287.801,287.8c-5.7,6-15.3,6-21.301,0l-20.999-21l-21.3-21.301c-6-5.999-6-15.599,0-21.299
	c5.7-6,15.3-6,21.301,0l42.299,42.299C293.801,272.5,293.801,282.1,287.801,287.8z"/>
<path style="fill:#FFDBB2;" d="M287.801,287.8c-5.7,6-15.3,6-21.301,0l-20.999-21l21.299-21.301l21,21
	C293.801,272.5,293.801,282.1,287.801,287.8z"/>
<path style="fill:#FFEACC;" d="M245.502,330.099c-6,6-15.601,6-21.301,0L181.902,287.8c-6-5.7-6-15.3,0-21.301
	c5.698-5.7,15.298-5.7,20.999,0l21.3,21.301l21.301,21.299C251.202,314.799,251.202,324.399,245.502,330.099z"/>
<path style="fill:#FFDBB2;" d="M245.502,330.099c-6,6-15.601,6-21.301,0l-21-21l21-21.299l21.301,21.299
	C251.202,314.799,251.202,324.399,245.502,330.099z"/>
<g>
</g>
<g>
</g>
<g>
</g>
<g>
</g>
<g>
</g>
<g>
</g>
<g>
</g>
<g>
</g>
<g>
</g>
<g>
</g>
<g>
</g>
<g>
</g>
<g>
</g>
<g>
</g>
<g>
</g>
</svg>
