<?xml version="1.0" encoding="utf-8"?>
<!-- Generator: Adobe Illustrator 27.0.0, SVG Export Plug-In . SVG Version: 6.00 Build 0)  -->
<svg version="1.1" id="Layer_1" xmlns="http://www.w3.org/2000/svg" xmlns:xlink="http://www.w3.org/1999/xlink" x="0px" y="0px"
	 viewBox="0 0 60.984592 49.209026" style="enable-background:new 0 0 60.984592 49.209026;" xml:space="preserve">
<style type="text/css">
	.st0{fill:#F34336;}
	.st1{opacity:0.15;enable-background:new    ;}
	.st2{fill:#454546;}
	.st3{fill:#696A6D;}
	.st4{fill:#E1ECF1;}
</style>
<g id="color">
	<path class="st0" d="M0.305985,29.115221c1.465974,8.991304,8.991305,18.428267,8.991305,18.428267
		s24.384029,3.821301,50.45295-0.112396c0,0,2.449154-6.352551,0.384087-15.993774
		c-2.015228,0.68412-7.302509,2.388561-12.519421,3.184097c-5.02145,0.71246-9.155495,0.902061-12.593689,0.755463
		c-8.487011-0.365517-12.731497-2.783394-15.610664-4.4634c-4.047062-2.360214-6.969239-7.189129-5.170976-10.225649
		c1.778716-3.002314,2.788281-4.023607,12.933797-3.936628h0.325445c9.034307,0.097733,19.412424-4.845531,22.058996-6.186408
		c-0.302971-0.371378-0.614079-0.744063-0.933334-1.118049C38.174038-1.783594,23.903275-1.560766,14.801534,2.712059
		S-1.604667,16.530329,0.305985,29.115221z"/>
	<path class="st1" d="M0.305985,29.115221c1.465974,8.991304,8.991305,18.428267,8.991305,18.428267
		s24.384029,3.821301,50.45295-0.112396c0,0,0.580524-1.503109,0.937248-4.159454
		c-17.537933,2.451115-34.104416,1.47673-42.731178,0.630375c-4.126008-0.402199-7.818506-2.732658-9.956895-6.284138
		c-2.111979-3.518337-4.470243-8.260275-5.221797-12.884932c-0.758398-4.99995-0.06255-9.521015,1.620388-13.420505
		C1.033109,16.04851-0.757335,22.111778,0.305985,29.115221z"/>
	<path class="st2" d="M27.169464,16.7512l7.845894,18.625685c3.438198,0.146595,7.572243-0.043003,12.593689-0.755463
		c5.216915-0.79554,10.504189-2.497044,12.519413-3.184099c0.546322-0.186665,0.852219-0.299057,0.852219-0.299057
		S57.726219,19.001959,50.19698,10.237391c0,0-0.224781,0.121186-0.639164,0.331311
		c-2.646572,1.340878-13.024689,6.283164-22.058996,6.186408L27.169464,16.7512z"/>
	<path class="st3" d="M19.4086,30.913483c2.879171,1.680008,7.123653,4.097885,15.610664,4.463402l-7.8498-18.625685
		c-10.145515-0.086983-11.155085,0.934315-12.933797,3.936628C12.441314,23.724348,15.363491,28.553263,19.4086,30.913483z"/>
	<path class="st1" d="M19.4086,30.913483c2.879171,1.680008,7.123653,4.097885,15.610664,4.463402
		c3.438198,0.146595,7.572243-0.043003,12.593693-0.755463c5.216911-0.79554,10.504189-2.497044,12.519417-3.184099
		c0.546322-0.186665,0.852219-0.299057,0.852219-0.299057s-0.231625-0.862972-0.71442-2.293758
		c-2.455017,0.801401-7.020061,2.167686-11.532326,2.855715c-5.022427,0.71246-9.156471,0.902061-12.593689,0.754486
		c-8.486034-0.36454-12.733448-2.783396-15.611645-4.463402c-3.243711-1.891104-5.766164-5.370352-5.70948-8.240726
		c-0.195463,0.287331-0.383109,0.600073-0.58639,0.937244C12.441314,23.724348,15.363491,28.553263,19.4086,30.913483z"/>
	<circle class="st4" cx="20.138655" cy="23.890493" r="2.528316"/>
</g>
</svg>
