<svg width="32" height="33" viewBox="0 0 32 33" fill="none" xmlns="http://www.w3.org/2000/svg">
<rect y="0.5" width="32" height="32" rx="16" fill="#394349"/>
<path d="M20.243 20.7426C20.5034 20.4822 20.5034 20.0601 20.243 19.7997L16.9437 16.5004L20.244 13.2001C20.5043 12.9397 20.5043 12.5176 20.244 12.2573C19.9836 11.9969 19.5615 11.9969 19.3011 12.2573L16.0009 15.5576L12.7006 12.2573C12.4402 11.9969 12.0181 11.9969 11.7578 12.2573C11.4974 12.5176 11.4974 12.9397 11.7578 13.2001L15.058 16.5004L11.7587 19.7997C11.4983 20.0601 11.4983 20.4822 11.7587 20.7426C12.019 21.0029 12.4411 21.0029 12.7015 20.7426L16.0009 17.4432L19.3002 20.7426C19.5606 21.0029 19.9827 21.0029 20.243 20.7426Z" fill="#FF0000"/>
</svg>
