<svg width="398" height="406" viewBox="0 0 398 406" fill="none" xmlns="http://www.w3.org/2000/svg">
<circle cx="199.343" cy="207.385" r="198.382" fill="#0F415E"/>
<path d="M173.12 274.085C164.742 287.699 148.147 308.161 120.435 314.686L126.799 293.741C126.799 293.741 102.228 310.094 78.625 314.686C83.217 291.002 99.5706 266.512 99.5706 266.512L78.625 272.876C85.1498 245.165 105.612 228.57 119.226 220.191L177.236 208.01L173.12 274.085Z" fill="#F2C94C"/>
<path d="M264.776 329.792C234.508 360.06 186.045 361.019 154.629 332.681C167.031 331.367 180.4 321.503 182.27 304.145C183.049 296.935 181.836 288.427 177.745 278.701L114.615 215.57C104.888 211.479 96.3805 210.267 89.1708 211.046C71.8128 212.916 61.9488 226.284 60.6347 238.685C32.2973 207.271 33.2547 158.809 63.5236 128.539C81.4223 110.64 105.698 102.994 129.044 105.602C139.748 106.799 150.253 110.142 159.862 115.654L277.66 233.452C283.173 243.061 286.521 253.571 287.712 264.271C290.322 287.616 282.674 311.893 264.776 329.792Z" fill="#EB5757"/>
<path d="M287.73 264.271C256.376 285.212 220.518 298.417 182.286 304.144C183.066 296.934 181.853 288.426 177.762 278.7L114.631 215.569C104.905 211.478 96.3972 210.265 89.1875 211.045C94.9142 172.813 108.12 136.955 129.06 105.602C139.764 106.799 150.269 110.141 159.878 115.653L277.677 233.451C283.19 243.062 286.538 253.571 287.73 264.271Z" fill="#C40606"/>
<path d="M177.747 278.702C226.885 267.417 273.552 242.642 311.832 204.362C368.054 148.14 395.155 73.8309 393.154 0.165699C319.489 -1.83539 245.179 25.2652 188.958 81.4869C150.677 119.768 125.903 166.434 114.617 215.572L177.747 278.702Z" fill="#E3E8EC"/>
<path d="M220.886 113.419C182.608 151.697 152.141 192.68 131.023 231.977L114.617 215.571C125.897 166.437 150.678 119.768 188.956 81.4899C245.177 25.2675 319.487 -1.83175 393.153 0.170724C339.147 17.8295 277.108 57.1981 220.886 113.419Z" fill="#D5D8DB"/>
<path d="M376.722 102.387C360.261 92.4983 343.937 79.8116 328.723 64.5989C321.377 57.2526 314.625 49.6552 308.491 41.9116C301.914 33.6016 296.039 25.1192 290.914 16.6003C323.69 4.75444 358.249 -0.722524 392.67 0.154205C392.832 0.164551 392.996 0.164551 393.154 0.16938L393.149 0.174209C394.086 34.7481 388.619 69.4592 376.722 102.387Z" fill="#EB5757"/>
<path d="M382.357 237.332C382.352 237.326 382.357 237.319 382.352 237.313L382.357 237.332Z" fill="#EB5757"/>
<path d="M393.153 0.169868L393.148 0.174697C366.344 8.93301 337.558 23.0455 308.491 41.9121C301.914 33.6021 296.039 25.1197 290.914 16.6008C323.689 4.75493 358.248 -0.722035 392.669 0.154693C392.832 0.16504 392.995 0.16504 393.153 0.169868Z" fill="#C40606"/>
<path d="M269.68 175.554C298.351 175.554 321.593 152.311 321.593 123.64C321.593 94.9687 298.351 71.7261 269.68 71.7261C241.008 71.7261 217.766 94.9687 217.766 123.64C217.766 152.311 241.008 175.554 269.68 175.554Z" fill="#EB5757"/>
<path d="M269.67 158.598C288.978 158.598 304.63 142.946 304.63 123.639C304.63 104.331 288.978 88.6792 269.67 88.6792C250.363 88.6792 234.711 104.331 234.711 123.639C234.711 142.946 250.363 158.598 269.67 158.598Z" fill="#A0D9F2"/>
</svg>
