<svg width="271" height="458" viewBox="0 0 271 458" fill="none" xmlns="http://www.w3.org/2000/svg">
<g clip-path="url(#clip0_6153_49591)">
<path d="M268.023 447.566L268.023 10.9541C268.023 7.08811 264.889 3.9541 261.023 3.9541L11.9352 3.95409C8.06915 3.95409 4.93515 7.08808 4.93515 10.9541L4.93513 447.566C4.93513 451.432 8.06913 454.566 11.9351 454.566L261.023 454.566C264.889 454.566 268.023 451.432 268.023 447.566Z" fill="#1BB24B" stroke="#192F20" stroke-width="6"/>
<path d="M257.086 444.612L257.086 13.3887L14.4659 13.3887L14.4658 444.612L257.086 444.612Z" stroke="white" stroke-width="3" stroke-linecap="round" stroke-linejoin="round"/>
<path d="M14.4658 49.0913L257.086 49.0913" stroke="white" stroke-width="3" stroke-linecap="round" stroke-linejoin="round"/>
<path d="M257.086 85.3521L221.588 85.352L14.4658 85.352" stroke="white" stroke-width="3" stroke-linecap="round" stroke-linejoin="round"/>
<path d="M257.086 121.613L221.588 121.613L14.4658 121.613" stroke="white" stroke-width="3" stroke-linecap="round" stroke-linejoin="round"/>
<path d="M257.086 157.315L221.588 157.315L14.4658 157.315" stroke="white" stroke-width="3" stroke-linecap="round" stroke-linejoin="round"/>
<path d="M257.086 193.018L221.588 193.018L14.4658 193.018" stroke="white" stroke-width="3" stroke-linecap="round" stroke-linejoin="round"/>
<path d="M257.086 228.721L221.588 228.721L14.4658 228.721" stroke="white" stroke-width="3" stroke-linecap="round" stroke-linejoin="round"/>
<path d="M257.086 264.424L221.588 264.424L14.4658 264.424" stroke="white" stroke-width="3" stroke-linecap="round" stroke-linejoin="round"/>
<path d="M257.086 300.126L221.588 300.126L14.4658 300.126" stroke="white" stroke-width="3" stroke-linecap="round" stroke-linejoin="round"/>
<path d="M257.086 336.387L221.588 336.387L14.4658 336.387" stroke="white" stroke-width="3" stroke-linecap="round" stroke-linejoin="round"/>
<path d="M257.086 372.09L221.588 372.09L14.4658 372.09" stroke="white" stroke-width="3" stroke-linecap="round" stroke-linejoin="round"/>
<path d="M16.0763 406.677L255.914 406.677" stroke="white" stroke-width="3" stroke-linecap="round" stroke-linejoin="round"/>
<path d="M221.477 74.1948L221.477 95.3934" stroke="white" stroke-width="3" stroke-linecap="round" stroke-linejoin="round"/>
<path d="M185.859 74.1948L185.859 95.3934" stroke="white" stroke-width="3" stroke-linecap="round" stroke-linejoin="round"/>
<path d="M221.477 111.014L221.477 132.212" stroke="white" stroke-width="3" stroke-linecap="round" stroke-linejoin="round"/>
<path d="M185.859 111.014L185.859 132.212" stroke="white" stroke-width="3" stroke-linecap="round" stroke-linejoin="round"/>
<path d="M221.477 146.716L221.477 167.357" stroke="white" stroke-width="3" stroke-linecap="round" stroke-linejoin="round"/>
<path d="M185.859 146.716L185.859 167.357" stroke="white" stroke-width="3" stroke-linecap="round" stroke-linejoin="round"/>
<path d="M221.477 181.861L221.477 203.06" stroke="white" stroke-width="3" stroke-linecap="round" stroke-linejoin="round"/>
<path d="M185.859 181.861L185.859 203.06" stroke="white" stroke-width="3" stroke-linecap="round" stroke-linejoin="round"/>
<path d="M221.477 219.237L221.477 239.32" stroke="white" stroke-width="3" stroke-linecap="round" stroke-linejoin="round"/>
<path d="M185.859 219.237L185.859 239.32" stroke="white" stroke-width="3" stroke-linecap="round" stroke-linejoin="round"/>
<path d="M221.477 254.94L221.477 275.023" stroke="white" stroke-width="3" stroke-linecap="round" stroke-linejoin="round"/>
<path d="M185.859 254.94L185.859 275.023" stroke="white" stroke-width="3" stroke-linecap="round" stroke-linejoin="round"/>
<path d="M221.477 290.085L221.477 310.168" stroke="white" stroke-width="3" stroke-linecap="round" stroke-linejoin="round"/>
<path d="M185.859 290.085L185.859 310.168" stroke="white" stroke-width="3" stroke-linecap="round" stroke-linejoin="round"/>
<path d="M221.477 326.346L221.477 347.544" stroke="white" stroke-width="3" stroke-linecap="round" stroke-linejoin="round"/>
<path d="M185.859 326.346L185.859 347.544" stroke="white" stroke-width="3" stroke-linecap="round" stroke-linejoin="round"/>
<path d="M221.477 362.048L221.477 382.689" stroke="white" stroke-width="3" stroke-linecap="round" stroke-linejoin="round"/>
<path d="M185.859 362.048L185.859 382.689" stroke="white" stroke-width="3" stroke-linecap="round" stroke-linejoin="round"/>
<path d="M194.891 82.0127L194.891 80.958L201.611 80.958C201.369 80.7041 201.127 80.3701 200.885 79.9561C200.643 79.5459 200.461 79.1768 200.34 78.8486L201.359 78.8486C201.637 79.4385 201.973 79.9541 202.367 80.3955C202.762 80.8369 203.145 81.1494 203.516 81.333L203.516 82.0127L194.891 82.0127ZM199.127 84.7197C200.143 84.7197 200.959 84.8232 201.576 85.0303C202.197 85.2412 202.676 85.5518 203.012 85.9619C203.348 86.376 203.516 86.8955 203.516 87.5205C203.516 87.9814 203.422 88.3857 203.234 88.7334C203.051 89.0811 202.783 89.3682 202.432 89.5947C202.084 89.8213 201.658 89.999 201.154 90.1279C200.654 90.2568 199.979 90.3213 199.127 90.3213C198.119 90.3213 197.305 90.2178 196.684 90.0107C196.066 89.8037 195.588 89.4932 195.248 89.0791C194.912 88.6689 194.744 88.1494 194.744 87.5205C194.744 86.6924 195.041 86.042 195.635 85.5693C196.35 85.0029 197.514 84.7197 199.127 84.7197ZM199.127 85.8037C197.717 85.8037 196.777 85.9678 196.309 86.2959C195.844 86.6279 195.611 87.0361 195.611 87.5205C195.611 88.0049 195.846 88.4111 196.314 88.7393C196.783 89.0713 197.721 89.2373 199.127 89.2373C200.541 89.2373 201.48 89.0713 201.945 88.7393C202.41 88.4111 202.643 88.001 202.643 87.5088C202.643 87.0244 202.437 86.6377 202.027 86.3486C201.504 85.9854 200.537 85.8037 199.127 85.8037Z" fill="white"/>
<path d="M203.387 74.7524L200.882 78.6574L205.891 78.6574L203.387 74.7524Z" fill="white"/>
<path d="M195.904 119.286L194.891 119.286L194.891 113.608C195.145 113.601 195.389 113.642 195.623 113.731C196.01 113.876 196.391 114.106 196.766 114.423C197.141 114.743 197.574 115.204 198.066 115.806C198.832 116.739 199.437 117.37 199.883 117.698C200.332 118.026 200.756 118.19 201.154 118.19C201.572 118.19 201.924 118.04 202.209 117.739C202.498 117.442 202.643 117.054 202.643 116.573C202.643 116.065 202.49 115.659 202.186 115.354C201.881 115.05 201.459 114.896 200.92 114.892L201.031 113.808C201.84 113.882 202.455 114.161 202.877 114.646C203.303 115.13 203.516 115.78 203.516 116.597C203.516 117.421 203.287 118.073 202.83 118.554C202.373 119.034 201.807 119.274 201.131 119.274C200.787 119.274 200.449 119.204 200.117 119.063C199.785 118.923 199.436 118.688 199.068 118.36C198.701 118.036 198.197 117.495 197.557 116.737C197.025 116.104 196.664 115.698 196.473 115.519C196.285 115.339 196.096 115.19 195.904 115.073L195.904 119.286ZM199.127 120.423C200.143 120.423 200.959 120.526 201.576 120.733C202.197 120.944 202.676 121.255 203.012 121.665C203.348 122.079 203.516 122.599 203.516 123.224C203.516 123.685 203.422 124.089 203.234 124.437C203.051 124.784 202.783 125.071 202.432 125.298C202.084 125.524 201.658 125.702 201.154 125.831C200.654 125.96 199.979 126.024 199.127 126.024C198.119 126.024 197.305 125.921 196.684 125.714C196.066 125.507 195.588 125.196 195.248 124.782C194.912 124.372 194.744 123.853 194.744 123.224C194.744 122.396 195.041 121.745 195.635 121.272C196.35 120.706 197.514 120.423 199.127 120.423ZM199.127 121.507C197.717 121.507 196.777 121.671 196.309 121.999C195.844 122.331 195.611 122.739 195.611 123.224C195.611 123.708 195.846 124.114 196.314 124.442C196.783 124.774 197.721 124.94 199.127 124.94C200.541 124.94 201.48 124.774 201.945 124.442C202.41 124.114 202.643 123.704 202.643 123.212C202.643 122.728 202.437 122.341 202.027 122.052C201.504 121.688 200.537 121.507 199.127 121.507Z" fill="white"/>
<path d="M203.387 111.014L200.882 114.919L205.891 114.919L203.387 111.014Z" fill="white"/>
<path d="M197.158 148.894L197.299 149.948C196.701 150.069 196.27 150.274 196.004 150.563C195.742 150.856 195.611 151.212 195.611 151.63C195.611 152.126 195.783 152.544 196.127 152.884C196.471 153.228 196.896 153.399 197.404 153.399C197.889 153.399 198.287 153.241 198.6 152.925C198.916 152.608 199.074 152.206 199.074 151.718C199.074 151.519 199.035 151.271 198.957 150.974L199.883 151.091C199.875 151.161 199.871 151.218 199.871 151.261C199.871 151.71 199.988 152.114 200.223 152.474C200.457 152.833 200.818 153.013 201.307 153.013C201.693 153.013 202.014 152.882 202.268 152.62C202.521 152.358 202.648 152.021 202.648 151.606C202.648 151.196 202.52 150.854 202.262 150.581C202.004 150.308 201.617 150.132 201.102 150.054L201.289 148.999C201.996 149.128 202.543 149.421 202.93 149.878C203.32 150.335 203.516 150.903 203.516 151.583C203.516 152.052 203.414 152.483 203.211 152.878C203.012 153.272 202.738 153.573 202.391 153.78C202.043 153.991 201.674 154.097 201.283 154.097C200.912 154.097 200.574 153.997 200.27 153.798C199.965 153.599 199.723 153.304 199.543 152.913C199.426 153.421 199.182 153.815 198.811 154.097C198.443 154.378 197.982 154.519 197.428 154.519C196.678 154.519 196.041 154.245 195.518 153.698C194.998 153.151 194.738 152.46 194.738 151.624C194.738 150.87 194.963 150.243 195.412 149.743C195.861 149.247 196.443 148.964 197.158 148.894ZM199.127 155.567C200.143 155.567 200.959 155.671 201.576 155.878C202.197 156.089 202.676 156.399 203.012 156.81C203.348 157.224 203.516 157.743 203.516 158.368C203.516 158.829 203.422 159.233 203.234 159.581C203.051 159.929 202.783 160.216 202.432 160.442C202.084 160.669 201.658 160.847 201.154 160.976C200.654 161.104 199.979 161.169 199.127 161.169C198.119 161.169 197.305 161.065 196.684 160.858C196.066 160.651 195.588 160.341 195.248 159.927C194.912 159.517 194.744 158.997 194.744 158.368C194.744 157.54 195.041 156.89 195.635 156.417C196.35 155.851 197.514 155.567 199.127 155.567ZM199.127 156.651C197.717 156.651 196.777 156.815 196.309 157.144C195.844 157.476 195.611 157.884 195.611 158.368C195.611 158.853 195.846 159.259 196.314 159.587C196.783 159.919 197.721 160.085 199.127 160.085C200.541 160.085 201.48 159.919 201.945 159.587C202.41 159.259 202.643 158.849 202.643 158.356C202.643 157.872 202.437 157.485 202.027 157.196C201.504 156.833 200.537 156.651 199.127 156.651Z" fill="white"/>
<path d="M203.387 145.043L200.882 149.506L205.891 149.506L203.387 145.043Z" fill="white"/>
<path d="M194.891 189.087L196.947 189.087L196.947 185.361L197.914 185.361L203.48 189.281L203.48 190.142L197.914 190.142L197.914 191.302L196.947 191.302L196.947 190.142L194.891 190.142L194.891 189.087ZM197.914 189.087L201.787 189.087L197.914 186.398L197.914 189.087ZM199.127 192.386C200.143 192.386 200.959 192.49 201.576 192.697C202.197 192.908 202.676 193.218 203.012 193.628C203.348 194.042 203.516 194.562 203.516 195.187C203.516 195.648 203.422 196.052 203.234 196.4C203.051 196.748 202.783 197.035 202.432 197.261C202.084 197.488 201.658 197.666 201.154 197.794C200.654 197.923 199.979 197.988 199.127 197.988C198.119 197.988 197.305 197.884 196.684 197.677C196.066 197.47 195.588 197.16 195.248 196.746C194.912 196.335 194.744 195.816 194.744 195.187C194.744 194.359 195.041 193.708 195.635 193.236C196.35 192.669 197.514 192.386 199.127 192.386ZM199.127 193.47C197.717 193.47 196.777 193.634 196.309 193.962C195.844 194.294 195.611 194.703 195.611 195.187C195.611 195.671 195.846 196.078 196.314 196.406C196.783 196.738 197.721 196.904 199.127 196.904C200.541 196.904 201.48 196.738 201.945 196.406C202.41 196.078 202.643 195.667 202.643 195.175C202.643 194.691 202.437 194.304 202.027 194.015C201.504 193.652 200.537 193.47 199.127 193.47Z" fill="white"/>
<path d="M203.387 179.63L200.882 183.535L205.891 183.535L203.387 179.63Z" fill="white"/>
<path d="M197.141 221.409L197.234 222.517C196.695 222.599 196.289 222.788 196.016 223.085C195.746 223.386 195.611 223.747 195.611 224.169C195.611 224.677 195.803 225.106 196.186 225.458C196.568 225.81 197.076 225.985 197.709 225.985C198.311 225.985 198.785 225.815 199.133 225.476C199.48 225.14 199.654 224.698 199.654 224.151C199.654 223.812 199.576 223.505 199.42 223.231C199.268 222.958 199.068 222.743 198.822 222.587L198.951 221.597L203.363 222.429L203.363 226.7L202.355 226.7L202.355 223.272L200.047 222.81C200.406 223.325 200.586 223.866 200.586 224.433C200.586 225.183 200.326 225.815 199.807 226.331C199.287 226.847 198.619 227.104 197.803 227.104C197.025 227.104 196.354 226.878 195.787 226.425C195.092 225.874 194.744 225.122 194.744 224.169C194.744 223.388 194.963 222.749 195.4 222.253C195.838 221.761 196.418 221.479 197.141 221.409ZM199.127 228.089C200.143 228.089 200.959 228.192 201.576 228.399C202.197 228.61 202.676 228.921 203.012 229.331C203.348 229.745 203.516 230.265 203.516 230.89C203.516 231.351 203.422 231.755 203.234 232.103C203.051 232.45 202.783 232.737 202.432 232.964C202.084 233.19 201.658 233.368 201.154 233.497C200.654 233.626 199.979 233.69 199.127 233.69C198.119 233.69 197.305 233.587 196.684 233.38C196.066 233.173 195.588 232.862 195.248 232.448C194.912 232.038 194.744 231.519 194.744 230.89C194.744 230.062 195.041 229.411 195.635 228.938C196.35 228.372 197.514 228.089 199.127 228.089ZM199.127 229.173C197.717 229.173 196.777 229.337 196.309 229.665C195.844 229.997 195.611 230.405 195.611 230.89C195.611 231.374 195.846 231.78 196.314 232.108C196.783 232.44 197.721 232.606 199.127 232.606C200.541 232.606 201.48 232.44 201.945 232.108C202.41 231.78 202.643 231.37 202.643 230.878C202.643 230.394 202.437 230.007 202.027 229.718C201.504 229.354 200.537 229.173 199.127 229.173Z" fill="white"/>
<path d="M194.891 260.493L196.947 260.493L196.947 256.766L197.914 256.766L203.48 260.686L203.48 261.547L197.914 261.547L197.914 262.708L196.947 262.708L196.947 261.547L194.891 261.547L194.891 260.493ZM197.914 260.493L201.787 260.493L197.914 257.803L197.914 260.493ZM199.127 263.792C200.143 263.792 200.959 263.895 201.576 264.102C202.197 264.313 202.676 264.624 203.012 265.034C203.348 265.448 203.516 265.967 203.516 266.592C203.516 267.053 203.422 267.458 203.234 267.805C203.051 268.153 202.783 268.44 202.432 268.667C202.084 268.893 201.658 269.071 201.154 269.2C200.654 269.329 199.979 269.393 199.127 269.393C198.119 269.393 197.305 269.29 196.684 269.083C196.066 268.875 195.588 268.565 195.248 268.151C194.912 267.741 194.744 267.221 194.744 266.592C194.744 265.764 195.041 265.114 195.635 264.641C196.35 264.075 197.514 263.792 199.127 263.792ZM199.127 264.875C197.717 264.875 196.777 265.04 196.309 265.368C195.844 265.7 195.611 266.108 195.611 266.592C195.611 267.077 195.846 267.483 196.314 267.811C196.783 268.143 197.721 268.309 199.127 268.309C200.541 268.309 201.48 268.143 201.945 267.811C202.41 267.483 202.643 267.073 202.643 266.581C202.643 266.096 202.437 265.709 202.027 265.42C201.504 265.057 200.537 264.875 199.127 264.875Z" fill="white"/>
<path d="M203.387 278.928L205.891 275.023L200.882 275.023L203.387 278.928Z" fill="white"/>
<path d="M197.158 292.82L197.299 293.875C196.701 293.996 196.27 294.201 196.004 294.49C195.742 294.783 195.611 295.139 195.611 295.557C195.611 296.053 195.783 296.471 196.127 296.811C196.471 297.154 196.896 297.326 197.404 297.326C197.889 297.326 198.287 297.168 198.6 296.852C198.916 296.535 199.074 296.133 199.074 295.645C199.074 295.445 199.035 295.197 198.957 294.9L199.883 295.018C199.875 295.088 199.871 295.145 199.871 295.187C199.871 295.637 199.988 296.041 200.223 296.4C200.457 296.76 200.818 296.939 201.307 296.939C201.693 296.939 202.014 296.809 202.268 296.547C202.521 296.285 202.648 295.947 202.648 295.533C202.648 295.123 202.52 294.781 202.262 294.508C202.004 294.234 201.617 294.059 201.102 293.98L201.289 292.926C201.996 293.055 202.543 293.348 202.93 293.805C203.32 294.262 203.516 294.83 203.516 295.51C203.516 295.979 203.414 296.41 203.211 296.805C203.012 297.199 202.738 297.5 202.391 297.707C202.043 297.918 201.674 298.023 201.283 298.023C200.912 298.023 200.574 297.924 200.27 297.725C199.965 297.525 199.723 297.23 199.543 296.84C199.426 297.348 199.182 297.742 198.811 298.023C198.443 298.305 197.982 298.445 197.428 298.445C196.678 298.445 196.041 298.172 195.518 297.625C194.998 297.078 194.738 296.387 194.738 295.551C194.738 294.797 194.963 294.17 195.412 293.67C195.861 293.174 196.443 292.891 197.158 292.82ZM199.127 299.494C200.143 299.494 200.959 299.598 201.576 299.805C202.197 300.016 202.676 300.326 203.012 300.736C203.348 301.15 203.516 301.67 203.516 302.295C203.516 302.756 203.422 303.16 203.234 303.508C203.051 303.855 202.783 304.143 202.432 304.369C202.084 304.596 201.658 304.773 201.154 304.902C200.654 305.031 199.979 305.096 199.127 305.096C198.119 305.096 197.305 304.992 196.684 304.785C196.066 304.578 195.588 304.268 195.248 303.854C194.912 303.443 194.744 302.924 194.744 302.295C194.744 301.467 195.041 300.816 195.635 300.344C196.35 299.777 197.514 299.494 199.127 299.494ZM199.127 300.578C197.717 300.578 196.777 300.742 196.309 301.07C195.844 301.402 195.611 301.811 195.611 302.295C195.611 302.779 195.846 303.186 196.314 303.514C196.783 303.846 197.721 304.012 199.127 304.012C200.541 304.012 201.48 303.846 201.945 303.514C202.41 303.186 202.643 302.775 202.643 302.283C202.643 301.799 202.437 301.412 202.027 301.123C201.504 300.76 200.537 300.578 199.127 300.578Z" fill="white"/>
<path d="M203.387 315.747L205.891 311.284L200.882 311.284L203.387 315.747Z" fill="white"/>
<path d="M195.904 335.176L194.891 335.176L194.891 329.498C195.145 329.49 195.389 329.531 195.623 329.621C196.01 329.766 196.391 329.996 196.766 330.312C197.141 330.633 197.574 331.094 198.066 331.695C198.832 332.629 199.437 333.26 199.883 333.588C200.332 333.916 200.756 334.08 201.154 334.08C201.572 334.08 201.924 333.93 202.209 333.629C202.498 333.332 202.643 332.943 202.643 332.463C202.643 331.955 202.49 331.549 202.186 331.244C201.881 330.939 201.459 330.785 200.92 330.781L201.031 329.697C201.84 329.771 202.455 330.051 202.877 330.535C203.303 331.02 203.516 331.67 203.516 332.486C203.516 333.311 203.287 333.963 202.83 334.443C202.373 334.924 201.807 335.164 201.131 335.164C200.787 335.164 200.449 335.094 200.117 334.953C199.785 334.812 199.436 334.578 199.068 334.25C198.701 333.926 198.197 333.385 197.557 332.627C197.025 331.994 196.664 331.588 196.473 331.408C196.285 331.229 196.096 331.08 195.904 330.963L195.904 335.176ZM199.127 336.312C200.143 336.312 200.959 336.416 201.576 336.623C202.197 336.834 202.676 337.145 203.012 337.555C203.348 337.969 203.516 338.488 203.516 339.113C203.516 339.574 203.422 339.979 203.234 340.326C203.051 340.674 202.783 340.961 202.432 341.187C202.084 341.414 201.658 341.592 201.154 341.721C200.654 341.85 199.979 341.914 199.127 341.914C198.119 341.914 197.305 341.811 196.684 341.604C196.066 341.396 195.588 341.086 195.248 340.672C194.912 340.262 194.744 339.742 194.744 339.113C194.744 338.285 195.041 337.635 195.635 337.162C196.35 336.596 197.514 336.312 199.127 336.312ZM199.127 337.396C197.717 337.396 196.777 337.561 196.309 337.889C195.844 338.221 195.611 338.629 195.611 339.113C195.611 339.598 195.846 340.004 196.314 340.332C196.783 340.664 197.721 340.83 199.127 340.83C200.541 340.83 201.48 340.664 201.945 340.332C202.41 340.004 202.643 339.594 202.643 339.102C202.643 338.617 202.437 338.23 202.027 337.941C201.504 337.578 200.537 337.396 199.127 337.396Z" fill="white"/>
<path d="M203.387 352.007L205.891 348.102L200.882 348.102L203.387 352.007Z" fill="white"/>
<path d="M194.891 369.309L194.891 368.254L201.611 368.254C201.369 368 201.127 367.666 200.885 367.252C200.643 366.842 200.461 366.473 200.34 366.145L201.359 366.145C201.637 366.734 201.973 367.25 202.367 367.691C202.762 368.133 203.145 368.445 203.516 368.629L203.516 369.309L194.891 369.309ZM199.127 372.016C200.143 372.016 200.959 372.119 201.576 372.326C202.197 372.537 202.676 372.848 203.012 373.258C203.348 373.672 203.516 374.191 203.516 374.816C203.516 375.277 203.422 375.682 203.234 376.029C203.051 376.377 202.783 376.664 202.432 376.891C202.084 377.117 201.658 377.295 201.154 377.424C200.654 377.553 199.979 377.617 199.127 377.617C198.119 377.617 197.305 377.514 196.684 377.307C196.066 377.1 195.588 376.789 195.248 376.375C194.912 375.965 194.744 375.445 194.744 374.816C194.744 373.988 195.041 373.338 195.635 372.865C196.35 372.299 197.514 372.016 199.127 372.016ZM199.127 373.1C197.717 373.1 196.777 373.264 196.309 373.592C195.844 373.924 195.611 374.332 195.611 374.816C195.611 375.301 195.846 375.707 196.314 376.035C196.783 376.367 197.721 376.533 199.127 376.533C200.541 376.533 201.48 376.367 201.945 376.035C202.41 375.707 202.643 375.297 202.643 374.805C202.643 374.32 202.437 373.934 202.027 373.645C201.504 373.281 200.537 373.1 199.127 373.1Z" fill="white"/>
<path d="M203.387 387.153L205.891 383.248L200.882 383.248L203.387 387.153Z" fill="white"/>
<path d="M50.0781 383.247L50.0781 362.606" stroke="white" stroke-width="3" stroke-linecap="round" stroke-linejoin="round"/>
<path d="M85.6953 383.247L85.6953 362.606" stroke="white" stroke-width="3" stroke-linecap="round" stroke-linejoin="round"/>
<path d="M50.0781 346.987L50.0781 325.788" stroke="white" stroke-width="3" stroke-linecap="round" stroke-linejoin="round"/>
<path d="M85.6953 346.987L85.6953 325.788" stroke="white" stroke-width="3" stroke-linecap="round" stroke-linejoin="round"/>
<path d="M50.0781 310.726L50.0781 290.643" stroke="white" stroke-width="3" stroke-linecap="round" stroke-linejoin="round"/>
<path d="M85.6953 310.726L85.6953 290.643" stroke="white" stroke-width="3" stroke-linecap="round" stroke-linejoin="round"/>
<path d="M50.0781 275.023L50.0781 254.94" stroke="white" stroke-width="3" stroke-linecap="round" stroke-linejoin="round"/>
<path d="M85.6953 275.023L85.6953 254.94" stroke="white" stroke-width="3" stroke-linecap="round" stroke-linejoin="round"/>
<path d="M50.0781 238.763L50.0781 218.122" stroke="white" stroke-width="3" stroke-linecap="round" stroke-linejoin="round"/>
<path d="M85.6953 238.762L85.6953 218.122" stroke="white" stroke-width="3" stroke-linecap="round" stroke-linejoin="round"/>
<path d="M50.0781 203.06L50.0781 181.861" stroke="white" stroke-width="3" stroke-linecap="round" stroke-linejoin="round"/>
<path d="M85.6953 203.06L85.6953 181.861" stroke="white" stroke-width="3" stroke-linecap="round" stroke-linejoin="round"/>
<path d="M50.0781 167.915L50.0781 146.716" stroke="white" stroke-width="3" stroke-linecap="round" stroke-linejoin="round"/>
<path d="M85.6953 167.915L85.6953 146.716" stroke="white" stroke-width="3" stroke-linecap="round" stroke-linejoin="round"/>
<path d="M50.0781 131.096L50.0781 110.456" stroke="white" stroke-width="3" stroke-linecap="round" stroke-linejoin="round"/>
<path d="M85.6953 131.096L85.6953 110.456" stroke="white" stroke-width="3" stroke-linecap="round" stroke-linejoin="round"/>
<path d="M50.0781 95.951L50.0781 74.7524" stroke="white" stroke-width="3" stroke-linecap="round" stroke-linejoin="round"/>
<path d="M85.6953 95.9515L85.6953 74.7529" stroke="white" stroke-width="3" stroke-linecap="round" stroke-linejoin="round"/>
<path d="M76.6641 375.987L76.6641 377.042L69.9434 377.042C70.1855 377.295 70.4277 377.629 70.6699 378.043C70.9121 378.454 71.0938 378.823 71.2148 379.151L70.1953 379.151C69.918 378.561 69.582 378.045 69.1875 377.604C68.793 377.163 68.4102 376.85 68.0391 376.667L68.0391 375.987L76.6641 375.987ZM72.4277 373.28C71.4121 373.28 70.5957 373.176 69.9785 372.969C69.3574 372.758 68.8789 372.448 68.543 372.038C68.207 371.624 68.0391 371.104 68.0391 370.479C68.0391 370.018 68.1328 369.614 68.3203 369.266C68.5039 368.918 68.7715 368.631 69.123 368.405C69.4707 368.178 69.8965 368 70.4004 367.872C70.9004 367.743 71.5762 367.678 72.4277 367.678C73.4355 367.678 74.25 367.782 74.8711 367.989C75.4883 368.196 75.9668 368.506 76.3066 368.92C76.6426 369.331 76.8105 369.85 76.8105 370.479C76.8105 371.307 76.5137 371.958 75.9199 372.43C75.2051 372.997 74.041 373.28 72.4277 373.28ZM72.4277 372.196C73.8379 372.196 74.7773 372.032 75.2461 371.704C75.7109 371.372 75.9434 370.963 75.9434 370.479C75.9434 369.995 75.709 369.588 75.2402 369.26C74.7715 368.928 73.834 368.762 72.4277 368.762C71.0137 368.762 70.0742 368.928 69.6094 369.26C69.1445 369.588 68.9121 369.999 68.9121 370.491C68.9121 370.975 69.1172 371.362 69.5273 371.651C70.0508 372.014 71.0176 372.196 72.4277 372.196Z" fill="white"/>
<path d="M68.4382 383.247L70.6641 379.342L66.2123 379.342L68.4382 383.247Z" fill="white"/>
<path d="M75.6504 338.156L76.6641 338.156L76.6641 343.834C76.4102 343.842 76.166 343.801 75.9316 343.711C75.5449 343.566 75.1641 343.336 74.7891 343.02C74.4141 342.699 73.9805 342.238 73.4883 341.637C72.7227 340.703 72.1172 340.072 71.6719 339.744C71.2227 339.416 70.7988 339.252 70.4004 339.252C69.9824 339.252 69.6309 339.402 69.3457 339.703C69.0566 340 68.9121 340.389 68.9121 340.869C68.9121 341.377 69.0645 341.783 69.3691 342.088C69.6738 342.393 70.0957 342.547 70.6348 342.551L70.5234 343.635C69.7148 343.561 69.0996 343.281 68.6777 342.797C68.252 342.313 68.0391 341.662 68.0391 340.846C68.0391 340.021 68.2676 339.369 68.7246 338.889C69.1816 338.408 69.748 338.168 70.4238 338.168C70.7676 338.168 71.1055 338.238 71.4375 338.379C71.7695 338.52 72.1191 338.754 72.4863 339.082C72.8535 339.406 73.3574 339.947 73.998 340.705C74.5293 341.338 74.8906 341.744 75.082 341.924C75.2695 342.104 75.459 342.252 75.6504 342.369L75.6504 338.156ZM72.4277 337.02C71.4121 337.02 70.5957 336.916 69.9785 336.709C69.3574 336.498 68.8789 336.188 68.543 335.777C68.207 335.363 68.0391 334.844 68.0391 334.219C68.0391 333.758 68.1328 333.354 68.3203 333.006C68.5039 332.658 68.7715 332.371 69.123 332.145C69.4707 331.918 69.8965 331.74 70.4004 331.611C70.9004 331.482 71.5762 331.418 72.4277 331.418C73.4355 331.418 74.25 331.521 74.8711 331.729C75.4883 331.936 75.9668 332.246 76.3066 332.66C76.6426 333.07 76.8105 333.59 76.8105 334.219C76.8105 335.047 76.5137 335.697 75.9199 336.17C75.2051 336.736 74.041 337.02 72.4277 337.02ZM72.4277 335.936C73.8379 335.936 74.7773 335.771 75.2461 335.443C75.7109 335.111 75.9434 334.703 75.9434 334.219C75.9434 333.734 75.709 333.328 75.2402 333C74.7715 332.668 73.834 332.502 72.4277 332.502C71.0137 332.502 70.0742 332.668 69.6094 333C69.1445 333.328 68.9121 333.738 68.9121 334.23C68.9121 334.715 69.1172 335.102 69.5273 335.391C70.0508 335.754 71.0176 335.936 72.4277 335.936Z" fill="white"/>
<path d="M68.4382 346.987L70.6641 341.966L66.2123 341.966L68.4382 346.987Z" fill="white"/>
<path d="M74.3965 307.991L74.2559 306.936C74.8535 306.815 75.2852 306.61 75.5508 306.321C75.8125 306.028 75.9434 305.672 75.9434 305.254C75.9434 304.758 75.7715 304.34 75.4277 304C75.084 303.657 74.6582 303.485 74.1504 303.485C73.666 303.485 73.2676 303.643 72.9551 303.959C72.6387 304.276 72.4805 304.678 72.4805 305.167C72.4805 305.366 72.5195 305.614 72.5977 305.911L71.6719 305.793C71.6797 305.723 71.6836 305.667 71.6836 305.624C71.6836 305.174 71.5664 304.77 71.332 304.411C71.0977 304.051 70.7363 303.872 70.248 303.872C69.8613 303.872 69.541 304.002 69.2871 304.264C69.0332 304.526 68.9063 304.864 68.9063 305.278C68.9063 305.688 69.0352 306.03 69.293 306.303C69.5508 306.577 69.9375 306.752 70.4531 306.831L70.2656 307.885C69.5586 307.756 69.0117 307.463 68.625 307.006C68.2344 306.549 68.0391 305.981 68.0391 305.301C68.0391 304.833 68.1406 304.401 68.3438 304.006C68.543 303.612 68.8164 303.311 69.1641 303.104C69.5117 302.893 69.8809 302.788 70.2715 302.788C70.6426 302.788 70.9805 302.887 71.2852 303.086C71.5898 303.286 71.832 303.581 72.0117 303.971C72.1289 303.463 72.373 303.069 72.7441 302.788C73.1113 302.506 73.5723 302.366 74.127 302.366C74.877 302.366 75.5137 302.639 76.0371 303.186C76.5566 303.733 76.8164 304.424 76.8164 305.26C76.8164 306.014 76.5918 306.641 76.1426 307.141C75.6934 307.637 75.1113 307.92 74.3965 307.991ZM72.4277 301.317C71.4121 301.317 70.5957 301.213 69.9785 301.006C69.3574 300.795 68.8789 300.485 68.543 300.075C68.207 299.661 68.0391 299.141 68.0391 298.516C68.0391 298.055 68.1328 297.651 68.3203 297.303C68.5039 296.956 68.7715 296.668 69.123 296.442C69.4707 296.215 69.8965 296.038 70.4004 295.909C70.9004 295.78 71.5762 295.715 72.4277 295.715C73.4355 295.715 74.25 295.819 74.8711 296.026C75.4883 296.233 75.9668 296.543 76.3066 296.958C76.6426 297.368 76.8105 297.887 76.8105 298.516C76.8105 299.344 76.5137 299.995 75.9199 300.467C75.2051 301.034 74.041 301.317 72.4277 301.317ZM72.4277 300.233C73.8379 300.233 74.7773 300.069 75.2461 299.741C75.7109 299.409 75.9434 299 75.9434 298.516C75.9434 298.032 75.709 297.625 75.2402 297.297C74.7715 296.965 73.834 296.799 72.4277 296.799C71.0137 296.799 70.0742 296.965 69.6094 297.297C69.1445 297.625 68.9121 298.036 68.9121 298.528C68.9121 299.012 69.1172 299.399 69.5273 299.688C70.0508 300.051 71.0176 300.233 72.4277 300.233Z" fill="white"/>
<path d="M68.4382 311.842L70.6641 307.937L66.2123 307.937L68.4382 311.842Z" fill="white"/>
<path d="M76.6641 268.913L74.6074 268.913L74.6074 272.639L73.6406 272.639L68.0742 268.719L68.0742 267.858L73.6406 267.858L73.6406 266.698L74.6074 266.698L74.6074 267.858L76.6641 267.858L76.6641 268.913ZM73.6406 268.913L69.7676 268.913L73.6406 271.602L73.6406 268.913ZM72.4277 265.614C71.4121 265.614 70.5957 265.51 69.9785 265.303C69.3574 265.092 68.8789 264.782 68.543 264.372C68.207 263.958 68.0391 263.438 68.0391 262.813C68.0391 262.352 68.1328 261.948 68.3203 261.6C68.5039 261.252 68.7715 260.965 69.123 260.739C69.4707 260.512 69.8965 260.334 70.4004 260.206C70.9004 260.077 71.5762 260.012 72.4277 260.012C73.4355 260.012 74.25 260.116 74.8711 260.323C75.4883 260.53 75.9668 260.84 76.3066 261.254C76.6426 261.665 76.8105 262.184 76.8105 262.813C76.8105 263.641 76.5137 264.292 75.9199 264.764C75.2051 265.331 74.041 265.614 72.4277 265.614ZM72.4277 264.53C73.8379 264.53 74.7773 264.366 75.2461 264.038C75.7109 263.706 75.9434 263.297 75.9434 262.813C75.9434 262.329 75.709 261.922 75.2402 261.594C74.7715 261.262 73.834 261.096 72.4277 261.096C71.0137 261.096 70.0742 261.262 69.6094 261.594C69.1445 261.922 68.9121 262.333 68.9121 262.825C68.9121 263.309 69.1172 263.696 69.5273 263.985C70.0508 264.348 71.0176 264.53 72.4277 264.53Z" fill="white"/>
<path d="M68.4382 277.812L70.6641 273.35L66.2123 273.35L68.4382 277.812Z" fill="white"/>
<path d="M74.4141 236.591L74.3203 235.483C74.8594 235.401 75.2656 235.212 75.5391 234.915C75.8086 234.614 75.9434 234.253 75.9434 233.831C75.9434 233.323 75.752 232.894 75.3691 232.542C74.9863 232.19 74.4785 232.015 73.8457 232.015C73.2441 232.015 72.7695 232.185 72.4219 232.524C72.0742 232.86 71.9004 233.302 71.9004 233.849C71.9004 234.188 71.9785 234.495 72.1348 234.769C72.2871 235.042 72.4863 235.257 72.7324 235.413L72.6035 236.403L68.1914 235.571L68.1914 231.3L69.1992 231.3L69.1992 234.728L71.5078 235.19C71.1484 234.675 70.9688 234.134 70.9688 233.567C70.9688 232.817 71.2285 232.185 71.748 231.669C72.2676 231.153 72.9355 230.896 73.752 230.896C74.5293 230.896 75.2012 231.122 75.7676 231.575C76.4629 232.126 76.8105 232.878 76.8105 233.831C76.8105 234.612 76.5918 235.251 76.1543 235.747C75.7168 236.239 75.1367 236.521 74.4141 236.591ZM72.4277 229.911C71.4121 229.911 70.5957 229.808 69.9785 229.601C69.3574 229.39 68.8789 229.079 68.543 228.669C68.207 228.255 68.0391 227.735 68.0391 227.11C68.0391 226.649 68.1328 226.245 68.3203 225.897C68.5039 225.55 68.7715 225.263 69.123 225.036C69.4707 224.81 69.8965 224.632 70.4004 224.503C70.9004 224.374 71.5762 224.31 72.4277 224.31C73.4355 224.31 74.25 224.413 74.8711 224.62C75.4883 224.827 75.9668 225.138 76.3066 225.552C76.6426 225.962 76.8105 226.481 76.8105 227.11C76.8105 227.938 76.5137 228.589 75.9199 229.062C75.2051 229.628 74.041 229.911 72.4277 229.911ZM72.4277 228.827C73.8379 228.827 74.7773 228.663 75.2461 228.335C75.7109 228.003 75.9434 227.595 75.9434 227.11C75.9434 226.626 75.709 226.22 75.2402 225.892C74.7715 225.56 73.834 225.394 72.4277 225.394C71.0137 225.394 70.0742 225.56 69.6094 225.892C69.1445 226.22 68.9121 226.63 68.9121 227.122C68.9121 227.606 69.1172 227.993 69.5273 228.282C70.0508 228.646 71.0176 228.827 72.4277 228.827Z" fill="white"/>
<path d="M76.6641 197.507L74.6074 197.507L74.6074 201.234L73.6406 201.234L68.0742 197.314L68.0742 196.453L73.6406 196.453L73.6406 195.292L74.6074 195.292L74.6074 196.453L76.6641 196.453L76.6641 197.507ZM73.6406 197.507L69.7676 197.507L73.6406 200.197L73.6406 197.507ZM72.4277 194.208C71.4121 194.208 70.5957 194.105 69.9785 193.898C69.3574 193.687 68.8789 193.376 68.543 192.966C68.207 192.552 68.0391 192.033 68.0391 191.408C68.0391 190.947 68.1328 190.542 68.3203 190.195C68.5039 189.847 68.7715 189.56 69.123 189.333C69.4707 189.107 69.8965 188.929 70.4004 188.8C70.9004 188.671 71.5762 188.607 72.4277 188.607C73.4355 188.607 74.25 188.71 74.8711 188.917C75.4883 189.125 75.9668 189.435 76.3066 189.849C76.6426 190.259 76.8105 190.779 76.8105 191.408C76.8105 192.236 76.5137 192.886 75.9199 193.359C75.2051 193.925 74.041 194.208 72.4277 194.208ZM72.4277 193.125C73.8379 193.125 74.7773 192.96 75.2461 192.632C75.7109 192.3 75.9434 191.892 75.9434 191.408C75.9434 190.923 75.709 190.517 75.2402 190.189C74.7715 189.857 73.834 189.691 72.4277 189.691C71.0137 189.691 70.0742 189.857 69.6094 190.189C69.1445 190.517 68.9121 190.927 68.9121 191.419C68.9121 191.904 69.1172 192.291 69.5273 192.58C70.0508 192.943 71.0176 193.125 72.4277 193.125Z" fill="white"/>
<path d="M68.4382 177.957L66.2123 182.419L70.6641 182.419L68.4382 177.957Z" fill="white"/>
<path d="M74.3965 164.622L74.2559 163.567C74.8535 163.446 75.2852 163.241 75.5508 162.952C75.8125 162.659 75.9434 162.303 75.9434 161.885C75.9434 161.389 75.7715 160.971 75.4277 160.631C75.084 160.288 74.6582 160.116 74.1504 160.116C73.666 160.116 73.2676 160.274 72.9551 160.59C72.6387 160.907 72.4805 161.309 72.4805 161.797C72.4805 161.997 72.5195 162.245 72.5977 162.542L71.6719 162.424C71.6797 162.354 71.6836 162.297 71.6836 162.254C71.6836 161.805 71.5664 161.401 71.332 161.042C71.0977 160.682 70.7363 160.502 70.248 160.502C69.8613 160.502 69.541 160.633 69.2871 160.895C69.0332 161.157 68.9063 161.495 68.9063 161.909C68.9063 162.319 69.0352 162.661 69.293 162.934C69.5508 163.208 69.9375 163.383 70.4531 163.461L70.2656 164.516C69.5586 164.387 69.0117 164.094 68.625 163.637C68.2344 163.18 68.0391 162.612 68.0391 161.932C68.0391 161.463 68.1406 161.032 68.3438 160.637C68.543 160.243 68.8164 159.942 69.1641 159.735C69.5117 159.524 69.8809 159.418 70.2715 159.418C70.6426 159.418 70.9805 159.518 71.2852 159.717C71.5898 159.917 71.832 160.211 72.0117 160.602C72.1289 160.094 72.373 159.7 72.7441 159.418C73.1113 159.137 73.5723 158.997 74.127 158.997C74.877 158.997 75.5137 159.27 76.0371 159.817C76.5566 160.364 76.8164 161.055 76.8164 161.891C76.8164 162.645 76.5918 163.272 76.1426 163.772C75.6934 164.268 75.1113 164.551 74.3965 164.622ZM72.4277 157.948C71.4121 157.948 70.5957 157.844 69.9785 157.637C69.3574 157.426 68.8789 157.116 68.543 156.706C68.207 156.292 68.0391 155.772 68.0391 155.147C68.0391 154.686 68.1328 154.282 68.3203 153.934C68.5039 153.586 68.7715 153.299 69.123 153.073C69.4707 152.846 69.8965 152.668 70.4004 152.54C70.9004 152.411 71.5762 152.346 72.4277 152.346C73.4355 152.346 74.25 152.45 74.8711 152.657C75.4883 152.864 75.9668 153.174 76.3066 153.588C76.6426 153.999 76.8105 154.518 76.8105 155.147C76.8105 155.975 76.5137 156.625 75.9199 157.098C75.2051 157.665 74.041 157.948 72.4277 157.948ZM72.4277 156.864C73.8379 156.864 74.7773 156.7 75.2461 156.372C75.7109 156.04 75.9434 155.631 75.9434 155.147C75.9434 154.663 75.709 154.256 75.2402 153.928C74.7715 153.596 73.834 153.43 72.4277 153.43C71.0137 153.43 70.0742 153.596 69.6094 153.928C69.1445 154.256 68.9121 154.667 68.9121 155.159C68.9121 155.643 69.1172 156.03 69.5273 156.319C70.0508 156.682 71.0176 156.864 72.4277 156.864Z" fill="white"/>
<path d="M68.4382 141.695L66.2123 146.158L70.6641 146.158L68.4382 141.695Z" fill="white"/>
<path d="M75.6504 122.824L76.6641 122.824L76.6641 128.501C76.4102 128.509 76.166 128.468 75.9316 128.378C75.5449 128.234 75.1641 128.003 74.7891 127.687C74.4141 127.367 73.9805 126.906 73.4883 126.304C72.7227 125.371 72.1172 124.74 71.6719 124.412C71.2227 124.083 70.7988 123.919 70.4004 123.919C69.9824 123.919 69.6309 124.07 69.3457 124.371C69.0566 124.667 68.9121 125.056 68.9121 125.537C68.9121 126.044 69.0645 126.451 69.3691 126.755C69.6738 127.06 70.0957 127.214 70.6348 127.218L70.5234 128.302C69.7148 128.228 69.0996 127.949 68.6777 127.464C68.252 126.98 68.0391 126.33 68.0391 125.513C68.0391 124.689 68.2676 124.037 68.7246 123.556C69.1816 123.076 69.748 122.835 70.4238 122.835C70.7676 122.835 71.1055 122.906 71.4375 123.046C71.7695 123.187 72.1191 123.421 72.4863 123.75C72.8535 124.074 73.3574 124.615 73.998 125.373C74.5293 126.005 74.8906 126.412 75.082 126.591C75.2695 126.771 75.459 126.919 75.6504 127.037L75.6504 122.824ZM72.4277 121.687C71.4121 121.687 70.5957 121.583 69.9785 121.376C69.3574 121.166 68.8789 120.855 68.543 120.445C68.207 120.031 68.0391 119.511 68.0391 118.886C68.0391 118.425 68.1328 118.021 68.3203 117.673C68.5039 117.326 68.7715 117.039 69.123 116.812C69.4707 116.585 69.8965 116.408 70.4004 116.279C70.9004 116.15 71.5762 116.085 72.4277 116.085C73.4355 116.085 74.25 116.189 74.8711 116.396C75.4883 116.603 75.9668 116.914 76.3066 117.328C76.6426 117.738 76.8105 118.257 76.8105 118.886C76.8105 119.714 76.5137 120.365 75.9199 120.837C75.2051 121.404 74.041 121.687 72.4277 121.687ZM72.4277 120.603C73.8379 120.603 74.7773 120.439 75.2461 120.111C75.7109 119.779 75.9434 119.371 75.9434 118.886C75.9434 118.402 75.709 117.996 75.2402 117.667C74.7715 117.335 73.834 117.169 72.4277 117.169C71.0137 117.169 70.0742 117.335 69.6094 117.667C69.1445 117.996 68.9121 118.406 68.9121 118.898C68.9121 119.382 69.1172 119.769 69.5273 120.058C70.0508 120.421 71.0176 120.603 72.4277 120.603Z" fill="white"/>
<path d="M68.4382 105.993L66.2123 109.898L70.6641 109.898L68.4382 105.993Z" fill="white"/>
<path d="M76.6641 88.6909L76.6641 89.7456L69.9434 89.7456C70.1855 89.9995 70.4277 90.3335 70.6699 90.7476C70.9121 91.1577 71.0938 91.5269 71.2148 91.855L70.1953 91.855C69.918 91.2651 69.582 90.7495 69.1875 90.3081C68.793 89.8667 68.4102 89.5542 68.0391 89.3706L68.0391 88.6909L76.6641 88.6909ZM72.4277 85.9839C71.4121 85.9839 70.5957 85.8804 69.9785 85.6733C69.3574 85.4624 68.8789 85.1519 68.543 84.7417C68.207 84.3276 68.0391 83.8081 68.0391 83.1831C68.0391 82.7222 68.1328 82.3179 68.3203 81.9702C68.5039 81.6226 68.7715 81.3354 69.123 81.1089C69.4707 80.8823 69.8965 80.7046 70.4004 80.5757C70.9004 80.4468 71.5762 80.3823 72.4277 80.3823C73.4355 80.3823 74.25 80.4858 74.8711 80.6929C75.4883 80.8999 75.9668 81.2104 76.3066 81.6245C76.6426 82.0347 76.8105 82.5542 76.8105 83.1831C76.8105 84.0112 76.5137 84.6616 75.9199 85.1343C75.2051 85.7007 74.041 85.9839 72.4277 85.9839ZM72.4277 84.8999C73.8379 84.8999 74.7773 84.7358 75.2461 84.4077C75.7109 84.0757 75.9434 83.6675 75.9434 83.1831C75.9434 82.6987 75.709 82.2925 75.2402 81.9644C74.7715 81.6323 73.834 81.4663 72.4277 81.4663C71.0137 81.4663 70.0742 81.6323 69.6094 81.9644C69.1445 82.2925 68.9121 82.7026 68.9121 83.1948C68.9121 83.6792 69.1172 84.0659 69.5273 84.355C70.0508 84.7183 71.0176 84.8999 72.4277 84.8999Z" fill="white"/>
<path d="M68.4382 70.29L66.2123 74.195L70.6641 74.195L68.4382 70.29Z" fill="white"/>
<path d="M145.242 49.0911L145.242 38.5859L145.242 22.314" stroke="white" stroke-width="3" stroke-linecap="round" stroke-linejoin="round"/>
<path d="M126.312 49.0911L126.312 38.5859L126.312 22.314" stroke="white" stroke-width="3" stroke-linecap="round" stroke-linejoin="round"/>
<path d="M126.322 39.0498L145.242 39.0498" stroke="white" stroke-width="3" stroke-linecap="round" stroke-linejoin="round"/>
<path d="M145.242 434.57L145.242 418.298L145.242 407.793" stroke="white" stroke-width="3" stroke-linecap="round" stroke-linejoin="round"/>
<path d="M126.312 434.57L126.312 418.298L126.312 407.793" stroke="white" stroke-width="3" stroke-linecap="round" stroke-linejoin="round"/>
<path d="M145.242 418.393L126.322 418.393" stroke="white" stroke-width="3" stroke-linecap="round" stroke-linejoin="round"/>
<g clip-path="url(#clip1_6153_49591)">
<path d="M153.893 177.228C157.389 177.228 160.224 173.986 160.224 169.987C160.224 165.988 157.389 162.747 153.893 162.747C150.397 162.747 147.562 165.988 147.562 169.987C147.562 173.986 150.397 177.228 153.893 177.228Z" fill="url(#paint0_radial_6153_49591)"/>
<g opacity="0.5">
<path d="M153.888 176.983C152.73 176.983 151.602 176.611 150.628 175.907C149.679 175.222 148.913 174.254 148.413 173.108C148.379 173.029 148.407 172.932 148.476 172.892C148.546 172.853 148.63 172.885 148.665 172.964C149.66 175.245 151.662 176.662 153.888 176.662C154.561 176.662 155.22 176.532 155.848 176.276C155.921 176.246 156.001 176.29 156.027 176.373C156.053 176.457 156.015 176.549 155.942 176.579C155.284 176.847 154.593 176.983 153.888 176.983Z" fill="url(#paint1_linear_6153_49591)"/>
</g>
<path d="M159.686 168.93C159.62 168.93 159.561 168.876 159.548 168.798C159.05 165.674 156.669 163.406 153.888 163.406C152.579 163.406 151.346 163.896 150.321 164.822C150.261 164.877 150.172 164.865 150.124 164.796C150.076 164.726 150.086 164.625 150.147 164.57C150.669 164.098 151.249 163.731 151.873 163.478C152.519 163.217 153.197 163.084 153.888 163.084C155.309 163.084 156.689 163.66 157.774 164.706C158.846 165.739 159.574 167.172 159.825 168.74C159.839 168.828 159.788 168.911 159.712 168.927C159.703 168.929 159.695 168.93 159.686 168.93Z" fill="url(#paint2_linear_6153_49591)"/>
</g>
</g>
<defs>
<radialGradient id="paint0_radial_6153_49591" cx="0" cy="0" r="1" gradientUnits="userSpaceOnUse" gradientTransform="translate(153.893 169.987) scale(6.33051 7.24083)">
<stop stop-color="#4681F5"/>
<stop offset="1" stop-color="#0078E6"/>
</radialGradient>
<linearGradient id="paint1_linear_6153_49591" x1="148.398" y1="174.929" x2="156.035" y2="174.929" gradientUnits="userSpaceOnUse">
<stop stop-color="white" stop-opacity="0"/>
<stop offset="0.5" stop-color="white"/>
<stop offset="0.999999" stop-color="white" stop-opacity="0"/>
</linearGradient>
<linearGradient id="paint2_linear_6153_49591" x1="150.094" y1="166.007" x2="159.827" y2="166.007" gradientUnits="userSpaceOnUse">
<stop stop-color="white" stop-opacity="0"/>
<stop offset="0.5" stop-color="white"/>
<stop offset="0.999999" stop-color="white" stop-opacity="0"/>
</linearGradient>
<clipPath id="clip0_6153_49591">
<rect width="458" height="271" fill="white" transform="translate(271) rotate(90)"/>
</clipPath>
<clipPath id="clip1_6153_49591">
<rect width="13.8974" height="15.8959" fill="white" transform="translate(146.914 161.939)"/>
</clipPath>
</defs>
</svg>
