<svg width="273" height="461" viewBox="0 0 273 461" fill="none" xmlns="http://www.w3.org/2000/svg">
<g clip-path="url(#clip0_6049_11312)">
<path d="M269.984 450.524L269.984 11C269.984 7.13401 266.85 4 262.984 4L11.9988 3.99999C8.13278 3.99999 4.99878 7.134 4.99878 11L4.99876 450.524C4.99876 454.39 8.13276 457.524 11.9988 457.524L262.984 457.524C266.85 457.524 269.984 454.39 269.984 450.524Z" fill="#1BB24B" stroke="#192F20" stroke-width="6"/>
<path d="M258.984 447.524L258.984 13.4762L14.5737 13.4762L14.5737 447.524L258.984 447.524Z" stroke="white" stroke-width="3" stroke-linecap="round" stroke-linejoin="round"/>
<path d="M14.5737 49.413L258.984 49.413" stroke="white" stroke-width="3" stroke-linecap="round" stroke-linejoin="round"/>
<path d="M258.984 85.9111L223.224 85.9111L14.5737 85.9111" stroke="white" stroke-width="3" stroke-linecap="round" stroke-linejoin="round"/>
<path d="M258.984 122.409L223.224 122.409L14.5737 122.409" stroke="white" stroke-width="3" stroke-linecap="round" stroke-linejoin="round"/>
<path d="M258.984 158.346L223.224 158.346L14.5737 158.346" stroke="white" stroke-width="3" stroke-linecap="round" stroke-linejoin="round"/>
<path d="M258.984 194.283L223.224 194.283L14.5737 194.283" stroke="white" stroke-width="3" stroke-linecap="round" stroke-linejoin="round"/>
<path d="M258.984 230.219L223.224 230.219L14.5737 230.219" stroke="white" stroke-width="3" stroke-linecap="round" stroke-linejoin="round"/>
<path d="M258.984 266.156L223.224 266.156L14.5737 266.156" stroke="white" stroke-width="3" stroke-linecap="round" stroke-linejoin="round"/>
<path d="M258.984 302.093L223.224 302.093L14.5737 302.093" stroke="white" stroke-width="3" stroke-linecap="round" stroke-linejoin="round"/>
<path d="M258.984 338.591L223.224 338.591L14.5737 338.591" stroke="white" stroke-width="3" stroke-linecap="round" stroke-linejoin="round"/>
<path d="M258.984 374.527L223.224 374.527L14.5737 374.527" stroke="white" stroke-width="3" stroke-linecap="round" stroke-linejoin="round"/>
<path d="M16.1969 409.341L257.805 409.341" stroke="white" stroke-width="3" stroke-linecap="round" stroke-linejoin="round"/>
<path d="M223.109 74.6809L223.109 96.0183" stroke="white" stroke-width="3" stroke-linecap="round" stroke-linejoin="round"/>
<path d="M187.234 74.6809L187.234 96.0183" stroke="white" stroke-width="3" stroke-linecap="round" stroke-linejoin="round"/>
<path d="M223.109 111.741L223.109 133.078" stroke="white" stroke-width="3" stroke-linecap="round" stroke-linejoin="round"/>
<path d="M187.234 111.741L187.234 133.078" stroke="white" stroke-width="3" stroke-linecap="round" stroke-linejoin="round"/>
<path d="M223.109 147.677L223.109 168.453" stroke="white" stroke-width="3" stroke-linecap="round" stroke-linejoin="round"/>
<path d="M187.234 147.677L187.234 168.453" stroke="white" stroke-width="3" stroke-linecap="round" stroke-linejoin="round"/>
<path d="M223.109 183.052L223.109 204.39" stroke="white" stroke-width="3" stroke-linecap="round" stroke-linejoin="round"/>
<path d="M187.234 183.052L187.234 204.39" stroke="white" stroke-width="3" stroke-linecap="round" stroke-linejoin="round"/>
<path d="M223.109 220.674L223.109 240.888" stroke="white" stroke-width="3" stroke-linecap="round" stroke-linejoin="round"/>
<path d="M187.234 220.674L187.234 240.888" stroke="white" stroke-width="3" stroke-linecap="round" stroke-linejoin="round"/>
<path d="M223.109 256.61L223.109 276.825" stroke="white" stroke-width="3" stroke-linecap="round" stroke-linejoin="round"/>
<path d="M187.234 256.61L187.234 276.825" stroke="white" stroke-width="3" stroke-linecap="round" stroke-linejoin="round"/>
<path d="M223.109 291.985L223.109 312.2" stroke="white" stroke-width="3" stroke-linecap="round" stroke-linejoin="round"/>
<path d="M187.234 291.985L187.234 312.2" stroke="white" stroke-width="3" stroke-linecap="round" stroke-linejoin="round"/>
<path d="M223.109 328.484L223.109 349.821" stroke="white" stroke-width="3" stroke-linecap="round" stroke-linejoin="round"/>
<path d="M187.234 328.484L187.234 349.821" stroke="white" stroke-width="3" stroke-linecap="round" stroke-linejoin="round"/>
<path d="M223.109 364.42L223.109 385.196" stroke="white" stroke-width="3" stroke-linecap="round" stroke-linejoin="round"/>
<path d="M187.234 364.42L187.234 385.196" stroke="white" stroke-width="3" stroke-linecap="round" stroke-linejoin="round"/>
<path d="M196.414 82.5206L196.414 81.4659L203.135 81.4659C202.893 81.212 202.65 80.8781 202.408 80.464C202.166 80.0538 201.984 79.6847 201.863 79.3566L202.883 79.3566C203.16 79.9464 203.496 80.462 203.891 80.9034C204.285 81.3448 204.668 81.6573 205.039 81.8409L205.039 82.5206L196.414 82.5206ZM186.65 78.548C187.666 78.548 188.482 78.6515 189.1 78.8585C189.721 79.0695 190.199 79.38 190.535 79.7902C190.871 80.2042 191.039 80.7238 191.039 81.3488C191.039 81.8097 190.945 82.214 190.758 82.5616C190.574 82.9093 190.307 83.1964 189.955 83.423C189.607 83.6495 189.182 83.8273 188.678 83.9562C188.178 84.0851 187.502 84.1495 186.65 84.1495C185.643 84.1495 184.828 84.046 184.207 83.839C183.59 83.632 183.111 83.3214 182.771 82.9073C182.436 82.4972 182.268 81.9777 182.268 81.3488C182.268 80.5206 182.564 79.8702 183.158 79.3976C183.873 78.8312 185.037 78.548 186.65 78.548ZM186.65 79.632C185.24 79.632 184.301 79.796 183.832 80.1241C183.367 80.4562 183.135 80.8644 183.135 81.3488C183.135 81.8331 183.369 82.2394 183.838 82.5675C184.307 82.8995 185.244 83.0656 186.65 83.0656C188.064 83.0656 189.004 82.8995 189.469 82.5675C189.934 82.2394 190.166 81.8292 190.166 81.337C190.166 80.8527 189.961 80.4659 189.551 80.1769C189.027 79.8136 188.061 79.632 186.65 79.632Z" fill="white"/>
<path d="M204.891 75.2424L202.369 79.173L207.414 79.173L204.891 75.2424Z" fill="white"/>
<path d="M197.428 120.028L196.414 120.028L196.414 114.35C196.668 114.342 196.912 114.383 197.146 114.473C197.533 114.617 197.914 114.848 198.289 115.164C198.664 115.485 199.098 115.946 199.59 116.547C200.355 117.481 200.961 118.112 201.406 118.44C201.855 118.768 202.279 118.932 202.678 118.932C203.096 118.932 203.447 118.781 203.732 118.481C204.021 118.184 204.166 117.795 204.166 117.315C204.166 116.807 204.014 116.401 203.709 116.096C203.404 115.791 202.982 115.637 202.443 115.633L202.555 114.549C203.363 114.623 203.979 114.903 204.4 115.387C204.826 115.871 205.039 116.522 205.039 117.338C205.039 118.162 204.811 118.815 204.354 119.295C203.896 119.776 203.33 120.016 202.654 120.016C202.311 120.016 201.973 119.946 201.641 119.805C201.309 119.664 200.959 119.43 200.592 119.102C200.225 118.778 199.721 118.237 199.08 117.479C198.549 116.846 198.187 116.44 197.996 116.26C197.809 116.08 197.619 115.932 197.428 115.815L197.428 120.028ZM186.65 114.485C187.666 114.485 188.482 114.588 189.1 114.795C189.721 115.006 190.199 115.317 190.535 115.727C190.871 116.141 191.039 116.66 191.039 117.285C191.039 117.746 190.945 118.151 190.758 118.498C190.574 118.846 190.307 119.133 189.955 119.36C189.607 119.586 189.182 119.764 188.678 119.893C188.178 120.022 187.502 120.086 186.65 120.086C185.643 120.086 184.828 119.983 184.207 119.776C183.59 119.569 183.111 119.258 182.771 118.844C182.436 118.434 182.268 117.914 182.268 117.285C182.268 116.457 182.564 115.807 183.158 115.334C183.873 114.768 185.037 114.485 186.65 114.485ZM186.65 115.569C185.24 115.569 184.301 115.733 183.832 116.061C183.367 116.393 183.135 116.801 183.135 117.285C183.135 117.77 183.369 118.176 183.838 118.504C184.307 118.836 185.244 119.002 186.65 119.002C188.064 119.002 189.004 118.836 189.469 118.504C189.934 118.176 190.166 117.766 190.166 117.274C190.166 116.789 189.961 116.403 189.551 116.114C189.027 115.75 188.061 115.569 186.65 115.569Z" fill="white"/>
<path d="M204.891 111.741L202.369 115.671L207.414 115.671L204.891 111.741Z" fill="white"/>
<path d="M198.682 149.866L198.822 150.92C198.225 151.041 197.793 151.246 197.527 151.536C197.266 151.828 197.135 152.184 197.135 152.602C197.135 153.098 197.307 153.516 197.65 153.856C197.994 154.2 198.42 154.371 198.928 154.371C199.412 154.371 199.811 154.213 200.123 153.897C200.439 153.58 200.598 153.178 200.598 152.69C200.598 152.491 200.559 152.243 200.48 151.946L201.406 152.063C201.398 152.133 201.395 152.19 201.395 152.233C201.395 152.682 201.512 153.086 201.746 153.446C201.98 153.805 202.342 153.985 202.83 153.985C203.217 153.985 203.537 153.854 203.791 153.592C204.045 153.33 204.172 152.993 204.172 152.578C204.172 152.168 204.043 151.827 203.785 151.553C203.527 151.28 203.141 151.104 202.625 151.026L202.812 149.971C203.52 150.1 204.066 150.393 204.453 150.85C204.844 151.307 205.039 151.875 205.039 152.555C205.039 153.024 204.937 153.455 204.734 153.85C204.535 154.245 204.262 154.545 203.914 154.752C203.566 154.963 203.197 155.069 202.807 155.069C202.436 155.069 202.098 154.969 201.793 154.77C201.488 154.571 201.246 154.276 201.066 153.885C200.949 154.393 200.705 154.787 200.334 155.069C199.967 155.35 199.506 155.491 198.951 155.491C198.201 155.491 197.564 155.217 197.041 154.67C196.521 154.123 196.262 153.432 196.262 152.596C196.262 151.842 196.486 151.215 196.936 150.715C197.385 150.219 197.967 149.936 198.682 149.866ZM186.65 149.86C187.666 149.86 188.482 149.963 189.1 150.17C189.721 150.381 190.199 150.692 190.535 151.102C190.871 151.516 191.039 152.036 191.039 152.661C191.039 153.121 190.945 153.526 190.758 153.873C190.574 154.221 190.307 154.508 189.955 154.735C189.607 154.961 189.182 155.139 188.678 155.268C188.178 155.397 187.502 155.461 186.65 155.461C185.643 155.461 184.828 155.358 184.207 155.151C183.59 154.944 183.111 154.633 182.771 154.219C182.436 153.809 182.268 153.289 182.268 152.661C182.268 151.832 182.564 151.182 183.158 150.709C183.873 150.143 185.037 149.86 186.65 149.86ZM186.65 150.944C185.24 150.944 184.301 151.108 183.832 151.436C183.367 151.768 183.135 152.176 183.135 152.661C183.135 153.145 183.369 153.551 183.838 153.879C184.307 154.211 185.244 154.377 186.65 154.377C188.064 154.377 189.004 154.211 189.469 153.879C189.934 153.551 190.166 153.141 190.166 152.649C190.166 152.164 189.961 151.778 189.551 151.489C189.027 151.125 188.061 150.944 186.65 150.944Z" fill="white"/>
<path d="M204.891 145.993L202.369 150.485L207.414 150.485L204.891 145.993Z" fill="white"/>
<path d="M196.414 190.3L198.471 190.3L198.471 186.574L199.437 186.574L205.004 190.494L205.004 191.355L199.437 191.355L199.437 192.515L198.471 192.515L198.471 191.355L196.414 191.355L196.414 190.3ZM199.437 190.3L203.311 190.3L199.437 187.611L199.437 190.3ZM186.65 186.919C187.666 186.919 188.482 187.023 189.1 187.23C189.721 187.441 190.199 187.751 190.535 188.162C190.871 188.576 191.039 189.095 191.039 189.72C191.039 190.181 190.945 190.585 190.758 190.933C190.574 191.281 190.307 191.568 189.955 191.794C189.607 192.021 189.182 192.199 188.678 192.328C188.178 192.457 187.502 192.521 186.65 192.521C185.643 192.521 184.828 192.417 184.207 192.21C183.59 192.003 183.111 191.693 182.771 191.279C182.436 190.869 182.268 190.349 182.268 189.72C182.268 188.892 182.564 188.242 183.158 187.769C183.873 187.203 185.037 186.919 186.65 186.919ZM186.65 188.003C185.24 188.003 184.301 188.167 183.832 188.496C183.367 188.828 183.135 189.236 183.135 189.72C183.135 190.205 183.369 190.611 183.838 190.939C184.307 191.271 185.244 191.437 186.65 191.437C188.064 191.437 189.004 191.271 189.469 190.939C189.934 190.611 190.166 190.201 190.166 189.708C190.166 189.224 189.961 188.837 189.551 188.548C189.027 188.185 188.061 188.003 186.65 188.003Z" fill="white"/>
<path d="M204.891 180.806L202.369 184.737L207.414 184.737L204.891 180.806Z" fill="white"/>
<path d="M198.664 222.856L198.758 223.964C198.219 224.046 197.812 224.235 197.539 224.532C197.27 224.833 197.135 225.194 197.135 225.616C197.135 226.124 197.326 226.553 197.709 226.905C198.092 227.257 198.6 227.432 199.232 227.432C199.834 227.432 200.309 227.262 200.656 226.923C201.004 226.587 201.178 226.145 201.178 225.598C201.178 225.259 201.1 224.952 200.943 224.678C200.791 224.405 200.592 224.19 200.346 224.034L200.475 223.044L204.887 223.876L204.887 228.147L203.879 228.147L203.879 224.719L201.57 224.257C201.93 224.772 202.109 225.313 202.109 225.88C202.109 226.63 201.85 227.262 201.33 227.778C200.811 228.294 200.143 228.552 199.326 228.552C198.549 228.552 197.877 228.325 197.311 227.872C196.615 227.321 196.268 226.569 196.268 225.616C196.268 224.835 196.486 224.196 196.924 223.7C197.361 223.208 197.941 222.927 198.664 222.856ZM186.65 222.856C187.666 222.856 188.482 222.96 189.1 223.167C189.721 223.378 190.199 223.688 190.535 224.098C190.871 224.512 191.039 225.032 191.039 225.657C191.039 226.118 190.945 226.522 190.758 226.87C190.574 227.218 190.307 227.505 189.955 227.731C189.607 227.958 189.182 228.135 188.678 228.264C188.178 228.393 187.502 228.458 186.65 228.458C185.643 228.458 184.828 228.354 184.207 228.147C183.59 227.94 183.111 227.63 182.771 227.216C182.436 226.805 182.268 226.286 182.268 225.657C182.268 224.829 182.564 224.178 183.158 223.706C183.873 223.139 185.037 222.856 186.65 222.856ZM186.65 223.94C185.24 223.94 184.301 224.104 183.832 224.432C183.367 224.764 183.135 225.173 183.135 225.657C183.135 226.141 183.369 226.548 183.838 226.876C184.307 227.208 185.244 227.374 186.65 227.374C188.064 227.374 189.004 227.208 189.469 226.876C189.934 226.548 190.166 226.137 190.166 225.645C190.166 225.161 189.961 224.774 189.551 224.485C189.027 224.122 188.061 223.94 186.65 223.94Z" fill="white"/>
<path d="M196.414 262.174L198.471 262.174L198.471 258.447L199.437 258.447L205.004 262.367L205.004 263.228L199.437 263.228L199.437 264.389L198.471 264.389L198.471 263.228L196.414 263.228L196.414 262.174ZM199.437 262.174L203.311 262.174L199.437 259.484L199.437 262.174ZM186.65 258.793C187.666 258.793 188.482 258.896 189.1 259.103C189.721 259.314 190.199 259.625 190.535 260.035C190.871 260.449 191.039 260.969 191.039 261.594C191.039 262.055 190.945 262.459 190.758 262.807C190.574 263.154 190.307 263.441 189.955 263.668C189.607 263.894 189.182 264.072 188.678 264.201C188.178 264.33 187.502 264.394 186.65 264.394C185.643 264.394 184.828 264.291 184.207 264.084C183.59 263.877 183.111 263.566 182.771 263.152C182.436 262.742 182.268 262.223 182.268 261.594C182.268 260.766 182.564 260.115 183.158 259.642C183.873 259.076 185.037 258.793 186.65 258.793ZM186.65 259.877C185.24 259.877 184.301 260.041 183.832 260.369C183.367 260.701 183.135 261.109 183.135 261.594C183.135 262.078 183.369 262.484 183.838 262.812C184.307 263.144 185.244 263.31 186.65 263.31C188.064 263.31 189.004 263.144 189.469 262.812C189.934 262.484 190.166 262.074 190.166 261.582C190.166 261.098 189.961 260.711 189.551 260.422C189.027 260.058 188.061 259.877 186.65 259.877Z" fill="white"/>
<path d="M204.891 280.755L207.414 276.825L202.369 276.825L204.891 280.755Z" fill="white"/>
<path d="M198.682 294.735L198.822 295.79C198.225 295.911 197.793 296.116 197.527 296.405C197.266 296.698 197.135 297.054 197.135 297.472C197.135 297.968 197.307 298.386 197.65 298.726C197.994 299.069 198.42 299.241 198.928 299.241C199.412 299.241 199.811 299.083 200.123 298.767C200.439 298.45 200.598 298.048 200.598 297.56C200.598 297.36 200.559 297.112 200.48 296.815L201.406 296.933C201.398 297.003 201.395 297.06 201.395 297.103C201.395 297.552 201.512 297.956 201.746 298.315C201.98 298.675 202.342 298.854 202.83 298.854C203.217 298.854 203.537 298.724 203.791 298.462C204.045 298.2 204.172 297.862 204.172 297.448C204.172 297.038 204.043 296.696 203.785 296.423C203.527 296.149 203.141 295.974 202.625 295.896L202.812 294.841C203.52 294.97 204.066 295.263 204.453 295.72C204.844 296.177 205.039 296.745 205.039 297.425C205.039 297.894 204.937 298.325 204.734 298.72C204.535 299.114 204.262 299.415 203.914 299.622C203.566 299.833 203.197 299.938 202.807 299.938C202.436 299.938 202.098 299.839 201.793 299.64C201.488 299.44 201.246 299.146 201.066 298.755C200.949 299.263 200.705 299.657 200.334 299.938C199.967 300.22 199.506 300.36 198.951 300.36C198.201 300.36 197.564 300.087 197.041 299.54C196.521 298.993 196.262 298.302 196.262 297.466C196.262 296.712 196.486 296.085 196.936 295.585C197.385 295.089 197.967 294.806 198.682 294.735ZM186.65 294.729C187.666 294.729 188.482 294.833 189.1 295.04C189.721 295.251 190.199 295.562 190.535 295.972C190.871 296.386 191.039 296.905 191.039 297.53C191.039 297.991 190.945 298.396 190.758 298.743C190.574 299.091 190.307 299.378 189.955 299.604C189.607 299.831 189.182 300.009 188.678 300.138C188.178 300.267 187.502 300.331 186.65 300.331C185.643 300.331 184.828 300.228 184.207 300.021C183.59 299.813 183.111 299.503 182.771 299.089C182.436 298.679 182.268 298.159 182.268 297.53C182.268 296.702 182.564 296.052 183.158 295.579C183.873 295.013 185.037 294.729 186.65 294.729ZM186.65 295.813C185.24 295.813 184.301 295.978 183.832 296.306C183.367 296.638 183.135 297.046 183.135 297.53C183.135 298.015 183.369 298.421 183.838 298.749C184.307 299.081 185.244 299.247 186.65 299.247C188.064 299.247 189.004 299.081 189.469 298.749C189.934 298.421 190.166 298.011 190.166 297.519C190.166 297.034 189.961 296.647 189.551 296.358C189.027 295.995 188.061 295.813 186.65 295.813Z" fill="white"/>
<path d="M204.891 317.815L207.414 313.323L202.369 313.323L204.891 317.815Z" fill="white"/>
<path d="M197.428 337.332L196.414 337.332L196.414 331.654C196.668 331.646 196.912 331.687 197.146 331.777C197.533 331.922 197.914 332.152 198.289 332.469C198.664 332.789 199.098 333.25 199.59 333.852C200.355 334.785 200.961 335.416 201.406 335.744C201.855 336.072 202.279 336.236 202.678 336.236C203.096 336.236 203.447 336.086 203.732 335.785C204.021 335.488 204.166 335.1 204.166 334.619C204.166 334.111 204.014 333.705 203.709 333.4C203.404 333.096 202.982 332.941 202.443 332.937L202.555 331.854C203.363 331.928 203.979 332.207 204.4 332.691C204.826 333.176 205.039 333.826 205.039 334.643C205.039 335.467 204.811 336.119 204.354 336.6C203.896 337.08 203.33 337.32 202.654 337.32C202.311 337.32 201.973 337.25 201.641 337.109C201.309 336.969 200.959 336.734 200.592 336.406C200.225 336.082 199.721 335.541 199.08 334.783C198.549 334.15 198.187 333.744 197.996 333.564C197.809 333.385 197.619 333.236 197.428 333.119L197.428 337.332ZM186.65 331.789C187.666 331.789 188.482 331.893 189.1 332.1C189.721 332.311 190.199 332.621 190.535 333.031C190.871 333.445 191.039 333.965 191.039 334.59C191.039 335.051 190.945 335.455 190.758 335.803C190.574 336.15 190.307 336.437 189.955 336.664C189.607 336.891 189.182 337.068 188.678 337.197C188.178 337.326 187.502 337.391 186.65 337.391C185.643 337.391 184.828 337.287 184.207 337.08C183.59 336.873 183.111 336.562 182.771 336.148C182.436 335.738 182.268 335.219 182.268 334.59C182.268 333.762 182.564 333.111 183.158 332.639C183.873 332.072 185.037 331.789 186.65 331.789ZM186.65 332.873C185.24 332.873 184.301 333.037 183.832 333.365C183.367 333.697 183.135 334.105 183.135 334.59C183.135 335.074 183.369 335.48 183.838 335.809C184.307 336.141 185.244 336.307 186.65 336.307C188.064 336.307 189.004 336.141 189.469 335.809C189.934 335.48 190.166 335.07 190.166 334.578C190.166 334.094 189.961 333.707 189.551 333.418C189.027 333.055 188.061 332.873 186.65 332.873Z" fill="white"/>
<path d="M204.891 354.313L207.414 350.382L202.369 350.382L204.891 354.313Z" fill="white"/>
<path d="M196.414 371.698L196.414 370.644L203.135 370.644C202.893 370.39 202.65 370.056 202.408 369.642C202.166 369.232 201.984 368.863 201.863 368.534L202.883 368.534C203.16 369.124 203.496 369.64 203.891 370.081C204.285 370.523 204.668 370.835 205.039 371.019L205.039 371.698L196.414 371.698ZM186.65 367.726C187.666 367.726 188.482 367.829 189.1 368.036C189.721 368.247 190.199 368.558 190.535 368.968C190.871 369.382 191.039 369.902 191.039 370.527C191.039 370.988 190.945 371.392 190.758 371.74C190.574 372.087 190.307 372.374 189.955 372.601C189.607 372.827 189.182 373.005 188.678 373.134C188.178 373.263 187.502 373.327 186.65 373.327C185.643 373.327 184.828 373.224 184.207 373.017C183.59 372.81 183.111 372.499 182.771 372.085C182.436 371.675 182.268 371.156 182.268 370.527C182.268 369.698 182.564 369.048 183.158 368.575C183.873 368.009 185.037 367.726 186.65 367.726ZM186.65 368.81C185.24 368.81 184.301 368.974 183.832 369.302C183.367 369.634 183.135 370.042 183.135 370.527C183.135 371.011 183.369 371.417 183.838 371.745C184.307 372.077 185.244 372.243 186.65 372.243C188.064 372.243 189.004 372.077 189.469 371.745C189.934 371.417 190.166 371.007 190.166 370.515C190.166 370.031 189.961 369.644 189.551 369.355C189.027 368.991 188.061 368.81 186.65 368.81Z" fill="white"/>
<path d="M204.891 389.688L207.414 385.758L202.369 385.758L204.891 389.688Z" fill="white"/>
<path d="M50.4531 385.758L50.4531 364.982" stroke="white" stroke-width="3" stroke-linecap="round" stroke-linejoin="round"/>
<path d="M86.3281 385.758L86.3281 364.982" stroke="white" stroke-width="3" stroke-linecap="round" stroke-linejoin="round"/>
<path d="M50.4531 349.259L50.4531 327.922" stroke="white" stroke-width="3" stroke-linecap="round" stroke-linejoin="round"/>
<path d="M86.3281 349.259L86.3281 327.922" stroke="white" stroke-width="3" stroke-linecap="round" stroke-linejoin="round"/>
<path d="M50.4531 312.761L50.4531 292.547" stroke="white" stroke-width="3" stroke-linecap="round" stroke-linejoin="round"/>
<path d="M86.3281 312.761L86.3281 292.547" stroke="white" stroke-width="3" stroke-linecap="round" stroke-linejoin="round"/>
<path d="M50.4531 276.825L50.4531 256.61" stroke="white" stroke-width="3" stroke-linecap="round" stroke-linejoin="round"/>
<path d="M86.3281 276.825L86.3281 256.61" stroke="white" stroke-width="3" stroke-linecap="round" stroke-linejoin="round"/>
<path d="M50.4531 240.326L50.4531 219.551" stroke="white" stroke-width="3" stroke-linecap="round" stroke-linejoin="round"/>
<path d="M86.3281 240.326L86.3281 219.551" stroke="white" stroke-width="3" stroke-linecap="round" stroke-linejoin="round"/>
<path d="M50.4531 204.39L50.4531 183.052" stroke="white" stroke-width="3" stroke-linecap="round" stroke-linejoin="round"/>
<path d="M86.3281 204.39L86.3281 183.052" stroke="white" stroke-width="3" stroke-linecap="round" stroke-linejoin="round"/>
<path d="M50.4531 169.015L50.4531 147.677" stroke="white" stroke-width="3" stroke-linecap="round" stroke-linejoin="round"/>
<path d="M86.3281 169.015L86.3281 147.677" stroke="white" stroke-width="3" stroke-linecap="round" stroke-linejoin="round"/>
<path d="M50.4531 131.955L50.4531 111.179" stroke="white" stroke-width="3" stroke-linecap="round" stroke-linejoin="round"/>
<path d="M86.3281 131.955L86.3281 111.179" stroke="white" stroke-width="3" stroke-linecap="round" stroke-linejoin="round"/>
<path d="M50.4531 96.5798L50.4531 75.2424" stroke="white" stroke-width="3" stroke-linecap="round" stroke-linejoin="round"/>
<path d="M86.3281 96.5798L86.3281 75.2424" stroke="white" stroke-width="3" stroke-linecap="round" stroke-linejoin="round"/>
<path d="M77.1484 378.479L77.1484 379.534L70.4277 379.534C70.6699 379.788 70.9121 380.122 71.1543 380.536C71.3965 380.946 71.5781 381.315 71.6992 381.643L70.6797 381.643C70.4023 381.054 70.0664 380.538 69.6719 380.097C69.2773 379.655 68.8945 379.343 68.5234 379.159L68.5234 378.479L77.1484 378.479ZM86.9121 382.452C85.8965 382.452 85.0801 382.349 84.4629 382.141C83.8418 381.931 83.3633 381.62 83.0273 381.21C82.6914 380.796 82.5234 380.276 82.5234 379.651C82.5234 379.19 82.6172 378.786 82.8047 378.438C82.9883 378.091 83.2559 377.804 83.6074 377.577C83.9551 377.35 84.3809 377.173 84.8848 377.044C85.3848 376.915 86.0605 376.85 86.9121 376.85C87.9199 376.85 88.7344 376.954 89.3555 377.161C89.9727 377.368 90.4512 377.679 90.791 378.093C91.127 378.503 91.2949 379.022 91.2949 379.651C91.2949 380.479 90.998 381.13 90.4043 381.602C89.6895 382.169 88.5254 382.452 86.9121 382.452ZM86.9121 381.368C88.3223 381.368 89.2617 381.204 89.7305 380.876C90.1953 380.544 90.4277 380.136 90.4277 379.651C90.4277 379.167 90.1934 378.761 89.7246 378.432C89.2559 378.1 88.3184 377.934 86.9121 377.934C85.498 377.934 84.5586 378.1 84.0938 378.432C83.6289 378.761 83.3965 379.171 83.3965 379.663C83.3965 380.147 83.6016 380.534 84.0117 380.823C84.5352 381.186 85.502 381.368 86.9121 381.368Z" fill="white"/>
<path d="M68.953 385.758L71.1953 381.827L66.7107 381.827L68.953 385.758Z" fill="white"/>
<path d="M76.1348 340.411L77.1484 340.411L77.1484 346.089C76.8945 346.096 76.6504 346.055 76.416 345.966C76.0293 345.821 75.6484 345.591 75.2734 345.274C74.8984 344.954 74.4648 344.493 73.9727 343.891C73.207 342.958 72.6016 342.327 72.1563 341.999C71.707 341.671 71.2832 341.507 70.8848 341.507C70.4668 341.507 70.1152 341.657 69.8301 341.958C69.541 342.255 69.3965 342.643 69.3965 343.124C69.3965 343.632 69.5488 344.038 69.8535 344.343C70.1582 344.647 70.5801 344.802 71.1191 344.805L71.0078 345.889C70.1992 345.815 69.584 345.536 69.1621 345.052C68.7363 344.567 68.5234 343.917 68.5234 343.1C68.5234 342.276 68.752 341.624 69.209 341.143C69.666 340.663 70.2324 340.423 70.9082 340.423C71.252 340.423 71.5898 340.493 71.9219 340.634C72.2539 340.774 72.6035 341.009 72.9707 341.337C73.3379 341.661 73.8418 342.202 74.4824 342.96C75.0137 343.593 75.375 343.999 75.5664 344.178C75.7539 344.358 75.9434 344.507 76.1348 344.624L76.1348 340.411ZM86.9121 345.954C85.8965 345.954 85.0801 345.85 84.4629 345.643C83.8418 345.432 83.3633 345.122 83.0273 344.712C82.6914 344.298 82.5234 343.778 82.5234 343.153C82.5234 342.692 82.6172 342.288 82.8047 341.94C82.9883 341.593 83.2559 341.305 83.6074 341.079C83.9551 340.852 84.3809 340.675 84.8848 340.546C85.3848 340.417 86.0605 340.352 86.9121 340.352C87.9199 340.352 88.7344 340.456 89.3555 340.663C89.9727 340.87 90.4512 341.18 90.791 341.594C91.127 342.005 91.2949 342.524 91.2949 343.153C91.2949 343.981 90.998 344.632 90.4043 345.104C89.6895 345.671 88.5254 345.954 86.9121 345.954ZM86.9121 344.87C88.3223 344.87 89.2617 344.706 89.7305 344.378C90.1953 344.046 90.4277 343.637 90.4277 343.153C90.4277 342.669 90.1934 342.262 89.7246 341.934C89.2559 341.602 88.3184 341.436 86.9121 341.436C85.498 341.436 84.5586 341.602 84.0938 341.934C83.6289 342.262 83.3965 342.673 83.3965 343.165C83.3965 343.649 83.6016 344.036 84.0117 344.325C84.5352 344.688 85.502 344.87 86.9121 344.87Z" fill="white"/>
<path d="M68.953 349.259L71.1953 344.206L66.7107 344.206L68.953 349.259Z" fill="white"/>
<path d="M74.8809 310.011L74.7402 308.957C75.3379 308.836 75.7695 308.63 76.0352 308.341C76.2969 308.048 76.4277 307.693 76.4277 307.275C76.4277 306.779 76.2559 306.361 75.9121 306.021C75.5684 305.677 75.1426 305.505 74.6348 305.505C74.1504 305.505 73.752 305.664 73.4395 305.98C73.123 306.297 72.9648 306.699 72.9648 307.187C72.9648 307.386 73.0039 307.634 73.082 307.931L72.1563 307.814C72.1641 307.744 72.168 307.687 72.168 307.644C72.168 307.195 72.0508 306.791 71.8164 306.431C71.582 306.072 71.2207 305.892 70.7324 305.892C70.3457 305.892 70.0254 306.023 69.7715 306.285C69.5176 306.547 69.3906 306.884 69.3906 307.298C69.3906 307.709 69.5195 308.05 69.7773 308.324C70.0352 308.597 70.4219 308.773 70.9375 308.851L70.75 309.906C70.043 309.777 69.4961 309.484 69.1094 309.027C68.7188 308.57 68.5234 308.002 68.5234 307.322C68.5234 306.853 68.625 306.422 68.8281 306.027C69.0273 305.632 69.3008 305.332 69.6484 305.125C69.9961 304.914 70.3652 304.808 70.7559 304.808C71.127 304.808 71.4648 304.908 71.7695 305.107C72.0742 305.306 72.3164 305.601 72.4961 305.992C72.6133 305.484 72.8574 305.089 73.2285 304.808C73.5957 304.527 74.0566 304.386 74.6113 304.386C75.3613 304.386 75.998 304.66 76.5215 305.207C77.041 305.754 77.3008 306.445 77.3008 307.281C77.3008 308.035 77.0762 308.662 76.627 309.162C76.1777 309.658 75.5957 309.941 74.8809 310.011ZM86.9121 310.017C85.8965 310.017 85.0801 309.914 84.4629 309.707C83.8418 309.496 83.3633 309.185 83.0273 308.775C82.6914 308.361 82.5234 307.841 82.5234 307.216C82.5234 306.755 82.6172 306.351 82.8047 306.004C82.9883 305.656 83.2559 305.369 83.6074 305.142C83.9551 304.916 84.3809 304.738 84.8848 304.609C85.3848 304.48 86.0605 304.416 86.9121 304.416C87.9199 304.416 88.7344 304.519 89.3555 304.726C89.9727 304.933 90.4512 305.244 90.791 305.658C91.127 306.068 91.2949 306.588 91.2949 307.216C91.2949 308.045 90.998 308.695 90.4043 309.168C89.6895 309.734 88.5254 310.017 86.9121 310.017ZM86.9121 308.933C88.3223 308.933 89.2617 308.769 89.7305 308.441C90.1953 308.109 90.4277 307.701 90.4277 307.216C90.4277 306.732 90.1934 306.326 89.7246 305.998C89.2559 305.666 88.3184 305.5 86.9121 305.5C85.498 305.5 84.5586 305.666 84.0938 305.998C83.6289 306.326 83.3965 306.736 83.3965 307.228C83.3965 307.713 83.6016 308.099 84.0117 308.388C84.5352 308.752 85.502 308.933 86.9121 308.933Z" fill="white"/>
<path d="M68.953 313.884L71.1953 309.954L66.7107 309.954L68.953 313.884Z" fill="white"/>
<path d="M77.1484 270.7L75.0918 270.7L75.0918 274.426L74.125 274.426L68.5586 270.506L68.5586 269.645L74.125 269.645L74.125 268.485L75.0918 268.485L75.0918 269.645L77.1484 269.645L77.1484 270.7ZM74.125 270.7L70.252 270.7L74.125 273.389L74.125 270.7ZM86.9121 274.081C85.8965 274.081 85.0801 273.977 84.4629 273.77C83.8418 273.559 83.3633 273.249 83.0273 272.838C82.6914 272.424 82.5234 271.905 82.5234 271.28C82.5234 270.819 82.6172 270.415 82.8047 270.067C82.9883 269.719 83.2559 269.432 83.6074 269.206C83.9551 268.979 84.3809 268.801 84.8848 268.672C85.3848 268.543 86.0605 268.479 86.9121 268.479C87.9199 268.479 88.7344 268.583 89.3555 268.79C89.9727 268.997 90.4512 269.307 90.791 269.721C91.127 270.131 91.2949 270.651 91.2949 271.28C91.2949 272.108 90.998 272.758 90.4043 273.231C89.6895 273.797 88.5254 274.081 86.9121 274.081ZM86.9121 272.997C88.3223 272.997 89.2617 272.833 89.7305 272.504C90.1953 272.172 90.4277 271.764 90.4277 271.28C90.4277 270.795 90.1934 270.389 89.7246 270.061C89.2559 269.729 88.3184 269.563 86.9121 269.563C85.498 269.563 84.5586 269.729 84.0938 270.061C83.6289 270.389 83.3965 270.799 83.3965 271.292C83.3965 271.776 83.6016 272.163 84.0117 272.452C84.5352 272.815 85.502 272.997 86.9121 272.997Z" fill="white"/>
<path d="M68.953 279.632L71.1953 275.14L66.7107 275.14L68.953 279.632Z" fill="white"/>
<path d="M74.8984 238.144L74.8047 237.036C75.3438 236.954 75.75 236.765 76.0234 236.468C76.293 236.167 76.4277 235.806 76.4277 235.384C76.4277 234.876 76.2363 234.447 75.8535 234.095C75.4707 233.744 74.9629 233.568 74.3301 233.568C73.7285 233.568 73.2539 233.738 72.9063 234.078C72.5586 234.413 72.3848 234.855 72.3848 235.402C72.3848 235.742 72.4629 236.048 72.6191 236.322C72.7715 236.595 72.9707 236.81 73.2168 236.966L73.0879 237.956L68.6758 237.124L68.6758 232.853L69.6836 232.853L69.6836 236.281L71.9922 236.744C71.6328 236.228 71.4531 235.687 71.4531 235.12C71.4531 234.37 71.7129 233.738 72.2324 233.222C72.752 232.706 73.4199 232.449 74.2363 232.449C75.0137 232.449 75.6855 232.675 76.252 233.128C76.9473 233.679 77.2949 234.431 77.2949 235.384C77.2949 236.165 77.0762 236.804 76.6387 237.3C76.2012 237.792 75.6211 238.074 74.8984 238.144ZM86.9121 238.144C85.8965 238.144 85.0801 238.04 84.4629 237.833C83.8418 237.622 83.3633 237.312 83.0273 236.902C82.6914 236.488 82.5234 235.968 82.5234 235.343C82.5234 234.882 82.6172 234.478 82.8047 234.13C82.9883 233.783 83.2559 233.495 83.6074 233.269C83.9551 233.042 84.3809 232.865 84.8848 232.736C85.3848 232.607 86.0605 232.542 86.9121 232.542C87.9199 232.542 88.7344 232.646 89.3555 232.853C89.9727 233.06 90.4512 233.37 90.791 233.785C91.127 234.195 91.2949 234.714 91.2949 235.343C91.2949 236.171 90.998 236.822 90.4043 237.294C89.6895 237.861 88.5254 238.144 86.9121 238.144ZM86.9121 237.06C88.3223 237.06 89.2617 236.896 89.7305 236.568C90.1953 236.236 90.4277 235.828 90.4277 235.343C90.4277 234.859 90.1934 234.453 89.7246 234.124C89.2559 233.792 88.3184 233.626 86.9121 233.626C85.498 233.626 84.5586 233.792 84.0938 234.124C83.6289 234.453 83.3965 234.863 83.3965 235.355C83.3965 235.839 83.6016 236.226 84.0117 236.515C84.5352 236.878 85.502 237.06 86.9121 237.06Z" fill="white"/>
<path d="M77.1484 198.826L75.0918 198.826L75.0918 202.553L74.125 202.553L68.5586 198.633L68.5586 197.772L74.125 197.772L74.125 196.611L75.0918 196.611L75.0918 197.772L77.1484 197.772L77.1484 198.826ZM74.125 198.826L70.252 198.826L74.125 201.516L74.125 198.826ZM86.9121 202.207C85.8965 202.207 85.0801 202.104 84.4629 201.897C83.8418 201.686 83.3633 201.375 83.0273 200.965C82.6914 200.551 82.5234 200.031 82.5234 199.406C82.5234 198.945 82.6172 198.541 82.8047 198.193C82.9883 197.846 83.2559 197.559 83.6074 197.332C83.9551 197.106 84.3809 196.928 84.8848 196.799C85.3848 196.67 86.0605 196.606 86.9121 196.606C87.9199 196.606 88.7344 196.709 89.3555 196.916C89.9727 197.123 90.4512 197.434 90.791 197.848C91.127 198.258 91.2949 198.777 91.2949 199.406C91.2949 200.234 90.998 200.885 90.4043 201.358C89.6895 201.924 88.5254 202.207 86.9121 202.207ZM86.9121 201.123C88.3223 201.123 89.2617 200.959 89.7305 200.631C90.1953 200.299 90.4277 199.891 90.4277 199.406C90.4277 198.922 90.1934 198.516 89.7246 198.188C89.2559 197.856 88.3184 197.69 86.9121 197.69C85.498 197.69 84.5586 197.856 84.0938 198.188C83.6289 198.516 83.3965 198.926 83.3965 199.418C83.3965 199.902 83.6016 200.289 84.0117 200.578C84.5352 200.942 85.502 201.123 86.9121 201.123Z" fill="white"/>
<path d="M68.953 179.122L66.7107 183.614L71.1953 183.614L68.953 179.122Z" fill="white"/>
<path d="M74.8809 165.703L74.7402 164.648C75.3379 164.527 75.7695 164.322 76.0352 164.033C76.2969 163.74 76.4277 163.385 76.4277 162.967C76.4277 162.471 76.2559 162.053 75.9121 161.713C75.5684 161.369 75.1426 161.197 74.6348 161.197C74.1504 161.197 73.752 161.355 73.4395 161.672C73.123 161.988 72.9648 162.391 72.9648 162.879C72.9648 163.078 73.0039 163.326 73.082 163.623L72.1563 163.506C72.1641 163.436 72.168 163.379 72.168 163.336C72.168 162.887 72.0508 162.482 71.8164 162.123C71.582 161.764 71.2207 161.584 70.7324 161.584C70.3457 161.584 70.0254 161.715 69.7715 161.977C69.5176 162.238 69.3906 162.576 69.3906 162.99C69.3906 163.4 69.5195 163.742 69.7773 164.016C70.0352 164.289 70.4219 164.465 70.9375 164.543L70.75 165.598C70.043 165.469 69.4961 165.176 69.1094 164.719C68.7188 164.262 68.5234 163.693 68.5234 163.014C68.5234 162.545 68.625 162.113 68.8281 161.719C69.0273 161.324 69.3008 161.023 69.6484 160.816C69.9961 160.605 70.3652 160.5 70.7559 160.5C71.127 160.5 71.4648 160.6 71.7695 160.799C72.0742 160.998 72.3164 161.293 72.4961 161.684C72.6133 161.176 72.8574 160.781 73.2285 160.5C73.5957 160.219 74.0566 160.078 74.6113 160.078C75.3613 160.078 75.998 160.352 76.5215 160.898C77.041 161.445 77.3008 162.137 77.3008 162.973C77.3008 163.727 77.0762 164.354 76.627 164.854C76.1777 165.35 75.5957 165.633 74.8809 165.703ZM86.9121 165.709C85.8965 165.709 85.0801 165.605 84.4629 165.398C83.8418 165.188 83.3633 164.877 83.0273 164.467C82.6914 164.053 82.5234 163.533 82.5234 162.908C82.5234 162.447 82.6172 162.043 82.8047 161.695C82.9883 161.348 83.2559 161.061 83.6074 160.834C83.9551 160.607 84.3809 160.43 84.8848 160.301C85.3848 160.172 86.0605 160.107 86.9121 160.107C87.9199 160.107 88.7344 160.211 89.3555 160.418C89.9727 160.625 90.4512 160.936 90.791 161.35C91.127 161.76 91.2949 162.279 91.2949 162.908C91.2949 163.736 90.998 164.387 90.4043 164.859C89.6895 165.426 88.5254 165.709 86.9121 165.709ZM86.9121 164.625C88.3223 164.625 89.2617 164.461 89.7305 164.133C90.1953 163.801 90.4277 163.393 90.4277 162.908C90.4277 162.424 90.1934 162.018 89.7246 161.689C89.2559 161.357 88.3184 161.191 86.9121 161.191C85.498 161.191 84.5586 161.357 84.0938 161.689C83.6289 162.018 83.3965 162.428 83.3965 162.92C83.3965 163.404 83.6016 163.791 84.0117 164.08C84.5352 164.443 85.502 164.625 86.9121 164.625Z" fill="white"/>
<path d="M68.953 142.624L66.7107 147.116L71.1953 147.116L68.953 142.624Z" fill="white"/>
<path d="M76.1348 123.668L77.1484 123.668L77.1484 129.346C76.8945 129.353 76.6504 129.312 76.416 129.223C76.0293 129.078 75.6484 128.848 75.2734 128.531C74.8984 128.211 74.4648 127.75 73.9727 127.148C73.207 126.215 72.6016 125.584 72.1563 125.256C71.707 124.928 71.2832 124.764 70.8848 124.764C70.4668 124.764 70.1152 124.914 69.8301 125.215C69.541 125.512 69.3965 125.9 69.3965 126.381C69.3965 126.889 69.5488 127.295 69.8535 127.599C70.1582 127.904 70.5801 128.058 71.1191 128.062L71.0078 129.146C70.1992 129.072 69.584 128.793 69.1621 128.308C68.7363 127.824 68.5234 127.174 68.5234 126.357C68.5234 125.533 68.752 124.881 69.209 124.4C69.666 123.92 70.2324 123.68 70.9082 123.68C71.252 123.68 71.5898 123.75 71.9219 123.891C72.2539 124.031 72.6035 124.266 72.9707 124.594C73.3379 124.918 73.8418 125.459 74.4824 126.217C75.0137 126.849 75.375 127.256 75.5664 127.435C75.7539 127.615 75.9434 127.764 76.1348 127.881L76.1348 123.668ZM86.9121 129.211C85.8965 129.211 85.0801 129.107 84.4629 128.9C83.8418 128.689 83.3633 128.379 83.0273 127.969C82.6914 127.555 82.5234 127.035 82.5234 126.41C82.5234 125.949 82.6172 125.545 82.8047 125.197C82.9883 124.849 83.2559 124.562 83.6074 124.336C83.9551 124.109 84.3809 123.932 84.8848 123.803C85.3848 123.674 86.0605 123.609 86.9121 123.609C87.9199 123.609 88.7344 123.713 89.3555 123.92C89.9727 124.127 90.4512 124.437 90.791 124.851C91.127 125.262 91.2949 125.781 91.2949 126.41C91.2949 127.238 90.998 127.889 90.4043 128.361C89.6895 128.928 88.5254 129.211 86.9121 129.211ZM86.9121 128.127C88.3223 128.127 89.2617 127.963 89.7305 127.635C90.1953 127.303 90.4277 126.894 90.4277 126.41C90.4277 125.926 90.1934 125.519 89.7246 125.191C89.2559 124.859 88.3184 124.693 86.9121 124.693C85.498 124.693 84.5586 124.859 84.0938 125.191C83.6289 125.519 83.3965 125.93 83.3965 126.422C83.3965 126.906 83.6016 127.293 84.0117 127.582C84.5352 127.945 85.502 128.127 86.9121 128.127Z" fill="white"/>
<path d="M68.953 106.687L66.7107 110.618L71.1953 110.618L68.953 106.687Z" fill="white"/>
<path d="M77.1484 89.3015L77.1484 90.3562L70.4277 90.3562C70.6699 90.6101 70.9121 90.9441 71.1543 91.3582C71.3965 91.7683 71.5781 92.1375 71.6992 92.4656L70.6797 92.4656C70.4023 91.8757 70.0664 91.3601 69.6719 90.9187C69.2773 90.4773 68.8945 90.1648 68.5234 89.9812L68.5234 89.3015L77.1484 89.3015ZM86.9121 93.2742C85.8965 93.2742 85.0801 93.1707 84.4629 92.9636C83.8418 92.7527 83.3633 92.4421 83.0273 92.032C82.6914 91.6179 82.5234 91.0984 82.5234 90.4734C82.5234 90.0125 82.6172 89.6082 82.8047 89.2605C82.9883 88.9128 83.2559 88.6257 83.6074 88.3992C83.9551 88.1726 84.3809 87.9949 84.8848 87.866C85.3848 87.7371 86.0605 87.6726 86.9121 87.6726C87.9199 87.6726 88.7344 87.7761 89.3555 87.9832C89.9727 88.1902 90.4512 88.5007 90.791 88.9148C91.127 89.325 91.2949 89.8445 91.2949 90.4734C91.2949 91.3015 90.998 91.9519 90.4043 92.4246C89.6895 92.991 88.5254 93.2742 86.9121 93.2742ZM86.9121 92.1902C88.3223 92.1902 89.2617 92.0261 89.7305 91.698C90.1953 91.366 90.4277 90.9578 90.4277 90.4734C90.4277 89.989 90.1934 89.5828 89.7246 89.2546C89.2559 88.9226 88.3184 88.7566 86.9121 88.7566C85.498 88.7566 84.5586 88.9226 84.0938 89.2546C83.6289 89.5828 83.3965 89.9929 83.3965 90.4851C83.3965 90.9695 83.6016 91.3562 84.0117 91.6453C84.5352 92.0085 85.502 92.1902 86.9121 92.1902Z" fill="white"/>
<path d="M68.953 70.7502L66.7107 74.6808L71.1953 74.6808L68.953 70.7502Z" fill="white"/>
<path d="M146.312 49.4129L146.312 38.839L146.312 22.4604" stroke="white" stroke-width="3" stroke-linecap="round" stroke-linejoin="round"/>
<path d="M127.25 49.4129L127.25 38.839L127.25 22.4604" stroke="white" stroke-width="3" stroke-linecap="round" stroke-linejoin="round"/>
<path d="M127.253 39.3057L146.312 39.3057" stroke="white" stroke-width="3" stroke-linecap="round" stroke-linejoin="round"/>
<path d="M146.312 437.417L146.312 421.038L146.312 410.464" stroke="white" stroke-width="3" stroke-linecap="round" stroke-linejoin="round"/>
<path d="M127.25 437.417L127.25 421.038L127.25 410.464" stroke="white" stroke-width="3" stroke-linecap="round" stroke-linejoin="round"/>
<path d="M146.312 421.133L127.253 421.133" stroke="white" stroke-width="3" stroke-linecap="round" stroke-linejoin="round"/>
<g clip-path="url(#clip1_6049_11312)">
<path d="M155.026 178.39C158.548 178.39 161.403 175.126 161.403 171.101C161.403 167.076 158.548 163.813 155.026 163.813C151.504 163.813 148.648 167.076 148.648 171.101C148.648 175.126 151.504 178.39 155.026 178.39Z" fill="url(#paint0_radial_6049_11312)"/>
<g opacity="0.5">
<path d="M155.023 178.142C153.856 178.142 152.72 177.768 151.738 177.059C150.782 176.37 150.011 175.395 149.507 174.242C149.472 174.162 149.501 174.065 149.571 174.025C149.64 173.985 149.725 174.018 149.76 174.097C150.763 176.393 152.779 177.819 155.023 177.819C155.7 177.819 156.364 177.688 156.996 177.431C157.07 177.401 157.151 177.445 157.177 177.529C157.203 177.613 157.165 177.706 157.091 177.735C156.429 178.005 155.733 178.142 155.023 178.142Z" fill="url(#paint1_linear_6049_11312)"/>
</g>
<path d="M160.866 170.037C160.799 170.037 160.74 169.982 160.727 169.904C160.225 166.759 157.827 164.477 155.025 164.477C153.707 164.477 152.464 164.97 151.432 165.902C151.371 165.958 151.282 165.946 151.234 165.876C151.185 165.806 151.196 165.704 151.257 165.649C151.782 165.174 152.367 164.804 152.996 164.55C153.646 164.287 154.329 164.153 155.025 164.153C156.457 164.153 157.847 164.733 158.94 165.785C160.02 166.825 160.754 168.267 161.006 169.846C161.02 169.934 160.969 170.018 160.892 170.034C160.883 170.036 160.875 170.037 160.866 170.037Z" fill="url(#paint2_linear_6049_11312)"/>
</g>
</g>
<defs>
<radialGradient id="paint0_radial_6049_11312" cx="0" cy="0" r="1" gradientUnits="userSpaceOnUse" gradientTransform="translate(155.026 171.101) scale(6.37723 7.28826)">
<stop stop-color="#4681F5"/>
<stop offset="1" stop-color="#0078E6"/>
</radialGradient>
<linearGradient id="paint1_linear_6049_11312" x1="149.492" y1="176.075" x2="157.185" y2="176.075" gradientUnits="userSpaceOnUse">
<stop stop-color="white" stop-opacity="0"/>
<stop offset="0.5" stop-color="white"/>
<stop offset="0.999999" stop-color="white" stop-opacity="0"/>
</linearGradient>
<linearGradient id="paint2_linear_6049_11312" x1="151.203" y1="167.095" x2="161.008" y2="167.095" gradientUnits="userSpaceOnUse">
<stop stop-color="white" stop-opacity="0"/>
<stop offset="0.5" stop-color="white"/>
<stop offset="0.999999" stop-color="white" stop-opacity="0"/>
</linearGradient>
<clipPath id="clip0_6049_11312">
<rect width="461" height="273" fill="white" transform="translate(273) rotate(90)"/>
</clipPath>
<clipPath id="clip1_6049_11312">
<rect width="14" height="16" fill="white" transform="translate(148 163)"/>
</clipPath>
</defs>
</svg>
