<svg width="275" height="464" viewBox="0 0 275 464" fill="none" xmlns="http://www.w3.org/2000/svg">
<g clip-path="url(#clip0_6145_8892)">
<path d="M271.937 453.482L271.937 11.0457C271.937 7.17965 268.803 4.04565 264.937 4.04565L12.0546 4.04564C8.18857 4.04564 5.05457 7.17968 5.05457 11.0457L5.05455 453.482C5.05455 457.348 8.18858 460.482 12.0546 460.482L264.937 460.482C268.803 460.482 271.937 457.348 271.937 453.482Z" fill="#1BB24B" stroke="#192F20" stroke-width="6"/>
<path d="M260.883 450.436L260.883 13.564L14.6816 13.564L14.6816 450.436L260.883 450.436Z" stroke="white" stroke-width="3" stroke-linecap="round" stroke-linejoin="round"/>
<path d="M14.6816 49.7344L260.883 49.7344" stroke="white" stroke-width="3" stroke-linecap="round" stroke-linejoin="round"/>
<path d="M260.883 86.4702L224.861 86.4702L14.6816 86.4702" stroke="white" stroke-width="3" stroke-linecap="round" stroke-linejoin="round"/>
<path d="M260.883 123.206L224.861 123.206L14.6816 123.206" stroke="white" stroke-width="3" stroke-linecap="round" stroke-linejoin="round"/>
<path d="M260.883 159.376L224.861 159.376L14.6816 159.376" stroke="white" stroke-width="3" stroke-linecap="round" stroke-linejoin="round"/>
<path d="M260.883 195.547L224.861 195.547L14.6816 195.547" stroke="white" stroke-width="3" stroke-linecap="round" stroke-linejoin="round"/>
<path d="M260.883 231.718L224.861 231.718L14.6816 231.718" stroke="white" stroke-width="3" stroke-linecap="round" stroke-linejoin="round"/>
<path d="M260.883 267.888L224.861 267.888L14.6816 267.888" stroke="white" stroke-width="3" stroke-linecap="round" stroke-linejoin="round"/>
<path d="M260.883 304.058L224.861 304.058L14.6816 304.058" stroke="white" stroke-width="3" stroke-linecap="round" stroke-linejoin="round"/>
<path d="M260.883 340.794L224.861 340.794L14.6816 340.794" stroke="white" stroke-width="3" stroke-linecap="round" stroke-linejoin="round"/>
<path d="M260.883 376.965L224.861 376.965L14.6816 376.965" stroke="white" stroke-width="3" stroke-linecap="round" stroke-linejoin="round"/>
<path d="M16.3175 412.005L259.695 412.005" stroke="white" stroke-width="3" stroke-linecap="round" stroke-linejoin="round"/>
<path d="M224.742 75.1667L224.742 96.643" stroke="white" stroke-width="3" stroke-linecap="round" stroke-linejoin="round"/>
<path d="M188.602 75.1667L188.602 96.643" stroke="white" stroke-width="3" stroke-linecap="round" stroke-linejoin="round"/>
<path d="M224.742 112.468L224.742 133.944" stroke="white" stroke-width="3" stroke-linecap="round" stroke-linejoin="round"/>
<path d="M188.602 112.468L188.602 133.944" stroke="white" stroke-width="3" stroke-linecap="round" stroke-linejoin="round"/>
<path d="M224.742 148.638L224.742 169.549" stroke="white" stroke-width="3" stroke-linecap="round" stroke-linejoin="round"/>
<path d="M188.602 148.638L188.602 169.549" stroke="white" stroke-width="3" stroke-linecap="round" stroke-linejoin="round"/>
<path d="M224.742 184.244L224.742 205.72" stroke="white" stroke-width="3" stroke-linecap="round" stroke-linejoin="round"/>
<path d="M188.602 184.244L188.602 205.72" stroke="white" stroke-width="3" stroke-linecap="round" stroke-linejoin="round"/>
<path d="M224.742 222.11L224.742 242.456" stroke="white" stroke-width="3" stroke-linecap="round" stroke-linejoin="round"/>
<path d="M188.602 222.11L188.602 242.456" stroke="white" stroke-width="3" stroke-linecap="round" stroke-linejoin="round"/>
<path d="M224.742 258.28L224.742 278.626" stroke="white" stroke-width="3" stroke-linecap="round" stroke-linejoin="round"/>
<path d="M188.602 258.28L188.602 278.626" stroke="white" stroke-width="3" stroke-linecap="round" stroke-linejoin="round"/>
<path d="M224.742 293.885L224.742 314.231" stroke="white" stroke-width="3" stroke-linecap="round" stroke-linejoin="round"/>
<path d="M188.602 293.885L188.602 314.231" stroke="white" stroke-width="3" stroke-linecap="round" stroke-linejoin="round"/>
<path d="M224.742 330.621L224.742 352.097" stroke="white" stroke-width="3" stroke-linecap="round" stroke-linejoin="round"/>
<path d="M188.602 330.621L188.602 352.097" stroke="white" stroke-width="3" stroke-linecap="round" stroke-linejoin="round"/>
<path d="M224.742 366.792L224.742 387.703" stroke="white" stroke-width="3" stroke-linecap="round" stroke-linejoin="round"/>
<path d="M188.602 366.792L188.602 387.703" stroke="white" stroke-width="3" stroke-linecap="round" stroke-linejoin="round"/>
<path d="M197.93 83.0286L197.93 81.9739L204.65 81.9739C204.408 81.72 204.166 81.386 203.924 80.9719C203.682 80.5618 203.5 80.1926 203.379 79.8645L204.398 79.8645C204.676 80.4543 205.012 80.97 205.406 81.4114C205.801 81.8528 206.184 82.1653 206.555 82.3489L206.555 83.0286L197.93 83.0286ZM202.166 85.7356C203.182 85.7356 203.998 85.8391 204.615 86.0461C205.236 86.2571 205.715 86.5676 206.051 86.9778C206.387 87.3918 206.555 87.9114 206.555 88.5364C206.555 88.9973 206.461 89.4016 206.273 89.7493C206.09 90.0969 205.822 90.384 205.471 90.6106C205.123 90.8372 204.697 91.0149 204.193 91.1438C203.693 91.2727 203.018 91.3372 202.166 91.3372C201.158 91.3372 200.344 91.2336 199.723 91.0266C199.105 90.8196 198.627 90.509 198.287 90.095C197.951 89.6848 197.783 89.1653 197.783 88.5364C197.783 87.7083 198.08 87.0579 198.674 86.5852C199.389 86.0188 200.553 85.7356 202.166 85.7356ZM202.166 86.8196C200.756 86.8196 199.816 86.9836 199.348 87.3118C198.883 87.6438 198.65 88.052 198.65 88.5364C198.65 89.0208 198.885 89.427 199.354 89.7551C199.822 90.0872 200.76 90.2532 202.166 90.2532C203.58 90.2532 204.52 90.0872 204.984 89.7551C205.449 89.427 205.682 89.0168 205.682 88.5247C205.682 88.0403 205.477 87.6536 205.066 87.3645C204.543 87.0012 203.576 86.8196 202.166 86.8196Z" fill="white"/>
<path d="M206.389 75.7319L203.848 79.6881L208.93 79.6881L206.389 75.7319Z" fill="white"/>
<path d="M198.943 120.769L197.93 120.769L197.93 115.092C198.184 115.084 198.428 115.125 198.662 115.215C199.049 115.359 199.43 115.59 199.805 115.906C200.18 116.226 200.613 116.687 201.105 117.289C201.871 118.222 202.477 118.853 202.922 119.181C203.371 119.51 203.795 119.674 204.193 119.674C204.611 119.674 204.963 119.523 205.248 119.222C205.537 118.926 205.682 118.537 205.682 118.056C205.682 117.549 205.529 117.142 205.225 116.838C204.92 116.533 204.498 116.379 203.959 116.375L204.07 115.291C204.879 115.365 205.494 115.644 205.916 116.129C206.342 116.613 206.555 117.263 206.555 118.08C206.555 118.904 206.326 119.556 205.869 120.037C205.412 120.517 204.846 120.758 204.17 120.758C203.826 120.758 203.488 120.687 203.156 120.547C202.824 120.406 202.475 120.172 202.107 119.844C201.74 119.519 201.236 118.978 200.596 118.22C200.064 117.588 199.703 117.181 199.512 117.002C199.324 116.822 199.135 116.674 198.943 116.556L198.943 120.769ZM202.166 121.906C203.182 121.906 203.998 122.01 204.615 122.217C205.236 122.427 205.715 122.738 206.051 123.148C206.387 123.562 206.555 124.082 206.555 124.707C206.555 125.168 206.461 125.572 206.273 125.92C206.09 126.267 205.822 126.554 205.471 126.781C205.123 127.008 204.697 127.185 204.193 127.314C203.693 127.443 203.018 127.508 202.166 127.508C201.158 127.508 200.344 127.404 199.723 127.197C199.105 126.99 198.627 126.679 198.287 126.265C197.951 125.855 197.783 125.336 197.783 124.707C197.783 123.879 198.08 123.228 198.674 122.756C199.389 122.189 200.553 121.906 202.166 121.906ZM202.166 122.99C200.756 122.99 199.816 123.154 199.348 123.482C198.883 123.814 198.65 124.222 198.65 124.707C198.65 125.191 198.885 125.597 199.354 125.926C199.822 126.258 200.76 126.424 202.166 126.424C203.58 126.424 204.52 126.258 204.984 125.926C205.449 125.597 205.682 125.187 205.682 124.695C205.682 124.211 205.477 123.824 205.066 123.535C204.543 123.172 203.576 122.99 202.166 122.99Z" fill="white"/>
<path d="M206.389 112.468L203.848 116.424L208.93 116.424L206.389 112.468Z" fill="white"/>
<path d="M200.197 150.838L200.338 151.892C199.74 152.013 199.309 152.219 199.043 152.508C198.781 152.801 198.65 153.156 198.65 153.574C198.65 154.07 198.822 154.488 199.166 154.828C199.51 155.172 199.936 155.344 200.443 155.344C200.928 155.344 201.326 155.185 201.639 154.869C201.955 154.552 202.113 154.15 202.113 153.662C202.113 153.463 202.074 153.215 201.996 152.918L202.922 153.035C202.914 153.105 202.91 153.162 202.91 153.205C202.91 153.654 203.027 154.058 203.262 154.418C203.496 154.777 203.857 154.957 204.346 154.957C204.732 154.957 205.053 154.826 205.307 154.564C205.561 154.302 205.687 153.965 205.687 153.551C205.687 153.14 205.559 152.799 205.301 152.525C205.043 152.252 204.656 152.076 204.141 151.998L204.328 150.943C205.035 151.072 205.582 151.365 205.969 151.822C206.359 152.279 206.555 152.847 206.555 153.527C206.555 153.996 206.453 154.427 206.25 154.822C206.051 155.217 205.777 155.517 205.43 155.724C205.082 155.935 204.713 156.041 204.322 156.041C203.951 156.041 203.613 155.941 203.309 155.742C203.004 155.543 202.762 155.248 202.582 154.857C202.465 155.365 202.221 155.76 201.85 156.041C201.482 156.322 201.021 156.463 200.467 156.463C199.717 156.463 199.08 156.189 198.557 155.642C198.037 155.095 197.777 154.404 197.777 153.568C197.777 152.814 198.002 152.187 198.451 151.687C198.9 151.191 199.482 150.908 200.197 150.838ZM202.166 157.511C203.182 157.511 203.998 157.615 204.615 157.822C205.236 158.033 205.715 158.344 206.051 158.754C206.387 159.168 206.555 159.687 206.555 160.312C206.555 160.773 206.461 161.177 206.273 161.525C206.09 161.873 205.822 162.16 205.471 162.386C205.123 162.613 204.697 162.791 204.193 162.92C203.693 163.049 203.018 163.113 202.166 163.113C201.158 163.113 200.344 163.01 199.723 162.802C199.105 162.595 198.627 162.285 198.287 161.871C197.951 161.461 197.783 160.941 197.783 160.312C197.783 159.484 198.08 158.834 198.674 158.361C199.389 157.795 200.553 157.511 202.166 157.511ZM202.166 158.595C200.756 158.595 199.816 158.76 199.348 159.088C198.883 159.42 198.65 159.828 198.65 160.312C198.65 160.797 198.885 161.203 199.354 161.531C199.822 161.863 200.76 162.029 202.166 162.029C203.58 162.029 204.52 161.863 204.984 161.531C205.449 161.203 205.682 160.793 205.682 160.301C205.682 159.816 205.477 159.429 205.066 159.14C204.543 158.777 203.576 158.595 202.166 158.595Z" fill="white"/>
<path d="M206.389 146.943L203.848 151.464L208.93 151.464L206.389 146.943Z" fill="white"/>
<path d="M197.93 191.513L199.986 191.513L199.986 187.787L200.953 187.787L206.52 191.707L206.52 192.568L200.953 192.568L200.953 193.728L199.986 193.728L199.986 192.568L197.93 192.568L197.93 191.513ZM200.953 191.513L204.826 191.513L200.953 188.824L200.953 191.513ZM202.166 194.812C203.182 194.812 203.998 194.916 204.615 195.123C205.236 195.334 205.715 195.644 206.051 196.054C206.387 196.469 206.555 196.988 206.555 197.613C206.555 198.074 206.461 198.478 206.273 198.826C206.09 199.174 205.822 199.461 205.471 199.687C205.123 199.914 204.697 200.092 204.193 200.22C203.693 200.349 203.018 200.414 202.166 200.414C201.158 200.414 200.344 200.31 199.723 200.103C199.105 199.896 198.627 199.586 198.287 199.172C197.951 198.761 197.783 198.242 197.783 197.613C197.783 196.785 198.08 196.135 198.674 195.662C199.389 195.095 200.553 194.812 202.166 194.812ZM202.166 195.896C200.756 195.896 199.816 196.06 199.348 196.388C198.883 196.72 198.65 197.129 198.65 197.613C198.65 198.097 198.885 198.504 199.354 198.832C199.822 199.164 200.76 199.33 202.166 199.33C203.58 199.33 204.52 199.164 204.984 198.832C205.449 198.504 205.682 198.094 205.682 197.601C205.682 197.117 205.477 196.73 205.066 196.441C204.543 196.078 203.576 195.896 202.166 195.896Z" fill="white"/>
<path d="M206.389 181.983L203.848 185.939L208.93 185.939L206.389 181.983Z" fill="white"/>
<path d="M200.18 224.303L200.273 225.411C199.734 225.493 199.328 225.682 199.055 225.979C198.785 226.28 198.65 226.641 198.65 227.063C198.65 227.571 198.842 228 199.225 228.352C199.607 228.704 200.115 228.879 200.748 228.879C201.35 228.879 201.824 228.709 202.172 228.37C202.52 228.034 202.693 227.592 202.693 227.045C202.693 226.706 202.615 226.399 202.459 226.125C202.307 225.852 202.107 225.637 201.861 225.481L201.99 224.491L206.402 225.323L206.402 229.594L205.395 229.594L205.395 226.167L203.086 225.704C203.445 226.219 203.625 226.76 203.625 227.327C203.625 228.077 203.365 228.709 202.846 229.225C202.326 229.741 201.658 229.999 200.842 229.999C200.064 229.999 199.393 229.772 198.826 229.319C198.131 228.768 197.783 228.016 197.783 227.063C197.783 226.282 198.002 225.643 198.439 225.147C198.877 224.655 199.457 224.374 200.18 224.303ZM202.166 230.983C203.182 230.983 203.998 231.086 204.615 231.293C205.236 231.504 205.715 231.815 206.051 232.225C206.387 232.639 206.555 233.159 206.555 233.784C206.555 234.245 206.461 234.649 206.273 234.997C206.09 235.344 205.822 235.631 205.471 235.858C205.123 236.084 204.697 236.262 204.193 236.391C203.693 236.52 203.018 236.584 202.166 236.584C201.158 236.584 200.344 236.481 199.723 236.274C199.105 236.067 198.627 235.756 198.287 235.342C197.951 234.932 197.783 234.413 197.783 233.784C197.783 232.956 198.08 232.305 198.674 231.833C199.389 231.266 200.553 230.983 202.166 230.983ZM202.166 232.067C200.756 232.067 199.816 232.231 199.348 232.559C198.883 232.891 198.65 233.299 198.65 233.784C198.65 234.268 198.885 234.674 199.354 235.002C199.822 235.334 200.76 235.5 202.166 235.5C203.58 235.5 204.52 235.334 204.984 235.002C205.449 234.674 205.682 234.264 205.682 233.772C205.682 233.288 205.477 232.901 205.066 232.612C204.543 232.249 203.576 232.067 202.166 232.067Z" fill="white"/>
<path d="M197.93 263.854L199.986 263.854L199.986 260.128L200.953 260.128L206.52 264.048L206.52 264.909L200.953 264.909L200.953 266.069L199.986 266.069L199.986 264.909L197.93 264.909L197.93 263.854ZM200.953 263.854L204.826 263.854L200.953 261.165L200.953 263.854ZM202.166 267.153C203.182 267.153 203.998 267.257 204.615 267.464C205.236 267.675 205.715 267.985 206.051 268.396C206.387 268.81 206.555 269.329 206.555 269.954C206.555 270.415 206.461 270.819 206.273 271.167C206.09 271.515 205.822 271.802 205.471 272.028C205.123 272.255 204.697 272.433 204.193 272.562C203.693 272.69 203.018 272.755 202.166 272.755C201.158 272.755 200.344 272.651 199.723 272.444C199.105 272.237 198.627 271.927 198.287 271.513C197.951 271.103 197.783 270.583 197.783 269.954C197.783 269.126 198.08 268.476 198.674 268.003C199.389 267.437 200.553 267.153 202.166 267.153ZM202.166 268.237C200.756 268.237 199.816 268.401 199.348 268.729C198.883 269.062 198.65 269.47 198.65 269.954C198.65 270.438 198.885 270.845 199.354 271.173C199.822 271.505 200.76 271.671 202.166 271.671C203.58 271.671 204.52 271.505 204.984 271.173C205.449 270.845 205.682 270.435 205.682 269.942C205.682 269.458 205.477 269.071 205.066 268.782C204.543 268.419 203.576 268.237 202.166 268.237Z" fill="white"/>
<path d="M206.389 282.582L208.93 278.626L203.848 278.626L206.389 282.582Z" fill="white"/>
<path d="M200.197 296.65L200.338 297.705C199.74 297.826 199.309 298.031 199.043 298.32C198.781 298.613 198.65 298.969 198.65 299.386C198.65 299.883 198.822 300.301 199.166 300.64C199.51 300.984 199.936 301.156 200.443 301.156C200.928 301.156 201.326 300.998 201.639 300.681C201.955 300.365 202.113 299.963 202.113 299.474C202.113 299.275 202.074 299.027 201.996 298.73L202.922 298.847C202.914 298.918 202.91 298.974 202.91 299.017C202.91 299.467 203.027 299.871 203.262 300.23C203.496 300.59 203.857 300.769 204.346 300.769C204.732 300.769 205.053 300.638 205.307 300.377C205.561 300.115 205.687 299.777 205.687 299.363C205.687 298.953 205.559 298.611 205.301 298.338C205.043 298.064 204.656 297.888 204.141 297.81L204.328 296.756C205.035 296.885 205.582 297.177 205.969 297.635C206.359 298.092 206.555 298.66 206.555 299.34C206.555 299.808 206.453 300.24 206.25 300.635C206.051 301.029 205.777 301.33 205.43 301.537C205.082 301.748 204.713 301.853 204.322 301.853C203.951 301.853 203.613 301.754 203.309 301.554C203.004 301.355 202.762 301.06 202.582 300.67C202.465 301.177 202.221 301.572 201.85 301.853C201.482 302.135 201.021 302.275 200.467 302.275C199.717 302.275 199.08 302.002 198.557 301.455C198.037 300.908 197.777 300.217 197.777 299.381C197.777 298.627 198.002 298 198.451 297.5C198.9 297.004 199.482 296.72 200.197 296.65ZM202.166 303.324C203.182 303.324 203.998 303.427 204.615 303.635C205.236 303.845 205.715 304.156 206.051 304.566C206.387 304.98 206.555 305.5 206.555 306.125C206.555 306.586 206.461 306.99 206.273 307.338C206.09 307.685 205.822 307.972 205.471 308.199C205.123 308.426 204.697 308.603 204.193 308.732C203.693 308.861 203.018 308.926 202.166 308.926C201.158 308.926 200.344 308.822 199.723 308.615C199.105 308.408 198.627 308.097 198.287 307.683C197.951 307.273 197.783 306.754 197.783 306.125C197.783 305.297 198.08 304.646 198.674 304.174C199.389 303.607 200.553 303.324 202.166 303.324ZM202.166 304.408C200.756 304.408 199.816 304.572 199.348 304.9C198.883 305.232 198.65 305.64 198.65 306.125C198.65 306.609 198.885 307.015 199.354 307.344C199.822 307.676 200.76 307.842 202.166 307.842C203.58 307.842 204.52 307.676 204.984 307.344C205.449 307.015 205.682 306.605 205.682 306.113C205.682 305.629 205.477 305.242 205.066 304.953C204.543 304.59 203.576 304.408 202.166 304.408Z" fill="white"/>
<path d="M206.389 319.883L208.93 315.362L203.848 315.362L206.389 319.883Z" fill="white"/>
<path d="M198.943 339.488L197.93 339.488L197.93 333.81C198.184 333.802 198.428 333.844 198.662 333.933C199.049 334.078 199.43 334.308 199.805 334.625C200.18 334.945 200.613 335.406 201.105 336.008C201.871 336.941 202.477 337.572 202.922 337.9C203.371 338.228 203.795 338.392 204.193 338.392C204.611 338.392 204.963 338.242 205.248 337.941C205.537 337.644 205.682 337.256 205.682 336.775C205.682 336.267 205.529 335.861 205.225 335.556C204.92 335.252 204.498 335.097 203.959 335.094L204.07 334.01C204.879 334.084 205.494 334.363 205.916 334.847C206.342 335.332 206.555 335.982 206.555 336.799C206.555 337.623 206.326 338.275 205.869 338.756C205.412 339.236 204.846 339.476 204.17 339.476C203.826 339.476 203.488 339.406 203.156 339.265C202.824 339.125 202.475 338.89 202.107 338.562C201.74 338.238 201.236 337.697 200.596 336.939C200.064 336.306 199.703 335.9 199.512 335.72C199.324 335.541 199.135 335.392 198.943 335.275L198.943 339.488ZM202.166 340.625C203.182 340.625 203.998 340.728 204.615 340.935C205.236 341.146 205.715 341.457 206.051 341.867C206.387 342.281 206.555 342.801 206.555 343.426C206.555 343.886 206.461 344.291 206.273 344.638C206.09 344.986 205.822 345.273 205.471 345.5C205.123 345.726 204.697 345.904 204.193 346.033C203.693 346.162 203.018 346.226 202.166 346.226C201.158 346.226 200.344 346.123 199.723 345.916C199.105 345.709 198.627 345.398 198.287 344.984C197.951 344.574 197.783 344.054 197.783 343.426C197.783 342.597 198.08 341.947 198.674 341.474C199.389 340.908 200.553 340.625 202.166 340.625ZM202.166 341.709C200.756 341.709 199.816 341.873 199.348 342.201C198.883 342.533 198.65 342.941 198.65 343.426C198.65 343.91 198.885 344.316 199.354 344.644C199.822 344.976 200.76 345.142 202.166 345.142C203.58 345.142 204.52 344.976 204.984 344.644C205.449 344.316 205.682 343.906 205.682 343.414C205.682 342.929 205.477 342.543 205.066 342.254C204.543 341.89 203.576 341.709 202.166 341.709Z" fill="white"/>
<path d="M206.389 356.619L208.93 352.663L203.848 352.663L206.389 356.619Z" fill="white"/>
<path d="M197.93 374.088L197.93 373.033L204.65 373.033C204.408 372.78 204.166 372.446 203.924 372.031C203.682 371.621 203.5 371.252 203.379 370.924L204.398 370.924C204.676 371.514 205.012 372.03 205.406 372.471C205.801 372.912 206.184 373.225 206.555 373.408L206.555 374.088L197.93 374.088ZM202.166 376.795C203.182 376.795 203.998 376.899 204.615 377.106C205.236 377.317 205.715 377.627 206.051 378.037C206.387 378.451 206.555 378.971 206.555 379.596C206.555 380.057 206.461 380.461 206.273 380.809C206.09 381.156 205.822 381.444 205.471 381.67C205.123 381.897 204.697 382.074 204.193 382.203C203.693 382.332 203.018 382.397 202.166 382.397C201.158 382.397 200.344 382.293 199.723 382.086C199.105 381.879 198.627 381.569 198.287 381.155C197.951 380.744 197.783 380.225 197.783 379.596C197.783 378.768 198.08 378.117 198.674 377.645C199.389 377.078 200.553 376.795 202.166 376.795ZM202.166 377.879C200.756 377.879 199.816 378.043 199.348 378.371C198.883 378.703 198.65 379.112 198.65 379.596C198.65 380.08 198.885 380.487 199.354 380.815C199.822 381.147 200.76 381.313 202.166 381.313C203.58 381.313 204.52 381.147 204.984 380.815C205.449 380.487 205.682 380.076 205.682 379.584C205.682 379.1 205.477 378.713 205.066 378.424C204.543 378.061 203.576 377.879 202.166 377.879Z" fill="white"/>
<path d="M206.389 392.224L208.93 388.268L203.848 388.268L206.389 392.224Z" fill="white"/>
<path d="M50.8203 388.268L50.8203 367.357" stroke="white" stroke-width="3" stroke-linecap="round" stroke-linejoin="round"/>
<path d="M86.9609 388.268L86.9609 367.357" stroke="white" stroke-width="3" stroke-linecap="round" stroke-linejoin="round"/>
<path d="M50.8203 351.532L50.8203 330.056" stroke="white" stroke-width="3" stroke-linecap="round" stroke-linejoin="round"/>
<path d="M86.9609 351.532L86.9609 330.056" stroke="white" stroke-width="3" stroke-linecap="round" stroke-linejoin="round"/>
<path d="M50.8203 314.797L50.8203 294.451" stroke="white" stroke-width="3" stroke-linecap="round" stroke-linejoin="round"/>
<path d="M86.9609 314.797L86.9609 294.451" stroke="white" stroke-width="3" stroke-linecap="round" stroke-linejoin="round"/>
<path d="M50.8203 278.626L50.8203 258.28" stroke="white" stroke-width="3" stroke-linecap="round" stroke-linejoin="round"/>
<path d="M86.9609 278.626L86.9609 258.28" stroke="white" stroke-width="3" stroke-linecap="round" stroke-linejoin="round"/>
<path d="M50.8203 241.89L50.8203 220.979" stroke="white" stroke-width="3" stroke-linecap="round" stroke-linejoin="round"/>
<path d="M86.9609 241.89L86.9609 220.979" stroke="white" stroke-width="3" stroke-linecap="round" stroke-linejoin="round"/>
<path d="M50.8203 205.72L50.8203 184.244" stroke="white" stroke-width="3" stroke-linecap="round" stroke-linejoin="round"/>
<path d="M86.9609 205.72L86.9609 184.244" stroke="white" stroke-width="3" stroke-linecap="round" stroke-linejoin="round"/>
<path d="M50.8203 170.114L50.8203 148.638" stroke="white" stroke-width="3" stroke-linecap="round" stroke-linejoin="round"/>
<path d="M86.9609 170.114L86.9609 148.638" stroke="white" stroke-width="3" stroke-linecap="round" stroke-linejoin="round"/>
<path d="M50.8203 132.814L50.8203 111.903" stroke="white" stroke-width="3" stroke-linecap="round" stroke-linejoin="round"/>
<path d="M86.9609 132.814L86.9609 111.903" stroke="white" stroke-width="3" stroke-linecap="round" stroke-linejoin="round"/>
<path d="M50.8203 97.2082L50.8203 75.7319" stroke="white" stroke-width="3" stroke-linecap="round" stroke-linejoin="round"/>
<path d="M86.9609 97.2082L86.9609 75.7319" stroke="white" stroke-width="3" stroke-linecap="round" stroke-linejoin="round"/>
<path d="M77.6328 380.971L77.6328 382.026L70.9121 382.026C71.1543 382.28 71.3965 382.614 71.6387 383.028C71.8809 383.438 72.0625 383.807 72.1836 384.135L71.1641 384.135C70.8867 383.546 70.5508 383.03 70.1563 382.589C69.7617 382.147 69.3789 381.835 69.0078 381.651L69.0078 380.971L77.6328 380.971ZM73.3965 378.264C72.3809 378.264 71.5645 378.161 70.9473 377.954C70.3262 377.743 69.8477 377.432 69.5117 377.022C69.1758 376.608 69.0078 376.089 69.0078 375.464C69.0078 375.003 69.1016 374.598 69.2891 374.251C69.4727 373.903 69.7402 373.616 70.0918 373.389C70.4395 373.163 70.8652 372.985 71.3691 372.856C71.8691 372.727 72.5449 372.663 73.3965 372.663C74.4043 372.663 75.2188 372.766 75.8398 372.973C76.457 373.18 76.9355 373.491 77.2754 373.905C77.6113 374.315 77.7793 374.835 77.7793 375.464C77.7793 376.292 77.4824 376.942 76.8887 377.415C76.1738 377.981 75.0098 378.264 73.3965 378.264ZM73.3965 377.18C74.8066 377.18 75.7461 377.016 76.2148 376.688C76.6797 376.356 76.9121 375.948 76.9121 375.464C76.9121 374.979 76.6777 374.573 76.209 374.245C75.7402 373.913 74.8027 373.747 73.3965 373.747C71.9824 373.747 71.043 373.913 70.5781 374.245C70.1133 374.573 69.8809 374.983 69.8809 375.475C69.8809 375.96 70.0859 376.346 70.4961 376.635C71.0195 376.999 71.9863 377.18 73.3965 377.18Z" fill="white"/>
<path d="M69.4522 388.268L71.7109 384.312L67.1935 384.312L69.4522 388.268Z" fill="white"/>
<path d="M76.6191 342.666L77.6328 342.666L77.6328 348.343C77.3789 348.351 77.1348 348.31 76.9004 348.22C76.5137 348.076 76.1328 347.845 75.7578 347.529C75.3828 347.208 74.9492 346.748 74.457 346.146C73.6914 345.212 73.0859 344.582 72.6406 344.253C72.1914 343.925 71.7676 343.761 71.3691 343.761C70.9512 343.761 70.5996 343.912 70.3145 344.212C70.0254 344.509 69.8809 344.898 69.8809 345.378C69.8809 345.886 70.0332 346.292 70.3379 346.597C70.6426 346.902 71.0645 347.056 71.6035 347.06L71.4922 348.144C70.6836 348.07 70.0684 347.791 69.6465 347.306C69.2207 346.822 69.0078 346.171 69.0078 345.355C69.0078 344.531 69.2363 343.878 69.6934 343.398C70.1504 342.917 70.7168 342.677 71.3926 342.677C71.7363 342.677 72.0742 342.748 72.4063 342.888C72.7383 343.029 73.0879 343.263 73.4551 343.591C73.8223 343.916 74.3262 344.457 74.9668 345.214C75.498 345.847 75.8594 346.253 76.0508 346.433C76.2383 346.613 76.4277 346.761 76.6191 346.878L76.6191 342.666ZM73.3965 341.529C72.3809 341.529 71.5645 341.425 70.9473 341.218C70.3262 341.007 69.8477 340.697 69.5117 340.287C69.1758 339.873 69.0078 339.353 69.0078 338.728C69.0078 338.267 69.1016 337.863 69.2891 337.515C69.4727 337.167 69.7402 336.88 70.0918 336.654C70.4395 336.427 70.8652 336.25 71.3691 336.121C71.8691 335.992 72.5449 335.927 73.3965 335.927C74.4043 335.927 75.2188 336.031 75.8398 336.238C76.457 336.445 76.9355 336.755 77.2754 337.169C77.6113 337.58 77.7793 338.099 77.7793 338.728C77.7793 339.556 77.4824 340.207 76.8887 340.679C76.1738 341.246 75.0098 341.529 73.3965 341.529ZM73.3965 340.445C74.8066 340.445 75.7461 340.281 76.2148 339.953C76.6797 339.621 76.9121 339.212 76.9121 338.728C76.9121 338.244 76.6777 337.837 76.209 337.509C75.7402 337.177 74.8027 337.011 73.3965 337.011C71.9824 337.011 71.043 337.177 70.5781 337.509C70.1133 337.837 69.8809 338.248 69.8809 338.74C69.8809 339.224 70.0859 339.611 70.4961 339.9C71.0195 340.263 71.9863 340.445 73.3965 340.445Z" fill="white"/>
<path d="M69.4522 351.532L71.7109 346.446L67.1935 346.446L69.4522 351.532Z" fill="white"/>
<path d="M75.3652 312.032L75.2246 310.977C75.8223 310.856 76.2539 310.651 76.5195 310.362C76.7813 310.069 76.9121 309.714 76.9121 309.296C76.9121 308.8 76.7402 308.382 76.3965 308.042C76.0527 307.698 75.627 307.526 75.1191 307.526C74.6348 307.526 74.2363 307.684 73.9238 308.001C73.6074 308.317 73.4492 308.719 73.4492 309.208C73.4492 309.407 73.4883 309.655 73.5664 309.952L72.6406 309.835C72.6484 309.764 72.6523 309.708 72.6523 309.665C72.6523 309.216 72.5352 308.811 72.3008 308.452C72.0664 308.093 71.7051 307.913 71.2168 307.913C70.8301 307.913 70.5098 308.044 70.2559 308.305C70.002 308.567 69.875 308.905 69.875 309.319C69.875 309.729 70.0039 310.071 70.2617 310.344C70.5195 310.618 70.9063 310.794 71.4219 310.872L71.2344 311.927C70.5273 311.798 69.9805 311.505 69.5938 311.048C69.2031 310.591 69.0078 310.022 69.0078 309.343C69.0078 308.874 69.1094 308.442 69.3125 308.048C69.5117 307.653 69.7852 307.352 70.1328 307.145C70.4805 306.934 70.8496 306.829 71.2402 306.829C71.6113 306.829 71.9492 306.928 72.2539 307.128C72.5586 307.327 72.8008 307.622 72.9805 308.012C73.0977 307.505 73.3418 307.11 73.7129 306.829C74.0801 306.548 74.541 306.407 75.0957 306.407C75.8457 306.407 76.4824 306.68 77.0059 307.227C77.5254 307.774 77.7852 308.466 77.7852 309.302C77.7852 310.055 77.5605 310.682 77.1113 311.182C76.6621 311.678 76.0801 311.962 75.3652 312.032ZM73.3965 305.358C72.3809 305.358 71.5645 305.255 70.9473 305.048C70.3262 304.837 69.8477 304.526 69.5117 304.116C69.1758 303.702 69.0078 303.182 69.0078 302.557C69.0078 302.096 69.1016 301.692 69.2891 301.344C69.4727 300.997 69.7402 300.71 70.0918 300.483C70.4395 300.257 70.8652 300.079 71.3691 299.95C71.8691 299.821 72.5449 299.757 73.3965 299.757C74.4043 299.757 75.2188 299.86 75.8398 300.067C76.457 300.274 76.9355 300.585 77.2754 300.999C77.6113 301.409 77.7793 301.928 77.7793 302.557C77.7793 303.385 77.4824 304.036 76.8887 304.509C76.1738 305.075 75.0098 305.358 73.3965 305.358ZM73.3965 304.274C74.8066 304.274 75.7461 304.11 76.2148 303.782C76.6797 303.45 76.9121 303.042 76.9121 302.557C76.9121 302.073 76.6777 301.667 76.209 301.339C75.7402 301.007 74.8027 300.841 73.3965 300.841C71.9824 300.841 71.043 301.007 70.5781 301.339C70.1133 301.667 69.8809 302.077 69.8809 302.569C69.8809 303.053 70.0859 303.44 70.4961 303.729C71.0195 304.093 71.9863 304.274 73.3965 304.274Z" fill="white"/>
<path d="M69.4522 315.927L71.7109 311.971L67.1935 311.971L69.4522 315.927Z" fill="white"/>
<path d="M77.6328 272.487L75.5762 272.487L75.5762 276.213L74.6094 276.213L69.043 272.293L69.043 271.432L74.6094 271.432L74.6094 270.272L75.5762 270.272L75.5762 271.432L77.6328 271.432L77.6328 272.487ZM74.6094 272.487L70.7363 272.487L74.6094 275.176L74.6094 272.487ZM73.3965 269.188C72.3809 269.188 71.5645 269.084 70.9473 268.877C70.3262 268.666 69.8477 268.356 69.5117 267.946C69.1758 267.531 69.0078 267.012 69.0078 266.387C69.0078 265.926 69.1016 265.522 69.2891 265.174C69.4727 264.826 69.7402 264.539 70.0918 264.313C70.4395 264.086 70.8652 263.908 71.3691 263.78C71.8691 263.651 72.5449 263.586 73.3965 263.586C74.4043 263.586 75.2188 263.69 75.8398 263.897C76.457 264.104 76.9355 264.414 77.2754 264.828C77.6113 265.239 77.7793 265.758 77.7793 266.387C77.7793 267.215 77.4824 267.865 76.8887 268.338C76.1738 268.905 75.0098 269.188 73.3965 269.188ZM73.3965 268.104C74.8066 268.104 75.7461 267.94 76.2148 267.612C76.6797 267.28 76.9121 266.871 76.9121 266.387C76.9121 265.903 76.6777 265.496 76.209 265.168C75.7402 264.836 74.8027 264.67 73.3965 264.67C71.9824 264.67 71.043 264.836 70.5781 265.168C70.1133 265.496 69.8809 265.906 69.8809 266.399C69.8809 266.883 70.0859 267.27 70.4961 267.559C71.0195 267.922 71.9863 268.104 73.3965 268.104Z" fill="white"/>
<path d="M69.4522 281.452L71.7109 276.931L67.1935 276.931L69.4522 281.452Z" fill="white"/>
<path d="M75.3828 239.697L75.2891 238.589C75.8281 238.507 76.2344 238.318 76.5078 238.021C76.7773 237.72 76.9121 237.359 76.9121 236.937C76.9121 236.429 76.7207 236 76.3379 235.648C75.9551 235.296 75.4473 235.121 74.8145 235.121C74.2129 235.121 73.7383 235.291 73.3906 235.63C73.043 235.966 72.8691 236.408 72.8691 236.955C72.8691 237.294 72.9473 237.601 73.1035 237.875C73.2559 238.148 73.4551 238.363 73.7012 238.519L73.5723 239.509L69.1602 238.677L69.1602 234.406L70.168 234.406L70.168 237.833L72.4766 238.296C72.1172 237.781 71.9375 237.24 71.9375 236.673C71.9375 235.923 72.1973 235.291 72.7168 234.775C73.2363 234.259 73.9043 234.001 74.7207 234.001C75.498 234.001 76.1699 234.228 76.7363 234.681C77.4316 235.232 77.7793 235.984 77.7793 236.937C77.7793 237.718 77.5605 238.357 77.123 238.853C76.6855 239.345 76.1055 239.626 75.3828 239.697ZM73.3965 233.017C72.3809 233.017 71.5645 232.914 70.9473 232.707C70.3262 232.496 69.8477 232.185 69.5117 231.775C69.1758 231.361 69.0078 230.841 69.0078 230.216C69.0078 229.755 69.1016 229.351 69.2891 229.003C69.4727 228.656 69.7402 228.369 70.0918 228.142C70.4395 227.916 70.8652 227.738 71.3691 227.609C71.8691 227.48 72.5449 227.416 73.3965 227.416C74.4043 227.416 75.2188 227.519 75.8398 227.726C76.457 227.933 76.9355 228.244 77.2754 228.658C77.6113 229.068 77.7793 229.587 77.7793 230.216C77.7793 231.044 77.4824 231.695 76.8887 232.167C76.1738 232.734 75.0098 233.017 73.3965 233.017ZM73.3965 231.933C74.8066 231.933 75.7461 231.769 76.2148 231.441C76.6797 231.109 76.9121 230.701 76.9121 230.216C76.9121 229.732 76.6777 229.326 76.209 228.998C75.7402 228.666 74.8027 228.5 73.3965 228.5C71.9824 228.5 71.043 228.666 70.5781 228.998C70.1133 229.326 69.8809 229.736 69.8809 230.228C69.8809 230.712 70.0859 231.099 70.4961 231.388C71.0195 231.751 71.9863 231.933 73.3965 231.933Z" fill="white"/>
<path d="M77.6328 200.146L75.5762 200.146L75.5762 203.872L74.6094 203.872L69.043 199.952L69.043 199.091L74.6094 199.091L74.6094 197.931L75.5762 197.931L75.5762 199.091L77.6328 199.091L77.6328 200.146ZM74.6094 200.146L70.7363 200.146L74.6094 202.835L74.6094 200.146ZM73.3965 196.847C72.3809 196.847 71.5645 196.743 70.9473 196.536C70.3262 196.325 69.8477 196.015 69.5117 195.604C69.1758 195.19 69.0078 194.671 69.0078 194.046C69.0078 193.585 69.1016 193.181 69.2891 192.833C69.4727 192.485 69.7402 192.198 70.0918 191.972C70.4395 191.745 70.8652 191.567 71.3691 191.438C71.8691 191.31 72.5449 191.245 73.3965 191.245C74.4043 191.245 75.2188 191.349 75.8398 191.556C76.457 191.763 76.9355 192.073 77.2754 192.487C77.6113 192.897 77.7793 193.417 77.7793 194.046C77.7793 194.874 77.4824 195.524 76.8887 195.997C76.1738 196.563 75.0098 196.847 73.3965 196.847ZM73.3965 195.763C74.8066 195.763 75.7461 195.599 76.2148 195.271C76.6797 194.938 76.9121 194.53 76.9121 194.046C76.9121 193.562 76.6777 193.155 76.209 192.827C75.7402 192.495 74.8027 192.329 73.3965 192.329C71.9824 192.329 71.043 192.495 70.5781 192.827C70.1133 193.155 69.8809 193.565 69.8809 194.058C69.8809 194.542 70.0859 194.929 70.4961 195.218C71.0195 195.581 71.9863 195.763 73.3965 195.763Z" fill="white"/>
<path d="M69.4522 180.287L67.1935 184.809L71.7109 184.809L69.4522 180.287Z" fill="white"/>
<path d="M75.3652 166.785L75.2246 165.73C75.8223 165.609 76.2539 165.404 76.5195 165.115C76.7813 164.822 76.9121 164.466 76.9121 164.048C76.9121 163.552 76.7402 163.134 76.3965 162.794C76.0527 162.451 75.627 162.279 75.1191 162.279C74.6348 162.279 74.2363 162.437 73.9238 162.753C73.6074 163.07 73.4492 163.472 73.4492 163.96C73.4492 164.16 73.4883 164.408 73.5664 164.705L72.6406 164.587C72.6484 164.517 72.6523 164.46 72.6523 164.417C72.6523 163.968 72.5352 163.564 72.3008 163.205C72.0664 162.845 71.7051 162.666 71.2168 162.666C70.8301 162.666 70.5098 162.796 70.2559 163.058C70.002 163.32 69.875 163.658 69.875 164.072C69.875 164.482 70.0039 164.824 70.2617 165.097C70.5195 165.371 70.9063 165.546 71.4219 165.625L71.2344 166.679C70.5273 166.55 69.9805 166.257 69.5938 165.8C69.2031 165.343 69.0078 164.775 69.0078 164.095C69.0078 163.626 69.1094 163.195 69.3125 162.8C69.5117 162.406 69.7852 162.105 70.1328 161.898C70.4805 161.687 70.8496 161.582 71.2402 161.582C71.6113 161.582 71.9492 161.681 72.2539 161.88C72.5586 162.08 72.8008 162.375 72.9805 162.765C73.0977 162.257 73.3418 161.863 73.7129 161.582C74.0801 161.3 74.541 161.16 75.0957 161.16C75.8457 161.16 76.4824 161.433 77.0059 161.98C77.5254 162.527 77.7852 163.218 77.7852 164.054C77.7852 164.808 77.5605 165.435 77.1113 165.935C76.6621 166.431 76.0801 166.714 75.3652 166.785ZM73.3965 160.111C72.3809 160.111 71.5645 160.007 70.9473 159.8C70.3262 159.589 69.8477 159.279 69.5117 158.869C69.1758 158.455 69.0078 157.935 69.0078 157.31C69.0078 156.849 69.1016 156.445 69.2891 156.097C69.4727 155.75 69.7402 155.462 70.0918 155.236C70.4395 155.009 70.8652 154.832 71.3691 154.703C71.8691 154.574 72.5449 154.509 73.3965 154.509C74.4043 154.509 75.2188 154.613 75.8398 154.82C76.457 155.027 76.9355 155.337 77.2754 155.751C77.6113 156.162 77.7793 156.681 77.7793 157.31C77.7793 158.138 77.4824 158.789 76.8887 159.261C76.1738 159.828 75.0098 160.111 73.3965 160.111ZM73.3965 159.027C74.8066 159.027 75.7461 158.863 76.2148 158.535C76.6797 158.203 76.9121 157.794 76.9121 157.31C76.9121 156.826 76.6777 156.419 76.209 156.091C75.7402 155.759 74.8027 155.593 73.3965 155.593C71.9824 155.593 71.043 155.759 70.5781 156.091C70.1133 156.419 69.8809 156.83 69.8809 157.322C69.8809 157.806 70.0859 158.193 70.4961 158.482C71.0195 158.845 71.9863 159.027 73.3965 159.027Z" fill="white"/>
<path d="M69.4522 143.552L67.1935 148.073L71.7109 148.073L69.4522 143.552Z" fill="white"/>
<path d="M76.6191 124.512L77.6328 124.512L77.6328 130.19C77.3789 130.198 77.1348 130.156 76.9004 130.067C76.5137 129.922 76.1328 129.692 75.7578 129.375C75.3828 129.055 74.9492 128.594 74.457 127.992C73.6914 127.059 73.0859 126.428 72.6406 126.1C72.1914 125.772 71.7676 125.608 71.3691 125.608C70.9512 125.608 70.5996 125.758 70.3145 126.059C70.0254 126.356 69.8809 126.744 69.8809 127.225C69.8809 127.733 70.0332 128.139 70.3379 128.444C70.6426 128.748 71.0645 128.903 71.6035 128.906L71.4922 129.99C70.6836 129.916 70.0684 129.637 69.6465 129.153C69.2207 128.668 69.0078 128.018 69.0078 127.201C69.0078 126.377 69.2363 125.725 69.6934 125.244C70.1504 124.764 70.7168 124.524 71.3926 124.524C71.7363 124.524 72.0742 124.594 72.4063 124.735C72.7383 124.875 73.0879 125.11 73.4551 125.438C73.8223 125.762 74.3262 126.303 74.9668 127.061C75.498 127.694 75.8594 128.1 76.0508 128.28C76.2383 128.459 76.4277 128.608 76.6191 128.725L76.6191 124.512ZM73.3965 123.375C72.3809 123.375 71.5645 123.272 70.9473 123.065C70.3262 122.854 69.8477 122.543 69.5117 122.133C69.1758 121.719 69.0078 121.199 69.0078 120.574C69.0078 120.114 69.1016 119.709 69.2891 119.362C69.4727 119.014 69.7402 118.727 70.0918 118.5C70.4395 118.274 70.8652 118.096 71.3691 117.967C71.8691 117.838 72.5449 117.774 73.3965 117.774C74.4043 117.774 75.2188 117.877 75.8398 118.084C76.457 118.291 76.9355 118.602 77.2754 119.016C77.6113 119.426 77.7793 119.946 77.7793 120.574C77.7793 121.403 77.4824 122.053 76.8887 122.526C76.1738 123.092 75.0098 123.375 73.3965 123.375ZM73.3965 122.291C74.8066 122.291 75.7461 122.127 76.2148 121.799C76.6797 121.467 76.9121 121.059 76.9121 120.574C76.9121 120.09 76.6777 119.684 76.209 119.356C75.7402 119.024 74.8027 118.858 73.3965 118.858C71.9824 118.858 71.043 119.024 70.5781 119.356C70.1133 119.684 69.8809 120.094 69.8809 120.586C69.8809 121.071 70.0859 121.457 70.4961 121.746C71.0195 122.11 71.9863 122.291 73.3965 122.291Z" fill="white"/>
<path d="M69.4522 107.381L67.1935 111.337L71.7109 111.337L69.4522 107.381Z" fill="white"/>
<path d="M77.6328 89.9119L77.6328 90.9666L70.9121 90.9666C71.1543 91.2205 71.3965 91.5544 71.6387 91.9685C71.8809 92.3787 72.0625 92.7478 72.1836 93.0759L71.1641 93.0759C70.8867 92.4861 70.5508 91.9705 70.1563 91.5291C69.7617 91.0876 69.3789 90.7751 69.0078 90.5916L69.0078 89.9119L77.6328 89.9119ZM73.3965 87.2048C72.3809 87.2048 71.5645 87.1013 70.9473 86.8943C70.3262 86.6833 69.8477 86.3728 69.5117 85.9626C69.1758 85.5486 69.0078 85.0291 69.0078 84.4041C69.0078 83.9431 69.1016 83.5388 69.2891 83.1912C69.4727 82.8435 69.7402 82.5564 70.0918 82.3298C70.4395 82.1033 70.8652 81.9255 71.3691 81.7966C71.8691 81.6677 72.5449 81.6033 73.3965 81.6033C74.4043 81.6033 75.2188 81.7068 75.8398 81.9138C76.457 82.1209 76.9355 82.4314 77.2754 82.8455C77.6113 83.2556 77.7793 83.7751 77.7793 84.4041C77.7793 85.2322 77.4824 85.8826 76.8887 86.3552C76.1738 86.9216 75.0098 87.2048 73.3965 87.2048ZM73.3965 86.1208C74.8066 86.1208 75.7461 85.9568 76.2148 85.6287C76.6797 85.2966 76.9121 84.8884 76.9121 84.4041C76.9121 83.9197 76.6777 83.5134 76.209 83.1853C75.7402 82.8533 74.8027 82.6873 73.3965 82.6873C71.9824 82.6873 71.043 82.8533 70.5781 83.1853C70.1133 83.5134 69.8809 83.9236 69.8809 84.4158C69.8809 84.9001 70.0859 85.2869 70.4961 85.5759C71.0195 85.9392 71.9863 86.1208 73.3965 86.1208Z" fill="white"/>
<path d="M69.4522 71.2107L67.1935 75.1668L71.7109 75.1668L69.4522 71.2107Z" fill="white"/>
<path d="M147.383 49.7346L147.383 39.0918L147.383 22.6067" stroke="white" stroke-width="3" stroke-linecap="round" stroke-linejoin="round"/>
<path d="M128.18 49.7346L128.18 39.0918L128.18 22.6067" stroke="white" stroke-width="3" stroke-linecap="round" stroke-linejoin="round"/>
<path d="M128.184 39.5615L147.383 39.5615" stroke="white" stroke-width="3" stroke-linecap="round" stroke-linejoin="round"/>
<path d="M147.383 440.263L147.383 423.778L147.383 413.135" stroke="white" stroke-width="3" stroke-linecap="round" stroke-linejoin="round"/>
<path d="M128.18 440.263L128.18 423.778L128.18 413.135" stroke="white" stroke-width="3" stroke-linecap="round" stroke-linejoin="round"/>
<path d="M147.383 423.873L128.184 423.873" stroke="white" stroke-width="3" stroke-linecap="round" stroke-linejoin="round"/>
<g clip-path="url(#clip1_6145_8892)">
<path d="M156.166 179.551C159.714 179.551 162.59 176.266 162.59 172.215C162.59 168.163 159.714 164.879 156.166 164.879C152.618 164.879 149.742 168.163 149.742 172.215C149.742 176.266 152.618 179.551 156.166 179.551Z" fill="url(#paint0_radial_6145_8892)"/>
<g opacity="0.5">
<path d="M156.165 179.302C154.989 179.302 153.845 178.925 152.856 178.211C151.893 177.517 151.116 176.537 150.609 175.376C150.574 175.295 150.602 175.198 150.673 175.158C150.743 175.117 150.829 175.15 150.864 175.231C151.874 177.541 153.905 178.976 156.165 178.976C156.847 178.976 157.516 178.845 158.153 178.586C158.227 178.555 158.309 178.6 158.335 178.684C158.361 178.769 158.323 178.862 158.249 178.892C157.581 179.164 156.88 179.302 156.165 179.302Z" fill="url(#paint1_linear_6145_8892)"/>
</g>
<path d="M162.047 171.143C161.979 171.143 161.919 171.088 161.907 171.01C161.401 167.844 158.985 165.547 156.163 165.547C154.834 165.547 153.583 166.043 152.543 166.982C152.482 167.038 152.392 167.026 152.343 166.955C152.294 166.885 152.305 166.782 152.367 166.727C152.896 166.249 153.485 165.877 154.118 165.621C154.774 165.356 155.461 165.221 156.163 165.221C157.605 165.221 159.005 165.805 160.106 166.864C161.194 167.911 161.933 169.362 162.187 170.951C162.201 171.04 162.15 171.125 162.072 171.141C162.064 171.143 162.055 171.143 162.047 171.143Z" fill="url(#paint2_linear_6145_8892)"/>
</g>
</g>
<defs>
<radialGradient id="paint0_radial_6145_8892" cx="0" cy="0" r="1" gradientUnits="userSpaceOnUse" gradientTransform="translate(156.166 172.215) scale(6.42395 7.33569)">
<stop stop-color="#4681F5"/>
<stop offset="1" stop-color="#0078E6"/>
</radialGradient>
<linearGradient id="paint1_linear_6145_8892" x1="150.594" y1="177.221" x2="158.343" y2="177.221" gradientUnits="userSpaceOnUse">
<stop stop-color="white" stop-opacity="0"/>
<stop offset="0.5" stop-color="white"/>
<stop offset="0.999999" stop-color="white" stop-opacity="0"/>
</linearGradient>
<linearGradient id="paint2_linear_6145_8892" x1="152.313" y1="168.182" x2="162.189" y2="168.182" gradientUnits="userSpaceOnUse">
<stop stop-color="white" stop-opacity="0"/>
<stop offset="0.5" stop-color="white"/>
<stop offset="0.999999" stop-color="white" stop-opacity="0"/>
</linearGradient>
<clipPath id="clip0_6145_8892">
<rect width="464" height="275" fill="white" transform="translate(275) rotate(90)"/>
</clipPath>
<clipPath id="clip1_6145_8892">
<rect width="14.1026" height="16.1041" fill="white" transform="translate(149.086 164.061)"/>
</clipPath>
</defs>
</svg>
