<svg width="487" height="821" viewBox="0 0 487 821" fill="none" xmlns="http://www.w3.org/2000/svg">
<g clip-path="url(#clip0_5830_27457)">
<path d="M480.5 805L480.5 16C480.5 10.7533 476.247 6.5 471 6.5L17 6.49998C11.7533 6.49998 7.50003 10.7533 7.50003 16L7.5 805C7.5 810.247 11.7532 814.5 17 814.5L471 814.5C476.247 814.5 480.5 810.247 480.5 805Z" fill="#1BB24B" stroke="#192F20" stroke-width="11"/>
<path d="M462 797L462 24L26 24L26 797L462 797Z" stroke="white" stroke-width="3" stroke-linecap="round" stroke-linejoin="round"/>
<path d="M26 88L462 88" stroke="white" stroke-width="3" stroke-linecap="round" stroke-linejoin="round"/>
<path d="M462 153L398.209 153L26 153" stroke="white" stroke-width="3" stroke-linecap="round" stroke-linejoin="round"/>
<path d="M462 218L398.209 218L26 218" stroke="white" stroke-width="3" stroke-linecap="round" stroke-linejoin="round"/>
<path d="M462 282L398.209 282L26 282" stroke="white" stroke-width="3" stroke-linecap="round" stroke-linejoin="round"/>
<path d="M462 346L398.209 346L26 346" stroke="white" stroke-width="3" stroke-linecap="round" stroke-linejoin="round"/>
<path d="M462 410L398.209 410L26 410" stroke="white" stroke-width="3" stroke-linecap="round" stroke-linejoin="round"/>
<path d="M462 474L398.209 474L26 474" stroke="white" stroke-width="3" stroke-linecap="round" stroke-linejoin="round"/>
<path d="M462 538L398.209 538L26 538" stroke="white" stroke-width="3" stroke-linecap="round" stroke-linejoin="round"/>
<path d="M462 603L398.209 603L26 603" stroke="white" stroke-width="3" stroke-linecap="round" stroke-linejoin="round"/>
<path d="M462 667L398.209 667L26 667" stroke="white" stroke-width="3" stroke-linecap="round" stroke-linejoin="round"/>
<path d="M28.8906 729L459.891 729" stroke="white" stroke-width="3" stroke-linecap="round" stroke-linejoin="round"/>
<path d="M398 133L398 171" stroke="white" stroke-width="3" stroke-linecap="round" stroke-linejoin="round"/>
<path d="M334 133L334 171" stroke="white" stroke-width="3" stroke-linecap="round" stroke-linejoin="round"/>
<path d="M398 199L398 237" stroke="white" stroke-width="3" stroke-linecap="round" stroke-linejoin="round"/>
<path d="M334 199L334 237" stroke="white" stroke-width="3" stroke-linecap="round" stroke-linejoin="round"/>
<path d="M398 263L398 300" stroke="white" stroke-width="3" stroke-linecap="round" stroke-linejoin="round"/>
<path d="M334 263L334 300" stroke="white" stroke-width="3" stroke-linecap="round" stroke-linejoin="round"/>
<path d="M398 326L398 364" stroke="white" stroke-width="3" stroke-linecap="round" stroke-linejoin="round"/>
<path d="M334 326L334 364" stroke="white" stroke-width="3" stroke-linecap="round" stroke-linejoin="round"/>
<path d="M398 393L398 429" stroke="white" stroke-width="3" stroke-linecap="round" stroke-linejoin="round"/>
<path d="M334 393L334 429" stroke="white" stroke-width="3" stroke-linecap="round" stroke-linejoin="round"/>
<path d="M398 457L398 493" stroke="white" stroke-width="3" stroke-linecap="round" stroke-linejoin="round"/>
<path d="M334 457L334 493" stroke="white" stroke-width="3" stroke-linecap="round" stroke-linejoin="round"/>
<path d="M398 520L398 556" stroke="white" stroke-width="3" stroke-linecap="round" stroke-linejoin="round"/>
<path d="M334 520L334 556" stroke="white" stroke-width="3" stroke-linecap="round" stroke-linejoin="round"/>
<path d="M398 585L398 623" stroke="white" stroke-width="3" stroke-linecap="round" stroke-linejoin="round"/>
<path d="M334 585L334 623" stroke="white" stroke-width="3" stroke-linecap="round" stroke-linejoin="round"/>
<path d="M398 649L398 686" stroke="white" stroke-width="3" stroke-linecap="round" stroke-linejoin="round"/>
<path d="M334 649L334 686" stroke="white" stroke-width="3" stroke-linecap="round" stroke-linejoin="round"/>
<path d="M359 143.471L359 142.416L365.721 142.416C365.479 142.162 365.236 141.828 364.994 141.414C364.752 141.004 364.57 140.635 364.449 140.307L365.469 140.307C365.746 140.896 366.082 141.412 366.477 141.854C366.871 142.295 367.254 142.607 367.625 142.791L367.625 143.471L359 143.471ZM363.236 146.178C364.252 146.178 365.068 146.281 365.686 146.488C366.307 146.699 366.785 147.01 367.121 147.42C367.457 147.834 367.625 148.354 367.625 148.979C367.625 149.439 367.531 149.844 367.344 150.191C367.16 150.539 366.893 150.826 366.541 151.053C366.193 151.279 365.768 151.457 365.264 151.586C364.764 151.715 364.088 151.779 363.236 151.779C362.229 151.779 361.414 151.676 360.793 151.469C360.176 151.262 359.697 150.951 359.357 150.537C359.021 150.127 358.854 149.607 358.854 148.979C358.854 148.15 359.15 147.5 359.744 147.027C360.459 146.461 361.623 146.178 363.236 146.178ZM363.236 147.262C361.826 147.262 360.887 147.426 360.418 147.754C359.953 148.086 359.721 148.494 359.721 148.979C359.721 149.463 359.955 149.869 360.424 150.197C360.893 150.529 361.83 150.695 363.236 150.695C364.65 150.695 365.59 150.529 366.055 150.197C366.52 149.869 366.752 149.459 366.752 148.967C366.752 148.482 366.547 148.096 366.137 147.807C365.613 147.443 364.646 147.262 363.236 147.262Z" fill="white"/>
<path d="M365.5 134L361 141L370 141L365.5 134Z" fill="white"/>
<path d="M360.014 209.041L359 209.041L359 203.363C359.254 203.355 359.498 203.396 359.732 203.486C360.119 203.631 360.5 203.861 360.875 204.178C361.25 204.498 361.684 204.959 362.176 205.561C362.941 206.494 363.547 207.125 363.992 207.453C364.441 207.781 364.865 207.945 365.264 207.945C365.682 207.945 366.033 207.795 366.318 207.494C366.607 207.197 366.752 206.809 366.752 206.328C366.752 205.82 366.6 205.414 366.295 205.109C365.99 204.805 365.568 204.65 365.029 204.646L365.141 203.562C365.949 203.637 366.564 203.916 366.986 204.4C367.412 204.885 367.625 205.535 367.625 206.352C367.625 207.176 367.396 207.828 366.939 208.309C366.482 208.789 365.916 209.029 365.24 209.029C364.896 209.029 364.559 208.959 364.227 208.818C363.895 208.678 363.545 208.443 363.178 208.115C362.811 207.791 362.307 207.25 361.666 206.492C361.135 205.859 360.773 205.453 360.582 205.273C360.395 205.094 360.205 204.945 360.014 204.828L360.014 209.041ZM363.236 210.178C364.252 210.178 365.068 210.281 365.686 210.488C366.307 210.699 366.785 211.01 367.121 211.42C367.457 211.834 367.625 212.354 367.625 212.979C367.625 213.439 367.531 213.844 367.344 214.191C367.16 214.539 366.893 214.826 366.541 215.053C366.193 215.279 365.768 215.457 365.264 215.586C364.764 215.715 364.088 215.779 363.236 215.779C362.229 215.779 361.414 215.676 360.793 215.469C360.176 215.262 359.697 214.951 359.357 214.537C359.021 214.127 358.854 213.607 358.854 212.979C358.854 212.15 359.15 211.5 359.744 211.027C360.459 210.461 361.623 210.178 363.236 210.178ZM363.236 211.262C361.826 211.262 360.887 211.426 360.418 211.754C359.953 212.086 359.721 212.494 359.721 212.979C359.721 213.463 359.955 213.869 360.424 214.197C360.893 214.529 361.83 214.695 363.236 214.695C364.65 214.695 365.59 214.529 366.055 214.197C366.52 213.869 366.752 213.459 366.752 212.967C366.752 212.482 366.547 212.096 366.137 211.807C365.613 211.443 364.646 211.262 363.236 211.262Z" fill="white"/>
<path d="M365.5 199L361 206L370 206L365.5 199Z" fill="white"/>
<path d="M361.268 266.504L361.408 267.559C360.811 267.68 360.379 267.885 360.113 268.174C359.852 268.467 359.721 268.822 359.721 269.24C359.721 269.736 359.893 270.154 360.236 270.494C360.58 270.838 361.006 271.01 361.514 271.01C361.998 271.01 362.396 270.852 362.709 270.535C363.025 270.219 363.184 269.816 363.184 269.328C363.184 269.129 363.145 268.881 363.066 268.584L363.992 268.701C363.984 268.771 363.98 268.828 363.98 268.871C363.98 269.32 364.098 269.725 364.332 270.084C364.566 270.443 364.928 270.623 365.416 270.623C365.803 270.623 366.123 270.492 366.377 270.23C366.631 269.969 366.758 269.631 366.758 269.217C366.758 268.807 366.629 268.465 366.371 268.191C366.113 267.918 365.727 267.742 365.211 267.664L365.398 266.609C366.105 266.738 366.652 267.031 367.039 267.488C367.43 267.945 367.625 268.514 367.625 269.193C367.625 269.662 367.523 270.094 367.32 270.488C367.121 270.883 366.848 271.184 366.5 271.391C366.152 271.602 365.783 271.707 365.393 271.707C365.021 271.707 364.684 271.607 364.379 271.408C364.074 271.209 363.832 270.914 363.652 270.523C363.535 271.031 363.291 271.426 362.92 271.707C362.553 271.988 362.092 272.129 361.537 272.129C360.787 272.129 360.15 271.855 359.627 271.309C359.107 270.762 358.848 270.07 358.848 269.234C358.848 268.48 359.072 267.854 359.521 267.354C359.971 266.857 360.553 266.574 361.268 266.504ZM363.236 273.178C364.252 273.178 365.068 273.281 365.686 273.488C366.307 273.699 366.785 274.01 367.121 274.42C367.457 274.834 367.625 275.354 367.625 275.979C367.625 276.439 367.531 276.844 367.344 277.191C367.16 277.539 366.893 277.826 366.541 278.053C366.193 278.279 365.768 278.457 365.264 278.586C364.764 278.715 364.088 278.779 363.236 278.779C362.229 278.779 361.414 278.676 360.793 278.469C360.176 278.262 359.697 277.951 359.357 277.537C359.021 277.127 358.854 276.607 358.854 275.979C358.854 275.15 359.15 274.5 359.744 274.027C360.459 273.461 361.623 273.178 363.236 273.178ZM363.236 274.262C361.826 274.262 360.887 274.426 360.418 274.754C359.953 275.086 359.721 275.494 359.721 275.979C359.721 276.463 359.955 276.869 360.424 277.197C360.893 277.529 361.83 277.695 363.236 277.695C364.65 277.695 365.59 277.529 366.055 277.197C366.52 276.869 366.752 276.459 366.752 275.967C366.752 275.482 366.547 275.096 366.137 274.807C365.613 274.443 364.646 274.262 363.236 274.262Z" fill="white"/>
<path d="M365.5 260L361 268L370 268L365.5 260Z" fill="white"/>
<path d="M359 335.879L361.057 335.879L361.057 332.152L362.023 332.152L367.59 336.072L367.59 336.934L362.023 336.934L362.023 338.094L361.057 338.094L361.057 336.934L359 336.934L359 335.879ZM362.023 335.879L365.896 335.879L362.023 333.189L362.023 335.879ZM363.236 339.178C364.252 339.178 365.068 339.281 365.686 339.488C366.307 339.699 366.785 340.01 367.121 340.42C367.457 340.834 367.625 341.354 367.625 341.979C367.625 342.439 367.531 342.844 367.344 343.191C367.16 343.539 366.893 343.826 366.541 344.053C366.193 344.279 365.768 344.457 365.264 344.586C364.764 344.715 364.088 344.779 363.236 344.779C362.229 344.779 361.414 344.676 360.793 344.469C360.176 344.262 359.697 343.951 359.357 343.537C359.021 343.127 358.854 342.607 358.854 341.979C358.854 341.15 359.15 340.5 359.744 340.027C360.459 339.461 361.623 339.178 363.236 339.178ZM363.236 340.262C361.826 340.262 360.887 340.426 360.418 340.754C359.953 341.086 359.721 341.494 359.721 341.979C359.721 342.463 359.955 342.869 360.424 343.197C360.893 343.529 361.83 343.695 363.236 343.695C364.65 343.695 365.59 343.529 366.055 343.197C366.52 342.869 366.752 342.459 366.752 341.967C366.752 341.482 366.547 341.096 366.137 340.807C365.613 340.443 364.646 340.262 363.236 340.262Z" fill="white"/>
<path d="M365.5 322L361 329L370 329L365.5 322Z" fill="white"/>
<path d="M361.25 396.498L361.344 397.605C360.805 397.687 360.398 397.877 360.125 398.174C359.855 398.475 359.721 398.836 359.721 399.258C359.721 399.766 359.912 400.195 360.295 400.547C360.678 400.898 361.186 401.074 361.818 401.074C362.42 401.074 362.895 400.904 363.242 400.564C363.59 400.229 363.764 399.787 363.764 399.24C363.764 398.9 363.686 398.594 363.529 398.32C363.377 398.047 363.178 397.832 362.932 397.676L363.061 396.686L367.473 397.518L367.473 401.789L366.465 401.789L366.465 398.361L364.156 397.898C364.516 398.414 364.695 398.955 364.695 399.521C364.695 400.271 364.436 400.904 363.916 401.42C363.396 401.936 362.729 402.193 361.912 402.193C361.135 402.193 360.463 401.967 359.896 401.514C359.201 400.963 358.854 400.211 358.854 399.258C358.854 398.477 359.072 397.838 359.51 397.342C359.947 396.85 360.527 396.568 361.25 396.498ZM363.236 403.178C364.252 403.178 365.068 403.281 365.686 403.488C366.307 403.699 366.785 404.01 367.121 404.42C367.457 404.834 367.625 405.354 367.625 405.979C367.625 406.439 367.531 406.844 367.344 407.191C367.16 407.539 366.893 407.826 366.541 408.053C366.193 408.279 365.768 408.457 365.264 408.586C364.764 408.715 364.088 408.779 363.236 408.779C362.229 408.779 361.414 408.676 360.793 408.469C360.176 408.262 359.697 407.951 359.357 407.537C359.021 407.127 358.854 406.607 358.854 405.979C358.854 405.15 359.15 404.5 359.744 404.027C360.459 403.461 361.623 403.178 363.236 403.178ZM363.236 404.262C361.826 404.262 360.887 404.426 360.418 404.754C359.953 405.086 359.721 405.494 359.721 405.979C359.721 406.463 359.955 406.869 360.424 407.197C360.893 407.529 361.83 407.695 363.236 407.695C364.65 407.695 365.59 407.529 366.055 407.197C366.52 406.869 366.752 406.459 366.752 405.967C366.752 405.482 366.547 405.096 366.137 404.807C365.613 404.443 364.646 404.262 363.236 404.262Z" fill="white"/>
<path d="M359 463.879L361.057 463.879L361.057 460.152L362.023 460.152L367.59 464.072L367.59 464.934L362.023 464.934L362.023 466.094L361.057 466.094L361.057 464.934L359 464.934L359 463.879ZM362.023 463.879L365.896 463.879L362.023 461.189L362.023 463.879ZM363.236 467.178C364.252 467.178 365.068 467.281 365.686 467.488C366.307 467.699 366.785 468.01 367.121 468.42C367.457 468.834 367.625 469.354 367.625 469.979C367.625 470.439 367.531 470.844 367.344 471.191C367.16 471.539 366.893 471.826 366.541 472.053C366.193 472.279 365.768 472.457 365.264 472.586C364.764 472.715 364.088 472.779 363.236 472.779C362.229 472.779 361.414 472.676 360.793 472.469C360.176 472.262 359.697 471.951 359.357 471.537C359.021 471.127 358.854 470.607 358.854 469.979C358.854 469.15 359.15 468.5 359.744 468.027C360.459 467.461 361.623 467.178 363.236 467.178ZM363.236 468.262C361.826 468.262 360.887 468.426 360.418 468.754C359.953 469.086 359.721 469.494 359.721 469.979C359.721 470.463 359.955 470.869 360.424 471.197C360.893 471.529 361.83 471.695 363.236 471.695C364.65 471.695 365.59 471.529 366.055 471.197C366.52 470.869 366.752 470.459 366.752 469.967C366.752 469.482 366.547 469.096 366.137 468.807C365.613 468.443 364.646 468.262 363.236 468.262Z" fill="white"/>
<path d="M365.5 500L370 493L361 493L365.5 500Z" fill="white"/>
<path d="M361.268 524.504L361.408 525.559C360.811 525.68 360.379 525.885 360.113 526.174C359.852 526.467 359.721 526.822 359.721 527.24C359.721 527.736 359.893 528.154 360.236 528.494C360.58 528.838 361.006 529.01 361.514 529.01C361.998 529.01 362.396 528.852 362.709 528.535C363.025 528.219 363.184 527.816 363.184 527.328C363.184 527.129 363.145 526.881 363.066 526.584L363.992 526.701C363.984 526.771 363.98 526.828 363.98 526.871C363.98 527.32 364.098 527.725 364.332 528.084C364.566 528.443 364.928 528.623 365.416 528.623C365.803 528.623 366.123 528.492 366.377 528.23C366.631 527.969 366.758 527.631 366.758 527.217C366.758 526.807 366.629 526.465 366.371 526.191C366.113 525.918 365.727 525.742 365.211 525.664L365.398 524.609C366.105 524.738 366.652 525.031 367.039 525.488C367.43 525.945 367.625 526.514 367.625 527.193C367.625 527.662 367.523 528.094 367.32 528.488C367.121 528.883 366.848 529.184 366.5 529.391C366.152 529.602 365.783 529.707 365.393 529.707C365.021 529.707 364.684 529.607 364.379 529.408C364.074 529.209 363.832 528.914 363.652 528.523C363.535 529.031 363.291 529.426 362.92 529.707C362.553 529.988 362.092 530.129 361.537 530.129C360.787 530.129 360.15 529.855 359.627 529.309C359.107 528.762 358.848 528.07 358.848 527.234C358.848 526.48 359.072 525.854 359.521 525.354C359.971 524.857 360.553 524.574 361.268 524.504ZM363.236 531.178C364.252 531.178 365.068 531.281 365.686 531.488C366.307 531.699 366.785 532.01 367.121 532.42C367.457 532.834 367.625 533.354 367.625 533.979C367.625 534.439 367.531 534.844 367.344 535.191C367.16 535.539 366.893 535.826 366.541 536.053C366.193 536.279 365.768 536.457 365.264 536.586C364.764 536.715 364.088 536.779 363.236 536.779C362.229 536.779 361.414 536.676 360.793 536.469C360.176 536.262 359.697 535.951 359.357 535.537C359.021 535.127 358.854 534.607 358.854 533.979C358.854 533.15 359.15 532.5 359.744 532.027C360.459 531.461 361.623 531.178 363.236 531.178ZM363.236 532.262C361.826 532.262 360.887 532.426 360.418 532.754C359.953 533.086 359.721 533.494 359.721 533.979C359.721 534.463 359.955 534.869 360.424 535.197C360.893 535.529 361.83 535.695 363.236 535.695C364.65 535.695 365.59 535.529 366.055 535.197C366.52 534.869 366.752 534.459 366.752 533.967C366.752 533.482 366.547 533.096 366.137 532.807C365.613 532.443 364.646 532.262 363.236 532.262Z" fill="white"/>
<path d="M365.5 566L370 558L361 558L365.5 566Z" fill="white"/>
<path d="M360.014 596.041L359 596.041L359 590.363C359.254 590.355 359.498 590.396 359.732 590.486C360.119 590.631 360.5 590.861 360.875 591.178C361.25 591.498 361.684 591.959 362.176 592.561C362.941 593.494 363.547 594.125 363.992 594.453C364.441 594.781 364.865 594.945 365.264 594.945C365.682 594.945 366.033 594.795 366.318 594.494C366.607 594.197 366.752 593.809 366.752 593.328C366.752 592.82 366.6 592.414 366.295 592.109C365.99 591.805 365.568 591.65 365.029 591.646L365.141 590.562C365.949 590.637 366.564 590.916 366.986 591.4C367.412 591.885 367.625 592.535 367.625 593.352C367.625 594.176 367.396 594.828 366.939 595.309C366.482 595.789 365.916 596.029 365.24 596.029C364.896 596.029 364.559 595.959 364.227 595.818C363.895 595.678 363.545 595.443 363.178 595.115C362.811 594.791 362.307 594.25 361.666 593.492C361.135 592.859 360.773 592.453 360.582 592.273C360.395 592.094 360.205 591.945 360.014 591.828L360.014 596.041ZM363.236 597.178C364.252 597.178 365.068 597.281 365.686 597.488C366.307 597.699 366.785 598.01 367.121 598.42C367.457 598.834 367.625 599.354 367.625 599.979C367.625 600.439 367.531 600.844 367.344 601.191C367.16 601.539 366.893 601.826 366.541 602.053C366.193 602.279 365.768 602.457 365.264 602.586C364.764 602.715 364.088 602.779 363.236 602.779C362.229 602.779 361.414 602.676 360.793 602.469C360.176 602.262 359.697 601.951 359.357 601.537C359.021 601.127 358.854 600.607 358.854 599.979C358.854 599.15 359.15 598.5 359.744 598.027C360.459 597.461 361.623 597.178 363.236 597.178ZM363.236 598.262C361.826 598.262 360.887 598.426 360.418 598.754C359.953 599.086 359.721 599.494 359.721 599.979C359.721 600.463 359.955 600.869 360.424 601.197C360.893 601.529 361.83 601.695 363.236 601.695C364.65 601.695 365.59 601.529 366.055 601.197C366.52 600.869 366.752 600.459 366.752 599.967C366.752 599.482 366.547 599.096 366.137 598.807C365.613 598.443 364.646 598.262 363.236 598.262Z" fill="white"/>
<path d="M365.5 631L370 624L361 624L365.5 631Z" fill="white"/>
<path d="M359 658.471L359 657.416L365.721 657.416C365.479 657.162 365.236 656.828 364.994 656.414C364.752 656.004 364.57 655.635 364.449 655.307L365.469 655.307C365.746 655.896 366.082 656.412 366.477 656.854C366.871 657.295 367.254 657.607 367.625 657.791L367.625 658.471L359 658.471ZM363.236 661.178C364.252 661.178 365.068 661.281 365.686 661.488C366.307 661.699 366.785 662.01 367.121 662.42C367.457 662.834 367.625 663.354 367.625 663.979C367.625 664.439 367.531 664.844 367.344 665.191C367.16 665.539 366.893 665.826 366.541 666.053C366.193 666.279 365.768 666.457 365.264 666.586C364.764 666.715 364.088 666.779 363.236 666.779C362.229 666.779 361.414 666.676 360.793 666.469C360.176 666.262 359.697 665.951 359.357 665.537C359.021 665.127 358.854 664.607 358.854 663.979C358.854 663.15 359.15 662.5 359.744 662.027C360.459 661.461 361.623 661.178 363.236 661.178ZM363.236 662.262C361.826 662.262 360.887 662.426 360.418 662.754C359.953 663.086 359.721 663.494 359.721 663.979C359.721 664.463 359.955 664.869 360.424 665.197C360.893 665.529 361.83 665.695 363.236 665.695C364.65 665.695 365.59 665.529 366.055 665.197C366.52 664.869 366.752 664.459 366.752 663.967C366.752 663.482 366.547 663.096 366.137 662.807C365.613 662.443 364.646 662.262 363.236 662.262Z" fill="white"/>
<path d="M365.5 694L370 687L361 687L365.5 694Z" fill="white"/>
<path d="M90 687L90 650" stroke="white" stroke-width="3" stroke-linecap="round" stroke-linejoin="round"/>
<path d="M154 687L154 650" stroke="white" stroke-width="3" stroke-linecap="round" stroke-linejoin="round"/>
<path d="M90 622L90 584" stroke="white" stroke-width="3" stroke-linecap="round" stroke-linejoin="round"/>
<path d="M154 622L154 584" stroke="white" stroke-width="3" stroke-linecap="round" stroke-linejoin="round"/>
<path d="M90 557L90 521" stroke="white" stroke-width="3" stroke-linecap="round" stroke-linejoin="round"/>
<path d="M154 557L154 521" stroke="white" stroke-width="3" stroke-linecap="round" stroke-linejoin="round"/>
<path d="M90 493L90 457" stroke="white" stroke-width="3" stroke-linecap="round" stroke-linejoin="round"/>
<path d="M154 493L154 457" stroke="white" stroke-width="3" stroke-linecap="round" stroke-linejoin="round"/>
<path d="M90 428L90 391" stroke="white" stroke-width="3" stroke-linecap="round" stroke-linejoin="round"/>
<path d="M154 428L154 391" stroke="white" stroke-width="3" stroke-linecap="round" stroke-linejoin="round"/>
<path d="M90 364L90 326" stroke="white" stroke-width="3" stroke-linecap="round" stroke-linejoin="round"/>
<path d="M154 364L154 326" stroke="white" stroke-width="3" stroke-linecap="round" stroke-linejoin="round"/>
<path d="M90 301L90 263" stroke="white" stroke-width="3" stroke-linecap="round" stroke-linejoin="round"/>
<path d="M154 301L154 263" stroke="white" stroke-width="3" stroke-linecap="round" stroke-linejoin="round"/>
<path d="M90 235L90 198" stroke="white" stroke-width="3" stroke-linecap="round" stroke-linejoin="round"/>
<path d="M154 235L154 198" stroke="white" stroke-width="3" stroke-linecap="round" stroke-linejoin="round"/>
<path d="M90 172L90 134" stroke="white" stroke-width="3" stroke-linecap="round" stroke-linejoin="round"/>
<path d="M154 172L154 134" stroke="white" stroke-width="3" stroke-linecap="round" stroke-linejoin="round"/>
<path d="M129 677.529L129 678.584L122.279 678.584C122.521 678.838 122.764 679.172 123.006 679.586C123.248 679.996 123.43 680.365 123.551 680.693L122.531 680.693C122.254 680.104 121.918 679.588 121.523 679.146C121.129 678.705 120.746 678.393 120.375 678.209L120.375 677.529L129 677.529ZM124.764 674.822C123.748 674.822 122.932 674.719 122.314 674.512C121.693 674.301 121.215 673.99 120.879 673.58C120.543 673.166 120.375 672.646 120.375 672.021C120.375 671.561 120.469 671.156 120.656 670.809C120.84 670.461 121.107 670.174 121.459 669.947C121.807 669.721 122.232 669.543 122.736 669.414C123.236 669.285 123.912 669.221 124.764 669.221C125.771 669.221 126.586 669.324 127.207 669.531C127.824 669.738 128.303 670.049 128.643 670.463C128.979 670.873 129.146 671.393 129.146 672.021C129.146 672.85 128.85 673.5 128.256 673.973C127.541 674.539 126.377 674.822 124.764 674.822ZM124.764 673.738C126.174 673.738 127.113 673.574 127.582 673.246C128.047 672.914 128.279 672.506 128.279 672.021C128.279 671.537 128.045 671.131 127.576 670.803C127.107 670.471 126.17 670.305 124.764 670.305C123.35 670.305 122.41 670.471 121.945 670.803C121.48 671.131 121.248 671.541 121.248 672.033C121.248 672.518 121.453 672.904 121.863 673.193C122.387 673.557 123.354 673.738 124.764 673.738Z" fill="white"/>
<path d="M123 687L127 680L119 680L123 687Z" fill="white"/>
<path d="M127.986 610.959L129 610.959L129 616.637C128.746 616.645 128.502 616.604 128.268 616.514C127.881 616.369 127.5 616.139 127.125 615.822C126.75 615.502 126.316 615.041 125.824 614.439C125.059 613.506 124.453 612.875 124.008 612.547C123.559 612.219 123.135 612.055 122.736 612.055C122.318 612.055 121.967 612.205 121.682 612.506C121.393 612.803 121.248 613.191 121.248 613.672C121.248 614.18 121.4 614.586 121.705 614.891C122.01 615.195 122.432 615.35 122.971 615.354L122.859 616.438C122.051 616.363 121.436 616.084 121.014 615.6C120.588 615.115 120.375 614.465 120.375 613.648C120.375 612.824 120.604 612.172 121.061 611.691C121.518 611.211 122.084 610.971 122.76 610.971C123.104 610.971 123.441 611.041 123.773 611.182C124.105 611.322 124.455 611.557 124.822 611.885C125.189 612.209 125.693 612.75 126.334 613.508C126.865 614.141 127.227 614.547 127.418 614.727C127.605 614.906 127.795 615.055 127.986 615.172L127.986 610.959ZM124.764 609.822C123.748 609.822 122.932 609.719 122.314 609.512C121.693 609.301 121.215 608.99 120.879 608.58C120.543 608.166 120.375 607.646 120.375 607.021C120.375 606.561 120.469 606.156 120.656 605.809C120.84 605.461 121.107 605.174 121.459 604.947C121.807 604.721 122.232 604.543 122.736 604.414C123.236 604.285 123.912 604.221 124.764 604.221C125.771 604.221 126.586 604.324 127.207 604.531C127.824 604.738 128.303 605.049 128.643 605.463C128.979 605.873 129.146 606.393 129.146 607.021C129.146 607.85 128.85 608.5 128.256 608.973C127.541 609.539 126.377 609.822 124.764 609.822ZM124.764 608.738C126.174 608.738 127.113 608.574 127.582 608.246C128.047 607.914 128.279 607.506 128.279 607.021C128.279 606.537 128.045 606.131 127.576 605.803C127.107 605.471 126.17 605.305 124.764 605.305C123.35 605.305 122.41 605.471 121.945 605.803C121.48 606.131 121.248 606.541 121.248 607.033C121.248 607.518 121.453 607.904 121.863 608.193C122.387 608.557 123.354 608.738 124.764 608.738Z" fill="white"/>
<path d="M123 622L127 613L119 613L123 622Z" fill="white"/>
<path d="M126.732 552.496L126.592 551.441C127.189 551.32 127.621 551.115 127.887 550.826C128.148 550.533 128.279 550.178 128.279 549.76C128.279 549.264 128.107 548.846 127.764 548.506C127.42 548.162 126.994 547.99 126.486 547.99C126.002 547.99 125.604 548.148 125.291 548.465C124.975 548.781 124.816 549.184 124.816 549.672C124.816 549.871 124.855 550.119 124.934 550.416L124.008 550.299C124.016 550.229 124.02 550.172 124.02 550.129C124.02 549.68 123.902 549.275 123.668 548.916C123.434 548.557 123.072 548.377 122.584 548.377C122.197 548.377 121.877 548.508 121.623 548.77C121.369 549.031 121.242 549.369 121.242 549.783C121.242 550.193 121.371 550.535 121.629 550.809C121.887 551.082 122.273 551.258 122.789 551.336L122.602 552.391C121.895 552.262 121.348 551.969 120.961 551.512C120.57 551.055 120.375 550.486 120.375 549.807C120.375 549.338 120.477 548.906 120.68 548.512C120.879 548.117 121.152 547.816 121.5 547.609C121.848 547.398 122.217 547.293 122.607 547.293C122.979 547.293 123.316 547.393 123.621 547.592C123.926 547.791 124.168 548.086 124.348 548.477C124.465 547.969 124.709 547.574 125.08 547.293C125.447 547.012 125.908 546.871 126.463 546.871C127.213 546.871 127.85 547.145 128.373 547.691C128.893 548.238 129.152 548.93 129.152 549.766C129.152 550.52 128.928 551.146 128.479 551.646C128.029 552.143 127.447 552.426 126.732 552.496ZM124.764 545.822C123.748 545.822 122.932 545.719 122.314 545.512C121.693 545.301 121.215 544.99 120.879 544.58C120.543 544.166 120.375 543.646 120.375 543.021C120.375 542.561 120.469 542.156 120.656 541.809C120.84 541.461 121.107 541.174 121.459 540.947C121.807 540.721 122.232 540.543 122.736 540.414C123.236 540.285 123.912 540.221 124.764 540.221C125.771 540.221 126.586 540.324 127.207 540.531C127.824 540.738 128.303 541.049 128.643 541.463C128.979 541.873 129.146 542.393 129.146 543.021C129.146 543.85 128.85 544.5 128.256 544.973C127.541 545.539 126.377 545.822 124.764 545.822ZM124.764 544.738C126.174 544.738 127.113 544.574 127.582 544.246C128.047 543.914 128.279 543.506 128.279 543.021C128.279 542.537 128.045 542.131 127.576 541.803C127.107 541.471 126.17 541.305 124.764 541.305C123.35 541.305 122.41 541.471 121.945 541.803C121.48 542.131 121.248 542.541 121.248 543.033C121.248 543.518 121.453 543.904 121.863 544.193C122.387 544.557 123.354 544.738 124.764 544.738Z" fill="white"/>
<path d="M123 559L127 552L119 552L123 559Z" fill="white"/>
<path d="M129 485.121L126.943 485.121L126.943 488.848L125.977 488.848L120.41 484.928L120.41 484.066L125.977 484.066L125.977 482.906L126.943 482.906L126.943 484.066L129 484.066L129 485.121ZM125.977 485.121L122.104 485.121L125.977 487.811L125.977 485.121ZM124.764 481.822C123.748 481.822 122.932 481.719 122.314 481.512C121.693 481.301 121.215 480.99 120.879 480.58C120.543 480.166 120.375 479.646 120.375 479.021C120.375 478.561 120.469 478.156 120.656 477.809C120.84 477.461 121.107 477.174 121.459 476.947C121.807 476.721 122.232 476.543 122.736 476.414C123.236 476.285 123.912 476.221 124.764 476.221C125.771 476.221 126.586 476.324 127.207 476.531C127.824 476.738 128.303 477.049 128.643 477.463C128.979 477.873 129.146 478.393 129.146 479.021C129.146 479.85 128.85 480.5 128.256 480.973C127.541 481.539 126.377 481.822 124.764 481.822ZM124.764 480.738C126.174 480.738 127.113 480.574 127.582 480.246C128.047 479.914 128.279 479.506 128.279 479.021C128.279 478.537 128.045 478.131 127.576 477.803C127.107 477.471 126.17 477.305 124.764 477.305C123.35 477.305 122.41 477.471 121.945 477.803C121.48 478.131 121.248 478.541 121.248 479.033C121.248 479.518 121.453 479.904 121.863 480.193C122.387 480.557 123.354 480.738 124.764 480.738Z" fill="white"/>
<path d="M123 498L127 490L119 490L123 498Z" fill="white"/>
<path d="M126.75 424.502L126.656 423.395C127.195 423.313 127.602 423.123 127.875 422.826C128.145 422.525 128.279 422.164 128.279 421.742C128.279 421.234 128.088 420.805 127.705 420.453C127.322 420.102 126.814 419.926 126.182 419.926C125.58 419.926 125.105 420.096 124.758 420.436C124.41 420.771 124.236 421.213 124.236 421.76C124.236 422.1 124.314 422.406 124.471 422.68C124.623 422.953 124.822 423.168 125.068 423.324L124.939 424.314L120.527 423.482L120.527 419.211L121.535 419.211L121.535 422.639L123.844 423.102C123.484 422.586 123.305 422.045 123.305 421.479C123.305 420.729 123.564 420.096 124.084 419.58C124.604 419.064 125.271 418.807 126.088 418.807C126.865 418.807 127.537 419.033 128.104 419.486C128.799 420.037 129.146 420.789 129.146 421.742C129.146 422.523 128.928 423.162 128.49 423.658C128.053 424.15 127.473 424.432 126.75 424.502ZM124.764 417.822C123.748 417.822 122.932 417.719 122.314 417.512C121.693 417.301 121.215 416.99 120.879 416.58C120.543 416.166 120.375 415.646 120.375 415.021C120.375 414.561 120.469 414.156 120.656 413.809C120.84 413.461 121.107 413.174 121.459 412.947C121.807 412.721 122.232 412.543 122.736 412.414C123.236 412.285 123.912 412.221 124.764 412.221C125.771 412.221 126.586 412.324 127.207 412.531C127.824 412.738 128.303 413.049 128.643 413.463C128.979 413.873 129.146 414.393 129.146 415.021C129.146 415.85 128.85 416.5 128.256 416.973C127.541 417.539 126.377 417.822 124.764 417.822ZM124.764 416.738C126.174 416.738 127.113 416.574 127.582 416.246C128.047 415.914 128.279 415.506 128.279 415.021C128.279 414.537 128.045 414.131 127.576 413.803C127.107 413.471 126.17 413.305 124.764 413.305C123.35 413.305 122.41 413.471 121.945 413.803C121.48 414.131 121.248 414.541 121.248 415.033C121.248 415.518 121.453 415.904 121.863 416.193C122.387 416.557 123.354 416.738 124.764 416.738Z" fill="white"/>
<path d="M129 357.121L126.943 357.121L126.943 360.848L125.977 360.848L120.41 356.928L120.41 356.066L125.977 356.066L125.977 354.906L126.943 354.906L126.943 356.066L129 356.066L129 357.121ZM125.977 357.121L122.104 357.121L125.977 359.811L125.977 357.121ZM124.764 353.822C123.748 353.822 122.932 353.719 122.314 353.512C121.693 353.301 121.215 352.99 120.879 352.58C120.543 352.166 120.375 351.646 120.375 351.021C120.375 350.561 120.469 350.156 120.656 349.809C120.84 349.461 121.107 349.174 121.459 348.947C121.807 348.721 122.232 348.543 122.736 348.414C123.236 348.285 123.912 348.221 124.764 348.221C125.771 348.221 126.586 348.324 127.207 348.531C127.824 348.738 128.303 349.049 128.643 349.463C128.979 349.873 129.146 350.393 129.146 351.021C129.146 351.85 128.85 352.5 128.256 352.973C127.541 353.539 126.377 353.822 124.764 353.822ZM124.764 352.738C126.174 352.738 127.113 352.574 127.582 352.246C128.047 351.914 128.279 351.506 128.279 351.021C128.279 350.537 128.045 350.131 127.576 349.803C127.107 349.471 126.17 349.305 124.764 349.305C123.35 349.305 122.41 349.471 121.945 349.803C121.48 350.131 121.248 350.541 121.248 351.033C121.248 351.518 121.453 351.904 121.863 352.193C122.387 352.557 123.354 352.738 124.764 352.738Z" fill="white"/>
<path d="M123 319L119 327L127 327L123 319Z" fill="white"/>
<path d="M126.732 295.496L126.592 294.441C127.189 294.32 127.621 294.115 127.887 293.826C128.148 293.533 128.279 293.178 128.279 292.76C128.279 292.264 128.107 291.846 127.764 291.506C127.42 291.162 126.994 290.99 126.486 290.99C126.002 290.99 125.604 291.148 125.291 291.465C124.975 291.781 124.816 292.184 124.816 292.672C124.816 292.871 124.855 293.119 124.934 293.416L124.008 293.299C124.016 293.229 124.02 293.172 124.02 293.129C124.02 292.68 123.902 292.275 123.668 291.916C123.434 291.557 123.072 291.377 122.584 291.377C122.197 291.377 121.877 291.508 121.623 291.77C121.369 292.031 121.242 292.369 121.242 292.783C121.242 293.193 121.371 293.535 121.629 293.809C121.887 294.082 122.273 294.258 122.789 294.336L122.602 295.391C121.895 295.262 121.348 294.969 120.961 294.512C120.57 294.055 120.375 293.486 120.375 292.807C120.375 292.338 120.477 291.906 120.68 291.512C120.879 291.117 121.152 290.816 121.5 290.609C121.848 290.398 122.217 290.293 122.607 290.293C122.979 290.293 123.316 290.393 123.621 290.592C123.926 290.791 124.168 291.086 124.348 291.477C124.465 290.969 124.709 290.574 125.08 290.293C125.447 290.012 125.908 289.871 126.463 289.871C127.213 289.871 127.85 290.145 128.373 290.691C128.893 291.238 129.152 291.93 129.152 292.766C129.152 293.52 128.928 294.146 128.479 294.646C128.029 295.143 127.447 295.426 126.732 295.496ZM124.764 288.822C123.748 288.822 122.932 288.719 122.314 288.512C121.693 288.301 121.215 287.99 120.879 287.58C120.543 287.166 120.375 286.646 120.375 286.021C120.375 285.561 120.469 285.156 120.656 284.809C120.84 284.461 121.107 284.174 121.459 283.947C121.807 283.721 122.232 283.543 122.736 283.414C123.236 283.285 123.912 283.221 124.764 283.221C125.771 283.221 126.586 283.324 127.207 283.531C127.824 283.738 128.303 284.049 128.643 284.463C128.979 284.873 129.146 285.393 129.146 286.021C129.146 286.85 128.85 287.5 128.256 287.973C127.541 288.539 126.377 288.822 124.764 288.822ZM124.764 287.738C126.174 287.738 127.113 287.574 127.582 287.246C128.047 286.914 128.279 286.506 128.279 286.021C128.279 285.537 128.045 285.131 127.576 284.803C127.107 284.471 126.17 284.305 124.764 284.305C123.35 284.305 122.41 284.471 121.945 284.803C121.48 285.131 121.248 285.541 121.248 286.033C121.248 286.518 121.453 286.904 121.863 287.193C122.387 287.557 123.354 287.738 124.764 287.738Z" fill="white"/>
<path d="M123 254L119 262L127 262L123 254Z" fill="white"/>
<path d="M127.986 224.959L129 224.959L129 230.637C128.746 230.645 128.502 230.604 128.268 230.514C127.881 230.369 127.5 230.139 127.125 229.822C126.75 229.502 126.316 229.041 125.824 228.439C125.059 227.506 124.453 226.875 124.008 226.547C123.559 226.219 123.135 226.055 122.736 226.055C122.318 226.055 121.967 226.205 121.682 226.506C121.393 226.803 121.248 227.191 121.248 227.672C121.248 228.18 121.4 228.586 121.705 228.891C122.01 229.195 122.432 229.35 122.971 229.354L122.859 230.438C122.051 230.363 121.436 230.084 121.014 229.6C120.588 229.115 120.375 228.465 120.375 227.648C120.375 226.824 120.604 226.172 121.061 225.691C121.518 225.211 122.084 224.971 122.76 224.971C123.104 224.971 123.441 225.041 123.773 225.182C124.105 225.322 124.455 225.557 124.822 225.885C125.189 226.209 125.693 226.75 126.334 227.508C126.865 228.141 127.227 228.547 127.418 228.727C127.605 228.906 127.795 229.055 127.986 229.172L127.986 224.959ZM124.764 223.822C123.748 223.822 122.932 223.719 122.314 223.512C121.693 223.301 121.215 222.99 120.879 222.58C120.543 222.166 120.375 221.646 120.375 221.021C120.375 220.561 120.469 220.156 120.656 219.809C120.84 219.461 121.107 219.174 121.459 218.947C121.807 218.721 122.232 218.543 122.736 218.414C123.236 218.285 123.912 218.221 124.764 218.221C125.771 218.221 126.586 218.324 127.207 218.531C127.824 218.738 128.303 219.049 128.643 219.463C128.979 219.873 129.146 220.393 129.146 221.021C129.146 221.85 128.85 222.5 128.256 222.973C127.541 223.539 126.377 223.822 124.764 223.822ZM124.764 222.738C126.174 222.738 127.113 222.574 127.582 222.246C128.047 221.914 128.279 221.506 128.279 221.021C128.279 220.537 128.045 220.131 127.576 219.803C127.107 219.471 126.17 219.305 124.764 219.305C123.35 219.305 122.41 219.471 121.945 219.803C121.48 220.131 121.248 220.541 121.248 221.033C121.248 221.518 121.453 221.904 121.863 222.193C122.387 222.557 123.354 222.738 124.764 222.738Z" fill="white"/>
<path d="M123 190L119 197L127 197L123 190Z" fill="white"/>
<path d="M129 162.529L129 163.584L122.279 163.584C122.521 163.838 122.764 164.172 123.006 164.586C123.248 164.996 123.43 165.365 123.551 165.693L122.531 165.693C122.254 165.104 121.918 164.588 121.523 164.146C121.129 163.705 120.746 163.393 120.375 163.209L120.375 162.529L129 162.529ZM124.764 159.822C123.748 159.822 122.932 159.719 122.314 159.512C121.693 159.301 121.215 158.99 120.879 158.58C120.543 158.166 120.375 157.646 120.375 157.021C120.375 156.561 120.469 156.156 120.656 155.809C120.84 155.461 121.107 155.174 121.459 154.947C121.807 154.721 122.232 154.543 122.736 154.414C123.236 154.285 123.912 154.221 124.764 154.221C125.771 154.221 126.586 154.324 127.207 154.531C127.824 154.738 128.303 155.049 128.643 155.463C128.979 155.873 129.146 156.393 129.146 157.021C129.146 157.85 128.85 158.5 128.256 158.973C127.541 159.539 126.377 159.822 124.764 159.822ZM124.764 158.738C126.174 158.738 127.113 158.574 127.582 158.246C128.047 157.914 128.279 157.506 128.279 157.021C128.279 156.537 128.045 156.131 127.576 155.803C127.107 155.471 126.17 155.305 124.764 155.305C123.35 155.305 122.41 155.471 121.945 155.803C121.48 156.131 121.248 156.541 121.248 157.033C121.248 157.518 121.453 157.904 121.863 158.193C122.387 158.557 123.354 158.738 124.764 158.738Z" fill="white"/>
<path d="M123 126L119 133L127 133L123 126Z" fill="white"/>
<path d="M261 88L261 69.1687L261 40" stroke="white" stroke-width="3" stroke-linecap="round" stroke-linejoin="round"/>
<path d="M227 88L227 69.1687L227 40" stroke="white" stroke-width="3" stroke-linecap="round" stroke-linejoin="round"/>
<path d="M227 70L261 70" stroke="white" stroke-width="3" stroke-linecap="round" stroke-linejoin="round"/>
<path d="M261 779L261 749.831L261 731" stroke="white" stroke-width="3" stroke-linecap="round" stroke-linejoin="round"/>
<path d="M227 779L227 749.831L227 731" stroke="white" stroke-width="3" stroke-linecap="round" stroke-linejoin="round"/>
<path d="M261 750L227 750" stroke="white" stroke-width="3" stroke-linecap="round" stroke-linejoin="round"/>
</g>
<defs>
<clipPath id="clip0_5830_27457">
<rect width="821" height="487" fill="white" transform="translate(487) rotate(90)"/>
</clipPath>
</defs>
</svg>
