<svg width="27" height="27" viewBox="0 0 27 27" fill="none" xmlns="http://www.w3.org/2000/svg">
<path d="M13.5489 25.9698C20.3415 25.9698 25.8479 20.4634 25.8479 13.6709C25.8479 6.87837 20.3415 1.37195 13.5489 1.37195C6.75643 1.37195 1.25 6.87837 1.25 13.6709C1.25 20.4634 6.75643 25.9698 13.5489 25.9698Z" fill="url(#paint0_radial_5863_14417)"/>
<g opacity="0.5">
<path d="M13.5487 25.5526C11.2982 25.5526 9.10762 24.9205 7.21369 23.7246C5.37092 22.5611 3.88329 20.9172 2.91161 18.9707C2.84429 18.8358 2.89903 18.6719 3.0339 18.6046C3.16881 18.5372 3.33268 18.592 3.40001 18.7269C5.33362 22.6004 9.22236 25.0067 13.5487 25.0067C14.8553 25.0067 16.1359 24.7864 17.3551 24.3519C17.4971 24.3013 17.6532 24.3754 17.7038 24.5174C17.7544 24.6593 17.6803 24.8155 17.5383 24.8661C16.2602 25.3216 14.9179 25.5526 13.5487 25.5526Z" fill="url(#paint1_linear_5863_14417)"/>
</g>
<path d="M24.8161 11.8749C24.6868 11.8749 24.5719 11.7826 24.5479 11.6509C23.5795 6.34381 18.9546 2.49191 13.5509 2.49191C11.0079 2.49191 8.61194 3.32383 6.62195 4.89772C6.50372 4.99122 6.33208 4.97121 6.23856 4.85294C6.14506 4.73471 6.16509 4.56309 6.28332 4.46955C7.29637 3.66834 8.42473 3.04447 9.63705 2.61527C10.8914 2.17122 12.2082 1.94604 13.5509 1.94604C16.3117 1.94604 18.9931 2.9242 21.1012 4.70031C23.184 6.45512 24.5988 8.88875 25.0849 11.5529C25.1119 11.7012 25.0137 11.8433 24.8654 11.8704C24.8488 11.8734 24.8323 11.8749 24.8161 11.8749Z" fill="url(#paint2_linear_5863_14417)"/>
<defs>
<radialGradient id="paint0_radial_5863_14417" cx="0" cy="0" r="1" gradientUnits="userSpaceOnUse" gradientTransform="translate(13.5489 13.6709) scale(12.2989)">
<stop stop-color="#E71818"/>
<stop offset="1" stop-color="#E60000"/>
</radialGradient>
<linearGradient id="paint1_linear_5863_14417" x1="2.88281" y1="22.0642" x2="17.7197" y2="22.0642" gradientUnits="userSpaceOnUse">
<stop stop-color="white" stop-opacity="0"/>
<stop offset="0.5" stop-color="white"/>
<stop offset="0.999999" stop-color="white" stop-opacity="0"/>
</linearGradient>
<linearGradient id="paint2_linear_5863_14417" x1="6.17969" y1="6.91046" x2="25.0894" y2="6.91046" gradientUnits="userSpaceOnUse">
<stop stop-color="white" stop-opacity="0"/>
<stop offset="0.5" stop-color="white"/>
<stop offset="0.999999" stop-color="white" stop-opacity="0"/>
</linearGradient>
</defs>
</svg>
