<svg xmlns="http://www.w3.org/2000/svg" viewBox="0 0 1000 1000"><defs><style>.cls-1{fill:#fff;}.cls-2{fill:#d81a22;}.cls-3{fill:#898888;}</style></defs><title>m1khan icons two FINAL 1Artboard 1 copy 8</title><g id="background"><circle class="cls-1" cx="500" cy="500" r="423.5"/></g><g id="color"><path class="cls-2" d="M754.41,338.55a48.61,48.61,0,0,0,0,97.21c1,0,2,0,3-.09l0,3.08v161.4a34,34,0,0,1-34,34H247a34,34,0,0,1-34-34V293.93a34,34,0,0,1,34-34H723.38a34,34,0,0,1,34,34v44.58ZM348,524.45c1.74,5,4,11.47,6.61,19.19-11.41-5.85-48.24,10.58-61.36,15,0,0-7.24-6.66-11.75-8.71-2.43-1.12-7.64-.35-10.53,2.05-.77-.5-1.76-1.81-3.42.63-1.08,1.59-.55,1.93.58,2.69-.49.78-1.4,2.34-1.87,3.32-.92-.26-1.66-1.27-2.94,1.15-1.42,2.72,0,2.84,1.2,3.31-3.68,7.51-9.81,12.09-13.5,19.84-1.17-.47-2-1-3.22,2.06-.84,2.17,0,2.54,1.29,3.22a58.34,58.34,0,0,0-1.42,6.15,1.87,1.87,0,0,0-2.46,1.58c-.42,3.08,0,3.53,1.87,3.74-.08,1.34-.11,2.79-.11,4.39,1.06,4.54,5.09,5.44,7.44,3.63,12.61-9.62,22.32-15.94,29.45-21,18.73-1.77,70-5.24,85-6.55,7.42.49,29.59-18.65,29.82-25.18a257.12,257.12,0,0,0-.69-30.45c-.59-8-1.4-16.85-2.15-29.6l3.49-1.1.28-26.68,7.07.37s-.12,0,.79-3c18.15,2,52.31,7.37,75.06,5.79a13.44,13.44,0,0,1,11.06,4.46c5.82,4.88,48.22,9.35,83.64,9.58,4.42,11.9,14,14.1,14,14.1.77.45,1.35-.05,3.37-1,1.13,1.19,1.76,1.83,3.85.74,1.67-.88,1.62-1.66,1.07-3l1.68-1.07c1.07,1.11,2,1.71,3.62.68s1.75-1.44.6-3.18c3.6-2.36,24.34-17.89,24.34-17.89.75.76,1.21,1.17,1.66,1.08a7.73,7.73,0,0,0,3-2.33c.25-.6-.33-1.3-1-2.1l3.56-2.77c.62.8,1.13,1.25,1.59,1.11a4.28,4.28,0,0,0,2.16-2.05c.24-.5-.38-1.29-.92-2l2.35-2.88c-.92-4.12-5-3.65-8.57-3.4-8.92.67-34.41,4.49-44.13,4-18.2-6.05-87.36-31.91-91.44-33.43a32.09,32.09,0,0,0-13-2c-18.66-10-53.9-17.65-57.11-18.53-.94-.27-.58-1.79-.86-2.94,0,0-15.32-2.79-27.8-2.68,2.33-9,5.69-36.2,5.71-44.43a12.1,12.1,0,0,0,5.71,2.11c4.37.47,8.94-2.71,14.48-5,2.89-1.17,3.3.53,5-.5,3.7-2.3,5.54-9,11-13.05,3.45-2.79,7.05-1.91,8.53-5.09,2.46-5.31,1.25-9,.23-14.69-1.54-8.5-3.38-14.31-10.15-19.68-5.36-4.25-9.7-5.75-16.54-5.85-8-.1-21.5,3.82-28.83,22.39-8.25-4.74-11.41-7.1-20.19-10.24-15.94-5.71-66.15,5.33-71.77,7.92a31.58,31.58,0,0,1,.42,4.92s-6.14.21-8.54,3.7c-11.8,17.13-25.36,41.17-25.36,41.17-4.9,1-8.14,4.51-10.45,9.35-2.4,5.05-4.6,5.69-9.61,8.91-3.46,1.17-2.2,5-.23,4.84,3.63-.22,6.85-2.3,10.54-5.07-2,6.1-9.15,10.39-9.36,12.85.73,3.32,8.45,7.9,18.48.27,3.2-2.45,6.66-4.54,8.82-7.7,1.27-1.52,1.94-8.15,3.35-12.95,2.24-1,19.19-16.48,31.39-28.81,0,0,25-5.05,36.92-6.92,0,0-9.27,4.42-18.49,7.6C314.8,406.2,316,431.47,324.1,434.07c-6.31,11.35,8.21,57.87,15.89,77.41l3.76.63s1.52,4.36,4.29,12.34"/><path class="cls-3" d="M787,387.63c0,17.06-13.45,30.89-30,30.89s-30.05-13.83-30.05-30.89,13.45-30.89,30.05-30.89S787,370.58,787,387.63Z"/><path d="M216.41,675.11H246a16.51,16.51,0,0,1,12.19,4.8c2.95,3,4.43,6.9,4.43,11.82a13.59,13.59,0,0,1-4.06,10A14.06,14.06,0,0,1,253,705a17.69,17.69,0,0,1,7,4.06,15,15,0,0,1,4.44,11.08,18.56,18.56,0,0,1-5.54,13.66q-4.44,4.44-13.3,4.43H216.41Zm8.5,7V701.7h19.94a8.52,8.52,0,0,0,6.27-2.59,10.48,10.48,0,0,0,3-7.75,9.59,9.59,0,0,0-3-7,7.48,7.48,0,0,0-5.54-2.21Zm0,26.58v22.53h18.83q5.53,0,8.49-3A12.1,12.1,0,0,0,252.6,712a12,12,0,0,0-8.86-3.32Z"/><path d="M277,675.11h8.49v44.31a11.47,11.47,0,0,0,3.33,8.49Q292.84,732,300.6,732t11.82-4.06a11.5,11.5,0,0,0,3.32-8.49V675.11h8.5v44.68a18,18,0,0,1-5.17,13.29Q313.16,739,300.6,739t-18.46-5.91A18,18,0,0,1,277,719.79Z"/><path d="M337.53,675.11h9.23L376.3,725V675.11h8.49v63.14h-9.23L346,688.4v49.85h-8.49Z"/><path d="M397.72,675.11h22.15a25.62,25.62,0,0,1,18.83,7.75q8.13,8.13,8.13,24.37,0,15.51-8.5,24-7,7-18.46,7H397.72Zm8.49,7v49.11H419.5A15.5,15.5,0,0,0,431,726.81q7-7,7-19.58,0-13.29-6.65-19.94a16.3,16.3,0,0,0-11.82-5.16Z"/><path d="M459,675.11h40.62v7H467.51V701.7h29.9v7h-29.9v22.53h34v7H459Z"/><path d="M518.46,679.54q5.17-5.16,15.88-5.17,11.45,0,17.35,5.91a16.66,16.66,0,0,1,5.17,12.18h-8.49a10,10,0,0,0-3-7.38q-3.33-3.33-10.34-3.32-7.76,0-10.71,3a8.15,8.15,0,0,0-2.58,5.91c0,2.21.49,3.82,1.47,4.8q1.85,1.85,6.65,3.69,8.49,3.71,19.2,8.49a15.67,15.67,0,0,1,5.54,3.7,13.11,13.11,0,0,1,4.06,9.6,17.06,17.06,0,0,1-5.17,12.55Q548,739,535.45,739q-12.19,0-18.83-6.65-4.8-4.79-4.8-14h8.49c0,4.43,1,7.64,3,9.6q4.07,4.07,12.56,4.06c5.17,0,9-1.22,11.44-3.69q3-2.94,3-5.91a7.48,7.48,0,0,0-2.22-5.53,20.63,20.63,0,0,0-5.91-3.7q-3.69-1.85-9.6-4.43c-4.43-2-8-3.57-10.7-4.8a14.39,14.39,0,0,1-5.17-3.32,12,12,0,0,1-3.33-8.86A16.71,16.71,0,0,1,518.46,679.54Z"/><path d="M608.79,739.41H570V673.66h13.57v55.06h25.2Z"/><path d="M620.89,673.66h13.56v65.75H620.89Z"/><path d="M702.19,736.84a66.25,66.25,0,0,1-20.08,3.25c-10.71,0-18.87-2.56-24.83-8s-9.53-14.54-9.53-25c0-22.23,15.85-34.11,36.11-34.11,7.15,0,13.1,1.2,16.5,2.73l-2.84,10.44c-3.21-1.37-7.24-2.4-13.48-2.4-12.56,0-22.09,7.18-22.09,23.08,0,15.23,8.71,22.92,20.35,22.92a20.06,20.06,0,0,0,7-.94V712.73H679.09v-10h23.1Z"/><path d="M768.92,739.41H754.71l-5-17.35H730.79l-4.86,17.35H712.19l20-65.75h17Zm-21.17-26.93-4.22-15c-1.1-4.11-2.29-9.41-3.21-13.43h-.27c-.92,4.11-2.11,9.5-3.12,13.34l-4.22,15.05Z"/></g></svg>