<svg xmlns="http://www.w3.org/2000/svg" viewBox="0 0 1000 1000"><defs><style>.cls-1{fill:#fff;}.cls-2{fill:#8c1539;}.cls-3{fill:#efece8;}.cls-4{fill:#ebe7e3;}.cls-5{fill:#9a9794;}.cls-6{fill:#aca9a6;}.cls-7{fill:#8f8c8a;}.cls-8{fill:#ccc9c6;}.cls-9{fill:#e0dcd9;}.cls-10{fill:#fffbf7;}.cls-11{fill:#bbb8b5;}.cls-12{fill:#a5a2a0;}.cls-13{fill:#dad7d3;}.cls-14{fill:#fefaf6;}.cls-15{fill:#dedbd7;}.cls-16{fill:#bcbab7;}.cls-17{fill:#e1deda;}.cls-18{fill:#cecbc8;}</style></defs><title>m1khan icons two FINAL 1Artboard 1 copy</title><g id="background"><circle class="cls-1" cx="500" cy="500" r="423.5"/></g><g id="color"><path class="cls-2" d="M616.08,777.66a7.12,7.12,0,0,1,.44.65c-.2.28-.39.6-.61.87a39.84,39.84,0,0,1-5.58,5.36,1.31,1.31,0,0,1-1.94,0c-2.24-1.83-5.68-3.7-5.71-6.11,0-2.6,3.49-4.42,5.77-6.28.46-.39.88-.8,1.56-.26A37,37,0,0,1,616.08,777.66Z"/><path class="cls-2" d="M630.12,757.55c-5.72-5.79-13-7.68-21-7.75a34.73,34.73,0,0,0-6.35.51C589.41,752.48,581,762.57,581.43,776c.42,13.25,11.49,27.06,24.31,30.35a12.81,12.81,0,0,0,7.82-.3c11.2-4.21,19-11.81,22.31-23.4C638.46,773.42,637.15,764.66,630.12,757.55Zm-6.36,18.87c-.11,7.52-1.56,14.69-6.66,20.51-6,6.87-9.89,7-15.75,0-6.46-7.68-8-16.92-6.13-26.55,1.34-7,7.72-10.89,15.33-10.21s12.64,5.53,13.2,13.08C623.83,774.3,623.76,775.35,623.76,776.42Z"/><path class="cls-2" d="M542.43,795.8c10.77,0,21.56.07,32.33,0,2.15,0,2.42.75,2,2.46-.55,2.13-1.13,4.25-1.59,6.39-.24,1.11-.78,1.45-1.88,1.44q-19.59,0-39.17,0c-1.2,0-1.63-.46-1.72-1.52a3.58,3.58,0,0,0-.09-.45c-1.06-6.37-1-6.35,4.56-9.71,6.63-4,13.28-8,19.07-13.15,3.55-3.18,6.21-6.83,6-12s-3.08-8.5-8.33-9c-6.72-.64-13.13.7-19.7,3.35.8-3.78,1.6-7.25,3.67-10.28a2.76,2.76,0,0,1,1.29-.85c8-3,16.1-3.77,24.31-1.43,14.65,4.18,14.26,21.33,7.15,29.27-4.69,5.24-10.72,8.34-17.06,11-3.61,1.5-7.3,2.81-10.95,4.21Z"/><path class="cls-2" d="M649.51,795.8c10.86,0,21.71.05,32.57,0,1.79,0,2.1.44,1.86,2.13-1.14,8.13-1.1,8.14-9.12,8.14-11,0-22,0-33,0-1.69,0-2.17-.54-2.42-2.08-1-6.28-1-6.28,4.3-9.46,6.71-4,13.42-8,19.29-13.22,3.3-2.94,5.88-6.29,6.12-11,.29-5.84-2.82-9.56-8.67-10.06-6.64-.57-13,.79-19.38,3.38a31.29,31.29,0,0,1,3.39-10,2.85,2.85,0,0,1,1.59-1.2c8-3,16.13-3.81,24.32-1.37,11.44,3.42,15.59,16.55,8.73,27-3.13,4.8-7.73,7.84-12.69,10.42a112.92,112.92,0,0,1-14.26,5.9l-2.7,1Z"/><path class="cls-2" d="M698.72,795.8c10.77,0,21.55.06,32.32,0,2.06,0,2.35.6,2.06,2.42C731.84,806,731.88,806,724,806c-10.93,0-21.86-.06-32.78.05-1.92,0-2.42-.67-2.65-2.35-.84-6.1-.88-6.09,4.36-9.21,6.71-4,13.43-8,19.28-13.23,3.17-2.83,5.74-6,6.07-10.55.45-6.25-2.64-10-8.87-10.52-6.56-.53-12.8.84-19.13,3.4a31.51,31.51,0,0,1,3.39-10,2.91,2.91,0,0,1,1.6-1.2c8-3,16.1-3.73,24.31-1.38,14.55,4.17,14.13,21.07,7.4,28.92-3.9,4.55-8.9,7.47-14.23,10C708.15,792.1,703.35,793.68,698.72,795.8Z"/><path class="cls-2" d="M487.45,764c0-1.15-.33-1.66-1.5-1.73-7.49-.43-15-1.18-22.49-.11-10.44,1.49-17,7.54-19,17.72a36.47,36.47,0,0,0-.19,13.58c.32,1.76.15,2.39-2,2.37-14.43-.11-28.85,0-43.27-.08a36.21,36.21,0,0,1-5.21-.38c-3.84-.55-5.83-2.68-5.92-6.56-.11-4.86,0-9.72-.06-14.57,0-1.17.32-1.63,1.55-1.59,2,.09,3.94,0,5.92,0,8.32,0,8.43-.16,9.42-8.53.18-1.59-.34-1.73-1.63-1.7-4.33,0-8.66-.07-13,0-1.82.06-2.38-.43-2.22-2.27.35-3.91.5-7.82.74-12a30.58,30.58,0,0,0-12.79,7.46,2.6,2.6,0,0,0-.7,1.61c-.21,1.68.92,4-.55,4.9-1.26.79-3.38.21-5.13.25h-.23c-1.3-.25-1.73.47-1.81,1.62-.16,2.43-.32,4.85-.55,7.27-.09,1,.24,1.37,1.25,1.33,1.59-.05,3.2.1,4.78,0,1.76-.15,2.32.38,2.31,2.23,0,5.76-.33,11.54.19,17.29.68,7.53,5.26,12.44,12.71,13.57a33.11,33.11,0,0,0,5,.24c19.82,0,39.64-.19,59.44.13,7.35.11,12.28-2.93,16.09-8.72,2.31-3.5,4-7.28,6.11-11,0,6,0,11.93,0,17.91,0,1.39.37,1.82,1.78,1.78,3-.1,6.07-.08,9.11,0,1.29,0,1.88-.21,1.88-1.72C487.4,790.9,487.42,777.46,487.45,764Zm-19.13,25.3a14.21,14.21,0,0,1-4,5.43c-2.42,1.81-4.89,1.27-5.85-1.56-1.92-5.62-2-11.47-1.16-17.28.35-2.63,2.6-3.74,5.06-4.22,4-.8,8-.37,12.3-.48C472.68,777.59,471.05,783.65,468.32,789.33Z"/><path class="cls-2" d="M319.66,818.2a14.19,14.19,0,0,0-8.43-11.82c-4.21-2.09-8.31-4.39-12.46-6.6-2.38-1.27-4.77-2.57-7.52-4.06a46.67,46.67,0,0,0,7.59-3.67,31.76,31.76,0,0,0,6.37-5.11c9.93-10.53,8.35-27.74-3.31-35.51-6.2-4.13-13.22-5.31-20.47-4.69-10.43.88-19,5.3-23.29,15.28S255,781.89,262,790.66c4.33,5.46,10,9.26,16.06,12.48,9.3,5,18.65,9.78,28,14.65,4.55,2.37,9.11,4.73,13.83,7.21A36.12,36.12,0,0,0,319.66,818.2Zm-31.16-25a1.18,1.18,0,0,1-1.6.26c-4.92-2.71-9.77-5.53-13.41-10a17.91,17.91,0,0,1-3.65-16.42c1.49-6.07,6.29-9.68,13.23-10.12,6.29-.39,11.23,2.62,13.56,8.26a22.54,22.54,0,0,1,1.52,8.45C298.25,781.8,294.11,787.86,288.5,793.19Z"/><path class="cls-2" d="M361.33,764c0-1.19-.39-1.61-1.51-1.67-7.49-.43-15-1.26-22.48-.07-7.86,1.23-14.34,4.72-17.42,12.5a34.56,34.56,0,0,0-.43,24.49c2.7,7.88,9.94,10,16.78,5.14a26.38,26.38,0,0,0,6.85-7.83c2-3.25,3.55-6.77,5.46-10.2v2.16c0,5.24,0,10.47,0,15.71,0,1.28.16,1.92,1.69,1.86,3.19-.12,6.38-.08,9.56,0,1.22,0,1.53-.4,1.52-1.56Q361.28,784.23,361.33,764Zm-20,26.91a11.13,11.13,0,0,1-3.3,4c-2.4,1.66-4.55,1.08-5.73-1.56A21,21,0,0,1,331,786a77.81,77.81,0,0,1-.16-7.94c.1-3.7,1.84-5.63,5.54-6.36,4-.79,8-.36,12.22-.44C346.39,778,344.75,784.76,341.37,790.88Z"/><path class="cls-2" d="M510.49,781.16c1.11-2.9,1.88-5.89,3.23-8.67,2.47-5.11,5.84-9.18,11.73-10.53,1.48-.34,2.12-.25,2.32,1.51.35,3.24.75,6.47.82,9.73,0,.94,0,1.5-1.28,1.44-5.28-.23-8.88,2.57-11.46,6.87-3.15,5.24-4.38,11.09-5.05,17.07-.22,2-.35,3.94-.38,5.91,0,1.15-.31,1.59-1.54,1.56-3.11-.08-6.23-.1-9.33,0-1.53.06-1.92-.45-1.92-1.93.05-9.26.07-18.51,0-27.77,0-4-.31-8-.57-12-.09-1.32.1-1.92,1.63-1.86,3,.12,6.07.08,9.11,0,1.16,0,1.51.39,1.66,1.53A136.37,136.37,0,0,1,510.49,781.16Z"/><path class="cls-2" d="M728.53,701.42c0,4.71.1,9.41,0,14.12-.23,8.85-5,14.65-13.64,16.62A28.28,28.28,0,0,1,697,730.88a14.64,14.64,0,0,1-9.38-12.7c-.94-10.59-.22-21.23-.39-31.85,0-.88.31-1.21,1.19-1.2,3.42,0,6.83,0,10.25,0,1.6,0,1.13,1.1,1.13,1.89q0,12.4,0,24.81a19.85,19.85,0,0,0,.9,6.72c1.23,3.5,3.52,5.1,7.21,5.09s6-1.66,7.2-5.13a22.48,22.48,0,0,0,.84-7.43c0-8,0-15.93,0-23.9,0-1.52.29-2.15,2-2.07,3,.14,5.92.11,8.88,0,1.38-.05,1.81.3,1.79,1.75-.1,4.85,0,9.71,0,14.56Z"/><path class="cls-2" d="M760,686.24a29.08,29.08,0,0,0-3.35-.63c-6.57-.91-13.17-.22-19.76-.51-1.84-.08-2.07.6-2.06,2.19.08,7,0,14.09,0,21.14,0,7.28,0,14.56,0,21.84,0,1.49.4,1.94,1.9,1.89,2.95-.12,5.92-.11,8.87,0,1.4.05,1.8-.36,1.77-1.76-.09-4.25,0-8.5-.07-12.75,0-1.64.5-2,2.05-2a40.2,40.2,0,0,0,8.62-.46c7.79-1.39,12.65-6.57,12.93-13.87Q771.37,689.32,760,686.24Zm-7.8,20.44c-.68.07-1.37.12-2.63.22-1.78.47-2.46-.51-2.28-2.84a78.63,78.63,0,0,0,0-8.41c0-1.3.38-1.82,1.68-1.68,1.13.11,2.28.06,3.4.2,4.13.5,6,2.49,5.93,6.33S756.24,706.29,752.19,706.68Z"/><path class="cls-2" d="M670,733a34.68,34.68,0,0,1-14.59-3c-9.71-4.53-14.56-14.33-12.71-25.5,1.87-11.33,9.56-18.42,21.13-19.86a46.35,46.35,0,0,1,17.78,1.54c1.38.37,1.79.92,1.55,2.36a62.4,62.4,0,0,0-.6,6.57c-.07,1.39-.42,1.71-1.76,1a23.13,23.13,0,0,0-10.07-2.5c-9.61-.26-16.41,7.14-15.31,16.7.9,7.77,5.94,12.56,13.79,13.19a28.35,28.35,0,0,0,11.84-1.7c1.43-.51,1.94-.28,1.92,1.25s.08,2.88.18,4.32c.26,3.71.28,3.73-3.44,4.51A44.64,44.64,0,0,1,670,733Z"/><path class="cls-2" d="M413.67,696.67q-1.35,7.83-2.69,15.65c-1.06,6.12-2.16,12.24-3.13,18.37-.19,1.21-.68,1.46-1.76,1.45-4.48,0-9,0-13.44,0-.87,0-1.41-.18-1.62-1.13-3.35-15.22-6.73-30.44-10.14-45.87,4,0,7.89,0,11.75,0,1.33,0,1.21,1,1.33,1.68,1.29,7.54,2.54,15.09,3.8,22.64.62,3.73,1.26,7.47,2.19,11.23q1.41-7.89,2.8-15.8c1.08-6.12,2.17-12.23,3.18-18.36.18-1,.56-1.4,1.6-1.39,4.4,0,8.81.06,13.21,0,1.19,0,1.48.45,1.68,1.55,1.91,10.74,3.9,21.46,5.87,32.19a2.17,2.17,0,0,0,.7,1.62c1.3-7.66,2.58-15.14,3.85-22.62.63-3.74,1.3-7.47,1.85-11.21.18-1.3.79-1.56,2-1.53,2.88.07,5.77.12,8.65,0,1.68-.07,1.83.51,1.5,1.95-2.92,12.85-5.77,25.72-8.65,38.58-.38,1.7-.89,3.38-1.14,5.1-.18,1.21-.76,1.42-1.82,1.41-4.33,0-8.66-.1-13,0-1.44,0-1.79-.56-2-1.75q-3.06-16.87-6.18-33.75Z"/><path class="cls-2" d="M625.93,704.75c-.5-5.28-2.22-10.07-6.3-13.71-3.76-3.38-8.39-4.76-13.27-5.38-7.94-1-15.94-.31-23.9-.54-1.62-.06-1.38.94-1.38,1.92v21.62c0,5.62,0,11.23,0,16.85,0,2.11-.9,4.87.35,6.16s4.17.44,6.33.43c6.82-.08,13.67.52,20.43-.94,8.91-1.92,15.1-6.79,17.22-16A32.56,32.56,0,0,0,625.93,704.75Zm-13.29,8.53c-1.23,5.18-4.92,8.44-10.29,9.26a57.16,57.16,0,0,1-7,.38c-1.31.05-1.68-.37-1.66-1.67.07-4.24,0-8.49,0-12.74s.05-8.34,0-12.51c0-1.31.37-1.69,1.67-1.66,2.95.07,5.91,0,8.8.82a11.53,11.53,0,0,1,8.52,8.88A20,20,0,0,1,612.64,713.28Z"/><path class="cls-2" d="M494.83,707.15c-.28-13.13-7.13-21-20.13-22.61-7.62-.93-14.9.31-20.66,6-5,4.91-6.24,11.25-6.32,18.85.12,7.58,2.06,15.27,9.88,20.06,6.42,3.95,13.48,4.28,20.64,2.71,8.46-1.86,13.59-7.19,15.71-15.53A35.51,35.51,0,0,0,494.83,707.15Zm-15.06,11.23a8.8,8.8,0,0,1-8.6,5.25,9.11,9.11,0,0,1-8.41-5.25,19.88,19.88,0,0,1-2.13-9.32,21.63,21.63,0,0,1,1.89-9.85,9.17,9.17,0,0,1,8.66-5.56,8.81,8.81,0,0,1,8.73,5.4A22.18,22.18,0,0,1,479.77,718.38Z"/><path class="cls-2" d="M538.83,730.53c-2.08-5.52-4.05-11.08-6.09-16.61-.79-2.09-1.91-3.94-4.09-4.84.08-.16.1-.25.16-.28a1.88,1.88,0,0,1,.58-.33,10.12,10.12,0,0,0,7.36-7.89c1.71-7.76-2-13.71-9.94-14.9-8.65-1.32-17.42-.28-26.13-.55-1.22,0-1.06.8-1.06,1.53q0,22,0,43.92c0,1.42.58,1.59,1.75,1.56,3,0,6.07-.11,9.11,0,1.47.05,1.73-.48,1.72-1.82-.08-4.93,0-9.86-.07-14.79,0-1.49.26-2.06,1.95-2.08a7.37,7.37,0,0,1,7.72,5.09c1.56,3.94,2.75,8,4,12a1.8,1.8,0,0,0,2.05,1.54c3.26-.1,6.52-.08,9.78,0C539,732.18,539.37,731.94,538.83,730.53ZM521.09,704c-2.64.84-5.38.62-8.09.66-.93,0-.86-.64-.86-1.25v-5.21c0-4.56,0-4.58,4.65-4.18a17.54,17.54,0,0,1,4.25.63c2.15.73,3.49,2,3.52,4.42A4.54,4.54,0,0,1,521.09,704Z"/><path class="cls-2" d="M544.82,708.65c0-7.12,0-14.25,0-21.38,0-1.61.25-2.29,2.07-2.18a65.56,65.56,0,0,0,8.41,0c1.81-.11,2.07.57,2.06,2.18-.07,11.14,0,22.28-.08,33.43,0,1.83.51,2.28,2.28,2.24,5.15-.12,10.31,0,15.46-.07,1.35,0,1.91.29,1.82,1.75-.12,2-.08,3.94,0,5.91,0,1.11-.18,1.63-1.47,1.62q-14.57-.07-29.12,0c-1.62,0-1.39-.93-1.39-1.9Q544.83,719.46,544.82,708.65Z"/><path class="cls-2" d="M372.18,731.29q-8.18-22.51-16.35-45c-.37-1-1-1.14-1.91-1.14-3.94,0-7.89.12-11.83,0-1.63-.07-2.19.56-2.68,2-4.63,12.82-9.33,25.61-14,38.42-.78,2.14-1.53,4.31-2.35,6.64h9.19c5,0,5.07,0,6.54-4.8.35-1.15.82-1.58,2-1.56,3.1.09,6.23,0,9.34,0,1.82,0,3.95-.51,5.36.27s1.21,3.1,1.76,4.75c.25.72.44,1.34,1.49,1.32,4.46,0,8.93,0,13.42,0A2.74,2.74,0,0,0,372.18,731.29Zm-20.47-14.52c-2.72-.08-5.45-.08-8.17,0-1.56.05-1.52-.62-1.17-1.79,1.68-5.72,3.31-11.44,5-17.2.87.64.83,1.65,1.08,2.48,1.51,4.89,2.91,9.83,4.42,14.74C353.24,716.22,353.25,716.81,351.71,716.77Z"/><path class="cls-2" d="M330.53,685.14c-1.19,3.28-2.31,6.32-3.39,9.36-.4,1.15-1.35.79-2.11.79-4.7,0-9.41.08-14.12,0-1.52,0-2,.46-1.9,1.94a41.56,41.56,0,0,1,0,5.69c-.13,1.68.56,2,2.08,2,3.48-.09,7,0,10.47,0,1.28,0,1.85.16,1.25,1.63-1,2.45-1.91,4.94-2.71,7.47-.36,1.12-1,1.31-2,1.29-2.43-.05-4.86.06-7.29-.05-1.39-.06-1.82.37-1.79,1.78.08,4.48,0,8.95.06,13.43,0,1.4-.36,1.81-1.77,1.78-3.79-.1-7.59-.08-11.39,0-1.18,0-1.55-.34-1.54-1.54q0-22,0-43.93c0-.94,0-1.57,1.29-1.56C307.19,685.16,318.71,685.14,330.53,685.14Z"/><path class="cls-2" d="M265.18,685.14c-1.14,3.18-2.24,6.07-3.22,9-.38,1.15-1.15,1.18-2.11,1.18-4.78,0-9.56,0-14.34,0-1.38,0-1.92.33-1.79,1.76.23,2.54-1.05,5.87.51,7.42,1.25,1.23,4.6.35,7,.38,1.75,0,3.49,0,5.24,0,1,0,1.62,0,1.08,1.34-1,2.59-2,5.24-2.86,7.89-.33,1-.95,1.18-1.88,1.16-2.35-.05-4.72.12-7-.06-1.82-.14-2.11.55-2.07,2.16.11,4.33,0,8.65.08,13,0,1.53-.45,1.9-1.91,1.87-3.72-.1-7.44-.09-11.15,0-1.32,0-1.63-.42-1.63-1.67q.06-21.84,0-43.69c0-1,0-1.69,1.37-1.68C241.93,685.16,253.39,685.14,265.18,685.14Z"/><path class="cls-2" d="M269.71,708.66c0-7.13.08-14.25,0-21.37,0-1.86.55-2.25,2.27-2.19,3.56.13,7.12.08,10.68,0,1.18,0,1.75.13,1.74,1.55q-.08,21.93,0,43.87c0,1.34-.45,1.63-1.68,1.61-3.72-.07-7.43-.1-11.15,0-1.53.05-1.86-.46-1.85-1.9C269.75,723.06,269.71,715.86,269.71,708.66Z"/><path class="cls-3" d="M554.69,410.57h0c1.55-2.86,3.14-5.79,4.73-8.78,19.39-36.44,40.42-81.8,41.13-108.29.84-31.26-3.7-47-8.19-56.74-1.93-4.22-3.86-7.34-5.34-10.13-.52-1-1-1.93-1.38-2.86a81.9,81.9,0,0,0-4-7.9h0l0-.05c-1.09-2-2.27-4-3.46-5.93l-.11-.18c-.88-1.44-1.75-2.85-2.59-4.2-3.37-5.38-6.27-9.74-6.69-10.67-.89-2-4.62-4.52-12-4.52a25,25,0,0,1-5.13-.84h0c-12-2.9-36.5-12.2-38.22-13.18-2-1.15-13.93-1.42-17-1.24s-36.46,6.57-41.07,6.74a24.16,24.16,0,0,0-18.9,9.94c-5.95,8.16-4.17,7.36-8.52,8.78s-36.11,21.38-39.83,82.07,66.53,157.56,72.39,173c0,0-30.08,66.48-32.47,105.9a100,100,0,0,0,.17,15.31c.18,1.91.41,3.75.7,5.5,3.94,24,17.77,34,27.34,38.26,2.22,1,4.1,1.82,5.77,2.49a32.75,32.75,0,0,0,6.28,2c4.14.77,8.25.28,16-1.22a50,50,0,0,0,11.33,4.51h0c1.17.32,2.41.63,3.73.92h0c1,.22,2,.41,3.1.59,2,.34,4.12.6,6.38.76l1.83.1c.58,0,1.17.05,1.76.05,1.28,0,2.6,0,4-.05h0a69.26,69.26,0,0,0,14.91-2.3,76.83,76.83,0,0,0,11.45-4.08l1.59-.73a21.68,21.68,0,0,0,6.49-2.62c5.35-3.09,12.75-9.65,17.1-23.29h0a67.27,67.27,0,0,0,1.77-6.78,97.94,97.94,0,0,0-.26-41c-.09-.45-.19-.9-.29-1.34h0a121.38,121.38,0,0,0-5.32-17.07c-.49-1.24-1-2.41-1.45-3.53h0c-.47-1.13-.93-2.19-1.38-3.2-4.52-10.19-20.5-41.27-29.08-57.29-1.25-2.33-2.33-4.33-3.21-5.91q-.31-.58-.6-1.08c-.52-.92-.93-1.63-1.22-2.11,0,0,1.24-2,3.4-5.54C535.15,445,544.42,429.42,554.69,410.57ZM452.55,245.64h0c.47-1.11,1-2.21,1.49-3.31h0c.21-.17,6.29-4.89,18.86-5.94A72.91,72.91,0,0,1,494.24,238h0c8,2,32.51,11.25,33.55,49.79h0c-.55,13.32-3.76,29.83-10.35,50.11-5.69,17.57-13.93,38-25.16,61.61h0c-.11-.13-1.86-2.38-4.64-6.32-2.08-3-4.73-6.87-7.68-11.56-10.49-16.66-24.83-43.18-31.17-71.94C444.13,288.55,443.8,266.17,452.55,245.64Z"/><path class="cls-4" d="M490.33,577.25A74.26,74.26,0,0,1,479,606.42h0c-8,11.94-16.9,16.61-16.9,16.61-1.67-.67-3.55-1.5-5.77-2.49-9.57-4.29-23.4-14.28-27.34-38.26-.29-1.75-.52-3.59-.7-5.5,8.06,25.39,26.9,31.33,38.69,27.44,6.38-2.11,9.33-5.28,10.64-8.12a10.11,10.11,0,0,0,.8-6.39l3.2-11.58Z"/><path class="cls-5" d="M450.4,597.17c-7.45-4.88-12.8-14.56-12.46-29,1.06-46.58,26.7-103.89,26.7-103.89s.28.45.78,1.32a187.48,187.48,0,0,1,9.24,18.68c1.91,4.42,3.93,9.47,5.89,15.06a208,208,0,0,1,11.82,59.14C494,595.2,467,608,450.4,597.17Z"/><path class="cls-6" d="M453,503.35c-4,18.67-14.27,72.43-2.58,93.82-7.45-4.88-12.8-14.56-12.46-29,1.06-46.58,26.7-103.89,26.7-103.89s.28.45.78,1.32A205.33,205.33,0,0,0,453,503.35Z"/><path class="cls-7" d="M469.28,575.55c-1.07.2-5.26-1.8-8.85-26.67-2.86-19.79,9.18-52.18,14.23-64.61,1.91,4.42,3.93,9.47,5.89,15.06C454.82,547.9,470.27,575.36,469.28,575.55Z"/><path class="cls-8" d="M479,606.43c-8,11.94-16.9,16.61-16.9,16.61-1.67-.67-3.55-1.5-5.77-2.49-9.57-4.29-23.4-14.28-27.34-38.26,4.21,9.92,10.09,20.06,17.76,25.08C464.36,618.91,478.66,606.69,479,606.43Z"/><path class="cls-8" d="M427.56,212.58s-15.74,46.31-11.42,87.12,15,59.44,18.87,86.77c0,0-7-40.11-9.81-49.69s-10.7-53-6.69-70,2.52-23.3,2.52-23.3S424,223.05,427.56,212.58Z"/><path class="cls-9" d="M456.66,446.53s9.93-18,4.61-48.89-3.55-42.94-3.55-42.94l-6.18-26.08-1.35,1s9.13,65.33,9.66,74.2S463.75,420.36,456.66,446.53Z"/><path class="cls-10" d="M569.78,590.87a67.27,67.27,0,0,1-1.77,6.78h0c-4.35,13.64-11.75,20.2-17.1,23.29a21.68,21.68,0,0,1-6.49,2.62s1.07-1.91,2.59-4.93h0c.72-1.43,1.55-3.13,2.42-5,3.65-7.83,7.95-18.61,8-26,0-6.65-.16-17.76-.71-28.21-.06-1.14-.12-2.27-.19-3.39-.16-2.62-.35-5.16-.57-7.53h0A71.62,71.62,0,0,0,554,536.05c-2.72-9-14.09-29.84-14.09-29.84l-9.07-9.69h0c-2.76-2.95-5.91-6.34-9.15-9.82l-.09-.11L520.11,485c-4.81-5.19-9.67-10.47-13.5-14.7h0c-2-2.15-3.64-4-4.92-5.51s-2.09-2.45-2.45-3c-.77-1.1-2.58-4.09-4.93-8h0c-6.83-11.46-18.16-30.92-21.33-35.15-1.91-2.55-9.21-24.72-15.3-50h0c-2.68-11.13-5.13-22.87-6.77-33.78,0-.29-.08-.58-.12-.85-.14-1-.28-2-.41-3,0-.17,0-.33-.06-.46s0-.24-.05-.34,0-.14,0-.2,0-.11,0-.16a.13.13,0,0,0,0-.06s0-.07,0-.09,0,0,0,0v0a148.94,148.94,0,0,1-1.39-18.71v-1.22c6.34,28.76,20.68,55.28,31.17,71.94,2.95,4.69,5.6,8.61,7.68,11.56,2.78,3.94,4.53,6.19,4.64,6.32h0c11.23-23.63,19.47-44,25.16-61.61L529,355.47l4.47,6.79,7,10.66,12.06,18.36,3.47,5.26h0l3.44,5.23c-1.59,3-3.18,5.92-4.73,8.78h0c-10.27,18.85-19.54,34.4-24.32,42.26-2.16,3.56-3.4,5.54-3.4,5.54.29.48.7,1.19,1.22,2.11q.28.5.6,1.08c.88,1.58,2,3.58,3.21,5.91,8.58,16,24.56,47.1,29.08,57.29.45,1,.91,2.07,1.38,3.2h0a22.87,22.87,0,0,1,1.47,3.53h0a121.38,121.38,0,0,1,5.32,17.07h0c.1.44.2.89.29,1.34A97.94,97.94,0,0,1,569.78,590.87Z"/><path class="cls-8" d="M477.06,203.79S440.67,217.7,432.38,269s31.11,102.17,13.28,156.2c0,0,11.44-25-10.65-87.3S433.28,220.3,477.06,203.79Z"/><path d="M527.8,287.82c-1-38.54-25.53-47.79-33.55-49.79q2.79.58,5.79,1.43C517.15,244.24,529.05,258.15,527.8,287.82Z"/><path class="cls-8" d="M600.56,293.49c-.71,26.49-21.74,71.85-41.13,108.29-1.59,3-3.18,5.92-4.73,8.78h0c-10.27,18.85-19.54,34.4-24.32,42.26-2.16,3.56-3.4,5.54-3.4,5.54l-5.83-9.88-1.78-3h0l-3.12-5.29-3.82-6.48-8-13.67-12.08-20.48c11.23-23.63,19.47-44,25.16-61.61,6.59-20.28,9.8-36.79,10.35-50.11h0c-1-38.54-25.53-47.79-33.55-49.79h0a72.91,72.91,0,0,0-21.33-1.64c-12.57,1.05-18.65,5.77-18.86,5.94,13.86-21.15,25-30.49,35.28-33.44a29.29,29.29,0,0,1,12.44-.77c6,.84,12,3.2,18.41,5.89,9.26,3.88,15.94,3.74,20.76,2.16h0a19.76,19.76,0,0,0,5.08-2.54c3-2.07,4.8-4.45,5.86-5.35h0q.39-.33.87-.69h0c3-2.29,8.36-5.37,15.69-2.49,7.73,3,12.71,10.1,13.16,10.75l0,.05h0a81.9,81.9,0,0,1,4,7.9c.4.93.86,1.88,1.38,2.86,1.48,2.79,3.41,5.91,5.34,10.13C596.86,246.53,601.4,262.23,600.56,293.49Z"/><path class="cls-11" d="M592.37,236.75l-1.75,12.14h-3.48v0c2.62-26-8.32-33.45-15.95-40.27s-18-1.26-18.39-1c3-2.29,8.36-5.37,15.69-2.49,7.73,3,12.71,10.1,13.16,10.75l0,.05h0a81.9,81.9,0,0,1,4,7.9c.4.93.86,1.88,1.38,2.86C588.51,229.41,590.44,232.53,592.37,236.75Z"/><path class="cls-11" d="M582.11,300.94c-2.13,15.26-17.22,43.3-21.54,54.3s-4.84,29.65-4.85,30h0l.89,4.6-.62,6.7h0l-1.29,14h0c-10.27,18.85-19.54,34.4-24.32,42.26-2.16,3.56-3.4,5.54-3.4,5.54l-5.83-9.88-1.78-3h0l-3.12-5.29-3.82-6.48-8-13.67-12.08-20.48c11.23-23.63,19.47-44,25.16-61.61,6.59-20.28,9.8-36.79,10.35-50.11h0c-1-38.54-25.53-47.79-33.55-49.79h0a72.91,72.91,0,0,0-21.33-1.64c-12.57,1.05-18.65,5.77-18.86,5.94,13.86-21.15,25-30.49,35.28-33.44a58.63,58.63,0,0,0,15.37,15.5c1,.73,2.13,1.46,3.27,2.17h0a95.51,95.51,0,0,0,21.41,9.81h0q2.36.78,4.89,1.5c1.64.47,3.22.95,4.76,1.45h0C588.32,255.24,584.17,286.14,582.11,300.94Z"/><path class="cls-3" d="M600.56,293.49c-.71,26.49-21.74,71.85-41.13,108.29-1.59,3-3.18,5.92-4.73,8.78h0c-10.27,18.85-19.54,34.4-24.32,42.26-2.16,3.56-3.4,5.54-3.4,5.54l-5.83-9.88-1.78-3h0c.18-.25,7.25-10.22,16.83-25.83h0c3.94-6.44,8.31-13.84,12.8-21.91h0q1.75-3.15,3.53-6.44c1.07-2,2.14-4,3.2-6h0c21.79-41.71,42.71-95.73,28.47-130.24a26.07,26.07,0,0,0,2.95-6.11v0a33.78,33.78,0,0,0-.11-22.24c1.48,2.79,3.41,5.91,5.34,10.13C596.86,246.53,601.4,262.23,600.56,293.49Z"/><path class="cls-5" d="M536.19,419.64l1.56,2.14-3,13v0h0c-.71,1.92-1.3,3.66-1.8,5.23l-11.81,8.46-1.78-3h0l-3.12-5.29-3.82-6.48-8-13.67-12.08-20.48c11.23-23.63,19.47-44,25.16-61.61,6.59-20.28,9.8-36.79,10.35-50.11h0c-1-38.54-25.53-47.79-33.55-49.79h0a72.91,72.91,0,0,0-21.33-1.64A61.62,61.62,0,0,1,486.65,235c14.25.19,31.68,5.92,42.05,29l1.46,3.28c17.54,40.17,7.91,42.74.14,80.59-.54,2.59-1,5.16-1.32,7.69A127.48,127.48,0,0,0,527.82,374a140.3,140.3,0,0,0,2.32,23.73,130.7,130.7,0,0,0,4.44,17.48c.92,2.77,1.57,4.33,1.61,4.43Z"/><path class="cls-12" d="M552.92,331.26c-4.27,22-13.95,46.78-22.78,66.47-9.34,20.85-17.72,36-17.72,36l-8-13.67c5-9.82,16-31.41,23.45-46a.83.83,0,0,0,.07-.13c9.85-19.43,36.74-78,16.51-118.87a52.5,52.5,0,0,0-15-18.64h0A54.39,54.39,0,0,0,508,226.55h0a79.45,79.45,0,0,0-27.42-1,102.31,102.31,0,0,1,24.15-1.18c15.32,1.24,26.43,6.76,34.35,14.93h0C560.41,261.33,558.48,302.63,552.92,331.26Z"/><path class="cls-13" d="M551.48,395.71c-2,1.88-3.82,8.91-12.85,29.52-1.57,3.59-2.84,6.76-3.88,9.55v0h0c-.71,1.92-1.3,3.66-1.8,5.23-3,9.34-2.58,12.8-2.58,12.8-2.16,3.56-3.4,5.54-3.4,5.54l-5.83-9.88-1.78-3h0l-3.12-5.29,18.34-25,9.58-13a46.52,46.52,0,0,1,4.83-4.44h0C550.29,396.65,551.34,395.81,551.48,395.71Z"/><path class="cls-10" d="M569.33,368.9S613.47,298.19,591,251.62C591,251.62,604.49,291.28,569.33,368.9Z"/><path class="cls-12" d="M474.69,226.61a59.23,59.23,0,0,1,5.86-1.05C478.65,225.86,476.69,226.21,474.69,226.61Z"/><path class="cls-14" d="M544.75,216.48l-3.8-.32s-9.59.68-17.84-3.49S496,192,472,215.37,426.89,229,426.89,229l1.07-2.42s2-23.49,6-27.75c3.59-1.2,30.87-11.22,34.33-12.64l12.77-2.66,9.32,2,15.84,8.05,13.3,8.06,12.07,6.21,6.56,2.21s6.17,1.82,13.78-1.84Z"/><path class="cls-4" d="M578.08,209.7a35.68,35.68,0,0,0-3.61-4.59h0c-4.71-5.15-13.8-12.45-26.7-11.16-15.26,1.52-26.59,4.59-36.26,1.78h0a24.12,24.12,0,0,1-7.91-4l-1.44-1.12c-.62-.51-1.15-1-1.6-1.38h0c-6.22-5.69,2-3.79,2-3.79l14,2.57,9.94,1.82,4.88-.73s11.67.38,20.3.38h0a25,25,0,0,0,5.13.84c7.36,0,11.09,2.57,12,4.52.42.93,3.32,5.29,6.69,10.67C576.33,206.85,577.2,208.26,578.08,209.7Z"/><path class="cls-11" d="M531.36,189.09s-8.72,4.32-14.44,4S502.27,190,502,190.69l-19.62-7.12-2.67-.54s14-4.79,24.76-2.39S516.32,188.22,531.36,189.09Z"/><path class="cls-8" d="M429.43,217.1s35.12-41,60.94-29.94,44.49,31.14,61.55,21.09c0,0-7.66,5.84-24.29-2.95s-29.85-20.56-45.78-22.8S439.83,201.13,429.43,217.1Z"/><path class="cls-15" d="M572.88,230.33h0v2.6l-17.17-7.32-9.68-12c3-2.07,4.8-4.45,5.86-5.35h0q.39-.33.87-.69h0C572.08,199.94,572.86,229.9,572.88,230.33Z"/><path class="cls-16" d="M583.19,251.62c-11.52-21.1-52.72-26-65.49-31.33-9.31-3.87-14.05-9.44-15.93-12.18,6,.84,12,3.2,18.41,5.89,9.26,3.88,15.94,3.74,20.76,2.16h0a19.76,19.76,0,0,0,5.08-2.54c3-2.07,4.8-4.45,5.86-5.35h0q.39-.33.87-.69a119.11,119.11,0,0,1,20.09,22.77h0C581.16,242.73,583.19,251.62,583.19,251.62Z"/><path class="cls-17" d="M536.1,586.75s5-14.43,1.56-39c0,0-7.11-34.28-27-51.67s-4.39-16-3.41-15.26c0,0-4.44-2-8,1.24S475.11,455,461.45,407.05v8.69l1.36-2.62s12.25,40.37,24.17,58.41c0,0,12.51,24.15,14,29.2,0,0-7.57-20.56-13-28.78,0,0,11.67,15.83,18.23,22.57S545.64,532.94,536.1,586.75Z"/><path class="cls-8" d="M550.91,620.94a21.68,21.68,0,0,1-6.49,2.62l-1.59.73a76.83,76.83,0,0,1-11.45,4.08,69.26,69.26,0,0,1-14.91,2.3h0c-1.36.06-2.68.07-4,.05-.59,0-1.18,0-1.76-.05l-1.83-.1c-2.26-.16-4.39-.42-6.38-.76-1.08-.18-2.11-.37-3.1-.59h0c-1.32-.29-2.56-.6-3.73-.92h0a50,50,0,0,1-11.33-4.51l.7-.27h0c.86-.31,2.45-.89,4.46-1.58,1.24-.42,2.65-.89,4.15-1.36,2.52-.8,5.29-1.61,8-2.29h0c1.32-.33,2.61-.62,3.86-.87a18.35,18.35,0,0,1,13.05,1c3.58,1.34,7.72,3.08,12.26,3.73a22.38,22.38,0,0,0,9.66-.55,23,23,0,0,0,2.92-1.06,26.31,26.31,0,0,0,3.57-2h0l3.77.85Z"/><path class="cls-8" d="M568,597.65c-4.35,13.64-11.75,20.2-17.1,23.29a21.68,21.68,0,0,1-6.49,2.62s1.07-1.91,2.59-4.93h0c.72-1.43,1.55-3.13,2.42-5C549.44,613.63,554.49,620.68,568,597.65Z"/><path class="cls-17" d="M536.59,547.79s-5.23,15.91-16.88,26.69c0,0,0-26.37-9.08-48.9,0,0-6.95-15.16-7.84-16.19s-14.55-22.5-17.12-25.78c0,0,2.22,6.49,2.66,7.1s13.57,20.67,13.93,21.47,2.31,9.49,2.31,9.49L509,526.8s12.1,27.94,9.85,56.44c0,0-7.47,21.17-.62,22.71s11.8,1.25,16.41-10l2.44-2.26.53-3.24-1.46-2.82,0-.86s.95-3.87,1-4.72,1-8.77,1-8.77l.31-6.12S538.1,549.87,536.59,547.79Z"/><path class="cls-18" d="M463.93,433.49s3.64,21.82,5.33,24.48v-5.14S465.35,436.86,463.93,433.49Z"/><path class="cls-17" d="M500.66,566.12S498.13,520.56,487,496.9,466.06,450.7,449.12,426,405,339.4,400.94,317.87s-5.32-64.13,11-96.78c0,0-17.39,52-8.87,93.43S460.83,439.61,467,448.66,501.88,503,500.66,566.12Z"/><path class="cls-2" d="M498.87,460.13s1.4-2.41,2.1-1.77.25,2.1,1.74,3.47.26,3.35-1.09,2.44c0,0,.28,1-.25,1.51s-1.53.45-2.67-.46-2.54-2-2.95-2.22.32-2,1.35-2.14a13.86,13.86,0,0,1-4.14-5c-1.19-2.86-.52-3.2-.12-3.11S496.37,454.47,498.87,460.13Z"/><path class="cls-2" d="M512.34,477.75s-4.53-3.72-5.62-5.67-3-4.18-4.8-4.22-1.25,2.75,1.83,4.48,3.2,2.2,3.17,2.93a5.89,5.89,0,0,0,2.65,3.44c1.18.52,3.59,2.16,3.93,2.93a6.65,6.65,0,0,0,6.06,3.41c3.53-.28,3-5.82,2.19-6.74s-3.17-3.44-3.38-4.24-2.38-4.43-3.56-5.16-1.81-.12-2.49-1.17-3.88-5-5.74-4.86-.61,2.7,1.28,3.83,7.31,4.14,8.41,7.26c0,0-4.33-4.12-6.19-5.07s-3.77-1.34-3.8-.27S506,470.3,512.34,477.75Z"/><path class="cls-2" d="M505,474.87s-5.16-3.15-7.45-1.78.78,3.84,2.74,3.52.43-2.12,4.94-1.65Z"/><path class="cls-2" d="M512.33,465.6s-4.43-4.13-3.73-6.7,3.91-.28,4.13,1.7-1.93,1-.25,5.19Z"/><path class="cls-2" d="M521.75,486.48s-1.82,1.95-6.39-.85-11.87-9.81-15.32-7.5a13.88,13.88,0,0,1,1.61,1.8s-3.11.21-3.69,2c0,0,2.47,1.86,2.41,2.13s-2.41,2.47-.52,3.45c0,0,.49-.89,1.64,0s1.92,3.16,4.69,3.19,4.3-3.75.4-6.52c-1.37-.82-2.74-.3-2.41,1,0,0,3.21.09,2.81,2.77s-3.63-.06-4.6-1.58-.49-5.82,3.26-4.88,6.79,4.88,8.07,6S521.19,491.42,521.75,486.48Z"/><path class="cls-2" d="M523.74,484.27s2.09-1.67-.34-6.45-8.84-12.6-6.26-15.86a14,14,0,0,0,1.66,1.75s.46-3.08,2.3-3.52c0,0,1.66,2.61,1.94,2.57s2.65-2.21,3.47-.25c0,0-.92.42-.13,1.64s3,2.17,2.82,4.93-4.08,4-6.54-.12c-.71-1.43-.08-2.75,1.23-2.31,0,0-.17,3.2,2.54,3s.23-3.62-1.21-4.71-5.77-.95-5.12,2.86,4.32,7.16,5.31,8.52S528.72,484.1,523.74,484.27Z"/><path class="cls-2" d="M540.34,483.8s-4.63-2.5-4,2.92,7.31,5.37,11.64,12.43a10,10,0,0,1-.92,12.31,11.32,11.32,0,0,0-2.31-8.65c-3.23-4-13.53-12.55-14.81-16.15s-.79-6.94,1.77-7.37A8.25,8.25,0,0,1,540.34,483.8Z"/><path class="cls-2" d="M519.93,505s-3-1.4-2.81-7.13,5.85-7.92,11.7.25,3.78,14.8,12.25,18.1c0,0-1.28,2.49-5.61,1.46s-5.91-4.94-7.74-12S518.65,499,519.93,505Z"/><path class="cls-2" d="M527.69,490.71s5.49,9.85,5.85,11.13,4.6,10.84,8.14,10.66c.73,0,3.65,3.32,12.52,26.81a4.14,4.14,0,0,1,.12,3c-.18.46-1.9,4.22,5.09,9.43,0,0,.55-5.71,0-8.09s-2.83-2.42-3.75-5.75-8.5-20.61-10.69-23.77-.31-4-.67-5.3S540.58,498.91,527.69,490.71Z"/><path class="cls-2" d="M551.85,509.39s-2.86,5.61-1,10.48,4.2,8.47,4,9.93c0,0,2.68-.48,3.78-4.87S552.4,511.1,551.85,509.39Z"/><path class="cls-2" d="M537.66,519.6A101.1,101.1,0,0,1,542,530.9c.92,3.66,6.27,3.84,8.25,1.77l-2.52-6.28C547.22,525.17,546.37,520,537.66,519.6Z"/><path class="cls-2" d="M563.93,531.5h0c-1.58-.07-6,1.59-6,1.59a13.3,13.3,0,0,1,4.39-5.3l.12.17h0A22.87,22.87,0,0,1,563.93,531.5Z"/><path class="cls-2" d="M550.23,537.62s-11.57,8.27-13.35,16.22c0,0-1.08-1.92-.81-2.86,0,0-3.23,2-3.93,1.73,0,0,1.92-4,2-4.26s-1.25-.28-1.25-.28S538.26,536.78,550.23,537.62Z"/><path class="cls-2" d="M553.83,541a13.27,13.27,0,0,0-6.48,5.67c-2.63,4.39-2,6.76-.19,8,0,0,3.64-2.56,2.55-5.69a41.28,41.28,0,0,0,4.31-.19C554.23,548.6,551.34,544.7,553.83,541Z"/><path class="cls-2" d="M558,538.53s.5-2.19,7.72-1.92a48.67,48.67,0,0,1,1.85,6.63s-1.42-1.87-2-1.87c0,0-1.46,3.08-3.38,3.17C562.11,544.54,562.4,539.61,558,538.53Z"/><path class="cls-2" d="M555,549.58s1,4-.18,6.18-3.32,3.5-5.48,1.19a3.6,3.6,0,0,0,2.28-1.83C552.13,553.75,553.86,549.58,555,549.58Z"/><path class="cls-2" d="M556.55,551.47s.57,6.51-1.34,7.95c0,0,3.68.55,4.32-2.38S556.79,551.47,556.55,551.47Z"/><path class="cls-2" d="M561.33,555.46s-.91,5.54.76,6,2.77-2,1.77-3A20.13,20.13,0,0,1,561.33,555.46Z"/><path class="cls-2" d="M568,554.24s-1.58,2.31-2.47,2.47-4.23-.52-3.41-6.19c0,0,3.35,3.29,4.21,3.53A5.28,5.28,0,0,0,568,554.24Z"/><path class="cls-2" d="M569.52,549.91c-.07.13-.16.29-.27.46-1.73,2.71-4.48.79-5-.31a34.89,34.89,0,0,0-2.22-3.41s1.17-1.7,3.62.43a8,8,0,0,0,3.59,1.49h0C569.33,549,569.43,549.46,569.52,549.91Z"/><path class="cls-2" d="M514.9,506.91s6.53,5.71,1.55,12.43a5.12,5.12,0,0,0,4.71-5.53C521,508.64,514.9,506.91,514.9,506.91Z"/><path class="cls-2" d="M509.78,515.55s-.27,5.22,3.38,4.25,4.94-6.77.5-11-8.86-.41-9.14.92c0,0-2.83-2.25-2.87-2.87,0,0-3,1.54.59,7.89,0,0-3.57,0-3.79-.82,0,0-2.06,3.61,4.38,8,0,0-2.48,1.37-2.79,1.46a7.37,7.37,0,0,0,7.59,4.44c5.81-.41,11.66-4.21,17.69-2.93s10.28,7.59,7.49,15.75a2.14,2.14,0,0,0,.32,2.12,15.65,15.65,0,0,0,2.18-7.46c-.06-3.87-.44-7.94-7.43-11.78s-16.5,2.44-22.08-3.85,4.39-13.65,7.36-6.89C513.71,514.13,513.48,518.79,509.78,515.55Z"/><path class="cls-2" d="M532.14,534.5A22.8,22.8,0,0,0,510.6,541s.55-3.77,1.65-4.57c0,0-3.75-.15-4,0,0,0,2.43-4.05,5.54-4.81a3.85,3.85,0,0,0-1.58-.18S524.12,521.65,532.14,534.5Z"/><path class="cls-2" d="M491.45,615.4s-.5-8.78-8.91-12.61a5.58,5.58,0,0,1,3.34.27s-.39-2.4-.92-2.83c0,0,3,1.07,4.28,2.74,0,0,.2-.85-.12-1.21C489.12,601.76,498.26,607.52,491.45,615.4Z"/><path class="cls-2" d="M498.61,595.7s-2.91.55-2.06,2.81,4.94,3.07,6.92,1.26,3.54-7.31-2.65-9.44c0,0,.51-2.7,1.05-2.67,0,0-2.72-.7-4.73,3a4.12,4.12,0,0,1-.74-3s-3.39.83-4,5.4c0,0-1.54-1.07-1.54-1.36a5,5,0,0,0-.3,6.92c3,4,6.94,7.89,7,10.75s-2.72,8.46-7.71,8.36c-1,0-2.19.9-1.16,1.72s7.87-1.46,10-5a7.73,7.73,0,0,0-.58-9.54c-2.22-2.65-5.3-7.34-3.14-10.81s5.88-2.56,6.83-.52-.49,4-1.59,4.23S497.55,597.2,498.61,595.7Z"/><path class="cls-2" d="M493.78,627.65s-7.31-5.44-13.16-4.3c0,0,.92-1.45,1.65-1.48a21.92,21.92,0,0,0-2.1-1.7,6.34,6.34,0,0,1,3.53.18s-.15-.7-.4-.88C483.3,619.47,491.91,620.7,493.78,627.65Z"/><path class="cls-2" d="M501.19,613.89a47.51,47.51,0,0,1-4.91,4.32c-1.26.71-3.48,2.26-2.61,4.25a6.46,6.46,0,0,0,1.92,2.7s4.71-4,5.69-5.59S501.46,614.39,501.19,613.89Z"/><path class="cls-2" d="M527.19,609.82s0-3-1.64-2.51-3.48,2.7-3.93,4.94a14.78,14.78,0,0,1-3,6.21,7,7,0,0,1-3.11,2.15c-3.75,1.19-5.76.14-6.49-.69,0,0-5.31,5.21-9.56,9.3h0c-1.32-.29-2.56-.6-3.73-.92,2.05-1.44,7.59-5.53,10.64-9.84,0,0-.36-.44-.8-1A12,12,0,0,1,504,614.9c-.37-1.1-.6-4.07,2.74-5.95s6.26-4.75,5.8-6.67-3.06-1.78-3.88-.68c0,0,1.23-4.16,5.39-4a4.56,4.56,0,0,1,1.4.28c2.51,1,1.7,4.47,1.07,5.34l-.53.68c-1.44,1.85-4.92,6.25-4.45,7.78,0,0,3.46-3.47,5.89-6.06A25.79,25.79,0,0,0,519.7,603s-.29,1.29-.85,3.08a29.43,29.43,0,0,1-3.53,7.79,28.89,28.89,0,0,0,4.06-4.56c.35-.61.91-1.7,1.61-2.85,1.31-2.15,3.12-4.5,5.06-4.23a3.18,3.18,0,0,1,2.74,2.57A6,6,0,0,1,527.19,609.82Z"/><path class="cls-2" d="M515,623.08l-6.11,7.49c-2.26-.16-4.39-.42-6.38-.76C505.45,626.75,510.31,622.64,515,623.08Z"/><path class="cls-2" d="M541.43,620.27a12.77,12.77,0,0,1-.91,1.37c-1,1.3-2.64,3.11-4.6,3.42-2.87.47-15.14-4-23.41,5.66-.59,0-1.18,0-1.76-.05,3-3.83,8.63-9.8,14.43-8.92a31.63,31.63,0,0,0,5.68.44c4.47-.1,6.75-1.71,8.39-4.92,2.24-4.34,1-6.21-2.55-5s-3.29,7.93,0,4.12c0,.23-1.14,4.65-4.43,2.56s-.81-12.36,7.3-9.07c1,.33,2,1.13,3.41-2.53,0,0,1.81,1.31-1.3,6.52,0,0,2.33-1.12,2.63-1.92,0,0,1,2.93-4.59,8.23A3.45,3.45,0,0,0,541.43,620.27Z"/><path class="cls-2" d="M531.38,628.37a69.26,69.26,0,0,1-14.91,2.3C519.79,628.38,526,625.17,531.38,628.37Z"/><path class="cls-2" d="M529.34,589.3a5.76,5.76,0,0,0,1.6-1.69c.87-1.28,3.52-3.29,4.43-2.78a7,7,0,0,0-.11,1.85,3,3,0,0,1,3.13,0s-1.26,2-.89,2.54c0,0,1.89.07,2.24,1.23,0,0-1.76.39-1.9,1.88s-1.21,4.29-2.67,4.34a2.48,2.48,0,0,1-2.68-2.67c0-1.83,1.19-4.85,3.06-3.09,0,0-2.46,1.21-1,3.18s4.65-4,.6-5.53-4.43,7.7-6.14,9.66-3.35,1.93-5.3.86-3.38.92-5.6-1.89,1.22-7.28.42-10.14-3.23-3.63-4.51-1.74-.94,4.51.19,4.24,2.1-1.83,1.09-2.56c0,0,.8-1.22,1.44-.18s-.1,5.17-2.26,5.23-3-1.88-2.56-4,1.48-3-.1-3.36c0,0-.14-2.07,2.78-1.09,0,0,.06-1.89-.39-2.32,0,0,1.12-.79,3.35,1.4,0,0,.39-1.1.15-1.54,0,0,1.49-.16,2.53,3.34s1.58,3.44,1.58,3.44.31-4.32,2.26-5-.4-2.87-.34-4c0,0,1.79-.67,2.55.63,0,0-.09-6.95,1.05-8.57s2.08,2.49,1.76,4.68-1.4,3.27-.05,3.32a1.63,1.63,0,0,1,1.62,1.14,22.33,22.33,0,0,0-1.63,3,2.07,2.07,0,0,0,.71,1.62c.39.21,1.21,1.58-.58,4.41Z"/><circle class="cls-2" cx="422.25" cy="259.02" r="16.7"/><path class="cls-1" d="M416.14,265.89a4.26,4.26,0,0,1-1.22,3,12.33,12.33,0,0,1-4.66-7.07,4.14,4.14,0,0,1,1.54-.29A4.34,4.34,0,0,1,416.14,265.89Z"/><path class="cls-1" d="M417,250.66A4.34,4.34,0,0,1,412.7,255a4.24,4.24,0,0,1-1.92-.45,12.26,12.26,0,0,1,5.52-6.3A4.24,4.24,0,0,1,417,250.66Z"/><path class="cls-1" d="M429.61,249.16a4.29,4.29,0,0,1-3.73,2.14,4.34,4.34,0,0,1-4.35-4.34,1.69,1.69,0,0,1,0-.23l.71,0A12.21,12.21,0,0,1,429.61,249.16Z"/><path class="cls-1" d="M434.56,259a12.26,12.26,0,0,1-1,4.89,4.34,4.34,0,0,1,.47-8.52A12.41,12.41,0,0,1,434.56,259Z"/><path class="cls-1" d="M429.26,269.13a12.3,12.3,0,0,1-8.22,2.13,1.09,1.09,0,0,1,0-.18,4.35,4.35,0,0,1,8.23-1.95Z"/><polygon class="cls-1" points="426.17 262.87 419.93 263.86 417.06 258.23 421.53 253.77 427.16 256.64 426.17 262.87"/><rect class="cls-2" x="416.17" y="284.7" width="7.96" height="7.65" transform="translate(327.08 -212.58) rotate(45)"/><rect class="cls-2" x="425.46" y="225.92" width="7.96" height="7.65" transform="translate(413.68 -257.03) rotate(60)"/><path class="cls-16" d="M437.44,431.67,435,427.59l2.22-1.33,7,11.59-2.22,1.33-2.45-4.09-11.93,7.16-2.05-3.43Z"/><path class="cls-16" d="M443.41,456.75c2.42-1.45,5.21-3,6.85-3.95l-.05-.08c-3.08.95-8.49,2.76-13.82,4.25l-1.85-3.09c3.71-3.48,8.13-7.62,10.5-9.87l-.06-.11c-1.59,1.1-4.5,3-7,4.43l-5,3-1.87-3.13,14.15-8.48,3.06,5.11c-3.31,3.35-6.73,6.59-8.57,8.21l0,0c2.15-.76,7.13-2.12,11.47-3.37l3,5-14.14,8.48-2-3.28Z"/></g></svg>