<svg xmlns="http://www.w3.org/2000/svg" viewBox="0 0 1000 1000"><defs><style>.cls-1{fill:#fff;}.cls-2{fill:#381d54;}</style></defs><title>m1khan icons two FINAL 1Artboard 1 copy 15</title><g id="background"><circle class="cls-1" cx="500" cy="500" r="423.5"/></g><g id="color"><path class="cls-2" d="M619.39,826.13l-9.11-32.94C584.49,803.79,560.44,816,535,823.61c-45.69,13.6-91.14,10.72-135.22-9-9.36-4.2-11.8-9-9.67-19,9.36-44.07,12.79-88.37,1.53-132.75-.65-2.56-1.36-5.12-2.21-7.61-.33-1-1.16-1.74-3-4.35-23.35,33.45-47.33,65.27-80.75,91.31-26.14-57-26-115.2-18.61-176l-47.56,14c6-53.31,26.08-98.93,57.44-141.85l-28.65-5.65c20-40.56,47.44-73.75,84.88-102.32-6.32,29.18-4.81,53.76,21,70.9-2-8.58-4.62-17.08-5.83-25.77a64.54,64.54,0,0,1,.16-20.2c4.49-24.39,22.53-34.82,46.2-27.26,4.48,1.43,8.82,3.29,15.71,5.88-6.65-17.1-18.66-24.1-32.05-29.66l-.45-3.64c22.15-6.94,43.95-15.5,66.55-20.33,20.2-4.31,41.27-4.45,62-6.52,19.65-2,35.29,5.74,48.57,19.6,4.57,4.78,9.51,9.19,14.29,13.77l3-1.44-5-23.3c2.47.24,4.9.12,7.12.74,23.91,6.63,46.41,16.24,65.91,31.93,3.19,2.57,7.38,5.36,8.46,8.86,4.86,15.68,8.76,31.66,12.66,46.26l-69.64-48.37c-3.77,11.87-6.44,20.25-9.31,29.29-17.24-10.5-32.65-20.76-48.94-29.34a35.9,35.9,0,0,0-21.31-3.18c-27.19,4.66-52.29,14.78-75.17,33.72l13.7,9.77c-17.07,8.47-31.49,16.14-43.24,33,20.21-3.22,22.51,9.79,28.29,21.68,9.66,19.86,27.93,29.82,49.75,30.62,26.7,1,53.46.23,81.31.23-7.89-8.09-16.9-16.73-25.21-26-9.39-10.48-20.73-14.21-34.51-13-19.52,1.66-37.4-3-53-15.35,21.4-25.53,41.39-26.16,84.69-3.22l20.91-10.74c1,1.94,1.75,2.75,1.57,3.12-9.17,19.39-9,19.25,6.14,34.81,9.22,9.44,17.91,19.4,26.19,28.42,11.67-2,23.06-5.16,34.58-5.69s23.11,1.54,35.74,2.56L633.6,389.54l3.4-4.25,19.15,10.95c7.49-1.51,12.34-16.71,23.08-6.44,8,7.65,7.26,15.59-.81,25l20.28,21.45c1.66-5,2.63-8,3.57-10.85,1.15.1,2.21-.1,2.46.26,55.29,78.24,70.94,162.71,40.21,256.71-7.73-8.12-14.27-15-22.8-24C716.78,694.29,707.8,726,690,754.56S649,806.64,619.39,826.13Zm-85-314.82c9.17,17.31,18.27,33.4,26.25,50,3.92,8.18,9,9.91,17.14,7.93,27-6.57,47.79-23.57,68.62-40.53a5.86,5.86,0,0,0,2.25-3.72c.13-11.32,1.64-23-.8-33.8-1-4.47-10.63-7-16.32-10.41-3.55-2.15-6.82-5.2-10.67-6.35-5.36-1.61-11.64-3.7-16.65-2.33C578.3,479.21,556.56,494.22,534.43,511.31ZM583.2,602.9c3.41,6.54,8.44,15.27,12.55,24.42,3,6.71,7,8.22,13.29,5,11.6-5.81,23.24-11.54,36.23-18,1.54,12.2,3.06,24.26,4.62,36.59,1.69-.36,3-.26,3.73-.84C671.16,636.46,682.45,618,684,596.54c.7-10-6.28-24.38-14.43-29.88-6.93-4.67-22-2.38-30.88,2C619.69,578,602.4,590.77,583.2,602.9ZM697,471.61c-8.27,5.7-14.94,10-21.23,14.79a13.68,13.68,0,0,0-4.88,6.89c-7.26,29.64,10.64,48.91,28.91,69.93C712.86,531.58,708.86,502.29,697,471.61Z"/><path class="cls-2" d="M573.05,168l5.07,65.17,35-38.35,2.49,2.45c-4.93,22.58-9.87,45.16-15,68.6-76.8-19.08-150.59-11-220.52,27.13L348,224.58l45.87,28.77-9.69-63.88,69.35,47.74,24-69.18,39,62.11Z"/><path class="cls-1" d="M534.43,511.31c22.13-17.09,43.87-32.1,69.82-39.19,5-1.37,11.29.72,16.65,2.33,3.85,1.15,7.12,4.2,10.67,6.35,5.69,3.43,15.31,5.94,16.32,10.41,2.44,10.79.93,22.48.8,33.8a5.86,5.86,0,0,1-2.25,3.72c-20.83,17-41.6,34-68.62,40.53-8.16,2-13.22.25-17.14-7.93C552.7,544.71,543.6,528.62,534.43,511.31Z"/><path class="cls-1" d="M583.2,602.9c19.2-12.13,36.49-24.86,55.44-34.22,8.9-4.4,24-6.69,30.88-2,8.15,5.5,15.13,19.91,14.43,29.88-1.5,21.47-12.79,39.92-30.33,53.59-.75.58-2,.48-3.73.84-1.56-12.33-3.08-24.39-4.62-36.59-13,6.44-24.63,12.17-36.23,18-6.34,3.18-10.28,1.67-13.29-5C591.64,618.17,586.61,609.44,583.2,602.9Z"/><path class="cls-1" d="M697,471.61c11.82,30.68,15.82,60,2.8,91.61-18.27-21-36.17-40.29-28.91-69.93a13.68,13.68,0,0,1,4.88-6.89C682.1,481.61,688.77,477.31,697,471.61Z"/></g></svg>