<svg xmlns="http://www.w3.org/2000/svg" viewBox="0 0 1000 1000"><defs><style>.cls-1{fill:#fff;}.cls-2{fill:#d0fb0c;fill-rule:evenodd;}</style></defs><title>m1khan icons two FINAL 1Artboard 1 copy 7</title><g id="background"><circle class="cls-1" cx="500" cy="500" r="423.5"/></g><g id="color"><circle class="cls-1" cx="500" cy="501.29" r="90.52"/><path class="cls-2" d="M424.07,690.51,354.74,802.59S501,823,657.49,800.28c89.65-108.87,160.27-245.67,173.33-279.64-55.43-128.23-146.75-245-146.75-245L613.58,387.75s50.79,63.71,80.89,132.89c-23.74,49.5-64.13,117.87-104,168.71C528.33,695.64,424.07,690.51,424.07,690.51Z"/><path class="cls-2" d="M575.93,309.49l69.33-112.08S499,177,342.51,199.72C252.86,308.59,182.24,445.39,169.18,479.36c55.43,128.23,146.75,245,146.75,245l70.49-112.08s-50.79-63.71-80.89-132.89c23.74-49.5,64.13-117.87,104-168.71C471.67,304.36,575.93,309.49,575.93,309.49Z"/></g></svg>