<svg xmlns="http://www.w3.org/2000/svg" xmlns:xlink="http://www.w3.org/1999/xlink" viewBox="0 0 1000 1000"><defs><style>.cls-1{fill:#fff;}.cls-2{fill:url(#linear-gradient);}.cls-3{fill:url(#linear-gradient-2);}.cls-4{fill:url(#linear-gradient-3);}.cls-5{fill:url(#linear-gradient-4);}.cls-6{fill:url(#linear-gradient-5);}.cls-7{fill:url(#linear-gradient-6);}.cls-8{fill:#008fd7;}</style><linearGradient id="linear-gradient" x1="465.53" y1="427" x2="559.55" y2="682.95" gradientUnits="userSpaceOnUse"><stop offset="0" stop-color="#0c5ead"/><stop offset="1" stop-color="#033b82"/></linearGradient><linearGradient id="linear-gradient-2" x1="526.81" y1="544.79" x2="444.77" y2="520.26" xlink:href="#linear-gradient"/><linearGradient id="linear-gradient-3" x1="736.28" y1="635.64" x2="484.35" y2="797.84" xlink:href="#linear-gradient"/><linearGradient id="linear-gradient-4" x1="562.81" y1="649.79" x2="469.81" y2="810.82" xlink:href="#linear-gradient"/><linearGradient id="linear-gradient-5" x1="267.66" y1="638.13" x2="511.62" y2="795.39" xlink:href="#linear-gradient"/><linearGradient id="linear-gradient-6" x1="452.31" y1="745.03" x2="514.42" y2="685.47" xlink:href="#linear-gradient"/></defs><title>m1khan icons two FINAL 1Artboard 1 copy 6</title><g id="background"><circle class="cls-1" cx="500" cy="500" r="423.5"/></g><g id="color"><polygon class="cls-2" points="500.07 374.72 500.07 667.36 605.25 667.36 500.07 374.72"/><polygon class="cls-3" points="394.84 667.36 500.07 667.36 500.07 374.76 394.84 667.36"/><polygon class="cls-4" points="768.75 667.36 500.07 832 605.25 667.36 768.75 667.36"/><polygon class="cls-5" points="500.07 667.36 605.25 667.36 500.07 832 500.07 667.36"/><polygon class="cls-6" points="231.17 667.36 500.07 832 394.84 667.36 231.17 667.36"/><polygon class="cls-7" points="500.07 832 500.07 667.36 394.84 667.36 500.07 832"/><path class="cls-8" d="M768.83,667.36h0L555,168H444L231.28,667.36h163.6L500.05,374.84l48.89,135.55H500.05l-28,84.14H579.13l26.1,72.83h163.6"/></g></svg>