<?xml version="1.0" encoding="utf-8"?>
<!-- Generator: Adobe Illustrator 27.0.0, SVG Export Plug-In . SVG Version: 6.00 Build 0)  -->
<svg version="1.1" id="Layer_1" xmlns="http://www.w3.org/2000/svg" xmlns:xlink="http://www.w3.org/1999/xlink" x="0px" y="0px"
	 viewBox="0 0 1000 1000" style="enable-background:new 0 0 1000 1000;" xml:space="preserve">
<style type="text/css">
	.st0{fill:#FFFFFF;}
	.st1{fill-rule:evenodd;clip-rule:evenodd;fill:#EC1C24;}
	.st2{fill-rule:evenodd;clip-rule:evenodd;fill:#F48120;}
	.st3{fill-rule:evenodd;clip-rule:evenodd;fill:#FDEE36;}
	.st4{fill-rule:evenodd;clip-rule:evenodd;fill:#4FB864;}
	.st5{fill-rule:evenodd;clip-rule:evenodd;fill:#9F99CA;}
	.st6{fill-rule:evenodd;clip-rule:evenodd;fill:#7670B2;}
	.st7{fill-rule:evenodd;clip-rule:evenodd;fill:#C5579F;}
	.st8{fill:#211315;}
</style>
<g id="background">
	<circle class="st0" cx="500" cy="500.5" r="423.5"/>
</g>
<g id="color">
	<path class="st1" d="M531.321899,356.022675l-18.575073-138.789215c0,0,144.123596-24.00473,238.904175,70.775848
		l-90.112976,110.116913C661.538025,398.221466,615.528931,352.212402,531.321899,356.022675L531.321899,356.022675z"/>
	<path class="st2" d="M637.62854,440.896545l96.209412-101.734314c0,0,109.259644,96.971466,95.161621,230.23584
		l-142.313721-0.857361C686.685791,568.635986,693.544312,504.051849,637.62854,440.896545L637.62854,440.896545z"/>
	<path class="st3" d="M638.009583,577.97113l139.455994,11.907104c0,0-7.811096,145.933533-120.880981,217.852478
		l-88.017334-111.831604C568.567322,695.89917,623.435303,661.035095,638.009583,577.97113L638.009583,577.97113z"/>
	<path class="st4" d="M530.940857,663.607056l77.634338,116.594421c0,0-118.97583,84.778625-245.762695,41.246216
		l32.673096-138.503418C395.485626,682.848938,456.9263,703.995972,530.940857,663.607056z"/>
	<path class="st5" d="M397.295502,633.31543l-42.770325,133.264282c0,0-140.408615-40.198425-185.369858-166.508972
		l128.692032-60.773865C297.847351,539.296875,319.565887,600.546997,397.295502,633.31543L397.295502,633.31543z"/>
	<path class="st6" d="M337.664703,509.862518l-130.882919,49.533539c0,0-56.011032-134.883728,14.764801-248.715668
		l127.739456,62.774261C349.286041,373.549957,314.993561,428.703644,337.664703,509.862518L337.664703,509.862518z"/>
	<path class="st7" d="M397.200226,386.314362l-120.404663-71.537903c0,0,70.585327-127.929962,203.754425-143.361572
		l30.482178,138.979736C511.032166,310.394653,446.448029,317.919952,397.200226,386.314362L397.200226,386.314362z"/>
	<path class="st8" d="M459.783997,404.317902c-54.582184,22.004333-80.968323,84.207062-58.963989,138.789276
		c22.004333,54.582153,84.207062,80.968323,138.789246,58.963989s80.968323-84.207092,58.96405-138.789246
		c-16.28894-40.29364-55.344238-66.67981-98.876648-66.67981C485.979645,396.506866,472.453156,399.174042,459.783997,404.317902z"
		/>
	<path class="st0" d="M420.157135,547.298462c-5.14386-3.143433-9.811432-6.953735-14.002777-11.240295
		c-6.382202-17.908264-7.430023-37.245422-3.238708-55.72525c2.000397-3.905548,4.28656-7.71582,6.763245-11.240295
		c0.762024-1.143097,1.524109-2.286163,2.381409-3.333984l23.909485,14.193268v0.571533
		c-0.095276,12.85968,1.238312,25.624084,3.810272,38.197998c0,0.095215,0,0.095215,0,0.190491l-18.575104,29.053345
		C420.823944,547.77478,420.442902,547.488953,420.157135,547.298462L420.157135,547.298462z"/>
	<path class="st0" d="M491.314026,596.450989c4.096039,2.095642,8.382599,3.905518,12.764404,5.334351
		c-18.765594,0.857361-37.435944-3.715027-53.820129-13.050171l40.103149,7.144226
		C490.647217,596.165222,491.028229,596.260437,491.314026,596.450989L491.314026,596.450989z"/>
	<path class="st0" d="M491.123505,589.211487l-47.342682-8.477905c-5.524872-6.667969-10.478241-13.907471-14.764801-21.432739
		c-1.047852-1.905151-2.286163-3.810303-3.238739-5.810669l18.575104-29.053345l1.428833,0.381042
		c11.621368,3.048218,23.433197,5.429688,35.245056,7.049011c0.666809,0.095276,1.238312,0.190552,1.809875,0.190552
		l22.194824,38.388489c-3.810272,5.429688-7.71582,10.859314-11.716583,16.193665
		C492.552338,587.592102,491.885529,588.449402,491.123505,589.211487L491.123505,589.211487z"/>
	<path class="st0" d="M569.90094,572.827271c-3.715027,3.715088-7.71582,7.144287-11.907104,10.192505
		c-0.666809-5.524841-1.905151-10.954529-3.619751-16.288879l23.718994-44.294434
		c6.572693-2.857727,12.764404-6.382202,18.670288-10.573517c0.762024-0.476288,1.333618-1.143097,1.905151-1.809875
		C596.953857,533.867249,586.761414,556.062073,569.90094,572.827271L569.90094,572.827271z"/>
	<path class="st0" d="M568.853088,515.482666c0.8573,1.7146,1.7146,3.333984,2.667175,5.14386l-22.861633,42.770386
		l-0.381104,0.095215c-12.383362,2.286194-24.862,3.524536-37.435913,3.619751l-22.861633-39.531555
		c3.524506-6.572754,7.048981-13.240784,10.573517-19.908722c2.381409-4.477081,4.667572-9.049377,7.048981-13.526459
		l47.342651-4.858124C558.755859,497.574371,564.09021,506.433258,568.853088,515.482666L568.853088,515.482666z"/>
	<path class="st0" d="M559.232117,464.806c-2.286133,5.905945-4.667603,11.811859-7.049011,17.717773l-46.104309,4.762848
		c-0.571533-0.762054-1.143097-1.428864-1.7146-2.095673c-5.429657-6.191681-10.954529-12.288116-16.384186-18.479797
		l0.095245-0.190552l-6.667969-6.667969l12.85968-38.57901c0.8573-0.285767,1.809875-0.381042,2.667175-0.571564
		c6.953735-0.666809,14.002777-1.524109,20.956482-1.905121c4.28656-0.285767,8.668396-0.285767,12.954956-0.095276
		l31.72052,35.816589C561.613586,457.94751,560.470459,461.472015,559.232117,464.806L559.232117,464.806z"/>
	<path class="st0" d="M569.90094,432.418671c8.477844,8.477844,15.43158,18.479828,20.289673,29.434357
		c-5.905945-4.096039-12.288147-7.430023-18.956116-10.192505c-1.047791-0.476257-2.095642-0.8573-3.143494-1.143066
		L536.846802,415.2724c0.190491-1.524109,0.381042-3.048218,0.381042-4.572296
		C549.51593,415.653473,560.565796,422.988251,569.90094,432.418671L569.90094,432.418671z"/>
	<path class="st0" d="M467.880829,408.794983c0.095276,0.095276,0.190521,0.190521,0.285767,0.190521
		c7.048981,2.57196,13.71698,6.00116,19.813416,10.382996l-12.097626,36.197601c-0.095245,0-0.095245,0-0.190521,0.095276
		c-2.476685,1.047821-4.953369,1.905121-7.334778,3.048218c-10.001984,4.381836-19.622925,9.620941-28.767578,15.526855
		l-23.718933-14.098022c0-0.762054,0.190521-1.428864,0.381012-2.190918c1.619385-4.191284,3.143463-8.477844,4.953369-12.669128
		c1.428864-3.143463,2.952972-6.286957,4.667603-9.335175c1.143097-1.238312,2.286163-2.476685,3.524506-3.714996
		c10.859283-10.859283,24.099976-19.051392,38.674286-23.909485C467.976105,408.604462,467.880829,408.699707,467.880829,408.794983
		L467.880829,408.794983z"/>
</g>
</svg>
