<svg xmlns="http://www.w3.org/2000/svg" viewBox="0 0 1000 1000"><defs><style>.cls-1{fill:#fff;}.cls-2{fill:#fa6e07;}</style></defs><title>m1khan icons two FINAL 1Artboard 1 copy 3</title><g id="background"><circle class="cls-1" cx="500" cy="500" r="423.5"/></g><g id="color"><polygon points="436.59 522.58 562.94 522.58 552.48 492.67 447.68 492.67 436.59 522.58"/><polygon points="481.36 478.44 518.13 478.44 499.74 395.28 481.36 478.44"/><polygon points="452.28 478.44 472.06 478.44 495.2 375.28 495.2 168 425.19 198.61 483.07 392.86 452.28 478.44"/><polygon points="504.39 168.2 573.89 198.71 517.12 393.46 547.46 478.44 527.62 478.44 504.79 375.28 504.39 168.2"/><path class="cls-2" d="M575.77,502.55c47.92-26.5,80.34-77.35,80.34-135.73a154.89,154.89,0,0,0-73.22-131.54l-7.5,26.4a128.67,128.67,0,0,1-8.94,213.72Z"/><path class="cls-2" d="M423.68,502.24A154.79,154.79,0,0,1,416,236l7.88,26.1a128.67,128.67,0,0,0,9.68,213.47Z"/><path id="path26" d="M488.13,558.05a159.1,159.1,0,0,0-92.9,37.69c-4.51,3.86-10.63,9.71-10.63,10.13s4.19,4.7,4.68,4.7a5.33,5.33,0,0,0,1.6-1.3c.7-.72,2.54-2.49,4.1-3.91A152,152,0,0,1,560.19,577.7a156.14,156.14,0,0,1,45.41,30.75,19.18,19.18,0,0,0,2.42,2.12,35.81,35.81,0,0,0,4.82-4.56c0-.32-5.89-6.06-9.31-9.06a158.3,158.3,0,0,0-46.06-28.16A160.65,160.65,0,0,0,508.72,558C504.42,557.75,492.37,557.77,488.13,558.05Z"/><path id="path28" d="M470.8,576.32c-6.51,1.35-12.21,2.61-12.63,2.79-1.75.84-1.82,2.19-.42,9.07,3.75,18.27,4.42,21.44,4.82,22.55a12,12,0,0,0,3.65,4.79c1.93,1.42,3.44,1.86,6.68,1.88,2.53,0,3.42-.11,9.42-1.32,10.58-2.16,9.77-1.93,9.77-2.79a50.52,50.52,0,0,0-1.49-7.09c-.09-.09-3.7.56-8,1.42s-8.24,1.55-8.7,1.55a3,3,0,0,1-3-2.06c-.56-1.21-1.47-5.07-1.28-5.28s17.1-3.58,17.45-3.58c.09,0,.18-.26.18-.58a70.14,70.14,0,0,0-1.51-7.28c-.07-.07-4.05.65-8.84,1.63-6.26,1.25-8.77,1.67-8.93,1.49a52.16,52.16,0,0,1-1.56-7.75c.09-.09,18.31-3.9,19.17-4,.16,0,0-1.3-.4-3.14-.25-1.16-.58-2.69-.72-3.44-.25-1.28-.28-1.32-1-1.3C483,573.88,477.34,575,470.8,576.32Z"/><path id="path30" d="M526.38,577.67a10.22,10.22,0,0,0-7.51,6.58c-1,2.37-7.24,27-7.24,28.25a2.62,2.62,0,0,0,1.21,2.44,34.81,34.81,0,0,0,6,1.67c.3,0,.79-1.58,2.35-7.57,1.1-4.19,2.07-7.75,2.21-7.91s1.84.12,8.49,1.88c4.54,1.21,8.47,2.21,8.73,2.21.42,0,.58-.44,1.35-3.44.86-3.37,1-4.46.7-4.46s-16.87-4.4-17-4.54.79-3.95,1.37-5.18a3.15,3.15,0,0,1,2.77-1.91c.44,0,4.21.89,8.35,2s7.84,2,8.17,2c.6,0,.65-.1,1.6-3.75a19,19,0,0,0,.79-3.95c-.27-.26-15.28-4.14-17-4.39A13.66,13.66,0,0,0,526.38,577.67Z"/><path id="path32" d="M425.06,592.85c-2,1.33-5.79,4.61-5.79,5s3.12,4.28,6.93,9,7.33,9.07,7.8,9.72c2.32,3.23,2.74,5.88,1.37,8.77a11.3,11.3,0,0,1-5.1,5.06,5.8,5.8,0,0,1-3.56.79,7.61,7.61,0,0,1-5.72-2.25c-.6-.54-4.44-5.12-8.54-10.14-4.3-5.3-7.58-9.11-7.82-9.11-.51,0-6.42,4.81-6.42,5.21,0,.56,15.43,19.34,17.38,21.18a14.86,14.86,0,0,0,6.7,3.74,14.69,14.69,0,0,0,4.54.26,13,13,0,0,0,4.91-.79A22,22,0,0,0,443.46,629a16.37,16.37,0,0,0,1.56-8.09,13.6,13.6,0,0,0-2.46-7.68c-1.05-1.58-15.89-19.94-16.57-20.5C425.71,592.51,425.53,592.53,425.06,592.85Z"/><path id="path34" d="M581.31,600.81c-1,.34-36.06,23.13-36.13,23.55s6.77,4.34,7.56,4.34c.28,0,5.75-3.39,12.15-7.55s11.77-7.56,11.91-7.56.21.19.16.4c-.74,2.79-3.09,10.69-3.23,10.85s-.72-.23-1.4-.76a4.9,4.9,0,0,0-1.63-1c-.58,0-7,4.17-7,4.56s4,3.53,7,5.65l.54.42-1.09,3.81-1.1,3.81,1.49,1.38c4.24,3.92,5.33,4.83,5.61,4.72a1.15,1.15,0,0,0,.46-.8c.07-.34,2.73-9.6,5.87-20.52,6.39-22.23,6.19-21.21,4.63-22.81C585,601.2,582.94,600.29,581.31,600.81Z"/><path id="path36" d="M492.35,623.12a94.13,94.13,0,0,0-54.59,22.07c-3.07,2.55-9.88,9.44-9.88,10s4.35,4.44,4.84,4.44a29.9,29.9,0,0,0,3.35-3.16,86.95,86.95,0,0,1,86.8-23.11c14.68,4.28,29.41,13.28,39.27,24a13.16,13.16,0,0,0,2.47,2.3,3.55,3.55,0,0,0,1.3-.9c.54-.49,1.58-1.4,2.3-2a4.76,4.76,0,0,0,1.33-1.46c0-.51-7.4-7.88-10.75-10.67A92.11,92.11,0,0,0,509,623.47,128.58,128.58,0,0,0,492.35,623.12Z"/><path id="path38" d="M527,675.29c-10.17,1.47-18.27,6-23.85,13.42-4.84,6.44-7.35,13.95-8.05,24-.81,11.92,2,23.36,7.56,30.8a38,38,0,0,0,13,10.79c7.16,3.28,16.45,4.35,25.4,2.93,19.36-3,30.83-18.32,30.83-41,0-13.32-3.68-23.5-11.21-31a33.86,33.86,0,0,0-18-9.44,34.92,34.92,0,0,0-8.17-.68A53.41,53.41,0,0,0,527,675.29Zm8.26,16.65c6.67.74,11.58,4,14.58,9.69,2.35,4.44,3.29,8.7,3.29,14.84s-.87,10.16-3.17,14.64a14.55,14.55,0,0,1-3.3,4.42,15.78,15.78,0,0,1-6.94,4.42,19.22,19.22,0,0,1-15-1.16,16.59,16.59,0,0,1-8.05-8.4c-2.21-4.46-3.07-9.11-2.86-15.43.18-5.47,1-9,2.79-12.67a18.33,18.33,0,0,1,15.17-10.42c.51,0,1-.09,1.16-.12S534.11,691.82,535.25,691.94Z"/><path id="path40" d="M283.4,716.47v39.64h55.83v-17H320.88c-15.26,0-18.38,0-18.61-.32s-.26-2.33-.21-7.25l.07-7,16.7-.07,16.68,0V707.75H319c-13.68,0-16.52,0-16.75-.33s-.26-2.25-.21-7l.07-6.72,18.21-.07,18.2,0V676.83H283.4Z"/><path id="path42" d="M349.08,703.84l.07,27,.53,2.33c1.56,6.88,4,11.39,8.52,15.64,6.42,6.09,15.17,9,25.94,8.58,16-.58,27.15-8.6,30.82-22.09,1.26-4.6,1.28-5.11,1.28-32.89V676.83H397.65l-.09,25.27c-.07,22.36-.11,25.48-.46,26.83-1.24,5-3.52,8.16-7.26,10a14.8,14.8,0,0,1-7.91,1.53,14.17,14.17,0,0,1-4.42-.72,12.53,12.53,0,0,1-8.4-8c-1.4-3.44-1.33-2.3-1.42-29.76l-.09-25.15H349Z"/><path id="path44" d="M426.71,716.47v39.64h18.62l0-14.14.07-14.11,4.31-.05a27.54,27.54,0,0,1,4.56.12c.11.09,3.51,6.07,7.51,13.3s7.54,13.53,7.84,14l.56.89h10.47c9,0,10.47-.05,10.47-.35s-3.86-7.3-8.61-15.81-8.61-15.51-8.61-15.56a15.71,15.71,0,0,1,1.61-1.13c7.68-5.1,11.65-12.3,11.65-21.14a23.16,23.16,0,0,0-7.39-17.67,25,25,0,0,0-10-6c-4.73-1.56-3.68-1.51-24.34-1.58l-18.8-.1ZM460.8,693.8A12,12,0,0,1,466,696a9.36,9.36,0,0,1,2.35,4.91c.63,5-1.63,8.46-6.26,9.67-1.53.4-15.93.58-16.38.21s-.34-1.56-.34-8.6c0-4.56.07-8.37.16-8.44C445.72,693.47,459,693.54,460.8,693.8Z"/><path id="path46" d="M581.66,716.47v39.64h18.61l.05-13.21.07-13.18,8.73-.14c7.49-.14,9-.21,10.93-.63,11.68-2.46,19-9.62,21-20.5a44.35,44.35,0,0,0-.09-11.4,23.37,23.37,0,0,0-5.07-10.83c-4.4-5.07-9.56-7.86-16.85-9-1.72-.28-5.28-.35-19.7-.35H581.66Zm34.11-22.39a12.34,12.34,0,0,1,4.68,2.6,13.93,13.93,0,0,1,1.32,2.23,7.54,7.54,0,0,1,.79,3.75c.24,5.27-2.09,8.46-7,9.62-1.9.44-14.58.51-15,.07-.21-.21-.28-2.6-.28-9.37,0-5,.07-9.18.19-9.27a69.51,69.51,0,0,1,7.14-.07C612.93,693.71,614.86,693.82,615.77,694.08Z"/><path id="path48" d="M664.51,677.36c-.12.31-7.28,18-15.94,39.29s-15.72,38.9-15.72,39.08c0,.35,1.07.38,10.49.33l10.49-.07,2.77-7.18c1.51-4,2.84-7.28,3-7.4s6.93-.16,15.19-.14l15,.07,2.82,7.33,2.81,7.32,10.63.07c8.08.05,10.61,0,10.61-.23S685,677.5,684.66,677.11c-.16-.21-2.47-.28-10.07-.28h-9.87ZM678.91,713c2.21,5.74,4.07,10.65,4.12,10.86.12.39-.39.42-8.26.42-4.63,0-8.44-.1-8.51-.19s1.69-5,3.93-10.88,4.14-10.83,4.21-11,.14-.3.32,0S676.73,707.21,678.91,713Z"/><path id="path50-6" d="M519.63,779.36a25.81,25.81,0,0,0-15,7.28,24.43,24.43,0,0,0-6.59,12c-.56,2.26-.6,2.86-.6,7.11s0,4.86.6,7.09a23.18,23.18,0,0,0,6.59,11.77,22.38,22.38,0,0,0,7,5c5.12,2.39,12.61,3.07,19.1,1.7A27,27,0,0,0,545.08,823l2-2.14v-17.6h-27v9.77h7.51c5.54,0,7.59.07,7.8.28a2.89,2.89,0,0,1,.28,1.48c0,1.17-.05,1.26-1.31,2.4a15.84,15.84,0,0,1-14.28,3.16,16.68,16.68,0,0,1-6.35-3.44,17,17,0,0,1-3.77-7.25,25.31,25.31,0,0,1,0-8.33c1.42-6.46,6.89-11.09,13.1-11.09a13,13,0,0,1,5.82,1.33,9.57,9.57,0,0,1,5,5.16,9,9,0,0,0,1.23,2.12c.14,0,2.7-.72,5.7-1.61,5.42-1.58,5.47-1.6,5.54-2.25.09-.89-.91-3.54-2.09-5.54a26.36,26.36,0,0,0-6.1-6.46C533.66,779.94,526.64,778.57,519.63,779.36Z"/><path id="path52-8" d="M362.59,805.61v25.57h36.06V820H387c-8.8,0-11.77-.07-12-.28s-.28-5-.28-20V780h-12.1Z"/><path id="path54-5" d="M403.54,805.61v25.57H439.6V820H427.87c-9.68,0-11.77,0-12-.32s-.26-1.61-.21-4.47l.07-4.16,10.66-.07L437,811V799.8H426.59c-8.58,0-10.49,0-10.7-.33s-.26-1.53-.21-4.23l.07-3.93,11.59-.07,11.56,0V780H403.54Z"/><path id="path56-8" d="M464.52,780.55l-10.24,25.22c-5.51,13.58-10,24.85-10,25s.77.37,6.75.37c6.54,0,6.75,0,7-.46.14-.28.95-2.28,1.79-4.49s1.63-4.14,1.74-4.3,2.4-.28,9.64-.28c9,0,9.4,0,9.61.44.13.23.95,2.26,1.79,4.46a46.76,46.76,0,0,0,1.79,4.33c.16.23,1.84.3,6.93.3H498v-.51c0-.51-19.87-49.78-20.32-50.36-.16-.21-1.76-.28-6.58-.28h-6.37Zm9.37,23.31c1.33,3.44,2.35,6.35,2.31,6.44a71.92,71.92,0,0,1-10.17,0c-.07-.14,2.7-7.67,4.88-13.29C471.1,796.54,471,796.33,473.89,803.86Z"/><path id="path58-9" d="M551.81,797.75c.07,17.53.07,17.76.58,19.71a19.05,19.05,0,0,0,13.89,13.72,38.42,38.42,0,0,0,12.68.28c5.84-1.21,10.61-4.39,13.26-8.88a24,24,0,0,0,2.54-7.21c.16-1,.25-7.74.25-18.43V780H582.94l-.1,16.44c-.07,17.69,0,17.34-1.3,19.79-2.28,4.46-8.07,6-12.93,3.32a8.18,8.18,0,0,1-3.89-4.65l-.53-1.3-.07-16.81L564.05,780H551.72Z"/><path id="path60-8" d="M600.88,805.54l.07,25.53H637l.07-5.54,0-5.51H625.4c-9.68,0-11.77,0-12-.32s-.26-1.61-.21-4.47l.07-4.16,10.65-.07,10.63,0V799.8H624.12c-8.59,0-10.49,0-10.7-.33s-.26-1.53-.21-4.23l.07-3.93,11.58-.07,11.57,0V780h-35.6Z"/></g></svg>