<svg xmlns="http://www.w3.org/2000/svg" viewBox="0 0 1000 1000"><defs><style>.cls-1{fill:#fff;}.cls-2{fill:#2d2e2f;fill-rule:evenodd;}</style></defs><title>m1khan icons two FINAL 1Artboard 1 copy 2</title><g id="background"><circle class="cls-1" cx="500" cy="500.5" r="423.5"/></g><g id="color"><path class="cls-2" d="M499.93,349c32.85,9.07,57.35,13.34,57.35,13.34A504.66,504.66,0,0,1,519.66,320c19.07-27,34.09-45.63,34.09-45.63-20.23,4.48-39.35,9.95-56.47,15.58-16.27-23.37-25.21-39.81-25.21-39.81a240.78,240.78,0,0,0-7.81,51.6c-27.18,10.53-44.17,19.13-44.17,19.13,14.7,6.63,30,12.41,44.74,17.39,2.39,31.72,8.8,53.74,8.8,53.74,8.25-14.71,17.31-29.34,26.3-43Z"/><path class="cls-2" d="M649.9,340.68c-4.47,7-11.31,12-19.3,15.5a390.13,390.13,0,0,0-4.53-42.3A506,506,0,0,1,605,362.8c-24.09,3.09-47.73-.45-47.73-.45,13,15.55,23,24.77,31.19,31-12.19,20.56-21,31.53-21,31.53,17-3.9,30.6-10.38,41.38-18.05a41.29,41.29,0,0,1,12,12.13s7-9.86,9.34-32.71c17.23-22.52,19.78-45.57,19.78-45.57Z"/><path class="cls-2" d="M642,278.48a107.55,107.55,0,0,0-30.8-40.1c-10.29-21.61-22.12-31.59-22.12-31.59,1,5,.23,10.6-1.61,16.41a147.87,147.87,0,0,0-49-14.46c14.88,9.75,28.09,21.84,39.43,34.31a212.83,212.83,0,0,1-24.19,31.36c18.22-4.11,32.88-5.83,44.61-6.15a308.35,308.35,0,0,1,27.71,45.62,185.05,185.05,0,0,0-4.13-44c15.24,2.9,20.08,8.59,20.08,8.59Z"/><path class="cls-2" d="M538.52,208.74a187.74,187.74,0,0,0-35.38-13.6c14.08-11.91,27.18-14.93,27.18-14.93A145.06,145.06,0,0,0,472,189.66c-24.3-1.94-39.78,2.28-39.78,2.28,3.64,2.74,6.71,7.64,9.86,13.5-20.54,14.06-31,28.71-31,28.71a214.39,214.39,0,0,1,38.46-14.35c1.42,2.59,2.9,5.18,4.52,7.71a147.75,147.75,0,0,0,18,22.67c3.36-16,9.15-28.47,15.8-38.14a330.26,330.26,0,0,1,50.64-3.3Z"/><path class="cls-2" d="M382.52,258a268.89,268.89,0,0,1,28.59-23.88A99.19,99.19,0,0,0,389.44,237c7.37-17.83,15.54-27.71,15.54-27.71s-46.89,33.35-55.8,93.28c0,0,3.94-10.84,17.3-27.18a94.39,94.39,0,0,0,11.41,19.36,153.71,153.71,0,0,1,4.63-36.7Z"/><path class="cls-2" d="M420.1,320.92a264.39,264.39,0,0,0-39,3.75,267.84,267.84,0,0,1-3.22-29.94,131.11,131.11,0,0,0-16.46,35.11c-11.33,4.21-14.2,8.27-14.2,8.27,1.77,6,5.31,11.92,9.77,17.42-1.4,26.1,7.05,43.34,7.05,43.34a91.13,91.13,0,0,1,10.43-26.38,196.59,196.59,0,0,0,27.64,18.39c-6.48-11.62-11.25-24.62-14.75-37.21a214.74,214.74,0,0,1,32.73-32.75Z"/><path class="cls-2" d="M500.62,454.21a306.43,306.43,0,0,1-33.2-16.47,344.74,344.74,0,0,1,6.22-45.69A207.15,207.15,0,0,1,438,419.34a336.56,336.56,0,0,1-35.88-28.46,228.7,228.7,0,0,0,17,37.67c-10.61,4-21.55,5.81-31.54,3.37,0,0,11.81,14.75,48.24,21,10.11,12,22.41,21.89,36.78,25.33,0,0-4.33-4.75-5.29-22.57a307.79,307.79,0,0,0,33.33-1.48Z"/><path class="cls-2" d="M566.66,452.7a81,81,0,0,0,.78-27.82,185,185,0,0,1-26.66,31,209,209,0,0,1-40.16-1.71s10.06,10.06,21.68,15.86c-15.33,9.49-25.61,10.33-25.61,10.33C563.8,481.81,604.07,438,604.07,438c-11.31,7.46-24.4,12-37.41,14.7Z"/><path class="cls-2" d="M426.44,631.2a92.58,92.58,0,0,1,140.91,1.68l4.48-4.2A98.63,98.63,0,0,0,422.21,627l4.23,4.17Z"/><polygon class="cls-2" points="488.29 582.13 461.17 587.77 454.37 554.95 481.08 549.41 482.34 555.42 464.78 559.07 466.2 565.95 482.95 562.47 484.21 568.49 467.46 571.97 469.08 579.85 487.03 576.13 488.29 582.13 488.29 582.13"/><polygon class="cls-2" points="539.98 560.97 523.83 557.55 522.28 564.87 538.44 568.27 537.18 574.29 521.01 570.87 518.17 584.33 509.02 582.4 515.94 549.62 541.25 554.95 539.98 560.97 539.98 560.97"/><path class="cls-2" d="M579,617.05l-8-7.59,1.27-7.2-13.79-9.59-6.09,3.84-9.13-5.1L575.81,572l8.9,6.19L579,617.05Zm-2.75-35.86L564,589l9.77,6.8,2.55-14.58Z"/><path class="cls-2" d="M430.15,603.61c-6,4.76-16.19,8.66-23.66-.1L395.74,589.7l7.2-5.66,10.55,13.56c3.81,4.48,8.6,3.63,12.41.62s5.76-7.47,2.3-12.22l-10.57-13.55,7.19-5.67,10.76,13.81c6.42,8.83,2.45,16.77-5.43,23Z"/><path class="cls-2" d="M612,584.31a158.5,158.5,0,0,0-230.77,1.09l-4.88-5A166.83,166.83,0,0,1,617,579.67l-5,4.64Z"/><path class="cls-2" d="M644.42,717.55c-20,0-32.24-16.81-32.24-35.25,0-19.14,14.21-33,32.75-33,20.55,0,32.94,16.31,32.94,34.25,0,21.25-15.41,34-33.45,34Zm-1.12-58.62c-12.47,0-16.21,11.89-16.21,20,0,11.78,5.24,29,19.65,29,10.26,0,16.23-9.16,16.23-20.15,0-11.69-4.54-28.81-19.67-28.81Z"/><path class="cls-2" d="M521.62,708c0,3.63.71,4.93,6.56,6v2.51c-6.35-.3-10.29-.59-14-.59s-7.66.3-12.09.59V714c3.94-.7,4.64-2.42,4.64-7.16V657.62c0-2.82-1.22-4.14-4.64-4.23v-2.81H531.9c18.65,0,25.4,8.88,25.4,20.55,0,12.51-9.49,20.16-22.48,20.16-4.93,0-12.19-2.52-12.19-4.63,0-.92.6-.92,1.52-.92s2.21.31,3.51.31c10.58,0,14.71-5.94,14.71-14.32,0-9.05-5.64-12.28-14.51-12.28l-6.25.66V708Zm0,0Z"/><path class="cls-2" d="M576.77,657c0-2.82-1.22-4.13-4.64-4.23v-2.64c4.43.32,8.37.61,12.1.61s7.66-.3,12.07-.61v2.64c-3.41.11-4.63,1.41-4.63,4.23V709.8c0,2.82,1.21,4.14,4.63,4.23v2.52c-4.43-.29-8.36-.59-12.07-.59s-7.67.31-12.1.59V714c3.43-.1,4.64-1.41,4.64-4.23V657Z"/><path class="cls-2" d="M698.06,657c0-2.81-1.2-4.12-4.63-4.22v-2.64c4.43.32,8.35.61,12.09.61a45.29,45.29,0,0,0,8.86-.61l27.81,45.06h.2V658.36c0-5.22-3.31-5.63-6-5.63V650.1c3.32.31,6.54.6,9.67.6,3.33,0,6.66-.3,9.88-.6v2.63c-3.43.11-4.63,1.41-4.63,4.22v59.62h-10.7l-33.44-52.05h-.2v43.83c0,5.23,3.34,5.64,6.06,5.64v2.52c-3.33-.32-6.56-.6-9.69-.6-3.32,0-6.64.29-9.86.6V714c3.42-.11,4.63-1.43,4.63-4.24V657Z"/><path class="cls-2" d="M776.5,693.65c2.06,11.3,9.49,16.59,20.59,16.59,6.12,0,14.92-1.77,14.92-9.54,0-6.23-6.41-7.89-11.19-9.33l-7.37-2.18c-10.57-3.11-21.16-7.57-21.16-19.83,0-16.06,15.56-20.93,31-20.93a57.27,57.27,0,0,1,19.29,3.32c0,7.46.41,13.78.83,19.17h-2.59c-2.18-9.53-10-14-19.29-14-5.18,0-13.9,1.65-13.9,8.81,0,5.71,5,7.36,9.23,8.62l10.88,3.1c10.5,3,20.24,6.85,20.24,20.33,0,13.69-13.8,21-30.7,21A68.69,68.69,0,0,1,774.78,715c0-8.2-.32-15.35-.81-21.37h2.53Zm0,0Z"/><path class="cls-2" d="M252.65,657c0-2.82-1.2-4.14-4.63-4.23v-2.63c4.43.31,8.35.6,12.07.6s7.68-.3,12.1-.6v2.63c-3.41.1-4.63,1.41-4.63,4.23v20h24.38V657c0-2.82-1.21-4.14-4.64-4.23v-2.63c4.43.31,8.38.6,12.1.6s7.65-.3,12.08-.6v2.64c-3.42.09-4.63,1.4-4.63,4.22l0,52.81c0,2.81,1.23,4.13,4.64,4.23v2.57c-4.43-.31-8.36-.61-12.08-.61s-7.67.31-12.09.61V714c3.43-.11,4.64-1.42,4.64-4.23V686.64H267.56v23.17c0,2.81,1.19,4.13,4.62,4.23v2.57c-4.44-.31-8.35-.61-12.09-.61s-7.65.31-12.09.61V714c3.44-.11,4.64-1.42,4.64-4.23V657Zm0,0Z"/><path class="cls-2" d="M348.78,687.74c2.63-7.15,5.85-15.11,8.15-23.18h.22A189.84,189.84,0,0,0,363,687.74Zm-24.39,28.81c3.53-.3,6.95-.59,10.48-.59s7,.3,10.37.59V714c-3.32-.2-4.74-1.41-4.74-3.22a10.63,10.63,0,0,1,.82-3.52l4.43-11.9h19.64l3.22,9.77a16.75,16.75,0,0,1,1,5.05c0,2.31-1.31,3.13-5.05,3.83v2.5c4.34-.3,8.67-.59,13-.59s8.57.3,12.79.59V714c-3-.81-4.52-2.12-6.05-6.55l-18.53-57.34c-3.13.3-6.35.59-9.47.59s-6.24-.3-9.47-.59v2.64c2.73,0,3.84,1.6,3.84,2.6a13.74,13.74,0,0,1-1.31,3.94L329.63,709.4c-1,2.61-2.32,4.24-5.25,4.63v2.52Z"/><path class="cls-2" d="M410.71,666.48c.1-2.82.31-5.65.31-9.67,0-3.14-.71-3.52-4.53-4v-2.64c3,.3,6.65.59,10.28.59s7.25-.29,10.86-.59l17.66,46.72,15.8-46.72c3.52.32,7,.59,10.47.59s7.06-.28,10.49-.59v2.64c-3.51.3-4,1.4-4,4.14s.4,7.34.7,10.78l3.22,43c.22,2.63,3.13,3,5.15,3.33v2.51c-4.34-.3-8.77-.59-13.11-.59s-8.75.3-12.89.59V714c4.93-.6,6.25-1.52,6.25-6.14,0-2.42-.31-7-.59-10.28l-2.32-30h-.21L447.4,717.11h-8.47L419.7,667h-.21l-.8,29.53c-.11,5.24-.32,8-.32,10.67,0,5,.51,6.16,6.56,6.86v2.51c-4-.3-7.76-.59-11.59-.59s-7.46.3-10.58.59V714c3.93-.3,5.55-1.2,5.75-5.44l2.2-42.12Z"/><path class="cls-2" d="M232.84,712.87c-6.9,5.28-16.8,7.42-23.25,7.42-24,0-37.59-18.65-37.59-37.74,0-19.55,13.57-38.41,39.59-38.41,9.13,0,15.68,1.73,18.23,2.73,0,7.64.41,15,1,22.3h-2.91c-1.78-9.32-8.26-14.25-17.63-14.25-12.67,0-22.45,10-22.45,26.83,0,12.7,10.45,27.06,25.12,27.06,6.24,0,15.21-3.4,21.2-8.45l-1.28,12.51Z"/><path class="cls-2" d="M341.9,753c0-2.17-.93-3.18-3.57-3.26v-2.13c3.42.23,6.46.47,9.34.47,3.27,0,8-.23,10.26-.47v2.13c-4,.16-4.51,2.1-4.51,4.29v38.07h14.39c5.12,0,7.23-2.33,8.54-8.24h2.52A89.53,89.53,0,0,0,377,798.93H338.33v-2.12c2.64-.09,3.57-1.08,3.57-3.27V753Z"/><path class="cls-2" d="M391.4,753.25c0-2.18-.93-3.2-3.57-3.27v-2.13h39.3c.1,4.28.23,7.75.63,12h-2.14c-.77-4.28-1.86-5.75-6.06-5.75H402.93v15h10.33c3.51,0,4-1.17,4.51-4h2.13a73.06,73.06,0,0,0-.47,7.4,72.12,72.12,0,0,0,.47,7.39h-2.13c-.47-2.81-1-4-4.51-4H402.93v16.16h17.49c4.2,0,5.51-1.39,6.84-7.94h2.59c-.69,6.39-.85,10.52-.93,14.78H387.83v-2.12c2.64-.08,3.57-1.08,3.57-3.27V753.25Z"/><path class="cls-2" d="M439.17,796.82c2.25-.31,3.27-1.54,4.06-3.56l15.24-38.56a10.33,10.33,0,0,0,1-3c0-.79-.83-2-2.94-2v-2.12c2.48.24,4.9.47,7.31.47s4.9-.23,7.32-.47l14.31,44.24c1.16,3.41,2.33,4.42,4.65,5.05v2.11c-3.25-.22-6.59-.46-9.86-.46s-6.7.24-10,.46v-2.11c2.89-.55,3.89-1.17,3.89-3a13.32,13.32,0,0,0-.78-3.89l-2.49-7.51H455.66l-3.42,9.15a7.9,7.9,0,0,0-.62,2.71c0,1.4,1.09,2.32,3.66,2.49v2.11c-2.63-.22-5.37-.46-8-.46s-5.37.24-8.09.46v-2.12ZM469,776.58a145.7,145.7,0,0,1-4.5-17.85h-.16c-1.8,6.21-4.28,12.34-6.3,17.85Z"/><path class="cls-2" d="M531.76,780.75c0-3.11-1.41-3.27-4.9-3.35v-2.59c3.18.23,6.38.47,9.65.47,3.48,0,6.91-.24,10.41-.47v2.44c-2.72.08-4.13.78-4.13,4.27v17.41h-4.52l-1.77-5.2A21.5,21.5,0,0,1,521.15,800c-14.62,0-23.95-12.05-23.95-26.06,0-16.88,11.28-27.1,28.08-27.1,5.37,0,11.16,1,15.34,3.62,0,3.83.16,8.2.47,13.57h-2.23c-1-6.94-7.57-10.34-14.05-10.34-10.81,0-16.09,8.26-16.09,18.29,0,9.66,5.45,20.55,14.46,20.55,5.53,0,8.57-2.57,8.57-6.15v-5.59Zm0,0Z"/><path class="cls-2" d="M562.54,753c0-2.17-.92-3.18-3.57-3.26v-2.13c2.5.23,5.68.47,8.95.47,4,0,7.24-.23,10.34-.47v2.13c-3.34.16-4.19.78-4.19,3.81V782.6c0,8.8,3.65,10.52,10,10.52s10-1.88,10-10.52V753.53c0-3-.86-3.65-4.21-3.81v-2.13c3.12.23,6.29.47,10.35.47,3.26,0,6.46-.23,8.94-.47v2.13c-2.65.08-3.58,1.09-3.58,3.26v28c0,14.37-7.47,19-21.47,19s-21.49-4.6-21.49-17.9V753Zm0,0Z"/><path class="cls-2" d="M625.54,753.25c0-2.18-.93-3.2-3.57-3.27v-2.13h39.31c.07,4.28.23,7.75.62,12h-2.13c-.78-4.28-1.86-5.75-6.07-5.75H637.06v14.79H647.4c3.49,0,4.05-1.16,4.51-4H654c-.23,2-.45,5.3-.45,7.38s.22,5.54.45,7.42h-2.12c-.47-2.8-1-4-4.51-4H637.06v16.39h17.5c4.19,0,5.53-1.39,6.83-7.94H664c-.7,6.39-.85,10.52-.94,14.78H622v-2.12c2.64-.08,3.57-1.08,3.57-3.27V753.25Z"/><path class="cls-2" d="M676.08,819.91a9.3,9.3,0,1,0-9.45-9.32,9.27,9.27,0,0,0,9.45,9.32Zm-7.59-9.32a7.55,7.55,0,1,1,7.59,7.77,7.52,7.52,0,0,1-7.59-7.77Zm5.62.73H676L678.8,816h1.81l-3.05-4.72a2.8,2.8,0,0,0,2.78-3c0-2.1-1.25-3-3.78-3h-4.09V816h1.63v-4.66Zm0-1.38v-3.32h2.21c1.13,0,2.33.25,2.33,1.57,0,1.66-1.21,1.75-2.6,1.75Z"/></g></svg>