<svg width="149" height="91" viewBox="0 0 149 91" fill="none" xmlns="http://www.w3.org/2000/svg">
<g clip-path="url(#clip0_7854_3158)">
<path d="M73.6299 31.2922L66.1187 43.8039C55.8459 60.8797 41.4786 73.9669 24.8486 81.3904L15.5547 85.5402C15.5547 85.5402 60.8797 10.435 61.2788 9.86499L73.6299 31.2922Z" fill="#00C4FB"/>
<path d="M92.9282 64.7105L93.1654 64.7765L93.124 64.7105L88.9354 57.4905L61.2758 9.85397C64.1278 5.82697 68.1376 2.45435 74.0392 2.45435C80.483 2.45435 84.7431 6.48134 87.7626 11.6209L131.19 85.531H57.8516C66.0084 72.3557 79.0636 64.595 92.9282 64.7105Z" fill="white"/>
<path d="M73.6264 31.2923L68.1615 40.3966L61.2734 9.86145L73.6264 31.2923Z" fill="#009CC8"/>
<path d="M118.946 64.7105H93.1259L88.0469 55.9563L118.946 64.7105Z" fill="#CBCBCB"/>
</g>
<defs>
<clipPath id="clip0_7854_3158">
<rect width="149" height="91" fill="white"/>
</clipPath>
</defs>
</svg>
