<svg width="99" height="30" viewBox="0 0 99 30" fill="none" xmlns="http://www.w3.org/2000/svg">
<path d="M96.1436 19.4148H97.6016C98.1008 19.4148 98.8508 20.243 98.4758 22.0478C98.1008 23.8526 95.7558 26.0862 93.5759 26.3921H84.7324C85.9523 25.0123 86.6921 23.1998 86.6921 21.2132C86.6921 16.8945 83.1913 13.3937 78.8713 13.3937C77.0217 13.3937 75.3206 14.0363 73.983 15.1102H73.9817C69.7474 16.4363 57.0831 20.3736 54.6716 20.8036C52.0259 20.7294 51.766 18.8964 51.3039 17.3796C50.8406 15.8616 50.4336 14.9924 47.8428 15.3623C45.5273 15.6926 32.0399 19.2753 29.1971 20.0331C28.6274 16.2737 25.3814 13.3937 21.4646 13.3937C17.1459 13.3937 13.6438 16.8945 13.6438 21.2132C13.6438 23.1998 14.3836 25.0123 15.6048 26.3921H3.19256C2.18906 26.3921 1.375 25.578 1.375 24.5732V20.7844C1.375 18.5086 4.6505 17.1019 4.6505 17.1019C8.12956 15.3252 16.0131 11.8833 17.974 11.3278C20.0834 10.2923 20.7222 9.98635 23.0825 10.0414C25.4416 10.0977 31.2988 10.0414 31.2988 10.0414C31.2988 10.0414 40.3663 4.88811 49.7308 2.44458C51.007 2.01963 52.6914 1.70476 57.151 2.20524C61.6118 2.70443 79.0159 5.96075 84.2076 6.87724C84.7773 6.99115 85.6413 7.29068 86.6921 7.46986C87.1785 7.5518 87.7046 7.60811 88.2601 7.60811H97.7539C98.4386 7.60811 99.1785 8.53355 98.5129 10.6622C97.9394 12.2532 96.2179 13.6049 96.2179 13.6049H97.6988C98.2351 13.6049 99.1785 15.0103 98.1238 16.9726C97.0691 18.9336 96.1436 19.4148 96.1436 19.4148Z" fill="#FF8A00"/>
<path d="M73.0151 26.3921H27.3281C28.2561 25.3438 28.9063 24.0446 29.1649 22.6097C31.7159 21.9262 43.4574 18.8004 45.9777 18.4715C48.8091 18.1015 49.0305 19.2484 49.6053 21.4142C50.1787 23.5787 52.1768 24.2827 54.8238 23.5415C57.1841 22.881 69.0484 19.1857 71.5777 18.3972C71.2398 19.2702 71.0542 20.2199 71.0542 21.2132C71.0542 23.1998 71.794 25.0122 73.0151 26.3921Z" fill="#FF8A00"/>
<path d="M29.2901 21.2133C29.2901 21.6894 29.2478 22.1566 29.1659 22.6097C28.9073 24.0446 28.2571 25.3438 27.3291 26.3921C25.8968 28.0126 23.8027 29.034 21.4692 29.034C19.1358 29.034 17.0417 28.0126 15.6094 26.3921C14.3883 25.0123 13.6484 23.1998 13.6484 21.2133C13.6484 16.8946 17.1506 13.3937 21.4692 13.3937C25.3861 13.3937 28.6321 16.2737 29.2017 20.0331C29.2593 20.4171 29.2901 20.8113 29.2901 21.2133Z" fill="#2F3236"/>
<path d="M73.9845 15.1102C72.9157 15.9678 72.0773 17.0981 71.5768 18.3973C69.0476 19.1857 57.1833 22.8811 54.8229 23.5416C52.1759 24.2827 50.1778 23.5787 49.6044 21.4142C49.0296 19.2485 48.8082 18.1016 45.9768 18.4715C43.4565 18.8005 31.7151 21.9262 29.1641 22.6097C29.2459 22.1566 29.2882 21.6894 29.2882 21.2133C29.2882 20.8113 29.2574 20.4171 29.1999 20.0331C32.0428 19.2753 45.5301 15.6926 47.8456 15.3624C50.4364 14.9925 50.8434 15.8616 51.3068 17.3797C51.7688 18.8965 52.0287 20.7294 54.6744 20.8037C57.0859 20.3736 69.7503 16.4363 73.9845 15.1102Z" fill="#E6E6E6"/>
<path d="M86.6963 21.2133C86.6963 23.1998 85.9564 25.0123 84.7366 26.3921C83.3043 28.0126 81.2089 29.034 78.8755 29.034C76.5421 29.034 74.4479 28.0126 73.0156 26.3921C71.7945 25.0123 71.0547 23.1998 71.0547 21.2133C71.0547 20.22 71.2403 19.2702 71.5782 18.3973C72.0787 17.0981 72.9171 15.9678 73.9859 15.1102H73.9872C75.3248 14.0363 77.0259 13.3937 78.8755 13.3937C83.1955 13.3937 86.6963 16.8946 86.6963 21.2133Z" fill="#2F3236"/>
<path d="M94.8975 4.26861C94.8898 4.27501 94.8809 4.28142 94.8732 4.28782C94.2422 4.7755 93.4626 5.0315 92.6652 5.0315H88.9571V7.60814H88.2633C87.7077 7.60814 87.1817 7.55182 86.6953 7.46989V1.94926C86.6953 1.4667 87.0869 1.07629 87.5695 1.07629H94.8975C95.7026 1.07629 96.3414 2.89389 94.8975 4.26861Z" fill="#BF3E41"/>
<path d="M94.9007 4.26861C94.8931 4.27501 94.8841 4.28142 94.8764 4.28783C94.2454 4.7755 93.4659 5.0315 92.6684 5.0315H90.2812C91.0787 5.0315 91.8582 4.7755 92.4892 4.28783C92.4969 4.28142 92.5059 4.27501 92.5136 4.26861C93.9574 2.89389 93.3187 1.07629 92.5136 1.07629H94.9007C95.7059 1.07629 96.3446 2.89389 94.9007 4.26861Z" fill="#FF8A00"/>
<path d="M5.63618 17.7851L10.2988 15.3215C10.8519 15.0293 11.5173 15.4303 11.5173 16.0558V16.4693C11.5173 17.0696 11.0744 17.5775 10.4796 17.6582C9.2175 17.8296 7.08529 18.0857 5.70537 18.0719C5.54739 18.0703 5.49649 17.8589 5.63618 17.7851Z" fill="#E6E6E6"/>
<path d="M6.80423 20.6366H3.35285C2.75239 20.6366 2.26562 21.1234 2.26562 21.7238V23.6392C2.26562 24.2397 2.75239 24.7264 3.35285 24.7264H6.80423C7.40469 24.7264 7.89146 24.2397 7.89146 23.6392V21.7238C7.89146 21.1234 7.40469 20.6366 6.80423 20.6366Z" fill="#2F3236"/>
<path d="M36.8549 10.1057C36.3947 10.1109 36.2326 9.49721 36.6363 9.27607C39.2691 7.83349 44.9554 4.98602 50.0792 4.22178C55.3596 3.43419 63.7188 4.75222 67.4274 5.43031C67.9917 5.5335 68.0707 6.30985 67.5383 6.52368C64.8903 7.58717 59.8919 9.48093 56.9533 9.87538L36.8549 10.1057Z" fill="#2F3236"/>
<path d="M21.4653 26.4214C24.3414 26.4214 26.6729 24.0899 26.6729 21.2138C26.6729 18.3378 24.3414 16.0063 21.4653 16.0063C18.5893 16.0063 16.2578 18.3378 16.2578 21.2138C16.2578 24.0899 18.5893 26.4214 21.4653 26.4214Z" fill="#808080"/>
<path d="M21.4648 22.9052C22.399 22.9052 23.1562 22.148 23.1562 21.2139C23.1562 20.2797 22.399 19.5225 21.4648 19.5225C20.5307 19.5225 19.7734 20.2797 19.7734 21.2139C19.7734 22.148 20.5307 22.9052 21.4648 22.9052Z" fill="#2F3236"/>
<path d="M78.8716 26.4214C81.7476 26.4214 84.0791 24.0899 84.0791 21.2138C84.0791 18.3378 81.7476 16.0063 78.8716 16.0063C75.9956 16.0063 73.6641 18.3378 73.6641 21.2138C73.6641 24.0899 75.9956 26.4214 78.8716 26.4214Z" fill="#808080"/>
<path d="M78.8711 22.9052C79.8052 22.9052 80.5625 22.148 80.5625 21.2139C80.5625 20.2797 79.8052 19.5225 78.8711 19.5225C77.937 19.5225 77.1797 20.2797 77.1797 21.2139C77.1797 22.148 77.937 22.9052 78.8711 22.9052Z" fill="#2F3236"/>
</svg>
