<svg width="657" height="403" viewBox="0 0 657 403" fill="none" xmlns="http://www.w3.org/2000/svg">
<path d="M148.323 15.1744C108.379 25.1782 73.5366 48.0674 48.4403 79.1817L44.125 75.3918C69.8282 43.0618 105.503 19.0469 146.481 8.01501L148.323 15.1744Z" fill="#A84144"/>
<path d="M48.4375 79.1817C27.2442 105.471 13.0028 137.628 8.54556 172.84L3.22656 171.692C7.97602 135.572 22.532 102.551 44.1223 75.3918L48.4375 79.1817Z" fill="#D8D8D8"/>
<path d="M27.2871 290.393L22.9645 292.471C9.26266 265.672 1.53125 235.301 1.53125 203.114V197.583C1.53125 188.802 2.10811 180.164 3.22451 171.692L8.54351 172.84C7.56209 180.622 7.05254 188.555 7.05254 196.607V205.635C7.05254 236.149 14.3494 264.952 27.2871 290.393Z" fill="#A84144"/>
<path d="M96.9613 365.589L94.3466 370.04C64.0662 351.233 39.2772 324.381 22.9609 292.471L27.2835 290.393C43.0829 321.484 67.3178 347.556 96.9613 365.589Z" fill="#D8D8D8"/>
<path d="M209.001 392.636V399.39H197.464C159.632 399.39 124.303 388.651 94.3516 370.04L96.9663 365.589C125.179 382.752 158.299 392.636 193.726 392.636H209.001Z" fill="#A84144"/>
<path d="M285.031 392.636H209V399.39H285.031V392.636Z" fill="#D8D8D8"/>
<path d="M373.79 392.636H285.031V399.39H373.79V392.636Z" fill="#A84144"/>
<path d="M565.158 367.856C534.488 387.803 497.9 399.39 458.607 399.39H373.789V392.636H460.495C497.825 392.636 532.6 381.657 561.772 362.753L565.158 367.856Z" fill="#D8D8D8"/>
<path d="M641.812 272.854C626.919 312.096 599.815 345.319 565.16 367.856L561.773 362.753C595.455 340.914 621.667 308.509 635.736 270.22L641.812 272.854Z" fill="#A84144"/>
<path d="M654.538 197.583V203.113C654.538 227.676 650.035 251.181 641.81 272.854L635.734 270.22C643.128 250.093 647.166 228.337 647.166 205.635V196.607C647.166 187.046 646.447 177.658 645.069 168.487L652.268 167.594C653.759 177.373 654.538 187.384 654.538 197.583Z" fill="#D8D8D8"/>
<path d="M652.268 167.594L645.069 168.487C638.873 127.324 619.283 90.5662 590.891 62.7915L596.075 57.7258C625.441 86.6938 645.728 124.877 652.268 167.594Z" fill="#A84144"/>
<path d="M596.073 57.7259L590.889 62.7915C566.631 39.0693 535.946 21.9062 501.695 14.1764L503.269 6.42407C538.936 14.7467 570.857 32.8405 596.073 57.7259Z" fill="#D8D8D8"/>
<path d="M503.275 6.42403L501.702 14.1764C488.45 11.182 474.658 9.606 460.499 9.606H405.422V1.29834H458.611C473.976 1.29834 488.929 3.06943 503.275 6.42403Z" fill="#A84144"/>
<path d="M405.414 1.29834H325.375V9.606H405.414V1.29834Z" fill="#D8D8D8"/>
<path d="M325.383 1.29834H236.781V9.606H325.383V1.29834Z" fill="#A84144"/>
<path d="M236.779 1.29834V9.606H193.725C178.068 9.606 162.853 11.5347 148.319 15.1744L146.477 8.01502C162.733 3.63228 179.829 1.29834 197.463 1.29834H236.779Z" fill="#D8D8D8"/>
<path d="M645.064 168.487C638.868 127.324 619.278 90.5663 590.886 62.7916C566.628 39.0694 535.943 21.9062 501.692 14.1764C488.44 11.182 474.648 9.60608 460.489 9.60608H193.719C178.062 9.60608 162.847 11.5348 148.313 15.1745C108.369 25.1782 73.5262 48.0674 48.4298 79.1818C27.2365 105.471 12.995 137.628 8.53785 172.84C7.55643 180.622 7.04688 188.555 7.04688 196.607V205.635C7.04688 236.149 14.3437 264.952 27.2815 290.393C43.0808 321.485 67.3157 347.556 96.9593 365.589C125.172 382.753 158.292 392.636 193.719 392.636H460.489C497.819 392.636 532.594 381.657 561.766 362.753C595.448 340.914 621.66 308.509 635.729 270.22C643.123 250.093 647.161 228.337 647.161 205.635V196.607C647.161 187.046 646.442 177.658 645.064 168.487ZM547.083 202.979C547.083 213.853 545.158 224.284 541.622 233.928C534.969 252.081 522.646 267.489 506.794 277.988C492.628 287.383 475.637 292.847 457.373 292.847H196.671C179.402 292.847 163.274 287.961 149.594 279.481C135.39 270.701 123.816 258.048 116.347 243.001C110.339 230.948 106.968 217.357 106.968 202.979V198.371C106.968 194.378 107.23 190.446 107.732 186.596C109.942 169.695 116.834 154.273 127.06 141.681C138.919 127.084 155.258 116.292 173.971 111.407C181.223 109.508 188.827 108.502 196.671 108.502H457.373C464.535 108.502 471.494 109.343 478.169 110.934C494.725 114.866 509.506 123.399 521.095 135.114C534.325 148.48 543.39 166.003 546.169 185.545C546.776 189.733 547.083 194.018 547.083 198.371V202.979Z" fill="#363636"/>
<path d="M540.918 200.022C540.918 211.076 538.806 221.643 534.963 231.324H534.955C530.663 242.153 524.205 251.879 516.122 259.976C511.874 264.239 507.17 268.044 502.098 271.323C488.89 279.864 473.158 284.817 456.273 284.817H197.63C181.861 284.817 167.095 280.494 154.45 272.959C141.07 265.005 130.065 253.44 122.768 239.616C116.52 227.796 112.984 214.326 112.984 200.022C112.984 195.797 113.292 191.654 113.891 187.594C116.183 171.947 122.746 157.688 132.35 146.041C134.065 143.962 135.871 141.973 137.774 140.067C148.284 129.538 161.544 121.763 176.377 117.921C183.172 116.165 190.289 115.227 197.63 115.227H456.273C463.292 115.227 470.109 116.082 476.634 117.703C491.655 121.41 505.087 129.148 515.74 139.692C528.243 152.052 536.918 168.277 539.832 186.438C540.551 190.859 540.918 195.399 540.918 200.022Z" fill="#34843F"/>
<path d="M236.291 108.502V115.227H197.627C190.286 115.227 183.169 116.165 176.374 117.921L173.977 111.407C181.228 109.508 188.832 108.502 196.676 108.502H236.291Z" fill="#D8D8D8"/>
<path d="M325.16 108.502H236.289V115.227H325.16V108.502Z" fill="#A84144"/>
<path d="M400.978 108.502H325.164V115.227H400.978V108.502Z" fill="#D8D8D8"/>
<path d="M478.176 110.934L476.633 117.703C470.107 116.082 463.291 115.227 456.271 115.227H400.977V108.502H457.38C464.542 108.502 471.501 109.343 478.176 110.934Z" fill="#A84144"/>
<path d="M521.102 135.114L515.738 139.692C505.086 129.148 491.653 121.41 476.633 117.703L478.176 110.934C494.732 114.866 509.513 123.399 521.102 135.114Z" fill="#D8D8D8"/>
<path d="M546.172 185.545L539.827 186.438C536.913 168.277 528.238 152.052 515.734 139.692L521.098 135.114C534.328 148.48 543.393 166.003 546.172 185.545Z" fill="#A84144"/>
<path d="M547.09 198.371V202.978C547.09 213.853 545.164 224.284 541.628 233.928L534.961 231.324C538.804 221.643 540.916 211.076 540.916 200.022C540.916 195.399 540.55 190.858 539.83 186.438L546.175 185.545C546.782 189.733 547.09 194.018 547.09 198.371Z" fill="#D8D8D8"/>
<path d="M541.626 233.928C534.974 252.081 522.65 267.488 506.799 277.987L502.094 271.323C507.165 268.044 511.87 264.239 516.118 259.976C524.201 251.879 530.659 242.153 534.951 231.324H534.959L541.626 233.928Z" fill="#A84144"/>
<path d="M506.8 277.988C492.634 287.383 475.643 292.847 457.379 292.847H373.984V284.817H456.27C473.156 284.817 488.888 279.864 502.095 271.323L506.8 277.988Z" fill="#D8D8D8"/>
<path d="M373.98 284.817H285.086V292.847H373.98V284.817Z" fill="#A84144"/>
<path d="M285.09 284.817H209.164V292.847H285.09V284.817Z" fill="#D8D8D8"/>
<path d="M209.166 284.817V292.847H196.678C179.41 292.847 163.281 287.961 149.602 279.481L154.449 272.959C167.094 280.494 181.86 284.817 197.629 284.817H209.166Z" fill="#A84144"/>
<path d="M154.446 272.959L149.599 279.481C135.395 270.7 123.821 258.048 116.352 243.001L122.764 239.616C130.061 253.44 141.066 265.004 154.446 272.959Z" fill="#D8D8D8"/>
<path d="M122.769 239.616L116.356 243.001C110.348 230.948 106.977 217.357 106.977 202.978V198.371C106.977 194.378 107.239 190.446 107.741 186.596L113.891 187.594C113.292 191.654 112.985 195.796 112.985 200.022C112.985 214.325 116.521 227.796 122.769 239.616Z" fill="#A84144"/>
<path d="M132.352 146.041C122.748 157.688 116.185 171.947 113.893 187.594L107.742 186.596C109.952 169.695 116.845 154.273 127.07 141.68L132.352 146.041Z" fill="#D8D8D8"/>
<path d="M176.371 117.921C161.538 121.763 148.278 129.538 137.768 140.067C135.865 141.973 134.059 143.962 132.344 146.041L127.062 141.68C138.921 127.084 155.26 116.292 173.974 111.407L176.371 117.921Z" fill="#A84144"/>
<path d="M198.708 58.3466H456.226C534.58 58.3466 598.098 121.977 598.098 200.469V200.47C598.098 278.962 534.58 342.592 456.226 342.592H198.708C120.354 342.592 56.8359 278.962 56.8359 200.47V200.469C56.8359 121.977 120.354 58.3466 198.708 58.3466Z" stroke="white" stroke-width="3" stroke-linecap="round" stroke-linejoin="round"/>
<path d="M420.125 368.64L420.125 361.34L412.851 361.34L412.851 368.64L420.125 368.64Z" fill="#D0D5D9"/>
<path d="M435.406 301.482L428.132 301.482L428.132 294.183L430.168 294.183C433.063 294.183 435.406 297.453 435.406 301.482Z" fill="#32373B"/>
<path d="M435.406 308.782L435.406 301.482L428.132 301.482L428.132 308.782L435.406 308.782Z" fill="#D0D5D9"/>
<path d="M435.406 316.082L435.406 308.782L428.132 308.782L428.132 316.082L435.406 316.082Z" fill="#32373B"/>
<path d="M435.406 324.112L435.406 316.082L428.132 316.082L428.132 324.112L435.406 324.112Z" fill="#D0D5D9"/>
<path d="M435.406 331.411L435.406 324.112L428.132 324.112L428.132 331.411L435.406 331.411Z" fill="#32373B"/>
<path d="M435.406 338.711L435.406 331.411L428.132 331.411L428.132 338.711L435.406 338.711Z" fill="#D0D5D9"/>
<path d="M435.406 346.011L435.406 338.711L428.132 338.711L428.132 346.011L435.406 346.011Z" fill="#32373B"/>
<path d="M435.406 353.311L435.406 346.011L428.132 346.011L428.132 353.311L435.406 353.311Z" fill="#D0D5D9"/>
<path d="M435.406 361.34L435.406 353.31L428.132 353.31L428.132 361.34L435.406 361.34Z" fill="#32373B"/>
<path d="M435.406 368.64L435.406 361.34L428.132 361.34L428.132 368.64L435.406 368.64Z" fill="#D0D5D9"/>
<path d="M435.406 383.24L435.406 375.94L428.132 375.94L428.132 383.24L435.406 383.24Z" fill="#D0D5D9"/>
<path d="M430.168 390.539L428.132 390.539L428.132 383.24L435.406 383.24C435.406 387.269 433.063 390.539 430.168 390.539Z" fill="#32373B"/>
<path d="M428.125 308.782L428.125 301.482L420.123 301.482L420.123 308.782L428.125 308.782Z" fill="#32373B"/>
<path d="M428.125 324.112L428.125 316.082L420.123 316.082L420.123 324.112L428.125 324.112Z" fill="#32373B"/>
<path d="M428.125 338.711L428.125 331.411L420.123 331.411L420.123 338.711L428.125 338.711Z" fill="#32373B"/>
<path d="M428.125 353.311L428.125 346.011L420.123 346.011L420.123 353.311L428.125 353.311Z" fill="#32373B"/>
<path d="M428.125 368.64L428.125 361.34L420.123 361.34L420.123 368.64L428.125 368.64Z" fill="#32373B"/>
<path d="M428.125 375.94L428.125 368.64L420.123 368.64L420.123 375.94L428.125 375.94Z" fill="#D0D5D9"/>
<path d="M428.125 383.24L428.125 375.94L420.123 375.94L420.123 383.24L428.125 383.24Z" fill="#32373B"/>
<path d="M420.125 308.782L420.125 301.482L412.851 301.482L412.851 308.782L420.125 308.782Z" fill="#D0D5D9"/>
<path d="M420.125 324.112L420.125 316.082L412.851 316.082L412.851 324.112L420.125 324.112Z" fill="#D0D5D9"/>
<path d="M420.125 338.711L420.125 331.411L412.851 331.411L412.851 338.711L420.125 338.711Z" fill="#D0D5D9"/>
<path d="M420.125 353.311L420.125 346.011L412.851 346.011L412.851 353.311L420.125 353.311Z" fill="#D0D5D9"/>
<path d="M420.125 301.482L420.125 294.183L412.851 294.183L412.851 301.482L420.125 301.482Z" fill="#32373B"/>
<path d="M412.852 301.482L412.852 294.183L405.577 294.183L405.577 301.482L412.852 301.482Z" fill="#D0D5D9"/>
<path d="M405.578 301.482L405.578 294.183L398.304 294.183L398.304 301.482L405.578 301.482Z" fill="#32373B"/>
<path d="M405.578 308.782L405.578 301.482L398.304 301.482L398.304 308.782L405.578 308.782Z" fill="#D0D5D9"/>
<path d="M420.125 316.082L420.125 308.782L412.851 308.782L412.851 316.082L420.125 316.082Z" fill="#32373B"/>
<path d="M412.852 316.082L412.852 308.782L405.577 308.782L405.577 316.082L412.852 316.082Z" fill="#D0D5D9"/>
<path d="M405.578 316.082L405.578 308.782L398.304 308.782L398.304 316.082L405.578 316.082Z" fill="#32373B"/>
<path d="M405.578 324.112L405.578 316.082L398.304 316.082L398.304 324.112L405.578 324.112Z" fill="#D0D5D9"/>
<path d="M420.125 331.411L420.125 324.112L412.851 324.112L412.851 331.411L420.125 331.411Z" fill="#32373B"/>
<path d="M412.852 331.411L412.852 324.112L405.577 324.112L405.577 331.411L412.852 331.411Z" fill="#D0D5D9"/>
<path d="M405.578 331.411L405.578 324.112L398.304 324.112L398.304 331.411L405.578 331.411Z" fill="#32373B"/>
<path d="M405.578 338.711L405.578 331.411L398.304 331.411L398.304 338.711L405.578 338.711Z" fill="#D0D5D9"/>
<path d="M420.125 346.011L420.125 338.711L412.851 338.711L412.851 346.011L420.125 346.011Z" fill="#32373B"/>
<path d="M412.852 346.011L412.852 338.711L405.577 338.711L405.577 346.011L412.852 346.011Z" fill="#D0D5D9"/>
<path d="M405.578 346.011L405.578 338.711L398.304 338.711L398.304 346.011L405.578 346.011Z" fill="#32373B"/>
<path d="M405.578 353.311L405.578 346.011L398.304 346.011L398.304 353.311L405.578 353.311Z" fill="#D0D5D9"/>
<path d="M420.125 361.34L420.125 353.31L412.851 353.31L412.851 361.34L420.125 361.34Z" fill="#32373B"/>
<path d="M412.852 361.34L412.852 353.31L405.577 353.31L405.577 361.34L412.852 361.34Z" fill="#D0D5D9"/>
<path d="M405.578 361.34L405.578 353.31L398.304 353.31L398.304 361.34L405.578 361.34Z" fill="#32373B"/>
<path d="M405.578 368.64L405.578 361.34L398.304 361.34L398.304 368.64L405.578 368.64Z" fill="#D0D5D9"/>
<path d="M420.125 375.94L420.125 368.64L412.851 368.64L412.851 375.94L420.125 375.94Z" fill="#32373B"/>
<path d="M412.852 375.94L412.852 368.64L405.577 368.64L405.577 375.94L412.852 375.94Z" fill="#D0D5D9"/>
<path d="M405.578 375.94L405.578 368.64L398.304 368.64L398.304 375.94L405.578 375.94Z" fill="#32373B"/>
<path d="M405.578 383.24L405.578 375.94L398.304 375.94L398.304 383.24L405.578 383.24Z" fill="#D0D5D9"/>
<path d="M412.852 390.539L412.852 383.24L405.577 383.24L405.577 390.539L412.852 390.539Z" fill="#D0D5D9"/>
<path d="M405.578 390.539L405.578 383.24L398.304 383.24L398.304 390.539L405.578 390.539Z" fill="#32373B"/>
<path d="M428.125 301.482L428.125 294.183L420.123 294.183L420.123 301.482L428.125 301.482Z" fill="#D0D5D9"/>
<path d="M412.852 308.782L412.852 301.482L405.577 301.482L405.577 308.782L412.852 308.782Z" fill="#32373B"/>
<path d="M428.125 316.082L428.125 308.782L420.123 308.782L420.123 316.082L428.125 316.082Z" fill="#D0D5D9"/>
<path d="M412.852 324.112L412.852 316.082L405.577 316.082L405.577 324.112L412.852 324.112Z" fill="#32373B"/>
<path d="M428.125 331.411L428.125 324.112L420.123 324.112L420.123 331.411L428.125 331.411Z" fill="#D0D5D9"/>
<path d="M412.852 338.711L412.852 331.411L405.577 331.411L405.577 338.711L412.852 338.711Z" fill="#32373B"/>
<path d="M428.125 346.011L428.125 338.711L420.123 338.711L420.123 346.011L428.125 346.011Z" fill="#D0D5D9"/>
<path d="M412.852 353.311L412.852 346.011L405.577 346.011L405.577 353.311L412.852 353.311Z" fill="#32373B"/>
<path d="M428.125 361.34L428.125 353.31L420.123 353.31L420.123 361.34L428.125 361.34Z" fill="#D0D5D9"/>
<path d="M412.852 368.64L412.852 361.34L405.577 361.34L405.577 368.64L412.852 368.64Z" fill="#32373B"/>
<path d="M412.852 383.24L412.852 375.94L405.577 375.94L405.577 383.24L412.852 383.24Z" fill="#32373B"/>
<path d="M398.305 301.482L398.305 294.183L390.303 294.183L390.303 301.482L398.305 301.482Z" fill="#D0D5D9"/>
<path d="M398.305 316.082L398.305 308.782L390.303 308.782L390.303 316.082L398.305 316.082Z" fill="#D0D5D9"/>
<path d="M398.305 331.411L398.305 324.112L390.303 324.112L390.303 331.411L398.305 331.411Z" fill="#D0D5D9"/>
<path d="M398.305 346.011L398.305 338.711L390.303 338.711L390.303 346.011L398.305 346.011Z" fill="#D0D5D9"/>
<path d="M398.305 361.34L398.305 353.31L390.303 353.31L390.303 361.34L398.305 361.34Z" fill="#D0D5D9"/>
<path d="M398.305 375.94L398.305 368.64L390.303 368.64L390.303 375.94L398.305 375.94Z" fill="#D0D5D9"/>
<path d="M398.305 390.539L398.305 383.24L390.303 383.24L390.303 390.539L398.305 390.539Z" fill="#D0D5D9"/>
<path d="M398.305 308.782L398.305 301.482L390.303 301.482L390.303 308.782L398.305 308.782Z" fill="#32373B"/>
<path d="M398.305 324.112L398.305 316.082L390.303 316.082L390.303 324.112L398.305 324.112Z" fill="#32373B"/>
<path d="M398.305 338.711L398.305 331.411L390.303 331.411L390.303 338.711L398.305 338.711Z" fill="#32373B"/>
<path d="M398.305 353.311L398.305 346.011L390.303 346.011L390.303 353.311L398.305 353.311Z" fill="#32373B"/>
<path d="M398.305 368.64L398.305 361.34L390.303 361.34L390.303 368.64L398.305 368.64Z" fill="#32373B"/>
<path d="M398.305 383.24L398.305 375.94L390.303 375.94L390.303 383.24L398.305 383.24Z" fill="#32373B"/>
<path d="M420.125 383.24L420.125 375.94L412.851 375.94L412.851 383.24L420.125 383.24Z" fill="#D0D5D9"/>
<path d="M428.125 390.539L428.125 383.24L420.123 383.24L420.123 390.539L428.125 390.539Z" fill="#D0D5D9"/>
<path d="M420.125 390.539L420.125 383.24L412.851 383.24L412.851 390.539L420.125 390.539Z" fill="#32373B"/>
<path d="M435.406 375.94L435.406 368.64L428.132 368.64L428.132 375.94L435.406 375.94Z" fill="#32373B"/>
</svg>
