<svg width="298" height="183" viewBox="0 0 298 183" fill="none" xmlns="http://www.w3.org/2000/svg">
<path d="M67.2698 6.89021C49.152 11.4328 33.3482 21.8267 21.9651 35.9555L20.0078 34.2346C31.6662 19.5537 47.8473 8.64866 66.4339 3.63916L67.2698 6.89021Z" fill="#A84144"/>
<path d="M21.9676 35.9558C12.3548 47.8934 5.89519 62.4959 3.87351 78.4854L1.46094 77.964C3.61518 61.5622 10.2175 46.5678 20.0103 34.2349L21.9676 35.9558Z" fill="#D8D8D8"/>
<path d="M12.3776 131.865L10.417 132.809C4.2021 120.64 0.695312 106.849 0.695312 92.2324V89.7208C0.695312 85.7337 0.956961 81.8113 1.46333 77.9639L3.87591 78.4853C3.43076 82.0192 3.19964 85.6213 3.19964 89.2778V93.3775C3.19964 107.234 6.50932 120.313 12.3776 131.865Z" fill="#A84144"/>
<path d="M43.9789 166.012L42.793 168.033C29.0585 159.493 17.8147 147.3 10.4141 132.81L12.3747 131.866C19.5409 145.984 30.5333 157.823 43.9789 166.012Z" fill="#D8D8D8"/>
<path d="M94.7991 178.294V181.361H89.5663C72.4066 181.361 56.382 176.484 42.7969 168.033L43.9828 166.012C56.7796 173.805 71.8019 178.294 87.8708 178.294H94.7991Z" fill="#A84144"/>
<path d="M129.283 178.294H94.7969V181.361H129.283V178.294Z" fill="#D8D8D8"/>
<path d="M169.54 178.294H129.281V181.361H169.54V178.294Z" fill="#A84144"/>
<path d="M256.348 167.041C242.436 176.099 225.841 181.361 208.019 181.361H169.547V178.294H208.875C225.807 178.294 241.58 173.308 254.812 164.724L256.348 167.041Z" fill="#D8D8D8"/>
<path d="M291.116 123.901C284.361 141.721 272.067 156.807 256.348 167.041L254.812 164.724C270.09 154.807 281.979 140.092 288.36 122.705L291.116 123.901Z" fill="#A84144"/>
<path d="M296.888 89.7207V92.2322C296.888 103.386 294.846 114.059 291.115 123.901L288.359 122.705C291.713 113.565 293.545 103.686 293.545 93.3773V89.2777C293.545 84.9361 293.218 80.6729 292.593 76.5086L295.859 76.103C296.535 80.5434 296.888 85.0895 296.888 89.7207Z" fill="#D8D8D8"/>
<path d="M295.855 76.1034L292.59 76.5089C289.779 57.817 280.894 41.1255 268.016 28.5132L270.367 26.2129C283.687 39.3671 292.889 56.7061 295.855 76.1034Z" fill="#A84144"/>
<path d="M270.362 26.2129L268.011 28.5131C257.008 17.741 243.09 9.94733 227.555 6.43728L228.268 2.91699C244.446 6.69625 258.925 14.9125 270.362 26.2129Z" fill="#D8D8D8"/>
<path d="M228.274 2.9169L227.561 6.43719C221.55 5.07745 215.294 4.36182 208.872 4.36182H183.891V0.589355H208.016C214.985 0.589355 221.767 1.3936 228.274 2.9169Z" fill="#A84144"/>
<path d="M183.89 0.589355H147.586V4.36182H183.89V0.589355Z" fill="#D8D8D8"/>
<path d="M147.586 0.589355H107.398V4.36182H147.586V0.589355Z" fill="#A84144"/>
<path d="M107.396 0.589355V4.36182H87.8685C80.7666 4.36182 73.8655 5.23763 67.2734 6.89041L66.4375 3.63936C73.8111 1.64918 81.5652 0.589355 89.564 0.589355H107.396Z" fill="#D8D8D8"/>
<path d="M292.593 76.5088C289.783 57.8169 280.897 41.1254 268.019 28.513C257.016 17.7409 243.098 9.94724 227.563 6.43719C221.552 5.07745 215.296 4.36182 208.874 4.36182H87.8732C80.7714 4.36182 73.8703 5.23763 67.2782 6.89041C49.1604 11.433 33.3566 21.8269 21.9735 35.9557C12.3607 47.8933 5.90108 62.4959 3.8794 78.4853C3.43425 82.0193 3.20312 85.6213 3.20312 89.2779V93.3775C3.20312 107.234 6.51281 120.313 12.3811 131.865C19.5473 145.984 30.5397 157.823 43.9853 166.012C56.782 173.806 71.8043 178.294 87.8732 178.294H208.874C225.806 178.294 241.579 173.308 254.811 164.724C270.088 154.807 281.978 140.092 288.359 122.705C291.713 113.565 293.544 103.686 293.544 93.3775V89.2779C293.544 84.9364 293.218 80.6732 292.593 76.5088ZM248.151 92.1712C248.151 97.1091 247.278 101.846 245.674 106.225C242.657 114.469 237.067 121.465 229.877 126.232C223.451 130.499 215.745 132.98 207.461 132.98H89.212C81.3796 132.98 74.0639 130.761 67.8592 126.91C61.4167 122.923 56.167 117.178 52.7791 110.345C50.054 104.872 48.5249 98.7005 48.5249 92.1712V90.0787C48.5249 88.2658 48.6439 86.4801 48.8715 84.7319C49.874 77.0575 53.0001 70.0544 57.6383 64.3361C63.0171 57.7078 70.4282 52.8074 78.9161 50.5889C82.2054 49.7267 85.6543 49.2701 89.212 49.2701H207.461C210.709 49.2701 213.866 49.6518 216.893 50.3742C224.403 52.1599 231.107 56.0346 236.364 61.3542C242.364 67.4236 246.476 75.3808 247.736 84.2548C248.012 86.1564 248.151 88.1022 248.151 90.0787V92.1712Z" fill="#363636"/>
<path d="M245.343 90.8287C245.343 95.8484 244.385 100.647 242.642 105.043H242.638C240.691 109.96 237.762 114.377 234.096 118.054C232.169 119.989 230.035 121.717 227.735 123.206C221.745 127.085 214.609 129.334 206.95 129.334H89.6357C82.4831 129.334 75.7856 127.371 70.0499 123.949C63.9812 120.337 58.9896 115.086 55.6799 108.808C52.8461 103.441 51.2422 97.324 51.2422 90.8287C51.2422 88.9101 51.3816 87.029 51.6533 85.1853C52.6931 78.0801 55.6698 71.6052 60.0259 66.3162C60.8041 65.3723 61.623 64.4692 62.4861 63.6036C67.2534 58.8224 73.2678 55.292 79.9957 53.5471C83.0777 52.7497 86.3058 52.3237 89.6357 52.3237H206.95C210.134 52.3237 213.226 52.7122 216.185 53.4483C222.998 55.1318 229.091 58.6452 233.923 63.4332C239.594 69.0459 243.529 76.4136 244.851 84.6606C245.177 86.6678 245.343 88.7295 245.343 90.8287Z" fill="#34843F"/>
<path d="M107.178 49.27V52.3234H89.6415C86.3116 52.3234 83.0835 52.7494 80.0015 53.5469L78.9141 50.5889C82.2033 49.7267 85.6522 49.27 89.2099 49.27H107.178Z" fill="#D8D8D8"/>
<path d="M147.489 49.27H107.18V52.3234H147.489V49.27Z" fill="#A84144"/>
<path d="M181.872 49.27H147.484V52.3234H181.872V49.27Z" fill="#D8D8D8"/>
<path d="M216.891 50.3742L216.191 53.448C213.231 52.7119 210.139 52.3234 206.955 52.3234H181.875V49.27H207.458C210.707 49.27 213.863 49.6517 216.891 50.3742Z" fill="#A84144"/>
<path d="M236.358 61.354L233.925 63.4328C229.093 58.6448 223 55.1313 216.188 53.4479L216.887 50.374C224.397 52.1597 231.101 56.0344 236.358 61.354Z" fill="#D8D8D8"/>
<path d="M247.736 84.2546L244.858 84.6601C243.536 76.4132 239.601 69.0455 233.93 63.4328L236.363 61.354C242.363 67.4233 246.475 75.3806 247.736 84.2546Z" fill="#A84144"/>
<path d="M248.142 90.0788V92.1712C248.142 97.1092 247.269 101.846 245.665 106.225L242.641 105.043C244.384 100.646 245.342 95.8483 245.342 90.8286C245.342 88.7294 245.175 86.6676 244.849 84.6604L247.727 84.2549C248.003 86.1565 248.142 88.1023 248.142 90.0788Z" fill="#D8D8D8"/>
<path d="M245.673 106.225C242.656 114.469 237.066 121.465 229.876 126.232L227.742 123.206C230.043 121.717 232.176 119.989 234.103 118.054C237.769 114.377 240.699 109.96 242.646 105.042H242.649L245.673 106.225Z" fill="#A84144"/>
<path d="M229.875 126.232C223.449 130.499 215.743 132.98 207.459 132.98H169.633V129.333H206.956C214.615 129.333 221.75 127.084 227.741 123.206L229.875 126.232Z" fill="#D8D8D8"/>
<path d="M169.633 129.333H129.312V132.98H169.633V129.333Z" fill="#A84144"/>
<path d="M129.313 129.333H94.875V132.98H129.313V129.333Z" fill="#D8D8D8"/>
<path d="M94.8687 129.334V132.98H89.2044C81.372 132.98 74.0563 130.761 67.8516 126.911L70.0501 123.949C75.7858 127.371 82.4833 129.334 89.6359 129.334H94.8687Z" fill="#A84144"/>
<path d="M70.052 123.949L67.8535 126.91C61.411 122.923 56.1613 117.178 52.7734 110.345L55.6821 108.808C58.9918 115.085 63.9833 120.337 70.052 123.949Z" fill="#D8D8D8"/>
<path d="M55.6785 108.808L52.7699 110.345C50.0447 104.872 48.5156 98.7006 48.5156 92.1712V90.0788C48.5156 88.2658 48.6346 86.4801 48.8622 84.7319L51.6519 85.1852C51.3802 87.0288 51.2408 88.9099 51.2408 90.8285C51.2408 97.3238 52.8447 103.441 55.6785 108.808Z" fill="#A84144"/>
<path d="M60.0295 66.3159C55.6734 71.6048 52.6967 78.0797 51.6569 85.185L48.8672 84.7318C49.8696 77.0573 52.9958 70.0543 57.634 64.3359L60.0295 66.3159Z" fill="#D8D8D8"/>
<path d="M80.0059 53.5469C73.278 55.2917 67.2636 58.8222 62.4963 63.6033C61.6332 64.4689 60.8143 65.372 60.0361 66.3159L57.6406 64.336C63.0194 57.7078 70.4305 52.8073 78.9184 50.5889L80.0059 53.5469Z" fill="#A84144"/>
<path d="M206.935 26.4946H90.1314C54.5918 26.4946 25.7812 55.3889 25.7812 91.0317V91.0319C25.7812 126.675 54.5918 155.569 90.1314 155.569H206.935C242.475 155.569 271.285 126.675 271.285 91.0319V91.0317C271.285 55.3889 242.475 26.4946 206.935 26.4946Z" stroke="white" stroke-width="3" stroke-linecap="round" stroke-linejoin="round"/>
<path d="M190.562 167.397L190.562 164.083L187.263 164.083L187.263 167.397L190.562 167.397Z" fill="#D0D5D9"/>
<path d="M197.492 136.901L194.193 136.901L194.193 133.586L195.116 133.586C196.429 133.586 197.492 135.072 197.492 136.901Z" fill="#32373B"/>
<path d="M197.492 140.216L197.492 136.901L194.193 136.901L194.193 140.216L197.492 140.216Z" fill="#D0D5D9"/>
<path d="M197.492 143.531L197.492 140.216L194.193 140.216L194.193 143.531L197.492 143.531Z" fill="#32373B"/>
<path d="M197.492 147.177L197.492 143.531L194.193 143.531L194.193 147.177L197.492 147.177Z" fill="#D0D5D9"/>
<path d="M197.492 150.492L197.492 147.177L194.193 147.177L194.193 150.492L197.492 150.492Z" fill="#32373B"/>
<path d="M197.492 153.806L197.492 150.492L194.193 150.492L194.193 153.806L197.492 153.806Z" fill="#D0D5D9"/>
<path d="M197.492 157.121L197.492 153.807L194.193 153.807L194.193 157.121L197.492 157.121Z" fill="#32373B"/>
<path d="M197.492 160.436L197.492 157.121L194.193 157.121L194.193 160.436L197.492 160.436Z" fill="#D0D5D9"/>
<path d="M197.492 164.082L197.492 160.436L194.193 160.436L194.193 164.082L197.492 164.082Z" fill="#32373B"/>
<path d="M197.492 167.397L197.492 164.083L194.193 164.083L194.193 167.397L197.492 167.397Z" fill="#D0D5D9"/>
<path d="M197.492 174.027L197.492 170.712L194.193 170.712L194.193 174.027L197.492 174.027Z" fill="#D0D5D9"/>
<path d="M195.116 177.342L194.193 177.342L194.193 174.027L197.492 174.027C197.492 175.856 196.429 177.342 195.116 177.342Z" fill="#32373B"/>
<path d="M194.195 140.216L194.195 136.901L190.566 136.901L190.566 140.216L194.195 140.216Z" fill="#32373B"/>
<path d="M194.195 147.177L194.195 143.531L190.566 143.531L190.566 147.177L194.195 147.177Z" fill="#32373B"/>
<path d="M194.195 153.806L194.195 150.492L190.566 150.492L190.566 153.806L194.195 153.806Z" fill="#32373B"/>
<path d="M194.195 160.436L194.195 157.122L190.566 157.122L190.566 160.436L194.195 160.436Z" fill="#32373B"/>
<path d="M194.195 167.397L194.195 164.083L190.566 164.083L190.566 167.397L194.195 167.397Z" fill="#32373B"/>
<path d="M194.195 170.712L194.195 167.397L190.566 167.397L190.566 170.712L194.195 170.712Z" fill="#D0D5D9"/>
<path d="M194.195 174.027L194.195 170.712L190.566 170.712L190.566 174.027L194.195 174.027Z" fill="#32373B"/>
<path d="M190.562 140.216L190.562 136.901L187.263 136.901L187.263 140.216L190.562 140.216Z" fill="#D0D5D9"/>
<path d="M190.562 147.177L190.562 143.531L187.263 143.531L187.263 147.177L190.562 147.177Z" fill="#D0D5D9"/>
<path d="M190.562 153.806L190.562 150.492L187.263 150.492L187.263 153.806L190.562 153.806Z" fill="#D0D5D9"/>
<path d="M190.562 160.436L190.562 157.122L187.263 157.122L187.263 160.436L190.562 160.436Z" fill="#D0D5D9"/>
<path d="M190.562 136.901L190.562 133.586L187.263 133.586L187.263 136.901L190.562 136.901Z" fill="#32373B"/>
<path d="M187.258 136.901L187.258 133.586L183.958 133.586L183.958 136.901L187.258 136.901Z" fill="#D0D5D9"/>
<path d="M183.961 136.901L183.961 133.586L180.662 133.586L180.662 136.901L183.961 136.901Z" fill="#32373B"/>
<path d="M183.961 140.216L183.961 136.901L180.662 136.901L180.662 140.216L183.961 140.216Z" fill="#D0D5D9"/>
<path d="M190.562 143.531L190.562 140.216L187.263 140.216L187.263 143.531L190.562 143.531Z" fill="#32373B"/>
<path d="M187.258 143.531L187.258 140.216L183.958 140.216L183.958 143.531L187.258 143.531Z" fill="#D0D5D9"/>
<path d="M183.961 143.531L183.961 140.216L180.662 140.216L180.662 143.531L183.961 143.531Z" fill="#32373B"/>
<path d="M183.961 147.177L183.961 143.531L180.662 143.531L180.662 147.177L183.961 147.177Z" fill="#D0D5D9"/>
<path d="M190.562 150.492L190.562 147.177L187.263 147.177L187.263 150.492L190.562 150.492Z" fill="#32373B"/>
<path d="M187.258 150.492L187.258 147.177L183.958 147.177L183.958 150.492L187.258 150.492Z" fill="#D0D5D9"/>
<path d="M183.961 150.492L183.961 147.177L180.662 147.177L180.662 150.492L183.961 150.492Z" fill="#32373B"/>
<path d="M183.961 153.806L183.961 150.492L180.662 150.492L180.662 153.806L183.961 153.806Z" fill="#D0D5D9"/>
<path d="M190.562 157.121L190.562 153.807L187.263 153.807L187.263 157.121L190.562 157.121Z" fill="#32373B"/>
<path d="M187.258 157.121L187.258 153.807L183.958 153.807L183.958 157.121L187.258 157.121Z" fill="#D0D5D9"/>
<path d="M183.961 157.121L183.961 153.807L180.662 153.807L180.662 157.121L183.961 157.121Z" fill="#32373B"/>
<path d="M183.961 160.436L183.961 157.122L180.662 157.122L180.662 160.436L183.961 160.436Z" fill="#D0D5D9"/>
<path d="M190.562 164.082L190.562 160.436L187.263 160.436L187.263 164.082L190.562 164.082Z" fill="#32373B"/>
<path d="M187.258 164.082L187.258 160.436L183.958 160.436L183.958 164.082L187.258 164.082Z" fill="#D0D5D9"/>
<path d="M183.961 164.082L183.961 160.436L180.662 160.436L180.662 164.082L183.961 164.082Z" fill="#32373B"/>
<path d="M183.961 167.397L183.961 164.083L180.662 164.083L180.662 167.397L183.961 167.397Z" fill="#D0D5D9"/>
<path d="M190.562 170.712L190.562 167.397L187.263 167.397L187.263 170.712L190.562 170.712Z" fill="#32373B"/>
<path d="M187.258 170.712L187.258 167.397L183.958 167.397L183.958 170.712L187.258 170.712Z" fill="#D0D5D9"/>
<path d="M183.961 170.712L183.961 167.397L180.662 167.397L180.662 170.712L183.961 170.712Z" fill="#32373B"/>
<path d="M183.961 174.027L183.961 170.712L180.662 170.712L180.662 174.027L183.961 174.027Z" fill="#D0D5D9"/>
<path d="M187.258 177.342L187.258 174.027L183.958 174.027L183.958 177.342L187.258 177.342Z" fill="#D0D5D9"/>
<path d="M183.961 177.342L183.961 174.027L180.662 174.027L180.662 177.342L183.961 177.342Z" fill="#32373B"/>
<path d="M194.195 136.901L194.195 133.586L190.566 133.586L190.566 136.901L194.195 136.901Z" fill="#D0D5D9"/>
<path d="M187.258 140.216L187.258 136.901L183.958 136.901L183.958 140.216L187.258 140.216Z" fill="#32373B"/>
<path d="M194.195 143.531L194.195 140.216L190.566 140.216L190.566 143.531L194.195 143.531Z" fill="#D0D5D9"/>
<path d="M187.258 147.177L187.258 143.531L183.958 143.531L183.958 147.177L187.258 147.177Z" fill="#32373B"/>
<path d="M194.195 150.492L194.195 147.177L190.566 147.177L190.566 150.492L194.195 150.492Z" fill="#D0D5D9"/>
<path d="M187.258 153.806L187.258 150.492L183.958 150.492L183.958 153.806L187.258 153.806Z" fill="#32373B"/>
<path d="M194.195 157.121L194.195 153.807L190.566 153.807L190.566 157.121L194.195 157.121Z" fill="#D0D5D9"/>
<path d="M187.258 160.436L187.258 157.122L183.958 157.122L183.958 160.436L187.258 160.436Z" fill="#32373B"/>
<path d="M194.195 164.082L194.195 160.436L190.566 160.436L190.566 164.082L194.195 164.082Z" fill="#D0D5D9"/>
<path d="M187.258 167.397L187.258 164.083L183.958 164.083L183.958 167.397L187.258 167.397Z" fill="#32373B"/>
<path d="M187.258 174.027L187.258 170.712L183.958 170.712L183.958 174.027L187.258 174.027Z" fill="#32373B"/>
<path d="M180.656 136.901L180.656 133.586L177.027 133.586L177.027 136.901L180.656 136.901Z" fill="#D0D5D9"/>
<path d="M180.656 143.531L180.656 140.216L177.027 140.216L177.027 143.531L180.656 143.531Z" fill="#D0D5D9"/>
<path d="M180.656 150.492L180.656 147.177L177.027 147.177L177.027 150.492L180.656 150.492Z" fill="#D0D5D9"/>
<path d="M180.656 157.121L180.656 153.807L177.027 153.807L177.027 157.121L180.656 157.121Z" fill="#D0D5D9"/>
<path d="M180.656 164.082L180.656 160.436L177.027 160.436L177.027 164.082L180.656 164.082Z" fill="#D0D5D9"/>
<path d="M180.656 170.712L180.656 167.397L177.027 167.397L177.027 170.712L180.656 170.712Z" fill="#D0D5D9"/>
<path d="M180.656 177.342L180.656 174.027L177.027 174.027L177.027 177.342L180.656 177.342Z" fill="#D0D5D9"/>
<path d="M180.656 140.216L180.656 136.901L177.027 136.901L177.027 140.216L180.656 140.216Z" fill="#32373B"/>
<path d="M180.656 147.177L180.656 143.531L177.027 143.531L177.027 147.177L180.656 147.177Z" fill="#32373B"/>
<path d="M180.656 153.806L180.656 150.492L177.027 150.492L177.027 153.806L180.656 153.806Z" fill="#32373B"/>
<path d="M180.656 160.436L180.656 157.122L177.027 157.122L177.027 160.436L180.656 160.436Z" fill="#32373B"/>
<path d="M180.656 167.397L180.656 164.083L177.027 164.083L177.027 167.397L180.656 167.397Z" fill="#32373B"/>
<path d="M180.656 174.027L180.656 170.712L177.027 170.712L177.027 174.027L180.656 174.027Z" fill="#32373B"/>
<path d="M190.562 174.027L190.562 170.712L187.263 170.712L187.263 174.027L190.562 174.027Z" fill="#D0D5D9"/>
<path d="M194.195 177.342L194.195 174.027L190.566 174.027L190.566 177.342L194.195 177.342Z" fill="#D0D5D9"/>
<path d="M190.562 177.342L190.562 174.027L187.263 174.027L187.263 177.342L190.562 177.342Z" fill="#32373B"/>
<path d="M197.492 170.712L197.492 167.397L194.193 167.397L194.193 170.712L197.492 170.712Z" fill="#32373B"/>
</svg>
