<svg width="345" height="211" viewBox="0 0 345 211" fill="none" xmlns="http://www.w3.org/2000/svg">
<path d="M77.8879 7.94489C56.9126 13.1826 38.6163 25.1667 25.4379 41.4574L23.1719 39.4731C36.669 22.546 55.4021 9.97239 76.9202 4.19641L77.8879 7.94489Z" fill="#A84144"/>
<path d="M25.4362 41.4574C14.3073 55.2215 6.82893 72.0583 4.4884 90.4943L1.69531 89.8931C4.18932 70.9817 11.8329 53.6931 23.1702 39.4731L25.4362 41.4574Z" fill="#D8D8D8"/>
<path d="M14.3295 152.042L12.0596 153.13C4.86456 139.099 0.804688 123.197 0.804688 106.345V103.449C0.804688 98.8517 1.1076 94.3292 1.69384 89.8931L4.48692 90.4943C3.97156 94.5689 3.70399 98.7221 3.70399 102.938V107.665C3.70399 123.641 7.53567 138.722 14.3295 152.042Z" fill="#A84144"/>
<path d="M50.9211 191.413L49.5481 193.743C33.6475 183.896 20.6304 169.837 12.0625 153.13L14.3323 152.042C22.6288 168.321 35.3549 181.971 50.9211 191.413Z" fill="#D8D8D8"/>
<path d="M109.751 205.574V209.11H103.693C83.8266 209.11 65.2747 203.487 49.5469 193.743L50.9199 191.413C65.7349 200.399 83.1265 205.574 101.73 205.574H109.751Z" fill="#A84144"/>
<path d="M149.675 205.574H109.75V209.11H149.675V205.574Z" fill="#D8D8D8"/>
<path d="M196.28 205.574H149.672V209.11H196.28V205.574Z" fill="#A84144"/>
<path d="M296.772 192.599C280.667 203.043 261.454 209.11 240.821 209.11H196.281V205.574H241.812C261.414 205.574 279.675 199.825 294.994 189.927L296.772 192.599Z" fill="#D8D8D8"/>
<path d="M337.029 142.859C329.209 163.405 314.976 180.8 296.778 192.599L295 189.928C312.687 178.493 326.451 161.527 333.839 141.48L337.029 142.859Z" fill="#A84144"/>
<path d="M343.71 103.449V106.345C343.71 119.205 341.346 131.512 337.026 142.859L333.836 141.48C337.719 130.942 339.839 119.551 339.839 107.665V102.938C339.839 97.9324 339.461 93.0169 338.738 88.2154L342.518 87.7478C343.301 92.8676 343.71 98.1092 343.71 103.449Z" fill="#D8D8D8"/>
<path d="M342.519 87.7478L338.739 88.2154C335.485 66.6635 325.198 47.4181 310.289 32.876L313.011 30.2238C328.432 45.3906 339.085 65.3826 342.519 87.7478Z" fill="#A84144"/>
<path d="M313.004 30.2238L310.282 32.876C297.544 20.4557 281.431 11.4695 263.445 7.42243L264.271 3.36353C283.001 7.72103 299.763 17.1944 313.004 30.2238Z" fill="#D8D8D8"/>
<path d="M264.275 3.36348L263.448 7.42239C256.49 5.85461 249.247 5.02948 241.812 5.02948H212.891V0.67981H240.821C248.889 0.67981 256.741 1.6071 264.275 3.36348Z" fill="#A84144"/>
<path d="M212.889 0.67981H170.859V5.02948H212.889V0.67981Z" fill="#D8D8D8"/>
<path d="M170.862 0.67981H124.336V5.02948H170.862V0.67981Z" fill="#A84144"/>
<path d="M124.333 0.67981V5.02948H101.725C93.5031 5.02948 85.5136 6.03929 77.8818 7.94496L76.9141 4.19648C85.4506 1.9018 94.4276 0.67981 103.688 0.67981H124.333Z" fill="#D8D8D8"/>
<path d="M338.735 88.2154C335.481 66.6635 325.194 47.4181 310.285 32.876C297.547 20.4557 281.434 11.4696 263.448 7.42246C256.49 5.85467 249.247 5.02954 241.812 5.02954H101.727C93.5053 5.02954 85.5158 6.03936 77.884 7.94503C56.9087 13.1827 38.6123 25.1669 25.4339 41.4575C14.305 55.2216 6.82659 72.0584 4.48606 90.4944C3.9707 94.569 3.70312 98.7222 3.70312 102.938V107.665C3.70312 123.641 7.5348 138.722 14.3286 152.042C22.6251 168.321 35.3511 181.971 50.9174 191.413C65.7324 200.399 83.124 205.574 101.727 205.574H241.812C261.415 205.574 279.676 199.825 294.994 189.928C312.681 178.494 326.445 161.527 333.833 141.48C337.716 130.942 339.836 119.551 339.836 107.665V102.938C339.836 97.9324 339.459 93.0169 338.735 88.2154ZM287.284 106.274C287.284 111.968 286.273 117.429 284.416 122.478C280.923 131.983 274.451 140.05 266.127 145.547C258.688 150.466 249.766 153.327 240.176 153.327H103.277C94.2095 153.327 85.74 150.769 78.5566 146.329C71.098 141.732 65.0203 135.107 61.0982 127.229C57.9432 120.918 56.173 113.803 56.173 106.274V103.862C56.173 101.771 56.3107 99.7123 56.5742 97.6967C57.7348 88.848 61.354 80.7734 66.7237 74.1802C72.9509 66.5378 81.5308 60.8876 91.3574 58.3296C95.1655 57.3355 99.1583 56.809 103.277 56.809H240.176C243.936 56.809 247.591 57.2491 251.096 58.0821C259.79 60.141 267.551 64.6086 273.637 70.7421C280.584 77.7401 285.344 86.9148 286.804 97.1466C287.122 99.3391 287.284 101.583 287.284 103.862V106.274Z" fill="#363636"/>
<path d="M284.042 104.726C284.042 110.514 282.933 116.046 280.915 121.115H280.911C278.657 126.785 275.266 131.877 271.021 136.117C268.791 138.349 266.32 140.341 263.657 142.058C256.722 146.529 248.461 149.122 239.594 149.122H103.777C95.4963 149.122 87.7424 146.859 81.1021 142.914C74.0763 138.749 68.2975 132.694 64.4658 125.457C61.185 119.268 59.3281 112.215 59.3281 104.726C59.3281 102.514 59.4895 100.345 59.8041 98.2192C61.0079 90.0268 64.4541 82.5612 69.4972 76.463C70.3981 75.3746 71.3462 74.3334 72.3454 73.3354C77.8645 67.8226 84.8276 63.752 92.6165 61.7402C96.1847 60.8207 99.9219 60.3296 103.777 60.3296H239.594C243.28 60.3296 246.859 60.7775 250.286 61.6262C258.173 63.5673 265.227 67.6183 270.821 73.1389C277.386 79.6104 281.942 88.1054 283.472 97.6141C283.85 99.9285 284.042 102.306 284.042 104.726Z" fill="#34843F"/>
<path d="M124.081 56.809V60.3296H103.779C99.9236 60.3296 96.1864 60.8207 92.6183 61.7402L91.3594 58.3296C95.1674 57.3355 99.1603 56.809 103.279 56.809H124.081Z" fill="#D8D8D8"/>
<path d="M170.746 56.809H124.078V60.3296H170.746V56.809Z" fill="#A84144"/>
<path d="M210.561 56.809H170.75V60.3296H210.561V56.809Z" fill="#D8D8D8"/>
<path d="M251.101 58.0821L250.291 61.6262C246.864 60.7775 243.284 60.3296 239.598 60.3296H210.562V56.809H240.181C243.941 56.809 247.596 57.2491 251.101 58.0821Z" fill="#A84144"/>
<path d="M273.641 70.742L270.824 73.1389C265.23 67.6183 258.177 63.5672 250.289 61.6262L251.099 58.082C259.793 60.1409 267.555 64.6085 273.641 70.742Z" fill="#D8D8D8"/>
<path d="M286.804 97.1465L283.472 97.6141C281.941 88.1054 277.386 79.6104 270.82 73.1389L273.637 70.7421C280.584 77.74 285.344 86.9148 286.804 97.1465Z" fill="#A84144"/>
<path d="M287.283 103.862V106.274C287.283 111.968 286.272 117.429 284.415 122.478L280.914 121.115C282.932 116.046 284.041 110.514 284.041 104.726C284.041 102.306 283.849 99.9284 283.471 97.6141L286.803 97.1465C287.122 99.339 287.283 101.583 287.283 103.862Z" fill="#D8D8D8"/>
<path d="M284.415 122.478C280.922 131.983 274.451 140.05 266.127 145.547L263.656 142.058C266.319 140.341 268.79 138.348 271.02 136.117C275.265 131.877 278.656 126.785 280.91 121.115H280.914L284.415 122.478Z" fill="#A84144"/>
<path d="M266.126 145.547C258.687 150.466 249.765 153.327 240.175 153.327H196.383V149.122H239.592C248.459 149.122 256.72 146.529 263.656 142.058L266.126 145.547Z" fill="#D8D8D8"/>
<path d="M196.382 149.122H149.703V153.327H196.382V149.122Z" fill="#A84144"/>
<path d="M149.706 149.122H109.836V153.327H149.706V149.122Z" fill="#D8D8D8"/>
<path d="M109.833 149.122V153.327H103.275C94.2076 153.327 85.738 150.769 78.5547 146.329L81.1 142.914C87.7403 146.859 95.4941 149.122 103.775 149.122H109.833Z" fill="#A84144"/>
<path d="M81.1053 142.914L78.56 146.329C71.1014 141.732 65.0237 135.107 61.1016 127.229L64.469 125.457C68.3007 132.694 74.0795 138.749 81.1053 142.914Z" fill="#D8D8D8"/>
<path d="M64.4645 125.457L61.0971 127.229C57.9421 120.918 56.1719 113.802 56.1719 106.274V103.861C56.1719 101.771 56.3096 99.7122 56.5731 97.6965L59.8028 98.2191C59.4882 100.345 59.3268 102.514 59.3268 104.726C59.3268 112.215 61.1837 119.268 64.4645 125.457Z" fill="#A84144"/>
<path d="M69.5009 76.4629C64.4578 82.5611 61.0116 90.0267 59.8078 98.2191L56.5781 97.6965C57.7387 88.8479 61.3579 80.7733 66.7276 74.1801L69.5009 76.4629Z" fill="#D8D8D8"/>
<path d="M92.6192 61.7402C84.8302 63.7519 77.8672 67.8226 72.3481 73.3353C71.3489 74.3334 70.4007 75.3746 69.4999 76.463L66.7266 74.1801C72.9537 66.5377 81.5337 60.8875 91.3603 58.3296L92.6192 61.7402Z" fill="#A84144"/>
<path d="M104.351 30.5487H239.577C280.722 30.5487 314.076 63.8639 314.076 104.96V104.96C314.076 146.057 280.722 179.372 239.577 179.372H104.351C63.206 179.372 29.8516 146.057 29.8516 104.96V104.96C29.8516 63.8639 63.206 30.5487 104.351 30.5487Z" stroke="white" stroke-width="3" stroke-linecap="round" stroke-linejoin="round"/>
<path d="M220.617 193.01L220.617 189.188L216.797 189.188L216.797 193.01L220.617 193.01Z" fill="#D0D5D9"/>
<path d="M228.641 157.848L224.821 157.848L224.821 154.026L225.89 154.026C227.41 154.026 228.641 155.739 228.641 157.848Z" fill="#32373B"/>
<path d="M228.641 161.67L228.641 157.848L224.821 157.848L224.821 161.67L228.641 161.67Z" fill="#D0D5D9"/>
<path d="M228.641 165.492L228.641 161.67L224.821 161.67L224.821 165.492L228.641 165.492Z" fill="#32373B"/>
<path d="M228.641 169.696L228.641 165.492L224.821 165.492L224.821 169.696L228.641 169.696Z" fill="#D0D5D9"/>
<path d="M228.641 173.518L228.641 169.696L224.821 169.696L224.821 173.518L228.641 173.518Z" fill="#32373B"/>
<path d="M228.641 177.34L228.641 173.518L224.821 173.518L224.821 177.34L228.641 177.34Z" fill="#D0D5D9"/>
<path d="M228.641 181.162L228.641 177.34L224.821 177.34L224.821 181.162L228.641 181.162Z" fill="#32373B"/>
<path d="M228.641 184.984L228.641 181.162L224.821 181.162L224.821 184.984L228.641 184.984Z" fill="#D0D5D9"/>
<path d="M228.641 189.188L228.641 184.984L224.821 184.984L224.821 189.188L228.641 189.188Z" fill="#32373B"/>
<path d="M228.641 193.01L228.641 189.188L224.821 189.188L224.821 193.01L228.641 193.01Z" fill="#D0D5D9"/>
<path d="M228.641 200.654L228.641 196.832L224.821 196.832L224.821 200.654L228.641 200.654Z" fill="#D0D5D9"/>
<path d="M225.89 204.476L224.821 204.476L224.821 200.654L228.641 200.654C228.641 202.764 227.41 204.476 225.89 204.476Z" fill="#32373B"/>
<path d="M224.82 161.67L224.82 157.848L220.619 157.848L220.619 161.67L224.82 161.67Z" fill="#32373B"/>
<path d="M224.82 169.696L224.82 165.492L220.619 165.492L220.619 169.696L224.82 169.696Z" fill="#32373B"/>
<path d="M224.82 177.34L224.82 173.518L220.619 173.518L220.619 177.34L224.82 177.34Z" fill="#32373B"/>
<path d="M224.82 184.984L224.82 181.162L220.619 181.162L220.619 184.984L224.82 184.984Z" fill="#32373B"/>
<path d="M224.82 193.01L224.82 189.188L220.619 189.188L220.619 193.01L224.82 193.01Z" fill="#32373B"/>
<path d="M224.82 196.832L224.82 193.01L220.619 193.01L220.619 196.832L224.82 196.832Z" fill="#D0D5D9"/>
<path d="M224.82 200.654L224.82 196.832L220.619 196.832L220.619 200.654L224.82 200.654Z" fill="#32373B"/>
<path d="M220.617 161.67L220.617 157.848L216.797 157.848L216.797 161.67L220.617 161.67Z" fill="#D0D5D9"/>
<path d="M220.617 169.696L220.617 165.492L216.797 165.492L216.797 169.696L220.617 169.696Z" fill="#D0D5D9"/>
<path d="M220.617 177.34L220.617 173.518L216.797 173.518L216.797 177.34L220.617 177.34Z" fill="#D0D5D9"/>
<path d="M220.617 184.984L220.617 181.162L216.797 181.162L216.797 184.984L220.617 184.984Z" fill="#D0D5D9"/>
<path d="M220.617 157.848L220.617 154.026L216.797 154.026L216.797 157.848L220.617 157.848Z" fill="#32373B"/>
<path d="M216.797 157.848L216.797 154.026L212.977 154.026L212.977 157.848L216.797 157.848Z" fill="#D0D5D9"/>
<path d="M212.977 157.848L212.977 154.026L209.157 154.026L209.157 157.848L212.977 157.848Z" fill="#32373B"/>
<path d="M212.977 161.67L212.977 157.848L209.157 157.848L209.157 161.67L212.977 161.67Z" fill="#D0D5D9"/>
<path d="M220.617 165.492L220.617 161.67L216.797 161.67L216.797 165.492L220.617 165.492Z" fill="#32373B"/>
<path d="M216.797 165.492L216.797 161.67L212.977 161.67L212.977 165.492L216.797 165.492Z" fill="#D0D5D9"/>
<path d="M212.977 165.492L212.977 161.67L209.157 161.67L209.157 165.492L212.977 165.492Z" fill="#32373B"/>
<path d="M212.977 169.696L212.977 165.492L209.157 165.492L209.157 169.696L212.977 169.696Z" fill="#D0D5D9"/>
<path d="M220.617 173.518L220.617 169.696L216.797 169.696L216.797 173.518L220.617 173.518Z" fill="#32373B"/>
<path d="M216.797 173.518L216.797 169.696L212.977 169.696L212.977 173.518L216.797 173.518Z" fill="#D0D5D9"/>
<path d="M212.977 173.518L212.977 169.696L209.157 169.696L209.157 173.518L212.977 173.518Z" fill="#32373B"/>
<path d="M212.977 177.34L212.977 173.518L209.157 173.518L209.157 177.34L212.977 177.34Z" fill="#D0D5D9"/>
<path d="M220.617 181.162L220.617 177.34L216.797 177.34L216.797 181.162L220.617 181.162Z" fill="#32373B"/>
<path d="M216.797 181.162L216.797 177.34L212.977 177.34L212.977 181.162L216.797 181.162Z" fill="#D0D5D9"/>
<path d="M212.977 181.162L212.977 177.34L209.157 177.34L209.157 181.162L212.977 181.162Z" fill="#32373B"/>
<path d="M212.977 184.984L212.977 181.162L209.157 181.162L209.157 184.984L212.977 184.984Z" fill="#D0D5D9"/>
<path d="M220.617 189.188L220.617 184.984L216.797 184.984L216.797 189.188L220.617 189.188Z" fill="#32373B"/>
<path d="M216.797 189.188L216.797 184.984L212.977 184.984L212.977 189.188L216.797 189.188Z" fill="#D0D5D9"/>
<path d="M212.977 189.188L212.977 184.984L209.157 184.984L209.157 189.188L212.977 189.188Z" fill="#32373B"/>
<path d="M212.977 193.01L212.977 189.188L209.157 189.188L209.157 193.01L212.977 193.01Z" fill="#D0D5D9"/>
<path d="M220.617 196.832L220.617 193.01L216.797 193.01L216.797 196.832L220.617 196.832Z" fill="#32373B"/>
<path d="M216.797 196.832L216.797 193.01L212.977 193.01L212.977 196.832L216.797 196.832Z" fill="#D0D5D9"/>
<path d="M212.977 196.832L212.977 193.01L209.157 193.01L209.157 196.832L212.977 196.832Z" fill="#32373B"/>
<path d="M212.977 200.654L212.977 196.832L209.157 196.832L209.157 200.654L212.977 200.654Z" fill="#D0D5D9"/>
<path d="M216.797 204.476L216.797 200.654L212.977 200.654L212.977 204.476L216.797 204.476Z" fill="#D0D5D9"/>
<path d="M212.977 204.476L212.977 200.654L209.157 200.654L209.157 204.476L212.977 204.476Z" fill="#32373B"/>
<path d="M224.82 157.848L224.82 154.026L220.619 154.026L220.619 157.848L224.82 157.848Z" fill="#D0D5D9"/>
<path d="M216.797 161.67L216.797 157.848L212.977 157.848L212.977 161.67L216.797 161.67Z" fill="#32373B"/>
<path d="M224.82 165.492L224.82 161.67L220.619 161.67L220.619 165.492L224.82 165.492Z" fill="#D0D5D9"/>
<path d="M216.797 169.696L216.797 165.492L212.977 165.492L212.977 169.696L216.797 169.696Z" fill="#32373B"/>
<path d="M224.82 173.518L224.82 169.696L220.619 169.696L220.619 173.518L224.82 173.518Z" fill="#D0D5D9"/>
<path d="M216.797 177.34L216.797 173.518L212.977 173.518L212.977 177.34L216.797 177.34Z" fill="#32373B"/>
<path d="M224.82 181.162L224.82 177.34L220.619 177.34L220.619 181.162L224.82 181.162Z" fill="#D0D5D9"/>
<path d="M216.797 184.984L216.797 181.162L212.977 181.162L212.977 184.984L216.797 184.984Z" fill="#32373B"/>
<path d="M224.82 189.188L224.82 184.984L220.619 184.984L220.619 189.188L224.82 189.188Z" fill="#D0D5D9"/>
<path d="M216.797 193.01L216.797 189.188L212.977 189.188L212.977 193.01L216.797 193.01Z" fill="#32373B"/>
<path d="M216.797 200.654L216.797 196.832L212.977 196.832L212.977 200.654L216.797 200.654Z" fill="#32373B"/>
<path d="M209.156 157.848L209.156 154.026L204.954 154.026L204.954 157.848L209.156 157.848Z" fill="#D0D5D9"/>
<path d="M209.156 165.492L209.156 161.67L204.954 161.67L204.954 165.492L209.156 165.492Z" fill="#D0D5D9"/>
<path d="M209.156 173.518L209.156 169.696L204.954 169.696L204.954 173.518L209.156 173.518Z" fill="#D0D5D9"/>
<path d="M209.156 181.162L209.156 177.34L204.954 177.34L204.954 181.162L209.156 181.162Z" fill="#D0D5D9"/>
<path d="M209.156 189.188L209.156 184.984L204.954 184.984L204.954 189.188L209.156 189.188Z" fill="#D0D5D9"/>
<path d="M209.156 196.832L209.156 193.01L204.954 193.01L204.954 196.832L209.156 196.832Z" fill="#D0D5D9"/>
<path d="M209.156 204.476L209.156 200.654L204.954 200.654L204.954 204.476L209.156 204.476Z" fill="#D0D5D9"/>
<path d="M209.156 161.67L209.156 157.848L204.954 157.848L204.954 161.67L209.156 161.67Z" fill="#32373B"/>
<path d="M209.156 169.696L209.156 165.492L204.954 165.492L204.954 169.696L209.156 169.696Z" fill="#32373B"/>
<path d="M209.156 177.34L209.156 173.518L204.954 173.518L204.954 177.34L209.156 177.34Z" fill="#32373B"/>
<path d="M209.156 184.984L209.156 181.162L204.954 181.162L204.954 184.984L209.156 184.984Z" fill="#32373B"/>
<path d="M209.156 193.01L209.156 189.188L204.954 189.188L204.954 193.01L209.156 193.01Z" fill="#32373B"/>
<path d="M209.156 200.654L209.156 196.832L204.954 196.832L204.954 200.654L209.156 200.654Z" fill="#32373B"/>
<path d="M220.617 200.654L220.617 196.832L216.797 196.832L216.797 200.654L220.617 200.654Z" fill="#D0D5D9"/>
<path d="M224.82 204.476L224.82 200.654L220.619 200.654L220.619 204.476L224.82 204.476Z" fill="#D0D5D9"/>
<path d="M220.617 204.476L220.617 200.654L216.797 200.654L216.797 204.476L220.617 204.476Z" fill="#32373B"/>
<path d="M228.641 196.832L228.641 193.01L224.821 193.01L224.821 196.832L228.641 196.832Z" fill="#32373B"/>
</svg>
