<svg width="327" height="200" viewBox="0 0 327 200" fill="none" xmlns="http://www.w3.org/2000/svg">
<path d="M73.8223 7.5306C53.9413 12.4952 36.5996 23.8546 24.1087 39.296L21.9609 37.4151C34.7539 21.3705 52.5096 9.4524 72.905 3.97754L73.8223 7.5306Z" fill="#A84144"/>
<path d="M24.1116 39.2961C13.5634 52.3427 6.47515 68.3017 4.25673 85.7766L1.60938 85.2067C3.97326 67.2812 11.218 50.8939 21.9639 37.4153L24.1116 39.2961Z" fill="#D8D8D8"/>
<path d="M13.5848 144.115L11.4333 145.147C4.61368 131.847 0.765625 116.775 0.765625 100.801V98.0557C0.765625 93.6982 1.05274 89.4114 1.60839 85.2065L4.25574 85.7764C3.76727 89.6386 3.51366 93.5753 3.51366 97.5715V102.052C3.51366 117.195 7.14543 131.49 13.5848 144.115Z" fill="#A84144"/>
<path d="M48.2609 181.434L46.9595 183.642C31.8885 174.309 19.5505 160.983 11.4297 145.147L13.5811 144.115C21.4447 159.546 33.5068 172.484 48.2609 181.434Z" fill="#D8D8D8"/>
<path d="M104.024 194.857V198.209H98.2817C79.4522 198.209 61.8681 192.879 46.9609 183.642L48.2623 181.434C62.3044 189.952 78.7886 194.857 96.4212 194.857H104.024Z" fill="#A84144"/>
<path d="M141.865 194.857H104.023V198.209H141.865V194.857Z" fill="#D8D8D8"/>
<path d="M186.044 194.857H141.867V198.209H186.044V194.857Z" fill="#A84144"/>
<path d="M281.295 182.559C266.03 192.458 247.819 198.209 228.262 198.209H186.047V194.857H229.202C247.782 194.857 265.09 189.408 279.609 180.026L281.295 182.559Z" fill="#D8D8D8"/>
<path d="M319.446 135.411C312.033 154.886 298.543 171.374 281.295 182.559L279.609 180.026C296.373 169.188 309.42 153.106 316.422 134.104L319.446 135.411Z" fill="#A84144"/>
<path d="M325.781 98.0558V100.801C325.781 112.991 323.54 124.655 319.446 135.411L316.422 134.104C320.102 124.115 322.112 113.318 322.112 102.052V97.5716C322.112 92.8267 321.754 88.1675 321.068 83.6163L324.651 83.1731C325.393 88.026 325.781 92.9943 325.781 98.0558Z" fill="#D8D8D8"/>
<path d="M324.65 83.1731L321.067 83.6163C317.983 63.188 308.233 44.9459 294.102 31.1619L296.682 28.6479C311.298 43.0241 321.395 61.9738 324.65 83.1731Z" fill="#A84144"/>
<path d="M296.676 28.6479L294.096 31.1619C282.023 19.3891 266.75 10.8714 249.703 7.03529L250.486 3.18799C268.238 7.31833 284.126 16.2979 296.676 28.6479Z" fill="#D8D8D8"/>
<path d="M250.492 3.18806L249.709 7.03536C243.113 5.54931 236.249 4.76719 229.202 4.76719H201.789V0.644287H228.262C235.91 0.644287 243.352 1.52324 250.492 3.18806Z" fill="#A84144"/>
<path d="M201.79 0.644287H161.953V4.76719H201.79V0.644287Z" fill="#D8D8D8"/>
<path d="M161.95 0.644287H117.852V4.76719H161.95V0.644287Z" fill="#A84144"/>
<path d="M117.851 0.644287V4.76719H96.4228C88.6298 4.76719 81.0571 5.72437 73.8235 7.53069L72.9062 3.97762C80.9974 1.80257 89.5061 0.644287 98.2833 0.644287H117.851Z" fill="#D8D8D8"/>
<path d="M321.067 83.6165C317.984 63.1882 308.233 44.9461 294.102 31.1621C282.029 19.3893 266.756 10.8716 249.709 7.0355C243.113 5.54945 236.249 4.76733 229.201 4.76733H96.4255C88.6325 4.76733 81.0598 5.72451 73.8262 7.53083C53.9452 12.4955 36.6035 23.8549 24.1126 39.2962C13.5643 52.3428 6.47613 68.3018 4.25771 85.7767C3.76924 89.6388 3.51562 93.5755 3.51562 97.5718V102.052C3.51562 117.196 7.14739 131.49 13.5867 144.116C21.4503 159.546 33.5124 172.484 48.2665 181.434C62.3086 189.952 78.7928 194.857 96.4255 194.857H229.201C247.781 194.857 265.089 189.408 279.609 180.026C296.373 169.188 309.419 153.106 316.422 134.104C320.102 124.116 322.111 113.319 322.111 102.052V97.5718C322.111 92.8269 321.753 88.1677 321.067 83.6165ZM272.301 100.734C272.301 106.13 271.343 111.307 269.583 116.093C266.272 125.103 260.138 132.749 252.248 137.959C245.197 142.622 236.741 145.333 227.65 145.333H97.8945C89.2999 145.333 81.2723 142.909 74.4637 138.7C67.3943 134.343 61.6337 128.063 57.9162 120.596C54.9258 114.615 53.2479 107.87 53.2479 100.734V98.447C53.2479 96.4657 53.3785 94.5141 53.6282 92.6035C54.7283 84.2161 58.1587 76.5625 63.2482 70.313C69.1505 63.069 77.2828 57.7133 86.5967 55.2888C90.206 54.3465 93.9906 53.8474 97.8945 53.8474H227.65C231.215 53.8474 234.679 54.2646 238.001 55.0541C246.241 57.0057 253.598 61.2403 259.366 67.0541C265.951 73.6873 270.462 82.3837 271.846 92.0821C272.148 94.1603 272.301 96.2869 272.301 98.447V100.734Z" fill="#363636"/>
<path d="M269.224 99.2663C269.224 104.752 268.173 109.996 266.26 114.801H266.256C264.12 120.175 260.906 125.002 256.883 129.02C254.768 131.136 252.427 133.024 249.903 134.652C243.329 138.89 235.499 141.348 227.095 141.348H98.3641C90.5155 141.348 83.1662 139.203 76.8723 135.464C70.2131 131.516 64.7357 125.777 61.104 118.916C57.9944 113.05 56.2344 106.365 56.2344 99.2663C56.2344 97.1694 56.3873 95.1136 56.6855 93.0987C57.8265 85.3333 61.0929 78.257 65.8729 72.4767C66.7268 71.445 67.6254 70.4581 68.5725 69.5121C73.8037 64.2868 80.4034 60.4283 87.786 58.5214C91.168 57.6499 94.7102 57.1843 98.3641 57.1843H227.095C230.589 57.1843 233.981 57.6089 237.229 58.4134C244.705 60.2532 251.391 64.0931 256.693 69.3259C262.916 75.4599 267.233 83.5121 268.684 92.5251C269.042 94.7188 269.224 96.972 269.224 99.2663Z" fill="#34843F"/>
<path d="M117.608 53.8472V57.1842H98.3651C94.7111 57.1842 91.169 57.6498 87.787 58.5213L86.5938 55.2885C90.2031 54.3462 93.9876 53.8472 97.8916 53.8472H117.608Z" fill="#D8D8D8"/>
<path d="M161.842 53.8472H117.609V57.1842H161.842V53.8472Z" fill="#A84144"/>
<path d="M199.577 53.8472H161.844V57.1842H199.577V53.8472Z" fill="#D8D8D8"/>
<path d="M238.001 55.0539L237.233 58.4133C233.986 57.6088 230.593 57.1842 227.099 57.1842H199.578V53.8472H227.651C231.216 53.8472 234.679 54.2643 238.001 55.0539Z" fill="#A84144"/>
<path d="M259.36 67.0539L256.69 69.3258C251.388 64.093 244.703 60.2532 237.227 58.4133L237.995 55.054C246.235 57.0055 253.592 61.2402 259.36 67.0539Z" fill="#D8D8D8"/>
<path d="M271.845 92.0819L268.687 92.5251C267.236 83.5121 262.918 75.4599 256.695 69.3258L259.365 67.054C265.95 73.6871 270.461 82.3836 271.845 92.0819Z" fill="#A84144"/>
<path d="M272.294 98.447V100.734C272.294 106.13 271.336 111.307 269.576 116.093L266.258 114.801C268.171 109.996 269.222 104.752 269.222 99.2664C269.222 96.9722 269.039 94.7189 268.681 92.5252L271.839 92.082C272.141 94.1602 272.294 96.2869 272.294 98.447Z" fill="#D8D8D8"/>
<path d="M269.582 116.093C266.271 125.102 260.138 132.749 252.248 137.959L249.906 134.652C252.431 133.024 254.772 131.136 256.886 129.021C260.909 125.002 264.123 120.175 266.26 114.801H266.264L269.582 116.093Z" fill="#A84144"/>
<path d="M252.245 137.959C245.194 142.622 236.738 145.333 227.648 145.333H186.141V141.348H227.096C235.5 141.348 243.33 138.89 249.904 134.652L252.245 137.959Z" fill="#D8D8D8"/>
<path d="M186.142 141.348H141.898V145.333H186.142V141.348Z" fill="#A84144"/>
<path d="M141.899 141.348H104.109V145.333H141.899V141.348Z" fill="#D8D8D8"/>
<path d="M104.107 141.348V145.333H97.8917C89.2971 145.333 81.2695 142.909 74.4609 138.7L76.8734 135.464C83.1673 139.203 90.5166 141.348 98.3653 141.348H104.107Z" fill="#A84144"/>
<path d="M76.8741 135.464L74.4616 138.7C67.3922 134.343 61.6316 128.063 57.9141 120.596L61.1058 118.916C64.7375 125.777 70.2149 131.516 76.8741 135.464Z" fill="#D8D8D8"/>
<path d="M61.1021 118.916L57.9104 120.596C54.9201 114.614 53.2422 107.87 53.2422 100.734V98.4468C53.2422 96.4655 53.3727 94.5139 53.6225 92.6033L56.6837 93.0986C56.3855 95.1135 56.2325 97.1694 56.2325 99.2662C56.2325 106.365 57.9925 113.05 61.1021 118.916Z" fill="#A84144"/>
<path d="M65.8736 72.4766C61.0935 78.2569 57.8272 85.3332 56.6862 93.0986L53.625 92.6033C54.725 84.2159 58.1554 76.5623 63.2449 70.3127L65.8736 72.4766Z" fill="#D8D8D8"/>
<path d="M87.7917 58.5213C80.4091 60.4282 73.8094 64.2867 68.5782 69.512C67.6311 70.458 66.7325 71.445 65.8786 72.4766L63.25 70.3128C69.1523 63.0688 77.2846 57.7131 86.5985 55.2886L87.7917 58.5213Z" fill="#A84144"/>
<path d="M98.9092 28.9561H227.08C266.078 28.9561 297.692 60.5345 297.692 99.4884V99.4885C297.692 138.442 266.078 170.021 227.08 170.021H98.9092C59.9111 170.021 28.2969 138.442 28.2969 99.4885V99.4884C28.2969 60.5345 59.9111 28.9561 98.9092 28.9561Z" stroke="white" stroke-width="3" stroke-linecap="round" stroke-linejoin="round"/>
<path d="M209.109 182.948L209.109 179.325L205.489 179.325L205.489 182.948L209.109 182.948Z" fill="#D0D5D9"/>
<path d="M216.711 149.619L213.09 149.619L213.09 145.996L214.104 145.996C215.544 145.996 216.711 147.619 216.711 149.619Z" fill="#32373B"/>
<path d="M216.711 153.242L216.711 149.619L213.09 149.619L213.09 153.242L216.711 153.242Z" fill="#D0D5D9"/>
<path d="M216.711 156.864L216.711 153.242L213.09 153.242L213.09 156.864L216.711 156.864Z" fill="#32373B"/>
<path d="M216.711 160.849L216.711 156.864L213.09 156.864L213.09 160.849L216.711 160.849Z" fill="#D0D5D9"/>
<path d="M216.711 164.472L216.711 160.849L213.09 160.849L213.09 164.472L216.711 164.472Z" fill="#32373B"/>
<path d="M216.711 168.095L216.711 164.472L213.09 164.472L213.09 168.095L216.711 168.095Z" fill="#D0D5D9"/>
<path d="M216.711 171.717L216.711 168.095L213.09 168.095L213.09 171.717L216.711 171.717Z" fill="#32373B"/>
<path d="M216.711 175.34L216.711 171.718L213.09 171.718L213.09 175.34L216.711 175.34Z" fill="#D0D5D9"/>
<path d="M216.711 179.325L216.711 175.34L213.09 175.34L213.09 179.325L216.711 179.325Z" fill="#32373B"/>
<path d="M216.711 182.948L216.711 179.325L213.09 179.325L213.09 182.948L216.711 182.948Z" fill="#D0D5D9"/>
<path d="M216.711 190.193L216.711 186.571L213.09 186.571L213.09 190.193L216.711 190.193Z" fill="#D0D5D9"/>
<path d="M214.104 193.816L213.09 193.816L213.09 190.193L216.711 190.193C216.711 192.193 215.544 193.816 214.104 193.816Z" fill="#32373B"/>
<path d="M213.094 153.242L213.094 149.619L209.111 149.619L209.111 153.242L213.094 153.242Z" fill="#32373B"/>
<path d="M213.094 160.849L213.094 156.864L209.111 156.864L209.111 160.849L213.094 160.849Z" fill="#32373B"/>
<path d="M213.094 168.095L213.094 164.472L209.111 164.472L209.111 168.095L213.094 168.095Z" fill="#32373B"/>
<path d="M213.094 175.34L213.094 171.718L209.111 171.718L209.111 175.34L213.094 175.34Z" fill="#32373B"/>
<path d="M213.094 182.948L213.094 179.325L209.111 179.325L209.111 182.948L213.094 182.948Z" fill="#32373B"/>
<path d="M213.094 186.57L213.094 182.948L209.111 182.948L209.111 186.57L213.094 186.57Z" fill="#D0D5D9"/>
<path d="M213.094 190.193L213.094 186.571L209.111 186.571L209.111 190.193L213.094 190.193Z" fill="#32373B"/>
<path d="M209.109 153.242L209.109 149.619L205.489 149.619L205.489 153.242L209.109 153.242Z" fill="#D0D5D9"/>
<path d="M209.109 160.849L209.109 156.864L205.489 156.864L205.489 160.849L209.109 160.849Z" fill="#D0D5D9"/>
<path d="M209.109 168.095L209.109 164.472L205.489 164.472L205.489 168.095L209.109 168.095Z" fill="#D0D5D9"/>
<path d="M209.109 175.34L209.109 171.718L205.489 171.718L205.489 175.34L209.109 175.34Z" fill="#D0D5D9"/>
<path d="M209.109 149.619L209.109 145.996L205.489 145.996L205.489 149.619L209.109 149.619Z" fill="#32373B"/>
<path d="M205.484 149.619L205.484 145.996L201.864 145.996L201.864 149.619L205.484 149.619Z" fill="#D0D5D9"/>
<path d="M201.867 149.619L201.867 145.996L198.247 145.996L198.247 149.619L201.867 149.619Z" fill="#32373B"/>
<path d="M201.867 153.242L201.867 149.619L198.247 149.619L198.247 153.242L201.867 153.242Z" fill="#D0D5D9"/>
<path d="M209.109 156.864L209.109 153.242L205.489 153.242L205.489 156.864L209.109 156.864Z" fill="#32373B"/>
<path d="M205.484 156.864L205.484 153.242L201.864 153.242L201.864 156.864L205.484 156.864Z" fill="#D0D5D9"/>
<path d="M201.867 156.864L201.867 153.242L198.247 153.242L198.247 156.864L201.867 156.864Z" fill="#32373B"/>
<path d="M201.867 160.849L201.867 156.864L198.247 156.864L198.247 160.849L201.867 160.849Z" fill="#D0D5D9"/>
<path d="M209.109 164.472L209.109 160.849L205.489 160.849L205.489 164.472L209.109 164.472Z" fill="#32373B"/>
<path d="M205.484 164.472L205.484 160.849L201.864 160.849L201.864 164.472L205.484 164.472Z" fill="#D0D5D9"/>
<path d="M201.867 164.472L201.867 160.849L198.247 160.849L198.247 164.472L201.867 164.472Z" fill="#32373B"/>
<path d="M201.867 168.095L201.867 164.472L198.247 164.472L198.247 168.095L201.867 168.095Z" fill="#D0D5D9"/>
<path d="M209.109 171.717L209.109 168.095L205.489 168.095L205.489 171.717L209.109 171.717Z" fill="#32373B"/>
<path d="M205.484 171.717L205.484 168.095L201.864 168.095L201.864 171.717L205.484 171.717Z" fill="#D0D5D9"/>
<path d="M201.867 171.717L201.867 168.095L198.247 168.095L198.247 171.717L201.867 171.717Z" fill="#32373B"/>
<path d="M201.867 175.34L201.867 171.718L198.247 171.718L198.247 175.34L201.867 175.34Z" fill="#D0D5D9"/>
<path d="M209.109 179.325L209.109 175.34L205.489 175.34L205.489 179.325L209.109 179.325Z" fill="#32373B"/>
<path d="M205.484 179.325L205.484 175.34L201.864 175.34L201.864 179.325L205.484 179.325Z" fill="#D0D5D9"/>
<path d="M201.867 179.325L201.867 175.34L198.247 175.34L198.247 179.325L201.867 179.325Z" fill="#32373B"/>
<path d="M201.867 182.948L201.867 179.325L198.247 179.325L198.247 182.948L201.867 182.948Z" fill="#D0D5D9"/>
<path d="M209.109 186.57L209.109 182.948L205.489 182.948L205.489 186.57L209.109 186.57Z" fill="#32373B"/>
<path d="M205.484 186.57L205.484 182.948L201.864 182.948L201.864 186.57L205.484 186.57Z" fill="#D0D5D9"/>
<path d="M201.867 186.57L201.867 182.948L198.247 182.948L198.247 186.57L201.867 186.57Z" fill="#32373B"/>
<path d="M201.867 190.193L201.867 186.571L198.247 186.571L198.247 190.193L201.867 190.193Z" fill="#D0D5D9"/>
<path d="M205.484 193.816L205.484 190.193L201.864 190.193L201.864 193.816L205.484 193.816Z" fill="#D0D5D9"/>
<path d="M201.867 193.816L201.867 190.193L198.247 190.193L198.247 193.816L201.867 193.816Z" fill="#32373B"/>
<path d="M213.094 149.619L213.094 145.996L209.111 145.996L209.111 149.619L213.094 149.619Z" fill="#D0D5D9"/>
<path d="M205.484 153.242L205.484 149.619L201.864 149.619L201.864 153.242L205.484 153.242Z" fill="#32373B"/>
<path d="M213.094 156.864L213.094 153.242L209.111 153.242L209.111 156.864L213.094 156.864Z" fill="#D0D5D9"/>
<path d="M205.484 160.849L205.484 156.864L201.864 156.864L201.864 160.849L205.484 160.849Z" fill="#32373B"/>
<path d="M213.094 164.472L213.094 160.849L209.111 160.849L209.111 164.472L213.094 164.472Z" fill="#D0D5D9"/>
<path d="M205.484 168.095L205.484 164.472L201.864 164.472L201.864 168.095L205.484 168.095Z" fill="#32373B"/>
<path d="M213.094 171.717L213.094 168.095L209.111 168.095L209.111 171.717L213.094 171.717Z" fill="#D0D5D9"/>
<path d="M205.484 175.34L205.484 171.718L201.864 171.718L201.864 175.34L205.484 175.34Z" fill="#32373B"/>
<path d="M213.094 179.325L213.094 175.34L209.111 175.34L209.111 179.325L213.094 179.325Z" fill="#D0D5D9"/>
<path d="M205.484 182.948L205.484 179.325L201.864 179.325L201.864 182.948L205.484 182.948Z" fill="#32373B"/>
<path d="M205.484 190.193L205.484 186.571L201.864 186.571L201.864 190.193L205.484 190.193Z" fill="#32373B"/>
<path d="M198.242 149.619L198.242 145.996L194.26 145.996L194.26 149.619L198.242 149.619Z" fill="#D0D5D9"/>
<path d="M198.242 156.864L198.242 153.242L194.26 153.242L194.26 156.864L198.242 156.864Z" fill="#D0D5D9"/>
<path d="M198.242 164.472L198.242 160.849L194.26 160.849L194.26 164.472L198.242 164.472Z" fill="#D0D5D9"/>
<path d="M198.242 171.717L198.242 168.095L194.26 168.095L194.26 171.717L198.242 171.717Z" fill="#D0D5D9"/>
<path d="M198.242 179.325L198.242 175.34L194.26 175.34L194.26 179.325L198.242 179.325Z" fill="#D0D5D9"/>
<path d="M198.242 186.57L198.242 182.948L194.26 182.948L194.26 186.57L198.242 186.57Z" fill="#D0D5D9"/>
<path d="M198.242 193.816L198.242 190.193L194.26 190.193L194.26 193.816L198.242 193.816Z" fill="#D0D5D9"/>
<path d="M198.242 153.242L198.242 149.619L194.26 149.619L194.26 153.242L198.242 153.242Z" fill="#32373B"/>
<path d="M198.242 160.849L198.242 156.864L194.26 156.864L194.26 160.849L198.242 160.849Z" fill="#32373B"/>
<path d="M198.242 168.095L198.242 164.472L194.26 164.472L194.26 168.095L198.242 168.095Z" fill="#32373B"/>
<path d="M198.242 175.34L198.242 171.718L194.26 171.718L194.26 175.34L198.242 175.34Z" fill="#32373B"/>
<path d="M198.242 182.948L198.242 179.325L194.26 179.325L194.26 182.948L198.242 182.948Z" fill="#32373B"/>
<path d="M198.242 190.193L198.242 186.571L194.26 186.571L194.26 190.193L198.242 190.193Z" fill="#32373B"/>
<path d="M209.109 190.193L209.109 186.571L205.489 186.571L205.489 190.193L209.109 190.193Z" fill="#D0D5D9"/>
<path d="M213.094 193.816L213.094 190.193L209.111 190.193L209.111 193.816L213.094 193.816Z" fill="#D0D5D9"/>
<path d="M209.109 193.816L209.109 190.193L205.489 190.193L205.489 193.816L209.109 193.816Z" fill="#32373B"/>
<path d="M216.711 186.57L216.711 182.948L213.09 182.948L213.09 186.57L216.711 186.57Z" fill="#32373B"/>
</svg>
