<svg width="99" height="29" viewBox="0 0 99 29" fill="none" xmlns="http://www.w3.org/2000/svg">
<path d="M95.1436 18.4148H96.6016C97.1008 18.4148 97.8508 19.243 97.4758 21.0478C97.1008 22.8526 94.7558 25.0862 92.5759 25.3921H83.7324C84.9523 24.0123 85.6921 22.1998 85.6921 20.2132C85.6921 15.8945 82.1913 12.3937 77.8713 12.3937C76.0217 12.3937 74.3206 13.0363 72.983 14.1102H72.9817C68.7474 15.4363 56.0831 19.3736 53.6716 19.8036C51.0259 19.7294 50.766 17.8964 50.3039 16.3796C49.8406 14.8616 49.4336 13.9924 46.8428 14.3623C44.5273 14.6926 31.0399 18.2753 28.1971 19.0331C27.6274 15.2737 24.3814 12.3937 20.4646 12.3937C16.1459 12.3937 12.6438 15.8945 12.6438 20.2132C12.6438 22.1998 13.3836 24.0123 14.6048 25.3921H2.19256C1.18906 25.3921 0.375 24.578 0.375 23.5732V19.7844C0.375 17.5086 3.6505 16.1019 3.6505 16.1019C7.12956 14.3252 15.0131 10.8833 16.974 10.3278C19.0834 9.29227 19.7222 8.98635 22.0825 9.0414C24.4416 9.09771 30.2988 9.0414 30.2988 9.0414C30.2988 9.0414 39.3663 3.88811 48.7308 1.44458C50.007 1.01963 51.6914 0.704755 56.151 1.20524C60.6118 1.70443 78.0159 4.96075 83.2076 5.87724C83.7773 5.99115 84.6413 6.29068 85.6921 6.46986C86.1785 6.5518 86.7046 6.60811 87.2601 6.60811H96.7539C97.4386 6.60811 98.1785 7.53355 97.5129 9.66219C96.9394 11.2532 95.2179 12.6049 95.2179 12.6049H96.6988C97.2351 12.6049 98.1785 14.0103 97.1238 15.9726C96.0691 17.9336 95.1436 18.4148 95.1436 18.4148Z" fill="#FF5257"/>
<path d="M72.0151 25.3921H26.3281C27.2561 24.3438 27.9063 23.0446 28.1649 21.6097C30.7159 20.9262 42.4574 17.8004 44.9777 17.4715C47.8091 17.1015 48.0305 18.2484 48.6053 20.4142C49.1787 22.5787 51.1768 23.2827 53.8238 22.5415C56.1841 21.881 68.0484 18.1857 70.5777 17.3972C70.2398 18.2702 70.0542 19.2199 70.0542 20.2132C70.0542 22.1998 70.794 24.0122 72.0151 25.3921Z" fill="#FF5257"/>
<path d="M28.2901 20.2133C28.2901 20.6894 28.2478 21.1566 28.1659 21.6097C27.9073 23.0446 27.2571 24.3438 26.3291 25.3921C24.8968 27.0126 22.8027 28.034 20.4692 28.034C18.1358 28.034 16.0417 27.0126 14.6094 25.3921C13.3883 24.0123 12.6484 22.1998 12.6484 20.2133C12.6484 15.8946 16.1506 12.3937 20.4692 12.3937C24.3861 12.3937 27.6321 15.2737 28.2017 19.0331C28.2593 19.4171 28.2901 19.8113 28.2901 20.2133Z" fill="#2F3236"/>
<path d="M72.9845 14.1102C71.9157 14.9678 71.0773 16.0981 70.5768 17.3973C68.0476 18.1857 56.1833 21.8811 53.8229 22.5416C51.1759 23.2827 49.1778 22.5787 48.6044 20.4142C48.0296 18.2485 47.8082 17.1016 44.9768 17.4715C42.4565 17.8005 30.7151 20.9262 28.1641 21.6097C28.2459 21.1566 28.2882 20.6894 28.2882 20.2133C28.2882 19.8113 28.2574 19.4171 28.1999 19.0331C31.0428 18.2753 44.5301 14.6926 46.8456 14.3624C49.4364 13.9925 49.8434 14.8616 50.3068 16.3797C50.7688 17.8965 51.0287 19.7294 53.6744 19.8037C56.0859 19.3736 68.7503 15.4363 72.9845 14.1102Z" fill="#E6E6E6"/>
<path d="M85.6963 20.2133C85.6963 22.1998 84.9564 24.0123 83.7366 25.3921C82.3043 27.0126 80.2089 28.034 77.8755 28.034C75.5421 28.034 73.4479 27.0126 72.0156 25.3921C70.7945 24.0123 70.0547 22.1998 70.0547 20.2133C70.0547 19.22 70.2403 18.2702 70.5782 17.3973C71.0787 16.0981 71.9171 14.9678 72.9859 14.1102H72.9872C74.3248 13.0363 76.0259 12.3937 77.8755 12.3937C82.1955 12.3937 85.6963 15.8946 85.6963 20.2133Z" fill="#2F3236"/>
<path d="M93.8975 3.26861C93.8898 3.27501 93.8809 3.28142 93.8732 3.28782C93.2422 3.7755 92.4626 4.0315 91.6652 4.0315H87.9571V6.60814H87.2633C86.7077 6.60814 86.1817 6.55182 85.6953 6.46989V0.949263C85.6953 0.4667 86.0869 0.0762939 86.5695 0.0762939H93.8975C94.7026 0.0762939 95.3414 1.89389 93.8975 3.26861Z" fill="#BF3E41"/>
<path d="M93.9007 3.26861C93.8931 3.27501 93.8841 3.28142 93.8764 3.28783C93.2454 3.7755 92.4659 4.0315 91.6684 4.0315H89.2812C90.0787 4.0315 90.8582 3.7755 91.4892 3.28783C91.4969 3.28142 91.5059 3.27501 91.5136 3.26861C92.9574 1.89389 92.3187 0.0762939 91.5136 0.0762939H93.9007C94.7059 0.0762939 95.3446 1.89389 93.9007 3.26861Z" fill="#FF5257"/>
<path d="M4.63618 16.7851L9.2988 14.3215C9.85191 14.0293 10.5173 14.4303 10.5173 15.0558V15.4693C10.5173 16.0696 10.0744 16.5775 9.47956 16.6582C8.2175 16.8296 6.08529 17.0857 4.70537 17.0719C4.54739 17.0703 4.49649 16.8589 4.63618 16.7851Z" fill="#E6E6E6"/>
<path d="M5.80423 19.6366H2.35285C1.75239 19.6366 1.26562 20.1234 1.26562 20.7238V22.6392C1.26562 23.2397 1.75239 23.7264 2.35285 23.7264H5.80423C6.40469 23.7264 6.89146 23.2397 6.89146 22.6392V20.7238C6.89146 20.1234 6.40469 19.6366 5.80423 19.6366Z" fill="#2F3236"/>
<path d="M35.8549 9.10566C35.3947 9.11093 35.2326 8.49721 35.6363 8.27607C38.2691 6.83349 43.9554 3.98602 49.0792 3.22178C54.3596 2.43419 62.7188 3.75222 66.4274 4.43031C66.9917 4.5335 67.0707 5.30985 66.5383 5.52368C63.8903 6.58717 58.8919 8.48093 55.9533 8.87538L35.8549 9.10566Z" fill="#2F3236"/>
<path d="M20.4653 25.4214C23.3414 25.4214 25.6729 23.0899 25.6729 20.2138C25.6729 17.3378 23.3414 15.0063 20.4653 15.0063C17.5893 15.0063 15.2578 17.3378 15.2578 20.2138C15.2578 23.0899 17.5893 25.4214 20.4653 25.4214Z" fill="#808080"/>
<path d="M20.4648 21.9052C21.399 21.9052 22.1562 21.148 22.1562 20.2139C22.1562 19.2797 21.399 18.5225 20.4648 18.5225C19.5307 18.5225 18.7734 19.2797 18.7734 20.2139C18.7734 21.148 19.5307 21.9052 20.4648 21.9052Z" fill="#2F3236"/>
<path d="M77.8716 25.4214C80.7476 25.4214 83.0791 23.0899 83.0791 20.2138C83.0791 17.3378 80.7476 15.0063 77.8716 15.0063C74.9956 15.0063 72.6641 17.3378 72.6641 20.2138C72.6641 23.0899 74.9956 25.4214 77.8716 25.4214Z" fill="#808080"/>
<path d="M77.8711 21.9052C78.8052 21.9052 79.5625 21.148 79.5625 20.2139C79.5625 19.2797 78.8052 18.5225 77.8711 18.5225C76.937 18.5225 76.1797 19.2797 76.1797 20.2139C76.1797 21.148 76.937 21.9052 77.8711 21.9052Z" fill="#2F3236"/>
</svg>
