<svg width="63" height="81" viewBox="0 0 63 81" fill="none" xmlns="http://www.w3.org/2000/svg">
<path d="M45.3353 15.519C44.8815 17.2722 44.2249 19.2283 43.2851 20.8061C42.7765 19.491 41.4995 18.559 40.005 18.559H23.8057C22.3856 18.559 21.1626 19.3998 20.6069 20.6111C20.2875 18.7501 19.8298 14.8644 20.8235 11.6363C22.1837 7.21645 25.6265 6.15316 26.2008 6.15316C26.7741 6.15316 27.5816 6.74802 27.561 7.85345C27.561 7.85345 30.6421 4.55183 35.7715 4.41072C40.9008 4.26862 43.3096 5.70726 43.7977 6.02576C44.2866 6.34426 44.4778 7.23704 44.1377 8.17195C43.7977 9.10786 42.799 11.3393 42.799 11.3393C42.799 11.3393 43.9897 11.6225 44.7541 11.9763C45.5195 12.3311 45.8458 13.5492 45.3353 15.519Z" fill="#A34F41"/>
<path d="M45.3359 15.519C44.8822 17.2722 44.2255 19.2283 43.2857 20.8061C42.7918 19.5292 41.5747 18.6139 40.136 18.5619C40.5329 17.5525 40.8514 16.5039 41.1062 15.519C41.6168 13.5492 41.2904 12.3311 40.5251 11.9763C40.2909 11.8675 40.0155 11.7656 39.7479 11.6764C39.1295 11.4716 38.8189 10.7837 39.0776 10.1859C39.3775 9.49495 39.7322 8.65804 39.9087 8.17195C40.2487 7.23704 40.0576 6.34426 39.5686 6.02576C39.1864 5.77586 37.6252 4.83898 34.5 4.51362C34.9087 4.45776 35.333 4.42248 35.7721 4.41072C40.9014 4.26862 43.3102 5.70726 43.7983 6.02576C44.2873 6.34426 44.4784 7.23704 44.1383 8.17195C43.7983 9.10786 42.7997 11.3393 42.7997 11.3393C42.7997 11.3393 43.9904 11.6225 44.7547 11.9763C45.5201 12.3311 45.8465 13.5492 45.3359 15.519Z" fill="#873F30"/>
<path d="M43.5219 22.0752V31.1765C43.5219 36.2264 40.3007 40.5237 35.8005 42.1231C34.5833 42.5572 33.2721 42.7934 31.906 42.7934C30.4958 42.7934 29.1443 42.5425 27.8939 42.0819C23.4555 40.4482 20.2891 36.1823 20.2891 31.1765V22.0752C20.2891 22.035 20.29 21.9939 20.291 21.9537C20.3077 21.4764 20.4184 21.0227 20.6076 20.6121V20.6111C21.1632 19.3998 22.3863 18.559 23.8063 18.559H40.0057C41.5002 18.559 42.7771 19.4909 43.2858 20.8061C43.42 21.1511 43.5004 21.5225 43.518 21.9096C43.521 21.9645 43.5219 22.0193 43.5219 22.0752Z" fill="#FFCEC0"/>
<path d="M20.2933 21.9537C20.2923 21.9939 20.2913 22.035 20.2913 22.0752V28.752C19.623 29.2175 18.8106 29.4889 17.9345 29.4889C15.6491 29.4889 13.7969 27.6367 13.7969 25.3523C13.7969 23.067 15.6491 21.2148 17.9345 21.2148C18.8115 21.2148 19.624 21.4882 20.2933 21.9537Z" fill="#FDB0A0"/>
<path d="M49.9474 25.3523C49.9474 27.6367 48.0952 29.4889 45.8108 29.4889C44.9631 29.4889 44.1752 29.2341 43.5195 28.7961V22.0752C43.5195 22.0194 43.5186 21.9645 43.5156 21.9096C44.1722 21.4706 44.9611 21.2148 45.8108 21.2148C48.0952 21.2148 49.9474 23.067 49.9474 25.3523Z" fill="#FDB0A0"/>
<path d="M35.7972 42.1231V45.4854C35.7972 47.6689 34.0273 49.4388 31.8439 49.4388C29.6605 49.4388 27.8906 47.6689 27.8906 45.4854V42.0819C29.1411 42.5425 30.4925 42.7934 31.9027 42.7934C33.2689 42.7934 34.5801 42.5572 35.7972 42.1231Z" fill="#FDB0A0"/>
<path d="M35.7972 42.1231V44.8014C34.5801 45.2355 33.2689 45.4717 31.9027 45.4717C30.4925 45.4717 29.1411 45.2209 27.8906 44.7603V42.0819C29.1411 42.5425 30.4925 42.7934 31.9027 42.7934C33.2689 42.7934 34.5801 42.5572 35.7972 42.1231Z" fill="#F69583"/>
<path d="M49.6621 49.0821C48.9487 49.576 46.9514 51.1587 46.3272 53.7596C45.8381 55.4393 46.0018 56.7643 46.0018 57.1749C46.0018 57.2827 46.0018 58.7664 46.0008 60.895V63.052C45.9998 68.4361 45.9989 75.8253 45.9979 77.5893H17.6955C17.6955 77.1551 17.6955 76.38 17.6945 75.3774V72.4727C17.6935 71.4065 17.6935 70.252 17.6935 69.0711C20.9197 64.0623 26.8154 60.7323 30.8686 58.9124C31.7771 58.5048 31.4518 57.1406 30.457 57.1867C25.3346 57.4268 19.7045 58.3901 17.6925 58.7596V57.1749C17.6925 56.7643 17.8552 55.4393 17.3662 53.7596C16.7429 51.1587 14.7457 49.576 14.0312 49.083C17.3564 45.5991 21.5694 44.7828 23.4657 44.7485C23.5912 44.7465 23.7166 44.7446 23.842 44.7416V45.3649C23.842 49.8141 27.4474 53.4195 31.8967 53.4195C36.3449 53.4195 39.9513 49.8141 39.9513 45.3649V44.7436C40.0434 44.7456 40.1355 44.7465 40.2276 44.7485C42.1239 44.7828 46.3369 45.5991 49.6621 49.0821Z" fill="#3351C5"/>
<path d="M54.1173 77.5893H45.9989C46 75.8253 46.0009 68.4361 46.0019 63.0519V60.895C46.0029 58.7664 46.0029 57.2827 46.0029 57.1749C46.0029 56.7643 45.8392 55.4393 46.3283 53.7596C46.9525 51.1587 48.9498 49.576 49.6632 49.082C50.5119 49.9709 51.3018 51.0332 51.9819 52.3004C53.3705 54.7945 53.5969 58.1098 53.6822 59.0731C53.7508 59.8581 55.061 71.6465 55.5442 75.9948C55.6392 76.8454 54.9728 77.5893 54.1173 77.5893Z" fill="#FDB0A0"/>
<path d="M17.6939 75.3774C17.6949 76.3799 17.6949 77.1551 17.6949 77.5893H9.57752C8.72097 77.5893 8.05459 76.8454 8.14967 75.9948C8.63278 71.6465 9.94305 59.8581 10.0126 59.0731C10.0969 58.1098 10.3243 54.7945 11.7129 52.3003C12.3921 51.0332 13.1829 49.9719 14.0306 49.083C14.7451 49.576 16.7423 51.1586 17.3656 53.7596C17.8546 55.4393 17.6919 56.7642 17.6919 57.1749V58.7595C17.6929 60.9782 17.6929 65.1677 17.6929 69.0711C17.6929 70.252 17.6929 71.4064 17.6939 72.4727V75.3774Z" fill="#FDB0A0"/>
<path d="M30.8714 58.9125C26.8182 60.7323 20.9225 64.0624 17.6963 69.0711C17.6963 65.1678 17.6963 60.9783 17.6953 58.7596C19.7073 58.3901 25.3374 57.4268 30.4598 57.1867C31.4546 57.1406 31.7799 58.5048 30.8714 58.9125Z" fill="#FDDD45"/>
<path d="M39.953 44.7436V45.3649C39.953 49.8141 36.3466 53.4195 31.8984 53.4195C27.4492 53.4195 23.8438 49.8141 23.8438 45.3649V44.7416C25.546 44.7113 27.1934 44.6828 27.8951 44.6711V45.4855C27.8951 47.6689 29.665 49.4388 31.8484 49.4388C34.0318 49.4388 35.8017 47.6689 35.8017 45.4855V44.6701C36.5181 44.6828 38.2164 44.7132 39.953 44.7436Z" fill="#FDDD45"/>
<path d="M32.651 33.08H30.5311C30.2256 33.08 29.9343 32.9504 29.7299 32.7232C29.5255 32.4961 29.427 32.1929 29.4591 31.889L30.0983 25.8268C30.1607 25.2348 30.691 24.8064 31.2834 24.8678C31.8755 24.9302 32.3048 25.4608 32.2424 26.0529L31.7288 30.924H32.651C33.2463 30.924 33.729 31.4067 33.729 32.002C33.729 32.5974 33.2463 33.08 32.651 33.08Z" fill="#FDB0A0"/>
<path d="M31.8432 38.7071C30.1005 38.7071 28.9662 37.6875 28.2798 37.1508C27.7083 36.7041 27.7481 35.8279 28.3602 35.4387L28.4258 35.3969C28.795 35.1621 29.2681 35.1922 29.6155 35.4582C30.0039 35.7555 30.9935 36.5511 31.8432 36.5511C32.6839 36.5511 33.653 35.8072 34.0262 35.5171C34.376 35.2451 34.8542 35.2085 35.2318 35.4406L35.2826 35.4719C35.9017 35.8523 35.9549 36.7309 35.3873 37.1843C34.712 37.7237 33.7276 38.7484 31.8432 38.7071Z" fill="#FDB0A0"/>
<path d="M46.0017 60.895V63.0519C38.3096 62.7315 31.1723 65.9596 26.4516 68.8006C21.68 71.672 18.4117 74.6934 17.6953 75.3774V72.4727C19.2829 71.1066 21.9299 69.0054 25.3403 66.9533C28.6488 64.9629 31.9886 63.4351 35.2677 62.414C38.9388 61.2703 42.5432 60.7607 46.0017 60.895Z" fill="#FDDD45"/>
<path d="M40.3358 58.8619H38.0936C37.4983 58.8619 37.0156 58.3793 37.0156 57.7839C37.0156 57.1886 37.4983 56.7059 38.0936 56.7059H40.3358C40.9312 56.7059 41.4138 57.1886 41.4138 57.7839C41.4138 58.3793 40.9312 58.8619 40.3358 58.8619Z" fill="#FDDD45"/>
<path d="M26.0411 27.7889C26.6808 27.7889 27.1994 27.2227 27.1994 26.5243C27.1994 25.8259 26.6808 25.2598 26.0411 25.2598C25.4014 25.2598 24.8828 25.8259 24.8828 26.5243C24.8828 27.2227 25.4014 27.7889 26.0411 27.7889Z" fill="#873F30"/>
<path d="M37.6583 27.7889C38.298 27.7889 38.8166 27.2227 38.8166 26.5243C38.8166 25.8259 38.298 25.2598 37.6583 25.2598C37.0186 25.2598 36.5 25.8259 36.5 26.5243C36.5 27.2227 37.0186 27.7889 37.6583 27.7889Z" fill="#873F30"/>
<path d="M54.1155 77.5893H51.5812C51.6185 77.4334 51.6292 77.2688 51.6106 77.1002C51.1274 72.752 49.8172 60.9635 49.7486 60.1786C49.6633 59.2152 49.4369 55.8999 48.0483 53.4058C47.7494 52.8492 47.4299 52.3327 47.0938 51.8525C47.9483 50.3727 49.1429 49.4407 49.6614 49.082C50.5101 49.9709 51.3 51.0332 51.9801 52.3004C53.3687 54.7945 53.5951 58.1098 53.6804 59.0731C53.7489 59.8581 55.0592 71.6465 55.5424 75.9948C55.6374 76.8454 54.971 77.5893 54.1155 77.5893Z" fill="#F69583"/>
<path d="M49.6603 49.082C49.1419 49.4407 47.9473 50.3727 47.0927 51.8525C46.6625 51.239 46.2048 50.6863 45.7286 50.1875C43.8656 48.2363 41.7243 47.122 39.8672 46.5135C39.875 46.4664 39.8809 46.4194 39.8868 46.3724C39.8927 46.3253 39.8986 46.2773 39.9035 46.2302C39.9074 46.1891 39.9123 46.1469 39.9152 46.1048C39.926 45.997 39.9338 45.8882 39.9387 45.7794C39.9426 45.7109 39.9456 45.6422 39.9466 45.5727C39.9485 45.5041 39.9495 45.4345 39.9495 45.3649V44.7436C40.0417 44.7455 40.1338 44.7465 40.2259 44.7485C42.1222 44.7828 46.3352 45.5991 49.6603 49.082Z" fill="#3351C5"/>
<path d="M39.9492 44.7436V45.3649C39.9492 45.4345 39.9482 45.5041 39.9462 45.5727C39.9453 45.6423 39.9423 45.7109 39.9384 45.7795C39.9335 45.8882 39.9257 45.997 39.9149 46.1048C39.9119 46.147 39.9071 46.1891 39.9031 46.2303C39.8983 46.2773 39.8924 46.3253 39.8865 46.3724C39.8806 46.4194 39.8738 46.4664 39.8669 46.5135C38.4096 46.0352 37.1278 45.8686 36.2938 45.8539C36.2017 45.852 36.1096 45.851 36.0174 45.849C35.939 45.8481 35.8597 45.8461 35.7812 45.8451V45.8422C35.7842 45.8138 35.7862 45.7844 35.7881 45.7559C35.7911 45.7167 35.793 45.6775 35.795 45.6383C35.7969 45.5874 35.7979 45.5364 35.7979 45.4855V44.6701C36.5143 44.6828 38.2126 44.7132 39.9492 44.7436Z" fill="#FDDD45"/>
</svg>
