<svg width="241" height="390" viewBox="0 0 241 390" fill="none" xmlns="http://www.w3.org/2000/svg">
<g clip-path="url(#clip0_6153_47264)">
<path d="M238.258 378.663L238.258 11.3721C238.258 6.9538 234.676 3.37207 230.258 3.37207L11.3107 3.37206C6.89241 3.37206 3.3107 6.95378 3.3107 11.3721L3.31068 378.663C3.31068 383.081 6.89241 386.663 11.3107 386.663L230.258 386.663C234.676 386.663 238.258 383.081 238.258 378.663Z" fill="#5B9958" stroke="#222E21" stroke-width="6"/>
<path d="M188.734 348.522L188.734 41.5137L52.8401 41.5137L52.8401 348.522L188.734 348.522Z" fill="#E19541"/>
<path d="M15.3047 375.978L13.0422 375.978L13.0422 373.437" stroke="white" stroke-width="3" stroke-linecap="round" stroke-linejoin="round"/>
<path d="M13.039 368.411L13.0391 19.1113" stroke="white" stroke-width="3" stroke-linecap="round" stroke-linejoin="round"/>
<path d="M13.0422 16.5986L13.0422 14.0581L15.3047 14.0581" stroke="white" stroke-width="3" stroke-linecap="round" stroke-linejoin="round"/>
<path d="M19.7886 14.0581L224.031 14.0581" stroke="white" stroke-width="3" stroke-linecap="round" stroke-linejoin="round"/>
<path d="M226.277 14.0581L228.539 14.0581L228.539 16.5986" stroke="white" stroke-width="3" stroke-linecap="round" stroke-linejoin="round"/>
<path d="M228.539 21.6245L228.539 370.924" stroke="white" stroke-width="3" stroke-linecap="round" stroke-linejoin="round"/>
<path d="M228.539 373.437L228.539 375.978L226.277 375.978" stroke="white" stroke-width="3" stroke-linecap="round" stroke-linejoin="round"/>
<path d="M221.789 375.977L17.5464 375.977" stroke="white" stroke-width="3" stroke-linecap="round" stroke-linejoin="round"/>
<path d="M188.734 348.522L188.734 41.5137L52.8401 41.5137L52.8401 348.522L188.734 348.522Z" stroke="white" stroke-width="3" stroke-linecap="round" stroke-linejoin="round"/>
<path d="M52.8359 144.483L51.2522 144.483" stroke="white" stroke-width="3" stroke-linecap="round" stroke-linejoin="round"/>
<path d="M47.9453 144.483L29.7705 144.483" stroke="white" stroke-width="3" stroke-linecap="round" stroke-linejoin="round"/>
<path d="M28.125 144.483L26.5412 144.483" stroke="white" stroke-width="3" stroke-linecap="round" stroke-linejoin="round"/>
<path d="M188.734 144.483L52.8401 144.483" stroke="white" stroke-width="3" stroke-linecap="round" stroke-linejoin="round"/>
<path d="M216.133 144.483L214.549 144.483" stroke="white" stroke-width="3" stroke-linecap="round" stroke-linejoin="round"/>
<path d="M211.086 144.483L192.046 144.483" stroke="white" stroke-width="3" stroke-linecap="round" stroke-linejoin="round"/>
<path d="M190.312 144.483L188.729 144.483" stroke="white" stroke-width="3" stroke-linecap="round" stroke-linejoin="round"/>
<path d="M52.9219 245.527L51.3381 245.527" stroke="white" stroke-width="3" stroke-linecap="round" stroke-linejoin="round"/>
<path d="M48.0078 245.527L29.6911 245.527" stroke="white" stroke-width="3" stroke-linecap="round" stroke-linejoin="round"/>
<path d="M28.0312 245.527L26.4475 245.527" stroke="white" stroke-width="3" stroke-linecap="round" stroke-linejoin="round"/>
<path d="M188.734 245.527L52.9225 245.527" stroke="white" stroke-width="3" stroke-linecap="round" stroke-linejoin="round"/>
<path d="M216.031 245.527L214.447 245.527" stroke="white" stroke-width="3" stroke-linecap="round" stroke-linejoin="round"/>
<path d="M211 245.527L192.037 245.527" stroke="white" stroke-width="3" stroke-linecap="round" stroke-linejoin="round"/>
<path d="M190.312 245.527L188.729 245.527" stroke="white" stroke-width="3" stroke-linecap="round" stroke-linejoin="round"/>
<path d="M52.8384 195.018L188.734 195.018" stroke="white" stroke-width="3" stroke-linecap="round" stroke-linejoin="round" stroke-dasharray="6 6"/>
<path d="M188.734 34.9175L188.734 36.9009" stroke="white" stroke-width="3" stroke-linecap="round" stroke-linejoin="round"/>
<path d="M188.734 353.073L188.734 355.057" stroke="white" stroke-width="3" stroke-linecap="round" stroke-linejoin="round"/>
<path d="M52.8359 353.073L52.8359 355.057" stroke="white" stroke-width="3" stroke-linecap="round" stroke-linejoin="round"/>
<path d="M52.8359 34.9175L52.8359 36.9009" stroke="white" stroke-width="3" stroke-linecap="round" stroke-linejoin="round"/>
</g>
<defs>
<clipPath id="clip0_6153_47264">
<rect width="390" height="241" fill="white" transform="translate(241) rotate(90)"/>
</clipPath>
</defs>
</svg>
