<svg width="254" height="412" viewBox="0 0 254 412" fill="none" xmlns="http://www.w3.org/2000/svg">
<g clip-path="url(#clip0_6049_7097)">
<path d="M250.945 400.306L250.945 11.7317C250.945 7.31341 247.364 3.73169 242.945 3.73169L11.6483 3.73168C7.23007 3.73168 3.64835 7.31338 3.64835 11.7317L3.64833 400.306C3.64833 404.724 7.23007 408.306 11.6483 408.306L242.945 408.306C247.364 408.306 250.945 404.724 250.945 400.306Z" fill="#5B9958" stroke="#222E21" stroke-width="6"/>
<path d="M198.914 368.182L198.914 43.8556L55.6894 43.8556L55.6893 368.182L198.914 368.182Z" fill="#E19541"/>
<path d="M16.125 397.186L13.7404 397.186L13.7404 394.502" stroke="white" stroke-width="3" stroke-linecap="round" stroke-linejoin="round"/>
<path d="M13.7422 389.193L13.7422 20.1896" stroke="white" stroke-width="3" stroke-linecap="round" stroke-linejoin="round"/>
<path d="M13.7404 17.5349L13.7404 14.8511L16.125 14.8511" stroke="white" stroke-width="3" stroke-linecap="round" stroke-linejoin="round"/>
<path d="M20.8573 14.8511L236.117 14.8511" stroke="white" stroke-width="3" stroke-linecap="round" stroke-linejoin="round"/>
<path d="M238.483 14.8511L240.867 14.8511L240.867 17.5349" stroke="white" stroke-width="3" stroke-linecap="round" stroke-linejoin="round"/>
<path d="M240.867 22.8442L240.867 391.848" stroke="white" stroke-width="3" stroke-linecap="round" stroke-linejoin="round"/>
<path d="M240.867 394.502L240.867 397.186L238.483 397.186" stroke="white" stroke-width="3" stroke-linecap="round" stroke-linejoin="round"/>
<path d="M233.75 397.186L18.4901 397.186" stroke="white" stroke-width="3" stroke-linecap="round" stroke-linejoin="round"/>
<path d="M198.914 368.182L198.914 43.8556L55.6894 43.8556L55.6893 368.182L198.914 368.182Z" stroke="white" stroke-width="3" stroke-linecap="round" stroke-linejoin="round"/>
<path d="M55.6875 152.634L54.0183 152.634" stroke="white" stroke-width="3" stroke-linecap="round" stroke-linejoin="round"/>
<path d="M50.5391 152.634L31.3839 152.634" stroke="white" stroke-width="3" stroke-linecap="round" stroke-linejoin="round"/>
<path d="M29.6406 152.634L27.9714 152.634" stroke="white" stroke-width="3" stroke-linecap="round" stroke-linejoin="round"/>
<path d="M198.914 152.634L55.6894 152.634" stroke="white" stroke-width="3" stroke-linecap="round" stroke-linejoin="round"/>
<path d="M227.789 152.634L226.12 152.634" stroke="white" stroke-width="3" stroke-linecap="round" stroke-linejoin="round"/>
<path d="M222.469 152.634L202.402 152.634" stroke="white" stroke-width="3" stroke-linecap="round" stroke-linejoin="round"/>
<path d="M200.578 152.634L198.909 152.634" stroke="white" stroke-width="3" stroke-linecap="round" stroke-linejoin="round"/>
<path d="M55.7734 259.378L54.1042 259.378" stroke="white" stroke-width="3" stroke-linecap="round" stroke-linejoin="round"/>
<path d="M50.5938 259.378L31.2891 259.378" stroke="white" stroke-width="3" stroke-linecap="round" stroke-linejoin="round"/>
<path d="M29.5391 259.378L27.8699 259.378" stroke="white" stroke-width="3" stroke-linecap="round" stroke-linejoin="round"/>
<path d="M198.914 259.378L55.7762 259.378" stroke="white" stroke-width="3" stroke-linecap="round" stroke-linejoin="round"/>
<path d="M227.688 259.378L226.018 259.378" stroke="white" stroke-width="3" stroke-linecap="round" stroke-linejoin="round"/>
<path d="M222.383 259.378L202.397 259.378" stroke="white" stroke-width="3" stroke-linecap="round" stroke-linejoin="round"/>
<path d="M200.586 259.378L198.917 259.378" stroke="white" stroke-width="3" stroke-linecap="round" stroke-linejoin="round"/>
<path d="M55.6876 206.019L198.914 206.019" stroke="white" stroke-width="3" stroke-linecap="round" stroke-linejoin="round" stroke-dasharray="6 6"/>
<path d="M198.914 36.8873L198.914 38.9826" stroke="white" stroke-width="3" stroke-linecap="round" stroke-linejoin="round"/>
<path d="M198.914 372.99L198.914 375.085" stroke="white" stroke-width="3" stroke-linecap="round" stroke-linejoin="round"/>
<path d="M55.6875 372.99L55.6875 375.085" stroke="white" stroke-width="3" stroke-linecap="round" stroke-linejoin="round"/>
<path d="M55.6875 36.8873L55.6875 38.9826" stroke="white" stroke-width="3" stroke-linecap="round" stroke-linejoin="round"/>
</g>
<defs>
<clipPath id="clip0_6049_7097">
<rect width="412" height="254" fill="white" transform="translate(254) rotate(90)"/>
</clipPath>
</defs>
</svg>
