<svg width="250" height="405" viewBox="0 0 250 405" fill="none" xmlns="http://www.w3.org/2000/svg">
<g clip-path="url(#clip0_6145_6544)">
<path d="M247.047 393.419L247.047 11.6174C247.047 7.19915 243.465 3.61743 239.047 3.61743L11.5499 3.61742C7.13159 3.61742 3.54987 7.19913 3.54987 11.6174L3.54985 393.419C3.54985 397.838 7.13157 401.419 11.5498 401.419L239.047 401.419C243.465 401.419 247.047 397.838 247.047 393.419Z" fill="#5B9958" stroke="#222E21" stroke-width="6"/>
<path d="M195.781 361.926L195.781 43.1104L54.8121 43.1103L54.812 361.926L195.781 361.926Z" fill="#E19541"/>
<path d="M15.8672 390.438L13.5202 390.438L13.5202 387.8" stroke="white" stroke-width="3" stroke-linecap="round" stroke-linejoin="round"/>
<path d="M13.5234 382.581L13.5234 19.8467" stroke="white" stroke-width="3" stroke-linecap="round" stroke-linejoin="round"/>
<path d="M13.5202 17.2371L13.5202 14.5989L15.8672 14.5989" stroke="white" stroke-width="3" stroke-linecap="round" stroke-linejoin="round"/>
<path d="M20.5285 14.5989L232.398 14.5989" stroke="white" stroke-width="3" stroke-linecap="round" stroke-linejoin="round"/>
<path d="M234.723 14.5989L237.07 14.5989L237.07 17.2371" stroke="white" stroke-width="3" stroke-linecap="round" stroke-linejoin="round"/>
<path d="M237.07 22.4563L237.07 385.19" stroke="white" stroke-width="3" stroke-linecap="round" stroke-linejoin="round"/>
<path d="M237.07 387.8L237.07 390.438L234.723 390.438" stroke="white" stroke-width="3" stroke-linecap="round" stroke-linejoin="round"/>
<path d="M230.07 390.438L18.2004 390.438" stroke="white" stroke-width="3" stroke-linecap="round" stroke-linejoin="round"/>
<path d="M195.781 361.926L195.781 43.1104L54.8121 43.1103L54.812 361.926L195.781 361.926Z" stroke="white" stroke-width="3" stroke-linecap="round" stroke-linejoin="round"/>
<path d="M54.8125 150.04L53.1696 150.04" stroke="white" stroke-width="3" stroke-linecap="round" stroke-linejoin="round"/>
<path d="M49.7422 150.04L30.8887 150.04" stroke="white" stroke-width="3" stroke-linecap="round" stroke-linejoin="round"/>
<path d="M29.1797 150.04L27.5368 150.04" stroke="white" stroke-width="3" stroke-linecap="round" stroke-linejoin="round"/>
<path d="M195.781 150.04L54.8121 150.04" stroke="white" stroke-width="3" stroke-linecap="round" stroke-linejoin="round"/>
<path d="M224.203 150.04L222.56 150.04" stroke="white" stroke-width="3" stroke-linecap="round" stroke-linejoin="round"/>
<path d="M218.969 150.04L199.218 150.04" stroke="white" stroke-width="3" stroke-linecap="round" stroke-linejoin="round"/>
<path d="M197.422 150.04L195.779 150.04" stroke="white" stroke-width="3" stroke-linecap="round" stroke-linejoin="round"/>
<path d="M54.8984 254.971L53.2555 254.971" stroke="white" stroke-width="3" stroke-linecap="round" stroke-linejoin="round"/>
<path d="M49.7969 254.971L30.7962 254.971" stroke="white" stroke-width="3" stroke-linecap="round" stroke-linejoin="round"/>
<path d="M29.0781 254.971L27.4352 254.971" stroke="white" stroke-width="3" stroke-linecap="round" stroke-linejoin="round"/>
<path d="M195.781 254.971L54.8976 254.971" stroke="white" stroke-width="3" stroke-linecap="round" stroke-linejoin="round"/>
<path d="M224.102 254.971L222.459 254.971" stroke="white" stroke-width="3" stroke-linecap="round" stroke-linejoin="round"/>
<path d="M218.883 254.971L199.212 254.971" stroke="white" stroke-width="3" stroke-linecap="round" stroke-linejoin="round"/>
<path d="M197.422 254.971L195.779 254.971" stroke="white" stroke-width="3" stroke-linecap="round" stroke-linejoin="round"/>
<path d="M54.8103 202.518L195.781 202.518" stroke="white" stroke-width="3" stroke-linecap="round" stroke-linejoin="round" stroke-dasharray="6 6"/>
<path d="M195.781 36.2605L195.781 38.3202" stroke="white" stroke-width="3" stroke-linecap="round" stroke-linejoin="round"/>
<path d="M195.781 366.653L195.781 368.713" stroke="white" stroke-width="3" stroke-linecap="round" stroke-linejoin="round"/>
<path d="M54.8125 366.653L54.8125 368.713" stroke="white" stroke-width="3" stroke-linecap="round" stroke-linejoin="round"/>
<path d="M54.8125 36.2605L54.8125 38.3202" stroke="white" stroke-width="3" stroke-linecap="round" stroke-linejoin="round"/>
</g>
<defs>
<clipPath id="clip0_6145_6544">
<rect width="405" height="250" fill="white" transform="translate(250) rotate(90)"/>
</clipPath>
</defs>
</svg>
