<svg width="542" height="781" viewBox="0 0 542 781" fill="none" xmlns="http://www.w3.org/2000/svg">
<g clip-path="url(#clip0_5867_43611)">
<path d="M534.586 763.31L534.586 17.7609C534.586 11.9618 529.885 7.26086 524.086 7.26086L19.1924 7.26084C13.3934 7.26084 8.69244 11.9619 8.69244 17.7609L8.69241 763.31C8.69241 769.109 13.3935 773.81 19.1924 773.81L524.086 773.81C529.885 773.81 534.586 769.109 534.586 763.31Z" fill="#5B9958" stroke="#222E21" stroke-width="11"/>
<path d="M424.453 697.937L424.453 83.1339L118.832 83.1339L118.832 697.937L424.453 697.937Z" fill="#E19541"/>
<path d="M34.4062 752.919L29.3179 752.919L29.3179 747.831" stroke="white" stroke-width="3" stroke-linecap="round" stroke-linejoin="round"/>
<path d="M29.3125 737.767L29.3125 38.2721" stroke="white" stroke-width="3" stroke-linecap="round" stroke-linejoin="round"/>
<path d="M29.3179 33.2397L29.3179 28.1522L34.4062 28.1522" stroke="white" stroke-width="3" stroke-linecap="round" stroke-linejoin="round"/>
<path d="M44.5019 28.1522L503.836 28.1522" stroke="white" stroke-width="3" stroke-linecap="round" stroke-linejoin="round"/>
<path d="M508.88 28.1522L513.969 28.1522L513.969 33.2397" stroke="white" stroke-width="3" stroke-linecap="round" stroke-linejoin="round"/>
<path d="M513.969 43.3044L513.969 742.799" stroke="white" stroke-width="3" stroke-linecap="round" stroke-linejoin="round"/>
<path d="M513.969 747.831L513.969 752.919L508.88 752.919" stroke="white" stroke-width="3" stroke-linecap="round" stroke-linejoin="round"/>
<path d="M498.789 752.919L39.455 752.919" stroke="white" stroke-width="3" stroke-linecap="round" stroke-linejoin="round"/>
<path d="M424.453 697.937L424.453 83.1339L118.832 83.1339L118.832 697.937L424.453 697.937Z" stroke="white" stroke-width="3" stroke-linecap="round" stroke-linejoin="round"/>
<path d="M118.828 289.337L115.266 289.337" stroke="white" stroke-width="3" stroke-linecap="round" stroke-linejoin="round"/>
<path d="M107.836 289.337L66.9615 289.337" stroke="white" stroke-width="3" stroke-linecap="round" stroke-linejoin="round"/>
<path d="M63.25 289.337L59.6882 289.337" stroke="white" stroke-width="3" stroke-linecap="round" stroke-linejoin="round"/>
<path d="M424.453 289.337L118.832 289.337" stroke="white" stroke-width="3" stroke-linecap="round" stroke-linejoin="round"/>
<path d="M486.07 289.337L482.508 289.337" stroke="white" stroke-width="3" stroke-linecap="round" stroke-linejoin="round"/>
<path d="M474.719 289.337L431.898 289.337" stroke="white" stroke-width="3" stroke-linecap="round" stroke-linejoin="round"/>
<path d="M428.008 289.337L424.446 289.337" stroke="white" stroke-width="3" stroke-linecap="round" stroke-linejoin="round"/>
<path d="M119.016 491.685L115.454 491.685" stroke="white" stroke-width="3" stroke-linecap="round" stroke-linejoin="round"/>
<path d="M107.961 491.685L66.7674 491.685" stroke="white" stroke-width="3" stroke-linecap="round" stroke-linejoin="round"/>
<path d="M63.0312 491.685L59.4694 491.685" stroke="white" stroke-width="3" stroke-linecap="round" stroke-linejoin="round"/>
<path d="M424.453 491.685L119.017 491.685" stroke="white" stroke-width="3" stroke-linecap="round" stroke-linejoin="round"/>
<path d="M485.852 491.685L482.29 491.685" stroke="white" stroke-width="3" stroke-linecap="round" stroke-linejoin="round"/>
<path d="M474.539 491.685L431.892 491.685" stroke="white" stroke-width="3" stroke-linecap="round" stroke-linejoin="round"/>
<path d="M428.016 491.685L424.454 491.685" stroke="white" stroke-width="3" stroke-linecap="round" stroke-linejoin="round"/>
<path d="M118.828 390.535L424.453 390.535" stroke="white" stroke-width="3" stroke-linecap="round" stroke-linejoin="round" stroke-dasharray="6 6"/>
<path d="M424.453 69.9248L424.453 73.8967" stroke="white" stroke-width="3" stroke-linecap="round" stroke-linejoin="round"/>
<path d="M424.453 707.051L424.453 711.023" stroke="white" stroke-width="3" stroke-linecap="round" stroke-linejoin="round"/>
<path d="M118.828 707.051L118.828 711.023" stroke="white" stroke-width="3" stroke-linecap="round" stroke-linejoin="round"/>
<path d="M118.828 69.9247L118.828 73.8966" stroke="white" stroke-width="3" stroke-linecap="round" stroke-linejoin="round"/>
</g>
<defs>
<clipPath id="clip0_5867_43611">
<rect width="781" height="542" fill="white" transform="translate(542) rotate(90)"/>
</clipPath>
</defs>
</svg>
