<svg width="58" height="87" viewBox="0 0 58 87" fill="none" xmlns="http://www.w3.org/2000/svg">
<path d="M39.8644 34.3402V35.8671C39.8634 38.6884 38.7761 41.2578 36.9972 43.1764C35.8935 44.3668 34.5237 45.3072 32.9825 45.9029C31.7799 46.367 30.4732 46.622 29.1075 46.622C27.7366 46.622 26.4249 46.365 25.2182 45.8958C23.8126 45.3521 22.5499 44.5198 21.5024 43.4722C19.5562 41.5251 18.3516 38.8363 18.3516 35.8671V34.3075C18.3516 31.9595 18.3536 29.9572 18.3608 29.0729C18.3628 28.7751 18.3771 28.5007 18.3995 28.2508C18.4321 27.8805 18.4852 27.5602 18.5495 27.2828C18.8616 25.9333 19.4521 25.6069 19.4521 25.6069L19.5134 25.6824L19.8948 26.1526H38.3211L38.7638 25.6069C38.7638 25.6069 39.3442 25.9272 39.6584 27.2471C39.7706 27.7183 39.8481 28.3161 39.8542 29.0729C39.8624 29.9613 39.8644 31.9789 39.8644 34.3402Z" fill="#FFCEC0"/>
<path d="M18.5527 27.2828C18.4884 27.5603 18.4354 27.8805 18.4028 28.2508C18.3803 28.5007 18.366 28.7751 18.364 29.0729C18.3569 29.9573 18.3548 31.9595 18.3548 34.3076C17.9315 34.4697 17.4725 34.5585 16.9931 34.5585C14.8919 34.5585 13.1875 32.8551 13.1875 30.7539C13.1875 29.6309 13.6751 28.6211 14.4493 27.9244C15.1235 27.3185 16.0149 26.9493 16.9931 26.9493C17.1675 26.9493 17.3389 26.9605 17.5072 26.9829C17.8754 27.0339 18.2263 27.1359 18.5527 27.2828Z" fill="#FDB0A0"/>
<path d="M44.9477 30.7539C44.9477 31.5729 44.6886 32.3318 44.2479 32.953C43.5584 33.9251 42.4252 34.5585 41.1431 34.5585C40.6963 34.5585 40.2679 34.482 39.8701 34.3402C39.8701 31.9789 39.8681 29.9613 39.8599 29.0729C39.8538 28.3161 39.7763 27.7184 39.6641 27.2471C40.119 27.0554 40.6188 26.9493 41.1431 26.9493C42.2355 26.9493 43.2208 27.4103 43.9154 28.1478C44.556 28.8291 44.9477 29.7451 44.9477 30.7539Z" fill="#FDB0A0"/>
<path d="M43.909 23.9596V28.1478C43.2144 27.4103 42.2291 26.9493 41.1367 26.9493C40.6124 26.9493 40.1126 27.0553 39.6577 27.2471C39.3435 25.9272 38.7631 25.6069 38.7631 25.6069L38.3205 26.1526H19.8941L19.5127 25.6824L19.4515 25.6069C19.4515 25.6069 18.8609 25.9333 18.5488 27.2828C18.2224 27.1359 17.8715 27.0339 17.5033 26.9829C17.335 26.9605 17.1636 26.9493 16.9892 26.9493C16.011 26.9493 15.1195 27.3185 14.4453 27.9244V23.9596C14.4453 18.5526 17.8195 13.934 22.5778 12.095C23.9996 11.5452 25.545 11.2433 27.1606 11.2433H31.1937C32.737 11.2433 34.216 11.5187 35.5848 12.0226C40.4431 13.8096 43.909 18.4802 43.909 23.9596Z" fill="#7A7179"/>
<path d="M43.9138 23.9596V28.1478C43.2192 27.4103 42.2338 26.9493 41.1414 26.9493C40.8477 26.9493 40.561 26.9829 40.2856 27.0461V23.9596C40.2856 18.4802 36.8197 13.8096 31.9614 12.0226C30.5926 11.5187 29.1136 11.2433 27.5703 11.2433H31.1985C32.7417 11.2433 34.2207 11.5187 35.5896 12.0226C40.4478 13.8096 43.9138 18.4802 43.9138 23.9596Z" fill="#685E67"/>
<path d="M32.983 45.9029V49.5678C32.983 51.6751 31.2745 53.3836 29.1672 53.3836H29.0346C26.9272 53.3836 25.2188 51.6751 25.2188 49.5678V45.8958C26.4254 46.3649 27.7371 46.622 29.108 46.622C30.4738 46.622 31.7804 46.367 32.983 45.9029Z" fill="#FDB0A0"/>
<path d="M35.5852 11.4799V12.0226C34.2163 11.5187 32.7373 11.2433 31.1941 11.2433H27.161C25.5453 11.2433 24 11.5452 22.5781 12.095V11.4799C22.5781 8.16493 25.2658 5.47723 28.5798 5.47723H29.5835C32.8975 5.47723 35.5852 8.16493 35.5852 11.4799Z" fill="#685E67"/>
<path d="M23.6971 32.6341C24.3324 32.6341 24.8474 32.0646 24.8474 31.3621C24.8474 30.6597 24.3324 30.0902 23.6971 30.0902C23.0619 30.0902 22.5469 30.6597 22.5469 31.3621C22.5469 32.0646 23.0619 32.6341 23.6971 32.6341Z" fill="#685E67"/>
<path d="M34.4862 32.6341C35.1215 32.6341 35.6365 32.0646 35.6365 31.3621C35.6365 30.6597 35.1215 30.0902 34.4862 30.0902C33.8509 30.0902 33.3359 30.6597 33.3359 31.3621C33.3359 32.0646 33.8509 32.6341 34.4862 32.6341Z" fill="#685E67"/>
<path d="M23.5633 36.7116C24.6425 36.7116 25.5173 36.0084 25.5173 35.141C25.5173 34.2737 24.6425 33.5705 23.5633 33.5705C22.4842 33.5705 21.6094 34.2737 21.6094 35.141C21.6094 36.0084 22.4842 36.7116 23.5633 36.7116Z" fill="#FCB5BA"/>
<path d="M34.618 36.7116C35.6972 36.7116 36.572 36.0084 36.572 35.141C36.572 34.2737 35.6972 33.5705 34.618 33.5705C33.5389 33.5705 32.6641 34.2737 32.6641 35.141C32.6641 36.0084 33.5389 36.7116 34.618 36.7116Z" fill="#FCB5BA"/>
<path d="M26.9414 38.9384H31.2476C31.5731 38.9384 31.8374 39.2027 31.8374 39.5283V40.5532C31.8374 42.0671 30.6084 43.2962 29.0945 43.2962C27.5806 43.2962 26.3516 42.0671 26.3516 40.5532V39.5283C26.3516 39.2027 26.6159 38.9384 26.9414 38.9384Z" fill="#FB6672"/>
<path d="M48.6464 37.4338C48.6249 39.0271 47.3642 42.3002 43.3383 43.9598C41.2748 44.8094 38.2944 43.9883 37 43.1764C38.7789 41.2578 39.8662 38.6884 39.8672 35.8671V34.3402C40.265 34.4819 40.6934 34.5584 41.1402 34.5584C42.4223 34.5584 43.5555 33.925 44.245 32.953L46.5237 31.4015C47.4275 30.7865 48.6515 31.4321 48.6535 32.5256C48.6576 34.3187 48.6586 36.5454 48.6464 37.4338Z" fill="#7A7179"/>
<path d="M45.1258 51.9882C44.4383 52.5982 42.9379 54.1802 42.7839 56.4579C42.7054 57.6258 42.6788 61.6915 42.6758 66.1907C42.6697 72.0934 42.7043 78.7428 42.7145 80.5696H15.505C15.5152 78.7428 15.5499 72.0934 15.5438 66.1907C15.5407 61.6915 15.5142 57.6258 15.4357 56.4579C15.2816 54.1802 13.7812 52.5982 13.0938 51.9882C16.0477 49.5259 19.3147 48.8925 20.1246 48.8925H21.3272V49.4678C21.3272 53.7436 24.7942 57.2096 29.07 57.2096C33.3458 57.2096 36.8118 53.7436 36.8118 49.4678V48.8925H38.0949C38.9049 48.8925 42.1719 49.5259 45.1258 51.9882Z" fill="#FF5C00"/>
<path d="M50.4898 66.1907H42.6797C42.6828 61.6915 42.7093 57.6258 42.7878 56.4579C42.9418 54.1802 44.4423 52.5982 45.1297 51.9882C46.4527 53.0898 47.7124 54.5596 48.6599 56.5017C49.837 58.9201 50.0441 61.87 50.1022 62.5187C50.1185 62.6982 50.2746 64.165 50.4898 66.1907Z" fill="#F8F3F1"/>
<path d="M50.4348 80.5696H42.7113C42.7012 78.7428 42.6665 72.0934 42.6726 66.1907H50.4827C50.903 70.1177 51.5517 76.1479 51.8567 78.9876C51.9474 79.8332 51.2855 80.5696 50.4348 80.5696Z" fill="#FDB0A0"/>
<path d="M15.5052 80.5696H7.78177C6.9321 80.5696 6.2691 79.8332 6.35989 78.9876C6.66487 76.1479 7.3136 70.1177 7.73383 66.1907H15.544C15.5501 72.0934 15.5154 78.7428 15.5052 80.5696Z" fill="#FDB0A0"/>
<path d="M15.5445 66.1907H7.73438C7.94961 64.165 8.10564 62.6982 8.12198 62.5187C8.1801 61.87 8.38719 58.9201 9.56425 56.5017C10.5118 54.5596 11.7715 53.0898 13.0945 51.9882C13.782 52.5982 15.2824 54.1802 15.4364 56.4579C15.5149 57.6258 15.5415 61.6915 15.5445 66.1907Z" fill="#F8F3F1"/>
<path d="M31.2577 64.9373H26.9074C26.0481 64.9373 25.3516 65.6339 25.3516 66.4931V71.8463C25.3516 72.7055 26.0481 73.4021 26.9074 73.4021H31.2577C32.117 73.4021 32.8135 72.7055 32.8135 71.8463V66.4931C32.8135 65.6339 32.117 64.9373 31.2577 64.9373Z" fill="#F8F3F1"/>
<path d="M37.2803 60.3363H35.0978C34.4829 60.3363 33.9844 60.8348 33.9844 61.4497C33.9844 62.0646 34.4829 62.5631 35.0978 62.5631H37.2803C37.8952 62.5631 38.3937 62.0646 38.3937 61.4497C38.3937 60.8348 37.8952 60.3363 37.2803 60.3363Z" fill="#FF5C00"/>
<path d="M36.8127 48.8925V49.4678C36.8127 53.7436 33.3468 57.2096 29.0709 57.2096C24.7951 57.2096 21.3281 53.7436 21.3281 49.4678V48.8925H25.2215V49.5678C25.2215 51.6751 26.93 53.3836 29.0373 53.3836H29.1699C31.2772 53.3836 32.9857 51.6751 32.9857 49.5678V48.8925H36.8127Z" fill="#F8F3F1"/>
<path d="M21.0344 17.3245C20.5815 16.9022 19.8716 16.9267 19.4483 17.3796C19.3524 17.4816 17.1054 19.9327 17.141 23.6128C17.1564 25.2611 17.3063 26.3077 17.5093 26.9829C17.8775 27.0339 18.2284 27.1359 18.5548 27.2828C18.8669 25.9333 19.4575 25.6069 19.4575 25.6069L19.5187 25.6824C19.4534 25.2336 19.3953 24.5655 19.385 23.5904C19.3585 20.8425 21.063 18.9392 21.0925 18.9076C21.5118 18.4537 21.4863 17.7468 21.0344 17.3245Z" fill="#554E55"/>
<path d="M38.6799 17.3796C38.2566 16.9267 37.5446 16.9002 37.0917 17.3235C36.6389 17.7458 36.6123 18.4537 37.0356 18.9066C37.053 18.9259 38.7696 20.8323 38.7431 23.5904C38.7319 24.6767 38.6605 25.3825 38.585 25.8283L38.7645 25.6069C38.7645 25.6069 39.3449 25.9272 39.6591 27.2471C39.961 27.1196 40.2813 27.0309 40.6169 26.985C40.8209 26.3097 40.9708 25.2632 40.9871 23.6128C41.0228 19.9327 38.7747 17.4816 38.6799 17.3796Z" fill="#554E55"/>
<path d="M29.8459 36.9414H27.8329C27.5131 36.9414 27.2085 36.8049 26.9956 36.5662C26.7827 36.3276 26.6818 36.0094 26.7182 35.6916L27.3598 30.0952C27.4303 29.4795 27.9871 29.038 28.6022 29.1082C29.2179 29.1788 29.6597 29.7351 29.5892 30.3507L29.0909 34.6974H29.8459C30.4656 34.6974 30.9679 35.1997 30.9679 35.8194C30.9679 36.4391 30.4656 36.9414 29.8459 36.9414Z" fill="#FDB0A0"/>
<path d="M35.5855 11.4799V12.0226C34.389 11.5819 33.1089 11.3167 31.7758 11.2566C31.6769 8.52295 29.7491 6.25651 27.1797 5.64247C27.6295 5.53435 28.0977 5.47723 28.5801 5.47723H29.5838C32.8978 5.47723 35.5855 8.16493 35.5855 11.4799Z" fill="#554E55"/>
<path d="M48.6419 37.4338C48.6204 39.0271 47.3597 42.3002 43.3338 43.9598C42.2067 44.4239 40.8052 44.3892 39.5547 44.1301C39.7281 44.0832 39.8964 44.0271 40.0596 43.9598C44.0855 42.3002 45.3463 39.0271 45.3677 37.4338C45.3799 36.5454 45.3789 34.3187 45.3748 32.5256C45.3748 32.4144 45.3615 32.3073 45.3381 32.2063L46.5192 31.4015C47.423 30.7865 48.647 31.4321 48.649 32.5256C48.6531 34.3187 48.6541 36.5454 48.6419 37.4338Z" fill="#685E67"/>
<path d="M32.983 45.9029V48.7273C31.7804 49.1914 30.4738 49.4464 29.108 49.4464C27.7371 49.4464 26.4254 49.1893 25.2188 48.7201V45.8958C26.4254 46.3649 27.7371 46.622 29.108 46.622C30.4738 46.622 31.7804 46.367 32.983 45.9029Z" fill="#F69583"/>
<path d="M32.8165 66.4936V71.8466C32.8165 72.7055 32.1198 73.4021 31.261 73.4021H28.2969C29.1557 73.4021 29.8524 72.7055 29.8524 71.8466V66.4936C29.8524 65.6338 29.1557 64.9371 28.2969 64.9371H31.261C32.1198 64.9371 32.8165 65.6338 32.8165 66.4936Z" fill="#E5E1E5"/>
<path d="M50.4838 66.1907H46.2988C46.0835 64.165 45.9275 62.6982 45.9112 62.5187C45.853 61.87 45.646 58.9201 44.4689 56.5017C44.1099 55.7663 43.7069 55.0992 43.2734 54.4944C43.813 53.2673 44.6566 52.4034 45.1237 51.9882C46.4467 53.0898 47.7064 54.5596 48.6539 56.5017C49.831 58.9201 50.0381 61.87 50.0962 62.5187C50.1125 62.6982 50.2686 64.165 50.4838 66.1907Z" fill="#E5E1E5"/>
<path d="M45.1275 51.9882C44.6604 52.4034 43.8168 53.2673 43.2772 54.4944C42.5622 53.4999 41.7646 52.6726 40.9425 51.9882C39.5369 50.8173 38.061 50.0594 36.8125 49.5871C36.8135 49.5474 36.8135 49.5076 36.8135 49.4678V48.8925H38.0967C38.9066 48.8925 42.1736 49.5259 45.1275 51.9882Z" fill="#FF5C00"/>
<path d="M36.8081 48.8925V49.4678C36.8081 49.5076 36.8081 49.5474 36.8071 49.5871C35.4311 49.0669 34.3306 48.8925 33.9062 48.8925H36.8081Z" fill="#F8F3F1"/>
<path d="M50.434 80.5696H47.8237C47.8237 80.5696 46.7171 70.1177 46.2969 66.1907H50.4819C50.9022 70.1177 51.5509 76.1479 51.8559 78.9876C51.9466 79.8332 51.2847 80.5696 50.434 80.5696Z" fill="#F69583"/>
</svg>
