<svg width="126" height="52" viewBox="0 0 126 52" fill="none" xmlns="http://www.w3.org/2000/svg">
<path d="M35.0533 5.94287H48.5616C48.5616 5.94287 39.5754 38.3986 39.1309 40.1572C38.2806 43.5376 37.4303 46.5858 29.2557 46.5858C19.4192 46.5858 13.699 46.5467 11.0128 46.5858C7.65021 46.6249 3.66923 43.479 4.75144 39.4342L13.9695 5.94287H27.7484C27.7484 5.94287 20.0183 33.8458 19.8444 34.5688C19.7091 35.2918 18.9168 37.2848 23.207 37.3239C26.299 37.4021 26.5502 36.5619 27.0913 34.5688C28.4054 30.0746 35.0533 5.94287 35.0533 5.94287ZM84.6803 5.94287L82.226 14.8531H52.8131L55.2674 5.94287H84.6803ZM44.0781 46.6054L51.1318 20.969H80.5447L78.0711 29.8792H62.3018L57.7024 46.6054H44.0781ZM99.4833 20.2656C98.2272 24.9552 97.1064 28.9413 95.8502 33.6504C95.6183 34.4711 95.0579 35.6826 95.2318 36.4446C95.599 38.2423 101.455 37.5389 103.58 37.5389H112.972C112.219 40.5285 111.368 43.4594 110.557 46.3904H88.1781C84.9122 46.0778 80.6606 44.6709 81.0665 40.4112C81.2018 39.063 81.8202 37.5584 82.226 36.0734C84.2358 28.8045 86.2843 21.3794 88.2168 14.2473C89.0671 11.0819 89.7435 8.4049 92.2364 7.11526C93.8404 6.29459 96.3913 6.04057 98.3045 5.94287H120.528C119.736 8.89339 118.924 11.8635 118.113 14.7944H105.339C103.812 14.7944 102.112 14.6186 101.261 15.2048C100.334 15.8887 99.8312 18.9955 99.4833 20.2656Z" fill="#454545"/>
</svg>
