<svg width="40" height="63" viewBox="0 0 40 63" fill="none" xmlns="http://www.w3.org/2000/svg">
<path d="M33.6889 3.18923V6.27793C33.6889 6.8173 33.2556 7.25064 32.7162 7.25064H22.7817C22.5419 5.56338 22.2976 3.87151 22.0625 2.21191H32.7162C33.2556 2.21191 33.6889 2.64986 33.6889 3.18462V3.18923Z" fill="#DD2C00"/>
<path d="M17.1272 2.21655C16.8828 3.87154 16.6293 5.56342 16.3757 7.25529H6.23833C5.69896 7.25529 5.26562 6.81734 5.26562 6.28258V3.19388C5.26562 2.65451 5.70357 2.22117 6.23833 2.22117H17.1272V2.21655Z" fill="#DD2C00"/>
<path d="M28.266 30.1625C26.8922 29.8721 26.2099 29.4111 25.9517 28.1848C25.7305 27.2812 24.9836 22.39 24.0801 16.208C23.9556 15.3598 23.8312 14.4885 23.6975 13.5988C23.3978 11.5473 23.0889 9.40366 22.7801 7.25079C22.5404 5.56353 22.296 3.87166 22.0609 2.21206C22.0609 2.1844 22.0517 2.15674 22.0517 2.12908C21.6506 -0.701464 17.5708 -0.710683 17.1467 2.11525C17.142 2.14752 17.1374 2.17979 17.1328 2.21206C16.8885 3.86705 16.6349 5.55892 16.3814 7.25079C16.0587 9.40366 15.736 11.5473 15.4271 13.5988C15.2934 14.4885 15.1597 15.3598 15.0307 16.208C14.0856 22.39 13.3157 27.2812 13.0945 28.1848C12.8317 29.4111 12.1494 29.8721 10.7802 30.1625C9.40647 30.4529 4.87483 30.8079 6.49294 34.436C6.58053 34.6296 6.68196 34.8647 6.80182 35.1275C8.10184 38.0871 11.1398 45.1911 13.2143 50.0454C13.6338 51.0227 14.0118 51.9125 14.3299 52.6547C14.4913 53.0373 14.6388 53.3831 14.7679 53.6827H24.2829C24.412 53.3831 24.5595 53.0373 24.7209 52.6547C25.039 51.9125 25.417 51.0227 25.8365 50.0454C27.8603 45.3017 30.8107 38.419 32.1568 35.3441C32.3136 34.9845 32.4472 34.6803 32.5579 34.436C34.176 30.8079 29.6444 30.4575 28.2706 30.1625H28.266ZM23.301 41.351C23.301 41.6137 23.0843 41.8304 22.8216 41.8304H16.386C16.1186 41.8304 15.9066 41.6137 15.9066 41.351V39.8804C15.9066 39.613 16.1232 39.4009 16.386 39.4009H22.8216C23.0889 39.4009 23.301 39.6176 23.301 39.8804V41.351ZM23.5499 35.5424C23.5499 35.6761 23.4439 35.7821 23.3102 35.7821H15.8144C15.6807 35.7821 15.5746 35.6761 15.5746 35.5424V28.9132C15.5746 26.7096 17.3587 24.9255 19.5623 24.9255C20.6641 24.9255 21.6598 25.3727 22.3836 26.0919C23.1074 26.8156 23.5499 27.8114 23.5499 28.9086V35.5377V35.5424Z" fill="#FF3D00"/>
<path d="M32.5726 53.6826H6.52148C5.89261 53.6826 5.38281 54.1924 5.38281 54.8213V61.7455C5.38281 62.3744 5.89261 62.8842 6.52148 62.8842H32.5726C33.2015 62.8842 33.7113 62.3744 33.7113 61.7455V54.8213C33.7113 54.1924 33.2015 53.6826 32.5726 53.6826Z" fill="#FF3D00"/>
<path d="M23.5456 28.9178V35.547C23.5456 35.6807 23.4396 35.7867 23.3059 35.7867H15.81C15.6763 35.7867 15.5703 35.6807 15.5703 35.547V28.9178C15.5703 26.7142 17.3544 24.9302 19.558 24.9302C20.6598 24.9302 21.6555 25.3773 22.3793 26.0965C23.103 26.8203 23.5456 27.816 23.5456 28.9132V28.9178Z" fill="#3E2723"/>
<path d="M16.3825 39.4053H22.8181C23.0808 39.4053 23.2975 39.6219 23.2975 39.8847V41.3553C23.2975 41.6181 23.0808 41.8347 22.8181 41.8347H16.3779C16.1151 41.8347 15.8984 41.6181 15.8984 41.3553V39.8893C15.8984 39.6266 16.1151 39.4099 16.3779 39.4099L16.3825 39.4053Z" fill="#3E2723"/>
<path d="M15.423 13.5986C15.2893 14.4884 15.1556 15.3597 15.0265 16.2079H10.6562V13.5986H15.423Z" fill="#546E7A"/>
<path d="M3.21168 8.47241H8.65147C9.75787 8.47241 10.6522 9.37136 10.6522 10.4732V19.2137C10.6522 20.3201 9.75787 21.2145 8.65147 21.2145H3.21168C2.10528 21.2145 1.21094 20.3155 1.21094 19.2137V10.4732C1.21094 9.36675 2.10528 8.47241 3.21168 8.47241Z" fill="#37474F"/>
<path d="M9.44127 46.9199V53.6782H6.51853C5.88696 53.6782 5.37986 54.1899 5.37986 54.8168V57.6566H2.00074C0.894338 57.6566 0 56.7623 0 55.6559V46.9153C0 45.8089 0.898948 44.9146 2.00074 44.9146H7.44053C8.54693 44.9146 9.44127 45.8089 9.44127 46.9153V46.9199Z" fill="#37474F"/>
<path d="M39.1646 46.9197V55.6603C39.1646 56.7667 38.2703 57.661 37.1639 57.661H33.7064V54.8213C33.7064 54.1897 33.1947 53.6826 32.5677 53.6826H29.7188V46.9243C29.7188 45.8179 30.6131 44.9236 31.7195 44.9236H37.1593C38.2657 44.9236 39.16 45.8179 39.16 46.9243L39.1646 46.9197Z" fill="#37474F"/>
<path d="M29.7174 50.0454V52.6547H24.7109C25.029 51.9125 25.4071 51.0227 25.8266 50.0454H29.7174Z" fill="#263238"/>
<path d="M28.3528 13.5986V16.2079H24.0701C23.9457 15.3597 23.8212 14.4884 23.6875 13.5986H28.3528Z" fill="#546E7A"/>
<path d="M30.3601 8.47241H35.7999C36.9063 8.47241 37.8007 9.36675 37.8007 10.4732V19.2137C37.8007 20.3201 36.9063 21.2145 35.7999 21.2145H30.3601C29.2537 21.2145 28.3594 20.3155 28.3594 19.2137V10.4732C28.3594 9.36675 29.2537 8.47241 30.3601 8.47241Z" fill="#37474F"/>
<path d="M14.7574 53.6826H9.4375V52.6545H14.3195C14.4808 53.0372 14.6284 53.3829 14.7574 53.6826Z" fill="#546E7A"/>
<path d="M14.3195 52.6547H9.4375V50.0454H13.2039C13.6234 51.0227 14.0014 51.9125 14.3195 52.6547Z" fill="#263238"/>
<path d="M9.44301 50.0454V46.9198C9.44301 45.8134 8.54867 44.9191 7.44227 44.9191H6.79688V35.1274C8.09689 38.0871 11.1349 45.1911 13.2094 50.0454H9.44301Z" fill="#546E7A"/>
<path d="M32.1484 35.344V44.919H31.7197C30.6133 44.919 29.719 45.8133 29.719 46.9197V50.0453H25.8281C27.8519 45.3016 30.8023 38.4189 32.1484 35.344Z" fill="#546E7A"/>
<path d="M29.7178 52.6545V53.6826H24.2734C24.4025 53.3829 24.55 53.0372 24.7114 52.6545H29.7178Z" fill="#546E7A"/>
<path opacity="0.2" d="M28.2684 30.1623C26.8946 29.8719 26.2123 29.4109 25.9541 28.1846C25.7328 27.2811 24.986 22.3899 24.0825 16.2079C23.958 15.3596 23.8335 14.4883 23.6998 13.5986C23.4002 11.5471 23.0913 9.40349 22.7825 7.25062C22.5427 5.56336 22.2984 3.87149 22.0633 2.2119C22.0633 2.18424 22.0541 2.15657 22.0541 2.12891C21.7913 0.271082 19.9381 -0.374318 18.5781 0.206542C19.2927 0.510802 19.8689 1.15159 20.0072 2.12891C20.0072 2.15657 20.0165 2.18424 20.0165 2.2119C20.2516 3.86688 20.4959 5.55875 20.7356 7.25062C21.0445 9.40349 21.3534 11.5471 21.653 13.5986C21.7821 14.4883 21.9112 15.3596 22.0356 16.2079C22.9438 22.3899 23.686 27.2811 23.9073 28.1846C24.1701 29.4109 24.8523 29.8719 26.2215 30.1623C27.5907 30.4528 32.1269 30.8077 30.5088 34.4358C30.3982 34.6801 30.2645 34.989 30.1077 35.344C28.7616 38.4188 25.8112 45.3062 23.7874 50.0452C23.3679 51.0226 22.9899 51.9123 22.6718 52.6545C22.5105 53.0371 22.3629 53.3829 22.2339 53.6825H24.2807C24.4098 53.3829 24.5573 53.0371 24.7186 52.6545C25.0367 51.9123 25.4148 51.0226 25.8343 50.0452C27.8581 45.3016 30.8085 38.4188 32.1546 35.344C32.3113 34.9844 32.445 34.6801 32.5556 34.4358C34.1738 30.8077 29.6421 30.4574 28.2684 30.1623Z" fill="#231F20"/>
<path opacity="0.2" d="M10.6578 10.4777V19.2136C10.6578 20.32 9.76347 21.2144 8.65707 21.2144H7.21875C8.32515 21.2144 9.21949 20.3154 9.21949 19.2136V10.4777C9.21949 9.37127 8.32515 8.47693 7.21875 8.47693H8.65707C9.76347 8.47693 10.6578 9.37588 10.6578 10.4777Z" fill="#231F20"/>
<path opacity="0.2" d="M9.44638 46.9197V53.6779H8.1648V46.9197C8.1648 45.8133 7.27046 44.9189 6.16406 44.9189H7.44564C8.55204 44.9189 9.44638 45.8133 9.44638 46.9197Z" fill="#231F20"/>
<path opacity="0.2" d="M39.1747 46.9197V55.6602C39.1747 56.7666 38.2804 57.661 37.174 57.661H35.625C36.7314 57.661 37.6258 56.7666 37.6258 55.6602V46.9197C37.6258 45.8133 36.7314 44.9189 35.625 44.9189H37.174C38.2804 44.9189 39.1747 45.8133 39.1747 46.9197Z" fill="#231F20"/>
<path opacity="0.2" d="M37.8101 10.4777V19.2136C37.8101 20.32 36.9157 21.2144 35.8093 21.2144H34.0391C35.1455 21.2144 36.0398 20.3154 36.0398 19.2136V10.4777C36.0398 9.37127 35.1455 8.47693 34.0391 8.47693H35.8093C36.9157 8.47693 37.8101 9.37588 37.8101 10.4777Z" fill="#231F20"/>
</svg>
