<svg width="732" height="459" viewBox="0 0 732 459" fill="none" xmlns="http://www.w3.org/2000/svg">
<g clip-path="url(#clip0_5539_14051)">
<path d="M262.177 108.718C277.847 140.179 291.813 172.681 306.82 204.426C311.744 214.881 316.431 225.952 322.159 236.029C326.136 244.828 330.87 254.48 337.971 261.103C343.984 268.341 355.109 270.186 364.009 268.531C372.057 266.875 379.348 262.475 386.307 258.312C397.007 251.31 408.274 244.686 418.831 237.401C470.718 202.249 432.229 174.479 458.362 134.265C469.676 116.004 490.98 104.46 512.284 103.135C522.131 101.669 532.641 102.804 542.488 101.763C554.418 100.865 566.348 98.0733 577.805 94.8089C597.073 88.7059 615.726 79.7644 634.047 71.5798C644.273 65.5241 657.955 62.9694 663.305 51.615C668.654 38.936 663.257 27.4397 680.963 22.8033C687.544 21.384 693.935 24.0334 700.042 25.5946C706.244 27.1558 712.493 27.6762 718.647 27.4397C727.311 25.4054 731.43 15.5176 723.76 8.84691C718.316 4.77827 711.025 4.16324 704.681 4.21055C594.848 7.71148 484.447 6.24487 374.661 7.94803C307.152 8.2792 239.737 8.56305 172.464 8.42112C163.943 8.70498 157.788 15.3757 158.972 23.7495C162.901 31.3664 166.594 40.4026 160.818 47.9248C158.262 53.0343 152.154 55.589 147.799 58.6169C139.467 64.1521 130.14 68.3627 122.708 74.8914C110.541 83.6438 102.019 96.2755 93.8766 108.339C80.5262 128.352 70.7264 150.303 62.2522 172.444C36.3562 238.205 14.3896 306.378 8.42453 376.775C6.81491 392.861 4.21111 408.52 4.25845 424.133C6.81491 440.171 16.378 440.171 29.8231 440.833C43.3155 444.949 44.9725 454.506 60.0272 454.742C69.2588 454.553 78.3485 451.194 86.5386 448.213C95.5809 445.138 104.86 439.65 106.99 430.094C109.594 414.765 97.4273 399.484 89.8052 387.373C81.7098 373.89 73.5669 360.359 66.0869 346.97C41.8952 307.041 53.778 249.417 94.0186 225.289C103.866 217.673 120.293 207.69 129.336 220.653C132.934 226.567 133.738 233.521 135.822 239.719C138.425 251.026 149.125 259.494 160.487 258.264C169.813 257.271 179.092 253.723 186.998 249.417C204.183 240.618 201.721 218.619 193.957 204.331C185.294 185.313 171.849 168.896 162.333 150.918C153.906 137.577 144.722 120.167 153.054 105.406C155.516 97.9786 161.481 92.3961 166.546 87.2866C170.949 82.0825 175.541 76.8785 180.039 72.4313C191.638 59.09 206.503 38.8413 226.055 46.9313C239.074 53.5074 244.708 68.4573 249.773 80.8525C253.371 90.5983 258.058 99.4452 262.177 108.718Z" stroke="#374151" stroke-width="7.8545" stroke-miterlimit="3.9273"/>
<path d="M262.18 108.718C279.601 143.917 295.272 180.061 311.936 215.544C327.748 246.863 338.921 286.65 381.671 261.056C405.815 244.45 438.954 232.197 447.192 201.114C450.032 188.104 447.334 174.715 448.139 161.61C450.932 140.463 464.329 121.634 482.982 111.462C503.387 99.4453 527.957 103.987 550.397 100.77C577.477 97.2691 602.994 85.8201 627.564 74.2765" stroke="#EF4444" stroke-width="5" stroke-miterlimit="3.9273"/>
<path d="M627.515 74.3711C634.048 71.6744 640.771 68.2681 647.02 65.0984C653.553 62.4017 660.323 58.3331 663.306 51.6151C666.619 45.5121 665.199 37.8479 668.419 31.6503C671.78 25.0269 680.775 21.2895 687.923 22.8034C692.61 22.6141 697.25 25.3581 701.889 26.0678C708.044 26.9666 714.956 28.8117 720.968 26.5409C733.182 21.0529 727.832 7.85347 715.855 5.15681C708.091 3.59559 699.996 4.39986 692.137 4.68372C682.1 4.77834 671.922 5.15681 661.933 5.62991C501.018 6.95459 340.008 8.61043 178.998 8.42119C166.453 7.04921 154.854 13.5307 160.393 27.4871C170.903 43.667 156.653 54.4537 143.208 61.4082C127.112 70.5863 111.536 81.7514 101.358 97.6475C81.2373 124.614 68.0762 155.839 56.7142 187.3C33.422 246.626 15.0533 308.46 8.85156 372.092" stroke="#3B82F6" stroke-width="5" stroke-miterlimit="3.9273"/>
<path d="M8.8566 372.092C7.48369 383.257 6.58419 394.895 5.1166 406.013C4.40647 416.421 1.51862 429.431 10.7029 437.143C15.4371 440.502 21.4022 440.502 26.9885 440.407C30.7285 440.786 34.2792 442.773 37.6878 444.145C50.7542 456.398 61.5481 457.108 78.1178 451.099C97.3859 446.132 114.476 435.582 104.629 413.488C99.753 400.762 90.8054 389.975 84.1775 378.195C74.5671 360.974 62.2582 344.416 56.7666 325.255C50.8488 304.25 53.6894 281.21 61.8795 261.15C71.4426 241.328 89.0064 226.378 108.369 216.537C118.879 210.955 130.667 216.726 132.561 228.601C136.254 242.794 140.136 257.555 157.652 258.312C164.564 258.738 171.334 256.041 177.63 253.675C188.992 250.6 199.644 241.422 199.928 229.074C200.496 213.225 191.644 198.985 183.643 185.88C175.358 172.492 166.552 159.292 159.025 145.478C149.699 130.812 145.533 114.064 156.232 99.0195C164.848 88.1383 174.79 78.1559 184.116 67.8897C190.176 60.3201 197.183 52.9398 205.515 47.9249C214.794 43.5724 227.481 44.2821 233.872 53.0344C241.731 60.5093 245.708 71.0594 249.685 80.8999C253.283 90.3145 258.112 99.5399 262.23 108.765" stroke="#FBBF24" stroke-width="5" stroke-miterlimit="3.9273"/>
</g>
<defs>
<clipPath id="clip0_5539_14051">
<rect width="732" height="459" fill="white"/>
</clipPath>
</defs>
</svg>
