<svg width="357" height="225" viewBox="0 0 357 225" fill="none" xmlns="http://www.w3.org/2000/svg">
<g clip-path="url(#clip0_6203_5461)">
<path d="M127.867 53.5419C135.509 68.8992 142.32 84.7646 149.639 100.26C152.041 105.364 154.326 110.768 157.12 115.687C159.06 119.982 161.369 124.693 164.832 127.927C167.764 131.46 173.19 132.361 177.531 131.552C181.456 130.744 185.012 128.596 188.406 126.564C193.624 123.146 199.119 119.913 204.268 116.357C229.573 99.1981 210.802 85.6421 223.547 66.0125C229.065 57.0983 239.455 51.4635 249.845 50.8169C254.648 50.101 259.773 50.6552 264.576 50.1472C270.394 49.7084 276.213 48.3459 281.8 46.7524C291.197 43.7733 300.294 39.4086 309.23 35.4134C314.217 32.4574 320.89 31.2104 323.499 25.6679C326.108 19.4788 323.475 13.867 332.111 11.6038C335.32 10.911 338.437 12.2043 341.416 12.9664C344.44 13.7285 347.488 13.9825 350.489 13.867C354.715 12.874 356.723 8.04742 352.983 4.79122C350.328 2.80516 346.772 2.50494 343.678 2.52804C290.112 4.23697 236.269 3.52106 182.726 4.35244C149.801 4.51409 116.922 4.65265 84.1132 4.58337C79.9572 4.72193 76.9556 7.97814 77.5328 12.0657C79.4492 15.7838 81.2502 20.1947 78.4333 23.8666C77.1865 26.3607 74.2081 27.6078 72.0839 29.0857C68.0202 31.7877 63.4717 33.843 59.8468 37.03C53.9129 41.3023 49.7569 47.4683 45.7857 53.3572C39.2746 63.1258 34.4952 73.8413 30.3623 84.6491C17.7327 116.749 7.01945 150.027 4.11026 184.391C3.32523 192.242 2.05535 199.886 2.07844 207.507C3.32523 215.336 7.98919 215.336 14.5464 215.659C21.1268 217.669 21.9349 222.333 29.2771 222.449C33.7795 222.357 38.2125 220.717 42.2069 219.262C46.6169 217.761 51.1423 215.082 52.1813 210.417C53.4512 202.935 47.5173 195.476 43.8 189.564C39.8518 182.982 35.8805 176.377 32.2325 169.842C20.4341 150.351 26.2294 122.222 45.8549 110.445C50.6574 106.727 58.6692 101.854 63.0792 108.182C64.834 111.068 65.2265 114.463 66.2424 117.488C67.5123 123.008 72.7304 127.141 78.2717 126.541C82.8202 126.056 87.3456 124.324 91.2015 122.222C99.5827 117.927 98.3821 107.188 94.5955 100.214C90.3703 90.9306 83.813 82.9171 79.1722 74.1415C75.0623 67.6291 70.5831 59.1306 74.6467 51.9254C75.8474 48.2997 78.7566 45.5746 81.2271 43.0805C83.3743 40.5402 85.614 37.9999 87.8074 35.8291C93.4642 29.3167 100.714 19.4326 110.25 23.3816C116.599 26.5916 119.347 33.8892 121.817 39.9398C123.572 44.6971 125.858 49.0156 127.867 53.5419Z" stroke="#374151" stroke-width="6" stroke-miterlimit="3.9273"/>
<path d="M127.866 53.5417C136.363 70.7234 144.005 88.3669 152.133 105.687C159.844 120.975 165.293 140.397 186.143 127.903C197.918 119.797 214.08 113.816 218.097 98.6436C219.483 92.2928 218.167 85.7573 218.559 79.3604C219.922 69.0375 226.456 59.8462 235.553 54.8811C245.504 49.0153 257.487 51.2323 268.431 49.6619C281.638 47.953 294.083 42.3643 306.066 36.7295" stroke="#EF4444" stroke-width="3.5" stroke-miterlimit="3.9273"/>
<path d="M306.043 36.776C309.229 35.4597 312.507 33.7969 315.555 32.2497C318.741 30.9333 322.043 28.9473 323.498 25.668C325.114 22.6889 324.421 18.9477 325.991 15.9224C327.631 12.6893 332.018 10.8649 335.504 11.6039C337.79 11.5116 340.053 12.851 342.315 13.1974C345.317 13.6362 348.688 14.5368 351.62 13.4283C357.577 10.7495 354.968 4.30634 349.126 2.99C345.34 2.22791 341.392 2.6205 337.559 2.75906C332.664 2.80525 327.7 2.99 322.828 3.22093C244.349 3.86756 165.824 4.67583 87.2988 4.58346C81.1802 3.91374 75.5234 7.07758 78.2248 13.8902C83.3505 21.7882 76.4008 27.0536 69.8436 30.4484C61.9934 34.9285 54.3971 40.3786 49.433 48.1381C39.6203 61.3015 33.2015 76.5433 27.6602 91.9006C16.3005 120.86 7.34202 151.043 4.31738 182.104" stroke="#3B82F6" stroke-width="3.5" stroke-miterlimit="3.9273"/>
<path d="M4.31739 182.104C3.64782 187.554 3.20913 193.235 2.49337 198.662C2.14704 203.743 0.738619 210.094 5.21786 213.858C7.52674 215.498 10.4359 215.498 13.1604 215.451C14.9844 215.636 16.7161 216.606 18.3785 217.276C24.751 223.257 30.0153 223.603 38.0964 220.671C47.4936 218.246 55.8286 213.096 51.0262 202.311C48.648 196.099 44.2842 190.834 41.0518 185.083C36.3647 176.677 30.3616 168.594 27.6833 159.241C24.7972 148.988 26.1825 137.741 30.1769 127.949C34.8409 118.273 43.4068 110.976 52.8502 106.172C57.9759 103.447 63.725 106.265 64.6486 112.061C66.4495 118.989 68.3428 126.194 76.8857 126.564C80.2567 126.772 83.5584 125.455 86.6292 124.301C92.1705 122.8 97.3655 118.319 97.504 112.292C97.7811 104.556 93.4635 97.6044 89.5615 91.2075C85.5209 84.672 81.2264 78.2288 77.5553 71.4855C73.0067 64.3264 70.9749 56.1513 76.193 48.8075C80.3952 43.496 85.2438 38.6232 89.7923 33.6119C92.7477 29.9169 96.1649 26.3143 100.229 23.8664C104.754 21.7417 110.942 22.0881 114.059 26.3605C117.891 30.0093 119.831 35.1592 121.77 39.9626C123.525 44.5583 125.88 49.0615 127.889 53.5648" stroke="#FBBF24" stroke-width="3.5" stroke-miterlimit="3.9273"/>
</g>
<defs>
<clipPath id="clip0_6203_5461">
<rect width="357" height="224.055" fill="white" transform="translate(0 0.472656)"/>
</clipPath>
</defs>
</svg>
