<svg width="112" height="593" viewBox="0 0 112 593" fill="none" xmlns="http://www.w3.org/2000/svg">
<g clip-path="url(#clip0_5672_5655)">
<path d="M91.3102 21H17.6898C13.9951 21 11 24.9008 11 29.7127V584.287C11 589.099 13.9951 593 17.6898 593H91.3102C95.0049 593 98 589.099 98 584.287V29.7127C98 24.9008 95.0049 21 91.3102 21Z" fill="#192127"/>
<path d="M54.5002 462.383C53.7349 462.383 53.1172 461.765 53.1172 461V454.085C53.1172 453.32 53.7349 452.702 54.5002 452.702C55.2654 452.702 55.8832 453.32 55.8832 454.085V461C55.8832 461.765 55.2654 462.383 54.5002 462.383Z" fill="#F1F2F2"/>
<path d="M53.1172 21.2474V34.0171C53.1172 34.7778 53.7349 35.4001 54.5002 35.4001C55.2654 35.4001 55.8832 34.7778 55.8832 34.0171V21.2474H53.1172ZM54.5002 46.1829C53.7349 46.1829 53.1172 46.8007 53.1172 47.5659V61.1193C53.1172 61.88 53.7349 62.5023 54.5002 62.5023C55.2654 62.5023 55.8832 61.88 55.8832 61.1193V47.5659C55.8832 46.8007 55.2654 46.1829 54.5002 46.1829ZM54.5002 73.2851C53.7349 73.2851 53.1172 73.9029 53.1172 74.6681V88.2169C53.1172 88.9822 53.7349 89.5999 54.5002 89.5999C55.2654 89.5999 55.8832 88.9822 55.8832 88.2169V74.6681C55.8832 73.9029 55.2654 73.2851 54.5002 73.2851ZM54.5002 100.387C53.7349 100.387 53.1172 101.005 53.1172 101.77V115.319C53.1172 116.084 53.7349 116.702 54.5002 116.702C55.2654 116.702 55.8832 116.084 55.8832 115.319V101.77C55.8832 101.005 55.2654 100.387 54.5002 100.387ZM54.5002 127.49C53.7349 127.49 53.1172 128.107 53.1172 128.872V142.421C53.1172 143.187 53.7349 143.804 54.5002 143.804C55.2654 143.804 55.8832 143.187 55.8832 142.421V128.872C55.8832 128.107 55.2654 127.49 54.5002 127.49ZM54.5002 154.587C53.7349 154.587 53.1172 155.209 53.1172 155.97V169.523C53.1172 170.284 53.7349 170.906 54.5002 170.906C55.2654 170.906 55.8832 170.284 55.8832 169.523V155.97C55.8832 155.209 55.2654 154.587 54.5002 154.587ZM54.5002 181.689C53.7349 181.689 53.1172 182.307 53.1172 183.072V196.626C53.1172 197.386 53.7349 198.009 54.5002 198.009C55.2654 198.009 55.8832 197.386 55.8832 196.626V183.072C55.8832 182.307 55.2654 181.689 54.5002 181.689ZM54.5002 208.791C53.7349 208.791 53.1172 209.409 53.1172 210.174V223.723C53.1172 224.489 53.7349 225.106 54.5002 225.106C55.2654 225.106 55.8832 224.489 55.8832 223.723V210.174C55.8832 209.409 55.2654 208.791 54.5002 208.791ZM54.5002 235.894C53.7349 235.894 53.1172 236.511 53.1172 237.277V250.825C53.1172 251.591 53.7349 252.208 54.5002 252.208C55.2654 252.208 55.8832 251.591 55.8832 250.825V237.277C55.8832 236.511 55.2654 235.894 54.5002 235.894ZM54.5002 262.991C53.7349 262.991 53.1172 263.614 53.1172 264.374V277.928C53.1172 278.693 53.7349 279.311 54.5002 279.311C55.2654 279.311 55.8832 278.693 55.8832 277.928V264.374C55.8832 263.614 55.2654 262.991 54.5002 262.991ZM54.5002 290.093C53.7349 290.093 53.1172 290.716 53.1172 291.476V305.03C53.1172 305.79 53.7349 306.413 54.5002 306.413C55.2654 306.413 55.8832 305.79 55.8832 305.03V291.476C55.8832 290.716 55.2654 290.093 54.5002 290.093ZM54.5002 317.196C53.7349 317.196 53.1172 317.813 53.1172 318.579V332.127C53.1172 332.893 53.7349 333.51 54.5002 333.51C55.2654 333.51 55.8832 332.893 55.8832 332.127V318.579C55.8832 317.813 55.2654 317.196 54.5002 317.196ZM54.5002 344.298C53.7349 344.298 53.1172 344.916 53.1172 345.681V359.23C53.1172 359.995 53.7349 360.613 54.5002 360.613C55.2654 360.613 55.8832 359.995 55.8832 359.23V345.681C55.8832 344.916 55.2654 344.298 54.5002 344.298ZM54.5002 371.4C53.7349 371.4 53.1172 372.018 53.1172 372.783V386.332C53.1172 387.097 53.7349 387.715 54.5002 387.715C55.2654 387.715 55.8832 387.097 55.8832 386.332V372.783C55.8832 372.018 55.2654 371.4 54.5002 371.4ZM54.5002 398.498C53.7349 398.498 53.1172 399.12 53.1172 399.881V413.434C53.1172 414.195 53.7349 414.817 54.5002 414.817C55.2654 414.817 55.8832 414.195 55.8832 413.434V399.881C55.8832 399.12 55.2654 398.498 54.5002 398.498ZM54.5002 425.6C53.7349 425.6 53.1172 426.222 53.1172 426.983V440.536C53.1172 441.297 53.7349 441.919 54.5002 441.919C55.2654 441.919 55.8832 441.297 55.8832 440.536V426.983C55.8832 426.222 55.2654 425.6 54.5002 425.6Z" fill="#F1F2F2"/>
<path d="M53.1172 453.247V466.017C53.1172 466.778 53.7349 467.4 54.5002 467.4C55.2654 467.4 55.8832 466.778 55.8832 466.017V453.247H53.1172ZM54.5002 478.183C53.7349 478.183 53.1172 478.801 53.1172 479.566V493.119C53.1172 493.88 53.7349 494.502 54.5002 494.502C55.2654 494.502 55.8832 493.88 55.8832 493.119V479.566C55.8832 478.801 55.2654 478.183 54.5002 478.183ZM54.5002 505.285C53.7349 505.285 53.1172 505.903 53.1172 506.668V520.217C53.1172 520.982 53.7349 521.6 54.5002 521.6C55.2654 521.6 55.8832 520.982 55.8832 520.217V506.668C55.8832 505.903 55.2654 505.285 54.5002 505.285ZM54.5002 532.387C53.7349 532.387 53.1172 533.005 53.1172 533.77V547.319C53.1172 548.084 53.7349 548.702 54.5002 548.702C55.2654 548.702 55.8832 548.084 55.8832 547.319V533.77C55.8832 533.005 55.2654 532.387 54.5002 532.387ZM54.5002 559.49C53.7349 559.49 53.1172 560.107 53.1172 560.872V574.421C53.1172 575.187 53.7349 575.804 54.5002 575.804C55.2654 575.804 55.8832 575.187 55.8832 574.421V560.872C55.8832 560.107 55.2654 559.49 54.5002 559.49ZM54.5002 586.587C53.7349 586.587 53.1172 587.209 53.1172 587.97V601.523C53.1172 602.284 53.7349 602.906 54.5002 602.906C55.2654 602.906 55.8832 602.284 55.8832 601.523V587.97C55.8832 587.209 55.2654 586.587 54.5002 586.587ZM54.5002 613.689C53.7349 613.689 53.1172 614.307 53.1172 615.072V628.626C53.1172 629.386 53.7349 630.009 54.5002 630.009C55.2654 630.009 55.8832 629.386 55.8832 628.626V615.072C55.8832 614.307 55.2654 613.689 54.5002 613.689ZM54.5002 640.791C53.7349 640.791 53.1172 641.409 53.1172 642.174V655.723C53.1172 656.489 53.7349 657.106 54.5002 657.106C55.2654 657.106 55.8832 656.489 55.8832 655.723V642.174C55.8832 641.409 55.2654 640.791 54.5002 640.791ZM54.5002 667.894C53.7349 667.894 53.1172 668.511 53.1172 669.277V682.825C53.1172 683.591 53.7349 684.208 54.5002 684.208C55.2654 684.208 55.8832 683.591 55.8832 682.825V669.277C55.8832 668.511 55.2654 667.894 54.5002 667.894ZM54.5002 694.991C53.7349 694.991 53.1172 695.614 53.1172 696.374V709.928C53.1172 710.693 53.7349 711.311 54.5002 711.311C55.2654 711.311 55.8832 710.693 55.8832 709.928V696.374C55.8832 695.614 55.2654 694.991 54.5002 694.991ZM54.5002 722.093C53.7349 722.093 53.1172 722.716 53.1172 723.476V737.03C53.1172 737.79 53.7349 738.413 54.5002 738.413C55.2654 738.413 55.8832 737.79 55.8832 737.03V723.476C55.8832 722.716 55.2654 722.093 54.5002 722.093ZM54.5002 749.196C53.7349 749.196 53.1172 749.813 53.1172 750.579V764.127C53.1172 764.893 53.7349 765.51 54.5002 765.51C55.2654 765.51 55.8832 764.893 55.8832 764.127V750.579C55.8832 749.813 55.2654 749.196 54.5002 749.196ZM54.5002 776.298C53.7349 776.298 53.1172 776.916 53.1172 777.681V791.23C53.1172 791.995 53.7349 792.613 54.5002 792.613C55.2654 792.613 55.8832 791.995 55.8832 791.23V777.681C55.8832 776.916 55.2654 776.298 54.5002 776.298ZM54.5002 803.4C53.7349 803.4 53.1172 804.018 53.1172 804.783V818.332C53.1172 819.097 53.7349 819.715 54.5002 819.715C55.2654 819.715 55.8832 819.097 55.8832 818.332V804.783C55.8832 804.018 55.2654 803.4 54.5002 803.4ZM54.5002 830.498C53.7349 830.498 53.1172 831.12 53.1172 831.881V845.434C53.1172 846.195 53.7349 846.817 54.5002 846.817C55.2654 846.817 55.8832 846.195 55.8832 845.434V831.881C55.8832 831.12 55.2654 830.498 54.5002 830.498ZM54.5002 857.6C53.7349 857.6 53.1172 858.222 53.1172 858.983V872.536C53.1172 873.297 53.7349 873.919 54.5002 873.919C55.2654 873.919 55.8832 873.297 55.8832 872.536V858.983C55.8832 858.222 55.2654 857.6 54.5002 857.6Z" fill="#F1F2F2"/>
<path d="M78.1358 34.7548H71.4375V41.5084H78.1358V34.7548Z" fill="#D0D5D9"/>
<path d="M17.8468 21.2474V28.0011H11.1484V26.111C11.1484 23.4234 14.1495 21.2474 17.8468 21.2474Z" fill="#32373B"/>
<path d="M24.5499 21.2474H17.8516V28.0011H24.5499V21.2474Z" fill="#D0D5D9"/>
<path d="M31.2452 21.2474H24.5469V28.0011H31.2452V21.2474Z" fill="#32373B"/>
<path d="M37.9405 21.2474H31.2422V28.0011H37.9405V21.2474Z" fill="#D0D5D9"/>
<path d="M44.6436 21.2474H37.9453V28.0011H44.6436V21.2474Z" fill="#32373B"/>
<path d="M51.339 21.2474H44.6406V28.0011H51.339V21.2474Z" fill="#D0D5D9"/>
<path d="M58.0421 21.2474H51.3438V28.0011H58.0421V21.2474Z" fill="#32373B"/>
<path d="M64.7374 21.2474H58.0391V28.0011H64.7374V21.2474Z" fill="#D0D5D9"/>
<path d="M71.4327 21.2474H64.7344V28.0011H71.4327V21.2474Z" fill="#32373B"/>
<path d="M78.1358 21.2474H71.4375V28.0011H78.1358V21.2474Z" fill="#D0D5D9"/>
<path d="M91.5265 21.2474H84.8281V28.0011H91.5265V21.2474Z" fill="#D0D5D9"/>
<path d="M98.2296 26.111V28.0011H91.5312V21.2474C95.2285 21.2474 98.2296 23.4234 98.2296 26.111Z" fill="#32373B"/>
<path d="M24.5499 28.0011H17.8516V34.7547H24.5499V28.0011Z" fill="#32373B"/>
<path d="M37.9405 28.0011H31.2422V34.7547H37.9405V28.0011Z" fill="#32373B"/>
<path d="M51.339 28.0011H44.6406V34.7547H51.339V28.0011Z" fill="#32373B"/>
<path d="M64.7374 28.0011H58.0391V34.7547H64.7374V28.0011Z" fill="#32373B"/>
<path d="M78.1358 28.0011H71.4375V34.7547H78.1358V28.0011Z" fill="#32373B"/>
<path d="M84.8311 28.0011H78.1328V34.7547H84.8311V28.0011Z" fill="#D0D5D9"/>
<path d="M91.5265 28.0011H84.8281V34.7547H91.5265V28.0011Z" fill="#32373B"/>
<path d="M24.5499 34.7548H17.8516V41.5084H24.5499V34.7548Z" fill="#D0D5D9"/>
<path d="M37.9405 34.7548H31.2422V41.5084H37.9405V34.7548Z" fill="#D0D5D9"/>
<path d="M51.339 34.7548H44.6406V41.5084H51.339V34.7548Z" fill="#D0D5D9"/>
<path d="M64.7374 34.7548H58.0391V41.5084H64.7374V34.7548Z" fill="#D0D5D9"/>
<path d="M17.8468 34.7548H11.1484V41.5084H17.8468V34.7548Z" fill="#32373B"/>
<path d="M17.8468 41.5084H11.1484V48.2621H17.8468V41.5084Z" fill="#D0D5D9"/>
<path d="M17.8468 48.2621H11.1484V55.0157H17.8468V48.2621Z" fill="#32373B"/>
<path d="M24.5499 48.2621H17.8516V55.0157H24.5499V48.2621Z" fill="#D0D5D9"/>
<path d="M31.2452 34.7548H24.5469V41.5084H31.2452V34.7548Z" fill="#32373B"/>
<path d="M31.2452 41.5084H24.5469V48.2621H31.2452V41.5084Z" fill="#D0D5D9"/>
<path d="M31.2452 48.2621H24.5469V55.0157H31.2452V48.2621Z" fill="#32373B"/>
<path d="M37.9405 48.2621H31.2422V55.0157H37.9405V48.2621Z" fill="#D0D5D9"/>
<path d="M44.6436 34.7548H37.9453V41.5084H44.6436V34.7548Z" fill="#32373B"/>
<path d="M44.6436 41.5084H37.9453V48.2621H44.6436V41.5084Z" fill="#D0D5D9"/>
<path d="M44.6436 48.2621H37.9453V55.0157H44.6436V48.2621Z" fill="#32373B"/>
<path d="M51.339 48.2621H44.6406V55.0157H51.339V48.2621Z" fill="#D0D5D9"/>
<path d="M58.0421 34.7548H51.3438V41.5084H58.0421V34.7548Z" fill="#32373B"/>
<path d="M58.0421 41.5084H51.3438V48.2621H58.0421V41.5084Z" fill="#D0D5D9"/>
<path d="M58.0421 48.2621H51.3438V55.0157H58.0421V48.2621Z" fill="#32373B"/>
<path d="M64.7374 48.2621H58.0391V55.0157H64.7374V48.2621Z" fill="#D0D5D9"/>
<path d="M71.4327 34.7548H64.7344V41.5084H71.4327V34.7548Z" fill="#32373B"/>
<path d="M71.4327 41.5084H64.7344V48.2621H71.4327V41.5084Z" fill="#D0D5D9"/>
<path d="M71.4327 48.2621H64.7344V55.0157H71.4327V48.2621Z" fill="#32373B"/>
<path d="M78.1358 48.2621H71.4375V55.0157H78.1358V48.2621Z" fill="#D0D5D9"/>
<path d="M84.8311 34.7548H78.1328V41.5084H84.8311V34.7548Z" fill="#32373B"/>
<path d="M84.8311 41.5084H78.1328V48.2621H84.8311V41.5084Z" fill="#D0D5D9"/>
<path d="M84.8311 48.2621H78.1328V55.0157H84.8311V48.2621Z" fill="#32373B"/>
<path d="M91.5265 48.2621H84.8281V55.0157H91.5265V48.2621Z" fill="#D0D5D9"/>
<path d="M98.2296 41.5084H91.5312V48.2621H98.2296V41.5084Z" fill="#D0D5D9"/>
<path d="M98.2296 48.2621H91.5312V55.0157H98.2296V48.2621Z" fill="#32373B"/>
<path d="M17.8468 28.0011H11.1484V34.7547H17.8468V28.0011Z" fill="#D0D5D9"/>
<path d="M24.5499 41.5084H17.8516V48.2621H24.5499V41.5084Z" fill="#32373B"/>
<path d="M31.2452 28.0011H24.5469V34.7547H31.2452V28.0011Z" fill="#D0D5D9"/>
<path d="M37.9405 41.5084H31.2422V48.2621H37.9405V41.5084Z" fill="#32373B"/>
<path d="M44.6436 28.0011H37.9453V34.7547H44.6436V28.0011Z" fill="#D0D5D9"/>
<path d="M51.339 41.5084H44.6406V48.2621H51.339V41.5084Z" fill="#32373B"/>
<path d="M58.0421 28.0011H51.3438V34.7547H58.0421V28.0011Z" fill="#D0D5D9"/>
<path d="M64.7374 41.5084H58.0391V48.2621H64.7374V41.5084Z" fill="#32373B"/>
<path d="M71.4327 28.0011H64.7344V34.7547H71.4327V28.0011Z" fill="#D0D5D9"/>
<path d="M78.1358 41.5084H71.4375V48.2621H78.1358V41.5084Z" fill="#32373B"/>
<path d="M91.5265 41.5084H84.8281V48.2621H91.5265V41.5084Z" fill="#32373B"/>
<path d="M17.8468 55.0156H11.1484V61.7693H17.8468V55.0156Z" fill="#D0D5D9"/>
<path d="M31.2452 55.0156H24.5469V61.7693H31.2452V55.0156Z" fill="#D0D5D9"/>
<path d="M44.6436 55.0156H37.9453V61.7693H44.6436V55.0156Z" fill="#D0D5D9"/>
<path d="M58.0421 55.0156H51.3438V61.7693H58.0421V55.0156Z" fill="#D0D5D9"/>
<path d="M71.4327 55.0156H64.7344V61.7693H71.4327V55.0156Z" fill="#D0D5D9"/>
<path d="M84.8311 55.0156H78.1328V61.7693H84.8311V55.0156Z" fill="#D0D5D9"/>
<path d="M98.2296 55.0156H91.5312V61.7693H98.2296V55.0156Z" fill="#D0D5D9"/>
<path d="M24.5499 55.0156H17.8516V61.7693H24.5499V55.0156Z" fill="#32373B"/>
<path d="M37.9405 55.0156H31.2422V61.7693H37.9405V55.0156Z" fill="#32373B"/>
<path d="M51.339 55.0156H44.6406V61.7693H51.339V55.0156Z" fill="#32373B"/>
<path d="M64.7374 55.0156H58.0391V61.7693H64.7374V55.0156Z" fill="#32373B"/>
<path d="M78.1358 55.0156H71.4375V61.7693H78.1358V55.0156Z" fill="#32373B"/>
<path d="M91.5265 55.0156H84.8281V61.7693H91.5265V55.0156Z" fill="#32373B"/>
<path d="M91.5265 34.7548H84.8281V41.5084H91.5265V34.7548Z" fill="#D0D5D9"/>
<path d="M98.2296 28.0011H91.5312V34.7547H98.2296V28.0011Z" fill="#D0D5D9"/>
<path d="M98.2296 34.7548H91.5312V41.5084H98.2296V34.7548Z" fill="#32373B"/>
<path d="M84.8311 21.2474H78.1328V28.0011H84.8311V21.2474Z" fill="#32373B"/>
</g>
<defs>
<clipPath id="clip0_5672_5655">
<rect width="112" height="593" fill="white"/>
</clipPath>
</defs>
</svg>
