<svg width="384" height="241" viewBox="0 0 384 241" fill="none" xmlns="http://www.w3.org/2000/svg">
<g clip-path="url(#clip0_5703_8512)">
<path d="M137.536 57.0828C145.757 73.6016 153.083 90.6668 160.956 107.335C163.539 112.824 165.997 118.637 169.002 123.928C171.088 128.548 173.572 133.616 177.297 137.093C180.451 140.894 186.288 141.863 190.957 140.993C195.178 140.124 199.003 137.814 202.654 135.628C208.267 131.951 214.177 128.474 219.716 124.648C246.935 106.192 226.744 91.6108 240.453 70.4966C246.388 60.9082 257.564 54.8472 268.74 54.1517C273.906 53.3816 279.419 53.9778 284.585 53.4313C290.843 52.9594 297.102 51.4938 303.112 49.7798C313.22 46.5754 323.005 41.8806 332.616 37.5832C337.98 34.4037 345.158 33.0623 347.964 27.1007C350.77 20.4435 347.939 14.4073 357.227 11.973C360.679 11.2278 364.032 12.6188 367.236 13.4385C370.489 14.2583 373.768 14.5315 376.996 14.4073C381.541 13.3392 383.702 8.14756 379.678 4.64509C376.822 2.50883 372.998 2.1859 369.67 2.21074C312.052 4.04892 254.137 3.27887 196.544 4.17312C161.13 4.347 125.764 4.49605 90.4738 4.42152C86.0034 4.57057 82.7749 8.07304 83.3958 12.4698C85.4571 16.469 87.3942 21.2135 84.3643 25.1631C83.0232 27.8459 79.8195 29.1872 77.5347 30.777C73.1637 33.6833 68.2712 35.8941 64.3721 39.3221C57.9895 43.9175 53.5192 50.5499 49.2475 56.8841C42.244 67.3915 37.1032 78.9174 32.6577 90.5426C19.0729 125.071 7.54942 160.865 4.4202 197.828C3.5758 206.273 2.20987 214.495 2.23471 222.693C3.5758 231.114 8.59249 231.114 15.6457 231.461C22.7237 233.622 23.5929 238.64 31.4904 238.764C36.3333 238.665 41.1016 236.901 45.3981 235.336C50.1416 233.722 55.0093 230.84 56.1268 225.823C57.4928 217.774 51.1102 209.751 47.1117 203.392C42.8649 196.312 38.5933 189.208 34.6693 182.178C21.9786 161.213 28.2122 130.958 49.322 118.289C54.4877 114.29 63.1055 109.049 67.849 115.855C69.7365 118.96 70.1587 122.611 71.2514 125.865C72.6173 131.802 78.2301 136.249 84.1905 135.603C89.083 135.081 93.9507 133.218 98.0981 130.958C107.113 126.337 105.822 114.787 101.749 107.285C97.2041 97.2992 90.1509 88.6796 85.1591 79.2403C80.7384 72.2354 75.9204 63.0942 80.2914 55.344C81.5828 51.4441 84.712 48.513 87.3694 45.8302C89.679 43.0978 92.088 40.3654 94.4474 38.0304C100.532 31.0254 108.33 20.3938 118.587 24.6415C125.417 28.0943 128.372 35.9438 131.029 42.4519C132.917 47.569 135.376 52.2141 137.536 57.0828Z" stroke="#374151" stroke-width="6" stroke-miterlimit="3.9273"/>
<path d="M137.537 57.083C146.676 75.5641 154.897 94.542 163.639 113.172C171.934 129.616 177.795 150.507 200.221 137.069C212.887 128.35 230.271 121.916 234.593 105.596C236.083 98.7649 234.667 91.7351 235.089 84.8543C236.555 73.7508 243.583 63.8643 253.368 58.5237C264.072 52.2143 276.961 54.5989 288.733 52.9098C302.939 51.0716 316.325 45.0603 329.214 38.9993" stroke="#EF4444" stroke-width="3.5" stroke-miterlimit="3.9273"/>
<path d="M329.189 39.0488C332.617 37.633 336.143 35.8445 339.421 34.1802C342.849 32.7643 346.4 30.628 347.965 27.1007C349.703 23.8963 348.958 19.8722 350.647 16.6181C352.41 13.1405 357.129 11.1781 360.879 11.973C363.338 11.8736 365.771 13.3144 368.205 13.687C371.434 14.1589 375.06 15.1277 378.214 13.9354C384.621 11.0539 381.815 4.12347 375.532 2.70758C371.459 1.88785 367.212 2.31013 363.089 2.45917C357.824 2.50885 352.485 2.70758 347.244 2.95598C262.83 3.65151 178.366 4.52091 93.9018 4.42155C87.3205 3.70119 81.2359 7.1043 84.1416 14.4322C89.655 22.9275 82.1796 28.5911 75.1265 32.2426C66.6826 37.0616 58.5118 42.9239 53.1723 51.2702C42.6174 65.4292 35.7132 81.8237 29.7528 98.3425C17.5339 129.492 7.89793 161.958 4.64453 195.368" stroke="#3B82F6" stroke-width="3.5" stroke-miterlimit="3.9273"/>
<path d="M4.64426 195.369C3.92405 201.231 3.45218 207.342 2.68229 213.179C2.30977 218.644 0.794826 225.475 5.61283 229.524C8.09634 231.288 11.2256 231.288 14.1561 231.238C16.1181 231.437 17.9807 232.48 19.7688 233.2C26.6233 239.634 32.2857 240.006 40.978 236.852C51.0859 234.244 60.0513 228.704 54.8856 217.104C52.3276 210.422 47.6338 204.758 44.1569 198.573C39.1153 189.531 32.6582 180.837 29.7774 170.777C26.673 159.748 28.1631 147.65 32.4595 137.118C37.4762 126.71 46.69 118.861 56.8476 113.694C62.361 110.763 68.5449 113.793 69.5383 120.028C71.4755 127.48 73.5119 135.23 82.7009 135.628C86.3268 135.851 89.8783 134.435 93.1813 133.193C99.1417 131.579 104.73 126.76 104.879 120.277C105.177 111.955 100.532 104.478 96.3354 97.5974C91.9892 90.5676 87.3699 83.6372 83.4211 76.3838C78.5286 68.6833 76.3431 59.8899 81.9559 51.9907C86.4758 46.2775 91.6912 41.0362 96.5837 35.6458C99.7626 31.6714 103.438 27.7963 107.809 25.1632C112.677 22.8779 119.333 23.2505 122.685 27.846C126.808 31.7707 128.894 37.3101 130.98 42.4769C132.868 47.4201 135.401 52.2639 137.562 57.1078" stroke="#FBBF24" stroke-width="3.5" stroke-miterlimit="3.9273"/>
</g>
<defs>
<clipPath id="clip0_5703_8512">
<rect width="384" height="241" fill="white"/>
</clipPath>
</defs>
</svg>
