<svg width="64" height="423" viewBox="0 0 64 423" fill="none" xmlns="http://www.w3.org/2000/svg">
<g clip-path="url(#clip0_6203_5869)">
<path d="M59.2844 -0.516113H5.19263C2.47799 -0.516113 0.277344 2.37516 0.277344 5.94174V416.991C0.277344 420.557 2.47799 423.449 5.19263 423.449H59.2844C61.9991 423.449 64.1997 420.557 64.1997 416.991V5.94174C64.1997 2.37516 61.9991 -0.516113 59.2844 -0.516113Z" fill="#192127"/>
<path d="M32.2388 326.635C31.6765 326.635 31.2227 326.178 31.2227 325.61V320.485C31.2227 319.918 31.6765 319.46 32.2388 319.46C32.8011 319.46 33.2549 319.918 33.2549 320.485V325.61C33.2549 326.178 32.8011 326.635 32.2388 326.635Z" fill="#F1F2F2"/>
<path d="M31.2227 -0.33252V9.13235C31.2227 9.69614 31.6765 10.1574 32.2388 10.1574C32.8011 10.1574 33.2549 9.69614 33.2549 9.13235V-0.33252H31.2227ZM32.2388 18.1496C31.6765 18.1496 31.2227 18.6075 31.2227 19.1747V29.2204C31.2227 29.7842 31.6765 30.2455 32.2388 30.2455C32.8011 30.2455 33.2549 29.7842 33.2549 29.2204V19.1747C33.2549 18.6075 32.8011 18.1496 32.2388 18.1496ZM32.2388 38.2377C31.6765 38.2377 31.2227 38.6955 31.2227 39.2627V49.3051C31.2227 49.8723 31.6765 50.3301 32.2388 50.3301C32.8011 50.3301 33.2549 49.8723 33.2549 49.3051V39.2627C33.2549 38.6955 32.8011 38.2377 32.2388 38.2377ZM32.2388 58.3257C31.6765 58.3257 31.2227 58.7836 31.2227 59.3508V69.3931C31.2227 69.9603 31.6765 70.4182 32.2388 70.4182C32.8011 70.4182 33.2549 69.9603 33.2549 69.3931V59.3508C33.2549 58.7836 32.8011 58.3257 32.2388 58.3257ZM32.2388 78.4138C31.6765 78.4138 31.2227 78.8717 31.2227 79.4389V89.4812C31.2227 90.0484 31.6765 90.5063 32.2388 90.5063C32.8011 90.5063 33.2549 90.0484 33.2549 89.4812V79.4389C33.2549 78.8717 32.8011 78.4138 32.2388 78.4138ZM32.2388 98.4984C31.6765 98.4984 31.2227 98.9597 31.2227 99.5235V109.569C31.2227 110.133 31.6765 110.594 32.2388 110.594C32.8011 110.594 33.2549 110.133 33.2549 109.569V99.5235C33.2549 98.9597 32.8011 98.4984 32.2388 98.4984ZM32.2388 118.587C31.6765 118.587 31.2227 119.044 31.2227 119.612V129.657C31.2227 130.221 31.6765 130.682 32.2388 130.682C32.8011 130.682 33.2549 130.221 33.2549 129.657V119.612C33.2549 119.044 32.8011 118.587 32.2388 118.587ZM32.2388 138.675C31.6765 138.675 31.2227 139.132 31.2227 139.7V149.742C31.2227 150.309 31.6765 150.767 32.2388 150.767C32.8011 150.767 33.2549 150.309 33.2549 149.742V139.7C33.2549 139.132 32.8011 138.675 32.2388 138.675ZM32.2388 158.763C31.6765 158.763 31.2227 159.221 31.2227 159.788V169.83C31.2227 170.397 31.6765 170.855 32.2388 170.855C32.8011 170.855 33.2549 170.397 33.2549 169.83V159.788C33.2549 159.221 32.8011 158.763 32.2388 158.763ZM32.2388 178.847C31.6765 178.847 31.2227 179.309 31.2227 179.872V189.918C31.2227 190.485 31.6765 190.943 32.2388 190.943C32.8011 190.943 33.2549 190.485 33.2549 189.918V179.872C33.2549 179.309 32.8011 178.847 32.2388 178.847ZM32.2388 198.935C31.6765 198.935 31.2227 199.397 31.2227 199.96V210.006C31.2227 210.57 31.6765 211.031 32.2388 211.031C32.8011 211.031 33.2549 210.57 33.2549 210.006V199.96C33.2549 199.397 32.8011 198.935 32.2388 198.935ZM32.2388 219.023C31.6765 219.023 31.2227 219.481 31.2227 220.048V230.091C31.2227 230.658 31.6765 231.116 32.2388 231.116C32.8011 231.116 33.2549 230.658 33.2549 230.091V220.048C33.2549 219.481 32.8011 219.023 32.2388 219.023ZM32.2388 239.111C31.6765 239.111 31.2227 239.569 31.2227 240.137V250.179C31.2227 250.746 31.6765 251.204 32.2388 251.204C32.8011 251.204 33.2549 250.746 33.2549 250.179V240.137C33.2549 239.569 32.8011 239.111 32.2388 239.111ZM32.2388 259.2C31.6765 259.2 31.2227 259.657 31.2227 260.225V270.267C31.2227 270.834 31.6765 271.292 32.2388 271.292C32.8011 271.292 33.2549 270.834 33.2549 270.267V260.225C33.2549 259.657 32.8011 259.2 32.2388 259.2ZM32.2388 279.284C31.6765 279.284 31.2227 279.745 31.2227 280.309V290.355C31.2227 290.919 31.6765 291.38 32.2388 291.38C32.8011 291.38 33.2549 290.919 33.2549 290.355V280.309C33.2549 279.745 32.8011 279.284 32.2388 279.284ZM32.2388 299.372C31.6765 299.372 31.2227 299.834 31.2227 300.397V310.443C31.2227 311.007 31.6765 311.468 32.2388 311.468C32.8011 311.468 33.2549 311.007 33.2549 310.443V300.397C33.2549 299.834 32.8011 299.372 32.2388 299.372Z" fill="#F1F2F2"/>
<path d="M31.2227 319.865V329.33C31.2227 329.893 31.6765 330.355 32.2388 330.355C32.8011 330.355 33.2549 329.893 33.2549 329.33V319.865H31.2227ZM32.2388 338.347C31.6765 338.347 31.2227 338.805 31.2227 339.372V349.418C31.2227 349.981 31.6765 350.443 32.2388 350.443C32.8011 350.443 33.2549 349.981 33.2549 349.418V339.372C33.2549 338.805 32.8011 338.347 32.2388 338.347ZM32.2388 358.435C31.6765 358.435 31.2227 358.893 31.2227 359.46V369.502C31.2227 370.07 31.6765 370.527 32.2388 370.527C32.8011 370.527 33.2549 370.07 33.2549 369.502V359.46C33.2549 358.893 32.8011 358.435 32.2388 358.435ZM32.2388 378.523C31.6765 378.523 31.2227 378.981 31.2227 379.548V389.59C31.2227 390.158 31.6765 390.615 32.2388 390.615C32.8011 390.615 33.2549 390.158 33.2549 389.59V379.548C33.2549 378.981 32.8011 378.523 32.2388 378.523ZM32.2388 398.611C31.6765 398.611 31.2227 399.069 31.2227 399.636V409.678C31.2227 410.246 31.6765 410.704 32.2388 410.704C32.8011 410.704 33.2549 410.246 33.2549 409.678V399.636C33.2549 399.069 32.8011 398.611 32.2388 398.611ZM32.2388 418.696C31.6765 418.696 31.2227 419.157 31.2227 419.721V429.767C31.2227 430.33 31.6765 430.792 32.2388 430.792C32.8011 430.792 33.2549 430.33 33.2549 429.767V419.721C33.2549 419.157 32.8011 418.696 32.2388 418.696ZM32.2388 438.784C31.6765 438.784 31.2227 439.242 31.2227 439.809V449.855C31.2227 450.418 31.6765 450.88 32.2388 450.88C32.8011 450.88 33.2549 450.418 33.2549 449.855V439.809C33.2549 439.242 32.8011 438.784 32.2388 438.784ZM32.2388 458.872C31.6765 458.872 31.2227 459.33 31.2227 459.897V469.939C31.2227 470.506 31.6765 470.964 32.2388 470.964C32.8011 470.964 33.2549 470.506 33.2549 469.939V459.897C33.2549 459.33 32.8011 458.872 32.2388 458.872ZM32.2388 478.96C31.6765 478.96 31.2227 479.418 31.2227 479.985V490.027C31.2227 490.595 31.6765 491.052 32.2388 491.052C32.8011 491.052 33.2549 490.595 33.2549 490.027V479.985C33.2549 479.418 32.8011 478.96 32.2388 478.96ZM32.2388 499.045C31.6765 499.045 31.2227 499.506 31.2227 500.07V510.115C31.2227 510.683 31.6765 511.14 32.2388 511.14C32.8011 511.14 33.2549 510.683 33.2549 510.115V500.07C33.2549 499.506 32.8011 499.045 32.2388 499.045ZM32.2388 519.133C31.6765 519.133 31.2227 519.594 31.2227 520.158V530.203C31.2227 530.767 31.6765 531.229 32.2388 531.229C32.8011 531.229 33.2549 530.767 33.2549 530.203V520.158C33.2549 519.594 32.8011 519.133 32.2388 519.133ZM32.2388 539.221C31.6765 539.221 31.2227 539.679 31.2227 540.246V550.288C31.2227 550.855 31.6765 551.313 32.2388 551.313C32.8011 551.313 33.2549 550.855 33.2549 550.288V540.246C33.2549 539.679 32.8011 539.221 32.2388 539.221ZM32.2388 559.309C31.6765 559.309 31.2227 559.767 31.2227 560.334V570.376C31.2227 570.943 31.6765 571.401 32.2388 571.401C32.8011 571.401 33.2549 570.943 33.2549 570.376V560.334C33.2549 559.767 32.8011 559.309 32.2388 559.309ZM32.2388 579.397C31.6765 579.397 31.2227 579.855 31.2227 580.422V590.464C31.2227 591.031 31.6765 591.489 32.2388 591.489C32.8011 591.489 33.2549 591.031 33.2549 590.464V580.422C33.2549 579.855 32.8011 579.397 32.2388 579.397ZM32.2388 599.481C31.6765 599.481 31.2227 599.943 31.2227 600.507V610.552C31.2227 611.116 31.6765 611.577 32.2388 611.577C32.8011 611.577 33.2549 611.116 33.2549 610.552V600.507C33.2549 599.943 32.8011 599.481 32.2388 599.481ZM32.2388 619.57C31.6765 619.57 31.2227 620.031 31.2227 620.595V630.64C31.2227 631.204 31.6765 631.665 32.2388 631.665C32.8011 631.665 33.2549 631.204 33.2549 630.64V620.595C33.2549 620.031 32.8011 619.57 32.2388 619.57Z" fill="#F1F2F2"/>
<path d="M49.6051 9.6792H44.6836V14.685H49.6051V9.6792Z" fill="#D0D5D9"/>
<path d="M5.30727 -0.33252V4.67327H0.385742V3.27233C0.385742 1.28027 2.59078 -0.33252 5.30727 -0.33252Z" fill="#32373B"/>
<path d="M10.2331 -0.33252H5.31152V4.67327H10.2331V-0.33252Z" fill="#D0D5D9"/>
<path d="M15.152 -0.33252H10.2305V4.67327H15.152V-0.33252Z" fill="#32373B"/>
<path d="M20.0719 -0.33252H15.1504V4.67327H20.0719V-0.33252Z" fill="#D0D5D9"/>
<path d="M24.9967 -0.33252H20.0752V4.67327H24.9967V-0.33252Z" fill="#32373B"/>
<path d="M29.9166 -0.33252H24.9951V4.67327H29.9166V-0.33252Z" fill="#D0D5D9"/>
<path d="M34.8415 -0.33252H29.9199V4.67327H34.8415V-0.33252Z" fill="#32373B"/>
<path d="M39.7604 -0.33252H34.8389V4.67327H39.7604V-0.33252Z" fill="#D0D5D9"/>
<path d="M44.6793 -0.33252H39.7578V4.67327H44.6793V-0.33252Z" fill="#32373B"/>
<path d="M49.6051 -0.33252H44.6836V4.67327H49.6051V-0.33252Z" fill="#D0D5D9"/>
<path d="M59.443 -0.33252H54.5215V4.67327H59.443V-0.33252Z" fill="#D0D5D9"/>
<path d="M64.3678 3.27233V4.67327H59.4463V-0.33252C62.1628 -0.33252 64.3678 1.28027 64.3678 3.27233Z" fill="#32373B"/>
<path d="M10.2331 4.67285H5.31152V9.67864H10.2331V4.67285Z" fill="#32373B"/>
<path d="M20.0719 4.67285H15.1504V9.67864H20.0719V4.67285Z" fill="#32373B"/>
<path d="M29.9166 4.67285H24.9951V9.67864H29.9166V4.67285Z" fill="#32373B"/>
<path d="M39.7604 4.67285H34.8389V9.67864H39.7604V4.67285Z" fill="#32373B"/>
<path d="M49.6051 4.67285H44.6836V9.67864H49.6051V4.67285Z" fill="#32373B"/>
<path d="M54.5241 4.67285H49.6025V9.67864H54.5241V4.67285Z" fill="#D0D5D9"/>
<path d="M59.443 4.67285H54.5215V9.67864H59.443V4.67285Z" fill="#32373B"/>
<path d="M10.2331 9.6792H5.31152V14.685H10.2331V9.6792Z" fill="#D0D5D9"/>
<path d="M20.0719 9.6792H15.1504V14.685H20.0719V9.6792Z" fill="#D0D5D9"/>
<path d="M29.9166 9.6792H24.9951V14.685H29.9166V9.6792Z" fill="#D0D5D9"/>
<path d="M39.7604 9.6792H34.8389V14.685H39.7604V9.6792Z" fill="#D0D5D9"/>
<path d="M5.30727 9.6792H0.385742V14.685H5.30727V9.6792Z" fill="#32373B"/>
<path d="M5.30727 14.6846H0.385742V19.6904H5.30727V14.6846Z" fill="#D0D5D9"/>
<path d="M5.30727 19.6904H0.385742V24.6962H5.30727V19.6904Z" fill="#32373B"/>
<path d="M10.2331 19.6904H5.31152V24.6962H10.2331V19.6904Z" fill="#D0D5D9"/>
<path d="M15.152 9.6792H10.2305V14.685H15.152V9.6792Z" fill="#32373B"/>
<path d="M15.152 14.6846H10.2305V19.6904H15.152V14.6846Z" fill="#D0D5D9"/>
<path d="M15.152 19.6904H10.2305V24.6962H15.152V19.6904Z" fill="#32373B"/>
<path d="M20.0719 19.6904H15.1504V24.6962H20.0719V19.6904Z" fill="#D0D5D9"/>
<path d="M24.9967 9.6792H20.0752V14.685H24.9967V9.6792Z" fill="#32373B"/>
<path d="M24.9967 14.6846H20.0752V19.6904H24.9967V14.6846Z" fill="#D0D5D9"/>
<path d="M24.9967 19.6904H20.0752V24.6962H24.9967V19.6904Z" fill="#32373B"/>
<path d="M29.9166 19.6904H24.9951V24.6962H29.9166V19.6904Z" fill="#D0D5D9"/>
<path d="M34.8415 9.6792H29.9199V14.685H34.8415V9.6792Z" fill="#32373B"/>
<path d="M34.8415 14.6846H29.9199V19.6904H34.8415V14.6846Z" fill="#D0D5D9"/>
<path d="M34.8415 19.6904H29.9199V24.6962H34.8415V19.6904Z" fill="#32373B"/>
<path d="M39.7604 19.6904H34.8389V24.6962H39.7604V19.6904Z" fill="#D0D5D9"/>
<path d="M44.6793 9.6792H39.7578V14.685H44.6793V9.6792Z" fill="#32373B"/>
<path d="M44.6793 14.6846H39.7578V19.6904H44.6793V14.6846Z" fill="#D0D5D9"/>
<path d="M44.6793 19.6904H39.7578V24.6962H44.6793V19.6904Z" fill="#32373B"/>
<path d="M49.6051 19.6904H44.6836V24.6962H49.6051V19.6904Z" fill="#D0D5D9"/>
<path d="M54.5241 9.6792H49.6025V14.685H54.5241V9.6792Z" fill="#32373B"/>
<path d="M54.5241 14.6846H49.6025V19.6904H54.5241V14.6846Z" fill="#D0D5D9"/>
<path d="M54.5241 19.6904H49.6025V24.6962H54.5241V19.6904Z" fill="#32373B"/>
<path d="M59.443 19.6904H54.5215V24.6962H59.443V19.6904Z" fill="#D0D5D9"/>
<path d="M64.3678 14.6846H59.4463V19.6904H64.3678V14.6846Z" fill="#D0D5D9"/>
<path d="M64.3678 19.6904H59.4463V24.6962H64.3678V19.6904Z" fill="#32373B"/>
<path d="M5.30727 4.67285H0.385742V9.67864H5.30727V4.67285Z" fill="#D0D5D9"/>
<path d="M10.2331 14.6846H5.31152V19.6904H10.2331V14.6846Z" fill="#32373B"/>
<path d="M15.152 4.67285H10.2305V9.67864H15.152V4.67285Z" fill="#D0D5D9"/>
<path d="M20.0719 14.6846H15.1504V19.6904H20.0719V14.6846Z" fill="#32373B"/>
<path d="M24.9967 4.67285H20.0752V9.67864H24.9967V4.67285Z" fill="#D0D5D9"/>
<path d="M29.9166 14.6846H24.9951V19.6904H29.9166V14.6846Z" fill="#32373B"/>
<path d="M34.8415 4.67285H29.9199V9.67864H34.8415V4.67285Z" fill="#D0D5D9"/>
<path d="M39.7604 14.6846H34.8389V19.6904H39.7604V14.6846Z" fill="#32373B"/>
<path d="M44.6793 4.67285H39.7578V9.67864H44.6793V4.67285Z" fill="#D0D5D9"/>
<path d="M49.6051 14.6846H44.6836V19.6904H49.6051V14.6846Z" fill="#32373B"/>
<path d="M59.443 14.6846H54.5215V19.6904H59.443V14.6846Z" fill="#32373B"/>
<path d="M5.30727 24.6963H0.385742V29.7021H5.30727V24.6963Z" fill="#D0D5D9"/>
<path d="M15.152 24.6963H10.2305V29.7021H15.152V24.6963Z" fill="#D0D5D9"/>
<path d="M24.9967 24.6963H20.0752V29.7021H24.9967V24.6963Z" fill="#D0D5D9"/>
<path d="M34.8415 24.6963H29.9199V29.7021H34.8415V24.6963Z" fill="#D0D5D9"/>
<path d="M44.6793 24.6963H39.7578V29.7021H44.6793V24.6963Z" fill="#D0D5D9"/>
<path d="M54.5241 24.6963H49.6025V29.7021H54.5241V24.6963Z" fill="#D0D5D9"/>
<path d="M64.3678 24.6963H59.4463V29.7021H64.3678V24.6963Z" fill="#D0D5D9"/>
<path d="M10.2331 24.6963H5.31152V29.7021H10.2331V24.6963Z" fill="#32373B"/>
<path d="M20.0719 24.6963H15.1504V29.7021H20.0719V24.6963Z" fill="#32373B"/>
<path d="M29.9166 24.6963H24.9951V29.7021H29.9166V24.6963Z" fill="#32373B"/>
<path d="M39.7604 24.6963H34.8389V29.7021H39.7604V24.6963Z" fill="#32373B"/>
<path d="M49.6051 24.6963H44.6836V29.7021H49.6051V24.6963Z" fill="#32373B"/>
<path d="M59.443 24.6963H54.5215V29.7021H59.443V24.6963Z" fill="#32373B"/>
<path d="M59.443 9.6792H54.5215V14.685H59.443V9.6792Z" fill="#D0D5D9"/>
<path d="M64.3678 4.67285H59.4463V9.67864H64.3678V4.67285Z" fill="#D0D5D9"/>
<path d="M64.3678 9.6792H59.4463V14.685H64.3678V9.6792Z" fill="#32373B"/>
<path d="M54.5241 -0.33252H49.6025V4.67327H54.5241V-0.33252Z" fill="#32373B"/>
</g>
<defs>
<clipPath id="clip0_6203_5869">
<rect width="64" height="423" fill="white"/>
</clipPath>
</defs>
</svg>
