<svg width="85" height="454" viewBox="0 0 85 454" fill="none" xmlns="http://www.w3.org/2000/svg">
<g clip-path="url(#clip0_5703_9327)">
<path d="M69.2983 16.0776H13.4257C10.6217 16.0776 8.34863 19.0641 8.34863 22.7481V447.33C8.34863 451.014 10.6217 454 13.4257 454H69.2983C72.1023 454 74.3754 451.014 74.3754 447.33V22.7481C74.3754 19.0641 72.1023 16.0776 69.2983 16.0776Z" fill="#192127"/>
<path d="M41.3621 354C40.7813 354 40.3125 353.527 40.3125 352.941V347.647C40.3125 347.061 40.7813 346.588 41.3621 346.588C41.9429 346.588 42.4117 347.061 42.4117 347.647V352.941C42.4117 353.527 41.9429 354 41.3621 354Z" fill="#F1F2F2"/>
<path d="M40.3125 16.2671V26.0436C40.3125 26.6259 40.7813 27.1024 41.3621 27.1024C41.9429 27.1024 42.4117 26.6259 42.4117 26.0436V16.2671H40.3125ZM41.3621 35.3577C40.7813 35.3577 40.3125 35.8306 40.3125 36.4165V46.793C40.3125 47.3753 40.7813 47.8518 41.3621 47.8518C41.9429 47.8518 42.4117 47.3753 42.4117 46.793V36.4165C42.4117 35.8306 41.9429 35.3577 41.3621 35.3577ZM41.3621 56.1071C40.7813 56.1071 40.3125 56.58 40.3125 57.1659V67.5388C40.3125 68.1247 40.7813 68.5977 41.3621 68.5977C41.9429 68.5977 42.4117 68.1247 42.4117 67.5388V57.1659C42.4117 56.58 41.9429 56.1071 41.3621 56.1071ZM41.3621 76.8565C40.7813 76.8565 40.3125 77.3294 40.3125 77.9153V88.2882C40.3125 88.8741 40.7813 89.3471 41.3621 89.3471C41.9429 89.3471 42.4117 88.8741 42.4117 88.2882V77.9153C42.4117 77.3294 41.9429 76.8565 41.3621 76.8565ZM41.3621 97.6059C40.7813 97.6059 40.3125 98.0788 40.3125 98.6647V109.038C40.3125 109.624 40.7813 110.096 41.3621 110.096C41.9429 110.096 42.4117 109.624 42.4117 109.038V98.6647C42.4117 98.0788 41.9429 97.6059 41.3621 97.6059ZM41.3621 118.352C40.7813 118.352 40.3125 118.828 40.3125 119.411V129.787C40.3125 130.369 40.7813 130.846 41.3621 130.846C41.9429 130.846 42.4117 130.369 42.4117 129.787V119.411C42.4117 118.828 41.9429 118.352 41.3621 118.352ZM41.3621 139.101C40.7813 139.101 40.3125 139.574 40.3125 140.16V150.536C40.3125 151.119 40.7813 151.595 41.3621 151.595C41.9429 151.595 42.4117 151.119 42.4117 150.536V140.16C42.4117 139.574 41.9429 139.101 41.3621 139.101ZM41.3621 159.851C40.7813 159.851 40.3125 160.323 40.3125 160.909V171.282C40.3125 171.868 40.7813 172.341 41.3621 172.341C41.9429 172.341 42.4117 171.868 42.4117 171.282V160.909C42.4117 160.323 41.9429 159.851 41.3621 159.851ZM41.3621 180.6C40.7813 180.6 40.3125 181.073 40.3125 181.659V192.032C40.3125 192.618 40.7813 193.091 41.3621 193.091C41.9429 193.091 42.4117 192.618 42.4117 192.032V181.659C42.4117 181.073 41.9429 180.6 41.3621 180.6ZM41.3621 201.346C40.7813 201.346 40.3125 201.822 40.3125 202.405V212.781C40.3125 213.367 40.7813 213.84 41.3621 213.84C41.9429 213.84 42.4117 213.367 42.4117 212.781V202.405C42.4117 201.822 41.9429 201.346 41.3621 201.346ZM41.3621 222.095C40.7813 222.095 40.3125 222.572 40.3125 223.154V233.531C40.3125 234.113 40.7813 234.589 41.3621 234.589C41.9429 234.589 42.4117 234.113 42.4117 233.531V223.154C42.4117 222.572 41.9429 222.095 41.3621 222.095ZM41.3621 242.845C40.7813 242.845 40.3125 243.318 40.3125 243.903V254.276C40.3125 254.862 40.7813 255.335 41.3621 255.335C41.9429 255.335 42.4117 254.862 42.4117 254.276V243.903C42.4117 243.318 41.9429 242.845 41.3621 242.845ZM41.3621 263.594C40.7813 263.594 40.3125 264.067 40.3125 264.653V275.026C40.3125 275.612 40.7813 276.085 41.3621 276.085C41.9429 276.085 42.4117 275.612 42.4117 275.026V264.653C42.4117 264.067 41.9429 263.594 41.3621 263.594ZM41.3621 284.343C40.7813 284.343 40.3125 284.816 40.3125 285.402V295.775C40.3125 296.361 40.7813 296.834 41.3621 296.834C41.9429 296.834 42.4117 296.361 42.4117 295.775V285.402C42.4117 284.816 41.9429 284.343 41.3621 284.343ZM41.3621 305.089C40.7813 305.089 40.3125 305.566 40.3125 306.148V316.525C40.3125 317.107 40.7813 317.583 41.3621 317.583C41.9429 317.583 42.4117 317.107 42.4117 316.525V306.148C42.4117 305.566 41.9429 305.089 41.3621 305.089ZM41.3621 325.839C40.7813 325.839 40.3125 326.315 40.3125 326.898V337.274C40.3125 337.856 40.7813 338.333 41.3621 338.333C41.9429 338.333 42.4117 337.856 42.4117 337.274V326.898C42.4117 326.315 41.9429 325.839 41.3621 325.839Z" fill="#F1F2F2"/>
<path d="M40.3125 347.006V356.782C40.3125 357.365 40.7813 357.841 41.3621 357.841C41.9429 357.841 42.4117 357.365 42.4117 356.782V347.006H40.3125ZM41.3621 366.096C40.7813 366.096 40.3125 366.569 40.3125 367.155V377.532C40.3125 378.114 40.7813 378.591 41.3621 378.591C41.9429 378.591 42.4117 378.114 42.4117 377.532V367.155C42.4117 366.569 41.9429 366.096 41.3621 366.096ZM41.3621 386.846C40.7813 386.846 40.3125 387.319 40.3125 387.905V398.278C40.3125 398.863 40.7813 399.336 41.3621 399.336C41.9429 399.336 42.4117 398.863 42.4117 398.278V387.905C42.4117 387.319 41.9429 386.846 41.3621 386.846ZM41.3621 407.595C40.7813 407.595 40.3125 408.068 40.3125 408.654V419.027C40.3125 419.613 40.7813 420.086 41.3621 420.086C41.9429 420.086 42.4117 419.613 42.4117 419.027V408.654C42.4117 408.068 41.9429 407.595 41.3621 407.595ZM41.3621 428.345C40.7813 428.345 40.3125 428.818 40.3125 429.403V439.776C40.3125 440.362 40.7813 440.835 41.3621 440.835C41.9429 440.835 42.4117 440.362 42.4117 439.776V429.403C42.4117 428.818 41.9429 428.345 41.3621 428.345ZM41.3621 449.091C40.7813 449.091 40.3125 449.567 40.3125 450.149V460.526C40.3125 461.108 40.7813 461.585 41.3621 461.585C41.9429 461.585 42.4117 461.108 42.4117 460.526V450.149C42.4117 449.567 41.9429 449.091 41.3621 449.091ZM41.3621 469.84C40.7813 469.84 40.3125 470.313 40.3125 470.899V481.275C40.3125 481.858 40.7813 482.334 41.3621 482.334C41.9429 482.334 42.4117 481.858 42.4117 481.275V470.899C42.4117 470.313 41.9429 469.84 41.3621 469.84ZM41.3621 490.589C40.7813 490.589 40.3125 491.062 40.3125 491.648V502.021C40.3125 502.607 40.7813 503.08 41.3621 503.08C41.9429 503.08 42.4117 502.607 42.4117 502.021V491.648C42.4117 491.062 41.9429 490.589 41.3621 490.589ZM41.3621 511.339C40.7813 511.339 40.3125 511.812 40.3125 512.398V522.77C40.3125 523.356 40.7813 523.829 41.3621 523.829C41.9429 523.829 42.4117 523.356 42.4117 522.77V512.398C42.4117 511.812 41.9429 511.339 41.3621 511.339ZM41.3621 532.085C40.7813 532.085 40.3125 532.561 40.3125 533.143V543.52C40.3125 544.106 40.7813 544.579 41.3621 544.579C41.9429 544.579 42.4117 544.106 42.4117 543.52V533.143C42.4117 532.561 41.9429 532.085 41.3621 532.085ZM41.3621 552.834C40.7813 552.834 40.3125 553.31 40.3125 553.893V564.269C40.3125 564.852 40.7813 565.328 41.3621 565.328C41.9429 565.328 42.4117 564.852 42.4117 564.269V553.893C42.4117 553.31 41.9429 552.834 41.3621 552.834ZM41.3621 573.583C40.7813 573.583 40.3125 574.056 40.3125 574.642V585.015C40.3125 585.601 40.7813 586.074 41.3621 586.074C41.9429 586.074 42.4117 585.601 42.4117 585.015V574.642C42.4117 574.056 41.9429 573.583 41.3621 573.583ZM41.3621 594.333C40.7813 594.333 40.3125 594.806 40.3125 595.392V605.765C40.3125 606.35 40.7813 606.823 41.3621 606.823C41.9429 606.823 42.4117 606.35 42.4117 605.765V595.392C42.4117 594.806 41.9429 594.333 41.3621 594.333ZM41.3621 615.082C40.7813 615.082 40.3125 615.555 40.3125 616.141V626.514C40.3125 627.1 40.7813 627.573 41.3621 627.573C41.9429 627.573 42.4117 627.1 42.4117 626.514V616.141C42.4117 615.555 41.9429 615.082 41.3621 615.082ZM41.3621 635.828C40.7813 635.828 40.3125 636.305 40.3125 636.887V647.263C40.3125 647.846 40.7813 648.322 41.3621 648.322C41.9429 648.322 42.4117 647.846 42.4117 647.263V636.887C42.4117 636.305 41.9429 635.828 41.3621 635.828ZM41.3621 656.577C40.7813 656.577 40.3125 657.054 40.3125 657.636V668.013C40.3125 668.595 40.7813 669.072 41.3621 669.072C41.9429 669.072 42.4117 668.595 42.4117 668.013V657.636C42.4117 657.054 41.9429 656.577 41.3621 656.577Z" fill="#F1F2F2"/>
<path d="M59.3004 26.6082H54.2168V31.7787H59.3004V26.6082Z" fill="#D0D5D9"/>
<path d="M13.5445 16.2671V21.4377H8.46094V19.9906C8.46094 17.933 10.7386 16.2671 13.5445 16.2671Z" fill="#32373B"/>
<path d="M18.6324 16.2671H13.5488V21.4377H18.6324V16.2671Z" fill="#D0D5D9"/>
<path d="M23.7134 16.2671H18.6299V21.4377H23.7134V16.2671Z" fill="#32373B"/>
<path d="M28.7945 16.2671H23.7109V21.4377H28.7945V16.2671Z" fill="#D0D5D9"/>
<path d="M33.8814 16.2671H28.7979V21.4377H33.8814V16.2671Z" fill="#32373B"/>
<path d="M38.9634 16.2671H33.8799V21.4377H38.9634V16.2671Z" fill="#D0D5D9"/>
<path d="M44.0504 16.2671H38.9668V21.4377H44.0504V16.2671Z" fill="#32373B"/>
<path d="M49.1314 16.2671H44.0479V21.4377H49.1314V16.2671Z" fill="#D0D5D9"/>
<path d="M54.2124 16.2671H49.1289V21.4377H54.2124V16.2671Z" fill="#32373B"/>
<path d="M59.3004 16.2671H54.2168V21.4377H59.3004V16.2671Z" fill="#D0D5D9"/>
<path d="M69.4625 16.2671H64.3789V21.4377H69.4625V16.2671Z" fill="#D0D5D9"/>
<path d="M74.5494 19.9906V21.4377H69.4658V16.2671C72.2717 16.2671 74.5494 17.933 74.5494 19.9906Z" fill="#32373B"/>
<path d="M18.6324 21.4377H13.5488V26.6083H18.6324V21.4377Z" fill="#32373B"/>
<path d="M28.7945 21.4377H23.7109V26.6083H28.7945V21.4377Z" fill="#32373B"/>
<path d="M38.9634 21.4377H33.8799V26.6083H38.9634V21.4377Z" fill="#32373B"/>
<path d="M49.1314 21.4377H44.0479V26.6083H49.1314V21.4377Z" fill="#32373B"/>
<path d="M59.3004 21.4377H54.2168V26.6083H59.3004V21.4377Z" fill="#32373B"/>
<path d="M64.3814 21.4377H59.2979V26.6083H64.3814V21.4377Z" fill="#D0D5D9"/>
<path d="M69.4625 21.4377H64.3789V26.6083H69.4625V21.4377Z" fill="#32373B"/>
<path d="M18.6324 26.6082H13.5488V31.7787H18.6324V26.6082Z" fill="#D0D5D9"/>
<path d="M28.7945 26.6082H23.7109V31.7787H28.7945V26.6082Z" fill="#D0D5D9"/>
<path d="M38.9634 26.6082H33.8799V31.7787H38.9634V26.6082Z" fill="#D0D5D9"/>
<path d="M49.1314 26.6082H44.0479V31.7787H49.1314V26.6082Z" fill="#D0D5D9"/>
<path d="M13.5445 26.6082H8.46094V31.7787H13.5445V26.6082Z" fill="#32373B"/>
<path d="M13.5445 31.7788H8.46094V36.9494H13.5445V31.7788Z" fill="#D0D5D9"/>
<path d="M13.5445 36.9495H8.46094V42.12H13.5445V36.9495Z" fill="#32373B"/>
<path d="M18.6324 36.9495H13.5488V42.12H18.6324V36.9495Z" fill="#D0D5D9"/>
<path d="M23.7134 26.6082H18.6299V31.7787H23.7134V26.6082Z" fill="#32373B"/>
<path d="M23.7134 31.7788H18.6299V36.9494H23.7134V31.7788Z" fill="#D0D5D9"/>
<path d="M23.7134 36.9495H18.6299V42.12H23.7134V36.9495Z" fill="#32373B"/>
<path d="M28.7945 36.9495H23.7109V42.12H28.7945V36.9495Z" fill="#D0D5D9"/>
<path d="M33.8814 26.6082H28.7979V31.7787H33.8814V26.6082Z" fill="#32373B"/>
<path d="M33.8814 31.7788H28.7979V36.9494H33.8814V31.7788Z" fill="#D0D5D9"/>
<path d="M33.8814 36.9495H28.7979V42.12H33.8814V36.9495Z" fill="#32373B"/>
<path d="M38.9634 36.9495H33.8799V42.12H38.9634V36.9495Z" fill="#D0D5D9"/>
<path d="M44.0504 26.6082H38.9668V31.7787H44.0504V26.6082Z" fill="#32373B"/>
<path d="M44.0504 31.7788H38.9668V36.9494H44.0504V31.7788Z" fill="#D0D5D9"/>
<path d="M44.0504 36.9495H38.9668V42.12H44.0504V36.9495Z" fill="#32373B"/>
<path d="M49.1314 36.9495H44.0479V42.12H49.1314V36.9495Z" fill="#D0D5D9"/>
<path d="M54.2124 26.6082H49.1289V31.7787H54.2124V26.6082Z" fill="#32373B"/>
<path d="M54.2124 31.7788H49.1289V36.9494H54.2124V31.7788Z" fill="#D0D5D9"/>
<path d="M54.2124 36.9495H49.1289V42.12H54.2124V36.9495Z" fill="#32373B"/>
<path d="M59.3004 36.9495H54.2168V42.12H59.3004V36.9495Z" fill="#D0D5D9"/>
<path d="M64.3814 26.6082H59.2979V31.7787H64.3814V26.6082Z" fill="#32373B"/>
<path d="M64.3814 31.7788H59.2979V36.9494H64.3814V31.7788Z" fill="#D0D5D9"/>
<path d="M64.3814 36.9495H59.2979V42.12H64.3814V36.9495Z" fill="#32373B"/>
<path d="M69.4625 36.9495H64.3789V42.12H69.4625V36.9495Z" fill="#D0D5D9"/>
<path d="M74.5494 31.7788H69.4658V36.9494H74.5494V31.7788Z" fill="#D0D5D9"/>
<path d="M74.5494 36.9495H69.4658V42.12H74.5494V36.9495Z" fill="#32373B"/>
<path d="M13.5445 21.4377H8.46094V26.6083H13.5445V21.4377Z" fill="#D0D5D9"/>
<path d="M18.6324 31.7788H13.5488V36.9494H18.6324V31.7788Z" fill="#32373B"/>
<path d="M23.7134 21.4377H18.6299V26.6083H23.7134V21.4377Z" fill="#D0D5D9"/>
<path d="M28.7945 31.7788H23.7109V36.9494H28.7945V31.7788Z" fill="#32373B"/>
<path d="M33.8814 21.4377H28.7979V26.6083H33.8814V21.4377Z" fill="#D0D5D9"/>
<path d="M38.9634 31.7788H33.8799V36.9494H38.9634V31.7788Z" fill="#32373B"/>
<path d="M44.0504 21.4377H38.9668V26.6083H44.0504V21.4377Z" fill="#D0D5D9"/>
<path d="M49.1314 31.7788H44.0479V36.9494H49.1314V31.7788Z" fill="#32373B"/>
<path d="M54.2124 21.4377H49.1289V26.6083H54.2124V21.4377Z" fill="#D0D5D9"/>
<path d="M59.3004 31.7788H54.2168V36.9494H59.3004V31.7788Z" fill="#32373B"/>
<path d="M69.4625 31.7788H64.3789V36.9494H69.4625V31.7788Z" fill="#32373B"/>
<path d="M13.5445 42.1199H8.46094V47.2905H13.5445V42.1199Z" fill="#D0D5D9"/>
<path d="M23.7134 42.1199H18.6299V47.2905H23.7134V42.1199Z" fill="#D0D5D9"/>
<path d="M33.8814 42.1199H28.7979V47.2905H33.8814V42.1199Z" fill="#D0D5D9"/>
<path d="M44.0504 42.1199H38.9668V47.2905H44.0504V42.1199Z" fill="#D0D5D9"/>
<path d="M54.2124 42.1199H49.1289V47.2905H54.2124V42.1199Z" fill="#D0D5D9"/>
<path d="M64.3814 42.1199H59.2979V47.2905H64.3814V42.1199Z" fill="#D0D5D9"/>
<path d="M74.5494 42.1199H69.4658V47.2905H74.5494V42.1199Z" fill="#D0D5D9"/>
<path d="M18.6324 42.1199H13.5488V47.2905H18.6324V42.1199Z" fill="#32373B"/>
<path d="M28.7945 42.1199H23.7109V47.2905H28.7945V42.1199Z" fill="#32373B"/>
<path d="M38.9634 42.1199H33.8799V47.2905H38.9634V42.1199Z" fill="#32373B"/>
<path d="M49.1314 42.1199H44.0479V47.2905H49.1314V42.1199Z" fill="#32373B"/>
<path d="M59.3004 42.1199H54.2168V47.2905H59.3004V42.1199Z" fill="#32373B"/>
<path d="M69.4625 42.1199H64.3789V47.2905H69.4625V42.1199Z" fill="#32373B"/>
<path d="M69.4625 26.6082H64.3789V31.7787H69.4625V26.6082Z" fill="#D0D5D9"/>
<path d="M74.5494 21.4377H69.4658V26.6083H74.5494V21.4377Z" fill="#D0D5D9"/>
<path d="M74.5494 26.6082H69.4658V31.7787H74.5494V26.6082Z" fill="#32373B"/>
<path d="M64.3814 16.2671H59.2979V21.4377H64.3814V16.2671Z" fill="#32373B"/>
</g>
<defs>
<clipPath id="clip0_5703_9327">
<rect width="85" height="454" fill="white"/>
</clipPath>
</defs>
</svg>
