<svg width="352" height="225" viewBox="0 0 352 225" fill="none" xmlns="http://www.w3.org/2000/svg">
<path opacity="0.7" d="M127.749 56.4054C135.038 71.04 141.535 86.1587 148.515 100.925C150.806 105.789 152.986 110.939 155.65 115.626C157.5 119.719 159.702 124.209 163.005 127.29C165.802 130.657 170.977 131.515 175.117 130.745C178.861 129.974 182.252 127.928 185.489 125.991C190.466 122.734 195.707 119.653 200.618 116.264C224.753 99.9131 206.85 86.995 219.006 68.2891C224.269 59.7945 234.178 54.4248 244.088 53.8086C248.669 53.1264 253.557 53.6545 258.138 53.1704C263.687 52.7523 269.236 51.4538 274.566 49.9354C283.528 47.0965 292.205 42.9372 300.727 39.13C305.484 36.3131 311.848 35.1247 314.336 29.8431C316.825 23.9452 314.314 18.5975 322.55 16.4409C325.611 15.7806 328.584 17.013 331.425 17.7393C334.31 18.4655 337.216 18.7076 340.079 18.5975C344.109 17.6512 346.025 13.0518 342.458 9.94882C339.925 8.05622 336.534 7.77013 333.583 7.79214C282.493 9.42065 231.14 8.73844 180.072 9.53069C148.669 9.68474 117.311 9.81678 86.0186 9.75076C82.0548 9.8828 79.192 12.9858 79.7425 16.881C81.5703 20.4241 83.288 24.6274 80.6014 28.1265C79.4122 30.5033 76.5715 31.6916 74.5455 33.1001C70.6697 35.6749 66.3315 37.6335 62.8742 40.6705C57.2147 44.7417 53.2508 50.6176 49.4631 56.2294C43.2531 65.5383 38.6947 75.7495 34.7529 86.0487C22.7072 116.638 12.4892 148.35 9.71454 181.097C8.96582 188.579 7.75464 195.863 7.77666 203.125C8.96582 210.586 13.4141 210.586 19.6682 210.894C25.9443 212.808 26.7151 217.254 33.7178 217.364C38.012 217.276 42.2401 215.713 46.0498 214.327C50.2559 212.897 54.5721 210.344 55.5631 205.898C56.7742 198.768 51.1147 191.66 47.5693 186.026C43.8036 179.754 40.016 173.46 36.5366 167.232C25.2837 148.658 30.811 121.854 49.5292 110.63C54.1096 107.087 61.7511 102.444 65.9571 108.474C67.6308 111.225 68.0051 114.46 68.9741 117.343C70.1853 122.602 75.1621 126.541 80.4472 125.969C84.7854 125.507 89.1016 123.857 92.7792 121.854C100.773 117.761 99.6278 107.527 96.0163 100.881C91.9864 92.0346 85.7323 84.3982 81.306 76.0356C77.3862 69.8296 73.1141 61.7311 76.9899 54.8649C78.135 51.4098 80.9097 48.813 83.266 46.4363C85.3139 44.0155 87.45 41.5948 89.542 39.5261C94.9373 33.3202 101.852 23.9012 110.947 27.6644C117.003 30.7233 119.623 37.6775 121.98 43.4433C123.653 47.9768 125.833 52.092 127.749 56.4054Z" stroke="#1E2830" stroke-width="14" stroke-miterlimit="3.9273"/>
<g clip-path="url(#clip0_6203_6697)">
<path d="M128.136 56.7052C135.436 71.3742 141.942 86.5285 148.933 101.33C151.227 106.205 153.41 111.367 156.079 116.065C157.931 120.168 160.137 124.668 163.445 127.756C166.246 131.131 171.428 131.991 175.575 131.219C179.324 130.447 182.72 128.396 185.962 126.455C190.946 123.19 196.195 120.102 201.113 116.705C225.284 100.315 207.354 87.3668 219.528 68.6169C224.799 60.1023 234.724 54.72 244.648 54.1023C249.235 53.4185 254.131 53.9479 258.718 53.4626C264.276 53.0435 269.834 51.742 275.171 50.22C284.147 47.3744 292.836 43.2054 301.371 39.3892C306.135 36.5657 312.508 35.3745 315 30.0805C317.492 24.1687 314.978 18.8085 323.227 16.6467C326.292 15.985 329.269 17.2203 332.114 17.9482C335.003 18.6761 337.915 18.9188 340.782 18.8085C344.817 17.86 346.736 13.2497 343.163 10.1394C340.627 8.24239 337.231 7.95563 334.276 7.97769C283.11 9.61003 231.68 8.92621 180.537 9.72032C149.088 9.87473 117.683 10.0071 86.3438 9.94091C82.374 10.0733 79.507 13.1835 80.0583 17.0879C81.8888 20.6394 83.6091 24.8526 80.9185 28.3599C79.7275 30.7422 76.8826 31.9334 74.8536 33.3451C70.9721 35.926 66.6274 37.8892 63.1649 40.9333C57.497 45.0142 53.5273 50.9038 49.734 56.5288C43.5148 65.8596 38.9496 76.0948 35.0019 86.4182C22.9383 117.08 12.7052 148.866 9.92641 181.69C9.17657 189.189 7.96359 196.491 7.98565 203.77C9.17657 211.248 13.6315 211.248 19.8948 211.557C26.1803 213.476 26.9521 217.932 33.9653 218.042C38.2659 217.954 42.5003 216.388 46.3156 214.998C50.5279 213.564 54.8505 211.005 55.843 206.55C57.056 199.403 51.3881 192.278 47.8374 186.631C44.0661 180.344 40.2728 174.035 36.7883 167.793C25.5186 149.175 31.0542 122.308 49.8002 111.058C54.3874 107.506 62.0402 102.852 66.2525 108.896C67.9286 111.653 68.3035 114.896 69.2739 117.786C70.4869 123.058 75.4711 127.006 80.7641 126.433C85.1087 125.969 89.4313 124.315 93.1144 122.308C101.12 118.205 99.9732 107.947 96.3563 101.286C92.3204 92.4182 86.0571 84.7638 81.6242 76.3816C77.6986 70.161 73.4201 62.0434 77.3016 55.1611C78.4484 51.6979 81.2272 49.095 83.587 46.7127C85.638 44.2862 87.7773 41.8598 89.8724 39.7863C95.2757 33.5657 102.201 24.1246 111.309 27.8967C117.374 30.9628 119.998 37.9333 122.358 43.7127C124.034 48.2568 126.218 52.3818 128.136 56.7052Z" stroke="#374151" stroke-width="6" stroke-miterlimit="3.9273"/>
<path d="M128.136 56.7052C136.252 73.1168 143.552 89.9696 151.315 106.514C158.681 121.116 163.885 139.668 183.8 127.734C195.048 119.991 210.486 114.278 214.323 99.7857C215.646 93.7196 214.389 87.477 214.764 81.3667C216.065 71.5065 222.307 62.7272 230.996 57.9846C240.501 52.3817 251.947 54.4993 262.401 52.9993C275.016 51.367 286.903 46.0288 298.349 40.6465" stroke="#EF4444" stroke-width="3.5" stroke-miterlimit="3.9273"/>
<path d="M298.327 40.6906C301.37 39.4332 304.502 37.845 307.413 36.3671C310.456 35.1098 313.61 33.2127 314.999 30.0804C316.543 27.2348 315.882 23.6613 317.381 20.7716C318.947 17.6834 323.137 15.9408 326.468 16.6467C328.651 16.5584 330.812 17.8378 332.973 18.1687C335.841 18.5878 339.06 19.4481 341.861 18.3893C347.551 15.8305 345.059 9.67613 339.479 8.41879C335.863 7.69085 332.091 8.06585 328.43 8.1982C323.755 8.24232 319.013 8.41879 314.36 8.63937C239.398 9.25702 164.392 10.0291 89.3863 9.94083C83.542 9.30113 78.1388 12.3232 80.7191 18.8305C85.6151 26.3745 78.9768 31.4039 72.7135 34.6465C65.2151 38.9259 57.9593 44.1317 53.2177 51.5434C43.8447 64.1169 37.7137 78.6756 32.4207 93.3446C21.5701 121.006 13.0131 149.837 10.124 179.506" stroke="#3B82F6" stroke-width="3.5" stroke-miterlimit="3.9273"/>
<path d="M10.1241 179.506C9.48456 184.711 9.06553 190.138 8.38185 195.322C8.05104 200.174 6.70575 206.241 10.9842 209.836C13.1896 211.402 15.9685 211.402 18.5708 211.358C20.3131 211.535 21.9672 212.461 23.5551 213.101C29.642 218.814 34.6703 219.145 42.3892 216.343C51.3652 214.027 59.3267 209.108 54.7395 198.807C52.4679 192.873 48.2997 187.844 45.2121 182.351C40.7352 174.322 35.0011 166.601 32.4428 157.667C29.6861 147.873 31.0093 137.131 34.8247 127.778C39.2796 118.535 47.4617 111.565 56.4818 106.977C61.3778 104.374 66.8692 107.065 67.7514 112.602C69.4716 119.219 71.28 126.102 79.4401 126.454C82.6599 126.653 85.8137 125.396 88.7469 124.293C94.0398 122.859 99.002 118.58 99.1343 112.822C99.399 105.433 95.2749 98.7929 91.5477 92.6827C87.6883 86.4401 83.5862 80.2857 80.0796 73.8446C75.735 67.0064 73.7942 59.1976 78.7784 52.183C82.7923 47.1095 87.4236 42.4551 91.7683 37.6684C94.5912 34.139 97.8552 30.6978 101.737 28.3596C106.059 26.3302 111.97 26.6611 114.947 30.742C118.608 34.2272 120.461 39.1463 122.313 43.7345C123.989 48.1242 126.239 52.4256 128.157 56.7271" stroke="#FBBF24" stroke-width="3.5" stroke-miterlimit="3.9273"/>
</g>
<defs>
<clipPath id="clip0_6203_6697">
<rect width="341" height="214.013" fill="white" transform="translate(6 6.01465)"/>
</clipPath>
</defs>
</svg>
