<svg width="63" height="403" viewBox="0 0 63 403" fill="none" xmlns="http://www.w3.org/2000/svg">
<g clip-path="url(#clip0_6203_7107)">
<path d="M55.764 0H4.34345C1.76287 0 -0.329102 2.7485 -0.329102 6.13894V396.889C-0.329102 400.28 1.76287 403.028 4.34345 403.028H55.764C58.3446 403.028 60.4366 400.28 60.4366 396.889V6.13894C60.4366 2.7485 58.3446 0 55.764 0Z" fill="#192127"/>
<path d="M30.0539 310.995C29.5194 310.995 29.0879 310.56 29.0879 310.021V305.148C29.0879 304.609 29.5194 304.174 30.0539 304.174C30.5884 304.174 31.0198 304.609 31.0198 305.148V310.021C31.0198 310.56 30.5884 310.995 30.0539 310.995Z" fill="#F1F2F2"/>
<path d="M29.0879 0.174805V9.17227C29.0879 9.70822 29.5194 10.1467 30.0539 10.1467C30.5884 10.1467 31.0198 9.70822 31.0198 9.17227V0.174805H29.0879ZM30.0539 17.7442C29.5194 17.7442 29.0879 18.1795 29.0879 18.7187V28.2683C29.0879 28.8043 29.5194 29.2428 30.0539 29.2428C30.5884 29.2428 31.0198 28.8043 31.0198 28.2683V18.7187C31.0198 18.1795 30.5884 17.7442 30.0539 17.7442ZM30.0539 36.8403C29.5194 36.8403 29.0879 37.2755 29.0879 37.8147V47.3611C29.0879 47.9003 29.5194 48.3356 30.0539 48.3356C30.5884 48.3356 31.0198 47.9003 31.0198 47.3611V37.8147C31.0198 37.2755 30.5884 36.8403 30.0539 36.8403ZM30.0539 55.9363C29.5194 55.9363 29.0879 56.3716 29.0879 56.9108V66.4572C29.0879 66.9964 29.5194 67.4317 30.0539 67.4317C30.5884 67.4317 31.0198 66.9964 31.0198 66.4572V56.9108C31.0198 56.3716 30.5884 55.9363 30.0539 55.9363ZM30.0539 75.0324C29.5194 75.0324 29.0879 75.4677 29.0879 76.0069V85.5533C29.0879 86.0925 29.5194 86.5277 30.0539 86.5277C30.5884 86.5277 31.0198 86.0925 31.0198 85.5533V76.0069C31.0198 75.4677 30.5884 75.0324 30.0539 75.0324ZM30.0539 94.1252C29.5194 94.1252 29.0879 94.5637 29.0879 95.0997V104.649C29.0879 105.185 29.5194 105.624 30.0539 105.624C30.5884 105.624 31.0198 105.185 31.0198 104.649V95.0997C31.0198 94.5637 30.5884 94.1252 30.0539 94.1252ZM30.0539 113.221C29.5194 113.221 29.0879 113.657 29.0879 114.196V123.745C29.0879 124.281 29.5194 124.72 30.0539 124.72C30.5884 124.72 31.0198 124.281 31.0198 123.745V114.196C31.0198 113.657 30.5884 113.221 30.0539 113.221ZM30.0539 132.317C29.5194 132.317 29.0879 132.753 29.0879 133.292V142.838C29.0879 143.377 29.5194 143.813 30.0539 143.813C30.5884 143.813 31.0198 143.377 31.0198 142.838V133.292C31.0198 132.753 30.5884 132.317 30.0539 132.317ZM30.0539 151.413C29.5194 151.413 29.0879 151.849 29.0879 152.388V161.934C29.0879 162.473 29.5194 162.909 30.0539 162.909C30.5884 162.909 31.0198 162.473 31.0198 161.934V152.388C31.0198 151.849 30.5884 151.413 30.0539 151.413ZM30.0539 170.506C29.5194 170.506 29.0879 170.945 29.0879 171.481V181.03C29.0879 181.57 29.5194 182.005 30.0539 182.005C30.5884 182.005 31.0198 181.57 31.0198 181.03V171.481C31.0198 170.945 30.5884 170.506 30.0539 170.506ZM30.0539 189.602C29.5194 189.602 29.0879 190.041 29.0879 190.577V200.126C29.0879 200.662 29.5194 201.101 30.0539 201.101C30.5884 201.101 31.0198 200.662 31.0198 200.126V190.577C31.0198 190.041 30.5884 189.602 30.0539 189.602ZM30.0539 208.698C29.5194 208.698 29.0879 209.134 29.0879 209.673V219.219C29.0879 219.758 29.5194 220.194 30.0539 220.194C30.5884 220.194 31.0198 219.758 31.0198 219.219V209.673C31.0198 209.134 30.5884 208.698 30.0539 208.698ZM30.0539 227.794C29.5194 227.794 29.0879 228.23 29.0879 228.769V238.315C29.0879 238.854 29.5194 239.29 30.0539 239.29C30.5884 239.29 31.0198 238.854 31.0198 238.315V228.769C31.0198 228.23 30.5884 227.794 30.0539 227.794ZM30.0539 246.89C29.5194 246.89 29.0879 247.326 29.0879 247.865V257.411C29.0879 257.951 29.5194 258.386 30.0539 258.386C30.5884 258.386 31.0198 257.951 31.0198 257.411V247.865C31.0198 247.326 30.5884 246.89 30.0539 246.89ZM30.0539 265.983C29.5194 265.983 29.0879 266.422 29.0879 266.958V276.507C29.0879 277.043 29.5194 277.482 30.0539 277.482C30.5884 277.482 31.0198 277.043 31.0198 276.507V266.958C31.0198 266.422 30.5884 265.983 30.0539 265.983ZM30.0539 285.079C29.5194 285.079 29.0879 285.518 29.0879 286.054V295.603C29.0879 296.139 29.5194 296.578 30.0539 296.578C30.5884 296.578 31.0198 296.139 31.0198 295.603V286.054C31.0198 285.518 30.5884 285.079 30.0539 285.079Z" fill="#F1F2F2"/>
<path d="M29.0879 304.56V313.557C29.0879 314.093 29.5194 314.531 30.0539 314.531C30.5884 314.531 31.0198 314.093 31.0198 313.557V304.56H29.0879ZM30.0539 322.129C29.5194 322.129 29.0879 322.564 29.0879 323.103V332.653C29.0879 333.189 29.5194 333.628 30.0539 333.628C30.5884 333.628 31.0198 333.189 31.0198 332.653V323.103C31.0198 322.564 30.5884 322.129 30.0539 322.129ZM30.0539 341.225C29.5194 341.225 29.0879 341.66 29.0879 342.2V351.746C29.0879 352.285 29.5194 352.72 30.0539 352.72C30.5884 352.72 31.0198 352.285 31.0198 351.746V342.2C31.0198 341.66 30.5884 341.225 30.0539 341.225ZM30.0539 360.321C29.5194 360.321 29.0879 360.756 29.0879 361.296V370.842C29.0879 371.381 29.5194 371.816 30.0539 371.816C30.5884 371.816 31.0198 371.381 31.0198 370.842V361.296C31.0198 360.756 30.5884 360.321 30.0539 360.321ZM30.0539 379.417C29.5194 379.417 29.0879 379.852 29.0879 380.392V389.938C29.0879 390.477 29.5194 390.912 30.0539 390.912C30.5884 390.912 31.0198 390.477 31.0198 389.938V380.392C31.0198 379.852 30.5884 379.417 30.0539 379.417ZM30.0539 398.51C29.5194 398.51 29.0879 398.948 29.0879 399.484V409.034C29.0879 409.57 29.5194 410.009 30.0539 410.009C30.5884 410.009 31.0198 409.57 31.0198 409.034V399.484C31.0198 398.948 30.5884 398.51 30.0539 398.51ZM30.0539 417.606C29.5194 417.606 29.0879 418.041 29.0879 418.581V428.13C29.0879 428.666 29.5194 429.105 30.0539 429.105C30.5884 429.105 31.0198 428.666 31.0198 428.13V418.581C31.0198 418.041 30.5884 417.606 30.0539 417.606ZM30.0539 436.702C29.5194 436.702 29.0879 437.137 29.0879 437.677V447.223C29.0879 447.762 29.5194 448.197 30.0539 448.197C30.5884 448.197 31.0198 447.762 31.0198 447.223V437.677C31.0198 437.137 30.5884 436.702 30.0539 436.702ZM30.0539 455.798C29.5194 455.798 29.0879 456.233 29.0879 456.773V466.319C29.0879 466.858 29.5194 467.294 30.0539 467.294C30.5884 467.294 31.0198 466.858 31.0198 466.319V456.773C31.0198 456.233 30.5884 455.798 30.0539 455.798ZM30.0539 474.891C29.5194 474.891 29.0879 475.329 29.0879 475.865V485.415C29.0879 485.954 29.5194 486.39 30.0539 486.39C30.5884 486.39 31.0198 485.954 31.0198 485.415V475.865C31.0198 475.329 30.5884 474.891 30.0539 474.891ZM30.0539 493.987C29.5194 493.987 29.0879 494.426 29.0879 494.962V504.511C29.0879 505.047 29.5194 505.486 30.0539 505.486C30.5884 505.486 31.0198 505.047 31.0198 504.511V494.962C31.0198 494.426 30.5884 493.987 30.0539 493.987ZM30.0539 513.083C29.5194 513.083 29.0879 513.518 29.0879 514.058V523.604C29.0879 524.143 29.5194 524.578 30.0539 524.578C30.5884 524.578 31.0198 524.143 31.0198 523.604V514.058C31.0198 513.518 30.5884 513.083 30.0539 513.083ZM30.0539 532.179C29.5194 532.179 29.0879 532.614 29.0879 533.154V542.7C29.0879 543.239 29.5194 543.674 30.0539 543.674C30.5884 543.674 31.0198 543.239 31.0198 542.7V533.154C31.0198 532.614 30.5884 532.179 30.0539 532.179ZM30.0539 551.275C29.5194 551.275 29.0879 551.711 29.0879 552.25V561.796C29.0879 562.335 29.5194 562.771 30.0539 562.771C30.5884 562.771 31.0198 562.335 31.0198 561.796V552.25C31.0198 551.711 30.5884 551.275 30.0539 551.275ZM30.0539 570.368C29.5194 570.368 29.0879 570.807 29.0879 571.342V580.892C29.0879 581.428 29.5194 581.867 30.0539 581.867C30.5884 581.867 31.0198 581.428 31.0198 580.892V571.342C31.0198 570.807 30.5884 570.368 30.0539 570.368ZM30.0539 589.464C29.5194 589.464 29.0879 589.903 29.0879 590.439V599.988C29.0879 600.524 29.5194 600.963 30.0539 600.963C30.5884 600.963 31.0198 600.524 31.0198 599.988V590.439C31.0198 589.903 30.5884 589.464 30.0539 589.464Z" fill="#F1F2F2"/>
<path d="M46.5623 9.69141H41.8838V14.45H46.5623V9.69141Z" fill="#D0D5D9"/>
<path d="M4.4529 0.174805V4.93339H-0.225586V3.60164C-0.225586 1.70795 1.87056 0.174805 4.4529 0.174805Z" fill="#32373B"/>
<path d="M9.13454 0.174805H4.45605V4.93339H9.13454V0.174805Z" fill="#D0D5D9"/>
<path d="M13.8113 0.174805H9.13281V4.93339H13.8113V0.174805Z" fill="#32373B"/>
<path d="M18.4881 0.174805H13.8096V4.93339H18.4881V0.174805Z" fill="#D0D5D9"/>
<path d="M23.1697 0.174805H18.4912V4.93339H23.1697V0.174805Z" fill="#32373B"/>
<path d="M27.8465 0.174805H23.168V4.93339H27.8465V0.174805Z" fill="#D0D5D9"/>
<path d="M32.5281 0.174805H27.8496V4.93339H32.5281V0.174805Z" fill="#32373B"/>
<path d="M37.2039 0.174805H32.5254V4.93339H37.2039V0.174805Z" fill="#D0D5D9"/>
<path d="M41.8806 0.174805H37.2021V4.93339H41.8806V0.174805Z" fill="#32373B"/>
<path d="M46.5623 0.174805H41.8838V4.93339H46.5623V0.174805Z" fill="#D0D5D9"/>
<path d="M55.9148 0.174805H51.2363V4.93339H55.9148V0.174805Z" fill="#D0D5D9"/>
<path d="M60.5964 3.60164V4.93339H55.918V0.174805C58.5003 0.174805 60.5964 1.70795 60.5964 3.60164Z" fill="#32373B"/>
<path d="M9.13454 4.93359H4.45605V9.69218H9.13454V4.93359Z" fill="#32373B"/>
<path d="M18.4881 4.93359H13.8096V9.69218H18.4881V4.93359Z" fill="#32373B"/>
<path d="M27.8465 4.93359H23.168V9.69218H27.8465V4.93359Z" fill="#32373B"/>
<path d="M37.2039 4.93359H32.5254V9.69218H37.2039V4.93359Z" fill="#32373B"/>
<path d="M46.5623 4.93359H41.8838V9.69218H46.5623V4.93359Z" fill="#32373B"/>
<path d="M51.239 4.93359H46.5605V9.69218H51.239V4.93359Z" fill="#D0D5D9"/>
<path d="M55.9148 4.93359H51.2363V9.69218H55.9148V4.93359Z" fill="#32373B"/>
<path d="M9.13454 9.69141H4.45605V14.45H9.13454V9.69141Z" fill="#D0D5D9"/>
<path d="M18.4881 9.69141H13.8096V14.45H18.4881V9.69141Z" fill="#D0D5D9"/>
<path d="M27.8465 9.69141H23.168V14.45H27.8465V9.69141Z" fill="#D0D5D9"/>
<path d="M37.2039 9.69141H32.5254V14.45H37.2039V9.69141Z" fill="#D0D5D9"/>
<path d="M4.4529 9.69141H-0.225586V14.45H4.4529V9.69141Z" fill="#32373B"/>
<path d="M4.4529 14.4502H-0.225586V19.2088H4.4529V14.4502Z" fill="#D0D5D9"/>
<path d="M4.4529 19.209H-0.225586V23.9676H4.4529V19.209Z" fill="#32373B"/>
<path d="M9.13454 19.209H4.45605V23.9676H9.13454V19.209Z" fill="#D0D5D9"/>
<path d="M13.8113 9.69141H9.13281V14.45H13.8113V9.69141Z" fill="#32373B"/>
<path d="M13.8113 14.4502H9.13281V19.2088H13.8113V14.4502Z" fill="#D0D5D9"/>
<path d="M13.8113 19.209H9.13281V23.9676H13.8113V19.209Z" fill="#32373B"/>
<path d="M18.4881 19.209H13.8096V23.9676H18.4881V19.209Z" fill="#D0D5D9"/>
<path d="M23.1697 9.69141H18.4912V14.45H23.1697V9.69141Z" fill="#32373B"/>
<path d="M23.1697 14.4502H18.4912V19.2088H23.1697V14.4502Z" fill="#D0D5D9"/>
<path d="M23.1697 19.209H18.4912V23.9676H23.1697V19.209Z" fill="#32373B"/>
<path d="M27.8465 19.209H23.168V23.9676H27.8465V19.209Z" fill="#D0D5D9"/>
<path d="M32.5281 9.69141H27.8496V14.45H32.5281V9.69141Z" fill="#32373B"/>
<path d="M32.5281 14.4502H27.8496V19.2088H32.5281V14.4502Z" fill="#D0D5D9"/>
<path d="M32.5281 19.209H27.8496V23.9676H32.5281V19.209Z" fill="#32373B"/>
<path d="M37.2039 19.208H32.5254V23.9666H37.2039V19.208Z" fill="#D0D5D9"/>
<path d="M41.8806 9.69141H37.2021V14.45H41.8806V9.69141Z" fill="#32373B"/>
<path d="M41.8806 14.4502H37.2021V19.2088H41.8806V14.4502Z" fill="#D0D5D9"/>
<path d="M41.8806 19.208H37.2021V23.9666H41.8806V19.208Z" fill="#32373B"/>
<path d="M46.5623 19.208H41.8838V23.9666H46.5623V19.208Z" fill="#D0D5D9"/>
<path d="M51.239 9.69141H46.5605V14.45H51.239V9.69141Z" fill="#32373B"/>
<path d="M51.239 14.4502H46.5605V19.2088H51.239V14.4502Z" fill="#D0D5D9"/>
<path d="M51.239 19.208H46.5605V23.9666H51.239V19.208Z" fill="#32373B"/>
<path d="M55.9148 19.209H51.2363V23.9676H55.9148V19.209Z" fill="#D0D5D9"/>
<path d="M60.5964 14.4502H55.918V19.2088H60.5964V14.4502Z" fill="#D0D5D9"/>
<path d="M60.5964 19.209H55.918V23.9676H60.5964V19.209Z" fill="#32373B"/>
<path d="M4.4529 4.93359H-0.225586V9.69218H4.4529V4.93359Z" fill="#D0D5D9"/>
<path d="M9.13454 14.4502H4.45605V19.2088H9.13454V14.4502Z" fill="#32373B"/>
<path d="M13.8113 4.93359H9.13281V9.69218H13.8113V4.93359Z" fill="#D0D5D9"/>
<path d="M18.4881 14.4502H13.8096V19.2088H18.4881V14.4502Z" fill="#32373B"/>
<path d="M23.1697 4.93359H18.4912V9.69218H23.1697V4.93359Z" fill="#D0D5D9"/>
<path d="M27.8465 14.4502H23.168V19.2088H27.8465V14.4502Z" fill="#32373B"/>
<path d="M32.5281 4.93359H27.8496V9.69218H32.5281V4.93359Z" fill="#D0D5D9"/>
<path d="M37.2039 14.4502H32.5254V19.2088H37.2039V14.4502Z" fill="#32373B"/>
<path d="M41.8806 4.93359H37.2021V9.69218H41.8806V4.93359Z" fill="#D0D5D9"/>
<path d="M46.5623 14.4502H41.8838V19.2088H46.5623V14.4502Z" fill="#32373B"/>
<path d="M55.9148 14.4502H51.2363V19.2088H55.9148V14.4502Z" fill="#32373B"/>
<path d="M4.4529 23.9678H-0.225586V28.7264H4.4529V23.9678Z" fill="#D0D5D9"/>
<path d="M13.8113 23.9678H9.13281V28.7264H13.8113V23.9678Z" fill="#D0D5D9"/>
<path d="M23.1697 23.9678H18.4912V28.7264H23.1697V23.9678Z" fill="#D0D5D9"/>
<path d="M32.5281 23.9678H27.8496V28.7264H32.5281V23.9678Z" fill="#D0D5D9"/>
<path d="M41.8806 23.9678H37.2021V28.7264H41.8806V23.9678Z" fill="#D0D5D9"/>
<path d="M51.239 23.9678H46.5605V28.7264H51.239V23.9678Z" fill="#D0D5D9"/>
<path d="M60.5964 23.9678H55.918V28.7264H60.5964V23.9678Z" fill="#D0D5D9"/>
<path d="M9.13454 23.9678H4.45605V28.7264H9.13454V23.9678Z" fill="#32373B"/>
<path d="M18.4881 23.9678H13.8096V28.7264H18.4881V23.9678Z" fill="#32373B"/>
<path d="M27.8465 23.9678H23.168V28.7264H27.8465V23.9678Z" fill="#32373B"/>
<path d="M37.2039 23.9678H32.5254V28.7264H37.2039V23.9678Z" fill="#32373B"/>
<path d="M46.5623 23.9678H41.8838V28.7264H46.5623V23.9678Z" fill="#32373B"/>
<path d="M55.9148 23.9678H51.2363V28.7264H55.9148V23.9678Z" fill="#32373B"/>
<path d="M55.9148 9.69141H51.2363V14.45H55.9148V9.69141Z" fill="#D0D5D9"/>
<path d="M60.5964 4.93359H55.918V9.69218H60.5964V4.93359Z" fill="#D0D5D9"/>
<path d="M60.5964 9.69141H55.918V14.45H60.5964V9.69141Z" fill="#32373B"/>
<path d="M51.239 0.174805H46.5605V4.93339H51.239V0.174805Z" fill="#32373B"/>
</g>
<defs>
<clipPath id="clip0_6203_7107">
<rect width="63" height="403" fill="white"/>
</clipPath>
</defs>
</svg>
