<svg width="66" height="63" viewBox="0 0 66 63" fill="none" xmlns="http://www.w3.org/2000/svg">
<path d="M39.6792 48.2543C40.3369 50.0699 39.8761 52.6573 38.7575 53.7673C37.6389 54.8762 35.5656 56.3211 33.0325 55.6492C30.4984 54.9774 20.0192 50.7173 20.0192 50.7173H10.1294C4.50006 45.6157 0.953125 38.1708 0.953125 29.8797C0.953125 14.5004 13.1586 2.03296 28.2145 2.03296C39.3651 2.03296 48.9511 8.86997 53.1751 18.664C53.389 19.1569 53.587 19.695 53.7725 20.2053L30.3288 25.637C29.7132 25.78 29.274 26.3344 29.2649 26.9796L29.0862 41.115C29.0782 41.7323 29.4674 42.2809 30.0443 42.4657L38.3478 45.1159C38.9304 46.4294 39.4584 47.6487 39.6792 48.2543Z" fill="#6894FF"/>
<path d="M57.7382 25.8823L55.2734 26.4425L42.5275 29.3415L41.8629 26.7378C41.8128 26.539 41.9335 26.3379 42.1292 26.2926L57.4082 22.8171L57.9817 25.4929C58.0192 25.6684 57.9111 25.8428 57.7382 25.8823Z" fill="#6894FF"/>
<path d="M63.8726 46.3445L63.1068 36.4993L44.2774 35.2312C44.125 35.2207 43.9964 35.1115 43.9577 34.9615L42.525 29.3415L41.8605 26.7378C41.8104 26.539 41.931 26.3379 42.1267 26.2926L57.4057 22.8171L57.8837 22.7079C58.6552 22.5324 59.1741 21.8338 59.1741 21.0655C59.1741 20.919 59.1559 20.7702 59.1161 20.6214C58.8851 19.7508 58.0225 19.2208 57.16 19.4207L56.7002 19.5265L53.7723 20.2053L30.3287 25.637C29.7131 25.78 29.2738 26.3345 29.2647 26.9796L29.0861 41.115C29.0781 41.7323 29.4673 42.2809 30.0442 42.4657L38.3477 45.1159L43.2328 46.6746C43.9565 48.3891 44.6473 49.1958 46.4031 51.0439C47.7163 52.426 54.2002 57.7171 57.391 60.301C58.2535 60.9996 59.5337 60.6067 59.8773 59.5385L63.7315 47.5487C63.8567 47.1605 63.9045 46.7513 63.8726 46.3445ZM32.4065 28.787C32.4065 28.6545 32.4987 28.5418 32.6262 28.5162L38.4023 27.3969C38.5411 27.3701 38.6777 27.4585 38.7141 27.5991L39.3365 30.0668L40.1741 33.3888C40.2287 33.605 40.0227 33.7945 39.8179 33.7166L32.5818 30.9328C32.476 30.8921 32.4065 30.7898 32.4065 30.6747V28.787ZM42.1609 43.0004L36.5406 41.1092L32.5852 39.7772C32.4782 39.7423 32.4065 39.64 32.4065 39.5261V34.6302C32.4065 34.4907 32.5442 34.3954 32.6717 34.4454L41.1163 37.8186C41.1948 37.85 41.254 37.9186 41.2733 38.0034L42.409 42.7656C42.4454 42.9167 42.3043 43.0492 42.1609 43.0004ZM60.0401 48.1624L57.548 56.0026C57.5002 56.1525 57.317 56.2037 57.2021 56.099L48.1851 47.9032C48.0349 47.7672 48.1339 47.515 48.3342 47.5208L59.8432 47.8765C59.9854 47.8812 60.0844 48.0241 60.0401 48.1624ZM60.2654 44.5324L46.3223 44.093C46.2085 44.0895 46.1118 44.007 46.0879 43.8931L45.1172 39.2111C45.0842 39.0472 45.2117 38.8961 45.3744 38.9066L59.9786 39.7888C60.1015 39.7958 60.2016 39.8957 60.2108 40.0224L60.5191 44.2604C60.5305 44.4103 60.4122 44.537 60.2654 44.5324Z" fill="#A7A9AC"/>
<path d="M56.6972 19.5265L53.7693 20.2053C53.5838 19.695 53.3858 19.1569 53.1719 18.664L56.0895 18.1514C56.2579 18.1212 56.4195 18.2328 56.4571 18.4037L56.6972 19.5265Z" fill="#6894FF"/>
<path d="M39.3362 30.0668L35.7939 30.8723C35.6755 30.899 35.5925 31.0083 35.5947 31.1315L35.6141 32.0998L32.5815 30.9328C32.4757 30.8921 32.4062 30.7898 32.4062 30.6747V28.787C32.4062 28.6545 32.4984 28.5418 32.6259 28.5162L38.402 27.3969C38.5408 27.3701 38.6774 27.4585 38.7138 27.5991L39.3362 30.0668Z" fill="#6894FF"/>
<path d="M36.5404 41.1092L32.5849 39.7772C32.4779 39.7423 32.4062 39.64 32.4062 39.5261V34.6302C32.4062 34.4907 32.5439 34.3954 32.6714 34.4454L35.6869 35.6496L35.7631 39.4238C35.7631 39.4238 36.092 40.127 36.5438 41.1104H36.5404V41.1092Z" fill="#6894FF"/>
<path d="M18.4148 45.9272C22.415 45.9272 25.6577 42.6148 25.6577 38.5288C25.6577 34.4428 22.415 31.1304 18.4148 31.1304C14.4146 31.1304 11.1719 34.4428 11.1719 38.5288C11.1719 42.6148 14.4146 45.9272 18.4148 45.9272Z" fill="#A7A9AC"/>
<path d="M18.4108 42.0368C20.3075 42.0368 21.8451 40.4662 21.8451 38.5288C21.8451 36.5913 20.3075 35.0208 18.4108 35.0208C16.5141 35.0208 14.9766 36.5913 14.9766 38.5288C14.9766 40.4662 16.5141 42.0368 18.4108 42.0368Z" fill="#6D6E71"/>
<path opacity="0.2" d="M39.9011 51.1765C39.7372 52.2272 39.3355 53.1943 38.7575 53.7674C37.6389 54.8763 35.5656 56.3211 33.0325 55.6492C30.4984 54.9774 20.0192 50.7173 20.0192 50.7173H10.1294C4.50006 45.6157 0.953125 38.1708 0.953125 29.8797C0.953125 23.8679 2.81819 18.3014 5.98961 13.7507C4.04261 17.583 2.94337 21.9372 2.94337 26.553C2.94337 34.8441 6.4903 42.289 12.1196 47.3906H22.0094C22.0094 47.3906 32.4886 51.6507 35.0228 52.3225C37.013 52.8503 38.7188 52.0715 39.9011 51.1765Z" fill="#231F20"/>
</svg>
