<svg width="236" height="445" viewBox="0 0 236 445" fill="none" xmlns="http://www.w3.org/2000/svg">
<g clip-path="url(#clip0_6203_7540)">
<path d="M2.90137 47.8932L2.90137 397.108C2.90137 421.959 20.3934 442.104 41.971 442.104L194.028 442.104C215.606 442.104 233.098 421.959 233.098 397.108L233.098 47.8932C233.098 23.0421 215.606 2.89624 194.028 2.89624L41.971 2.89624C20.3934 2.89624 2.90137 23.0421 2.90137 47.8932Z" fill="#121E24"/>
<path d="M101.558 407.354L3.86914 407.354" stroke="#F9141B" stroke-width="2" stroke-linecap="round" stroke-linejoin="round"/>
<path d="M231.163 407.354L130.573 407.354" stroke="#F9141B" stroke-width="2" stroke-linecap="round" stroke-linejoin="round"/>
<path d="M232.131 33.7852L130.573 33.7852" stroke="#F9141B" stroke-width="2" stroke-linecap="round" stroke-linejoin="round"/>
<path d="M99.6228 33.7852L4.83594 33.7852" stroke="#F9141B" stroke-width="2" stroke-linecap="round" stroke-linejoin="round"/>
<path d="M233.098 282.831L2.90137 282.831" stroke="#057BC1" stroke-width="2" stroke-linecap="round" stroke-linejoin="round"/>
<path d="M233.098 213.33L216.013 213.33L168.886 213.33L123.803 213.33" stroke="#F9141B" stroke-width="2" stroke-linecap="round" stroke-linejoin="round"/>
<path d="M2.90137 213.33L81.7288 213.33L110.262 213.33" stroke="#F9141B" stroke-width="2" stroke-linecap="round" stroke-linejoin="round"/>
<path d="M3.86807 229.534C4.69456 229.67 5.54079 229.739 6.4068 229.739C15.1524 229.739 22.2451 222.606 22.2451 213.81C22.2451 205.015 15.1524 197.885 6.4068 197.885C5.54079 197.885 4.69456 197.954 3.86807 198.09" stroke="#F9141B" stroke-width="2" stroke-linecap="round" stroke-linejoin="round"/>
<path d="M115.096 393.839C122.554 393.839 128.605 399.88 128.64 407.354L101.558 407.354C101.592 399.88 107.639 393.839 115.096 393.839Z" fill="#6DCEF8"/>
<path d="M101.558 33.7857L128.64 33.7857C128.605 41.2589 122.554 47.2998 115.096 47.2998C107.639 47.2998 101.592 41.2589 101.558 33.7857Z" fill="#6DCEF8"/>
<path d="M2.90137 47.8932L2.90137 397.108C2.90137 421.959 20.3934 442.104 41.971 442.104L194.028 442.104C215.606 442.104 233.098 421.959 233.098 397.108L233.098 47.8932C233.098 23.0421 215.606 2.89624 194.028 2.89624L41.971 2.89624C20.3934 2.89624 2.90137 23.0421 2.90137 47.8932Z" stroke="#192327" stroke-width="4" stroke-linecap="round" stroke-linejoin="round"/>
<path d="M115.096 393.839C122.554 393.839 128.605 399.88 128.64 407.354L101.558 407.354C101.592 399.88 107.639 393.839 115.096 393.839Z" stroke="#057BC1" stroke-width="2" stroke-linecap="round" stroke-linejoin="round"/>
<path d="M101.558 33.7857L128.64 33.7857C128.605 41.2589 122.554 47.2998 115.096 47.2998C107.639 47.2998 101.592 41.2589 101.558 33.7857Z" stroke="#057BC1" stroke-width="2" stroke-linecap="round" stroke-linejoin="round"/>
<path d="M88.9828 366.328C88.9828 350.068 75.5587 336.887 58.9992 336.887C42.4397 336.887 29.0156 350.068 29.0156 366.328C29.0156 382.588 42.4397 395.77 58.9992 395.77C75.5587 395.77 88.9828 382.588 88.9828 366.328Z" stroke="#F9141B" stroke-width="2" stroke-linecap="round" stroke-linejoin="round"/>
<path d="M92.8527 371.638L88.0166 371.638" stroke="#F9141B" stroke-width="2" stroke-linecap="round" stroke-linejoin="round"/>
<path d="M29.9834 371.638L23.2129 371.638" stroke="#F9141B" stroke-width="2" stroke-linecap="round" stroke-linejoin="round"/>
<path d="M92.8527 360.055L88.0166 360.055" stroke="#F9141B" stroke-width="2" stroke-linecap="round" stroke-linejoin="round"/>
<path d="M29.9834 360.055L23.2129 360.055" stroke="#F9141B" stroke-width="2" stroke-linecap="round" stroke-linejoin="round"/>
<path d="M204.081 366.328C204.081 350.068 190.873 336.887 174.581 336.887C158.289 336.887 145.081 350.068 145.081 366.328C145.081 382.588 158.289 395.77 174.581 395.77C190.873 395.77 204.081 382.588 204.081 366.328Z" stroke="#F9141B" stroke-width="2" stroke-linecap="round" stroke-linejoin="round"/>
<path d="M208.917 371.638L204.081 371.638" stroke="#F9141B" stroke-width="2" stroke-linecap="round" stroke-linejoin="round"/>
<path d="M145.082 371.638L139.278 371.638" stroke="#F9141B" stroke-width="2" stroke-linecap="round" stroke-linejoin="round"/>
<path d="M208.917 360.055L204.081 360.055" stroke="#F9141B" stroke-width="2" stroke-linecap="round" stroke-linejoin="round"/>
<path d="M145.082 360.055L139.278 360.055" stroke="#F9141B" stroke-width="2" stroke-linecap="round" stroke-linejoin="round"/>
<path d="M88.9828 73.8447C88.9828 57.5847 75.5587 44.4033 58.9992 44.4033C42.4397 44.4033 29.0156 57.5847 29.0156 73.8447C29.0156 90.1047 42.4397 103.286 58.9992 103.286C75.5587 103.286 88.9828 90.1047 88.9828 73.8447Z" stroke="#F9141B" stroke-width="2" stroke-linecap="round" stroke-linejoin="round"/>
<path d="M92.8517 80.1191L88.0156 80.1191" stroke="#F9141B" stroke-width="2" stroke-linecap="round" stroke-linejoin="round"/>
<path d="M29.9834 80.1191L23.2129 80.1191" stroke="#F9141B" stroke-width="2" stroke-linecap="round" stroke-linejoin="round"/>
<path d="M92.8517 68.5361L88.0156 68.5361" stroke="#F9141B" stroke-width="2" stroke-linecap="round" stroke-linejoin="round"/>
<path d="M29.9834 68.5361L23.2129 68.5361" stroke="#F9141B" stroke-width="2" stroke-linecap="round" stroke-linejoin="round"/>
<path d="M204.081 73.8447C204.081 57.5847 190.873 44.4033 174.581 44.4033C158.289 44.4033 145.081 57.5847 145.081 73.8447C145.081 90.1047 158.289 103.286 174.581 103.286C190.873 103.286 204.081 90.1047 204.081 73.8447Z" stroke="#F9141B" stroke-width="2" stroke-linecap="round" stroke-linejoin="round"/>
<path d="M208.917 80.1191L204.081 80.1191" stroke="#F9141B" stroke-width="2" stroke-linecap="round" stroke-linejoin="round"/>
<path d="M145.082 80.1191L139.278 80.1191" stroke="#F9141B" stroke-width="2" stroke-linecap="round" stroke-linejoin="round"/>
<path d="M208.917 68.5361L204.081 68.5361" stroke="#F9141B" stroke-width="2" stroke-linecap="round" stroke-linejoin="round"/>
<path d="M145.082 68.5361L139.278 68.5361" stroke="#F9141B" stroke-width="2" stroke-linecap="round" stroke-linejoin="round"/>
<path d="M233.098 143.829L2.90137 143.829" stroke="#057BC1" stroke-width="2" stroke-linecap="round" stroke-linejoin="round"/>
<path d="M145.083 213.33C145.083 197.869 132.525 185.336 117.034 185.336C101.542 185.336 88.9844 197.869 88.9844 213.33C88.9844 228.79 101.542 241.323 117.034 241.323C132.525 241.323 145.083 228.79 145.083 213.33Z" stroke="#057BC1" stroke-width="2" stroke-linecap="round" stroke-linejoin="round"/>
<path d="M118.967 213.33C118.967 212.264 118.101 211.4 117.033 211.4C115.965 211.4 115.099 212.264 115.099 213.33C115.099 214.396 115.965 215.261 117.033 215.261C118.101 215.261 118.967 214.396 118.967 213.33Z" fill="#057BC1"/>
<path d="M99.623 407.354L130.574 407.354L127.911 411.215L102.675 411.215L99.623 407.354Z" stroke="#057BC1" stroke-width="2" stroke-linecap="round" stroke-linejoin="round"/>
<path d="M102.675 29.924L127.911 29.924L130.574 33.7852L99.623 33.7852L102.675 29.924Z" stroke="#057BC1" stroke-width="2" stroke-linecap="round" stroke-linejoin="round"/>
</g>
<defs>
<clipPath id="clip0_6203_7540">
<rect width="445" height="236" fill="white" transform="translate(0 445) rotate(-90)"/>
</clipPath>
</defs>
</svg>
