<svg width="241" height="455" viewBox="0 0 241 455" fill="none" xmlns="http://www.w3.org/2000/svg">
<g clip-path="url(#clip0_6203_6302)">
<path d="M2.96289 48.9691L2.96289 406.031C2.96289 431.441 20.8255 452.039 42.8603 452.039L198.139 452.039C220.174 452.039 238.037 431.441 238.037 406.031L238.037 48.9691C238.037 23.5595 220.174 2.96097 198.139 2.96097L42.8603 2.96097C20.8256 2.96097 2.9629 23.5595 2.96289 48.9691Z" fill="#121E24"/>
<path d="M103.709 416.508L3.95117 416.508" stroke="#F9141B" stroke-width="2" stroke-linecap="round" stroke-linejoin="round"/>
<path d="M236.061 416.508L133.34 416.508" stroke="#F9141B" stroke-width="2" stroke-linecap="round" stroke-linejoin="round"/>
<path d="M237.049 34.5444L133.34 34.5444" stroke="#F9141B" stroke-width="2" stroke-linecap="round" stroke-linejoin="round"/>
<path d="M101.734 34.5444L4.93848 34.5444" stroke="#F9141B" stroke-width="2" stroke-linecap="round" stroke-linejoin="round"/>
<path d="M238.037 289.187L2.96289 289.187" stroke="#057BC1" stroke-width="2" stroke-linecap="round" stroke-linejoin="round"/>
<path d="M238.036 218.124L220.589 218.124L172.464 218.124L126.426 218.124" stroke="#F9141B" stroke-width="2" stroke-linecap="round" stroke-linejoin="round"/>
<path d="M2.96289 218.124L83.4604 218.124L112.598 218.124" stroke="#F9141B" stroke-width="2" stroke-linecap="round" stroke-linejoin="round"/>
<path d="M3.9504 234.693C4.7944 234.831 5.65857 234.903 6.54292 234.903C15.4738 234.903 22.7168 227.609 22.7168 218.616C22.7168 209.622 15.4739 202.332 6.54292 202.332C5.65857 202.332 4.79441 202.403 3.95041 202.542" stroke="#F9141B" stroke-width="2" stroke-linecap="round" stroke-linejoin="round"/>
<path d="M117.535 402.69C125.15 402.69 131.329 408.867 131.365 416.508L103.709 416.508C103.744 408.867 109.919 402.69 117.535 402.69Z" fill="#6DCEF8"/>
<path d="M103.709 34.5445L131.365 34.5445C131.329 42.1857 125.15 48.3623 117.535 48.3623C109.919 48.3623 103.744 42.1857 103.709 34.5445Z" fill="#6DCEF8"/>
<path d="M2.96289 48.9691L2.96289 406.031C2.96289 431.441 20.8255 452.039 42.8603 452.039L198.139 452.039C220.174 452.039 238.037 431.441 238.037 406.031L238.037 48.9691C238.037 23.5595 220.174 2.96097 198.139 2.96097L42.8603 2.96097C20.8256 2.96097 2.9629 23.5595 2.96289 48.9691Z" stroke="#192327" stroke-width="4" stroke-linecap="round" stroke-linejoin="round"/>
<path d="M117.535 402.69C125.15 402.69 131.329 408.867 131.365 416.508L103.709 416.508C103.744 408.867 109.919 402.69 117.535 402.69Z" stroke="#057BC1" stroke-width="2" stroke-linecap="round" stroke-linejoin="round"/>
<path d="M103.709 34.5445L131.365 34.5445C131.329 42.1857 125.15 48.3623 117.535 48.3623C109.919 48.3623 103.744 42.1857 103.709 34.5445Z" stroke="#057BC1" stroke-width="2" stroke-linecap="round" stroke-linejoin="round"/>
<path d="M90.8686 374.561C90.8686 357.935 77.16 344.458 60.2497 344.458C43.3394 344.458 29.6309 357.935 29.6309 374.561C29.6309 391.186 43.3394 404.664 60.2497 404.664C77.16 404.664 90.8686 391.186 90.8686 374.561Z" stroke="#F9141B" stroke-width="2" stroke-linecap="round" stroke-linejoin="round"/>
<path d="M94.8194 379.989L89.8809 379.989" stroke="#F9141B" stroke-width="2" stroke-linecap="round" stroke-linejoin="round"/>
<path d="M30.619 379.989L23.7051 379.989" stroke="#F9141B" stroke-width="2" stroke-linecap="round" stroke-linejoin="round"/>
<path d="M94.8194 368.146L89.8809 368.146" stroke="#F9141B" stroke-width="2" stroke-linecap="round" stroke-linejoin="round"/>
<path d="M30.619 368.146L23.7051 368.146" stroke="#F9141B" stroke-width="2" stroke-linecap="round" stroke-linejoin="round"/>
<path d="M208.405 374.561C208.405 357.935 194.918 344.458 178.28 344.458C161.643 344.458 148.155 357.935 148.155 374.561C148.155 391.186 161.643 404.664 178.28 404.664C194.918 404.664 208.405 391.186 208.405 374.561Z" stroke="#F9141B" stroke-width="2" stroke-linecap="round" stroke-linejoin="round"/>
<path d="M213.344 379.989L208.405 379.989" stroke="#F9141B" stroke-width="2" stroke-linecap="round" stroke-linejoin="round"/>
<path d="M148.156 379.989L142.229 379.989" stroke="#F9141B" stroke-width="2" stroke-linecap="round" stroke-linejoin="round"/>
<path d="M213.344 368.146L208.405 368.146" stroke="#F9141B" stroke-width="2" stroke-linecap="round" stroke-linejoin="round"/>
<path d="M148.156 368.146L142.229 368.146" stroke="#F9141B" stroke-width="2" stroke-linecap="round" stroke-linejoin="round"/>
<path d="M90.8686 75.5044C90.8686 58.8789 77.16 45.4013 60.2497 45.4013C43.3394 45.4013 29.6309 58.8789 29.6309 75.5044C29.6309 92.1298 43.3394 105.607 60.2497 105.607C77.16 105.607 90.8686 92.1298 90.8686 75.5044Z" stroke="#F9141B" stroke-width="2" stroke-linecap="round" stroke-linejoin="round"/>
<path d="M94.8194 81.9199L89.8809 81.9199" stroke="#F9141B" stroke-width="2" stroke-linecap="round" stroke-linejoin="round"/>
<path d="M30.619 81.9199L23.7051 81.9199" stroke="#F9141B" stroke-width="2" stroke-linecap="round" stroke-linejoin="round"/>
<path d="M94.8194 70.0762L89.8809 70.0762" stroke="#F9141B" stroke-width="2" stroke-linecap="round" stroke-linejoin="round"/>
<path d="M30.619 70.0762L23.7051 70.0762" stroke="#F9141B" stroke-width="2" stroke-linecap="round" stroke-linejoin="round"/>
<path d="M208.405 75.5044C208.405 58.8789 194.918 45.4013 178.28 45.4013C161.643 45.4013 148.155 58.8789 148.155 75.5044C148.155 92.1298 161.643 105.607 178.28 105.607C194.918 105.607 208.405 92.1298 208.405 75.5044Z" stroke="#F9141B" stroke-width="2" stroke-linecap="round" stroke-linejoin="round"/>
<path d="M213.344 81.9199L208.405 81.9199" stroke="#F9141B" stroke-width="2" stroke-linecap="round" stroke-linejoin="round"/>
<path d="M148.156 81.9199L142.229 81.9199" stroke="#F9141B" stroke-width="2" stroke-linecap="round" stroke-linejoin="round"/>
<path d="M213.344 70.0762L208.405 70.0762" stroke="#F9141B" stroke-width="2" stroke-linecap="round" stroke-linejoin="round"/>
<path d="M148.156 70.0762L142.229 70.0762" stroke="#F9141B" stroke-width="2" stroke-linecap="round" stroke-linejoin="round"/>
<path d="M238.037 147.061L2.96289 147.061" stroke="#057BC1" stroke-width="2" stroke-linecap="round" stroke-linejoin="round"/>
<path d="M148.156 218.124C148.156 202.316 135.332 189.501 119.513 189.501C103.693 189.501 90.8691 202.316 90.8691 218.124C90.8691 233.931 103.693 246.746 119.513 246.746C135.332 246.746 148.156 233.931 148.156 218.124Z" stroke="#057BC1" stroke-width="2" stroke-linecap="round" stroke-linejoin="round"/>
<path d="M121.488 218.124C121.488 217.033 120.604 216.15 119.513 216.15C118.422 216.15 117.537 217.033 117.537 218.124C117.537 219.214 118.422 220.098 119.513 220.098C120.604 220.098 121.488 219.214 121.488 218.124Z" fill="#057BC1"/>
<path d="M101.733 416.508L133.34 416.508L130.621 420.456L104.85 420.456L101.733 416.508Z" stroke="#057BC1" stroke-width="2" stroke-linecap="round" stroke-linejoin="round"/>
<path d="M104.85 30.5965L130.621 30.5965L133.34 34.5444L101.733 34.5444L104.85 30.5965Z" stroke="#057BC1" stroke-width="2" stroke-linecap="round" stroke-linejoin="round"/>
</g>
<defs>
<clipPath id="clip0_6203_6302">
<rect width="455" height="241" fill="white" transform="translate(0 455) rotate(-90)"/>
</clipPath>
</defs>
</svg>
