<svg width="516" height="831" viewBox="0 0 516 831" fill="none" xmlns="http://www.w3.org/2000/svg">
<g clip-path="url(#clip0_5672_5016)">
<path d="M12.4063 93.1111L12.4063 734.719C12.4063 780.377 49.5421 817.391 95.3514 817.391L418.171 817.391C463.98 817.391 501.116 780.377 501.116 734.719L501.116 93.1112C501.116 47.4525 463.98 10.4388 418.171 10.4388L95.3514 10.4388C49.5421 10.4388 12.4063 47.4525 12.4063 93.1111Z" fill="#121E24"/>
<path d="M222.137 759.362L16.1484 759.362" stroke="#F9141B" stroke-width="3" stroke-linecap="round" stroke-linejoin="round"/>
<path d="M497.357 759.362L283.977 759.362" stroke="#F9141B" stroke-width="3" stroke-linecap="round" stroke-linejoin="round"/>
<path d="M499.425 76.5134L283.977 76.5134" stroke="#F9141B" stroke-width="3" stroke-linecap="round" stroke-linejoin="round"/>
<path d="M217.562 76.5134L14.0859 76.5134" stroke="#F9141B" stroke-width="3" stroke-linecap="round" stroke-linejoin="round"/>
<path d="M501.107 535.22L12.4062 535.22" stroke="#057BC1" stroke-width="5" stroke-linecap="round" stroke-linejoin="round"/>
<path d="M501.105 416.27L464.924 416.27L365.127 416.27L269.656 416.27" stroke="#F9141B" stroke-width="3" stroke-linecap="round" stroke-linejoin="round"/>
<path d="M12.4062 416.27L180.791 416.27L241.741 416.27" stroke="#F9141B" stroke-width="3" stroke-linecap="round" stroke-linejoin="round"/>
<path d="M15 450.562C16.754 450.852 18.5499 451 20.3877 451C38.9478 451 54 435.773 54 416.996C54 398.22 38.9478 383 20.3877 383C18.5499 383 16.754 383.148 15 383.438" stroke="#F9141B" stroke-width="3" stroke-linecap="round" stroke-linejoin="round"/>
<path d="M250.593 731.13C266.266 731.13 278.982 743.75 279.055 759.362L222.141 759.362C222.213 743.75 234.92 731.13 250.593 731.13Z" fill="#6DCEF8"/>
<path d="M222.141 76.5134L279.055 76.5134C278.982 92.1258 266.266 104.746 250.593 104.746C234.92 104.746 222.213 92.1258 222.141 76.5134Z" fill="#6DCEF8"/>
<path d="M12.4063 93.1111L12.4063 734.719C12.4063 780.377 49.5421 817.391 95.3514 817.391L418.171 817.391C463.98 817.391 501.116 780.377 501.116 734.719L501.116 93.1112C501.116 47.4525 463.98 10.4388 418.171 10.4388L95.3514 10.4388C49.5421 10.4388 12.4063 47.4525 12.4063 93.1111Z" stroke="#192327" stroke-width="7" stroke-linecap="round" stroke-linejoin="round"/>
<path d="M250.593 731.13C266.266 731.13 278.982 743.75 279.055 759.362L222.141 759.362C222.213 743.75 234.92 731.13 250.593 731.13Z" stroke="#057BC1" stroke-width="3" stroke-linecap="round" stroke-linejoin="round"/>
<path d="M222.141 76.5134L279.055 76.5134C278.982 92.1258 266.266 104.746 250.593 104.746C234.92 104.746 222.213 92.1258 222.141 76.5134Z" stroke="#057BC1" stroke-width="3" stroke-linecap="round" stroke-linejoin="round"/>
<path d="M194.931 672.703C194.931 638.054 166.749 609.964 131.985 609.964C97.2209 609.964 69.0391 638.054 69.0391 672.703C69.0391 707.353 97.2209 735.442 131.985 735.442C166.749 735.442 194.931 707.353 194.931 672.703Z" stroke="#F9141B" stroke-width="3" stroke-linecap="round" stroke-linejoin="round"/>
<path d="M204.762 684.862L193.742 684.862" stroke="#F9141B" stroke-width="3" stroke-linecap="round" stroke-linejoin="round"/>
<path d="M70.2269 684.862L57.0391 684.862" stroke="#F9141B" stroke-width="3" stroke-linecap="round" stroke-linejoin="round"/>
<path d="M204.759 660.942L193.82 660.942" stroke="#F9141B" stroke-width="3" stroke-linecap="round" stroke-linejoin="round"/>
<path d="M70.1452 660.942L57.0391 660.942" stroke="#F9141B" stroke-width="3" stroke-linecap="round" stroke-linejoin="round"/>
<path d="M439.868 672.703C439.868 638.054 411.686 609.964 376.922 609.964C342.158 609.964 313.977 638.054 313.977 672.703C313.977 707.353 342.158 735.442 376.922 735.442C411.686 735.442 439.868 707.353 439.868 672.703Z" stroke="#F9141B" stroke-width="3" stroke-linecap="round" stroke-linejoin="round"/>
<path d="M449.7 684.862L438.68 684.862" stroke="#F9141B" stroke-width="3" stroke-linecap="round" stroke-linejoin="round"/>
<path d="M315.164 684.862L301.977 684.862" stroke="#F9141B" stroke-width="3" stroke-linecap="round" stroke-linejoin="round"/>
<path d="M449.696 660.942L438.758 660.942" stroke="#F9141B" stroke-width="3" stroke-linecap="round" stroke-linejoin="round"/>
<path d="M315.083 660.942L301.977 660.942" stroke="#F9141B" stroke-width="3" stroke-linecap="round" stroke-linejoin="round"/>
<path d="M194.931 161.373C194.931 126.724 166.749 98.6347 131.985 98.6347C97.2209 98.6347 69.0391 126.724 69.0391 161.373C69.0391 196.023 97.2209 224.112 131.985 224.112C166.749 224.112 194.931 196.023 194.931 161.373Z" stroke="#F9141B" stroke-width="3" stroke-linecap="round" stroke-linejoin="round"/>
<path d="M204.762 173.542L193.742 173.542" stroke="#F9141B" stroke-width="3" stroke-linecap="round" stroke-linejoin="round"/>
<path d="M70.2269 173.542L57.0391 173.542" stroke="#F9141B" stroke-width="3" stroke-linecap="round" stroke-linejoin="round"/>
<path d="M204.759 149.621L193.82 149.621" stroke="#F9141B" stroke-width="3" stroke-linecap="round" stroke-linejoin="round"/>
<path d="M70.1452 149.621L57.0391 149.621" stroke="#F9141B" stroke-width="3" stroke-linecap="round" stroke-linejoin="round"/>
<path d="M439.868 161.373C439.868 126.724 411.686 98.6347 376.922 98.6347C342.158 98.6347 313.977 126.724 313.977 161.373C313.977 196.023 342.158 224.112 376.922 224.112C411.686 224.112 439.868 196.023 439.868 161.373Z" stroke="#F9141B" stroke-width="3" stroke-linecap="round" stroke-linejoin="round"/>
<path d="M449.7 173.542L438.68 173.542" stroke="#F9141B" stroke-width="3" stroke-linecap="round" stroke-linejoin="round"/>
<path d="M315.164 173.542L301.977 173.542" stroke="#F9141B" stroke-width="3" stroke-linecap="round" stroke-linejoin="round"/>
<path d="M449.696 149.621L438.758 149.621" stroke="#F9141B" stroke-width="3" stroke-linecap="round" stroke-linejoin="round"/>
<path d="M315.083 149.621L301.977 149.621" stroke="#F9141B" stroke-width="3" stroke-linecap="round" stroke-linejoin="round"/>
<path d="M501.107 297.066L12.4062 297.066" stroke="#057BC1" stroke-width="5" stroke-linecap="round" stroke-linejoin="round"/>
<path d="M315.231 415.746C315.231 382.903 288.519 356.279 255.569 356.279C222.618 356.279 195.906 382.903 195.906 415.746C195.906 448.588 222.618 475.212 255.569 475.212C288.519 475.212 315.231 448.588 315.231 415.746Z" stroke="#057BC1" stroke-width="3" stroke-linecap="round" stroke-linejoin="round"/>
<path d="M259.889 416.396C259.889 413.98 257.924 412.021 255.499 412.021C253.075 412.021 251.109 413.98 251.109 416.396C251.109 418.813 253.075 420.772 255.499 420.772C257.924 420.772 259.889 418.813 259.889 416.396Z" fill="#057BC1"/>
<path d="M217.563 759.362L283.982 759.362L278.268 767.851L224.111 767.851L217.563 759.362Z" stroke="#057BC1" stroke-width="3" stroke-linecap="round" stroke-linejoin="round"/>
<path d="M224.111 68.0157L278.268 68.0157L283.982 76.5134L217.562 76.5134L224.111 68.0157Z" stroke="#057BC1" stroke-width="3" stroke-linecap="round" stroke-linejoin="round"/>
</g>
<defs>
<clipPath id="clip0_5672_5016">
<rect width="831" height="516" fill="white" transform="translate(0 831) rotate(-90)"/>
</clipPath>
</defs>
</svg>
