<svg width="244" height="461" viewBox="0 0 244 461" fill="none" xmlns="http://www.w3.org/2000/svg">
<g clip-path="url(#clip0_5703_19469)">
<path d="M3 49.6148L3 411.385C3 437.13 21.085 458 43.394 458L200.606 458C222.915 458 241 437.13 241 411.385L241 49.6148C241 23.8702 222.915 3.00003 200.606 3.00003L43.394 3.00003C21.085 3.00003 3 23.8702 3 49.6148Z" fill="#121E24"/>
<path d="M105 422L4 422" stroke="#F9141B" stroke-width="2" stroke-linecap="round" stroke-linejoin="round"/>
<path d="M239 422L135 422" stroke="#F9141B" stroke-width="2" stroke-linecap="round" stroke-linejoin="round"/>
<path d="M240 35L135 35" stroke="#F9141B" stroke-width="2" stroke-linecap="round" stroke-linejoin="round"/>
<path d="M103 35L5 35" stroke="#F9141B" stroke-width="2" stroke-linecap="round" stroke-linejoin="round"/>
<path d="M241 293L3 293" stroke="#057BC1" stroke-width="2" stroke-linecap="round" stroke-linejoin="round"/>
<path d="M241 221L223.336 221L174.612 221L128 221" stroke="#F9141B" stroke-width="2" stroke-linecap="round" stroke-linejoin="round"/>
<path d="M3 221L84.4995 221L114 221" stroke="#F9141B" stroke-width="2" stroke-linecap="round" stroke-linejoin="round"/>
<path d="M4 237.787C4.85451 237.928 5.72943 238 6.62479 238C15.6669 238 23 230.61 23 221.498C23 212.386 15.6669 205 6.62479 205C5.72943 205 4.85451 205.072 4 205.213" stroke="#F9141B" stroke-width="2" stroke-linecap="round" stroke-linejoin="round"/>
<path d="M118.998 408C126.708 408 132.964 414.258 133 422L105 422C105.036 414.258 111.287 408 118.998 408Z" fill="#6DCEF8"/>
<path d="M105 35L133 35C132.964 42.7419 126.708 49 118.998 49C111.287 49 105.036 42.7419 105 35Z" fill="#6DCEF8"/>
<path d="M3 49.6148L3 411.385C3 437.13 21.085 458 43.394 458L200.606 458C222.915 458 241 437.13 241 411.385L241 49.6148C241 23.8702 222.915 3 200.606 3L43.394 3C21.085 3 3 23.8701 3 49.6148Z" stroke="#192327" stroke-width="4" stroke-linecap="round" stroke-linejoin="round"/>
<path d="M118.998 408C126.708 408 132.964 414.258 133 422L105 422C105.036 414.258 111.287 408 118.998 408Z" stroke="#057BC1" stroke-width="2" stroke-linecap="round" stroke-linejoin="round"/>
<path d="M105 35L133 35C132.964 42.7419 126.708 49 118.998 49C111.287 49 105.036 42.7419 105 35Z" stroke="#057BC1" stroke-width="2" stroke-linecap="round" stroke-linejoin="round"/>
<path d="M92 379.5C92 362.655 78.1208 349 61 349C43.8792 349 30 362.655 30 379.5C30 396.345 43.8792 410 61 410C78.1208 410 92 396.345 92 379.5Z" stroke="#F9141B" stroke-width="2" stroke-linecap="round" stroke-linejoin="round"/>
<path d="M96 385L91 385" stroke="#F9141B" stroke-width="2" stroke-linecap="round" stroke-linejoin="round"/>
<path d="M31 385L24 385" stroke="#F9141B" stroke-width="2" stroke-linecap="round" stroke-linejoin="round"/>
<path d="M96 373L91 373" stroke="#F9141B" stroke-width="2" stroke-linecap="round" stroke-linejoin="round"/>
<path d="M31 373L24 373" stroke="#F9141B" stroke-width="2" stroke-linecap="round" stroke-linejoin="round"/>
<path d="M211 379.5C211 362.655 197.345 349 180.5 349C163.655 349 150 362.655 150 379.5C150 396.345 163.655 410 180.5 410C197.345 410 211 396.345 211 379.5Z" stroke="#F9141B" stroke-width="2" stroke-linecap="round" stroke-linejoin="round"/>
<path d="M216 385L211 385" stroke="#F9141B" stroke-width="2" stroke-linecap="round" stroke-linejoin="round"/>
<path d="M150 385L144 385" stroke="#F9141B" stroke-width="2" stroke-linecap="round" stroke-linejoin="round"/>
<path d="M216 373L211 373" stroke="#F9141B" stroke-width="2" stroke-linecap="round" stroke-linejoin="round"/>
<path d="M150 373L144 373" stroke="#F9141B" stroke-width="2" stroke-linecap="round" stroke-linejoin="round"/>
<path d="M92 76.5C92 59.6553 78.1208 46 61 46C43.8792 46 30 59.6553 30 76.5C30 93.3447 43.8792 107 61 107C78.1208 107 92 93.3447 92 76.5Z" stroke="#F9141B" stroke-width="2" stroke-linecap="round" stroke-linejoin="round"/>
<path d="M96 83L91 83" stroke="#F9141B" stroke-width="2" stroke-linecap="round" stroke-linejoin="round"/>
<path d="M31 83L24 83" stroke="#F9141B" stroke-width="2" stroke-linecap="round" stroke-linejoin="round"/>
<path d="M96 71L91 71" stroke="#F9141B" stroke-width="2" stroke-linecap="round" stroke-linejoin="round"/>
<path d="M31 71L24 71" stroke="#F9141B" stroke-width="2" stroke-linecap="round" stroke-linejoin="round"/>
<path d="M211 76.5C211 59.6553 197.345 46 180.5 46C163.655 46 150 59.6553 150 76.5C150 93.3447 163.655 107 180.5 107C197.345 107 211 93.3447 211 76.5Z" stroke="#F9141B" stroke-width="2" stroke-linecap="round" stroke-linejoin="round"/>
<path d="M216 83L211 83" stroke="#F9141B" stroke-width="2" stroke-linecap="round" stroke-linejoin="round"/>
<path d="M150 83L144 83" stroke="#F9141B" stroke-width="2" stroke-linecap="round" stroke-linejoin="round"/>
<path d="M216 71L211 71" stroke="#F9141B" stroke-width="2" stroke-linecap="round" stroke-linejoin="round"/>
<path d="M150 71L144 71" stroke="#F9141B" stroke-width="2" stroke-linecap="round" stroke-linejoin="round"/>
<path d="M241 149L3 149" stroke="#057BC1" stroke-width="2" stroke-linecap="round" stroke-linejoin="round"/>
<path d="M150 221C150 204.984 137.016 192 121 192C104.984 192 92 204.984 92 221C92 237.016 104.984 250 121 250C137.016 250 150 237.016 150 221Z" stroke="#057BC1" stroke-width="2" stroke-linecap="round" stroke-linejoin="round"/>
<path d="M123 221C123 219.895 122.105 219 121 219C119.895 219 119 219.895 119 221C119 222.105 119.895 223 121 223C122.105 223 123 222.105 123 221Z" fill="#057BC1"/>
<path d="M103 422L135 422L132.247 426L106.155 426L103 422Z" stroke="#057BC1" stroke-width="2" stroke-linecap="round" stroke-linejoin="round"/>
<path d="M106.155 31L132.247 31L135 35L103 35L106.155 31Z" stroke="#057BC1" stroke-width="2" stroke-linecap="round" stroke-linejoin="round"/>
</g>
<defs>
<clipPath id="clip0_5703_19469">
<rect width="461" height="244" fill="white" transform="translate(0 461) rotate(-90)"/>
</clipPath>
</defs>
</svg>
