<svg width="57" height="91" viewBox="0 0 57 91" fill="none" xmlns="http://www.w3.org/2000/svg">
<g clip-path="url(#clip0_5867_34042)">
<path d="M56.1973 13.9594C55.8574 14.786 54.5189 17.9546 52.7272 19.5365C49.8048 17.6525 46.0101 16.1955 46.0101 16.1955C46.69 21.0138 44.7472 24.3976 43.2718 26.2008C42.4526 27.2022 41.7775 27.7161 41.7775 27.7161C41.8047 27.1107 41.8188 26.529 41.82 25.9724C41.8401 15.4902 37.3962 13.4384 37.0079 13.3409C36.5983 13.2374 28.2961 11.552 19.7306 13.5467C12.9368 15.1286 7.42003 18.0628 5.21523 19.4318C4.82454 17.2671 4.59793 12.1122 10.7202 10.2972C10.7202 10.2972 13.8432 1.57886 22.9552 0.701081C32.0683 -0.175511 36.6751 2.61008 39.7474 4.00287C42.8185 5.39567 46.7608 7.43312 49.7552 5.91187C51.0606 5.16374 51.7263 4.51908 52.2386 4.19199C52.7508 3.86491 53.6714 4.1575 53.4673 5.72276C53.2619 7.28801 52.9291 9.01979 50.7537 10.4709C50.7537 10.4709 52.0674 12.0504 53.8591 12.0682C55.6508 12.0849 55.3782 11.9992 55.9412 12.0849C56.5042 12.1717 56.5726 13.0483 56.1973 13.9594Z" fill="#9E6741"/>
<path d="M56.1986 13.9594C55.8586 14.786 54.5202 17.9546 52.7285 19.5365C52.1383 19.1559 51.5139 18.7931 50.8907 18.4577C51.6815 17.1398 52.2339 15.8255 52.4357 15.3355C52.8111 14.4244 52.7426 13.5478 52.1796 13.461C51.6166 13.3754 51.8893 13.461 50.0976 13.4444C48.3059 13.4265 46.9922 11.847 46.9922 11.847C49.1675 10.3959 49.5003 8.66413 49.7057 7.09888C49.7694 6.60765 49.7234 6.2425 49.6136 5.98202C49.662 5.95942 49.7093 5.93563 49.7565 5.91184C51.0619 5.16371 51.7276 4.51905 52.2398 4.19197C52.7521 3.86488 53.6727 4.15747 53.4685 5.72273C53.2631 7.28799 52.9303 9.01976 50.755 10.4708C50.755 10.4708 52.0687 12.0504 53.8604 12.0682C55.6521 12.0849 55.3794 11.9992 55.9424 12.0849C56.5054 12.1717 56.5739 13.0483 56.1986 13.9594Z" fill="#6E3E20"/>
<path d="M41.8218 25.9724C38.4544 25.4669 34.4732 25.0613 30.0223 24.9483C22.5191 24.7568 15.7264 25.8023 10.9946 26.8312C8.68947 27.3307 6.87414 27.8279 5.70211 28.174C5.48495 28.2382 5.29018 28.2965 5.11904 28.35C4.66343 28.4904 4.20313 28.1478 4.20313 27.6685L4.20313 20.1336C4.29165 20.0408 4.64101 19.7899 5.21702 19.4319C7.42182 18.0629 12.9386 15.1286 19.7324 13.5467C28.2979 11.552 36.6001 13.2374 37.0097 13.3409C37.398 13.4384 41.8419 15.4902 41.8218 25.9724Z" fill="#80B9F9"/>
<path d="M53.6223 20.1467L53.6223 27.7827C53.6223 28.2049 53.2175 28.507 52.8162 28.3833C52.6238 28.3239 52.3984 28.2561 52.1411 28.18C50.9962 27.8445 49.2163 27.3676 46.8993 26.8811C45.8064 26.6516 44.5954 26.4208 43.2734 26.2008C44.7488 24.3976 46.6916 21.0138 46.0117 16.1955C46.0117 16.1955 49.8064 17.6525 52.7288 19.5365C53.0381 19.7352 53.3379 19.9386 53.6223 20.1467Z" fill="#80B9F9"/>
<path d="M10.9956 26.8312L10.9956 32.2561L9.58986 32.2561C8.29861 32.2561 7.15609 32.89 6.44909 33.8653C5.8483 31.7969 5.72318 29.4217 5.70313 28.174C6.87516 27.8279 8.69048 27.3307 10.9956 26.8312Z" fill="#9E6741"/>
<path d="M46.895 26.8811L46.895 40.2358C46.7404 41.1599 46.4996 42.0936 46.1833 43.0214C44.9594 46.6134 42.6141 50.1197 39.8463 52.7031C39.7495 52.7935 39.6527 52.8815 39.5571 52.9696C36.1838 56.0287 33.0335 57.3454 32.0137 57.3454C30.9645 57.3454 27.2536 57.3977 26.3318 57.3454C25.4099 57.2942 24.8127 57.638 21.7073 55.6089C20.4055 54.7323 19.2617 53.7974 18.2597 52.8459C13.2445 48.0894 11.7751 42.9524 11.7751 42.9524L9.58441 42.9524C7.43626 42.9524 5.69531 41.198 5.69531 39.0333L5.69531 36.1751C5.69531 35.3116 5.9727 34.5135 6.44364 33.8653C7.15064 32.89 8.29316 32.256 9.58441 32.256L10.9902 32.256L10.9902 26.8312C15.722 25.8023 22.5147 24.7568 30.0179 24.9483C34.4688 25.0613 38.45 25.4669 41.8174 25.9724C41.8162 26.5291 41.802 27.1107 41.7749 27.7161C41.7749 27.7161 42.45 27.2023 43.2691 26.2008C44.5911 26.4208 45.8021 26.6516 46.895 26.8811Z" fill="#F7BC94"/>
<path d="M52.2566 36.1252L52.2566 39.1522C52.2566 41.2896 50.5381 43.0214 48.4171 43.0214L46.1875 43.0214C46.5038 42.0936 46.7446 41.1599 46.8992 40.2358L46.8992 32.256L48.4171 32.256C49.791 32.256 50.9961 32.9828 51.6736 34.0758C52.043 34.6694 52.2566 35.3723 52.2566 36.1252Z" fill="#F7BC94"/>
<path d="M39.5631 52.9695L39.5631 59.0426L32.4635 63.4589C32.4635 63.4589 31.2773 64.2332 28.9226 69.2882L28.8919 69.2882C26.5372 64.2332 25.351 63.4589 25.351 63.4589L18.2656 59.051L18.2656 52.8458C19.2677 53.7974 20.4114 54.7322 21.7133 55.6088C24.8187 57.6379 25.4159 57.2942 26.3377 57.3453C27.2595 57.3977 30.9704 57.3453 32.0197 57.3453C33.0395 57.3453 36.1897 56.0287 39.5631 52.9695Z" fill="#F7BC94"/>
<path d="M43.5357 59.6326C43.4236 59.9181 43.0329 60.828 42.4699 62.0197C41.5399 63.9918 40.1365 66.7345 38.7319 68.6959C38.7319 68.6959 35.2004 68.8755 32.4609 63.4589L39.5605 59.0427L39.7175 58.9451L39.5605 58.6478L39.5605 54.0579C40.3312 54.7013 42.3661 56.4498 43.485 57.8794C43.9795 58.4468 43.8344 58.8761 43.5357 59.6326Z" fill="#E6EFF5"/>
<path d="M25.3479 63.4589C22.6084 68.8755 19.0769 68.6959 19.0769 68.6959C17.6724 66.7345 16.269 63.9918 15.3389 62.0197C14.7759 60.8279 14.3852 59.918 14.2731 59.6326C13.9745 58.8761 13.8293 58.4468 14.3239 57.8794C15.3826 56.5271 17.395 54.762 18.2625 54.0293L18.2625 58.6216L18.0914 58.9451L18.2484 59.0426L18.2625 59.051L25.3479 63.4589Z" fill="#E6EFF5"/>
<path d="M56.8872 71.1853L56.8872 78.5881L49.8679 81.363L49.8679 86.9996C49.8455 87.0068 49.8231 87.0151 49.8007 87.0222C49.0039 87.2922 48.1388 87.5634 47.204 87.8286C42.7578 89.0918 36.7524 90.2253 29.1253 90.4656L28.6838 90.4656C21.0449 90.2253 15.0324 89.0882 10.585 87.8227C9.65022 87.5563 8.78505 87.2851 7.98835 87.0151C7.94351 86.9996 7.89982 86.9854 7.85617 86.9699L7.85617 81.3297L0.921875 78.5881L0.921875 71.1853C0.921875 69.6272 1.82598 68.2118 3.2341 67.5671L15.3393 62.0197C16.2694 63.9917 17.6728 66.7345 19.0773 68.6958C19.0773 68.6958 22.6088 68.8754 25.3483 63.4589C25.3483 63.4589 26.1037 63.9525 27.6062 66.7214C27.9863 67.422 28.4135 68.2677 28.8892 69.2882L28.9199 69.2882C29.3956 68.2677 29.8228 67.422 30.2029 66.7214C31.7054 63.9525 32.4608 63.4589 32.4608 63.4589C35.2003 68.8754 38.7318 68.6958 38.7318 68.6958C40.1363 66.7345 41.5397 63.9917 42.4698 62.0197L54.575 67.5671C55.9831 68.2118 56.8872 69.6272 56.8872 71.1853Z" fill="#80B9F9"/>
<path d="M7.85617 81.3298L7.85617 86.9699C5.15798 86.047 3.26007 85.1454 2.13996 84.5495C1.38927 84.151 0.921875 83.3637 0.921875 82.5085L0.921875 78.5882L7.85617 81.3298Z" fill="#F7BC94"/>
<path d="M56.8865 78.5882L56.8865 82.5085C56.8865 83.3637 56.4191 84.151 55.6684 84.5495C54.5365 85.1513 52.6102 86.066 49.8672 86.9997L49.8672 81.3631L56.8865 78.5882Z" fill="#F7BC94"/>
<path d="M51.6728 34.0758C50.9953 32.9828 49.7902 32.256 48.4163 32.256L46.8984 32.256L46.8984 26.8811C49.2154 27.3676 50.9953 27.8445 52.1402 28.1799C52.2134 29.116 52.2287 31.0202 51.6728 34.0758Z" fill="#6E3E20"/>
<path d="M49.8701 77.7746L49.8701 87.0222C49.0734 87.2922 48.2083 87.5634 47.2734 87.8287L47.2734 77.7746C47.2734 77.0526 47.8542 76.4662 48.5718 76.4662C49.2882 76.4662 49.8701 77.0526 49.8701 77.7746Z" fill="#3185DB"/>
<path d="M10.456 77.7391L10.456 87.7872C9.52125 87.5208 8.65608 87.2496 7.85938 86.9796L7.85938 77.7391C7.85938 77.0172 8.44129 76.4308 9.15771 76.4308C9.87534 76.4308 10.456 77.0172 10.456 77.7391Z" fill="#3185DB"/>
<path d="M30.206 66.7214L30.206 74.6798C30.206 75.4017 29.6242 75.9881 28.9077 75.9881C28.1901 75.9881 27.6094 75.4017 27.6094 74.6798L27.6094 66.7214C27.9894 67.422 28.4167 68.2677 28.8924 69.2882L28.923 69.2882C29.3987 68.2677 29.826 67.422 30.206 66.7214Z" fill="#3185DB"/>
<path d="M52.1393 28.1799C52.2124 29.116 52.2278 31.0202 51.6719 34.0758L52.1393 28.1799Z" fill="#00AEEF"/>
<path d="M18.2649 58.6216L18.2649 59.051L18.2507 59.0426L18.0938 58.9451L18.2649 58.6216Z" fill="#DAE1E5"/>
<path d="M39.7195 58.9451L39.5625 59.0426L39.5625 58.6478L39.7195 58.9451Z" fill="#DAE1E5"/>
<path d="M18.0391 30.7422C18.0391 30.7422 20.9008 28.929 24.5771 30.8482" stroke="#6E3E20" stroke-width="2" stroke-linecap="round" stroke-linejoin="round"/>
<path d="M33.4922 30.7422C33.4922 30.7422 36.3539 28.929 40.0303 30.8482" stroke="#6E3E20" stroke-width="2" stroke-linecap="round" stroke-linejoin="round"/>
<path d="M24.7891 42.0999C24.7891 42.0999 25.0642 42.305 25.5222 42.5647C27.4103 43.6353 29.6819 43.8246 31.705 43.0439C32.4633 42.7513 32.7711 42.4711 32.7711 42.4711" stroke="#B26344" stroke-width="5" stroke-linecap="round" stroke-linejoin="round"/>
<path d="M21.0611 36.7361C21.7679 36.7361 22.3409 36.0316 22.3409 35.1626C22.3409 34.2936 21.7679 33.5892 21.0611 33.5892C20.3543 33.5892 19.7813 34.2936 19.7813 35.1626C19.7813 36.0316 20.3543 36.7361 21.0611 36.7361Z" fill="#233B5E"/>
<path d="M36.7642 36.7361C37.4711 36.7361 38.0441 36.0316 38.0441 35.1626C38.0441 34.2936 37.4711 33.5892 36.7642 33.5892C36.0574 33.5892 35.4844 34.2936 35.4844 35.1626C35.4844 36.0316 36.0574 36.7361 36.7642 36.7361Z" fill="#233B5E"/>
<path d="M46.8964 26.8811L46.8964 40.2357C46.7418 41.1599 46.501 42.0936 46.1847 43.0213C44.9607 46.6133 42.6154 50.1197 39.8476 52.7031C39.7508 52.7935 39.654 52.8815 39.5585 52.9695C36.1851 56.0287 33.0349 57.3453 32.0151 57.3453C31.0225 57.3453 27.6515 57.3917 26.5078 57.3525C27.0319 57.3489 27.4721 57.3453 27.74 57.3453C28.7598 57.3453 31.9101 56.0287 35.2834 52.9695C35.379 52.8815 35.4758 52.7935 35.5726 52.7031C38.3404 50.1197 40.6856 46.6133 41.9096 43.0213C42.2259 42.0936 42.4667 41.1599 42.6213 40.2357L42.6213 26.9334C42.8184 26.7288 43.038 26.4838 43.2705 26.2007C44.5924 26.4208 45.8034 26.6515 46.8964 26.8811Z" fill="#E59876"/>
<path d="M18.2578 52.8458C18.2578 52.8458 21.1107 55.5962 24.3857 57.0728C25.0096 57.2603 25.0804 57.373 25.8458 57.3722C26.6113 57.3715 31.1413 57.332 32.0119 57.3453C32.8825 57.3586 33.7528 56.8815 34.6999 56.4043C35.647 55.9271 38.3347 54.1988 39.5036 52.9607L39.5553 59.0426L35.6056 61.4995L35.374 59.8564C35.374 59.8564 34.8151 60.2218 33.5609 60.2089C32.3066 60.196 28.7614 60.2089 28.2495 60.2089C27.7375 60.2089 25.7666 59.8048 22.5414 57.4833C20.2888 55.8497 18.2578 53.2315 18.2578 53.2315L18.2578 52.8458Z" fill="#E59876"/>
<path d="M53.6164 20.1467L53.6164 27.7827C53.6164 28.2049 53.2115 28.507 52.8102 28.3833C52.6178 28.3238 52.3924 28.256 52.1351 28.1799C51.6004 28.0229 50.9276 27.835 50.125 27.6316C50.1262 27.6233 50.1262 27.6138 50.1262 27.6043L50.1262 18.0569C50.9914 18.5005 51.8919 19.0013 52.7229 19.5365C53.0321 19.7351 53.3319 19.9385 53.6164 20.1467Z" fill="#3185DB"/>
</g>
<defs>
<clipPath id="clip0_5867_34042">
<rect width="57" height="91" fill="white"/>
</clipPath>
</defs>
</svg>
