<svg width="61" height="91" viewBox="0 0 61 91" fill="none" xmlns="http://www.w3.org/2000/svg">
<g clip-path="url(#clip0_5830_37095)">
<path d="M50.5253 12.6834H14.5469C17.2077 5.32328 24.2584 0.0634766 32.5361 0.0634766C40.8137 0.0634766 47.8644 5.32328 50.5253 12.6834Z" fill="#A06D5C"/>
<path d="M51.4591 12.6835H13.3672V18.5502H51.4591V12.6835Z" fill="#EDEEEF"/>
<path d="M51.4591 18.5502V21.3419C51.4591 21.8655 51.4055 22.376 51.3032 22.8687C50.957 24.5442 50.0513 26.0139 48.7911 27.0765C47.4869 28.1761 45.8018 28.8389 43.9621 28.8389H20.8642C19.0697 28.8389 17.4239 28.2094 16.1328 27.1574C14.9558 26.1983 14.0753 24.8893 13.6505 23.3887C13.466 22.7378 13.3672 22.0512 13.3672 21.3419V18.5502H51.4591Z" fill="#CE3FC0"/>
<path d="M16.1308 27.1574L13.6484 33.6905V23.3887C14.0732 24.8893 14.9538 26.1983 16.1308 27.1574Z" fill="#A06D5C"/>
<path d="M13.6463 29.6612V34.9674C13.0536 34.7996 11.8279 34.1034 11.7244 32.2066C11.6113 29.7992 13.2393 29.6588 13.6463 29.6612Z" fill="#F6CCBB"/>
<path d="M51.3011 22.8687V33.6905L48.7891 27.0765C50.0493 26.0138 50.9549 24.5442 51.3011 22.8687Z" fill="#A06D5C"/>
<path d="M54.0587 26.7053C52.7033 26.3578 51.7774 26.7219 51.2967 27.0194V33.6906L48.7846 27.0765C47.4804 28.1761 45.7953 28.8389 43.9556 28.8389H20.8577C19.0632 28.8389 17.4174 28.2094 16.1263 27.1574L13.6439 33.6906V34.9674C13.0513 34.7996 11.8256 34.1035 11.722 32.2066C11.609 29.7993 13.237 29.6588 13.6439 29.6612V27.0182C13.1632 26.7219 12.2373 26.3578 10.8831 26.7053C8.80177 27.2384 7.94146 30.9809 8.89578 33.8453C9.85138 36.7096 12.0445 38.3363 14.1354 38.2328C14.1354 38.2328 14.7375 40.395 16.2274 43.207C17.7339 46.0546 20.1508 49.5675 23.7696 52.1713C24.3908 52.6199 25.0465 53.0399 25.7403 53.4243C26.9576 54.1014 28.288 54.6714 29.7398 55.0915C31.5225 55.6068 33.4193 55.6068 35.2019 55.0915C36.6657 54.6679 38.0056 54.0931 39.2289 53.41C47.9302 48.5525 50.8064 38.2328 50.8064 38.2328C52.8973 38.3363 55.0904 36.7096 56.046 33.8453C57.0004 30.9809 56.14 27.2384 54.0587 26.7053ZM53.2197 32.2066C53.1162 34.1035 51.8905 34.7996 51.2979 34.9674V29.6612C51.7049 29.6588 53.3328 29.7993 53.2197 32.2066Z" fill="#F8DBCE"/>
<path d="M53.2187 32.2066C53.1152 34.1034 51.8895 34.7996 51.2969 34.9674V29.6612C51.7038 29.6588 53.3317 29.7992 53.2187 32.2066Z" fill="#F7BC94"/>
<path d="M23.7723 52.1712C23.1094 53.429 21.3934 56.354 18.2495 59.7039C10.6799 67.7899 0.5625 64.3496 0.5625 64.3496C7.03132 60.5642 7.06584 54.9903 8.64857 49.0367C9.97303 44.0601 14.7116 43.3164 16.2301 43.2069C17.7366 46.0546 20.1535 49.5675 23.7723 52.1712Z" fill="#6F543D"/>
<path d="M25.0423 65.2243C22.1672 64.9851 19.7765 65.9609 19.0078 66.3203C19.4017 65.1672 19.7194 64.2414 19.9134 63.6749C22.0364 63.0383 23.7964 62.9538 24.6603 62.9598L25.0423 65.2243Z" fill="#E9EAEB"/>
<path d="M51.9882 88.3163C51.7978 89.2516 51.53 90.0454 51.3409 90.544H13.6309C13.4406 90.0454 13.174 89.2516 12.9824 88.3163C12.6552 86.7157 12.8967 84.7023 13.0681 83.9109C13.1835 83.3814 16.306 74.216 18.3564 68.2148C19.287 67.7364 22.2549 66.3667 25.2763 66.6321L26.0058 70.9566L32.4853 75.8998L38.9649 70.9566L39.6943 66.6285C42.6693 66.3786 45.6443 67.7067 46.6082 68.1981C48.6598 74.1993 51.7871 83.3814 51.9026 83.9109C52.0739 84.7023 52.3155 86.7157 51.9882 88.3163Z" fill="#E9EAEB"/>
<path d="M19.9109 63.6749C19.7169 64.2414 19.3992 65.1672 19.0053 66.3203C18.8066 66.8998 18.5888 67.5377 18.3567 68.2148C16.3063 74.216 13.1838 83.3813 13.0684 83.9109C12.897 84.7022 12.6555 86.7157 12.9827 88.3163C13.1743 89.2516 13.4409 90.0453 13.6312 90.5439H4.84428C4.84428 90.5439 4.74196 84.35 7.37419 76.9434C10.3171 68.2148 15.7947 64.909 19.9109 63.6749Z" fill="#F9DCD0"/>
<path d="M40.3119 62.9598L39.9323 65.2113L39.6931 66.6286L38.9636 70.9566L32.4841 75.8998L26.0045 70.9566L25.2751 66.6321L25.0382 65.2244L24.6562 62.9598C25.0252 62.961 25.231 62.9812 25.231 62.9812L25.7392 53.4243C26.9565 54.1014 28.2869 54.6714 29.7387 55.0915C31.5214 55.6068 33.4182 55.6068 35.2008 55.0915C36.6646 54.6679 38.0045 54.0931 39.2278 53.41L39.7371 62.9812C39.7371 62.9812 39.943 62.961 40.3119 62.9598Z" fill="#F9DDD0"/>
<path d="M45.9648 66.3048C45.1651 65.9359 42.7566 64.9863 39.9375 65.2112L40.3171 62.9598C41.181 62.9538 42.941 63.0383 45.064 63.6749C45.2568 64.239 45.5721 65.1589 45.9648 66.3048Z" fill="#E9EAEB"/>
<path d="M60.1291 90.5439H51.3433C51.5325 90.0453 51.8002 89.2516 51.9906 88.3163C52.3179 86.7157 52.0764 84.7022 51.905 83.9109C51.7895 83.3813 48.6622 74.1993 46.6107 68.1981C46.3786 67.521 46.1609 66.8844 45.9633 66.3048C45.5706 65.1589 45.2552 64.239 45.0625 63.6749C49.1787 64.909 54.6562 68.2148 57.5991 76.9434C60.2326 84.35 60.1291 90.5439 60.1291 90.5439Z" fill="#F9DCD0"/>
<path d="M46.6092 68.1982C45.6453 67.7067 42.6703 66.3787 39.6953 66.6286L39.9345 65.2113C42.7536 64.9864 45.1622 65.936 45.9619 66.3049C46.1594 66.8844 46.3772 67.5211 46.6092 68.1982Z" fill="#E12727"/>
<path d="M38.2952 42.5667C38.2499 42.6797 38.0881 43.076 37.824 43.6163V43.6175C37.8227 43.6186 37.8227 43.6198 37.8216 43.621C36.9505 44.8753 35.1131 46.9554 32.5011 46.9554C29.9711 46.9554 28.1683 45.1383 27.2663 43.9614C26.8486 43.151 26.6165 42.556 26.6094 42.5345C26.7141 42.5798 31.7371 44.742 38.2952 42.5667Z" fill="#F1F2F2"/>
<path d="M38.3094 42.5334C38.3094 42.5334 38.3047 42.5442 38.2964 42.5668C31.7383 44.7421 26.7153 42.5799 26.6105 42.5346L26.6094 42.5334H38.3094Z" fill="#D34A52"/>
<path d="M37.821 43.6211C37.27 44.7492 36.2775 46.4973 34.9863 47.5921C33.7226 48.5893 32.604 48.418 32.604 48.418H32.3112C32.3112 48.418 31.1926 48.5893 29.9288 47.5921C28.7615 46.602 27.838 45.0777 27.2656 43.9614C28.1677 45.1383 29.9705 46.9555 32.5005 46.9555C35.1125 46.9555 36.9498 44.8754 37.821 43.6211Z" fill="#D34A52"/>
<path d="M33.2336 34.6065C33.2336 34.1861 32.8927 33.8452 32.4722 33.8452C32.0518 33.8452 31.7109 34.1861 31.7109 34.6065V38.9163C31.7109 39.3368 32.0518 39.6776 32.4722 39.6776C32.8927 39.6776 33.2336 39.3368 33.2336 38.9163V34.6065Z" fill="#F0B4A0"/>
<path d="M25.2793 66.6321C22.2578 66.3667 19.29 67.7364 18.3594 68.2148C18.5914 67.5377 18.8092 66.8998 19.0079 66.3203C19.7767 65.9609 22.1674 64.9851 25.0424 65.2243L25.2793 66.6321Z" fill="#E12727"/>
<path d="M25.1663 29.458H25.1663C24.3539 29.458 23.6953 30.1166 23.6953 30.929V32.3742C23.6953 33.1866 24.3539 33.8452 25.1663 33.8452H25.1663C25.9787 33.8452 26.6373 33.1866 26.6373 32.3742V30.929C26.6373 30.1166 25.9787 29.458 25.1663 29.458Z" fill="#51251F"/>
<path d="M41.2545 30.929C41.2545 30.1166 40.5959 29.458 39.7835 29.458C38.9711 29.458 38.3125 30.1166 38.3125 30.929V32.3742C38.3125 33.1866 38.9711 33.8452 39.7835 33.8452C40.5959 33.8452 41.2545 33.1866 41.2545 32.3742V30.929Z" fill="#51251F"/>
<path d="M26.0156 53.5746C26.0156 53.5746 30.5391 58.0511 39.6018 67.1746L40.3127 62.9597L39.7783 62.9729L39.2286 53.4099C39.2286 53.4099 35.7438 55.42 32.5781 55.4888C29.4124 55.5576 26.0156 53.5746 26.0156 53.5746Z" fill="#F0B7A4"/>
</g>
<defs>
<clipPath id="clip0_5830_37095">
<rect width="61" height="91" fill="white"/>
</clipPath>
</defs>
</svg>
