<svg width="48" height="48" viewBox="0 0 48 48" fill="none" xmlns="http://www.w3.org/2000/svg">
<ellipse cx="23.5385" cy="24" rx="23.5385" ry="24" fill="white"/>
<path fill-rule="evenodd" clip-rule="evenodd" d="M29.3667 8.57408C29.3667 10.0369 28.733 11.4997 27.8387 12.5552C26.8882 13.7218 25.2485 14.5921 23.944 14.5923C23.795 14.5923 23.6458 14.5736 23.5527 14.5552C23.5341 14.4811 23.4967 14.2588 23.4967 14.0366C23.4967 12.5552 24.2608 11.0924 25.0807 10.1665C26.1243 8.96296 27.8573 8.05558 29.3108 8C29.3481 8.16674 29.3667 8.37041 29.3667 8.57408ZM34.493 17.7886C34.5292 17.765 34.554 17.7488 34.5656 17.7399C32.6277 14.981 29.6833 14.9067 28.8633 14.9066C27.6104 14.9066 26.4889 15.3483 25.5461 15.7197C24.8624 15.989 24.2726 16.2213 23.7948 16.2213C23.2677 16.2213 22.6641 15.9789 21.9906 15.7084C21.1402 15.3669 20.1783 14.9806 19.1177 14.9806C15.54 14.9806 11.9062 17.9249 11.9062 23.48C11.9062 26.9426 13.2479 30.5904 14.9064 32.9421C16.3411 34.9419 17.5896 36.5714 19.3785 36.5714C20.2269 36.5714 20.849 36.3091 21.5031 36.0332C22.2283 35.7273 22.9929 35.4048 24.149 35.4048C25.3163 35.4048 26.0142 35.7076 26.6873 35.9996C27.3143 36.2716 27.9199 36.5343 28.8635 36.5343C30.82 36.5343 32.1059 34.7753 33.3357 33.0161C34.7147 31.0163 35.2924 29.0535 35.311 28.961C35.1991 28.9241 31.4537 27.4241 31.4537 23.1838C31.4537 19.7708 34.0051 18.1068 34.493 17.7886Z" fill="black"/>
</svg>
