<svg width="48" height="48" viewBox="0 0 48 48" fill="none" xmlns="http://www.w3.org/2000/svg">
<ellipse cx="23.5385" cy="24" rx="23.5385" ry="24" fill="#F7F7F7"/>
<path d="M38.2469 24.36C38.2469 23.3067 38.1563 22.3067 38.0009 21.3333H23.375V27.3467H31.7493C31.374 29.32 30.2738 30.9867 28.6429 32.12V36.12H33.639C36.5642 33.3333 38.2469 29.2267 38.2469 24.36Z" fill="#4285F4"/>
<path d="M23.3779 40C27.5715 40 31.0792 38.56 33.642 36.12L28.6458 32.12C27.248 33.08 25.4747 33.6667 23.3779 33.6667C19.3267 33.6667 15.8967 30.8533 14.6671 27.0533H9.51562V31.1733C12.0655 36.4 17.3075 40 23.3779 40Z" fill="#34A853"/>
<path d="M14.6649 27.0533C14.3413 26.0933 14.173 25.0667 14.173 24C14.173 22.9333 14.3542 21.9067 14.6649 20.9467V16.8267H9.51344C8.45209 18.9867 7.84375 21.4133 7.84375 24C7.84375 26.5867 8.45209 29.0133 9.51344 31.1733L14.6649 27.0533Z" fill="#FBBC05"/>
<path d="M23.3779 14.3333C25.6689 14.3333 27.7139 15.1467 29.3318 16.7333L33.7585 12.1733C31.0792 9.58667 27.5715 8 23.3779 8C17.3075 8 12.0655 11.6 9.51562 16.8267L14.6671 20.9467C15.8967 17.1467 19.3267 14.3333 23.3779 14.3333Z" fill="#EA4335"/>
</svg>
