<svg width="48" height="48" viewBox="0 0 48 48" fill="none" xmlns="http://www.w3.org/2000/svg">
<g clip-path="url(#clip0_154_2091)">
<path d="M23.9731 47.6825C37.0674 47.6825 47.6825 37.0674 47.6825 23.9731C47.6825 10.8788 37.0674 0.263733 23.9731 0.263733C10.8788 0.263733 0.263733 10.8788 0.263733 23.9731C0.263733 37.0674 10.8788 47.6825 23.9731 47.6825Z" fill="#FF4500"/>
<path d="M39.7852 23.9731C39.7146 22.0637 38.1113 20.5727 36.1961 20.6375C35.3473 20.667 34.5401 21.0147 33.9274 21.598C31.2282 19.7592 28.0575 18.7513 24.7982 18.6807L26.3362 11.2844L31.4105 12.3513C31.5517 13.6537 32.7187 14.5968 34.0212 14.4551C35.3236 14.3139 36.2667 13.1469 36.125 11.8445C35.9832 10.542 34.8167 9.59891 33.5143 9.74064C32.7656 9.81704 32.0939 10.2533 31.7229 10.9019L25.912 9.74064C25.5174 9.65212 25.1222 9.89976 25.0337 10.3007C25.0337 10.3065 25.0337 10.3065 25.0337 10.3123L23.2835 18.5395C19.9831 18.5927 16.7713 19.6064 14.0368 21.4568C12.6458 20.1485 10.4535 20.2133 9.14529 21.6101C7.83706 23.001 7.90186 25.1934 9.29861 26.5016C9.56995 26.755 9.88186 26.9731 10.2296 27.1265C10.2059 27.4742 10.2059 27.8219 10.2296 28.1697C10.2296 33.4795 16.4177 37.7994 24.0495 37.7994C31.6813 37.7994 37.8695 33.4853 37.8695 28.1697C37.8932 27.8219 37.8932 27.4742 37.8695 27.1265C39.0602 26.5311 39.8089 25.3051 39.7852 23.9731ZM16.0758 26.3483C16.0758 25.04 17.1427 23.9731 18.451 23.9731C19.7592 23.9731 20.8261 25.04 20.8261 26.3483C20.8261 27.6565 19.7592 28.7234 18.451 28.7234C17.1369 28.7113 16.0758 27.6565 16.0758 26.3483ZM29.8488 32.9605V32.8662C28.1634 34.1334 26.1007 34.7814 23.9905 34.6934C21.8804 34.782 19.8182 34.1334 18.1322 32.8662C17.9083 32.5949 17.9494 32.1887 18.2207 31.9648C18.4562 31.7703 18.7924 31.7703 19.0342 31.9648C20.4605 33.008 22.1991 33.5385 23.9668 33.4558C25.735 33.5501 27.4795 33.0433 28.9231 32.0122C29.1823 31.7587 29.6065 31.7645 29.8604 32.0238C30.1139 32.283 30.1081 32.7071 29.8488 32.9605ZM29.5248 28.8941C29.4837 28.8941 29.4484 28.8941 29.4068 28.8941L29.4247 28.8056C28.1165 28.8056 27.0496 27.7387 27.0496 26.4305C27.0496 25.1222 28.1165 24.0553 29.4247 24.0553C30.7329 24.0553 31.7999 25.1222 31.7999 26.4305C31.8525 27.7392 30.833 28.8409 29.5248 28.8941Z" fill="white"/>
</g>
<defs>
<clipPath id="clip0_154_2091">
<rect width="48" height="48" fill="white"/>
</clipPath>
</defs>
</svg>
