<svg width="158" height="93" viewBox="0 0 158 93" fill="none" xmlns="http://www.w3.org/2000/svg">
<path d="M34.5303 21.2625C34.5303 21.2625 47.8997 0.733032 75.2874 0.733032C102.675 0.733032 115.46 20.7142 115.46 20.7142H152.583L151.09 29.2427C151.09 29.2427 150.052 32.6542 148.365 33.0197H150.896C150.896 33.0197 151.739 36.0656 146.677 46.4217H157.515C157.515 46.4217 157.905 64.5753 134.541 73.1039C134.541 73.1039 122.47 76.698 116.304 70.5453C116.304 70.5453 103.973 92.0494 75.2874 92.0494C46.6017 92.0494 33.6866 69.9361 33.6866 69.9361H0.328125L5.64991 60.9811H2.01552L6.29891 53.61H13.5028L14.7359 50.8078H11.3611L19.6683 36.4311H24.3411L26.2232 32.045H22.1994L28.3648 21.2625L34.5303 21.2625Z" fill="white"/>
</svg>
