<svg width="104" height="105" viewBox="0 0 104 105" fill="none" xmlns="http://www.w3.org/2000/svg">
<g clip-path="url(#clip0_5119_13540)">
<path d="M95.6934 51.6049L91.5436 50.1864C97.8625 47.633 104.464 42.5264 103.804 31.8403C103.427 24.4641 100.126 17.939 98.2398 14.0617L91.2607 0.0657959L92.6754 15.1965C93.1469 19.9249 92.9583 26.1663 91.1664 29.5707C88.8085 34.4882 80.8863 34.0154 78.0569 33.8263C73.0584 33.448 56.8366 32.9752 51.9324 32.9752C45.3305 32.9752 38.1628 33.5426 32.3154 33.9208C29.486 34.11 27.1282 34.2991 25.5249 34.3937C25.3363 34.3937 25.1476 34.3937 24.7704 34.4882C14.4903 35.4339 12.6984 30.611 12.1325 29.0033C11.0951 26.0717 11.0951 19.5466 11.0951 16.7096V4.41588L5.81358 14.2509C4.21027 17.1824 1.19227 22.7619 0.154835 32.124C-0.505352 45.2689 7.69983 49.1461 10.4349 50.3755C10.8121 50.5646 11.1894 50.6592 11.5666 50.8483C11.378 50.9429 11.0951 50.9429 10.9065 51.0375C9.11452 51.6049 7.32258 52.456 6.75671 52.7397L3.6444 54.2527L5.62496 57.0898C5.9079 57.468 6.56808 58.3191 7.32258 59.0757C9.20883 60.8724 13.9245 63.804 19.6775 63.1421C21.6581 62.8584 23.2614 62.5747 24.4874 62.1964C24.6761 62.8584 24.959 63.5203 25.1476 64.0877C26.9396 68.4378 30.9007 76.8543 32.4097 79.7859C33.4471 81.6772 34.3903 83.474 35.1448 84.7979L35.0504 84.8925C34.8618 85.0816 34.7675 85.1762 34.5789 85.3653L33.9187 86.2164V87.1621C33.9187 88.1078 33.6358 96.2405 39.2945 102.293L39.7661 102.766L40.3319 102.955C42.9727 103.995 46.3679 105.035 51.9324 105.035C57.5911 105.035 62.3067 103.711 64.193 102.766L64.7589 102.482L65.1361 102.104C68.9086 97.5645 70.6062 90.9448 70.7006 88.2023L70.7949 88.1078H70.7006L70.6062 86.973L69.5688 85.9327C69.3802 85.7436 69.1916 85.5545 69.0029 85.2708C69.3802 84.5142 69.8517 83.474 70.4176 82.3392L70.5119 82.15C70.7949 81.4881 71.0778 80.9207 71.2664 80.637C72.6811 77.8 77.0195 68.6269 78.6228 64.3714C79 63.4258 79.283 62.6692 79.5659 62.1018C80.792 62.4801 82.3953 62.8583 84.3759 63.0475C90.1289 63.6149 95.599 60.1159 97.4853 57.468C97.5796 57.3735 97.7682 57.1843 97.8625 56.9952L100.409 53.969L96.9194 52.3614C96.7308 51.9831 96.4479 51.8886 95.6934 51.6049Z" fill="#FEFEFE"/>
<path d="M101.348 31.9689C100.971 25.0655 97.8587 18.9186 96.0668 15.2305L95.8782 14.7577L95.1237 13.15L95.3123 14.9468C95.5009 17.4055 96.0668 25.822 93.6147 30.6449C90.5024 37.1701 81.3541 36.5081 78.3361 36.319H78.1474C73.2432 36.0353 57.1158 35.3733 52.2115 35.4679C45.704 35.4679 38.5362 36.0353 32.7832 36.4135C29.9538 36.6027 27.5017 36.7918 25.8983 36.8864C25.804 36.8864 25.6154 36.8864 25.3325 36.9809C17.2216 37.7375 12.1287 35.3733 10.1482 29.8884C8.54486 26.3894 8.63917 19.7697 8.63917 16.5544V15.6088V14.2848L7.97899 15.4196C6.46999 18.2566 3.64061 23.4578 2.69749 32.158C2.13162 42.4658 7.50742 46.1539 11.5629 48.0453C15.8069 50.0312 20.1453 50.3149 21.56 50.4095H21.6543C21.9372 50.504 22.3145 50.504 22.5974 50.504C23.069 50.504 23.5405 50.504 24.0121 50.5986C23.2576 50.7877 22.2202 50.8823 21.3714 51.0714C20.4282 51.2606 19.5794 51.3551 19.1079 51.4497C18.1647 51.6388 14.1093 52.5845 11.8458 53.341C9.95955 54.003 7.97899 54.9487 7.97899 54.9487L7.60174 55.1378L7.88467 55.4215C7.88467 55.4215 8.54486 56.3672 9.29936 57.1237C10.714 58.5422 14.7695 61.0955 19.5794 60.4336C23.4462 59.9607 25.5211 59.0151 26.2756 58.6368C26.5585 59.4879 27.1244 61.3792 27.6903 62.8923C29.3879 67.2424 33.349 75.4697 34.858 78.3068C36.0841 80.6709 37.2158 82.6568 38.0647 84.0754L38.3476 84.5482C38.0647 85.3993 37.4988 85.9667 37.0272 86.4395C36.9329 86.5341 36.8386 86.6287 36.7443 86.7232L36.65 86.8178V86.9124C36.65 87.6689 36.4613 94.856 41.2713 100.152L41.3656 100.246H41.4599C43.912 101.192 47.0243 102.138 52.1172 102.138C57.3044 102.138 61.6428 100.908 63.2461 100.152H63.3404V100.057C66.7356 95.9908 68.2446 90.0331 68.339 87.7635V87.6689L68.2446 87.5743C68.1503 87.4798 68.056 87.3852 67.9617 87.2906C67.3958 86.8178 66.7356 86.1558 66.4527 84.6428C66.83 83.8862 67.6788 82.2786 68.339 80.8601C68.7162 80.1035 68.9991 79.4416 69.1878 79.0633C70.6024 76.2263 74.8465 67.2424 76.4498 62.9869C77.4873 60.339 78.0531 58.9205 78.3361 58.3531C79.0906 58.7314 81.0711 59.677 84.8436 60.0553C89.7479 60.5281 94.3692 57.3129 95.5952 55.5161C95.7839 55.2324 96.1611 54.7596 96.1611 54.7596L96.4441 54.3813L96.0668 54.1922C96.0668 54.1922 95.8782 54.0976 95.1237 53.8139L92.4829 52.8682L89.8422 51.9225C89.0877 51.6388 85.7868 50.9769 83.4289 50.4095L81.637 50.0312L82.2029 49.9366C87.3901 49.1801 102.197 46.6268 101.348 31.9689Z" fill="#2D2925"/>
<path d="M3.92188 29.0373C4.77069 24.8763 6.09106 20.9045 7.883 17.1218H7.97731H8.07162V17.2164C7.97731 18.3512 7.97731 19.486 7.97731 20.7154C7.97731 23.4578 8.16594 26.2948 8.82612 28.8481L8.92043 29.1318L8.73181 28.9427C7.883 28.1862 7.1285 27.4296 6.27969 26.6731C5.52519 27.5242 4.865 28.3753 4.1105 29.1318L3.92188 29.2264V29.0373Z" fill="#C21F32"/>
<path d="M99.9332 27.2405C98.8958 23.7415 97.8584 20.148 96.1608 16.8381H95.9721C96.0664 17.9729 96.0664 19.1077 96.0664 20.148C96.0664 22.8904 95.8778 25.5383 95.4062 28.0916V28.2808L95.5006 28.1862C96.3494 27.8079 97.1982 27.2405 98.047 26.8622L100.122 28.3753L99.9332 27.2405Z" fill="#C21F32"/>
<path d="M65.321 65.162L65.1324 65.2565C63.9063 65.8239 62.6802 66.2968 61.3599 66.5805C60.5111 66.7696 59.6622 66.8642 58.8134 66.8642C56.1727 66.8642 53.6262 65.7294 52.1172 63.3652L52.0229 63.2706V63.3652C51.74 63.6489 51.5514 64.0272 51.1741 64.3109C49.4765 66.2022 47.1187 66.9587 44.6666 66.9587C42.7803 66.9587 40.7997 66.4859 39.1964 65.8239L39.0078 65.7294L39.1021 65.9185C40.3282 69.2284 41.0827 72.9165 41.0827 76.6046C41.0827 78.3068 40.8941 79.9144 40.6111 81.5221C40.4225 82.6569 40.0453 83.8863 39.668 85.0211L39.5737 85.2102L39.7623 85.1156C43.2519 83.2243 47.5902 82.2786 51.8343 82.2786C55.8897 82.2786 59.9452 83.1297 63.3404 84.8319C63.9063 85.0211 64.3779 85.4939 64.9437 85.5885L65.1324 85.683L65.038 85.4939C64.0949 82.5623 63.4347 79.4416 63.4347 76.2263V76.1318C63.4347 75.9426 63.4347 75.7535 63.4347 75.4698C63.4347 71.8762 64.1892 68.4718 65.2267 65.2565L65.321 65.162Z" fill="#C21F32"/>
<path d="M30.8951 68.5663C30.5179 68.0935 30.2349 67.6207 30.1406 66.9587V66.7696L30.3293 66.8641C30.9894 67.2424 31.6496 67.4315 32.4041 67.4315C33.9131 67.4315 35.4221 66.675 36.5539 65.9185H36.6482V66.013H36.4596L36.5539 65.9185C36.3652 67.4315 35.8937 69.1337 34.2904 69.7011C34.0074 69.7957 33.8188 69.7957 33.6302 69.7957C32.4984 69.9848 31.5553 69.3229 30.8951 68.5663Z" fill="#C21F32"/>
<path d="M68.3399 67.9989C67.9626 67.5261 67.774 66.9587 67.6797 66.2967V66.1075L67.8683 66.2021C68.6228 66.8641 69.6603 67.1478 70.6977 67.1478C71.9238 67.1478 73.1498 66.7695 74.0929 66.2021L74.2816 66.1075L74.1872 66.2967C73.7157 67.6206 72.5839 69.0391 71.0749 69.3228C70.9806 69.3228 70.792 69.3228 70.6977 69.3228C69.6603 69.3228 68.8114 68.85 68.3399 67.9989Z" fill="#C21F32"/>
<path d="M70.1336 69.9849C70.3222 69.9849 70.5109 70.0794 70.6995 70.0794C71.2654 70.0794 71.7369 69.8903 72.3028 69.7957L72.4914 69.7012L72.3971 69.8903C70.4166 74.8078 68.0587 79.6307 65.6066 84.3591L65.5123 84.5482L65.418 84.3591C64.9464 83.0351 64.7578 81.5221 64.7578 80.009C64.7578 78.8742 64.8521 77.8339 64.9464 76.6991C65.3237 73.4839 66.0782 70.4577 67.0213 67.4316L67.1156 67.2424L67.2099 67.4316C67.7758 68.6609 68.8132 69.7957 70.1336 69.9849Z" fill="#C21F32"/>
<path d="M38.9122 84.359C35.8942 79.8198 33.6307 74.9969 31.4615 70.0794L31.3672 69.8903L31.5558 69.9848C32.1217 70.2685 32.9705 70.5522 33.725 70.5522C34.1966 70.5522 34.7624 70.4577 35.1397 70.174C36.0828 69.512 36.6487 68.4718 37.0259 67.337L37.1202 67.1478L37.2146 67.337C38.8179 70.6468 39.6667 74.7132 39.6667 78.685C39.6667 80.5764 39.4781 82.4677 39.1008 84.2645L38.9122 84.359Z" fill="#C21F32"/>
<path d="M41.5571 99.6788C38.5391 96.2744 37.3131 92.0189 37.2188 87.4797C41.1799 84.5481 46.5557 83.035 51.8372 83.035C55.3267 83.035 58.722 83.697 61.74 85.1155C63.6262 85.9666 65.5125 86.9123 67.2101 88.2362C66.7385 92.4917 65.1352 96.369 62.4945 99.6788C59.2879 100.908 55.5154 101.57 51.7429 101.57C48.0647 101.57 44.5751 100.908 41.5571 99.6788Z" fill="#C21F32"/>
<path d="M94.9376 54.665C94.9376 54.665 93.0514 53.9085 92.5798 53.7193C87.3926 51.7334 80.7908 50.5986 75.2263 50.4095C74.6605 44.2626 73.906 40.2908 72.6799 36.7918V36.6972H72.5856C69.6619 36.5081 56.8354 36.0353 51.8369 36.0353C46.8383 36.0353 34.2004 36.7918 31.371 36.9809H31.2767V37.0755C30.145 40.4799 28.8246 44.6409 28.1644 50.8823C22.5057 51.2606 14.8664 52.8682 9.67919 54.8541C9.30194 54.9487 9.019 55.1378 8.83038 55.2324C8.73606 55.327 8.64175 55.327 8.64175 55.327L8.45312 55.1378L8.54744 55.4215C9.30194 56.2726 12.2256 59.7716 17.6014 59.9608C17.6957 59.9608 17.7901 59.9608 17.8844 59.9608C19.6763 59.9608 22.6 59.5825 24.5806 58.7314C25.0521 58.5423 25.9952 58.164 26.2782 58.0694C26.3725 58.2585 26.6554 58.826 26.8441 59.2042C27.4099 60.8119 28.0701 63.0815 28.636 64.1217C29.3905 65.6348 30.6166 66.8642 32.5971 66.8642H32.6914C34.4834 66.8642 35.7094 65.4456 35.898 65.1619L35.9924 65.0674H35.8037C30.8052 64.7837 28.8246 62.1358 28.4474 58.164V58.0694H28.3531C27.7872 57.9748 27.4099 57.8803 27.127 57.7857C26.9384 57.6911 26.7497 57.502 26.7497 57.2183C26.7497 57.1237 26.6554 56.9346 26.6554 56.84C26.6554 56.3672 26.8441 55.7998 27.2213 55.2324C27.5986 54.7596 28.1644 54.1922 29.2962 54.1922C29.7677 54.1922 30.3336 54.2867 30.9938 54.4759C32.5028 54.9487 33.8232 55.9889 34.672 56.7455C35.7094 57.6911 38.7274 60.8119 40.5194 61.8521C41.5568 62.5141 43.2544 63.0815 44.8577 63.0815C46.1781 63.0815 47.4985 62.7032 48.6302 61.663C50.988 59.3934 51.271 57.4074 51.5539 56.1781V56.0835H51.4596C47.4985 55.9889 43.6317 55.6107 40.2364 55.1378C39.8592 55.0433 39.6705 54.9487 39.6705 54.7596C39.6705 54.5704 39.8592 54.3813 40.1421 54.3813C40.2364 54.3813 40.2364 54.3813 40.3307 54.3813C40.3307 54.3813 46.9326 55.2324 51.5539 55.327H51.6482V55.2324C51.6482 54.665 51.6482 53.7193 51.7425 52.6791V52.5845H51.6482C48.9132 52.49 44.2919 52.2063 39.9535 51.3551C39.5762 51.2606 39.3876 51.0714 39.3876 50.8823C39.3876 50.6932 39.4819 50.504 39.7649 50.504C39.8592 50.504 39.8592 50.504 39.9535 50.504C40.6137 50.6932 47.6871 51.6389 51.5539 51.6389H51.6482V51.5443C51.6482 50.6932 51.6482 49.5584 51.6482 48.4236V48.329H51.5539H51.271C48.8189 48.329 45.1407 48.0453 40.0478 47.2888C39.6705 47.1942 39.4819 47.0051 39.4819 46.8159C39.4819 46.6268 39.6705 46.4377 39.9535 46.4377H40.0478C40.0478 46.4377 46.2724 47.3833 51.1767 47.3833C51.271 47.3833 51.3653 47.3833 51.5539 47.3833H51.6482V47.2888C51.6482 46.5322 51.6482 45.6811 51.6482 44.7355C51.6482 44.2626 51.8369 44.0735 52.0255 44.0735C52.2141 44.0735 52.4027 44.2626 52.4027 44.6409C52.4027 45.0192 52.4027 45.9648 52.4027 47.0996V47.1942V47.2888H52.497C57.2127 47.0996 61.3624 46.6268 63.343 46.2485C63.4373 46.2485 63.5316 46.2485 63.6259 46.2485C64.0032 46.2485 64.0975 46.4377 64.0975 46.5322C64.0975 46.7214 64.0032 46.9105 63.8145 46.9105C63.1543 47.0051 57.6842 48.0453 52.497 48.2344H52.4027V48.329C52.4027 49.2747 52.4027 50.4095 52.497 51.4497V51.5443H52.5914C56.0809 51.4497 60.1363 51.2606 63.6259 50.504C63.8145 50.504 63.9088 50.4095 64.0975 50.4095C64.4747 50.4095 64.6633 50.5986 64.6633 50.6932C64.6633 50.8823 64.4747 51.0715 64.0032 51.166C60.6079 51.7334 55.7037 52.3008 52.6857 52.3008H52.5914V52.3954C52.5914 53.2465 52.5913 54.2867 52.6857 54.9487V55.0433H52.78C58.3444 54.9487 63.6259 54.0976 64.569 54.003C64.6633 54.003 64.6633 54.003 64.7577 54.003C65.1349 54.003 65.2292 54.1922 65.2292 54.3813C65.2292 54.5704 65.0406 54.7596 64.6633 54.8541C63.7202 54.9487 57.1183 55.7998 52.9686 55.9889H52.8743V56.0835C53.2515 57.502 53.3458 59.5825 55.4207 61.3793C56.4582 62.2304 57.7785 62.6086 59.1932 62.6086C60.6079 62.6086 62.0226 62.2304 63.1543 61.5684C65.0406 60.5282 67.87 57.3129 68.9074 56.3672C69.7562 55.6107 71.7368 53.8139 74.3775 53.8139H74.4718C75.7922 53.8139 76.4524 54.1922 76.8297 54.5704C77.2069 54.9487 77.2069 55.4215 77.3012 55.6107C77.3955 55.7998 77.3955 55.9889 77.3955 56.1781C77.3955 56.4618 77.3012 56.84 76.924 57.0292C76.4524 57.3129 76.0752 57.2183 75.5093 57.502C75.132 59.6771 74.4718 62.2304 72.7742 63.4597C71.8311 64.1217 70.6993 64.5945 69.6619 64.7837C68.8131 65.0674 68.0586 65.0674 68.0586 65.0674H67.87L67.9643 65.1619C67.9643 65.1619 68.3415 65.6348 68.5302 65.7293C68.8131 66.013 69.6619 66.3913 70.7937 66.3913C70.888 66.3913 71.0766 66.3913 71.1709 66.3913C72.397 66.2968 73.8117 65.3511 74.4718 64.6891C75.415 63.4597 76.2638 61.001 76.8297 59.3934C77.0183 58.8259 77.5842 57.8803 77.7728 57.3129C78.2443 57.5966 78.6216 57.6911 79.5647 58.0694C81.5453 58.9205 84.0917 59.2042 85.8837 59.2042C85.978 59.2042 86.0723 59.2042 86.1666 59.2042C88.9959 59.1097 92.1083 57.4074 94.0888 55.6107C94.4661 55.327 95.032 54.5704 95.032 54.4759L95.1263 54.3813L94.9376 54.665Z" fill="#C21F32"/>
<path d="M54.8544 89.182C54.5714 89.6548 54.3828 90.2222 54.3828 90.7896C54.3828 91.7353 54.7601 92.6809 55.2316 93.4375L55.3259 93.5321C55.4202 93.5321 55.4202 93.5321 55.5146 93.4375C55.5146 92.8701 55.1373 92.3972 55.1373 91.8298C55.1373 91.7353 55.1373 91.5461 55.2316 91.357L55.3259 91.1679L55.4202 91.357C55.9861 92.3027 56.8349 92.8701 57.7781 93.1538C58.1553 93.2483 58.5326 93.2484 58.8155 93.2484C60.0416 93.2484 61.1733 92.6809 62.0221 91.7353C62.3994 91.1679 62.6823 90.5059 62.6823 89.8439C62.6823 89.5602 62.588 89.182 62.4937 88.8983C61.9278 87.7635 60.7017 87.1015 59.57 86.9124C59.3814 86.9124 59.1927 86.9124 59.0041 86.9124C57.3065 86.9124 55.7032 87.6689 54.8544 89.182Z" fill="#2D2925"/>
<path d="M48.2542 93.9103C48.3486 93.9103 48.4429 93.8157 48.5372 93.6266C49.0087 92.9646 49.2917 92.019 49.2917 91.0733C49.2917 90.5059 49.1974 89.9385 48.8201 89.3711C48.3486 88.4254 47.4054 87.7634 46.4623 87.4797C45.8964 87.2906 45.4249 87.196 44.859 87.196C43.5386 87.196 42.3126 87.6689 41.4637 88.8037C41.1808 89.182 40.9922 89.7494 40.9922 90.2222C40.9922 90.5059 40.9922 90.7896 41.0865 91.0733C41.5581 92.3027 42.6898 93.2483 43.8216 93.4375C44.1045 93.532 44.3874 93.532 44.5761 93.532C45.9907 93.532 47.2168 92.8701 48.0656 91.6407L48.1599 91.5461L48.2542 91.6407C48.2542 91.7353 48.3486 91.8298 48.3486 91.9244C48.3486 92.2081 48.2542 92.3972 48.2542 92.5864C48.2542 92.9646 47.9713 93.2483 47.9713 93.4375C47.9713 93.532 47.9713 93.6266 48.0656 93.7212C48.1599 93.9103 48.1599 93.9103 48.2542 93.9103Z" fill="#2D2925"/>
<path d="M41.8376 98.5441C44.9499 97.2201 48.5338 96.4636 52.212 96.4636C54.9471 96.4636 57.6821 96.9364 60.1342 97.7875C60.7944 98.0712 61.3603 98.2604 62.0205 98.4495C62.2091 98.2604 62.2091 98.1658 62.3977 97.9767C59.3797 96.4636 55.8902 95.8016 52.3063 95.8016C48.5338 95.8016 44.7613 96.5582 41.5547 97.9767C41.649 98.355 41.7433 98.4495 41.8376 98.5441Z" fill="#2D2925"/>
<path d="M44.5727 75.848C46.3646 78.1176 49.194 79.1578 51.9291 79.1578C52.9665 79.1578 54.0039 79.0633 55.0414 78.7796C59.757 77.4556 62.492 72.349 63.5295 67.9043C63.4352 67.8098 63.2465 67.7152 63.0579 67.7152C62.492 70.3631 61.3603 72.9164 59.6627 75.0914C57.6821 77.5502 54.7584 78.685 51.9291 78.685C50.8916 78.685 49.8542 78.4959 48.9111 78.2122C44.667 76.8882 42.4035 72.1599 42.0262 67.9043C41.8376 67.9043 41.7433 67.9043 41.5547 67.9989C41.8376 70.9305 42.6864 73.5784 44.5727 75.848Z" fill="#2D2925"/>
<path d="M9.77253 31.6851C12.2247 36.4135 17.1289 37.9265 22.2218 37.7374C25.0511 37.7374 27.6919 37.4537 30.5213 37.2646V37.4537C29.1066 41.4255 28.1634 45.4919 27.5976 49.7474C20.3355 50.0311 12.8848 49.4637 7.50903 44.5462C3.83084 40.8581 2.98203 35.7515 3.73653 30.7394C4.58534 29.6992 5.52847 28.8481 6.37728 27.8079C7.50903 28.9427 9.39528 29.9829 9.77253 31.6851Z" fill="#FEFEFE"/>
<path d="M100.309 29.6047C100.497 30.3613 100.497 31.0233 100.592 31.7798C100.969 37.3592 98.5168 42.5604 93.7069 45.3975C88.5197 48.5182 82.3894 49.653 75.9761 49.8421C75.8818 49.2747 75.7875 48.5182 75.6932 47.8562C75.2216 44.1681 74.4671 40.3854 73.4297 36.8864C80.3145 36.7918 88.614 38.5886 93.141 32.3472C93.7069 31.4961 94.3671 30.645 94.8386 29.6993C95.8761 29.2265 96.8192 28.5645 97.8566 28.0917C98.7997 28.4699 99.4599 29.1319 100.309 29.6047Z" fill="#FEFEFE"/>
<path d="M74.1839 57.9749C74.1839 60.1499 73.5237 62.3249 71.6375 63.3652C70.6944 63.838 69.6569 64.0272 68.7138 64.0272C68.7138 63.838 68.6195 63.6489 68.7138 63.3652C70.3171 63.4597 71.8261 62.7978 72.5806 61.5684C73.1465 60.6227 73.3351 59.4879 73.4294 58.3531C73.618 58.164 73.901 58.0694 74.1839 57.9749Z" fill="#FEFEFE"/>
<path d="M35.4278 63.838C35.1449 63.9326 35.0505 63.9326 34.4847 63.838C31.9382 63.838 29.2975 61.8521 29.4861 58.3532C29.769 58.2586 30.1463 58.2586 30.4292 58.3532C30.4292 60.3391 31.1837 62.9869 35.3335 62.9869C35.6164 63.4598 35.3335 63.5543 35.4278 63.838Z" fill="#FEFEFE"/>
</g>
<defs>
<clipPath id="clip0_5119_13540">
<rect width="104" height="105" fill="white"/>
</clipPath>
</defs>
</svg>
