<svg width="283" height="479" viewBox="0 0 283 479" fill="none" xmlns="http://www.w3.org/2000/svg">
<g clip-path="url(#clip0_6153_54351)">
<path d="M10.9541 37.5218L10.9541 451.229L271.547 451.229L271.547 37.5218L10.9541 37.5218Z" fill="#DAAC71"/>
<path d="M107.304 356.612L107.304 451.229L175.198 451.229L175.198 356.612L107.304 356.612Z" fill="#A35C26"/>
<path d="M107.304 37.5218L107.304 131.656L175.198 131.656L175.198 37.5218L107.304 37.5218Z" fill="#A35C26"/>
<path d="M142.499 46.2111L142.499 51.5212C142.499 52.1877 141.94 52.728 141.251 52.728C140.561 52.728 140.003 52.1877 140.003 51.5212L140.003 46.2111C140.003 45.5445 140.561 45.0042 141.251 45.0042C141.94 45.0042 142.499 45.5445 142.499 46.2111Z" fill="white"/>
<path d="M142.499 436.746L142.499 442.056C142.499 442.723 141.94 443.263 141.251 443.263C140.561 443.263 140.003 442.723 140.003 442.056L140.003 436.746C140.003 436.08 140.561 435.539 141.251 435.539C141.94 435.539 142.499 436.08 142.499 436.746Z" fill="white"/>
<path d="M151.485 428.298C151.485 433.631 147.015 437.953 141.501 437.953C135.986 437.953 131.516 433.631 131.516 428.298C131.516 422.966 135.986 418.644 141.501 418.644C147.015 418.644 151.485 422.966 151.485 428.298ZM134.012 428.298C134.012 432.297 137.365 435.539 141.501 435.539C145.636 435.539 148.989 432.297 148.989 428.298C148.989 424.299 145.636 421.057 141.501 421.057C137.365 421.057 134.012 424.299 134.012 428.298Z" fill="white"/>
<path d="M272.795 37.5219L272.795 451.229C272.795 451.895 272.237 452.436 271.547 452.436L10.9541 452.436C10.2648 452.436 9.70605 451.895 9.70605 451.229L9.70606 37.5219C9.70606 36.8554 10.2648 36.3151 10.9541 36.3151L271.547 36.3151C272.237 36.3151 272.795 36.8554 272.795 37.5219ZM270.299 450.022L270.299 38.7288L12.2022 38.7288L12.2022 450.022L270.299 450.022Z" fill="white"/>
<path d="M240.845 421.54L240.845 451.229C240.845 451.895 240.287 452.436 239.597 452.436C238.908 452.436 238.349 451.895 238.349 451.229L238.349 421.54C238.349 369.552 194.765 327.406 141.001 327.406C87.3249 327.406 43.6531 369.636 43.6531 421.54L43.6531 451.229C43.6531 451.895 43.0943 452.436 42.405 452.436C41.7158 452.436 41.157 451.895 41.157 451.229L41.157 421.54C41.157 368.304 85.9471 324.993 141.001 324.993C196.144 324.993 240.845 368.218 240.845 421.54Z" fill="white"/>
<path d="M176.446 356.612L176.446 451.229C176.446 451.895 175.887 452.436 175.198 452.436C174.508 452.436 173.95 451.895 173.95 451.229L173.95 357.819L108.552 357.819L108.552 451.229C108.552 451.895 107.993 452.436 107.304 452.436C106.614 452.436 106.056 451.895 106.056 451.229L106.056 356.612C106.056 355.945 106.614 355.405 107.304 355.405L175.198 355.405C175.887 355.405 176.446 355.945 176.446 356.612Z" fill="white"/>
<path d="M176.446 357.577C176.446 358.577 176.396 359.59 176.296 360.585C176.231 361.251 175.62 361.741 174.931 361.678C174.241 361.616 173.735 361.024 173.8 360.358C173.89 359.436 173.935 358.504 173.935 357.577C173.935 356.911 174.494 356.37 175.183 356.37C175.872 356.37 176.431 356.911 176.431 357.577L176.446 357.577Z" fill="white"/>
<path d="M175.223 365.958C175.223 366.072 175.206 366.186 175.173 366.296C174.614 368.157 173.88 369.965 172.981 371.697C172.671 372.293 171.92 372.533 171.304 372.233C170.688 371.933 170.44 371.207 170.75 370.611C171.582 369.012 172.26 367.343 172.777 365.625C172.97 364.985 173.663 364.617 174.324 364.804C174.855 364.953 175.221 365.423 175.223 365.958ZM170.061 375.897C170.062 376.159 169.975 376.413 169.811 376.621C168.611 378.166 167.275 379.606 165.818 380.927C165.333 381.401 164.543 381.405 164.053 380.936C163.563 380.468 163.558 379.703 164.043 379.23C164.068 379.206 164.094 379.182 164.12 379.16C165.477 377.937 166.722 376.601 167.839 375.168C168.257 374.638 169.04 374.535 169.588 374.938C169.898 375.166 170.08 375.521 170.081 375.897L170.061 375.897ZM161.654 383.486C161.655 383.895 161.441 384.277 161.085 384.5C159.413 385.555 157.653 386.474 155.823 387.246C155.2 387.532 154.456 387.275 154.161 386.672C153.866 386.07 154.132 385.35 154.754 385.065C154.778 385.054 154.801 385.045 154.825 385.035C156.528 384.316 158.166 383.46 159.722 382.477C160.304 382.114 161.079 382.276 161.454 382.839C161.583 383.032 161.652 383.256 161.654 383.486ZM151.106 387.941C151.106 388.496 150.714 388.978 150.157 389.11C148.216 389.575 146.239 389.889 144.246 390.046C143.557 390.1 142.953 389.602 142.898 388.936C142.843 388.269 143.357 387.686 144.047 387.633C145.899 387.489 147.735 387.198 149.538 386.764C150.202 386.609 150.871 387.001 151.036 387.642C151.072 387.739 151.095 387.839 151.106 387.941ZM139.623 388.844L139.623 388.955C139.571 389.617 138.973 390.112 138.289 390.061C138.286 390.061 138.283 390.061 138.281 390.061C136.291 389.908 134.317 389.598 132.38 389.134C131.71 388.973 131.302 388.317 131.469 387.669C131.635 387.021 132.314 386.626 132.984 386.788C134.786 387.223 136.623 387.513 138.475 387.657C139.12 387.704 139.62 388.219 139.628 388.844L139.623 388.844ZM128.456 386.155C128.451 386.825 127.887 387.363 127.195 387.359C127.027 387.358 126.862 387.325 126.709 387.261C124.874 386.49 123.111 385.572 121.437 384.514C120.85 384.165 120.667 383.421 121.028 382.854C121.39 382.286 122.159 382.109 122.745 382.459C122.766 382.471 122.785 382.483 122.805 382.496C124.361 383.477 125.999 384.329 127.702 385.045C128.161 385.236 128.46 385.672 128.461 386.155L128.456 386.155ZM118.821 380.063C118.819 380.732 118.257 381.273 117.565 381.272C117.251 381.271 116.95 381.157 116.719 380.951C115.264 379.63 113.928 378.191 112.725 376.65C112.312 376.117 112.424 375.361 112.975 374.961C113.526 374.561 114.309 374.669 114.722 375.202C115.839 376.635 117.085 377.97 118.446 379.189C118.69 379.419 118.827 379.734 118.826 380.063L118.821 380.063ZM111.897 371.181C111.902 371.847 111.348 372.392 110.659 372.397C110.181 372.401 109.743 372.14 109.53 371.726C108.628 369.995 107.893 368.187 107.334 366.324C107.12 365.691 107.478 365.01 108.133 364.803C108.789 364.596 109.493 364.942 109.707 365.576C109.716 365.601 109.723 365.627 109.73 365.653C110.25 367.372 110.93 369.041 111.762 370.64C111.852 370.807 111.899 370.993 111.902 371.181L111.897 371.181Z" fill="white"/>
<path d="M108.697 360.474C108.728 361.14 108.195 361.705 107.506 361.736C106.817 361.767 106.232 361.251 106.201 360.585C106.101 359.59 106.051 358.576 106.051 357.577C106.051 356.911 106.61 356.37 107.299 356.37C107.988 356.37 108.547 356.911 108.547 357.577C108.547 358.504 108.592 359.436 108.682 360.358L108.697 360.474Z" fill="white"/>
<path d="M176.446 357.577C176.446 358.244 175.887 358.784 175.198 358.784C174.508 358.784 173.95 358.244 173.95 357.577C173.95 340.942 159.283 327.406 141.251 327.406C123.219 327.406 108.552 340.923 108.552 357.577C108.552 358.244 107.993 358.784 107.304 358.784C106.614 358.784 106.056 358.244 106.056 357.577C106.056 339.61 121.846 324.993 141.251 324.993C160.655 324.993 176.446 339.61 176.446 357.577Z" fill="white"/>
<path d="M142.499 458.469L142.499 468.124C142.499 468.791 141.94 469.331 141.251 469.331C140.561 469.331 140.003 468.791 140.003 468.124L140.003 458.899L126.434 442.819C125.998 442.302 126.079 441.541 126.614 441.12C127.149 440.699 127.935 440.776 128.371 441.294L142.219 457.707C142.4 457.923 142.498 458.192 142.499 458.469Z" fill="#4D4D4D"/>
<path d="M158.579 442.056C158.579 442.366 158.456 442.663 158.234 442.887L142.154 459.3C141.655 459.76 140.865 459.741 140.39 459.258C139.948 458.809 139.929 458.109 140.347 457.639L156.427 441.226C156.903 440.744 157.693 440.725 158.192 441.185C158.438 441.412 158.578 441.727 158.579 442.056Z" fill="#4D4D4D"/>
<path d="M162.967 442.056C162.967 442.723 162.408 443.263 161.719 443.263L121.282 443.263C120.593 443.263 120.034 442.723 120.034 442.056C120.034 441.39 120.593 440.849 121.282 440.849L161.719 440.849C162.408 440.849 162.967 441.39 162.967 442.056Z" fill="#4D4D4D"/>
<path d="M160.471 464.745L160.471 472.469C160.468 475.534 157.899 478.018 154.73 478.021L126.774 478.021C123.604 478.018 121.035 475.534 121.032 472.469L121.032 464.745C121.035 461.68 123.604 459.196 126.774 459.194L154.73 459.194C157.899 459.196 160.468 461.68 160.471 464.745ZM123.529 472.469C123.531 474.201 124.983 475.604 126.774 475.607L154.73 475.607C156.521 475.604 157.972 474.201 157.975 472.469L157.975 464.745C157.972 463.013 156.521 461.61 154.73 461.607L126.774 461.607C124.983 461.61 123.531 463.013 123.529 464.745L123.529 472.469Z" fill="#4D4D4D"/>
<path d="M240.845 37.5218L240.845 66.7275C240.845 120.049 196.144 163.275 141.001 163.275C85.9471 163.275 41.157 119.964 41.157 66.7275L41.157 37.5218C41.157 36.8553 41.7158 36.315 42.405 36.315C43.0943 36.315 43.6531 36.8553 43.6531 37.5218L43.6531 66.7275C43.6531 118.632 87.3249 160.861 141.001 160.861C194.765 160.861 238.349 118.716 238.349 66.7275L238.349 37.5218C238.349 36.8553 238.908 36.315 239.597 36.315C240.287 36.315 240.845 36.8553 240.845 37.5218Z" fill="white"/>
<path d="M176.446 37.5217L176.446 131.656C176.446 132.322 175.887 132.863 175.198 132.863L107.304 132.863C106.614 132.863 106.056 132.322 106.056 131.656L106.056 37.5217C106.056 36.8552 106.614 36.3149 107.304 36.3149C107.993 36.3149 108.552 36.8552 108.552 37.5217L108.552 130.449L173.95 130.449L173.95 37.5217C173.95 36.8552 174.508 36.3149 175.198 36.3149C175.887 36.3149 176.446 36.8552 176.446 37.5217Z" fill="white"/>
<path d="M176.446 130.69C176.446 131.357 175.887 131.897 175.198 131.897C174.508 131.897 173.95 131.357 173.95 130.69C173.95 129.764 173.905 128.832 173.815 127.91C173.75 127.243 174.256 126.652 174.946 126.59C175.635 126.527 176.246 127.016 176.311 127.683C176.396 128.677 176.446 129.686 176.446 130.69Z" fill="white"/>
<path d="M175.223 122.31C175.22 122.976 174.659 123.515 173.97 123.512C173.417 123.51 172.931 123.156 172.777 122.643C172.26 120.924 171.582 119.255 170.75 117.656C170.44 117.06 170.688 116.334 171.304 116.034C171.92 115.734 172.671 115.974 172.981 116.57C173.889 118.302 174.63 120.11 175.198 121.972C175.223 122.083 175.231 122.197 175.223 122.31ZM170.061 112.346C170.06 113.013 169.501 113.552 168.811 113.551C168.422 113.551 168.055 113.375 167.819 113.075C166.702 111.643 165.457 110.307 164.1 109.083C163.576 108.65 163.514 107.888 163.961 107.381C164.408 106.874 165.196 106.814 165.72 107.247C165.747 107.269 165.773 107.292 165.798 107.316C167.255 108.637 168.591 110.078 169.791 111.622C169.962 111.828 170.057 112.083 170.061 112.346ZM161.654 104.758C161.649 105.427 161.083 105.965 160.391 105.96C160.154 105.958 159.922 105.891 159.722 105.766C158.166 104.783 156.528 103.927 154.825 103.208C154.202 102.923 153.936 102.203 154.231 101.601C154.513 101.024 155.211 100.76 155.823 100.997C157.653 101.769 159.413 102.688 161.085 103.744C161.448 103.97 161.664 104.363 161.654 104.782L161.654 104.758ZM151.105 100.302C151.105 100.401 151.091 100.5 151.066 100.596C150.901 101.237 150.232 101.63 149.568 101.475C147.765 101.04 145.928 100.75 144.076 100.606C143.387 100.553 142.873 99.9691 142.928 99.3026C142.983 98.6361 143.587 98.139 144.276 98.1923C146.266 98.3505 148.239 98.6637 150.177 99.1288C150.737 99.2702 151.122 99.7665 151.105 100.326L151.105 100.302ZM139.623 99.3991C139.623 100.028 139.123 100.551 138.475 100.601C136.623 100.745 134.786 101.035 132.984 101.47C132.314 101.631 131.635 101.237 131.469 100.589C131.302 99.9412 131.71 99.2853 132.38 99.124C134.317 98.6597 136.291 98.3497 138.28 98.1971C138.965 98.1418 139.566 98.6333 139.623 99.2949C139.623 99.2974 139.623 99.3 139.623 99.3026L139.623 99.3991ZM128.456 102.088C128.455 102.57 128.159 103.006 127.702 103.198C125.999 103.914 124.361 104.767 122.805 105.747C122.239 106.128 121.461 105.994 121.067 105.447C120.673 104.9 120.812 104.148 121.378 103.767C121.397 103.754 121.417 103.741 121.437 103.729C123.111 102.672 124.874 101.753 126.709 100.983C127.344 100.719 128.081 101.003 128.354 101.618C128.42 101.767 128.455 101.926 128.456 102.088ZM118.821 108.18C118.82 108.515 118.676 108.836 118.422 109.064C117.06 110.283 115.814 111.618 114.697 113.051C114.284 113.584 113.501 113.692 112.95 113.292C112.399 112.892 112.287 112.136 112.7 111.603C113.902 110.063 115.238 108.625 116.694 107.306C117.197 106.85 117.987 106.875 118.458 107.361C118.676 107.586 118.797 107.882 118.796 108.19L118.821 108.18ZM111.897 117.063C111.896 117.25 111.85 117.436 111.762 117.603C110.93 119.203 110.25 120.872 109.73 122.59C109.561 123.236 108.882 123.627 108.213 123.463C107.545 123.299 107.141 122.643 107.311 121.996C107.317 121.97 107.325 121.944 107.334 121.919C107.893 120.057 108.628 118.249 109.53 116.517C109.836 115.92 110.585 115.676 111.203 115.972C111.631 116.177 111.901 116.6 111.897 117.063Z" fill="white"/>
<path d="M108.697 127.794L108.697 127.91C108.607 128.832 108.562 129.764 108.562 130.69C108.562 131.357 108.003 131.897 107.314 131.897C106.624 131.897 106.066 131.357 106.066 130.69C106.066 129.686 106.116 128.677 106.215 127.683C106.247 127.016 106.832 126.501 107.521 126.532C108.21 126.562 108.743 127.127 108.712 127.794L108.697 127.794Z" fill="white"/>
<path d="M176.446 130.69C176.446 148.658 160.655 163.275 141.251 163.275C121.846 163.275 106.056 148.658 106.056 130.69C106.056 130.024 106.614 129.483 107.304 129.483C107.993 129.483 108.552 130.024 108.552 130.69C108.552 147.325 123.219 160.861 141.251 160.861C159.283 160.861 173.95 147.345 173.95 130.69C173.95 130.024 174.508 129.483 175.198 129.483C175.887 129.483 176.446 130.024 176.446 130.69Z" fill="white"/>
<path d="M142.499 20.626L142.499 29.798C142.498 30.0756 142.4 30.3448 142.219 30.5607L128.371 46.9738C127.935 47.491 127.149 47.5688 126.614 47.1476C126.079 46.7264 125.998 45.9656 126.434 45.4484L140.003 29.3684L140.003 20.626C140.003 19.9594 140.561 19.4191 141.251 19.4191C141.94 19.4191 142.499 19.9594 142.499 20.626Z" fill="#4D4D4D"/>
<path d="M158.579 46.2111C158.578 46.8776 158.018 47.417 157.329 47.4158C156.988 47.4152 156.662 47.2799 156.427 47.0414L140.347 30.6283C139.848 30.1686 139.829 29.4047 140.304 28.9221C140.78 28.4395 141.57 28.4208 142.069 28.8805C142.099 28.9082 142.127 28.9373 142.154 28.9677L158.234 45.3808C158.456 45.6041 158.579 45.9017 158.579 46.2111Z" fill="#4D4D4D"/>
<path d="M162.967 46.2111C162.967 46.8777 162.408 47.418 161.719 47.418L121.282 47.418C120.593 47.418 120.034 46.8777 120.034 46.2111C120.034 45.5446 120.593 45.0043 121.282 45.0043L161.719 45.0043C162.408 45.0043 162.967 45.5446 162.967 46.2111Z" fill="#4D4D4D"/>
<path d="M160.471 15.7986L160.471 23.5225C160.468 26.5874 157.899 29.0713 154.73 29.074L126.774 29.074C123.604 29.0713 121.035 26.5874 121.032 23.5225L121.032 15.7986C121.035 12.7337 123.604 10.2498 126.774 10.2472L154.73 10.2472C157.899 10.2498 160.468 12.7337 160.471 15.7986ZM123.529 23.5225C123.531 25.2543 124.983 26.6576 126.774 26.6603L154.73 26.6603C156.521 26.6576 157.972 25.2543 157.975 23.5225L157.975 15.7986C157.972 14.0668 156.521 12.6635 154.73 12.6608L126.774 12.6608C124.983 12.6635 123.531 14.0668 123.529 15.7986L123.529 23.5225Z" fill="#4D4D4D"/>
<path d="M151.485 59.969C151.485 65.3012 147.015 69.6238 141.501 69.6238C135.986 69.6238 131.516 65.3012 131.516 59.969C131.516 54.6368 135.986 50.3142 141.501 50.3142C147.015 50.3142 151.485 54.6368 151.485 59.969ZM134.012 59.969C134.012 63.9682 137.365 67.2101 141.501 67.2101C145.636 67.2101 148.989 63.9682 148.989 59.969C148.989 55.9699 145.636 52.7279 141.501 52.7279C137.365 52.7279 134.012 55.9699 134.012 59.969Z" fill="white"/>
<path d="M272.795 243.651C272.795 244.318 272.237 244.858 271.547 244.858L10.9541 244.858C10.2648 244.858 9.70605 244.318 9.70605 243.651C9.70605 242.985 10.2648 242.444 10.9541 242.444L271.547 242.444C272.237 242.444 272.795 242.985 272.795 243.651Z" fill="white"/>
<path d="M176.446 243.41C176.446 262.339 160.577 277.684 141.001 277.684C121.426 277.684 105.557 262.339 105.557 243.41C105.557 224.48 121.426 209.135 141.001 209.135C160.568 209.157 176.424 224.489 176.446 243.41ZM108.053 243.41C108.053 261.006 122.804 275.27 141.001 275.27C159.198 275.27 173.95 261.006 173.95 243.41C173.95 225.813 159.198 211.549 141.001 211.549C122.813 211.57 108.075 225.822 108.053 243.41Z" fill="white"/>
<path d="M282.281 312.2C282.281 312.866 281.722 313.407 281.033 313.407L262.062 313.407C261.373 313.407 260.814 312.866 260.814 312.2C260.814 311.533 261.373 310.993 262.062 310.993L281.033 310.993C281.722 310.993 282.281 311.533 282.281 312.2Z" fill="white"/>
<path d="M282.281 177.033C282.281 177.7 281.722 178.24 281.033 178.24L262.062 178.24C261.373 178.24 260.814 177.7 260.814 177.033C260.814 176.367 261.373 175.826 262.062 175.826L281.033 175.826C281.722 175.826 282.281 176.367 282.281 177.033Z" fill="white"/>
<path d="M21.6874 312.2C21.6874 312.866 21.1287 313.407 20.4394 313.407L1.469 313.407C0.77972 313.407 0.220947 312.866 0.220947 312.2C0.220947 311.533 0.77972 310.993 1.469 310.993L20.4394 310.993C21.1287 310.993 21.6874 311.533 21.6874 312.2Z" fill="white"/>
<path d="M21.6874 177.033C21.6874 177.7 21.1287 178.24 20.4394 178.24L1.469 178.24C0.77972 178.24 0.220947 177.7 0.220947 177.033C0.220947 176.367 0.77972 175.826 1.469 175.826L20.4394 175.826C21.1287 175.826 21.6874 176.367 21.6874 177.033Z" fill="white"/>
</g>
<defs>
<clipPath id="clip0_6153_54351">
<rect width="479" height="283" fill="white" transform="translate(0 479) rotate(-90)"/>
</clipPath>
</defs>
</svg>
