<svg width="476" height="809" viewBox="0 0 476 809" fill="none" xmlns="http://www.w3.org/2000/svg">
<g clip-path="url(#clip0_4287_3673)">
<path d="M18.4248 56.0001L18.4248 754.724L456.737 754.724L456.737 56.0001L18.4248 56.0001Z" fill="#DAAC71"/>
<path d="M180.483 594.786L180.483 754.588L294.679 754.588L294.679 594.786L180.483 594.786Z" fill="#A35C26"/>
<path d="M180.483 55.8639L180.483 214.85L294.679 214.85L294.679 55.8639L180.483 55.8639Z" fill="#A35C26"/>
<path d="M239.68 70.5394L239.68 79.5079C239.68 80.6336 238.74 81.5461 237.581 81.5461C236.422 81.5461 235.482 80.6336 235.482 79.5079L235.482 70.5394C235.482 69.4137 236.422 68.5011 237.581 68.5011C238.74 68.5011 239.68 69.4137 239.68 70.5394Z" fill="white"/>
<path d="M239.68 730.128L239.68 739.097C239.68 740.222 238.74 741.135 237.581 741.135C236.422 741.135 235.482 740.222 235.482 739.097L235.482 730.128C235.482 729.003 236.422 728.09 237.581 728.09C238.74 728.09 239.68 729.003 239.68 730.128Z" fill="white"/>
<path d="M254.794 715.86C254.794 724.866 247.275 732.167 238.001 732.167C228.726 732.167 221.207 724.866 221.207 715.86C221.207 706.855 228.726 699.554 238.001 699.554C247.275 699.554 254.794 706.855 254.794 715.86ZM225.405 715.86C225.405 722.615 231.044 728.09 238.001 728.09C244.957 728.09 250.596 722.615 250.596 715.86C250.596 709.106 244.957 703.631 238.001 703.631C231.044 703.631 225.405 709.106 225.405 715.86Z" fill="white"/>
<path d="M458.837 55.8638L458.837 754.588C458.837 755.713 457.897 756.626 456.737 756.626L18.4249 756.626C17.2655 756.626 16.3257 755.713 16.3257 754.588L16.3257 55.8637C16.3257 54.738 17.2655 53.8255 18.4249 53.8255L456.737 53.8255C457.897 53.8255 458.837 54.7381 458.837 55.8638ZM454.638 752.549L454.638 57.9021L20.5241 57.9021L20.5241 752.549L454.638 752.549Z" fill="white"/>
<path d="M405.097 704.446L405.097 754.588C405.097 755.713 404.157 756.626 402.997 756.626C401.838 756.626 400.898 755.713 400.898 754.588L400.898 704.446C400.898 616.64 327.591 545.46 237.161 545.46C146.879 545.46 73.4235 616.783 73.4235 704.446L73.4235 754.588C73.4235 755.713 72.4836 756.626 71.3243 756.626C70.1649 756.626 69.2251 755.713 69.2251 754.588L69.2251 704.446C69.2251 614.533 144.561 541.383 237.161 541.383C329.909 541.383 405.097 614.389 405.097 704.446Z" fill="white"/>
<path d="M296.778 594.786L296.778 754.588C296.778 755.713 295.838 756.626 294.679 756.626C293.519 756.626 292.58 755.713 292.58 754.588L292.58 596.825L182.582 596.825L182.582 754.588C182.582 755.713 181.642 756.626 180.482 756.626C179.323 756.626 178.383 755.713 178.383 754.588L178.383 594.786C178.383 593.661 179.323 592.748 180.482 592.748L294.679 592.748C295.838 592.748 296.778 593.661 296.778 594.786Z" fill="white"/>
<path d="M296.778 596.417C296.778 598.105 296.694 599.817 296.526 601.496C296.417 602.622 295.389 603.449 294.23 603.343C293.07 603.237 292.219 602.239 292.328 601.113C292.479 599.556 292.555 597.982 292.555 596.417C292.555 595.291 293.494 594.379 294.654 594.379C295.813 594.379 296.753 595.291 296.753 596.417L296.778 596.417Z" fill="white"/>
<path d="M294.721 610.571C294.722 610.764 294.693 610.956 294.637 611.141C293.696 614.285 292.463 617.339 290.951 620.265C290.429 621.271 289.166 621.676 288.13 621.17C287.093 620.663 286.676 619.437 287.198 618.43C288.597 615.73 289.738 612.911 290.607 610.008C290.931 608.927 292.097 608.307 293.21 608.622C294.103 608.875 294.718 609.668 294.721 610.571ZM286.039 627.358C286.041 627.799 285.894 628.229 285.619 628.581C283.601 631.189 281.353 633.622 278.902 635.854C278.086 636.654 276.757 636.661 275.933 635.869C275.109 635.077 275.102 633.787 275.917 632.986C275.959 632.946 276.002 632.907 276.047 632.87C278.329 630.802 280.423 628.546 282.302 626.127C283.004 625.231 284.321 625.057 285.244 625.738C285.765 626.123 286.072 626.722 286.072 627.358L286.039 627.358ZM271.899 640.175C271.901 640.867 271.54 641.512 270.941 641.887C268.13 643.67 265.169 645.222 262.091 646.526C261.044 647.008 259.792 646.574 259.295 645.557C258.799 644.539 259.246 643.324 260.294 642.842C260.333 642.824 260.372 642.807 260.412 642.792C263.277 641.577 266.032 640.132 268.649 638.471C269.627 637.858 270.932 638.132 271.563 639.082C271.779 639.408 271.896 639.787 271.899 640.175ZM254.156 647.7C254.157 648.636 253.498 649.451 252.561 649.673C249.296 650.46 245.972 650.989 242.619 651.255C241.46 651.345 240.445 650.505 240.352 649.38C240.259 648.254 241.124 647.268 242.283 647.178C245.398 646.935 248.487 646.444 251.52 645.711C252.637 645.449 253.762 646.112 254.039 647.195C254.099 647.358 254.139 647.527 254.156 647.7ZM234.844 649.225L234.844 649.412C234.755 650.53 233.75 651.367 232.598 651.28C232.594 651.28 232.589 651.28 232.585 651.279C229.238 651.022 225.919 650.498 222.66 649.714C221.533 649.441 220.847 648.334 221.127 647.239C221.408 646.145 222.549 645.479 223.676 645.751C226.708 646.486 229.797 646.977 232.912 647.219C233.996 647.299 234.838 648.169 234.852 649.225L234.844 649.225ZM216.06 644.683C216.052 645.814 215.103 646.724 213.939 646.716C213.657 646.715 213.38 646.658 213.121 646.55C210.036 645.249 207.07 643.697 204.254 641.911C203.267 641.321 202.959 640.066 203.567 639.107C204.175 638.148 205.468 637.85 206.455 638.44C206.489 638.46 206.522 638.481 206.555 638.503C209.172 640.159 211.927 641.599 214.792 642.808C215.565 643.13 216.066 643.867 216.068 644.683L216.06 644.683ZM199.854 634.394C199.851 635.524 198.905 636.438 197.741 636.435C197.214 636.434 196.707 636.241 196.319 635.894C193.872 633.662 191.625 631.232 189.602 628.63C188.906 627.729 189.094 626.452 190.022 625.776C190.949 625.101 192.265 625.283 192.961 626.184C194.839 628.605 196.935 630.858 199.225 632.918C199.634 633.306 199.864 633.839 199.863 634.394L199.854 634.394ZM188.208 619.392C188.217 620.518 187.285 621.438 186.126 621.447C185.322 621.453 184.585 621.013 184.228 620.314C182.71 617.389 181.473 614.335 180.533 611.19C180.174 610.12 180.776 608.969 181.878 608.62C182.98 608.271 184.165 608.856 184.525 609.926C184.539 609.969 184.552 610.013 184.564 610.057C185.438 612.959 186.582 615.778 187.981 618.479C188.132 618.762 188.212 619.074 188.216 619.392L188.208 619.392Z" fill="white"/>
<path d="M182.825 601.309C182.879 602.434 181.982 603.389 180.823 603.441C179.663 603.493 178.68 602.622 178.627 601.496C178.459 599.817 178.375 598.105 178.375 596.417C178.375 595.291 179.315 594.379 180.474 594.379C181.634 594.379 182.573 595.291 182.573 596.417C182.573 597.982 182.649 599.556 182.8 601.113L182.825 601.309Z" fill="white"/>
<path d="M296.778 596.417C296.778 597.543 295.838 598.455 294.679 598.455C293.519 598.455 292.58 597.543 292.58 596.417C292.58 568.321 267.91 545.46 237.581 545.46C207.251 545.46 182.582 568.289 182.582 596.417C182.582 597.543 181.642 598.455 180.482 598.455C179.323 598.455 178.383 597.543 178.383 596.417C178.383 566.071 204.942 541.383 237.581 541.383C270.219 541.383 296.778 566.071 296.778 596.417Z" fill="white"/>
<path d="M239.68 766.817L239.68 783.124C239.68 784.249 238.74 785.162 237.581 785.162C236.422 785.162 235.482 784.249 235.482 783.124L235.482 767.543L212.659 740.385C211.927 739.511 212.062 738.226 212.962 737.515C213.861 736.804 215.185 736.935 215.917 737.809L239.21 765.529C239.514 765.894 239.68 766.349 239.68 766.817Z" fill="#4D4D4D"/>
<path d="M266.726 739.097C266.727 739.619 266.519 740.122 266.147 740.499L239.101 768.22C238.261 768.996 236.932 768.965 236.133 768.15C235.389 767.391 235.358 766.209 236.061 765.415L263.107 737.694C263.907 736.879 265.236 736.848 266.075 737.625C266.49 738.009 266.725 738.54 266.726 739.097Z" fill="#4D4D4D"/>
<path d="M274.107 739.097C274.107 740.222 273.167 741.135 272.008 741.135L203.994 741.135C202.834 741.135 201.895 740.222 201.895 739.097C201.895 737.971 202.834 737.059 203.994 737.059L272.008 737.059C273.167 737.059 274.107 737.971 274.107 739.097Z" fill="#4D4D4D"/>
<path d="M269.908 777.417L269.908 790.462C269.904 795.638 265.583 799.833 260.252 799.838L213.23 799.838C207.899 799.833 203.578 795.638 203.574 790.462L203.574 777.417C203.578 772.24 207.899 768.045 213.23 768.04L260.252 768.04C265.583 768.045 269.904 772.24 269.908 777.417ZM207.772 790.462C207.777 793.387 210.218 795.757 213.23 795.761L260.252 795.761C263.264 795.757 265.705 793.387 265.71 790.462L265.71 777.417C265.705 774.492 263.264 772.121 260.252 772.117L213.23 772.117C210.218 772.121 207.777 774.492 207.772 777.417L207.772 790.462Z" fill="#4D4D4D"/>
<path d="M405.097 55.8638L405.097 105.19C405.097 195.247 329.909 268.253 237.161 268.253C144.561 268.253 69.2251 195.103 69.2251 105.19L69.2251 55.8638C69.2251 54.7381 70.1649 53.8255 71.3243 53.8255C72.4837 53.8255 73.4235 54.7381 73.4235 55.8638L73.4235 105.19C73.4235 192.853 146.879 264.176 237.161 264.176C327.591 264.176 400.898 192.996 400.898 105.19L400.898 55.8638C400.898 54.7381 401.838 53.8255 402.997 53.8255C404.157 53.8255 405.097 54.7381 405.097 55.8638Z" fill="white"/>
<path d="M296.778 55.8638L296.778 214.85C296.778 215.976 295.838 216.888 294.679 216.888L180.482 216.888C179.323 216.888 178.383 215.976 178.383 214.85L178.383 55.8638C178.383 54.7381 179.323 53.8256 180.482 53.8256C181.642 53.8256 182.582 54.7381 182.582 55.8638L182.582 212.812L292.58 212.812L292.58 55.8638C292.58 54.7381 293.519 53.8256 294.679 53.8256C295.838 53.8256 296.778 54.7381 296.778 55.8638Z" fill="white"/>
<path d="M296.778 213.219C296.778 214.345 295.838 215.258 294.679 215.258C293.52 215.258 292.58 214.345 292.58 213.219C292.58 211.654 292.504 210.08 292.353 208.523C292.244 207.397 293.096 206.399 294.255 206.293C295.414 206.187 296.443 207.014 296.552 208.14C296.694 209.819 296.778 211.523 296.778 213.219Z" fill="white"/>
<path d="M294.721 199.066C294.717 200.191 293.773 201.1 292.614 201.096C291.684 201.092 290.867 200.495 290.607 199.628C289.738 196.725 288.597 193.906 287.198 191.206C286.676 190.2 287.093 188.973 288.13 188.466C289.166 187.96 290.429 188.365 290.951 189.371C292.477 192.296 293.725 195.35 294.679 198.495C294.721 198.682 294.735 198.874 294.721 199.066ZM286.039 182.237C286.037 183.363 285.096 184.275 283.937 184.273C283.282 184.272 282.665 183.975 282.269 183.469C280.389 181.049 278.296 178.793 276.013 176.726C275.131 175.995 275.026 174.709 275.779 173.852C276.531 172.996 277.856 172.894 278.738 173.625C278.783 173.662 278.827 173.701 278.868 173.742C281.319 175.973 283.567 178.406 285.585 181.015C285.872 181.362 286.032 181.792 286.039 182.237ZM271.899 169.421C271.89 170.551 270.939 171.46 269.775 171.451C269.375 171.448 268.985 171.335 268.649 171.125C266.032 169.464 263.277 168.018 260.412 166.804C259.364 166.322 258.917 165.106 259.413 164.089C259.888 163.115 261.061 162.669 262.091 163.069C265.169 164.374 268.13 165.926 270.941 167.709C271.553 168.091 271.915 168.755 271.899 169.462L271.899 169.421ZM254.156 161.895C254.155 162.063 254.132 162.23 254.089 162.393C253.812 163.475 252.687 164.138 251.57 163.877C248.538 163.143 245.449 162.652 242.334 162.409C241.174 162.319 240.31 161.333 240.402 160.208C240.495 159.082 241.51 158.242 242.669 158.333C246.016 158.6 249.335 159.129 252.594 159.914C253.536 160.153 254.184 160.991 254.156 161.936L254.156 161.895ZM234.844 160.371C234.843 161.433 234.002 162.316 232.912 162.401C229.797 162.643 226.708 163.134 223.676 163.868C222.549 164.141 221.408 163.475 221.127 162.381C220.847 161.286 221.533 160.179 222.66 159.906C225.919 159.122 229.238 158.598 232.585 158.341C233.736 158.247 234.746 159.077 234.843 160.195C234.843 160.199 234.843 160.203 234.844 160.208L234.844 160.371ZM216.06 164.912C216.059 165.726 215.561 166.463 214.792 166.787C211.927 167.996 209.172 169.436 206.555 171.092C205.604 171.736 204.295 171.509 203.632 170.585C202.97 169.662 203.203 168.391 204.155 167.748C204.187 167.726 204.22 167.704 204.254 167.684C207.07 165.898 210.036 164.346 213.121 163.045C214.191 162.599 215.43 163.08 215.889 164.118C216 164.369 216.058 164.639 216.06 164.912ZM199.854 175.201C199.854 175.768 199.61 176.308 199.182 176.693C196.893 178.753 194.797 181.007 192.918 183.428C192.223 184.328 190.907 184.511 189.98 183.836C189.052 183.16 188.864 181.883 189.56 180.982C191.581 178.381 193.828 175.953 196.277 173.726C197.123 172.956 198.451 172.997 199.244 173.818C199.61 174.197 199.814 174.698 199.812 175.218L199.854 175.201ZM188.208 190.203C188.207 190.521 188.129 190.833 187.981 191.116C186.582 193.817 185.438 196.636 184.564 199.539C184.279 200.63 183.137 201.29 182.013 201.013C180.889 200.736 180.209 199.627 180.494 198.536C180.506 198.492 180.519 198.448 180.533 198.405C181.473 195.26 182.71 192.206 184.228 189.282C184.743 188.273 186.002 187.861 187.041 188.36C187.761 188.707 188.214 189.423 188.208 190.203Z" fill="white"/>
<path d="M182.825 208.327L182.825 208.523C182.674 210.08 182.599 211.654 182.599 213.219C182.599 214.345 181.659 215.258 180.5 215.258C179.34 215.258 178.4 214.345 178.4 213.219C178.4 211.523 178.484 209.819 178.652 208.14C178.706 207.014 179.689 206.144 180.848 206.195C182.007 206.247 182.904 207.202 182.851 208.327L182.825 208.327Z" fill="white"/>
<path d="M296.778 213.219C296.778 243.565 270.219 268.253 237.581 268.253C204.942 268.253 178.383 243.565 178.383 213.219C178.383 212.094 179.323 211.181 180.482 211.181C181.642 211.181 182.582 212.094 182.582 213.219C182.582 241.315 207.251 264.176 237.581 264.176C267.91 264.176 292.58 241.348 292.58 213.219C292.58 212.094 293.519 211.181 294.679 211.181C295.838 211.181 296.778 212.094 296.778 213.219Z" fill="white"/>
<path d="M239.68 27.3279L239.68 42.8188C239.68 43.2877 239.514 43.7423 239.21 44.107L215.917 71.8277C215.185 72.7012 213.861 72.8326 212.962 72.1212C212.062 71.4098 211.927 70.1248 212.659 69.2513L235.482 42.0932L235.482 27.3279C235.482 26.2021 236.422 25.2895 237.581 25.2895C238.74 25.2895 239.68 26.2021 239.68 27.3279Z" fill="#4D4D4D"/>
<path d="M266.726 70.5395C266.724 71.6652 265.782 72.5761 264.623 72.5741C264.05 72.5731 263.502 72.3446 263.107 71.9418L236.061 44.2211C235.222 43.4447 235.189 42.1546 235.989 41.3394C236.788 40.5243 238.117 40.4928 238.957 41.2693C239.007 41.316 239.055 41.3651 239.101 41.4164L266.147 69.1371C266.519 69.5143 266.727 70.0169 266.726 70.5395Z" fill="#4D4D4D"/>
<path d="M274.107 70.5395C274.107 71.6652 273.167 72.5778 272.008 72.5778L203.994 72.5778C202.834 72.5778 201.895 71.6652 201.895 70.5395C201.895 69.4137 202.834 68.5012 203.994 68.5012L272.008 68.5012C273.167 68.5012 274.107 69.4137 274.107 70.5395Z" fill="#4D4D4D"/>
<path d="M269.908 19.1747L269.908 32.2197C269.904 37.3961 265.583 41.5913 260.252 41.5958L213.23 41.5958C207.899 41.5913 203.578 37.3961 203.574 32.2197L203.574 19.1747C203.578 13.9982 207.899 9.80302 213.23 9.79859L260.252 9.79859C265.583 9.80302 269.904 13.9982 269.908 19.1747ZM207.772 32.2197C207.777 35.1447 210.218 37.5148 213.23 37.5192L260.252 37.5192C263.264 37.5148 265.705 35.1447 265.71 32.2197L265.71 19.1747C265.705 16.2497 263.264 13.8796 260.252 13.8751L213.23 13.8751C210.218 13.8796 207.777 16.2497 207.772 19.1747L207.772 32.2197Z" fill="#4D4D4D"/>
<path d="M254.794 93.7759C254.794 102.782 247.275 110.082 238.001 110.082C228.726 110.082 221.207 102.782 221.207 93.7759C221.207 84.7702 228.726 77.4696 238.001 77.4696C247.275 77.4696 254.794 84.7702 254.794 93.7759ZM225.405 93.7759C225.405 100.53 231.044 106.006 238.001 106.006C244.957 106.006 250.596 100.53 250.596 93.7759C250.596 87.0216 244.957 81.5462 238.001 81.5462C231.044 81.5462 225.405 87.0216 225.405 93.7759Z" fill="white"/>
<path d="M458.837 404.003C458.837 405.129 457.897 406.041 456.737 406.041L18.4249 406.041C17.2655 406.041 16.3257 405.129 16.3257 404.003C16.3257 402.877 17.2655 401.965 18.4249 401.965L456.737 401.965C457.897 401.965 458.837 402.877 458.837 404.003Z" fill="white"/>
<path d="M296.778 403.595C296.778 435.565 270.087 461.482 237.161 461.482C204.235 461.482 177.544 435.565 177.544 403.595C177.544 371.625 204.235 345.708 237.161 345.708C270.071 345.744 296.741 371.64 296.778 403.595ZM181.742 403.595C181.742 433.314 206.554 457.406 237.161 457.406C267.768 457.406 292.58 433.314 292.58 403.595C292.58 373.876 267.768 349.784 237.161 349.784C206.57 349.82 181.779 373.891 181.742 403.595Z" fill="white"/>
<path d="M474.79 519.777C474.79 520.903 473.85 521.816 472.691 521.816L440.783 521.816C439.624 521.816 438.684 520.903 438.684 519.777C438.684 518.652 439.624 517.739 440.783 517.739L472.691 517.739C473.85 517.739 474.79 518.652 474.79 519.777Z" fill="white"/>
<path d="M474.79 291.49C474.79 292.615 473.85 293.528 472.691 293.528L440.783 293.528C439.624 293.528 438.684 292.615 438.684 291.49C438.684 290.364 439.624 289.451 440.783 289.451L472.691 289.451C473.85 289.451 474.79 290.364 474.79 291.49Z" fill="white"/>
<path d="M36.4778 519.777C36.4778 520.903 35.5379 521.816 34.3786 521.816L2.47078 521.816C1.31143 521.816 0.371582 520.903 0.371582 519.777C0.371582 518.652 1.31143 517.739 2.47078 517.739L34.3786 517.739C35.5379 517.739 36.4778 518.652 36.4778 519.777Z" fill="white"/>
<path d="M36.4778 291.49C36.4778 292.615 35.5379 293.528 34.3786 293.528L2.47078 293.528C1.31143 293.528 0.371582 292.615 0.371582 291.49C0.371582 290.364 1.31143 289.451 2.47078 289.451L34.3786 289.451C35.5379 289.451 36.4778 290.364 36.4778 291.49Z" fill="white"/>
</g>
<defs>
<clipPath id="clip0_4287_3673">
<rect width="809" height="476" fill="white" transform="translate(0 809) rotate(-90)"/>
</clipPath>
</defs>
</svg>
