<svg width="274" height="464" viewBox="0 0 274 464" fill="none" xmlns="http://www.w3.org/2000/svg">
<g clip-path="url(#clip0_6153_64293)">
<path d="M10.6055 36.3467L10.6055 437.098L262.911 437.098L262.911 36.3467L10.6055 36.3467Z" fill="#DAAC71"/>
<path d="M103.891 345.444L103.891 437.098L169.626 437.098L169.626 345.444L103.891 345.444Z" fill="#A35C26"/>
<path d="M103.891 36.3466L103.891 127.533L169.626 127.533L169.626 36.3466L103.891 36.3466Z" fill="#A35C26"/>
<path d="M137.967 44.7643L137.967 49.9081C137.967 50.5537 137.426 51.0771 136.759 51.0771C136.091 51.0771 135.55 50.5537 135.55 49.9081L135.55 44.7643C135.55 44.1186 136.091 43.5952 136.759 43.5952C137.426 43.5952 137.967 44.1186 137.967 44.7643Z" fill="white"/>
<path d="M137.967 423.069L137.967 428.213C137.967 428.859 137.426 429.382 136.759 429.382C136.091 429.382 135.55 428.859 135.55 428.213L135.55 423.069C135.55 422.424 136.091 421.9 136.759 421.9C137.426 421.9 137.967 422.424 137.967 423.069Z" fill="white"/>
<path d="M146.667 414.886C146.667 420.052 142.339 424.239 137 424.239C131.662 424.239 127.333 420.052 127.333 414.886C127.333 409.721 131.662 405.534 137 405.534C142.339 405.534 146.667 409.721 146.667 414.886ZM129.75 414.886C129.75 418.76 132.996 421.901 137 421.901C141.005 421.901 144.251 418.76 144.251 414.886C144.251 411.012 141.005 407.872 137 407.872C132.996 407.872 129.75 411.012 129.75 414.886Z" fill="white"/>
<path d="M264.12 36.3471L264.12 437.099C264.12 437.744 263.579 438.268 262.912 438.268L10.6058 438.268C9.93846 438.268 9.39746 437.744 9.39746 437.099L9.39747 36.3471C9.39747 35.7014 9.93847 35.178 10.6058 35.178L262.912 35.178C263.579 35.178 264.12 35.7014 264.12 36.3471ZM261.703 435.929L261.703 37.5161L11.8142 37.5161L11.8142 435.929L261.703 435.929Z" fill="white"/>
<path d="M233.186 408.34L233.186 437.099C233.186 437.744 232.645 438.268 231.978 438.268C231.31 438.268 230.769 437.744 230.769 437.099L230.769 408.34C230.769 357.979 188.571 317.154 136.517 317.154C84.5479 317.154 42.2649 358.061 42.2649 408.34L42.2649 437.099C42.2649 437.744 41.7239 438.268 41.0565 438.268C40.3891 438.268 39.8481 437.744 39.8481 437.099L39.8481 408.34C39.8481 356.771 83.2138 314.816 136.517 314.816C189.906 314.816 233.186 356.688 233.186 408.34Z" fill="white"/>
<path d="M170.835 345.445L170.835 437.099C170.835 437.744 170.294 438.268 169.626 438.268C168.959 438.268 168.418 437.744 168.418 437.099L168.418 346.614L105.1 346.614L105.1 437.099C105.1 437.744 104.559 438.268 103.891 438.268C103.224 438.268 102.683 437.744 102.683 437.099L102.683 345.445C102.683 344.799 103.224 344.276 103.891 344.276L169.626 344.276C170.294 344.276 170.835 344.799 170.835 345.445Z" fill="white"/>
<path d="M170.835 346.38C170.835 347.348 170.786 348.33 170.69 349.293C170.627 349.939 170.035 350.413 169.368 350.352C168.7 350.292 168.21 349.719 168.273 349.073C168.36 348.18 168.404 347.278 168.404 346.38C168.404 345.734 168.944 345.211 169.612 345.211C170.279 345.211 170.82 345.734 170.82 346.38L170.835 346.38Z" fill="white"/>
<path d="M169.65 354.498C169.65 354.608 169.634 354.719 169.602 354.825C169.06 356.628 168.35 358.379 167.48 360.058C167.18 360.635 166.453 360.867 165.856 360.577C165.259 360.286 165.019 359.583 165.32 359.006C166.125 357.457 166.782 355.84 167.282 354.175C167.469 353.555 168.14 353.199 168.78 353.38C169.294 353.525 169.648 353.98 169.65 354.498ZM164.653 364.126C164.654 364.379 164.569 364.626 164.411 364.827C163.249 366.323 161.955 367.719 160.544 368.999C160.075 369.458 159.31 369.461 158.835 369.007C158.361 368.553 158.357 367.813 158.826 367.354C158.85 367.331 158.875 367.308 158.901 367.287C160.215 366.102 161.42 364.808 162.502 363.42C162.906 362.906 163.664 362.806 164.195 363.197C164.495 363.418 164.671 363.761 164.672 364.126L164.653 364.126ZM156.513 371.477C156.514 371.874 156.307 372.244 155.962 372.459C154.343 373.482 152.639 374.372 150.868 375.12C150.264 375.396 149.544 375.147 149.258 374.564C148.972 373.98 149.23 373.283 149.833 373.007C149.855 372.997 149.878 372.987 149.901 372.978C151.55 372.281 153.136 371.452 154.642 370.5C155.206 370.148 155.956 370.305 156.319 370.85C156.444 371.037 156.511 371.255 156.513 371.477ZM146.3 375.793C146.3 376.33 145.921 376.798 145.382 376.925C143.502 377.376 141.588 377.679 139.659 377.832C138.991 377.884 138.407 377.402 138.354 376.756C138.3 376.111 138.798 375.546 139.465 375.494C141.258 375.355 143.037 375.073 144.782 374.652C145.425 374.502 146.073 374.882 146.232 375.503C146.267 375.597 146.29 375.694 146.3 375.793ZM135.183 376.668L135.183 376.775C135.132 377.416 134.553 377.896 133.89 377.847C133.888 377.846 133.885 377.846 133.883 377.846C131.956 377.698 130.045 377.398 128.17 376.948C127.521 376.792 127.126 376.157 127.288 375.529C127.449 374.901 128.106 374.519 128.754 374.676C130.5 375.097 132.278 375.378 134.071 375.517C134.695 375.563 135.18 376.062 135.188 376.668L135.183 376.668ZM124.371 374.063C124.366 374.711 123.819 375.233 123.149 375.229C122.988 375.228 122.828 375.196 122.679 375.134C120.903 374.388 119.196 373.497 117.575 372.473C117.006 372.135 116.829 371.414 117.179 370.865C117.529 370.315 118.273 370.144 118.842 370.482C118.861 370.494 118.88 370.506 118.899 370.518C120.406 371.468 121.992 372.294 123.641 372.987C124.085 373.172 124.374 373.595 124.375 374.063L124.371 374.063ZM115.042 368.162C115.04 368.81 114.496 369.334 113.826 369.332C113.522 369.331 113.23 369.221 113.007 369.022C111.599 367.742 110.305 366.348 109.14 364.855C108.74 364.339 108.848 363.606 109.382 363.219C109.916 362.831 110.673 362.936 111.074 363.453C112.155 364.841 113.362 366.134 114.68 367.315C114.915 367.538 115.048 367.843 115.047 368.162L115.042 368.162ZM108.338 359.557C108.343 360.203 107.807 360.731 107.139 360.736C106.677 360.739 106.252 360.487 106.047 360.086C105.173 358.408 104.461 356.657 103.92 354.853C103.713 354.239 104.06 353.579 104.694 353.379C105.329 353.179 106.011 353.514 106.218 354.128C106.226 354.153 106.234 354.178 106.24 354.203C106.743 355.868 107.402 357.484 108.208 359.034C108.294 359.196 108.341 359.375 108.343 359.557L108.338 359.557Z" fill="white"/>
<path d="M105.24 349.186C105.271 349.831 104.755 350.379 104.087 350.408C103.42 350.438 102.854 349.939 102.823 349.293C102.727 348.33 102.678 347.348 102.678 346.38C102.678 345.734 103.219 345.211 103.887 345.211C104.554 345.211 105.095 345.734 105.095 346.38C105.095 347.278 105.138 348.18 105.225 349.073L105.24 349.186Z" fill="white"/>
<path d="M170.835 346.38C170.835 347.025 170.294 347.549 169.626 347.549C168.959 347.549 168.418 347.025 168.418 346.38C168.418 330.266 154.217 317.153 136.759 317.153C119.3 317.153 105.1 330.247 105.1 346.38C105.1 347.025 104.559 347.549 103.891 347.549C103.224 347.549 102.683 347.025 102.683 346.38C102.683 328.975 117.971 314.815 136.759 314.815C155.546 314.815 170.835 328.975 170.835 346.38Z" fill="white"/>
<path d="M137.967 444.113L137.967 453.465C137.967 454.111 137.426 454.634 136.759 454.634C136.092 454.634 135.551 454.111 135.551 453.465L135.551 444.529L122.413 428.953C121.992 428.451 122.069 427.715 122.587 427.306C123.105 426.898 123.867 426.974 124.289 427.475L137.697 443.374C137.871 443.583 137.967 443.844 137.967 444.113Z" fill="#4D4D4D"/>
<path d="M153.536 428.213C153.536 428.513 153.416 428.801 153.202 429.018L137.634 444.917C137.15 445.362 136.385 445.344 135.925 444.876C135.497 444.442 135.479 443.764 135.884 443.308L151.452 427.409C151.913 426.942 152.678 426.924 153.161 427.369C153.4 427.589 153.535 427.894 153.536 428.213Z" fill="#4D4D4D"/>
<path d="M157.784 428.213C157.784 428.859 157.243 429.382 156.576 429.382L117.425 429.382C116.758 429.382 116.217 428.859 116.217 428.213C116.217 427.568 116.758 427.044 117.425 427.044L156.576 427.044C157.243 427.044 157.784 427.568 157.784 428.213Z" fill="#4D4D4D"/>
<path d="M155.367 450.192L155.367 457.674C155.365 460.643 152.878 463.049 149.809 463.051L122.742 463.051C119.673 463.049 117.186 460.643 117.183 457.674L117.183 450.192C117.186 447.223 119.673 444.817 122.742 444.814L149.809 444.814C152.878 444.817 155.365 447.223 155.367 450.192ZM119.6 457.674C119.602 459.351 121.008 460.711 122.742 460.713L149.809 460.713C151.543 460.711 152.948 459.351 152.951 457.674L152.951 450.192C152.948 448.514 151.543 447.155 149.809 447.152L122.742 447.152C121.008 447.155 119.602 448.514 119.6 450.192L119.6 457.674Z" fill="#4D4D4D"/>
<path d="M233.186 36.3468L233.186 64.6378C233.186 116.29 189.906 158.162 136.517 158.162C83.2138 158.162 39.8481 116.207 39.8481 64.6378L39.8481 36.3468C39.8481 35.7011 40.3892 35.1777 41.0565 35.1777C41.7239 35.1777 42.2649 35.7011 42.2649 36.3468L42.2649 64.6378C42.2649 114.916 84.5479 155.824 136.517 155.824C188.571 155.824 230.769 114.999 230.769 64.6378L230.769 36.3468C230.769 35.7011 231.31 35.1777 231.978 35.1777C232.645 35.1777 233.186 35.7011 233.186 36.3468Z" fill="white"/>
<path d="M170.835 36.347L170.835 127.533C170.835 128.179 170.294 128.702 169.626 128.702L103.891 128.702C103.224 128.702 102.683 128.179 102.683 127.533L102.683 36.347C102.683 35.7013 103.224 35.1779 103.891 35.1779C104.559 35.1779 105.1 35.7013 105.1 36.347L105.1 126.364L168.418 126.364L168.418 36.347C168.418 35.7013 168.959 35.1779 169.626 35.1779C170.294 35.1779 170.835 35.7013 170.835 36.347Z" fill="white"/>
<path d="M170.834 126.598C170.834 127.243 170.293 127.767 169.626 127.767C168.959 127.767 168.418 127.243 168.418 126.598C168.418 125.7 168.374 124.797 168.287 123.904C168.224 123.258 168.715 122.686 169.382 122.625C170.049 122.564 170.641 123.039 170.704 123.684C170.786 124.648 170.834 125.625 170.834 126.598Z" fill="white"/>
<path d="M169.65 118.48C169.648 119.126 169.104 119.647 168.437 119.645C167.902 119.642 167.432 119.3 167.282 118.803C166.782 117.138 166.125 115.521 165.319 113.972C165.019 113.395 165.259 112.692 165.856 112.401C166.453 112.11 167.18 112.343 167.48 112.92C168.358 114.598 169.077 116.349 169.626 118.153C169.65 118.26 169.658 118.37 169.65 118.48ZM164.652 108.828C164.652 109.474 164.11 109.997 163.443 109.996C163.066 109.995 162.71 109.825 162.482 109.534C161.4 108.147 160.195 106.853 158.881 105.667C158.374 105.248 158.313 104.51 158.747 104.019C159.18 103.528 159.942 103.47 160.45 103.889C160.476 103.91 160.501 103.932 160.525 103.956C161.936 105.235 163.23 106.631 164.391 108.127C164.557 108.326 164.648 108.573 164.652 108.828ZM156.513 101.477C156.508 102.126 155.96 102.647 155.29 102.642C155.06 102.64 154.836 102.575 154.642 102.455C153.136 101.502 151.55 100.673 149.901 99.9763C149.298 99.7 149.04 99.0029 149.326 98.4194C149.599 97.861 150.275 97.6048 150.867 97.8346C152.639 98.5828 154.343 99.4727 155.962 100.495C156.314 100.715 156.523 101.096 156.513 101.501L156.513 101.477ZM146.3 97.1612C146.299 97.2575 146.286 97.3533 146.261 97.4465C146.102 98.0674 145.454 98.4475 144.811 98.2976C143.066 97.8767 141.287 97.5952 139.494 97.4559C138.827 97.4042 138.329 96.8389 138.383 96.1933C138.436 95.5476 139.02 95.0661 139.688 95.1177C141.614 95.271 143.525 95.5744 145.401 96.0249C145.943 96.1619 146.316 96.6427 146.3 97.1846L146.3 97.1612ZM135.183 96.2868C135.182 96.8958 134.699 97.4025 134.071 97.4512C132.278 97.5901 130.5 97.8716 128.754 98.2929C128.106 98.4491 127.449 98.0671 127.287 97.4395C127.126 96.8119 127.521 96.1765 128.17 96.0202C130.045 95.5705 131.956 95.2702 133.883 95.1224C134.545 95.0689 135.127 95.545 135.182 96.1858C135.183 96.1883 135.183 96.1908 135.183 96.1933L135.183 96.2868ZM124.371 98.8915C124.37 99.3585 124.083 99.7809 123.641 99.967C121.992 100.66 120.406 101.486 118.899 102.436C118.352 102.805 117.598 102.675 117.217 102.145C116.835 101.616 116.97 100.887 117.517 100.518C117.536 100.505 117.555 100.493 117.575 100.481C119.196 99.4569 120.903 98.5668 122.679 97.8206C123.295 97.5649 124.008 97.8405 124.272 98.4362C124.336 98.5801 124.369 98.7349 124.371 98.8915ZM115.042 104.793C115.042 105.118 114.901 105.428 114.655 105.649C113.337 106.83 112.131 108.123 111.05 109.511C110.649 110.028 109.892 110.132 109.358 109.745C108.824 109.358 108.716 108.625 109.116 108.108C110.28 106.616 111.573 105.224 112.983 103.946C113.47 103.505 114.234 103.529 114.691 104C114.902 104.217 115.019 104.504 115.018 104.802L115.042 104.793ZM108.338 113.397C108.337 113.579 108.293 113.758 108.207 113.921C107.402 115.47 106.743 117.087 106.24 118.751C106.076 119.377 105.419 119.756 104.772 119.597C104.125 119.438 103.734 118.802 103.898 118.176C103.904 118.151 103.912 118.126 103.92 118.101C104.461 116.298 105.173 114.546 106.047 112.869C106.343 112.29 107.068 112.054 107.666 112.34C108.081 112.539 108.342 112.949 108.338 113.397Z" fill="white"/>
<path d="M105.24 123.792L105.24 123.904C105.153 124.797 105.109 125.7 105.109 126.598C105.109 127.243 104.568 127.767 103.901 127.767C103.233 127.767 102.692 127.243 102.692 126.598C102.692 125.625 102.741 124.648 102.837 123.684C102.868 123.039 103.434 122.539 104.101 122.569C104.769 122.599 105.285 123.146 105.254 123.792L105.24 123.792Z" fill="white"/>
<path d="M170.835 126.598C170.835 144.003 155.546 158.162 136.759 158.162C117.971 158.162 102.683 144.003 102.683 126.598C102.683 125.952 103.224 125.429 103.891 125.429C104.559 125.429 105.1 125.952 105.1 126.598C105.1 142.712 119.301 155.824 136.759 155.824C154.217 155.824 168.418 142.731 168.418 126.598C168.418 125.952 168.959 125.429 169.626 125.429C170.294 125.429 170.835 125.952 170.835 126.598Z" fill="white"/>
<path d="M137.967 19.9801L137.967 28.8649C137.967 29.1339 137.871 29.3946 137.697 29.6038L124.289 45.5029C123.867 46.0039 123.105 46.0793 122.587 45.6713C122.069 45.2632 121.992 44.5262 122.413 44.0252L135.551 28.4488L135.551 19.9801C135.551 19.3345 136.092 18.8111 136.759 18.8111C137.426 18.8111 137.967 19.3345 137.967 19.9801Z" fill="#4D4D4D"/>
<path d="M153.536 44.7642C153.534 45.4099 152.992 45.9323 152.325 45.9312C151.995 45.9306 151.68 45.7995 151.452 45.5685L135.884 29.6694C135.401 29.2241 135.382 28.4841 135.842 28.0166C136.302 27.5491 137.067 27.531 137.551 27.9764C137.58 28.0031 137.607 28.0313 137.633 28.0608L153.202 43.9599C153.416 44.1762 153.536 44.4645 153.536 44.7642Z" fill="#4D4D4D"/>
<path d="M157.784 44.7641C157.784 45.4097 157.243 45.9331 156.576 45.9331L117.425 45.9331C116.758 45.9331 116.217 45.4097 116.217 44.7641C116.217 44.1184 116.758 43.595 117.425 43.595L156.576 43.595C157.243 43.595 157.784 44.1184 157.784 44.7641Z" fill="#4D4D4D"/>
<path d="M155.367 15.304L155.367 22.7859C155.365 25.7549 152.878 28.161 149.809 28.1636L122.742 28.1636C119.673 28.161 117.186 25.7549 117.183 22.7859L117.183 15.304C117.186 12.335 119.673 9.92889 122.742 9.92635L149.809 9.92635C152.878 9.92889 155.365 12.335 155.367 15.304ZM119.6 22.7859C119.602 24.4635 121.008 25.8229 122.742 25.8255L149.809 25.8255C151.543 25.8229 152.948 24.4635 152.951 22.7859L152.951 15.304C152.948 13.6264 151.543 12.267 149.809 12.2644L122.742 12.2644C121.008 12.267 119.602 13.6264 119.6 15.304L119.6 22.7859Z" fill="#4D4D4D"/>
<path d="M146.667 58.0914C146.667 63.2566 142.339 67.4438 137 67.4438C131.662 67.4438 127.333 63.2566 127.333 58.0914C127.333 52.9262 131.662 48.739 137 48.739C142.339 48.739 146.667 52.9262 146.667 58.0914ZM129.75 58.0914C129.75 61.9654 132.996 65.1058 137 65.1058C141.005 65.1058 144.251 61.9654 144.251 58.0914C144.251 54.2175 141.005 51.0771 137 51.0771C132.996 51.0771 129.75 54.2175 129.75 58.0914Z" fill="white"/>
<path d="M264.12 236.021C264.12 236.667 263.579 237.19 262.912 237.19L10.6058 237.19C9.93846 237.19 9.39746 236.667 9.39746 236.021C9.39746 235.376 9.93846 234.852 10.6058 234.852L262.912 234.852C263.579 234.852 264.12 235.376 264.12 236.021Z" fill="white"/>
<path d="M170.835 235.787C170.835 254.124 155.47 268.988 136.517 268.988C117.564 268.988 102.2 254.124 102.2 235.787C102.2 217.451 117.564 202.586 136.517 202.586C155.461 202.607 170.813 217.459 170.835 235.787ZM104.616 235.787C104.616 252.832 118.899 266.65 136.517 266.65C154.135 266.65 168.418 252.832 168.418 235.787C168.418 218.742 154.135 204.924 136.517 204.924C118.908 204.945 104.638 218.751 104.616 235.787Z" fill="white"/>
<path d="M273.304 302.423C273.304 303.069 272.763 303.592 272.095 303.592L253.728 303.592C253.061 303.592 252.52 303.069 252.52 302.423C252.52 301.778 253.061 301.254 253.728 301.254L272.095 301.254C272.763 301.254 273.304 301.778 273.304 302.423Z" fill="white"/>
<path d="M273.304 171.49C273.304 172.135 272.763 172.659 272.095 172.659L253.728 172.659C253.061 172.659 252.52 172.135 252.52 171.49C252.52 170.844 253.061 170.321 253.728 170.321L272.095 170.321C272.763 170.321 273.304 170.844 273.304 171.49Z" fill="white"/>
<path d="M20.9977 302.423C20.9977 303.069 20.4567 303.592 19.7893 303.592L1.42223 303.592C0.75487 303.592 0.213867 303.069 0.213867 302.423C0.213867 301.778 0.75487 301.254 1.42223 301.254L19.7893 301.254C20.4567 301.254 20.9977 301.778 20.9977 302.423Z" fill="white"/>
<path d="M20.9977 171.49C20.9977 172.135 20.4567 172.659 19.7893 172.659L1.42223 172.659C0.75487 172.659 0.213867 172.135 0.213867 171.49C0.213867 170.844 0.75487 170.321 1.42223 170.321L19.7893 170.321C20.4567 170.321 20.9977 170.844 20.9977 171.49Z" fill="white"/>
</g>
<defs>
<clipPath id="clip0_6153_64293">
<rect width="464" height="274" fill="white" transform="translate(0 464) rotate(-90)"/>
</clipPath>
</defs>
</svg>
