<svg width="291" height="493" viewBox="0 0 291 493" fill="none" xmlns="http://www.w3.org/2000/svg">
<g clip-path="url(#clip0_4312_4751)">
<path d="M11.2637 38.6184L11.2637 464.417L279.224 464.417L279.224 38.6184L11.2637 38.6184Z" fill="#DAAC71"/>
<path d="M110.337 367.035L110.337 464.417L180.15 464.417L180.15 367.035L110.337 367.035Z" fill="#A35C26"/>
<path d="M110.337 38.6184L110.337 135.504L180.15 135.504L180.15 38.6184L110.337 38.6184Z" fill="#A35C26"/>
<path d="M146.527 47.5618L146.527 53.0272C146.527 53.7132 145.953 54.2693 145.244 54.2693C144.535 54.2693 143.96 53.7132 143.96 53.0272L143.96 47.5618C143.96 46.8758 144.535 46.3197 145.244 46.3197C145.953 46.3197 146.527 46.8758 146.527 47.5618Z" fill="white"/>
<path d="M146.527 449.512L146.527 454.977C146.527 455.663 145.953 456.219 145.244 456.219C144.535 456.219 143.96 455.663 143.96 454.977L143.96 449.512C143.96 448.826 144.535 448.269 145.244 448.269C145.953 448.269 146.527 448.826 146.527 449.512Z" fill="white"/>
<path d="M155.767 440.817C155.767 446.305 151.17 450.754 145.5 450.754C139.83 450.754 135.234 446.305 135.234 440.817C135.234 435.329 139.83 430.88 145.5 430.88C151.17 430.88 155.767 435.329 155.767 440.817ZM137.8 440.817C137.8 444.933 141.248 448.269 145.5 448.269C149.753 448.269 153.2 444.933 153.2 440.817C153.2 436.701 149.753 433.364 145.5 433.364C141.248 433.364 137.8 436.701 137.8 440.817Z" fill="white"/>
<path d="M280.507 38.6184L280.507 464.417C280.507 465.103 279.932 465.659 279.224 465.659L11.2638 465.659C10.555 465.659 9.98047 465.103 9.98047 464.417L9.98047 38.6184C9.98047 37.9324 10.555 37.3763 11.2638 37.3763L279.224 37.3763C279.933 37.3763 280.507 37.9324 280.507 38.6184ZM277.94 463.175L277.94 39.8605L12.5471 39.8605L12.5471 463.175L277.94 463.175Z" fill="white"/>
<path d="M247.654 433.861L247.654 464.417C247.654 465.103 247.079 465.659 246.37 465.659C245.661 465.659 245.087 465.103 245.087 464.417L245.087 433.861C245.087 380.352 200.271 336.975 144.987 336.975C89.7934 336.975 44.887 380.44 44.887 433.861L44.887 464.417C44.887 465.103 44.3124 465.659 43.6036 465.659C42.8949 465.659 42.3203 465.103 42.3203 464.417L42.3203 433.861C42.3203 379.068 88.3766 334.491 144.987 334.491C201.688 334.491 247.654 378.98 247.654 433.861Z" fill="white"/>
<path d="M181.434 367.035L181.434 464.417C181.434 465.103 180.859 465.659 180.15 465.659C179.442 465.659 178.867 465.103 178.867 464.417L178.867 368.277L111.62 368.277L111.62 464.417C111.62 465.103 111.046 465.659 110.337 465.659C109.628 465.659 109.054 465.103 109.054 464.417L109.054 367.035C109.054 366.349 109.628 365.793 110.337 365.793L180.15 365.793C180.859 365.793 181.434 366.349 181.434 367.035Z" fill="white"/>
<path d="M181.434 368.029C181.434 369.057 181.382 370.1 181.28 371.124C181.213 371.81 180.584 372.314 179.876 372.249C179.167 372.185 178.646 371.576 178.713 370.89C178.805 369.941 178.852 368.983 178.852 368.029C178.852 367.343 179.426 366.786 180.135 366.786C180.844 366.786 181.418 367.343 181.418 368.029L181.434 368.029Z" fill="white"/>
<path d="M180.176 376.654C180.176 376.772 180.159 376.889 180.125 377.002C179.549 378.917 178.795 380.778 177.871 382.561C177.552 383.175 176.78 383.422 176.146 383.113C175.513 382.804 175.258 382.057 175.577 381.443C176.432 379.798 177.13 378.08 177.661 376.311C177.859 375.652 178.572 375.274 179.252 375.466C179.798 375.62 180.174 376.104 180.176 376.654ZM174.868 386.884C174.87 387.153 174.779 387.415 174.611 387.629C173.377 389.219 172.003 390.701 170.505 392.061C170.006 392.549 169.194 392.553 168.69 392.07C168.186 391.588 168.182 390.801 168.68 390.314C168.706 390.289 168.732 390.265 168.759 390.243C170.155 388.983 171.435 387.608 172.584 386.134C173.013 385.588 173.818 385.482 174.382 385.897C174.701 386.131 174.888 386.496 174.889 386.884L174.868 386.884ZM166.224 394.694C166.225 395.116 166.004 395.509 165.638 395.738C163.919 396.824 162.11 397.77 160.228 398.565C159.587 398.859 158.822 398.594 158.519 397.974C158.215 397.354 158.488 396.614 159.129 396.32C159.153 396.309 159.177 396.299 159.201 396.289C160.953 395.549 162.637 394.668 164.237 393.656C164.835 393.283 165.632 393.45 166.018 394.028C166.15 394.227 166.222 394.458 166.224 394.694ZM155.377 399.28C155.377 399.851 154.974 400.347 154.401 400.483C152.406 400.962 150.373 401.284 148.324 401.447C147.615 401.501 146.994 400.99 146.938 400.304C146.881 399.618 147.41 399.017 148.118 398.962C150.023 398.814 151.911 398.515 153.765 398.068C154.448 397.909 155.136 398.313 155.305 398.972C155.342 399.072 155.366 399.175 155.377 399.28ZM143.57 400.209L143.57 400.324C143.516 401.005 142.901 401.515 142.198 401.462C142.195 401.462 142.192 401.462 142.189 401.461C140.143 401.304 138.114 400.985 136.122 400.508C135.433 400.342 135.013 399.666 135.185 399C135.356 398.333 136.054 397.927 136.743 398.093C138.597 398.54 140.485 398.84 142.39 398.987C143.052 399.036 143.567 399.566 143.575 400.209L143.57 400.209ZM132.087 397.442C132.082 398.131 131.502 398.685 130.79 398.681C130.618 398.68 130.448 398.645 130.29 398.58C128.404 397.787 126.591 396.841 124.869 395.753C124.266 395.393 124.078 394.628 124.449 394.044C124.821 393.46 125.612 393.278 126.215 393.637C126.236 393.65 126.256 393.662 126.276 393.676C127.876 394.685 129.56 395.562 131.312 396.299C131.784 396.495 132.091 396.945 132.092 397.442L132.087 397.442ZM122.18 391.172C122.178 391.86 121.599 392.417 120.888 392.416C120.566 392.415 120.255 392.297 120.018 392.086C118.522 390.726 117.149 389.245 115.912 387.659C115.487 387.11 115.601 386.332 116.168 385.92C116.735 385.508 117.54 385.62 117.965 386.168C119.113 387.644 120.395 389.017 121.795 390.272C122.045 390.509 122.186 390.833 122.185 391.172L122.18 391.172ZM115.06 382.03C115.065 382.716 114.495 383.276 113.787 383.282C113.295 383.286 112.845 383.017 112.626 382.591C111.699 380.809 110.943 378.948 110.368 377.031C110.148 376.379 110.516 375.678 111.19 375.465C111.864 375.253 112.588 375.609 112.808 376.261C112.817 376.287 112.825 376.314 112.832 376.341C113.366 378.109 114.066 379.827 114.921 381.473C115.013 381.645 115.062 381.836 115.065 382.03L115.06 382.03Z" fill="white"/>
<path d="M111.769 371.009C111.802 371.695 111.254 372.277 110.545 372.309C109.836 372.34 109.235 371.81 109.203 371.124C109.1 370.1 109.049 369.057 109.049 368.028C109.049 367.342 109.623 366.786 110.332 366.786C111.041 366.786 111.615 367.342 111.615 368.028C111.615 368.982 111.661 369.941 111.754 370.89L111.769 371.009Z" fill="white"/>
<path d="M181.434 368.028C181.434 368.714 180.859 369.271 180.15 369.271C179.442 369.271 178.867 368.714 178.867 368.028C178.867 350.907 163.785 336.975 145.244 336.975C126.702 336.975 111.62 350.887 111.62 368.028C111.62 368.714 111.046 369.271 110.337 369.271C109.628 369.271 109.054 368.714 109.054 368.028C109.054 349.536 125.29 334.491 145.244 334.491C165.197 334.491 181.434 349.536 181.434 368.028Z" fill="white"/>
<path d="M146.527 471.87L146.527 481.806C146.527 482.492 145.953 483.049 145.244 483.049C144.535 483.049 143.96 482.492 143.96 481.806L143.96 472.312L130.008 455.762C129.56 455.229 129.643 454.446 130.193 454.013C130.743 453.579 131.552 453.659 132 454.192L146.24 471.084C146.425 471.307 146.527 471.584 146.527 471.87Z" fill="#4D4D4D"/>
<path d="M163.061 454.977C163.062 455.295 162.935 455.602 162.707 455.831L146.173 472.724C145.66 473.197 144.847 473.178 144.358 472.681C143.904 472.219 143.885 471.499 144.315 471.015L160.849 454.122C161.338 453.626 162.15 453.607 162.663 454.08C162.917 454.314 163.061 454.638 163.061 454.977Z" fill="#4D4D4D"/>
<path d="M167.574 454.977C167.574 455.663 166.999 456.219 166.29 456.219L124.71 456.219C124.002 456.219 123.427 455.663 123.427 454.977C123.427 454.291 124.002 453.735 124.71 453.735L166.29 453.735C166.999 453.735 167.574 454.291 167.574 454.977Z" fill="#4D4D4D"/>
<path d="M165.007 478.329L165.007 486.278C165.004 489.433 162.363 491.989 159.104 491.992L130.357 491.992C127.098 491.989 124.456 489.433 124.454 486.278L124.454 478.329C124.456 475.174 127.098 472.618 130.357 472.615L159.104 472.615C162.363 472.618 165.004 475.174 165.007 478.329ZM127.02 486.278C127.023 488.061 128.515 489.505 130.357 489.508L159.104 489.508C160.945 489.505 162.437 488.061 162.44 486.278L162.44 478.329C162.437 476.546 160.945 475.102 159.104 475.099L130.357 475.099C128.515 475.102 127.023 476.546 127.02 478.329L127.02 486.278Z" fill="#4D4D4D"/>
<path d="M247.654 38.6186L247.654 68.6778C247.654 123.558 201.688 168.047 144.987 168.047C88.3766 168.047 42.3203 123.47 42.3203 68.6778L42.3203 38.6186C42.3203 37.9326 42.8949 37.3765 43.6036 37.3765C44.3124 37.3765 44.887 37.9326 44.887 38.6186L44.887 68.6778C44.887 122.099 89.7934 165.563 144.987 165.563C200.271 165.563 245.087 122.186 245.087 68.6778L245.087 38.6186C245.087 37.9326 245.661 37.3765 246.37 37.3765C247.079 37.3765 247.654 37.9326 247.654 38.6186Z" fill="white"/>
<path d="M181.434 38.6186L181.434 135.504C181.434 136.19 180.859 136.746 180.15 136.746L110.337 136.746C109.628 136.746 109.054 136.19 109.054 135.504L109.054 38.6186C109.054 37.9326 109.628 37.3765 110.337 37.3765C111.046 37.3765 111.62 37.9326 111.62 38.6186L111.62 134.262L178.867 134.262L178.867 38.6186C178.867 37.9326 179.442 37.3765 180.15 37.3765C180.859 37.3765 181.434 37.9326 181.434 38.6186Z" fill="white"/>
<path d="M181.434 134.51C181.434 135.196 180.859 135.752 180.15 135.752C179.442 135.752 178.867 135.196 178.867 134.51C178.867 133.556 178.821 132.597 178.728 131.648C178.662 130.962 179.182 130.354 179.891 130.289C180.6 130.225 181.228 130.729 181.295 131.415C181.382 132.438 181.434 133.477 181.434 134.51Z" fill="white"/>
<path d="M180.176 125.885C180.173 126.571 179.596 127.125 178.888 127.122C178.319 127.12 177.82 126.756 177.661 126.228C177.13 124.459 176.432 122.741 175.576 121.095C175.258 120.482 175.513 119.735 176.146 119.426C176.78 119.117 177.552 119.364 177.871 119.977C178.804 121.76 179.567 123.621 180.15 125.537C180.176 125.651 180.185 125.768 180.176 125.885ZM174.868 115.63C174.867 116.316 174.292 116.871 173.583 116.87C173.183 116.87 172.806 116.689 172.563 116.38C171.414 114.906 170.134 113.531 168.739 112.271C168.2 111.826 168.136 111.042 168.596 110.52C169.056 109.998 169.866 109.936 170.405 110.381C170.432 110.404 170.459 110.428 170.484 110.453C171.983 111.812 173.357 113.295 174.591 114.885C174.766 115.096 174.864 115.359 174.868 115.63ZM166.224 107.819C166.218 108.508 165.637 109.062 164.925 109.057C164.681 109.055 164.442 108.986 164.237 108.858C162.637 107.846 160.953 106.965 159.201 106.225C158.561 105.931 158.287 105.19 158.591 104.57C158.881 103.977 159.598 103.705 160.228 103.949C162.11 104.744 163.919 105.69 165.638 106.776C166.012 107.009 166.234 107.414 166.224 107.844L166.224 107.819ZM155.377 103.234C155.376 103.336 155.362 103.438 155.336 103.537C155.166 104.196 154.479 104.6 153.796 104.441C151.942 103.994 150.053 103.695 148.149 103.547C147.44 103.492 146.912 102.891 146.968 102.205C147.025 101.519 147.646 101.007 148.354 101.062C150.4 101.225 152.43 101.548 154.422 102.026C154.998 102.172 155.394 102.683 155.377 103.258L155.377 103.234ZM143.57 102.304C143.57 102.952 143.056 103.49 142.389 103.542C140.485 103.689 138.596 103.988 136.743 104.436C136.054 104.602 135.356 104.196 135.185 103.529C135.013 102.862 135.433 102.187 136.122 102.021C138.114 101.543 140.143 101.224 142.189 101.067C142.893 101.01 143.511 101.516 143.57 102.197C143.57 102.2 143.57 102.202 143.57 102.205L143.57 102.304ZM132.087 105.072C132.086 105.568 131.782 106.017 131.312 106.215C129.56 106.951 127.876 107.829 126.276 108.838C125.694 109.23 124.895 109.092 124.489 108.529C124.084 107.966 124.227 107.192 124.809 106.8C124.828 106.786 124.849 106.774 124.869 106.761C126.591 105.673 128.404 104.727 130.29 103.934C130.944 103.662 131.702 103.955 131.982 104.588C132.05 104.741 132.086 104.906 132.087 105.072ZM122.18 111.342C122.179 111.687 122.03 112.017 121.769 112.251C120.369 113.507 119.088 114.88 117.939 116.355C117.514 116.904 116.71 117.015 116.143 116.604C115.576 116.192 115.461 115.414 115.886 114.865C117.122 113.28 118.496 111.8 119.993 110.443C120.51 109.974 121.322 109.999 121.807 110.499C122.031 110.73 122.155 111.035 122.154 111.352L122.18 111.342ZM115.06 120.484C115.059 120.678 115.011 120.868 114.921 121.041C114.065 122.687 113.366 124.405 112.832 126.173C112.658 126.838 111.959 127.24 111.272 127.072C110.585 126.903 110.17 126.227 110.344 125.562C110.351 125.535 110.359 125.509 110.368 125.482C110.943 123.566 111.699 121.705 112.626 119.923C112.941 119.308 113.711 119.057 114.346 119.361C114.787 119.572 115.064 120.008 115.06 120.484Z" fill="white"/>
<path d="M111.769 131.529L111.769 131.648C111.677 132.597 111.631 133.556 111.631 134.51C111.631 135.196 111.056 135.752 110.347 135.752C109.639 135.752 109.064 135.196 109.064 134.51C109.064 133.477 109.115 132.438 109.218 131.415C109.251 130.729 109.852 130.198 110.56 130.23C111.269 130.261 111.817 130.843 111.785 131.529L111.769 131.529Z" fill="white"/>
<path d="M181.434 134.51C181.434 153.003 165.197 168.047 145.244 168.047C125.29 168.047 109.054 153.003 109.054 134.51C109.054 133.824 109.628 133.268 110.337 133.268C111.046 133.268 111.62 133.824 111.62 134.51C111.62 151.632 126.702 165.563 145.244 165.563C163.785 165.563 178.867 151.651 178.867 134.51C178.867 133.824 179.442 133.268 180.15 133.268C180.859 133.268 181.434 133.824 181.434 134.51Z" fill="white"/>
<path d="M146.527 21.2289L146.527 30.669C146.527 30.9547 146.425 31.2317 146.24 31.454L132 48.3468C131.552 48.8791 130.743 48.9592 130.193 48.5257C129.643 48.0921 129.56 47.3091 130.008 46.7768L143.96 30.2268L143.96 21.2289C143.96 20.5428 144.535 19.9867 145.244 19.9867C145.953 19.9867 146.527 20.5428 146.527 21.2289Z" fill="#4D4D4D"/>
<path d="M163.061 47.5619C163.06 48.2479 162.485 48.803 161.776 48.8018C161.425 48.8011 161.091 48.6619 160.849 48.4165L144.314 31.5236C143.801 31.0505 143.781 30.2643 144.27 29.7675C144.759 29.2708 145.571 29.2516 146.085 29.7248C146.116 29.7533 146.145 29.7832 146.173 29.8145L162.707 46.7073C162.935 46.9372 163.062 47.2434 163.061 47.5619Z" fill="#4D4D4D"/>
<path d="M167.574 47.5617C167.574 48.2478 166.999 48.8038 166.29 48.8038L124.71 48.8038C124.002 48.8038 123.427 48.2477 123.427 47.5617C123.427 46.8757 124.002 46.3196 124.71 46.3196L166.29 46.3196C166.999 46.3196 167.574 46.8757 167.574 47.5617Z" fill="#4D4D4D"/>
<path d="M165.007 16.2604L165.007 24.21C165.004 27.3644 162.363 29.921 159.104 29.9237L130.357 29.9237C127.098 29.921 124.456 27.3644 124.454 24.21L124.454 16.2604C124.456 13.1059 127.098 10.5494 130.357 10.5467L159.104 10.5467C162.363 10.5494 165.004 13.1059 165.007 16.2604ZM127.02 24.21C127.023 25.9924 128.515 27.4367 130.357 27.4395L159.104 27.4395C160.945 27.4367 162.437 25.9924 162.44 24.21L162.44 16.2604C162.437 14.4779 160.945 13.0336 159.104 13.0309L130.357 13.0309C128.515 13.0336 127.023 14.4779 127.02 16.2604L127.02 24.21Z" fill="#4D4D4D"/>
<path d="M155.767 61.7219C155.767 67.2099 151.17 71.6588 145.5 71.6588C139.83 71.6588 135.234 67.2099 135.234 61.7219C135.234 56.2338 139.83 51.7849 145.5 51.7849C151.17 51.7849 155.767 56.2338 155.767 61.7219ZM137.8 61.7219C137.8 65.8379 141.248 69.1746 145.5 69.1746C149.753 69.1746 153.2 65.8379 153.2 61.7219C153.2 57.6058 149.753 54.2692 145.5 54.2692C141.248 54.2692 137.8 57.6058 137.8 61.7219Z" fill="white"/>
<path d="M280.507 250.773C280.507 251.459 279.932 252.015 279.224 252.015L11.2638 252.015C10.555 252.015 9.98047 251.459 9.98047 250.773C9.98047 250.087 10.555 249.53 11.2638 249.53L279.224 249.53C279.932 249.53 280.507 250.087 280.507 250.773Z" fill="white"/>
<path d="M181.434 250.524C181.434 270.007 165.116 285.8 144.987 285.8C124.858 285.8 108.54 270.007 108.54 250.524C108.54 231.042 124.858 215.248 144.987 215.248C165.106 215.27 181.411 231.051 181.434 250.524ZM111.107 250.524C111.107 268.635 126.276 283.316 144.987 283.316C163.698 283.316 178.867 268.635 178.867 250.524C178.867 232.414 163.698 217.732 144.987 217.732C126.285 217.754 111.13 232.423 111.107 250.524Z" fill="white"/>
<path d="M290.26 321.325C290.26 322.011 289.686 322.567 288.977 322.567L269.47 322.567C268.762 322.567 268.187 322.011 268.187 321.325C268.187 320.639 268.762 320.083 269.47 320.083L288.977 320.083C289.686 320.083 290.26 320.639 290.26 321.325Z" fill="white"/>
<path d="M290.26 182.207C290.26 182.893 289.686 183.45 288.977 183.45L269.47 183.45C268.762 183.45 268.187 182.893 268.187 182.207C268.187 181.521 268.762 180.965 269.47 180.965L288.977 180.965C289.686 180.965 290.26 181.521 290.26 182.207Z" fill="white"/>
<path d="M22.3004 321.325C22.3004 322.011 21.7258 322.567 21.017 322.567L1.51038 322.567C0.801619 322.567 0.227051 322.011 0.227051 321.325C0.227051 320.639 0.801619 320.083 1.51038 320.083L21.017 320.083C21.7258 320.083 22.3004 320.639 22.3004 321.325Z" fill="white"/>
<path d="M22.3004 182.207C22.3004 182.893 21.7258 183.45 21.017 183.45L1.51038 183.45C0.801619 183.45 0.227051 182.893 0.227051 182.207C0.227051 181.521 0.801619 180.965 1.51038 180.965L21.017 180.965C21.7258 180.965 22.3004 181.521 22.3004 182.207Z" fill="white"/>
</g>
<defs>
<clipPath id="clip0_4312_4751">
<rect width="493" height="291" fill="white" transform="translate(0 493) rotate(-90)"/>
</clipPath>
</defs>
</svg>
