<svg width="27" height="30" viewBox="0 0 27 30" fill="none" xmlns="http://www.w3.org/2000/svg">
<path d="M0.807129 27.5046L0.807129 14.1759C0.807505 13.8861 0.871359 13.6 0.994036 13.3385C1.11671 13.077 1.29512 12.8467 1.51625 12.6643C3.25951 11.2215 5.23862 9.00644 5.42057 7.19862C5.54808 5.93108 5.6953 3.52435 5.78964 1.86018C5.81716 1.37575 6.02543 0.920366 6.37178 0.587309C6.71814 0.254252 7.17638 0.0687237 7.65264 0.0687256L9.10095 0.0687256C9.10095 0.0687256 9.61931 4.61073 13.6626 4.61073C17.7058 4.61073 18.2242 0.0687256 18.2242 0.0687256L19.6725 0.0687256C20.1487 0.0687237 20.607 0.254252 20.9533 0.587309C21.2997 0.920366 21.5079 1.37575 21.5355 1.86018C21.6298 3.52435 21.777 5.93108 21.9045 7.19862C22.0865 9.00644 24.0656 11.2215 25.8088 12.6643C26.03 12.8467 26.2084 13.077 26.3311 13.3385C26.4537 13.6 26.5176 13.8861 26.518 14.1759L26.518 27.5046C26.518 27.9741 26.3349 28.4244 26.0091 28.7564C25.6832 29.0884 25.2412 29.2749 24.7804 29.2749L2.54261 29.2749C2.08214 29.2743 1.64072 29.0876 1.31531 28.7556C0.989906 28.4237 0.807129 27.9737 0.807129 27.5046Z" fill="#484848"/>
</svg>
