<svg width="26" height="30" viewBox="0 0 26 30" fill="none" xmlns="http://www.w3.org/2000/svg">
<path d="M0.650635 27.9549L0.650635 14.6262C0.650994 14.3364 0.711945 14.0503 0.829046 13.7888C0.946147 13.5273 1.11644 13.297 1.32752 13.1147C2.99154 11.6718 4.88069 9.45676 5.05437 7.64894C5.17609 6.3814 5.31662 3.97467 5.40667 2.3105C5.43294 1.82606 5.63174 1.37068 5.96235 1.03763C6.29297 0.704569 6.73038 0.519041 7.18499 0.519043L8.56746 0.519043C8.56746 0.519043 9.06227 5.06105 12.9217 5.06105C16.7812 5.06105 17.276 0.519043 17.276 0.519043L18.6585 0.519043C19.1131 0.519041 19.5505 0.704569 19.8811 1.03763C20.2117 1.37068 20.4105 1.82606 20.4368 2.3105C20.5268 3.97467 20.6673 6.3814 20.7891 7.64894C20.9627 9.45676 22.8519 11.6718 24.5159 13.1147C24.727 13.297 24.8973 13.5273 25.0144 13.7888C25.1315 14.0503 25.1924 14.3364 25.1928 14.6262L25.1928 27.9549C25.1928 28.4244 25.0181 28.8747 24.707 29.2067C24.396 29.5387 23.9741 29.7252 23.5342 29.7252L2.30723 29.7252C1.86769 29.7246 1.44633 29.5379 1.13572 29.2059C0.825104 28.874 0.650634 28.424 0.650635 27.9549Z" fill="white"/>
</svg>
